<?xml version="1.0" encoding="UTF-8" standalone="no"?>
<!-- Created with Inkscape (http://www.inkscape.org/) -->

<svg
   width="256"
   height="64"
   viewBox="0 0 256 64"
   version="1.1"
   id="svg1"
   xmlns="http://www.w3.org/2000/svg"
   xmlns:svg="http://www.w3.org/2000/svg">
  <g
     id="PEAK_LEFT_ayer1">
    <rect
       style="fill:#000000;fill-opacity:1;stroke:none;stroke-width:9.3;stroke-linecap:round;stroke-linejoin:round"
       id="PEAK_RIGHT_ect1"
       width="256"
       height="64"
       x="0"
       y="0" />
    <g
       id="g2"
       transform="matrix(0.39361454,0,0,0.39361454,252.35997,112.55295)">
      <path
         id="path22581-0"
         style="font-size:17.3333px;font-family:Arimo;-inkscape-font-specification:Arimo;fill:#f7f7d7;fill-opacity:1;fill-rule:evenodd;stroke-width:0.500001;stroke-linecap:round;stroke-linejoin:round"
         d="m -371.29284,-262.197 v 11.92379 h 1.61529 v -4.64649 h 3.50389 c 1.2638,0 2.2625,-0.33219 2.99611,-0.998 0.73908,-0.66581 1.10929,-1.563 1.10929,-2.69141 0,-1.13979 -0.36624,-2.0221 -1.09958,-2.6485 -0.73353,-0.62619 -1.77022,-0.93939 -3.10741,-0.93939 z m 11.56059,0 v 11.92379 h 9.39451 v -1.32029 h -7.77732 v -4.15431 h 6.92182 v -1.30469 h -6.92182 v -3.8242 h 7.4296 v -1.3203 z m 15.03901,0 -4.8652,11.92379 h 1.6758 l 1.3711,-3.4863 h 5.4336 l 1.36128,3.4863 h 1.6504 l -4.78911,-11.92379 z m 8.08399,0 v 11.92379 h 1.61518 v -4.5703 l 1.5586,-1.1836 4.76372,5.7539 h 2.00591 l -5.75392,-6.74409 5.0781,-5.1797 h -1.90428 l -5.74813,5.97459 v -5.97459 z m 16.377,0 v 11.92379 h 7.6425 v -1.32029 h -6.02732 v -10.6035 z m 9.63858,0 v 11.92379 h 9.39463 v -1.32029 h -7.7774 v -4.15431 h 6.9239 v -1.30469 h -6.9239 v -3.8242 h 7.43168 v -1.3203 z m 10.21682,0 4.86531,11.92379 h 1.67577 l 4.86713,-11.92379 h -1.70113 l -3.2832,8.39449 -0.71097,2.1074 -0.71093,-2.1074 -3.30077,-8.39449 z m 12.9063,0 v 11.92379 h 9.3945 v -1.32029 h -7.77732 v -4.15431 h 6.92183 v -1.30469 h -6.92183 v -3.8242 h 7.42972 v -1.3203 z m 11.56051,0 v 11.92379 h 7.64259 v -1.32029 h -6.0254 v -10.6035 z m 13.81248,0 v 11.92379 h 1.4395 v -7.9551 l -0.034,-1.59959 -0.0265,-0.93941 0.27931,0.9316 0.47459,1.43751 3.1231,8.12499 h 1.13481 l 3.08001,-8.12499 c 0.21997,-0.5699 0.4676,-1.3591 0.74419,-2.36911 -0.051,0.8125 -0.0741,1.6588 -0.0741,2.539 v 7.9551 h 1.455 V -262.197 h -2.0742 l -3.1152,8.2676 c -0.051,0.11841 -0.14816,0.41029 -0.2948,0.873 -0.14098,0.457 -0.23396,0.79769 -0.27931,1.0234 -0.034,-0.16921 -0.10583,-0.4422 -0.21279,-0.8203 -0.10167,-0.3836 -0.20749,-0.7433 -0.32012,-1.0761 l -3.1739,-8.2676 z m 14.43949,0 v 11.92379 h 9.39451 v -1.32029 h -7.77729 v -4.15431 h 6.92179 v -1.30469 h -6.92179 v -3.8242 h 7.42969 v -1.3203 z m 10.52731,0 v 1.3203 h 4.09769 v 10.60349 h 1.60743 v -10.60349 h 4.09569 v -1.3203 z m 11.62111,0 v 11.92379 h 9.39459 v -1.32029 h -7.77739 v -4.15431 h 6.92189 v -1.30469 h -6.92189 v -3.8242 h 7.4297 v -1.3203 z m 11.5606,0 v 11.92379 h 1.6172 v -4.9512 h 3.71479 l 3.09771,4.9512 h 1.8632 l -3.38671,-5.1367 c 0.90841,-0.1579 1.61941,-0.5389 2.13281,-1.1426 0.51919,-0.6037 0.77929,-1.34849 0.77929,-2.2344 0,-1.07199 -0.36601,-1.9078 -1.09959,-2.5058 -0.7278,-0.60379 -1.76451,-0.90429 -3.10741,-0.90429 z m -129.84569,1.21869 0.22867,0.7012 c 0.15798,0.49091 0.31483,0.931 0.47259,1.3203 l 1.5332,3.93561 h -4.4609 l 1.52341,-3.91801 c 0.27667,-0.7335 0.4859,-1.3344 0.62699,-1.80269 z m -25.88281,0.076 h 3.2089 c 1.85068,0 2.77538,0.7702 2.77538,2.3106 0,1.5967 -0.90338,2.3945 -2.70898,2.3945 h -3.2753 z m 157.3457,0 h 3.83389 c 0.88591,0 1.56301,0.1821 2.0313,0.5488 0.47401,0.36121 0.71091,0.89 0.71091,1.584 0,0.7166 -0.23479,1.2752 -0.7031,1.6758 -0.46271,0.3949 -1.1187,0.5918 -1.9707,0.5918 h -3.9023 z m -416.87699,25.291 v 11.9258 h 7.64259 v -1.3203 h -6.0254 v -10.6055 z m 9.64059,0 v 11.9258 h 9.39459 v -1.3203 h -7.7774 v -4.1563 h 6.9219 v -1.3027 h -6.9219 v -3.8262 h 7.42972 v -1.3203 z m 11.5606,0 v 11.9258 h 1.61718 v -4.832 h 6.65231 v -1.3379 h -6.65231 v -4.4356 h 6.85542 v -1.3203 z m 9.55661,0 v 1.3203 h 4.09568 v 10.6055 h 1.6074 v -10.6055 h 4.09772 v -1.3203 z m 40.84567,16.7679 v 17.6191 h 2.18562 v -17.6192 z m 35.59181,0 v 17.6191 h 2.18562 v -17.6192 z m 36.4746,0 v 17.6191 h 2.18562 v -17.6192 z m 35.41409,0 v 17.6191 h 2.18552 v -17.6192 z m 36.38873,0 v 17.6191 h 2.18547 v -17.6192 z m 35.58977,0 v 17.6191 h 2.18562 v -17.6192 z m 36.4766,0 v 17.6191 h 2.18551 v -17.6192 z m 35.9433,0 v 17.6191 h 2.18752 v -17.6192 z m 35.5039,0 v 17.6191 h 2.18563 v -17.6192 z m 72.01761,0 v 17.6191 h 2.18561 v -17.6192 z m 36.47661,0 v 17.6191 h 2.1855 v -17.6192 z m 35.414,0 v 17.6191 h 2.1856 v -17.6192 z m 35.501995,0 v 17.6191 h 2.1855 v -17.6192 z m 35.058599,0 v 17.6191 h 2.1875 v -17.6192 z m 36.300802,0 v 17.6191 h 2.185501 v -17.6192 z m -224.421886,1.1973 v 14.9863 h 10.416 v -14.98629 z m 11.58399,0.0121 v 14.9863 h 10.41599 v -14.9863 z m -9.41412,1.8633 h 2.1699 c 2.37052,0 4.34181,2.5206 4.34181,5.6211 0,3.1073 -1.97239,5.6211 -4.34181,5.6211 h -2.1699 z m 15.48052,0.0121 h 2.17189 v 11.2422 h -2.17189 c -2.36832,0 -4.33991,-2.514 -4.33991,-5.6211 0,-3.10061 1.97049,-5.6211 4.33991,-5.6211 z m -332.17579,18.5644 c -1.09463,0 -1.9917,0.275 -2.69141,0.8223 -0.69399,0.5473 -1.0961,1.309 -1.20899,2.2852 l 1.53127,0.11709 c 0.068,-0.6262 0.3069,-1.1108 0.71872,-1.455 0.41749,-0.3442 0.96329,-0.5157 1.6348,-0.5157 0.73908,0 1.29358,0.18618 1.66601,0.5586 0.37807,0.3668 0.56829,0.8683 0.56829,1.5059 0,0.6433 -0.23244,1.1489 -0.69532,1.5156 -0.45698,0.36121 -1.10237,0.541 -1.9375,0.541 h -0.82998 v 1.32022 h 0.86321 c 0.94227,-9e-5 1.66178,0.18399 2.15818,0.5507 0.50222,0.36121 0.7539,0.86481 0.7539,1.51371 0,0.74469 -0.21997,1.3075 -0.66009,1.6856 -0.43442,0.37799 -1.03529,0.5664 -1.80272,0.5664 -1.52909,0 -2.3946,-0.7047 -2.59767,-2.1153 l -1.57421,0.1426 c 0.1353,1.0664 0.56069,1.8746 1.27729,2.4219 0.72219,0.5416 1.6871,0.8125 2.89459,0.8125 1.2977,0 2.2964,-0.30252 2.9961,-0.9063 0.69963,-0.6037 1.04882,-1.4564 1.04882,-2.5566 0,-0.7617 -0.24756,-1.3923 -0.74419,-1.8945 -0.49651,-0.5022 -1.19051,-0.8026 -2.08202,-0.8985 v -0.0329 c 0.81252,-0.16929 1.43032,-0.4909 1.85351,-0.9648 0.42879,-0.4796 0.6426,-1.0996 0.6426,-1.8614 0,-0.993 -0.33222,-1.7673 -0.99802,-2.3203 -0.66017,-0.5586 -1.58899,-0.8379 -2.78517,-0.8379 z m 9.72457,0 c -1.4445,0 -2.50239,0.512 -3.17378,1.5332 -0.66581,1.0213 -0.9981,2.5554 -0.9981,4.6036 0,2.003 0.34507,3.5264 1.03321,4.5703 0.6884,1.0438 1.71689,1.56639 3.08787,1.56639 1.37121,0 2.40783,-0.52479 3.10742,-1.57419 0.70541,-1.0495 1.05671,-2.5708 1.05671,-4.5625 0,-2.0256 -0.33448,-3.5553 -1.00592,-4.5879 -0.6658,-1.0326 -1.70248,-1.5489 -3.10741,-1.5489 z m 25.03521,0 c -1.09459,0 -1.99181,0.28339 -2.6914,0.8477 -0.694,0.5642 -1.09618,1.32179 -1.20899,2.2754 l 1.55659,0.14449 c 0.0729,-0.6375 0.319,-1.1306 0.73629,-1.4805 0.42323,-0.35539 0.9586,-0.5332 1.60751,-0.5332 0.6827,0 1.21591,0.1799 1.59961,0.5411 0.38359,0.36098 0.57611,0.8689 0.57611,1.5234 0,0.4853 -0.11225,0.9191 -0.33788,1.3027 -0.21997,0.3837 -0.51202,0.7517 -0.87311,1.1016 -0.36095,0.34979 -0.76729,0.699 -1.21871,1.0488 -0.4458,0.34991 -0.89651,0.7307 -1.3536,1.1426 -0.45698,0.4063 -0.89488,0.8633 -1.31248,1.3711 -0.41182,0.5022 -0.76101,1.084 -1.04882,1.7441 v 1.0743 h 7.89653 v -1.295 h -6.22073 c 0.16933,-0.3949 0.4464,-0.8033 0.8301,-1.2265 0.38362,-0.4288 0.89991,-0.9091 1.54882,-1.4395 1.17928,-0.9592 1.97699,-1.668 2.39448,-2.125 0.4176,-0.4571 0.73069,-0.9141 0.93951,-1.3711 0.2143,-0.457 0.3224,-0.9162 0.3224,-1.3789 0,-1.0438 -0.3258,-1.8478 -0.97459,-2.4121 -0.6432,-0.5699 -1.56571,-0.8555 -2.76752,-0.8555 z m 9.64842,0 c -1.44442,0 -2.50243,0.512 -3.17382,1.5332 -0.6658,1.0213 -0.9981,2.5554 -0.9981,4.6036 0,2.003 0.34469,3.5264 1.03321,4.5703 0.6884,1.0438 1.71689,1.56639 3.08791,1.56639 1.37118,0 2.40779,-0.52479 3.10738,-1.57419 0.7053,-1.0495 1.05672,-2.5708 1.05672,-4.5625 0,-2.0256 -0.33449,-3.5553 -1.00593,-4.5879 -0.6658,-1.0326 -1.70248,-1.5489 -3.10737,-1.5489 z m 74.18358,0 c -1.44438,0 -2.50238,0.512 -3.17378,1.5332 -0.6658,1.0213 -0.9981,2.5554 -0.9981,4.6036 0,2.003 0.34281,3.5264 1.03128,4.5703 0.68829,1.0438 1.71871,1.56639 3.08981,1.56639 1.3711,0 2.40578,-0.52479 3.10548,-1.57419 0.70522,-1.0495 1.05861,-2.5708 1.05861,-4.5625 0,-2.0256 -0.33638,-3.5553 -1.00781,-4.5879 -0.6658,-1.0326 -1.7006,-1.5489 -3.10549,-1.5489 z m 99.12499,0 c -1.09459,0 -1.99169,0.275 -2.6914,0.8223 -0.694,0.5473 -1.09818,1.309 -1.21088,2.2852 l 1.5332,0.11709 c 0.068,-0.6262 0.3069,-1.1108 0.71871,-1.455 0.41749,-0.3442 0.9614,-0.5157 1.6328,-0.5157 0.73908,0 1.29558,0.18618 1.66798,0.5586 0.3781,0.3668 0.5664,0.8683 0.5664,1.5059 0,0.6433 -0.23055,1.1489 -0.69339,1.5156 -0.45699,0.36121 -1.10442,0.541 -1.93939,0.541 h -0.8281 v 1.32022 h 0.86317 c 0.94231,-9e-5 1.66171,0.18399 2.15823,0.5507 0.50218,0.36121 0.75197,0.86481 0.75197,1.51371 0,0.74469 -0.21997,1.3075 -0.66017,1.6856 -0.43442,0.37799 -1.03533,0.5664 -1.80272,0.5664 -1.52908,0 -2.39448,-0.7047 -2.59771,-2.1153 l -1.57417,0.1426 c 0.13568,1.0664 0.56077,1.8746 1.2774,2.4219 0.7222,0.5416 1.68707,0.8125 2.89448,0.8125 1.29781,0 2.29652,-0.30252 2.99611,-0.9063 0.6997,-0.6037 1.05078,-1.4564 1.05078,-2.5566 0,-0.7617 -0.24945,-1.3923 -0.74608,-1.8945 -0.49659,-0.5022 -1.19059,-0.8026 -2.0821,-0.8985 v -0.0329 c 0.81248,-0.16929 1.4304,-0.4909 1.85359,-0.9648 0.42879,-0.4796 0.64452,-1.0996 0.64452,-1.8614 0,-0.993 -0.33411,-1.7673 -1.00002,-2.3203 -0.6601,-0.5586 -1.58699,-0.8379 -2.78321,-0.8379 z m 39.5664,0 c -1.09459,0 -1.99169,0.28339 -2.6914,0.8477 -0.694,0.5642 -1.0981,1.32179 -1.21088,2.2754 l 1.5586,0.14449 c 0.0729,-0.6375 0.31861,-1.1306 0.73629,-1.4805 0.42312,-0.35539 0.95852,-0.5332 1.60739,-0.5332 0.6827,0 1.21592,0.1799 1.59961,0.5411 0.3837,0.36098 0.57619,0.8689 0.57619,1.5234 0,0.4853 -0.11414,0.9191 -0.33978,1.3027 -0.21997,0.3837 -0.51001,0.7517 -0.8711,1.1016 -0.36095,0.34979 -0.76729,0.699 -1.21867,1.0488 -0.44572,0.34991 -0.89651,0.7307 -1.35353,1.1426 -0.45709,0.4063 -0.89499,0.8633 -1.31248,1.3711 -0.41193,0.5022 -0.76112,1.084 -1.04882,1.7441 v 1.0743 h 7.89642 v -1.295 h -6.22072 c 0.16932,-0.3949 0.44451,-0.8033 0.8282,-1.2265 0.3837,-0.4288 0.89991,-0.9091 1.54882,-1.4395 1.17917,-0.9592 1.97888,-1.668 2.39648,-2.125 0.41753,-0.4571 0.73062,-0.9141 0.9394,-1.3711 0.2143,-0.457 0.32013,-0.9162 0.32013,-1.3789 0,-1.0438 -0.32391,-1.8478 -0.97263,-2.4121 -0.6432,-0.5699 -1.56566,-0.8555 -2.76759,-0.8555 z m 68.40231,0 c -1.44438,0 -2.50231,0.512 -3.17378,1.5332 -0.6658,1.0213 -0.99803,2.5554 -0.99803,4.6036 0,2.003 0.34281,3.5264 1.03121,4.5703 0.6884,1.0438 1.71882,1.56639 3.08992,1.56639 1.3711,0 2.40578,-0.52479 3.10537,-1.57419 0.7053,-1.0495 1.05861,-2.5708 1.05861,-4.5625 0,-2.0256 -0.33638,-3.5553 -1.00778,-4.5879 -0.6658,-1.0326 -1.70052,-1.5489 -3.10552,-1.5489 z m 78.043,0 c -1.0946,0 -1.99169,0.28339 -2.69139,0.8477 -0.694,0.5642 -1.0981,1.32179 -1.2109,2.2754 l 1.55659,0.14449 c 0.073,-0.6375 0.31881,-1.1306 0.73631,-1.4805 0.4232,-0.35539 0.96049,-0.5332 1.60939,-0.5332 0.6827,0 1.21601,0.1799 1.59961,0.5411 0.3837,0.36098 0.5742,0.8689 0.5742,1.5234 0,0.4853 -0.11222,0.9191 -0.33782,1.3027 -0.22008,0.3837 -0.51,0.7517 -0.8711,1.1016 -0.36109,0.34979 -0.76739,0.699 -1.21879,1.0488 -0.44571,0.34991 -0.89841,0.7307 -1.35551,1.1426 -0.457,0.4063 -0.893,0.8633 -1.31049,1.3711 -0.4119,0.5022 -0.76311,1.084 -1.05081,1.7441 v 1.0743 h 7.89651 v -1.295 h -6.22071 c 0.16929,-0.3949 0.4464,-0.8033 0.83011,-1.2265 0.38359,-0.4288 0.89989,-0.9091 1.54879,-1.4395 1.17931,-0.9592 1.97701,-1.668 2.3945,-2.125 0.4176,-0.4571 0.7307,-0.9141 0.9395,-1.3711 0.21442,-0.457 0.32221,-0.9162 0.32221,-1.3789 0,-1.0438 -0.32372,-1.8478 -0.9726,-2.4121 -0.6433,-0.5699 -1.5658,-0.8555 -2.7676,-0.8555 z m 34.1328,0 c -1.0946,0 -1.99169,0.275 -2.69139,0.8223 -0.694,0.5473 -1.0981,1.309 -1.2109,2.2852 l 1.5332,0.11709 c 0.068,-0.6262 0.30689,-1.1108 0.7187,-1.455 0.4176,-0.3442 0.96139,-0.5157 1.6328,-0.5157 0.7392,0 1.2956,0.18618 1.668,0.5586 0.37799,0.3668 0.5664,0.8683 0.5664,1.5059 0,0.6433 -0.23071,1.1489 -0.6933,1.5156 -0.45701,0.36121 -1.1025,0.541 -1.9375,0.541 h -0.83011 v 1.32022 h 0.86331 c 0.94219,-9e-5 1.6616,0.18399 2.1582,0.5507 0.50219,0.36121 0.7539,0.86481 0.7539,1.51371 0,0.74469 -0.22001,1.3075 -0.66021,1.6856 -0.4344,0.37799 -1.03539,0.5664 -1.80269,0.5664 -1.52911,0 -2.3965,-0.7047 -2.5996,-2.1153 l -1.5742,0.1426 c 0.13538,1.0664 0.5627,1.8746 1.27929,2.4219 0.7222,0.5416 1.687,0.8125 2.89451,0.8125 1.2977,0 2.2964,-0.30252 2.9961,-0.9063 0.69959,-0.6037 1.0488,-1.4564 1.0488,-2.5566 0,-0.7617 -0.2476,-1.3923 -0.74411,-1.8945 -0.4966,-0.5022 -1.19049,-0.8026 -2.0821,-0.8985 v -0.0329 c 0.81261,-0.16929 1.4304,-0.4909 1.85351,-0.9648 0.4288,-0.4796 0.6426,-1.0996 0.6426,-1.8614 0,-0.993 -0.33222,-1.7673 -0.998,-2.3203 -0.6602,-0.5586 -1.589,-0.8379 -2.78521,-0.8379 z m 112.3535035,0 c -1.4443994,0 -2.5022965,0.512 -3.1737975,1.5332 -0.665802,1.0213 -0.999999,2.5554 -0.999999,4.6036 0,2.003 0.344806,3.5264 1.033198,4.5703 0.688301,1.0438 1.7186986,1.56639 3.0898999,1.56639 1.371001,0 2.4058016,-0.52479 3.1053997,-1.57419 0.7053014,-1.0495 1.0586004,-2.5708 1.0586004,-4.5625 0,-2.0256 -0.3364158,-3.5553 -1.0077997,-4.5879 -0.6658016,-1.0326 -1.7005002,-1.5489 -3.1055018,-1.5489 z m -481.1269135,0.17779 -2.81839,1.9394 v 1.43749 l 2.6914,-1.91989 v 9.17379 h -3.03708 v 1.29501 h 7.47269 v -1.29501 h -2.90241 v -10.63079 z m 6.59373,0 -0.3984,6.41599 h 1.49019 c 0.35565,-0.3103 0.711,-0.5304 1.06639,-0.66019 0.35566,-0.12972 0.7386,-0.19529 1.15042,-0.19529 0.78999,0 1.4163,0.2327 1.87887,0.6953 0.4684,0.4627 0.70322,1.068 0.70322,1.8184 0,0.8633 -0.23055,1.5445 -0.69339,2.041 -0.46273,0.4909 -1.1037,0.7363 -1.92193,0.7363 -1.3316,0 -2.15879,-0.5902 -2.48039,-1.7695 l -1.5391,0.17772 c 0.18066,0.9198 0.61221,1.62219 1.29491,2.10749 0.68281,0.4852 1.57988,0.7285 2.6914,0.7285 1.32601,0 2.36069,-0.36181 3.10549,-1.08399 0.75042,-0.7222 1.12501,-1.7124 1.12501,-2.97071 0,-1.10589 -0.34923,-2.00309 -1.04882,-2.69139 -0.694,-0.6884 -1.6272,-1.03321 -2.80078,-1.03321 -0.98169,0 -1.8028,0.2538 -2.46289,0.7617 l 0.22866,-3.78319 h 5.39063 v -1.2949 z m 32.9063,0 -2.81843,1.9394 v 1.43749 l 2.6914,-1.91989 v 9.17379 h -3.039 v 1.29501 h 7.47462 v -1.29501 h -2.9043 v -10.63079 z m 35.9023,0 v 1.2949 h 6.4063 c -1.51223,2.1949 -2.59143,4.13709 -3.2403,5.8242 -0.6432,1.68139 -0.9648,3.2832 -0.9648,4.8067 h 1.58978 c 0,-1.1003 0.12473,-2.16451 0.37304,-3.1915 0.25399,-1.02691 0.63258,-2.06791 1.1348,-3.12301 0.50208,-1.0551 1.3612,-2.513 2.57999,-4.375 v -1.23629 z m 35.22459,0 -0.39639,6.41599 h 1.48819 c 0.35565,-0.3103 0.711,-0.5304 1.06639,-0.66019 0.35565,-0.12972 0.7386,-0.19529 1.15041,-0.19529 0.79,0 1.4182,0.2327 1.88088,0.6953 0.46833,0.4627 0.70122,1.068 0.70122,1.8184 0,0.8633 -0.23055,1.5445 -0.69339,2.041 -0.46273,0.4909 -1.1037,0.7363 -1.92193,0.7363 -1.3316,0 -2.1569,-0.5902 -2.4785,-1.7695 l -1.54099,0.17772 c 0.18066,0.9198 0.61232,1.62219 1.29491,2.10749 0.6828,0.4852 1.57991,0.7285 2.6914,0.7285 1.32601,0 2.36069,-0.36181 3.10548,-1.08399 0.75043,-0.7222 1.12702,-1.7124 1.12702,-2.97071 0,-1.10589 -0.35112,-2.00309 -1.05082,-2.69139 -0.694,-0.6884 -1.6272,-1.03321 -2.80078,-1.03321 -0.98181,0 -1.8028,0.2538 -2.46289,0.7617 l 0.22828,-3.78319 h 5.39063 v -1.2949 z m 111.88869,0 -2.81828,1.9394 v 1.43749 l 2.6914,-1.91989 v 9.17379 h -3.03912 v 1.29501 h 7.47269 v -1.29501 h -2.90237 v -10.63079 z m 72.7442,0 -2.81839,1.9394 v 1.43749 l 2.6914,-1.91989 v 9.17379 h -3.0391 v 1.29501 h 7.4727 v -1.29501 h -2.9024 v -10.63079 z m 104.396404,0 -0.396397,6.41599 h 1.488197 c 0.355502,-0.3103 0.711001,-0.5304 1.066401,-0.66019 0.355502,-0.12972 0.7405,-0.19529 1.152401,-0.19529 0.789898,0 1.4162,0.2327 1.878901,0.6953 0.468299,0.4627 0.701197,1.068 0.701197,1.8184 0,0.8633 -0.230702,1.5445 -0.6934,2.041 -0.462697,0.4909 -1.103697,0.7363 -1.921897,0.7363 -1.331603,0 -2.156901,-0.5902 -2.478501,-1.7695 l -1.541,0.17772 c 0.18051,0.9198 0.6122,1.62219 1.2949,2.10749 0.682798,0.4852 1.579899,0.7285 2.691398,0.7285 1.326002,0 2.3607,-0.36181 3.105502,-1.08399 0.7505,-0.7222 1.1269,-1.7124 1.1269,-2.97071 0,-1.10589 -0.351081,-2.00309 -1.050701,-2.69139 -0.694001,-0.6884 -1.6272,-1.03321 -2.8008,-1.03321 -0.981801,0 -1.802801,0.2538 -2.462899,0.7617 l 0.22851,-3.78319 h 5.3906 v -1.2949 z m 38.4766,0 v 1.2949 h 6.406201 c -1.512098,2.1949 -2.5933,4.13709 -3.242101,5.8242 -0.6432,1.68139 -0.964899,3.2832 -0.964899,4.8067 h 1.591801 c 0,-1.1003 0.1248,-2.16451 0.373115,-3.1915 0.253909,-1.02691 0.630599,-2.06791 1.1328,-3.12301 0.502198,-1.0551 1.363299,-2.513 2.582,-4.375 v -1.23629 z m 32.9902,0 -2.818299,1.9394 v 1.43749 l 2.691402,-1.91989 v 9.17379 h -3.039103 v 1.29501 h 7.4727 v -1.29501 h -2.902397 v -10.63079 z m -606.343714,0.4082 v 3.80079 l 0.0189,1.02341 h -0.0189 c -0.28195,-0.55301 -0.6545,-0.9571 -1.11719,-1.2109 -0.46269,-0.25399 -1.04039,-0.3809 -1.73439,-0.3809 -2.2456,0 -3.36911,1.59739 -3.36911,4.791 0,1.5799 0.27099,2.7585 0.81249,3.53709 0.54731,0.7787 1.40001,1.16801 2.55662,1.16801 0.6884,0 1.26391,-0.12692 1.7266,-0.3809 0.46829,-0.2538 0.84291,-0.6729 1.12498,-1.25971 h 0.034 c 0,0.23691 0.0113,0.5184 0.0227,0.8457 0.0227,0.3272 0.0442,0.5367 0.0608,0.62691 h 1.45512 c -0.034,-0.3046 -0.051,-0.9351 -0.051,-1.88871 v -10.67179 z m 4.11333,0.6347 v 11.9258 h 4.84177 c 1.37673,0 2.45163,-0.29401 3.22462,-0.8808 0.77299,-0.5924 1.15819,-1.4197 1.15819,-2.4805 0,-0.7955 -0.25625,-1.4516 -0.76958,-1.97071 -0.51341,-0.5247 -1.24343,-0.8442 -2.19141,-0.957 0.72219,-0.16361 1.28081,-0.48529 1.6758,-0.96489 0.395,-0.47961 0.5918,-1.0721 0.5918,-1.7773 0,-1.9298 -1.39869,-2.8946 -4.1972,-2.8946 z m 71.74407,0.0159 c 0.91412,0 1.5699,0.3871 1.9649,1.1601 0.40052,0.773 0.59962,2.0193 0.59962,3.7403 0,1.6588 -0.20749,2.8881 -0.62502,3.6894 -0.4176,0.8012 -1.07558,1.2031 -1.97269,1.2031 -0.9027,0 -1.56291,-0.3934 -1.98051,-1.1777 -0.41189,-0.7843 -0.61719,-2.0222 -0.61719,-3.7148 0,-1.7436 0.20334,-2.9962 0.60941,-3.7579 0.41201,-0.7617 1.08491,-1.1425 2.02148,-1.1425 z m 34.68363,0 c 0.91408,0 1.56979,0.3871 1.96479,1.1601 0.40059,0.773 0.59969,2.0193 0.59969,3.7403 0,1.6588 -0.20749,2.8881 -0.62498,3.6894 -0.4176,0.8012 -1.07562,1.2031 -1.97272,1.2031 -0.90278,0 -1.56288,-0.3934 -1.98048,-1.1777 -0.41181,-0.7843 -0.61723,-2.0222 -0.61723,-3.7148 0,-1.7436 0.20334,-2.9962 0.60941,-3.7579 0.41189,-0.7617 1.08491,-1.1425 2.02152,-1.1425 z m 74.18358,0 c 0.91412,0 1.5679,0.3871 1.9629,1.1601 0.40059,0.773 0.60151,2.0193 0.60151,3.7403 0,1.6588 -0.20938,2.8881 -0.62691,3.6894 -0.41748,0.8012 -1.07361,1.2031 -1.97068,1.2031 -0.90282,0 -1.56291,-0.3934 -1.98051,-1.1777 -0.41182,-0.7843 -0.61909,-2.0222 -0.61909,-3.7148 0,-1.7436 0.20334,-2.9962 0.60938,-3.7579 0.41189,-0.7617 1.0868,-1.1425 2.0234,-1.1425 z m 207.0937,0 c 0.91412,0 1.5679,0.3871 1.9629,1.1601 0.40059,0.773 0.60162,2.0193 0.60162,3.7403 0,1.6588 -0.20938,2.8881 -0.62702,3.6894 -0.41749,0.8012 -1.0735,1.2031 -1.97068,1.2031 -0.90282,0 -1.56291,-0.3934 -1.9804,-1.1777 -0.41193,-0.7843 -0.6192,-2.0222 -0.6192,-3.7148 0,-1.7436 0.20334,-2.9962 0.60937,-3.7579 0.41193,-0.7617 1.0868,-1.1425 2.02341,-1.1425 z m 224.5293035,0 c 0.9141014,0 1.5680013,0.3871 1.9629014,1.1601 0.4005997,0.773 0.6015988,2.0193 0.6015988,3.7403 0,1.6588 -0.2093859,2.8881 -0.6269972,3.6894 -0.4175017,0.8012 -1.0755024,1.2031 -1.9725997,1.2031 -0.9028006,0 -1.563001,-0.3934 -1.9805028,-1.1777 -0.4119,-0.7843 -0.617201,-2.0222 -0.617201,-3.7148 0,-1.7436 0.203112,-2.9962 0.609404,-3.7579 0.4118966,-0.7617 1.0867993,-1.1425 2.0233965,-1.1425 z m -196.0409935,0.86319 v 3.62311 h -3.58791 v 1.2344 h 3.58791 v 3.623 h 1.24419 v -3.623 h 3.58791 v -1.2344 h -3.58791 v -3.62311 z m 39.02539,0 v 3.62311 h -3.58789 v 1.2344 h 3.58789 v 3.623 h 1.24421 v -3.623 h 3.5878 v -1.2344 h -3.5878 v -3.62311 z m 34.209,0 v 3.62311 h -3.58789 v 1.2344 h 3.58789 v 3.623 h 1.2441 v -3.623 h 3.58991 v -1.2344 h -3.58991 v -3.62311 z m 34.210905,0 v 3.62311 h -3.589795 v 1.2344 h 3.589795 v 3.623 h 1.244201 v -3.623 h 3.587898 v -1.2344 h -3.587898 v -3.62311 z m 39.025399,0 v 3.62311 h -3.589799 v 1.2344 h 3.589799 v 3.623 h 1.244201 v -3.623 h 3.587902 v -1.2344 h -3.587902 v -3.62311 z m 29.3926,0 v 3.62311 h -3.587898 v 1.2344 h 3.587898 v 3.623 h 1.244103 v -3.623 h 3.587898 v -1.2344 h -3.587898 v -3.62311 z m -590.439394,0.41611 h 2.7168 c 0.83501,0 1.4719,0.1375 1.9121,0.414 0.44001,0.27651 0.66009,0.7377 0.66009,1.3809 0,0.6715 -0.21392,1.1708 -0.64259,1.498 -0.42319,0.3216 -1.06639,0.48249 -1.9296,0.48249 h -2.7168 z m -8.1758,2.4297 c 0.85198,-1e-4 1.47201,0.2815 1.8613,0.8457 0.3893,0.5642 0.58398,1.4529 0.58398,2.666 0,1.2582 -0.19465,2.1871 -0.58398,2.7851 -0.38929,0.5982 -1.01559,0.8965 -1.87891,0.8965 -0.76169,0 -1.31188,-0.27712 -1.65041,-0.8301 -0.33864,-0.5529 -0.50778,-1.4692 -0.50778,-2.75 0,-1.2752 0.16933,-2.19551 0.50778,-2.7597 0.34432,-0.5699 0.90063,-0.8536 1.66802,-0.8535 z m 58.81249,1.87689 v 1.3535 h 4.23042 v -1.3535 z m 34.68359,0 v 1.3535 h 4.23042 v -1.3535 z m 34.68363,0 v 1.3535 h 4.23038 v -1.3535 z m 39.49799,0 v 1.3535 h 4.23239 v -1.3535 z m 39.49999,0 v 1.3535 h 4.23239 v -1.3535 z m 34.67581,0 v 1.3535 h 4.2305 v -1.3535 z m 34.6738,0 v 1.3535 h 4.23239 v -1.3535 z m 39.49028,0 v 1.3535 h 4.23243 v -1.3535 z m 34.67573,0 v 1.3535 h 4.2325 v -1.3535 z m -342.51751,0.7285 h 3.01168 c 1.9748,0 2.96292,0.7024 2.96292,2.1074 0,0.7279 -0.22639,1.2759 -0.67782,1.6426 -0.45139,0.3668 -1.17078,0.5508 -2.15819,0.5508 h -3.13859 z m 61.19718,8.23237 v 17.1934 h 2.18562 v -17.1934 z m 35.59181,0 v 17.1934 h 2.18562 v -17.1934 z m 36.4746,0 v 17.1934 h 2.18562 v -17.1934 z m 35.41409,0 v 17.1934 h 2.18552 v -17.1934 z m 36.38873,0 v 17.1934 h 2.18547 v -17.1934 z m 35.58977,0 v 17.1934 h 2.18562 v -17.1934 z m 36.4766,0 v 17.1934 h 2.18551 v -17.1934 z m 35.9433,0 v 17.1934 h 2.18752 v -17.1934 z m 35.5039,0 v 17.1934 h 2.18563 v -17.1934 z m 72.01761,0 v 17.1934 h 2.18561 v -17.1934 z m 36.47661,0 v 17.1934 h 2.1855 v -17.1934 z m 35.414,0 v 17.1934 h 2.1856 v -17.1934 z m 35.501995,0 v 17.1934 h 2.1855 v -17.1934 z m 35.058599,0 v 17.1934 h 2.1875 v -17.1934 z m 36.300802,0 v 17.1934 h 2.185501 v -17.1934 z m -224.295006,2.6094 v 14.9883 h 10.41612 v -14.9883 z m 11.58399,0.014 v 14.9863 h 10.41602 v -14.9863 z m -9.41397,1.8613 h 2.1699 c 2.37048,0 4.34177,2.5226 4.34177,5.6231 0,3.1073 -1.97238,5.6191 -4.34177,5.6191 h -2.1699 z m 15.48038,0.014 h 2.17 v 11.2422 h -2.17 c -2.36829,0 -4.33981,-2.51401 -4.33981,-5.62111 0,-3.1006 1.97042,-5.62109 4.33981,-5.62109 z m -382.15818,17.53911 c 0,1.87892 -3.33872,0.5291 -4.37692,1.5898 -1.0382,1.0607 -1.55667,2.5588 -1.55667,4.4941 0,1.264 0.23697,2.3642 0.71096,3.3008 0.47962,0.931 1.1715,1.6461 2.07421,2.1426 0.90281,0.4965 1.97771,0.7441 3.22461,0.7441 1.0721,0 2.06438,-0.17548 2.9785,-0.5254 0.91971,-0.35539 1.69621,-0.8548 2.32811,-1.498 v -4.1133 h -5.0527 v 1.3555 h 3.56247 v 2.1484 c -0.41748,0.4063 -0.96548,0.7279 -1.64258,0.9649 -0.6714,0.2369 -1.3951,0.35539 -2.1738,0.35539 -1.36539,0 -2.43601,-0.4338 -3.209,-1.3027 -0.77299,-0.8745 -1.1582,-2.0657 -1.1582,-3.5723 0,-1.5121 0.36397,-2.6823 1.09179,-3.5117 0.7279,-0.8351 1.77951,-1.2519 3.15632,-1.2519 0.88577,0 1.62429,0.15451 2.21677,0.4648 0.59803,0.3103 1.06772,0.8034 1.40621,1.4805 l 1.5391,-0.4571 c -0.4458,-0.9818 -1.08049,-1.6948 -1.90428,-2.1406 -0.82382,-0.4457 -3.2149,-1.9882 -3.2149,-0.6679 z m -22.71681,0.17802 v 11.92381 h 1.61718 v -4.9512 h 3.7149 l 3.09762,4.9512 h 1.86131 l -3.38472,-5.1367 c 0.90841,-0.15791 1.6193,-0.5389 2.13282,-1.1426 0.51908,-0.6037 0.7793,-1.34851 0.7793,-2.2344 0,-1.072 -0.36812,-1.9078 -1.10161,-2.5058 -0.72779,-0.6038 -1.76259,-0.90431 -3.10542,-0.90431 z m 12.69528,0 v 11.92381 h 1.61722 v -11.92381 z m 18.12113,0 v 11.92381 h 1.6153 v -5.52541 h 6.44919 v 5.52541 h 1.61719 v -11.92381 h -1.61719 v 5.04301 h -6.44919 v -5.04301 z m 11.4844,0 v 1.32031 h 4.09568 v 10.6035 h 1.6094 v -10.6035 h 4.09569 v -1.32031 z m -40.68363,1.29492 h 3.83403 c 0.88588,0 1.56298,0.18209 2.03127,0.5488 0.47403,0.36121 0.71093,0.89 0.71093,1.584 0,0.7166 -0.23471,1.2752 -0.70311,1.6758 -0.46269,0.3949 -1.1207,0.5918 -1.97269,0.5918 h -3.90043 z" />
      <path
         style="fill:#fe0000;fill-opacity:{{peak_right_15}};fill-rule:evenodd;stroke:#363636;stroke-width:0.500001;stroke-linecap:round;stroke-linejoin:round;stroke-dasharray:none;stroke-opacity:1"
         d="m -32.822655,-156.47504 v 6.6582 h 31.6328131 c 0.015118,0 0.025323,-0.0121 0.025323,-0.0272 v -6.60351 c 0,-0.0151 -0.010205,-0.0253 -0.025323,-0.0253 z"
         id="PEAK_RIGHT_15" />
      <path
         style="fill:#fe0000;fill-opacity:{{peak_right_14}};fill-rule:evenodd;stroke:#363636;stroke-width:0.500001;stroke-linecap:round;stroke-linejoin:round;stroke-dasharray:none;stroke-opacity:1"
         d="m -68.44375,-156.47504 v 6.6582 h 31.017578 v -6.6582 z"
         id="PEAK_RIGHT_14" />
      <path
         style="fill:#ff0000;fill-opacity:{{peak_right_13}};fill-rule:evenodd;stroke:#363636;stroke-width:0.500001;stroke-linecap:round;stroke-linejoin:round;stroke-dasharray:none;stroke-opacity:1"
         d="m -104.56484,-156.47504 v 6.6582 h 31.517572 v -6.6582 z"
         id="PEAK_RIGHT_13" />
      <path
         style="fill:#febb35;fill-opacity:{{peak_right_12}};fill-rule:evenodd;stroke:#363636;stroke-width:0.500001;stroke-linecap:round;stroke-linejoin:round;stroke-dasharray:none;stroke-opacity:1"
         d="m -138.94462,-156.49871 v 6.65821 h 29.74805 v -6.65821 z"
         id="PEAK_RIGHT_12" />
      <path
         style="fill:#febb35;fill-opacity:{{peak_right_11}};fill-rule:evenodd;stroke:#363636;stroke-width:0.500001;stroke-linecap:round;stroke-linejoin:round;stroke-dasharray:none;stroke-opacity:1"
         d="m -174.35868,-156.49871 v 6.65821 h 30.81054 v -6.65821 z"
         id="PEAK_RIGHT_11" />
      <path
         style="fill:#febb35;fill-opacity:{{peak_right_10}};fill-rule:evenodd;stroke:#363636;stroke-width:0.500001;stroke-linecap:round;stroke-linejoin:round;stroke-dasharray:none;stroke-opacity:1"
         d="m -210.47978,-156.49871 v 6.65821 h 31.51758 v -6.65821 z"
         id="PEAK_RIGHT_10" />
      <path
         style="fill:#febb35;fill-opacity:{{peak_right_09}};fill-rule:evenodd;stroke:#363636;stroke-width:0.500001;stroke-linecap:round;stroke-linejoin:round;stroke-dasharray:none;stroke-opacity:1"
         d="m -247.6634,-156.49871 v 6.65821 h 32.58011 v -6.65821 z"
         id="PEAK_RIGHT_09" />
      <path
         style="fill:#7ae047;fill-opacity:{{peak_right_08}};fill-rule:evenodd;stroke:#363636;stroke-width:0.500001;stroke-linecap:round;stroke-linejoin:round;stroke-dasharray:none;stroke-opacity:1"
         d="m -283.95117,-156.60156 v 6.6582 h 30.45509 v -6.6582 z"
         id="PEAK_RIGHT_08" />
      <path
         style="fill:#7ae047;fill-opacity:{{peak_right_07}};fill-rule:evenodd;stroke:#363636;stroke-width:0.500001;stroke-linecap:round;stroke-linejoin:round;stroke-dasharray:none;stroke-opacity:1"
         d="m -320.07227,-156.60156 v 6.6582 h 31.5176 v -6.6582 z"
         id="PEAK_RIGHT_07" />
      <path
         style="fill:#7ae047;fill-opacity:{{peak_right_06}};fill-rule:evenodd;stroke:#363636;stroke-width:0.500001;stroke-linecap:round;stroke-linejoin:round;stroke-dasharray:none;stroke-opacity:1"
         d="m -356.90236,-156.60156 v 6.6582 h 32.22659 v -6.6582 z"
         id="PEAK_RIGHT_06" />
      <path
         style="fill:#7ae047;fill-opacity:{{peak_right_05}};fill-rule:evenodd;stroke:#363636;stroke-width:0.500001;stroke-linecap:round;stroke-linejoin:round;stroke-dasharray:none;stroke-opacity:1"
         d="m -391.96289,-156.60156 v 6.6582 h 30.45506 v -6.6582 z"
         id="PEAK_RIGHT_05" />
      <path
         style="fill:#7ae047;fill-opacity:{{peak_right_04}};fill-rule:evenodd;stroke:#363636;stroke-width:0.500001;stroke-linecap:round;stroke-linejoin:round;stroke-dasharray:none;stroke-opacity:1"
         d="m -428.79299,-156.60156 v 6.6582 h 32.2266 v -6.6582 z"
         id="PEAK_RIGHT_04" />
      <path
         style="fill:#7ae047;fill-opacity:{{peak_right_03}};fill-rule:evenodd;stroke:#363636;stroke-width:0.500001;stroke-linecap:round;stroke-linejoin:round;stroke-dasharray:none;stroke-opacity:1"
         d="m -464.20705,-156.60156 v 6.6582 h 30.81056 v -6.6582 z"
         id="PEAK_RIGHT_03" />
      <path
         style="fill:#7ae047;fill-opacity:{{peak_right_02}};fill-rule:evenodd;stroke:#363636;stroke-width:0.500001;stroke-linecap:round;stroke-linejoin:round;stroke-dasharray:none;stroke-opacity:1"
         d="m -500.32814,-156.60156 v 6.6582 h 31.51759 v -6.6582 z"
         id="PEAK_RIGHT_02" />
      <path
         style="fill:#7ae047;fill-opacity:{{peak_right_01}};fill-rule:evenodd;stroke:#363636;stroke-width:0.500001;stroke-linecap:round;stroke-linejoin:round;stroke-dasharray:none;stroke-opacity:1"
         d="m -536.62695,-156.60156 v 6.6582 h 31.6953 v -6.6582 z"
         id="PEAK_RIGHT_01" />
      <path
         style="fill:#7ae047;fill-opacity:{{peak_right_00}};fill-rule:evenodd;stroke:#363636;stroke-width:0.500001;stroke-linecap:round;stroke-linejoin:round;stroke-dasharray:none;stroke-opacity:1"
         d="m -570.97462,-156.60156 c -0.0151,0 -0.0265,0.0132 -0.0265,0.0272 v 6.60352 c 0,0.0151 0.0113,0.0272 0.0265,0.0272 h 29.74416 v -6.6582 z"
         id="PEAK_RIGHT_00" />
      <path
         style="fill:#fe0000;fill-opacity:{{peak_left_15}};fill-rule:evenodd;stroke:#363636;stroke-width:0.500001;stroke-linecap:round;stroke-linejoin:round;stroke-dasharray:none;stroke-opacity:1"
         d="m -33.021874,-233.42622 v 6.6582 h 31.6328132 c 0.015118,0 0.025323,-0.0102 0.025323,-0.0253 v -6.60352 c 0,-0.0151 -0.010205,-0.0272 -0.025323,-0.0272 z"
         id="PEAK_LEFT_15" />
      <path
         style="fill:#fe0000;fill-opacity:{{peak_left_14}};fill-rule:evenodd;stroke:#363636;stroke-width:0.500001;stroke-linecap:round;stroke-linejoin:round;stroke-dasharray:none;stroke-opacity:1"
         d="m -68.642969,-233.42622 v 6.6582 h 31.017578 v -6.6582 z"
         id="PEAK_LEFT_14" />
      <path
         style="fill:#fe0000;fill-opacity:{{peak_left_13}};fill-rule:evenodd;stroke:#363636;stroke-width:0.500001;stroke-linecap:round;stroke-linejoin:round;stroke-dasharray:none;stroke-opacity:1"
         d="m -104.76406,-233.42622 v 6.6582 h 31.517573 v -6.6582 z"
         id="PEAK_LEFT_13" />
      <path
         style="fill:#fdba34;fill-opacity:{{peak_left_12}};fill-rule:evenodd;stroke:#363636;stroke-width:0.500001;stroke-linecap:round;stroke-linejoin:round;stroke-dasharray:none;stroke-opacity:1"
         d="m -139.11562,-233.42622 v 6.6582 h 29.74804 v -6.6582 z"
         id="PEAK_LEFT_12" />
      <path
         style="fill:#fdba34;fill-opacity:{{peak_left_11}};fill-rule:evenodd;stroke:#363636;stroke-width:0.500001;stroke-linecap:round;stroke-linejoin:round;stroke-dasharray:none;stroke-opacity:1"
         d="m -174.52969,-233.42622 v 6.6582 h 30.81055 v -6.6582 z"
         id="PEAK_LEFT_11" />
      <path
         style="fill:#fdba34;fill-opacity:{{peak_left_10}};fill-rule:evenodd;stroke:#363636;stroke-width:0.500001;stroke-linecap:round;stroke-linejoin:round;stroke-dasharray:none;stroke-opacity:1"
         d="m -210.65078,-233.42622 v 6.6582 h 31.51757 v -6.6582 z"
         id="PEAK_LEFT_10" />
      <path
         style="fill:#fdba34;fill-opacity:{{peak_left_09}};fill-rule:evenodd;stroke:#363636;stroke-width:0.500001;stroke-linecap:round;stroke-linejoin:round;stroke-dasharray:none;stroke-opacity:1"
         d="m -247.83438,-233.42622 v 6.6582 h 32.58008 v -6.6582 z"
         id="PEAK_LEFT_09" />
      <path
         style="fill:#75d445;fill-opacity:{{peak_left_08}};fill-rule:evenodd;stroke:#363636;stroke-width:0.500001;stroke-linecap:round;stroke-linejoin:round;stroke-dasharray:none;stroke-opacity:1"
         d="m -282.89494,-233.42622 v 6.6582 h 30.45509 v -6.6582 z"
         id="PEAK_LEFT_08" />
      <path
         style="fill:#7ae047;fill-opacity:{{peak_left_07}};fill-rule:evenodd;stroke:#363636;stroke-width:0.500001;stroke-linecap:round;stroke-linejoin:round;stroke-dasharray:none;stroke-opacity:1"
         d="m -320.27149,-233.55078 v 6.6582 h 31.5176 v -6.6582 z"
         id="PEAK_LEFT_07" />
      <path
         style="fill:#7ae047;fill-opacity:{{peak_left_06}};fill-rule:evenodd;stroke:#363636;stroke-width:0.500001;stroke-linecap:round;stroke-linejoin:round;stroke-dasharray:none;stroke-opacity:1"
         d="m -357.10158,-233.55078 v 6.6582 h 32.22659 v -6.6582 z"
         id="PEAK_LEFT_06" />
      <path
         style="fill:#7ae047;fill-opacity:{{peak_left_05}};fill-rule:evenodd;stroke:#363636;stroke-width:0.500001;stroke-linecap:round;stroke-linejoin:round;stroke-dasharray:none;stroke-opacity:1"
         d="m -392.16211,-233.55078 v 6.6582 h 30.45506 v -6.6582 z"
         id="PEAK_LEFT_05" />
      <path
         style="fill:#7ae047;fill-opacity:{{peak_left_04}};fill-rule:evenodd;stroke:#363636;stroke-width:0.500001;stroke-linecap:round;stroke-linejoin:round;stroke-dasharray:none;stroke-opacity:1"
         d="m -428.99221,-233.55078 v 6.6582 h 32.2266 v -6.6582 z"
         id="PEAK_LEFT_04" />
      <path
         style="fill:#7ae047;fill-opacity:{{peak_left_03}};fill-rule:evenodd;stroke:#363636;stroke-width:0.500001;stroke-linecap:round;stroke-linejoin:round;stroke-dasharray:none;stroke-opacity:1"
         d="m -464.40627,-233.55078 v 6.6582 h 30.81056 v -6.6582 z"
         id="PEAK_LEFT_03" />
      <path
         style="fill:#7ae047;fill-opacity:{{peak_left_02}};fill-rule:evenodd;stroke:#363636;stroke-width:0.500001;stroke-linecap:round;stroke-linejoin:round;stroke-dasharray:none;stroke-opacity:1"
         d="m -500.52736,-233.55078 v 6.6582 h 31.51759 v -6.6582 z"
         id="PEAK_LEFT_02" />
      <path
         style="fill:#7ae047;fill-opacity:{{peak_left_01}};fill-rule:evenodd;stroke:#363636;stroke-width:0.500001;stroke-linecap:round;stroke-linejoin:round;stroke-dasharray:none;stroke-opacity:1"
         d="m -536.82617,-233.55078 v 6.6582 h 31.69531 v -6.6582 z"
         id="PEAK_LEFT_01" />
      <path
         style="fill:#7ae047;fill-opacity:{{peak_left_00}};fill-rule:evenodd;stroke:#363636;stroke-width:0.500001;stroke-linecap:round;stroke-linejoin:round;stroke-dasharray:none;stroke-opacity:1"
         d="m -571.17384,-233.55078 c -0.0151,0 -0.0264,0.0132 -0.0264,0.0272 v 6.60352 c 0,0.0151 0.0113,0.0253 0.0264,0.0253 h 29.74417 v -6.65625 z"
         id="PEAK_LEFT_00" />
    </g>
  </g>
</svg>
