<?xml version="1.0" encoding="UTF-8" standalone="no"?>
<!-- Created with Inkscape (http://www.inkscape.org/) -->

<svg
   width="300"
   height="170"
   viewBox="0 0 300 170"
   version="1.1"
   id="svg1"
   xmlns="http://www.w3.org/2000/svg"
   xmlns:svg="http://www.w3.org/2000/svg">
  <g
     id="layer1">
    <rect
       style="fill:#000000;fill-opacity:1;stroke:none;stroke-width:16.4082;stroke-linecap:round;stroke-linejoin:round"
       id="PEAK_METER"
       width="300"
       height="170"
       x="0"
       y="0" />
    <path
       style="fill-opacity:{{peak_15}};fill:#fe0000;stroke:#363636;stroke-width:1.02501;stroke-opacity:1"
       d="m 260.00533,63.659272 v 73.974738 h 11.96536 c 0.006,0 0.01,-0.13552 0.01,-0.30241 V 63.964616 c 0,-0.166538 -0.004,-0.282274 -0.01,-0.282274 z"
       id="PEAK_15" />
    <path
       style="fill-opacity:{{peak_14}};fill:#fe0000;stroke:#363636;stroke-width:1.03504;stroke-opacity:1"
       d="M 245.75844,63.664169 V 137.62913 H 257.7234 V 63.664169 Z"
       id="PEAK_14" />
    <path
       style="fill-opacity:{{peak_13}};fill:#fe0000;stroke:#363636;stroke-width:1.02719;stroke-opacity:1"
       d="m 231.75443,63.660244 v 73.972806 h 11.97281 V 63.660244 Z"
       id="PEAK_13" />
    <path
       style="fill-opacity:{{peak_12}};fill:#febb35;stroke:#363636;stroke-width:1.05583;stroke-opacity:1"
       d="m 217.56105,63.606642 v 73.944168 h 11.94418 V 63.606642 Z"
       id="PEAK_12" />
    <path
       style="fill-opacity:{{peak_11}};fill:#febb35;stroke:#363636;stroke-width:1.03835;stroke-opacity:1"
       d="m 204.05117,63.5979 v 73.96165 h 11.96166 V 63.5979 Z"
       id="PEAK_11" />
    <path
       style="fill-opacity:{{peak_10}};fill:#febb35;stroke:#363636;stroke-width:1.02719;stroke-opacity:1"
       d="M 190.12689,63.013595 V 136.9864 H 202.0997 V 63.013595 Z"
       id="PEAK_10" />
    <path
       style="fill-opacity:{{peak_09}};fill:#febb35;stroke-width:1.99636;stroke-opacity:1"
       d="M 175.15119,62.500002 V 137.5 h 13 V 62.500002 Z"
       id="PEAK_09" />
    <path
       style="fill-opacity:{{peak_08}};fill:#7ae047;stroke:#363636;stroke-width:1.0441;stroke-opacity:1"
       d="m 160.84143,63.022047 v 73.955903 h 11.9559 V 63.022047 Z"
       id="PEAK_08" />
    <path
       style="fill-opacity:{{peak_07}};fill:#7ae047;stroke:#363636;stroke-width:1.02719;stroke-opacity:1"
       d="M 147.05397,63.013595 V 136.9864 h 11.97281 V 63.013595 Z"
       id="PEAK_07" />
    <path
       style="fill-opacity:{{peak_06}};fill:#7ae047;stroke:#363636;stroke-width:1.01636;stroke-opacity:1"
       d="m 132.85194,63.008183 v 73.983637 h 11.98364 V 63.008183 Z"
       id="PEAK_06" />
    <path
       style="fill-opacity:{{peak_05}};fill:#7ae047;stroke:#363636;stroke-width:1.0441;stroke-opacity:1"
       d="m 118.38977,63.022047 v 73.955903 h 11.9559 V 63.022047 Z"
       id="PEAK_05" />
    <path
       style="fill-opacity:{{peak_04}};fill:#7ae047;stroke:#363636;stroke-width:1.01636;stroke-opacity:1"
       d="m 104.59691,63.008183 v 73.983637 h 11.98364 V 63.008183 Z"
       id="PEAK_04" />
    <path
       style="fill-opacity:{{peak_03}};fill:#7ae047;stroke:#363636;stroke-width:1.03835;stroke-opacity:1"
       d="M 90.132636,63.019175 V 136.98083 H 102.09429 V 63.019175 Z"
       id="PEAK_03" />
    <path
       style="fill-opacity:{{peak_02}};fill:#7ae047;stroke:#363636;stroke-width:1.02719;stroke-opacity:1"
       d="M 76.290056,63.013595 V 136.9864 h 11.97281 V 63.013595 Z"
       id="PEAK_02" />
    <path
       style="fill-opacity:{{peak_01}};fill:#7ae047;stroke:#363636;stroke-width:1.02444;stroke-opacity:1"
       d="M 62.02223,63.012223 V 136.98778 H 73.997788 V 63.012223 Z"
       id="PEAK_01" />
    <path
       style="fill-opacity:{{peak_00}};fill:#7ae047;stroke:#363636;stroke-width:1.05544;stroke-opacity:1"
       d="m 48.538356,63.030695 c -0.0061,0 -0.01066,0.146726 -0.01066,0.302198 v 73.337117 c 0,0.16641 0.0044,0.30226 0.01066,0.30226 H 60.472258 V 63.027853 Z"
       id="PEAK_00" />
    <path
       id="SCALE_LABEL"
       style="fill:#f7f7d7;fill-opacity:1"
       d="m 177.66626,147.04808 v 5.89882 h 4.09989 v -5.89882 z m 4.55962,0.005 v 5.89883 h 4.09989 v -5.89883 z m -3.70553,0.73342 h 0.8541 c 0.93307,0 1.709,0.99215 1.709,2.21255 0,1.22308 -0.77636,2.21255 -1.709,2.21255 h -0.8541 z m 6.09336,0.005 h 0.85488 v 4.42509 h -0.85488 c -0.93221,0 -1.70825,-0.98954 -1.70825,-2.21254 0,-1.22045 0.77561,-2.21255 1.70825,-2.21255 z M 53.864486,46.903589 c -0.430862,0 -0.783962,0.108244 -1.059378,0.323669 -0.273164,0.215425 -0.431441,0.515241 -0.475876,0.899488 l 0.60273,0.04609 c 0.02677,-0.246481 0.120801,-0.437227 0.282899,-0.572709 0.16433,-0.135482 0.379165,-0.202987 0.643481,-0.202987 0.290913,0 0.509172,0.07328 0.655766,0.219873 0.148814,0.144378 0.223687,0.341776 0.223687,0.592744 0,0.253213 -0.09149,0.452224 -0.273688,0.596562 -0.179874,0.142178 -0.433909,0.212946 -0.762628,0.212946 h -0.326692 v 0.519658 h 0.339772 c 0.370891,-3.6e-5 0.6541,0.07242 0.849491,0.216763 0.197681,0.142178 0.296746,0.340402 0.296746,0.595819 0,0.29312 -0.08658,0.514651 -0.259821,0.663476 -0.170994,0.148783 -0.407506,0.222943 -0.709577,0.222943 -0.601872,0 -0.94255,-0.27738 -1.022481,-0.832612 l -0.619632,0.05613 c 0.05326,0.419751 0.220696,0.73787 0.50276,0.953295 0.284265,0.213182 0.664067,0.319812 1.139353,0.319812 0.510793,0 0.903896,-0.119076 1.179308,-0.356733 0.275385,-0.237625 0.412831,-0.57326 0.412831,-1.006315 0,-0.299816 -0.09744,-0.548029 -0.292924,-0.745703 C 54.99518,49.428125 54.722011,49.309883 54.3711,49.272136 v -0.01295 c 0.319819,-0.06663 0.562995,-0.193226 0.729568,-0.379759 0.168778,-0.188778 0.252937,-0.432819 0.252937,-0.732675 0,-0.390859 -0.130767,-0.695635 -0.392835,-0.913303 -0.259853,-0.219873 -0.62545,-0.32981 -1.096284,-0.32981 z m 3.827733,0 c -0.568577,0 -0.984978,0.20153 -1.249246,0.60349 -0.262073,0.401998 -0.392867,1.005842 -0.392867,1.812043 0,0.78841 0.135824,1.388043 0.406686,1.798937 0.270965,0.410855 0.675793,0.616554 1.215431,0.616554 0.539728,0 0.947757,-0.206565 1.223126,-0.619624 0.277659,-0.413099 0.415936,-1.011904 0.415936,-1.795867 0,-0.797305 -0.131656,-1.399417 -0.395945,-1.805864 -0.262068,-0.406446 -0.670121,-0.609669 -1.223121,-0.609669 z m 9.854222,0 c -0.424737,0.0723 -0.784005,0.111546 -1.059374,0.333667 -0.273168,0.222077 -0.431472,0.520276 -0.475876,0.89563 l 0.612696,0.05687 c 0.02869,-0.25093 0.125563,-0.445021 0.289815,-0.582747 0.166589,-0.139886 0.377319,-0.209875 0.632739,-0.209875 0.268721,0 0.4786,0.07081 0.62963,0.212985 0.150987,0.142087 0.226765,0.342012 0.226765,0.599632 0,0.191021 -0.04418,0.361771 -0.132994,0.512762 -0.08658,0.15103 -0.201539,0.29588 -0.343669,0.433606 -0.142075,0.137682 -0.302017,0.275136 -0.479702,0.412823 -0.175473,0.137729 -0.352879,0.287614 -0.532797,0.449744 -0.179874,0.159925 -0.352237,0.339807 -0.516611,0.539685 -0.162098,0.197673 -0.299544,0.426678 -0.412831,0.686503 v 0.42286 h 3.108189 v -0.509731 h -2.448569 c 0.06665,-0.155438 0.175709,-0.316191 0.326739,-0.482768 0.150998,-0.168782 0.354218,-0.357835 0.609638,-0.566608 0.464182,-0.377556 0.778172,-0.656549 0.942502,-0.836431 0.164374,-0.179922 0.28761,-0.359803 0.369805,-0.539685 0.08435,-0.179882 0.126901,-0.36063 0.126901,-0.542755 0,-0.410855 -0.128239,-0.727321 -0.383612,-0.949438 -0.253173,-0.224321 -0.622994,-0.416114 -1.089337,-0.336737 z m 3.797759,0 c -0.568545,0 -0.984993,0.20153 -1.249262,0.60349 -0.262069,0.401998 -0.392867,1.005842 -0.392867,1.812043 0,0.78841 0.135675,1.388043 0.406687,1.798937 0.270964,0.410855 0.675793,0.616554 1.215446,0.616554 0.539716,0 0.947741,-0.206565 1.22311,-0.619624 0.277616,-0.413099 0.41594,-1.011904 0.41594,-1.795867 0,-0.797305 -0.13166,-1.399417 -0.395948,-1.805864 -0.262069,-0.406446 -0.670121,-0.609669 -1.223106,-0.609669 z m 29.19974,0 c -0.568534,0 -0.984978,0.20153 -1.249251,0.60349 -0.262068,0.401998 -0.392866,1.005842 -0.392866,1.812043 0,0.78841 0.134935,1.388043 0.405927,1.798937 0.27092,0.410855 0.676509,0.616554 1.21619,0.616554 0.53969,0 0.94695,-0.206565 1.22237,-0.619624 0.27758,-0.413099 0.41668,-1.011904 0.41668,-1.795867 0,-0.797305 -0.1324,-1.399417 -0.39669,-1.805864 -0.26207,-0.406446 -0.66938,-0.609669 -1.22236,-0.609669 z m 39.01703,0 c -0.43084,0 -0.78396,0.108244 -1.05937,0.323669 -0.27317,0.215425 -0.43226,0.515241 -0.47662,0.899488 l 0.60349,0.04609 c 0.0268,-0.246481 0.1208,-0.437227 0.28289,-0.572709 0.16433,-0.135482 0.37842,-0.202987 0.6427,-0.202987 0.29091,0 0.50996,0.07328 0.65654,0.219873 0.14882,0.144378 0.22294,0.341776 0.22294,0.592744 0,0.253213 -0.0907,0.452224 -0.27293,0.596562 -0.17987,0.142178 -0.43471,0.212946 -0.76337,0.212946 h -0.32595 v 0.519658 h 0.33975 c 0.37091,-3.6e-5 0.65408,0.07242 0.84952,0.216763 0.19766,0.142178 0.29598,0.340402 0.29598,0.595819 0,0.29312 -0.0866,0.514651 -0.25985,0.663476 -0.17099,0.148783 -0.40752,0.222943 -0.70958,0.222943 -0.60187,0 -0.9425,-0.27738 -1.02249,-0.832612 l -0.61962,0.05613 c 0.0534,0.419751 0.22073,0.73787 0.5028,0.953295 0.28427,0.213182 0.66406,0.319812 1.13931,0.319812 0.51084,0 0.90395,-0.119076 1.17932,-0.356733 0.27541,-0.237625 0.4136,-0.57326 0.4136,-1.006315 0,-0.299816 -0.0982,-0.548029 -0.29367,-0.745703 -0.19547,-0.197673 -0.46863,-0.315915 -0.81955,-0.353662 v -0.01295 c 0.31981,-0.06663 0.56303,-0.193226 0.7296,-0.379759 0.16878,-0.188778 0.2537,-0.432819 0.2537,-0.732675 0,-0.390859 -0.13151,-0.695635 -0.39363,-0.913303 -0.25982,-0.219873 -0.62466,-0.32981 -1.09551,-0.32981 z m 15.57391,0 c -0.43084,0 -0.78396,0.111546 -1.05937,0.333667 -0.27317,0.222077 -0.43223,0.520276 -0.47662,0.89563 l 0.61349,0.05687 c 0.0287,-0.25093 0.12541,-0.445021 0.28981,-0.582747 0.16655,-0.139886 0.37729,-0.209875 0.63269,-0.209875 0.26872,0 0.47861,0.07081 0.62963,0.212985 0.15103,0.142087 0.2268,0.342012 0.2268,0.599632 0,0.191021 -0.0449,0.361771 -0.13374,0.512762 -0.0866,0.15103 -0.20075,0.29588 -0.34288,0.433606 -0.14208,0.137682 -0.30202,0.275136 -0.47969,0.412823 -0.17544,0.137729 -0.35288,0.287614 -0.53277,0.449744 -0.17991,0.159925 -0.35228,0.339807 -0.51661,0.539685 -0.16214,0.197673 -0.29958,0.426678 -0.41283,0.686503 v 0.42286 h 3.10815 v -0.509731 h -2.44857 c 0.0667,-0.155438 0.17497,-0.316191 0.32599,-0.482768 0.15103,-0.168782 0.35422,-0.357835 0.60964,-0.566608 0.46414,-0.377556 0.77892,-0.656549 0.94329,-0.836431 0.16435,-0.179922 0.28758,-0.359803 0.36976,-0.539685 0.0844,-0.179882 0.12601,-0.36063 0.12601,-0.542755 0,-0.410855 -0.1275,-0.727321 -0.38284,-0.949438 -0.25317,-0.224321 -0.61627,-0.336737 -1.08936,-0.336737 z m 26.92415,0 c -0.56853,0 -0.98495,0.20153 -1.24925,0.60349 -0.26207,0.401998 -0.39284,1.005842 -0.39284,1.812043 0,0.78841 0.13494,1.388043 0.4059,1.798937 0.27097,0.410855 0.67655,0.616554 1.21624,0.616554 0.53968,0 0.94695,-0.206565 1.22232,-0.619624 0.27761,-0.413099 0.41668,-1.011904 0.41668,-1.795867 0,-0.797305 -0.1324,-1.399417 -0.39668,-1.805864 -0.26206,-0.406446 -0.66934,-0.609669 -1.22237,-0.609669 z m 30.71886,0 c 0,0.43085 -0.78396,0.111546 -1.05937,0.333667 -0.27317,0.222077 -0.43223,0.520276 -0.47663,0.89563 l 0.61269,0.05687 c 0.0287,-0.25093 0.12549,-0.445021 0.28983,-0.582747 0.16657,-0.139886 0.37806,-0.209875 0.63348,-0.209875 0.26872,0 0.47864,0.07081 0.62963,0.212985 0.15103,0.142087 0.22601,0.342012 0.22601,0.599632 0,0.191021 -0.0442,0.361771 -0.13297,0.512762 -0.0866,0.15103 -0.20074,0.29588 -0.34288,0.433606 -0.14213,0.137682 -0.30205,0.275136 -0.47973,0.412823 -0.17544,0.137729 -0.35363,0.287614 -0.53355,0.449744 -0.17988,0.159925 -0.3515,0.339807 -0.51583,0.539685 -0.16213,0.197673 -0.30037,0.426678 -0.41361,0.686503 v 0.42286 h 3.10818 v -0.509731 h -2.44856 c 0.0666,-0.155438 0.17571,-0.316191 0.32674,-0.482768 0.15099,-0.168782 0.35421,-0.357835 0.60963,-0.566608 0.46419,-0.377556 0.77818,-0.656549 0.94251,-0.836431 0.16437,-0.179922 0.28761,-0.359803 0.3698,-0.539685 0.0844,-0.179882 0.12682,-0.36063 0.12682,-0.542755 0,-0.410855 -0.12742,-0.727321 -0.38283,-0.949438 -0.25321,-0.224321 -1.08936,-0.809777 -1.08936,-0.336737 z m 13.43516,0 c -0.43085,0 -0.78396,0.108244 -1.05937,0.323669 -0.27317,0.215425 -0.43223,0.515241 -0.47663,0.899488 l 0.60349,0.04609 c 0.0268,-0.246481 0.1208,-0.437227 0.2829,-0.572709 0.16437,-0.135482 0.37841,-0.202987 0.64269,-0.202987 0.29096,0 0.50997,0.07328 0.65655,0.219873 0.14878,0.144378 0.22294,0.341776 0.22294,0.592744 0,0.253213 -0.0908,0.452224 -0.27289,0.596562 -0.17989,0.142178 -0.43396,0.212946 -0.76263,0.212946 h -0.32674 v 0.519658 h 0.33981 c 0.37086,0 0.65403,0.07242 0.8495,0.216763 0.19767,0.142178 0.29674,0.340402 0.29674,0.595819 0,0.29312 -0.0866,0.514651 -0.25987,0.663476 -0.17098,0.148783 -0.40754,0.222943 -0.70956,0.222943 -0.60188,0 -0.9433,-0.27738 -1.02324,-0.832612 l -0.61963,0.05613 c 0.0533,0.419751 0.22149,0.73787 0.50355,0.953295 0.28427,0.213182 0.66403,0.319812 1.13932,0.319812 0.51079,0 0.9039,-0.119076 1.17931,-0.356733 0.27537,-0.237625 0.41282,-0.57326 0.41282,-1.006315 0,-0.299816 -0.0975,-0.548029 -0.29289,-0.745703 -0.19547,-0.197673 -0.4686,-0.315915 -0.81955,-0.353662 v -0.01295 c 0.31986,-0.06663 0.56303,-0.193226 0.72957,-0.379759 0.16878,-0.188778 0.25294,-0.432819 0.25294,-0.732675 0,-0.390859 -0.13077,-0.695635 -0.39283,-0.913303 -0.25986,-0.219873 -0.62545,-0.32981 -1.0963,-0.32981 z m 44.22398,0 c -0.56854,0 -0.98494,0.20153 -1.24926,0.60349 -0.26207,0.401998 -0.39361,1.005842 -0.39361,1.812043 0,0.78841 0.13572,1.388043 0.40668,1.798937 0.27093,0.410855 0.6765,0.616554 1.21623,0.616554 0.53965,0 0.94696,-0.206565 1.22233,-0.619624 0.27762,-0.413099 0.41668,-1.011904 0.41668,-1.795867 0,-0.797305 -0.13242,-1.399417 -0.39668,-1.805864 -0.26207,-0.406446 -0.66935,-0.609669 -1.22237,-0.609669 z m -189.378553,0.06998 -1.10936,0.763377 v 0.565816 l 1.059374,-0.755696 v 3.610937 h -1.195438 v 0.509735 h 2.941359 v -0.509735 h -1.142431 v -4.184434 z m 2.595388,0 -0.156816,2.525427 h 0.58656 c 0.139989,-0.122138 0.27986,-0.208773 0.419747,-0.25986 0.139993,-0.05106 0.290723,-0.07687 0.452822,-0.07687 0.310951,0 0.557476,0.09159 0.73955,0.27368 0.184369,0.182126 0.276798,0.420381 0.276798,0.715749 0,0.339807 -0.09075,0.607938 -0.272929,0.803367 -0.182137,0.193226 -0.434432,0.289819 -0.756499,0.289819 -0.524137,0 -0.849731,-0.232312 -0.976318,-0.696501 l -0.605812,0.06995 c 0.07111,0.362046 0.240975,0.638517 0.509696,0.829539 0.268763,0.190981 0.621863,0.286748 1.059374,0.286748 0.521937,0 0.929202,-0.142414 1.222366,-0.426674 0.295376,-0.284269 0.44282,-0.674026 0.44282,-1.169315 0,-0.435295 -0.137462,-0.788445 -0.412831,-1.05937 -0.273168,-0.270965 -0.640489,-0.406687 -1.102428,-0.406687 -0.386407,0 -0.709608,0.0999 -0.969429,0.299816 l 0.09,-1.489118 h 2.12183 v -0.509692 z m 12.952398,0 -1.109375,0.763377 v 0.565816 l 1.059374,-0.755696 v 3.610937 h -1.196195 v 0.509735 h 2.942119 v -0.509735 h -1.143174 v -4.184434 z m 14.131667,0 v 0.509692 h 2.52161 c -0.59523,0.863944 -1.02002,1.628419 -1.27543,2.29249 -0.25317,0.661819 -0.37976,1.292315 -0.37976,1.891987 h 0.62576 c 0,-0.433094 0.0491,-0.851983 0.14684,-1.256221 0.1,-0.404207 0.24899,-0.813959 0.44667,-1.229262 0.19763,-0.415303 0.53579,-0.989154 1.01552,-1.722064 v -0.486622 z m 13.86491,0 -0.15602,2.525427 h 0.58577 c 0.13999,-0.122138 0.27986,-0.208773 0.41975,-0.25986 0.13998,-0.05106 0.29072,-0.07687 0.45281,-0.07687 0.31096,0 0.55823,0.09159 0.74035,0.27368 0.18434,0.182126 0.27601,0.420381 0.27601,0.715749 0,0.339807 -0.0907,0.607938 -0.27293,0.803367 -0.18214,0.193226 -0.43443,0.289819 -0.7565,0.289819 -0.52414,0 -0.84899,-0.232312 -0.97558,-0.696501 l -0.60655,0.06995 c 0.0711,0.362046 0.24102,0.638517 0.50969,0.829539 0.26876,0.190981 0.62188,0.286748 1.05938,0.286748 0.52193,0 0.9292,-0.142414 1.22236,-0.426674 0.29538,-0.284269 0.44361,-0.674026 0.44361,-1.169315 0,-0.435295 -0.1382,-0.788445 -0.41362,-1.05937 -0.27317,-0.270965 -0.64049,-0.406687 -1.10242,-0.406687 -0.38646,0 -0.70961,0.0999 -0.96943,0.299816 l 0.0898,-1.489118 h 2.12183 v -0.509692 z m 44.04102,0 -1.10932,0.763377 v 0.565816 l 1.05937,-0.755696 v 3.610937 h -1.19624 v 0.509735 h 2.94136 v -0.509735 h -1.14241 v -4.184434 z m 28.63317,0 -1.10936,0.763377 v 0.565816 l 1.05938,-0.755696 v 3.610937 h -1.19624 v 0.509735 h 2.94137 v -0.509735 h -1.14243 v -4.184434 z m 41.09194,0 -0.15602,2.525427 h 0.58577 c 0.13993,-0.122138 0.27986,-0.208773 0.41975,-0.25986 0.13993,-0.05106 0.29147,-0.07687 0.4536,-0.07687 0.31092,0 0.55744,0.09159 0.73957,0.27368 0.18433,0.182126 0.276,0.420381 0.276,0.715749 0,0.339807 -0.0908,0.607938 -0.27293,0.803367 -0.18213,0.193226 -0.43443,0.289819 -0.75649,0.289819 -0.52414,0 -0.84899,-0.232312 -0.97557,-0.696501 l -0.60656,0.06995 c 0.0711,0.362046 0.24097,0.638517 0.50969,0.829539 0.26876,0.190981 0.62187,0.286748 1.05937,0.286748 0.52193,0 0.92921,-0.142414 1.22237,-0.426674 0.29541,-0.284269 0.44357,-0.674026 0.44357,-1.169315 0,-0.435295 -0.1382,-0.788445 -0.41358,-1.05937 -0.27316,-0.270965 -0.64049,-0.406687 -1.10243,-0.406687 -0.38645,0 -0.70961,0.0999 -0.96943,0.299816 l 0.0899,-1.489118 h 2.12182 v -0.509692 z m 15.14495,0 v 0.509692 h 2.52158 c -0.59519,0.863944 -1.02076,1.628419 -1.27614,2.29249 -0.25317,0.661819 -0.3798,1.292315 -0.3798,1.891987 h 0.62656 c 0,-0.433094 0.0491,-0.851983 0.14686,-1.256221 0.0999,-0.404207 0.24821,-0.813959 0.44589,-1.229262 0.19767,-0.415303 0.53661,-0.989154 1.01631,-1.722064 v -0.486622 z m 12.98543,0 -1.10933,0.763377 v 0.565816 l 1.05938,-0.755696 v 3.610937 h -1.19624 v 0.509735 h 2.94136 V 51.158003 H 267.0521 V 46.973569 Z M 57.692219,47.390295 c 0.35981,0 0.617935,0.152368 0.773413,0.456632 0.15765,0.304264 0.236019,0.794826 0.236019,1.472236 0,0.652928 -0.08167,1.136798 -0.246017,1.452202 -0.164373,0.315364 -0.423364,0.473557 -0.77648,0.473557 -0.355315,0 -0.615184,-0.154848 -0.779557,-0.463559 -0.162126,-0.308712 -0.242935,-0.795968 -0.242935,-1.4622 0,-0.686306 0.08004,-1.179348 0.239873,-1.479164 0.162173,-0.299816 0.427036,-0.449704 0.795684,-0.449704 z m 13.651981,0 c 0.359795,0 0.617892,0.152368 0.77337,0.456632 0.157678,0.304264 0.236046,0.794826 0.236046,1.472236 0,0.652928 -0.08167,1.136798 -0.246001,1.452202 -0.164373,0.315364 -0.42338,0.473557 -0.776491,0.473557 -0.355348,0 -0.615173,-0.154848 -0.779546,-0.463559 -0.162094,-0.308712 -0.242951,-0.795968 -0.242951,-1.4622 0,-0.686306 0.08004,-1.179348 0.239873,-1.479164 0.162126,-0.299816 0.427036,-0.449704 0.7957,-0.449704 z m 29.19974,0 c 0.35981,0 0.61714,0.152368 0.77262,0.456632 0.15768,0.304264 0.23676,0.794826 0.23676,1.472236 0,0.652928 -0.0824,1.136798 -0.24676,1.452202 -0.16432,0.315364 -0.42258,0.473557 -0.77568,0.473557 -0.35537,0 -0.615189,-0.154848 -0.779562,-0.463559 -0.162099,-0.308712 -0.243683,-0.795968 -0.243683,-1.4622 0,-0.686306 0.08004,-1.179348 0.239861,-1.479164 0.162126,-0.299816 0.427784,-0.449704 0.796444,-0.449704 z m 81.51509,0 c 0.35981,0 0.61715,0.152368 0.77262,0.456632 0.15768,0.304264 0.23681,0.794826 0.23681,1.472236 0,0.652928 -0.0824,1.136798 -0.24681,1.452202 -0.16433,0.315364 -0.42254,0.473557 -0.77568,0.473557 -0.35537,0 -0.61519,-0.154848 -0.77952,-0.463559 -0.16214,-0.308712 -0.24372,-0.795968 -0.24372,-1.4622 0,-0.686306 0.08,-1.179348 0.23985,-1.479164 0.16214,-0.299816 0.42778,-0.449704 0.79645,-0.449704 z m 88.378,0 c 0.3598,0 0.61718,0.152368 0.77262,0.456632 0.15768,0.304264 0.2368,0.794826 0.2368,1.472236 0,0.652928 -0.0824,1.136798 -0.2468,1.452202 -0.16433,0.315364 -0.42333,0.473557 -0.77644,0.473557 -0.35535,0 -0.61522,-0.154848 -0.77955,-0.463559 -0.16213,-0.308712 -0.24294,-0.795968 -0.24294,-1.4622 0,-0.686306 0.0799,-1.179348 0.23987,-1.479164 0.16213,-0.299816 0.42778,-0.449704 0.79644,-0.449704 z m -77.16459,0.339764 v 1.426108 h -1.41225 v 0.485878 h 1.41225 v 1.426066 h 0.48973 v -1.426066 h 1.41225 v -0.485878 h -1.41225 v -1.426108 z m 15.36096,0 v 1.426108 h -1.41224 v 0.485878 h 1.41224 v 1.426066 h 0.48974 v -1.426066 h 1.41221 v -0.485878 h -1.41221 v -1.426108 z m 13.46516,0 v 1.426108 h -1.41225 v 0.485878 h 1.41225 v 1.426066 h 0.4897 v -1.426066 h 1.41304 v -0.485878 h -1.41304 v -1.426108 z m 13.46591,0 v 1.426108 h -1.413 v 0.485878 h 1.413 v 1.426066 h 0.48974 v -1.426066 h 1.41224 v -0.485878 h -1.41224 v -1.426108 z m 15.36096,0 v 1.426108 h -1.41299 v 0.485878 h 1.41299 v 1.426066 h 0.48974 v -1.426066 h 1.41225 v -0.485878 h -1.41225 v -1.426108 z m 11.56936,0 v 1.426108 h -1.41225 v 0.485878 h 1.41225 v 1.426066 h 0.4897 v -1.426066 h 1.41225 v -0.485878 h -1.41225 V 47.730059 Z M 50.020596,49.588982 v 0.532757 h 1.665155 v -0.532757 z m 13.651966,0 v 0.532757 h 1.665155 v -0.532757 z m 13.651981,0 v 0.532757 h 1.665139 v -0.532757 z m 15.546983,0 v 0.532757 h 1.66593 v -0.532757 z m 15.547774,0 v 0.532757 h 1.66593 v -0.532757 z m 13.6489,0 v 0.532757 h 1.66519 v -0.532757 z m 13.64811,0 v 0.532757 h 1.66593 v -0.532757 z m 15.54395,0 v 0.532757 h 1.66595 v -0.532757 z m 13.64887,0 v 0.532757 h 1.66597 V 49.588982 Z M 54.177359,53.11607 v 6.767572 h 0.860292 V 53.11607 Z m 14.009454,0 v 6.767572 h 0.860292 V 53.11607 Z m 14.356933,0 v 6.767572 h 0.860291 V 53.11607 Z m 13.9395,0 v 6.767572 h 0.860253 V 53.11607 Z m 14.323134,0 v 6.767572 h 0.86023 V 53.11607 Z m 14.00865,0 v 6.767572 h 0.86029 V 53.11607 Z m 14.35772,0 v 6.767572 H 140.033 V 53.11607 Z m 14.14781,0 v 6.767572 h 0.86104 V 53.11607 Z m 13.97485,0 v 6.767572 h 0.86029 V 53.11607 Z m 28.34718,0 v 6.767572 h 0.86028 V 53.11607 Z m 14.35772,0 v 6.767572 h 0.86024 V 53.11607 Z m 13.93947,0 v 6.767572 h 0.86028 V 53.11607 Z m 13.9741,0 v 6.767572 h 0.86024 V 53.11607 Z m 13.79957,0 v 6.767572 h 0.86103 V 53.11607 Z m 14.28852,0 v 6.767572 h 0.86025 V 53.11607 Z m -84.41727,0 v 6.767572 h 0.86025 V 53.11607 Z" />
    <path
       id="TITLE_LABEL"
       style="fill:#f7f7d7;fill-opacity:1;stroke-width:3"
       d="m 51,17 v 14.08014 h 1.9074 v -5.48679 h 4.13754 c 1.49235,0 2.67168,-0.39225 3.53796,-1.17849 0.87273,-0.78621 1.30989,-1.84563 1.30989,-3.17811 0,-1.34592 -0.43248,-2.38779 -1.29843,-3.12747 C 59.72817,17.36984 58.50399,17 56.925,17 Z m 13.65126,0 v 14.08014 h 11.09343 v -1.55907 h -9.18378 v -4.9056 h 8.17356 v -1.54062 h -8.17356 v -4.51578 h 8.77317 V 17 Z m 17.758708,0 -5.745028,14.08014 h 1.97883 l 1.619068,-4.11678 h 6.41622 l 1.60746,4.11678 h 1.94886 L 84.580198,17 Z m 9.54591,0 v 14.08014 h 1.90728 v -5.39682 l 1.84047,-1.39764 5.625212,6.79446 h 2.36868 L 96.903028,23.11643 102.89946,17 h -2.24865 l -6.787652,7.05507 V 17 Z m 19.338692,0 v 14.08014 h 9.0246 v -1.55907 h -7.11732 V 17 Z m 11.38167,0 v 14.08014 h 11.09358 v -1.55907 h -9.1839 v -4.9056 h 8.17605 v -1.54062 h -8.17605 v -4.51578 h 8.77566 V 17 Z m 12.06444,0 5.74518,14.08014 h 1.97883 L 148.212,17 h -2.00877 l -3.87693,9.91257 -0.83955,2.48853 -0.83949,-2.48853 L 136.74957,17 Z m 15.24033,0 v 14.08014 h 11.09343 v -1.55907 h -9.18378 v -4.9056 h 8.17359 v -1.54062 h -8.17359 v -4.51578 h 8.77332 V 17 Z m 13.65117,0 v 14.08014 h 9.02469 v -1.55907 h -7.11504 V 17 Z m 16.31037,0 v 14.08014 h 1.69983 v -9.39375 l -0.0402,-1.88886 -0.0312,-1.10928 0.32982,1.10007 0.56043,1.69746 3.6879,9.59436 h 1.34004 l 3.63699,-9.59436 c 0.2598,-0.67296 0.55218,-1.60488 0.87879,-2.79753 -0.0603,0.95943 -0.0876,1.95879 -0.0876,2.99814 v 9.39375 h 1.71813 V 17 h -2.44932 l -3.67857,9.76275 c -0.0603,0.1398 -0.1749,0.48447 -0.34809,1.03086 -0.1665,0.53964 -0.2763,0.94197 -0.32982,1.20849 -0.0402,-0.1998 -0.1251,-0.52218 -0.2514,-0.96864 -0.12,-0.45297 -0.2451,-0.87774 -0.378,-1.27071 L 182.45238,17 Z m 17.05077,0 v 14.08014 h 11.09346 V 29.52107 H 198.903 v -4.9056 h 8.17356 V 23.07485 H 198.903 v -4.51578 h 8.77332 V 17 Z m 12.4311,0 v 1.55907 h 4.83876 v 12.52107 h 1.8981 V 18.55907 h 4.83639 V 17 Z m 13.72272,0 v 14.08014 h 11.09355 v -1.55907 h -9.18387 v -4.9056 h 8.17365 v -1.54062 h -8.17365 v -4.51578 h 8.77329 V 17 Z m 13.65126,0 v 14.08014 h 1.90968 v -5.84661 h 4.38657 l 3.65793,5.84661 h 2.20014 l -3.99918,-6.06564 c 1.07268,-0.1863 1.91226,-0.63636 2.5185,-1.34925 0.61311,-0.71286 0.92022,-1.59234 0.92022,-2.63847 0,-1.26585 -0.43218,-2.25282 -1.29843,-2.95896 C 246.23442,17.35484 245.01021,17 243.42447,17 Z m -153.327452,1.4391 0.27,0.828 c 0.1866,0.57969 0.37176,1.09935 0.55806,1.55907 l 1.81047,4.64733 h -5.26764 l 1.79892,-4.62657 c 0.3267,-0.86613 0.57378,-1.57569 0.74037,-2.12868 z M 52.9074,18.5288 h 3.78921 c 2.18538,0 3.27729,0.90948 3.27729,2.72844 0,1.88547 -1.06674,2.82753 -3.19887,2.82753 H 52.9074 Z m 185.80068,0 h 4.52721 c 1.04613,0 1.84566,0.2151 2.39865,0.64803 0.55974,0.42654 0.83949,1.05096 0.83949,1.87047 0,0.84618 -0.2772,1.50579 -0.83028,1.97886 -0.54636,0.46629 -1.32099,0.69882 -2.32707,0.69882 h -4.608 z" />
    <path
       id="dB_LABEL"
       style="fill:#f7f7d7;fill-opacity:1;stroke-width:2.59789"
       d="m 17.746168,93.492118 v 3.886566 l 0.01922,1.046506 h -0.01922 c -0.288314,-0.565491 -0.669271,-0.978698 -1.142402,-1.238228 -0.473133,-0.259711 -1.063871,-0.389494 -1.773532,-0.389494 -2.296279,0 -3.445145,1.633438 -3.445145,4.899122 0,1.61555 0.277104,2.82076 0.830827,3.61692 0.559661,0.79627 1.431605,1.19437 2.614318,1.19437 0.703936,0 1.292433,-0.12979 1.765567,-0.3895 0.478856,-0.25953 0.861931,-0.68808 1.150367,-1.28814 h 0.03476 c 0,0.24226 0.01169,0.5301 0.02312,0.86479 0.02312,0.33458 0.0452,0.54881 0.06217,0.64105 h 1.487958 c -0.03476,-0.31147 -0.05214,-0.9562 -0.05214,-1.93133 V 93.492118 Z m 4.206159,0.649024 v 12.194938 h 4.951042 c 1.407798,0 2.506958,-0.30064 3.297393,-0.90067 0.790435,-0.60577 1.184327,-1.45174 1.184327,-2.53648 0,-0.81346 -0.262031,-1.48436 -0.786948,-2.01519 -0.524995,-0.53654 -1.271492,-0.86325 -2.240864,-0.978595 0.738487,-0.167305 1.309714,-0.496244 1.713619,-0.986667 0.403915,-0.490435 0.605155,-1.096295 0.605155,-1.81741 0,-1.973353 -1.430256,-2.959926 -4.291923,-2.959926 z m 1.653688,1.324538 h 2.778113 c 0.853855,0 1.505118,0.140597 1.955252,0.423342 0.449942,0.282749 0.674987,0.754347 0.674987,1.412063 0,0.686657 -0.218743,1.197223 -0.65709,1.531808 -0.432741,0.328857 -1.090458,0.493379 -1.973149,0.493379 h -2.778113 z m -8.360313,2.484533 c 0.871209,-1.02e-4 1.505232,0.287851 1.903307,0.864786 0.398085,0.576932 0.597159,1.485691 0.597159,2.726161 0,1.2866 -0.19905,2.23646 -0.597159,2.84796 -0.398075,0.6117 -1.03851,0.91673 -1.921313,0.91673 -0.778882,0 -1.341486,-0.28337 -1.687658,-0.84883 -0.346281,-0.56538 -0.519238,-1.50236 -0.519238,-2.81206 0,-1.30398 0.173149,-2.245064 0.519238,-2.821985 0.352092,-0.582762 0.920955,-0.872864 1.705664,-0.872762 z m 8.360313,2.664077 h 3.079648 c 2.019368,0 3.029787,0.71826 3.029787,2.15497 0,0.74432 -0.231498,1.30469 -0.693115,1.67967 -0.461578,0.37507 -1.197203,0.56323 -2.206897,0.56323 h -3.209423 z" />
  </g>
</svg>
