<?xml version="1.0" encoding="UTF-8" standalone="no"?>
<!-- Created with Inkscape (http://www.inkscape.org/) -->

<svg
   width="300"
   height="170"
   viewBox="0 0 300 170"
   version="1.1"
   id="svg1"
   xmlns="http://www.w3.org/2000/svg"
   xmlns:svg="http://www.w3.org/2000/svg">
  <rect
     style="fill:#000000;fill-opacity:1;stroke:none;stroke-width:16.408;stroke-linecap:round;stroke-linejoin:round"
     id="PEAK_METER"
     width="300"
     height="170"
     x="0"
     y="0" />
  <path
     id="path22581-0"
     style="font-size:17.3333px;font-family:Arimo;-inkscape-font-specification:Arimo;fill:#f7f7d7;fill-opacity:1;fill-rule:evenodd;stroke-width:0.590424;stroke-linecap:round;stroke-linejoin:round"
     d="m 51,10 v 14.080133 h 1.9074 v -5.486778 h 4.13754 c 1.49235,0 2.67168,-0.392265 3.53796,-1.178484 0.87273,-0.786216 1.30989,-1.845657 1.30989,-3.178134 0,-1.345914 -0.43248,-2.387783 -1.29843,-3.127464 C 59.72817,10.36984 58.50399,10 56.925,10 Z m 13.65126,0 v 14.080133 h 11.09343 v -1.559058 h -9.18378 v -4.905591 h 8.17356 v -1.540635 h -8.17356 v -4.515781 h 8.77317 V 10 Z m 17.75871,0 -5.74503,14.080133 h 1.97883 l 1.61907,-4.116777 h 6.41622 l 1.60746,4.116777 h 1.94886 L 84.5802,10 Z m 9.54591,0 v 14.080133 h 1.90728 v -5.396811 l 1.84047,-1.397646 5.62521,6.794457 h 2.36868 L 96.90303,16.116417 102.89946,10 h -2.24865 l -6.78765,7.055057 V 10 Z m 19.33869,0 v 14.080133 h 9.0246 v -1.559058 h -7.11732 V 10 Z m 11.38167,0 v 14.080133 h 11.09358 v -1.559058 h -9.1839 v -4.905591 h 8.17605 v -1.540635 h -8.17605 v -4.515781 h 8.77566 V 10 Z m 12.06444,0 5.74518,14.080133 h 1.97883 L 148.212,10 h -2.00877 l -3.87693,9.912581 -0.83955,2.488509 -0.83949,-2.488509 L 136.74957,10 Z m 15.24033,0 v 14.080133 h 11.09343 v -1.559058 h -9.18378 v -4.905591 h 8.17359 v -1.540635 h -8.17359 v -4.515781 h 8.77332 V 10 Z m 13.65117,0 v 14.080133 h 9.02469 v -1.559058 h -7.11504 V 10 Z m 16.31037,0 v 14.080133 h 1.69983 v -9.393729 l -0.0402,-1.888866 -0.0312,-1.109297 0.32982,1.100075 0.56043,1.697472 3.6879,9.594345 h 1.34004 l 3.63699,-9.594345 c 0.2598,-0.672963 0.55218,-1.604883 0.87879,-2.797547 -0.0603,0.959435 -0.0876,1.958783 -0.0876,2.998163 v 9.393729 h 1.71813 V 10 h -2.44932 l -3.67857,9.762743 c -0.0603,0.13983 -0.1749,0.484488 -0.34809,1.030878 -0.1665,0.539643 -0.2763,0.941946 -0.32982,1.208475 -0.0402,-0.1998 -0.1251,-0.522171 -0.2514,-0.968646 -0.12,-0.452973 -0.2451,-0.877722 -0.378,-1.270707 L 182.45238,10 Z m 17.05077,0 v 14.080133 h 11.09346 V 22.521075 H 198.903 v -4.905591 h 8.17356 V 16.074849 H 198.903 v -4.515781 h 8.77332 V 10 Z m 12.4311,0 v 1.559068 h 4.83876 v 12.521065 h 1.8981 V 11.559068 h 4.83639 V 10 Z m 13.72272,0 v 14.080133 h 11.09355 v -1.559058 h -9.18387 v -4.905591 h 8.17365 v -1.540635 h -8.17365 v -4.515781 h 8.77329 V 10 Z m 13.65126,0 v 14.080133 h 1.90968 v -5.846595 h 4.38657 l 3.65793,5.846595 h 2.20014 l -3.99918,-6.06564 c 1.07268,-0.18645 1.91226,-0.636357 2.5185,-1.349232 0.61311,-0.712875 0.92022,-1.592355 0.92022,-2.638479 0,-1.26585 -0.43218,-2.252812 -1.29843,-2.958957 C 246.23442,10.354843 245.01021,10 243.42447,10 Z m -153.32745,1.439083 0.27,0.828007 c 0.1866,0.579687 0.37176,1.099365 0.55806,1.559067 l 1.81047,4.647342 h -5.26761 l 1.79892,-4.626558 c 0.3267,-0.866148 0.57378,-1.575717 0.74037,-2.128695 z m -30.56355,0.08975 h 3.78921 c 2.18538,0 3.27729,0.909484 3.27729,2.728456 0,1.885452 -1.06674,2.82753 -3.19887,2.82753 H 52.9074 Z m 185.80068,0 h 4.52721 c 1.04613,0 1.84566,0.215031 2.39865,0.648046 0.55974,0.426531 0.83949,1.050951 0.83949,1.870455 0,0.846195 -0.2772,1.505814 -0.83028,1.97886 -0.54636,0.466314 -1.32099,0.698823 -2.32707,0.698823 h -4.608 z" />
  <path
     style="fill:#fe0000;fill-opacity:{{peak_left_15}};fill-rule:evenodd;stroke:#363636;stroke-width:0.657756;stroke-linecap:round;stroke-linejoin:round;stroke-dasharray:none;stroke-opacity:1"
     d="m 273.83382,45.32888 v 24.34224 h 14.97342 c 0.007,0 0.0121,-0.0372 0.0121,-0.0929 V 45.43628 c 0,-0.0548 -0.005,-0.0995 -0.0121,-0.0995 z"
     id="PEAK_LEFT_15" />
  <path
     style="fill:#fe0000;fill-opacity:{{peak_left_14}};fill-rule:evenodd;stroke:#363636;stroke-width:0.657756;stroke-linecap:round;stroke-linejoin:round;stroke-dasharray:none;stroke-opacity:1"
     d="m 258.34924,45.32888 v 24.34224 h 14.68219 V 45.32888 Z"
     id="PEAK_LEFT_14" />
  <path
     style="fill:#fe0000;fill-opacity:{{peak_left_13}};fill-rule:evenodd;stroke:#363636;stroke-width:0.657756;stroke-linecap:round;stroke-linejoin:round;stroke-dasharray:none;stroke-opacity:1"
     d="m 242.62798,45.32888 v 24.34224 h 14.91887 V 45.32888 Z"
     id="PEAK_LEFT_13" />
  <path
     style="fill:#fdba34;fill-opacity:{{peak_left_12}};fill-rule:evenodd;stroke:#363636;stroke-width:0.657756;stroke-linecap:round;stroke-linejoin:round;stroke-dasharray:none;stroke-opacity:1"
     d="m 227.74433,45.32888 v 24.34224 h 14.08126 V 45.32888 Z"
     id="PEAK_LEFT_12" />
  <path
     style="fill:#fdba34;fill-opacity:{{peak_left_11}};fill-rule:evenodd;stroke:#363636;stroke-width:0.657756;stroke-linecap:round;stroke-linejoin:round;stroke-dasharray:none;stroke-opacity:1"
     d="m 212.35775,45.32888 v 24.34224 h 14.5842 V 45.32888 Z"
     id="PEAK_LEFT_11" />
  <path
     style="fill:#fdba34;fill-opacity:{{peak_left_10}};fill-rule:evenodd;stroke:#363636;stroke-width:0.657756;stroke-linecap:round;stroke-linejoin:round;stroke-dasharray:none;stroke-opacity:1"
     d="m 196.6365,45.32888 v 24.34224 h 14.91886 V 45.32888 Z"
     id="PEAK_LEFT_10" />
  <path
     style="fill:#fdba34;fill-opacity:{{peak_left_09}};fill-rule:evenodd;stroke:#363636;stroke-width:0.657756;stroke-linecap:round;stroke-linejoin:round;stroke-dasharray:none;stroke-opacity:1"
     d="m 180.41231,45.32888 v 24.34224 h 15.4218 V 45.32888 Z"
     id="PEAK_LEFT_09" />
  <path
     style="fill:#75d445;fill-opacity:{{peak_left_08}};fill-rule:evenodd;stroke:#363636;stroke-width:0.657756;stroke-linecap:round;stroke-linejoin:round;stroke-dasharray:none;stroke-opacity:1"
     d="m 165.19399,45.32888 v 24.34224 h 14.41593 V 45.32888 Z"
     id="PEAK_LEFT_08" />
  <path
     style="fill:#7ae047;fill-opacity:{{peak_left_07}};fill-rule:evenodd;stroke:#363636;stroke-width:0.657756;stroke-linecap:round;stroke-linejoin:round;stroke-dasharray:none;stroke-opacity:1"
     d="M 149.47271,45.32888 V 69.67112 H 164.3916 V 45.32888 Z"
     id="PEAK_LEFT_07" />
  <path
     style="fill:#7ae047;fill-opacity:{{peak_left_06}};fill-rule:evenodd;stroke:#363636;stroke-width:0.657756;stroke-linecap:round;stroke-linejoin:round;stroke-dasharray:none;stroke-opacity:1"
     d="m 133.41584,45.32888 v 24.34224 h 15.25448 V 45.32888 Z"
     id="PEAK_LEFT_06" />
  <path
     style="fill:#7ae047;fill-opacity:{{peak_left_05}};fill-rule:evenodd;stroke:#363636;stroke-width:0.657756;stroke-linecap:round;stroke-linejoin:round;stroke-dasharray:none;stroke-opacity:1"
     d="m 118.19753,45.32888 v 24.34224 h 14.41593 V 45.32888 Z"
     id="PEAK_LEFT_05" />
  <path
     style="fill:#7ae047;fill-opacity:{{peak_left_04}};fill-rule:evenodd;stroke:#363636;stroke-width:0.657756;stroke-linecap:round;stroke-linejoin:round;stroke-dasharray:none;stroke-opacity:1"
     d="m 102.14065,45.32888 v 24.34224 h 15.25449 V 45.32888 Z"
     id="PEAK_LEFT_04" />
  <path
     style="fill:#7ae047;fill-opacity:{{peak_left_03}};fill-rule:evenodd;stroke:#363636;stroke-width:0.657756;stroke-linecap:round;stroke-linejoin:round;stroke-dasharray:none;stroke-opacity:1"
     d="m 86.75406,45.32888 v 24.34224 h 14.58421 V 45.32888 Z"
     id="PEAK_LEFT_03" />
  <path
     style="fill:#7ae047;fill-opacity:{{peak_left_02}};fill-rule:evenodd;stroke:#363636;stroke-width:0.657756;stroke-linecap:round;stroke-linejoin:round;stroke-dasharray:none;stroke-opacity:1"
     d="M 71.032791,45.32888 V 69.67112 H 85.951672 V 45.32888 Z"
     id="PEAK_LEFT_02" />
  <path
     style="fill:#7ae047;fill-opacity:{{peak_left_01}};fill-rule:evenodd;stroke:#363636;stroke-width:0.657756;stroke-linecap:round;stroke-linejoin:round;stroke-dasharray:none;stroke-opacity:1"
     d="M 55.227398,45.32888 V 69.67112 H 70.230402 V 45.32888 Z"
     id="PEAK_LEFT_01" />
  <path
     style="fill:#7ae047;fill-opacity:{{peak_left_00}};fill-rule:evenodd;stroke:#363636;stroke-width:0.657944;stroke-linecap:round;stroke-linejoin:round;stroke-dasharray:none;stroke-opacity:1"
     d="m 40.34147,45.32939 c -0.0071,0 -0.01249,0.0483 -0.01249,0.0995 v 24.14923 c 0,0.0548 0.0053,0.0929 0.01249,0.0929 H 54.424916 V 45.32897 Z"
     id="PEAK_LEFT_00" />
  <path
     id="path1"
     style="font-size:17.3333px;font-family:Arimo;-inkscape-font-specification:Arimo;fill:#f7f7d7;fill-opacity:1;fill-rule:evenodd;stroke-width:0.233145;stroke-linecap:round;stroke-linejoin:round"
     d="m 45.645884,80.413008 v 8.215627 h 1.019135 V 80.41296 Z m 16.596127,0 v 8.215627 h 1.019135 V 80.41296 Z m 15.177493,0 v 8.215627 h 1.019134 V 80.41296 Z m 16.343527,0 v 8.215627 h 1.019088 V 80.41296 Z m 14.967729,0 v 8.215627 h 1.01906 V 80.41296 Z m 16.59517,0 v 8.215627 h 1.01913 V 80.41296 Z m 15.00869,0 v 8.215627 h 1.01909 V 80.41296 Z m 16.76003,0 v 8.215627 h 1.02003 V 80.41296 Z m 14.55514,0 v 8.215627 h 1.01913 V 80.41296 Z m 31.58113,0 v 8.215627 h 1.01912 V 80.41296 Z m 15.0087,0 v 8.215627 h 1.01909 V 80.41296 Z m 16.51321,0 v 8.215627 h 1.01913 V 80.41296 Z m 14.55425,0 v 8.215627 h 1.01908 V 80.41296 Z m 14.3475,0 v 8.215627 h 1.02001 V 80.41296 Z m 16.92672,0 v 8.215627 h 1.01908 V 80.41296 Z m -98.64582,0.558295 v 6.987965 h 4.85689 v -6.987965 z m 5.40151,0.0058 v 6.987964 h 4.85688 v -6.987964 z m -4.38971,0.868837 h 1.0118 c 1.10534,0 2.02454,1.175326 2.02454,2.621069 0,1.448895 -0.91971,2.621061 -2.02454,2.621061 h -1.0118 z m 7.21842,0.0058 h 1.01272 v 5.242129 h -1.01272 c -1.10433,0 -2.02366,-1.172247 -2.02366,-2.621059 0,-1.445791 0.91882,-2.62107 2.02366,-2.62107 z M 45.275243,90.50823 c -0.510416,0 -0.92871,0.128237 -1.254979,0.383431 -0.3236,0.255207 -0.511102,0.610372 -0.563741,1.065571 l 0.714017,0.05462 c 0.03173,-0.29199 0.143105,-0.517958 0.335133,-0.678452 0.194671,-0.160496 0.449173,-0.24047 0.762291,-0.24047 0.344627,0 0.603185,0.08682 0.776845,0.260477 0.176291,0.171027 0.264989,0.404874 0.264989,0.702184 0,0.29996 -0.108377,0.535716 -0.324221,0.706706 -0.213087,0.168432 -0.514025,0.252269 -0.903438,0.252269 h -0.387012 v 0.615609 h 0.402506 c 0.439372,-4.8e-5 0.774872,0.08576 1.00634,0.256782 0.23418,0.168431 0.351536,0.403251 0.351536,0.705829 0,0.347243 -0.102577,0.609674 -0.307793,0.785972 -0.202566,0.176262 -0.482747,0.264115 -0.840592,0.264115 -0.713,0 -1.11658,-0.328594 -1.21127,-0.98634 l -0.734039,0.06646 c 0.0631,0.497252 0.261445,0.874111 0.595588,1.129304 0.336751,0.252542 0.786679,0.378861 1.349721,0.378861 0.605104,0 1.070789,-0.141055 1.397052,-0.422597 0.326231,-0.281507 0.489056,-0.679105 0.489056,-1.192124 0,-0.355168 -0.115431,-0.649207 -0.347009,-0.883385 -0.231517,-0.234167 -0.555124,-0.37424 -0.970826,-0.418959 v -0.0153 c 0.378869,-0.07888 0.666945,-0.228908 0.864274,-0.449876 0.199941,-0.223637 0.299638,-0.512736 0.299638,-0.86795 0,-0.463028 -0.154912,-0.824081 -0.465367,-1.081942 C 46.266111,90.63856 45.833011,90.50832 45.275243,90.50832 Z m 4.534477,0 c -0.673558,0 -1.166842,0.238739 -1.479904,0.714916 -0.310463,0.476224 -0.465405,1.191557 -0.465405,2.146624 0,0.933981 0.160902,1.644324 0.481776,2.13108 0.320995,0.48672 0.80057,0.730401 1.439845,0.730401 0.639381,0 1.122748,-0.244711 1.448961,-0.734038 0.328925,-0.489374 0.492733,-1.198735 0.492733,-2.127455 0,-0.944512 -0.155965,-1.657794 -0.46905,-2.139291 C 50.94822,90.748973 50.464824,90.50823 49.80972,90.50823 Z m 11.673682,0 c -0.224978,-0.458137 -0.928762,0.132146 -1.254973,0.395278 -0.323606,0.263084 -0.51114,0.616344 -0.563741,1.060997 l 0.725822,0.06742 c 0.03397,-0.29726 0.148748,-0.527187 0.343325,-0.690347 0.19735,-0.165707 0.446986,-0.248619 0.749567,-0.248619 0.318335,0 0.566968,0.08388 0.745883,0.252304 0.178864,0.168324 0.268635,0.405158 0.268635,0.710344 0,0.226301 -0.05234,0.428578 -0.157551,0.607446 -0.102577,0.178915 -0.238749,0.350511 -0.407124,0.51366 -0.168304,0.163101 -0.357779,0.325942 -0.568269,0.489053 -0.207875,0.163149 -0.418034,0.340715 -0.631173,0.532779 -0.213088,0.189448 -0.417272,0.402552 -0.611999,0.639325 -0.192027,0.23418 -0.35485,0.505462 -0.489054,0.813266 v 0.500935 h 3.682079 v -0.603783 h -2.900666 c 0.07897,-0.18414 0.20815,-0.374571 0.387065,-0.571907 0.178879,-0.199943 0.419621,-0.423899 0.722201,-0.671228 0.549887,-0.44726 0.921851,-0.777762 1.116523,-0.990867 0.194723,-0.21314 0.340714,-0.426231 0.438084,-0.639325 0.09991,-0.213092 0.150333,-0.427215 0.150333,-0.642974 0,-0.486709 -0.151917,-0.86161 -0.454443,-1.12473 -0.299918,-0.26575 -1.043453,0.1041 -1.290469,-0.398915 z m 4.498968,0 c -0.673519,0 -1.16686,0.238739 -1.479923,0.714916 -0.310456,0.476224 -0.465404,1.191557 -0.465404,2.146624 0,0.933981 0.160725,1.644324 0.481775,2.13108 0.320995,0.48672 0.800571,0.730401 1.439864,0.730401 0.639368,0 1.12273,-0.244711 1.448943,-0.734038 0.328874,-0.489374 0.492737,-1.198735 0.492737,-2.127455 0,-0.944512 -0.155969,-1.657794 -0.469054,-2.139291 -0.310456,-0.481494 -0.79385,-0.722237 -1.448938,-0.722237 z m 32.5911,0 c -0.67349,0 -1.16683,0.238739 -1.4799,0.714916 -0.31045,0.476224 -0.4654,1.191557 -0.4654,2.146624 0,0.933981 0.15985,1.644324 0.48087,2.13108 0.32095,0.48672 0.80142,0.730401 1.44075,0.730401 0.63934,0 1.1218,-0.244711 1.44806,-0.734038 0.32883,-0.489374 0.49362,-1.198735 0.49362,-2.127455 0,-0.944512 -0.15685,-1.657794 -0.46994,-2.139291 -0.31045,-0.481494 -0.79297,-0.722237 -1.44806,-0.722237 z m 42.22105,0 c -0.51038,0 -0.9287,0.128237 -1.25496,0.383431 -0.32361,0.255207 -0.51208,0.610372 -0.56462,1.065571 l 0.71491,0.05462 c 0.0316,-0.29199 0.14311,-0.517958 0.33512,-0.678452 0.19467,-0.160496 0.4483,-0.24047 0.76136,-0.24047 0.34463,0 0.60412,0.08682 0.77777,0.260477 0.1763,0.171027 0.2641,0.404874 0.2641,0.702184 0,0.29996 -0.10747,0.535716 -0.32331,0.706706 -0.2131,0.168432 -0.51498,0.252269 -0.90432,0.252269 h -0.38613 v 0.615609 h 0.40247 c 0.43939,-4.8e-5 0.77484,0.08576 1.00639,0.256782 0.23414,0.168431 0.35062,0.403251 0.35062,0.705829 0,0.347243 -0.1026,0.609674 -0.30783,0.785972 -0.20256,0.176262 -0.48277,0.264115 -0.8406,0.264115 -0.713,0 -1.11652,-0.328594 -1.21129,-0.98634 l -0.73402,0.06646 c 0.0634,0.497252 0.26149,0.874111 0.59564,1.129304 0.33676,0.252542 0.78667,0.378861 1.34967,0.378861 0.60516,0 1.07085,-0.141055 1.39706,-0.422597 0.32627,-0.281507 0.48998,-0.679105 0.48998,-1.192124 0,-0.355168 -0.11634,-0.649207 -0.3479,-0.883385 -0.23156,-0.234167 -0.55516,-0.37424 -0.97086,-0.418959 v -0.0153 c 0.37885,-0.07888 0.66698,-0.228908 0.8643,-0.449876 0.19994,-0.223637 0.30054,-0.512736 0.30054,-0.86795 0,-0.463028 -0.15579,-0.824081 -0.46631,-1.081942 -0.30778,-0.260465 -0.73999,-0.390705 -1.29778,-0.390705 z m 18.44945,0 c 0.18634,-0.475169 -0.92871,0.132146 -1.25497,0.395278 -0.32361,0.263084 -0.51204,0.616344 -0.56463,1.060997 l 0.72677,0.06742 c 0.0339,-0.29726 0.14857,-0.527187 0.34332,-0.690347 0.19729,-0.165707 0.44694,-0.248619 0.74951,-0.248619 0.31833,0 0.56697,0.08388 0.74588,0.252304 0.17891,0.168324 0.26867,0.405158 0.26867,0.710344 0,0.226301 -0.0533,0.428578 -0.15843,0.607446 -0.1026,0.178915 -0.23782,0.350511 -0.40619,0.51366 -0.16831,0.163101 -0.35778,0.325942 -0.56825,0.489053 -0.20784,0.163149 -0.41805,0.340715 -0.63114,0.532779 -0.21314,0.189448 -0.41732,0.402552 -0.612,0.639325 -0.19207,0.23418 -0.35489,0.505462 -0.48906,0.813266 v 0.500935 h 3.68204 v -0.603846 h -2.90067 c 0.079,-0.184137 0.20728,-0.374568 0.38618,-0.571905 0.17891,-0.199944 0.41962,-0.423901 0.72221,-0.671228 0.54983,-0.447259 0.92273,-0.777763 1.11745,-0.990867 0.19469,-0.213141 0.34068,-0.426232 0.43804,-0.639325 0.1,-0.213093 0.14927,-0.427216 0.14927,-0.642975 0,-0.486708 -0.15104,-0.86161 -0.45354,-1.12473 -0.29991,-0.26575 -1.49509,0.122841 -1.29048,-0.398914 z m 27.89536,0 c -0.6735,0 -1.16681,0.238739 -1.4799,0.714916 -0.31047,0.476224 -0.46539,1.191557 -0.46539,2.146624 0,0.933981 0.15986,1.644324 0.48086,2.13108 0.321,0.48672 0.80146,0.730401 1.44079,0.730401 0.63933,0 1.1218,-0.244711 1.44801,-0.734038 0.32887,-0.489374 0.49362,-1.198735 0.49362,-2.127455 0,-0.944512 -0.15684,-1.657794 -0.46993,-2.139291 -0.31044,-0.481494 -0.79292,-0.722237 -1.44806,-0.722237 z m 34.39073,0 c 0,-0.51041 -0.92872,0.132146 -1.25498,0.395278 -0.32361,0.263084 -0.51203,0.616344 -0.56463,1.060997 l 0.72582,0.06742 c 0.0339,-0.29726 0.14865,-0.527187 0.34335,-0.690347 0.19732,-0.165707 0.44786,-0.248619 0.75044,-0.248619 0.31832,0 0.56701,0.08388 0.74588,0.252304 0.17891,0.168324 0.26773,0.405158 0.26773,0.710344 0,0.226301 -0.0522,0.428578 -0.15753,0.607446 -0.1026,0.178915 -0.23778,0.350511 -0.40617,0.51366 -0.16837,0.163101 -0.35782,0.325942 -0.56833,0.489053 -0.2078,0.163149 -0.41891,0.340715 -0.63203,0.532779 -0.21312,0.189448 -0.41643,0.402552 -0.61108,0.639325 -0.19209,0.23418 -0.35585,0.505462 -0.48998,0.813266 v 0.500935 h 3.68205 v -0.603846 h -2.90065 c 0.079,-0.184137 0.20815,-0.374568 0.38706,-0.571905 0.17887,-0.199944 0.41961,-0.423901 0.72219,-0.671228 0.54992,-0.447259 0.92187,-0.777763 1.11656,-0.990867 0.19469,-0.213141 0.34069,-0.426232 0.43808,-0.639325 0.1,-0.213093 0.15022,-0.427216 0.15022,-0.642975 0,-0.486708 -0.15094,-0.86161 -0.45351,-1.12473 -0.29997,-0.26575 -1.29049,0.161456 -1.29049,-0.398914 z m 15.91578,0 c -0.51041,0 -0.92872,0.128237 -1.25498,0.383431 -0.32361,0.255207 -0.51203,0.610372 -0.56463,1.065571 l 0.71493,0.05462 c 0.0316,-0.29199 0.14309,-0.517958 0.33515,-0.678452 0.19469,-0.160496 0.44825,-0.24047 0.76133,-0.24047 0.34468,0 0.60413,0.08682 0.7778,0.260477 0.17622,0.171027 0.2641,0.404874 0.2641,0.702184 0,0.29996 -0.10758,0.535716 -0.32329,0.706706 -0.2131,0.168432 -0.51409,0.252269 -0.90344,0.252269 h -0.38706 v 0.615609 h 0.40253 c 0.43934,0 0.77479,0.08576 1.00635,0.256782 0.23419,0.168431 0.35154,0.403251 0.35154,0.705829 0,0.347243 -0.1026,0.609674 -0.30784,0.785972 -0.20257,0.176262 -0.48282,0.264115 -0.8406,0.264115 -0.713,0 -1.11747,-0.328594 -1.21217,-0.98634 l -0.73403,0.06646 c 0.0633,0.497252 0.26241,0.874111 0.59654,1.129304 0.33677,0.252542 0.78664,0.378861 1.34966,0.378861 0.60512,0 1.07082,-0.141055 1.39708,-0.422597 0.32621,-0.281507 0.48902,-0.679105 0.48902,-1.192124 0,-0.355168 -0.1155,-0.649207 -0.34697,-0.883385 -0.23155,-0.234167 -0.55512,-0.37424 -0.97086,-0.418959 v -0.0153 c 0.37893,-0.07888 0.66698,-0.228908 0.86428,-0.449876 0.19994,-0.223637 0.29965,-0.512736 0.29965,-0.86795 0,-0.463028 -0.15492,-0.824081 -0.46538,-1.081942 -0.30782,-0.260465 -0.74094,-0.390705 -1.29871,-0.390705 z m 48.3894,0 c -0.67352,0 -1.1668,0.238739 -1.47993,0.714916 -0.31045,0.476224 -0.46627,1.191557 -0.46627,2.146624 0,0.933981 0.16077,1.644324 0.48176,2.13108 0.32095,0.48672 0.8014,0.730401 1.4408,0.730401 0.63928,0 1.12179,-0.244711 1.44801,-0.734038 0.32888,-0.489374 0.49362,-1.198735 0.49362,-2.127455 0,-0.944512 -0.15687,-1.657794 -0.46992,-2.139291 -0.31047,-0.481494 -0.79295,-0.722237 -1.44807,-0.722237 z m -210.175243,0.08292 -1.314189,0.904329 v 0.670291 l 1.254975,-0.895229 v 4.277655 h -1.416161 v 0.603845 h 3.484445 V 95.548267 H 76.3157 v -4.957045 z m 3.074595,0 -0.185769,2.99172 h 0.694861 c 0.165836,-0.144693 0.331534,-0.247316 0.497246,-0.30784 0.165842,-0.06054 0.344404,-0.0911 0.536432,-0.0911 0.368362,0 0.660405,0.108514 0.876096,0.32421 0.218413,0.215748 0.327909,0.497999 0.327909,0.847906 0,0.402539 -0.107509,0.720188 -0.323324,0.95169 -0.215766,0.228907 -0.514643,0.343331 -0.896176,0.343331 -0.620913,0 -1.006625,-0.275203 -1.156585,-0.8251 l -0.717665,0.08292 c 0.08423,0.428899 0.285465,0.756416 0.603804,0.982705 0.318385,0.226242 0.736684,0.339696 1.254974,0.339696 0.618305,0 1.100769,-0.168705 1.448061,-0.50545 0.349912,-0.336758 0.524581,-0.798482 0.524581,-1.38522 0,-0.515661 -0.162843,-0.934017 -0.489055,-1.25497 -0.323605,-0.32099 -0.758749,-0.481781 -1.305979,-0.481781 -0.45775,0 -0.840626,0.118345 -1.14842,0.355178 l 0.106608,-1.764067 h 2.513598 V 90.59118 Z m 15.17417,0 -1.314207,0.904329 v 0.670291 l 1.254974,-0.895229 v 4.277655 h -1.417057 v 0.603845 h 3.485345 v -0.603844 h -1.354248 v -4.956975 z m 14.740908,0 v 0.603798 h 2.98719 c -0.70513,1.023468 -1.20835,1.929087 -1.51092,2.71577 -0.29992,0.784017 -0.44989,1.530931 -0.44989,2.241323 h 0.74131 c 0,-0.513055 0.0583,-1.009288 0.17395,-1.488165 0.11847,-0.478843 0.29497,-0.964249 0.52914,-1.456228 0.23413,-0.49198 0.63472,-1.171797 1.20302,-2.040028 v -0.576398 z m 16.42489,0 -0.18482,2.99172 h 0.69391 c 0.16586,-0.144693 0.33155,-0.247316 0.49726,-0.30784 0.16583,-0.06054 0.3444,-0.0911 0.53641,-0.0911 0.36838,0 0.66131,0.108514 0.87706,0.32421 0.21837,0.215748 0.32697,0.497999 0.32697,0.847906 0,0.402539 -0.10748,0.720188 -0.32333,0.95169 -0.21577,0.228907 -0.51464,0.343331 -0.89617,0.343331 -0.62092,0 -1.00576,-0.275203 -1.15571,-0.8251 l -0.71855,0.08292 c 0.0843,0.428899 0.28552,0.756416 0.6038,0.982705 0.31838,0.226242 0.7367,0.339696 1.25498,0.339696 0.61829,0 1.10077,-0.168705 1.44805,-0.50545 0.34992,-0.336758 0.52552,-0.798482 0.52552,-1.38522 0,-0.515661 -0.16371,-0.934017 -0.48999,-1.25497 -0.32361,-0.32099 -0.75874,-0.481781 -1.30597,-0.481781 -0.4578,0 -0.84063,0.118345 -1.14842,0.355178 l 0.10639,-1.764067 h 2.51359 V 90.59118 Z m 48.17266,0 -1.31414,0.904329 v 0.670291 l 1.25497,-0.895229 v 4.277655 h -1.41712 v 0.603845 h 3.48445 v -0.603845 h -1.35334 v -4.956974 z m 31.91993,0 -1.31419,0.904329 v 0.670291 l 1.25499,-0.895229 v 4.277655 h -1.41713 v 0.603845 h 3.48447 v -0.603845 h -1.35337 v -4.956974 z m 44.67906,0 -0.18482,2.99172 h 0.69391 c 0.16576,-0.144693 0.33153,-0.247316 0.49726,-0.30784 0.16577,-0.06054 0.34527,-0.0911 0.53735,-0.0911 0.36833,0 0.66036,0.108514 0.87611,0.32421 0.21837,0.215748 0.32696,0.497999 0.32696,0.847906 0,0.402539 -0.10758,0.720188 -0.32331,0.95169 -0.21576,0.228907 -0.51466,0.343331 -0.89616,0.343331 -0.62093,0 -1.00576,-0.275203 -1.1557,-0.8251 l -0.71856,0.08292 c 0.0843,0.428899 0.28545,0.756416 0.6038,0.982705 0.31837,0.226242 0.73669,0.339696 1.25495,0.339696 0.61831,0 1.10078,-0.168705 1.44808,-0.50545 0.34995,-0.336758 0.52547,-0.798482 0.52547,-1.38522 0,-0.515661 -0.16372,-0.934017 -0.48994,-1.25497 -0.3236,-0.32099 -0.75875,-0.481781 -1.30599,-0.481781 -0.45779,0 -0.84062,0.118345 -1.14841,0.355178 l 0.10661,-1.764067 h 2.51358 V 90.59118 Z m 15.94126,0 v 0.603798 h 2.98717 c -0.70508,1.023468 -1.20923,1.929087 -1.51176,2.71577 -0.29992,0.784017 -0.44992,1.530931 -0.44992,2.241323 h 0.74224 c 0,-0.513055 0.0583,-1.009288 0.17397,-1.488165 0.11836,-0.478843 0.29405,-0.964249 0.52823,-1.456228 0.23416,-0.49198 0.63568,-1.171797 1.20396,-2.040028 v -0.576398 z m 15.38304,0 -1.31415,0.904329 v 0.670291 l 1.25498,-0.895229 v 4.277655 h -1.41711 v 0.603845 h 3.48445 v -0.603844 h -1.35336 V 90.591225 Z M 49.80972,91.084129 c 0.426244,0 0.732029,0.180503 0.916214,0.540941 0.186758,0.36045 0.279597,0.941586 0.279597,1.744071 0,0.773486 -0.09675,1.346695 -0.291441,1.72033 -0.194722,0.3736 -0.501533,0.560998 -0.919847,0.560998 -0.42092,0 -0.728771,-0.183441 -0.923493,-0.549151 -0.192061,-0.36571 -0.287791,-0.942936 -0.287791,-1.732177 0,-0.813029 0.09482,-1.397103 0.284163,-1.752269 0.192117,-0.355178 0.505883,-0.532743 0.942598,-0.532743 z m 16.17265,0 c 0.426227,0 0.731979,0.180503 0.916164,0.540941 0.186791,0.36045 0.279629,0.941586 0.279629,1.744071 0,0.773486 -0.09675,1.346695 -0.291422,1.72033 -0.194723,0.3736 -0.501552,0.560998 -0.919861,0.560998 -0.420958,0 -0.728757,-0.183441 -0.923479,-0.549151 -0.192023,-0.36571 -0.287809,-0.942936 -0.287809,-1.732177 0,-0.813029 0.09481,-1.397103 0.284163,-1.752269 0.19206,-0.355178 0.505883,-0.532743 0.942615,-0.532743 z m 32.5911,0 c 0.42626,0 0.73111,0.180503 0.91529,0.540941 0.18679,0.36045 0.28048,0.941586 0.28048,1.744071 0,0.773486 -0.0976,1.346695 -0.29232,1.72033 -0.19467,0.3736 -0.50062,0.560998 -0.91891,0.560998 -0.42098,0 -0.72877,-0.183441 -0.92349,-0.549151 -0.19203,-0.36571 -0.28868,-0.942936 -0.28868,-1.732177 0,-0.813029 0.0948,-1.397103 0.28415,-1.752269 0.19206,-0.355178 0.50676,-0.532743 0.94348,-0.532743 z m 88.56586,0 c 0.42625,0 0.7311,0.180503 0.91527,0.540941 0.1868,0.36045 0.28053,0.941586 0.28053,1.744071 0,0.773486 -0.0976,1.346695 -0.29237,1.72033 -0.19467,0.3736 -0.50056,0.560998 -0.9189,0.560998 -0.42099,0 -0.72878,-0.183441 -0.92345,-0.549151 -0.19208,-0.36571 -0.28872,-0.942936 -0.28872,-1.732177 0,-0.813029 0.0948,-1.397103 0.28414,-1.752269 0.19207,-0.355178 0.50675,-0.532743 0.9435,-0.532743 z m 98.69591,0 c 0.42623,0 0.73113,0.180503 0.91527,0.540941 0.18679,0.36045 0.28053,0.941586 0.28053,1.744071 0,0.773486 -0.0976,1.346695 -0.29238,1.72033 -0.19467,0.3736 -0.50149,0.560998 -0.91979,0.560998 -0.42096,0 -0.72882,-0.183441 -0.92349,-0.549151 -0.19207,-0.36571 -0.2878,-0.942936 -0.2878,-1.732177 0,-0.813029 0.0947,-1.397103 0.28416,-1.752269 0.19207,-0.355178 0.50677,-0.532743 0.9435,-0.532743 z m -85.41209,0.402504 v 1.689424 h -1.67299 v 0.57558 h 1.67299 v 1.689376 h 0.58016 v -1.689376 h 1.673 v -0.57558 h -1.673 v -1.689424 z m 16.19719,0 v 1.689424 h -1.67301 v 0.57558 h 1.67301 v 1.689376 h 0.58015 v -1.689376 h 1.67298 v -0.57558 h -1.67298 v -1.689424 z m 15.95134,0 v 1.689424 h -1.67302 v 0.57558 h 1.67302 v 1.689376 h 0.5801 v -1.689376 h 1.67393 v -0.57558 h -1.67393 v -1.689424 z m 13.95221,0 v 1.689424 H 244.85 v 0.57558 h 1.67389 v 1.689376 h 0.58016 v -1.689376 h 1.67299 v -0.57558 h -1.67299 v -1.689424 z m 16.19717,0 v 1.689424 h -1.67389 v 0.57558 h 1.67389 v 1.689376 h 0.58017 v -1.689376 h 1.673 v -0.57558 h -1.673 v -1.689424 z m 13.7055,0 v 1.689424 h -1.67301 v 0.57558 h 1.67301 v 1.689376 h 0.58011 v -1.689376 h 1.67301 v -0.57558 h -1.67301 V 91.486585 Z M 40.721626,93.689088 v 0.631128 h 1.972605 v -0.631128 z m 16.172633,0 v 0.631128 h 1.972606 v -0.631128 z m 14.34238,0 v 0.631128 h 1.972587 v -0.631128 z m 18.247813,0 v 0.631128 h 1.973523 v -0.631128 z m 16.418478,0 v 0.631128 h 1.97352 v -0.631128 z m 16.169,0 v 0.631128 h 1.97265 v -0.631128 z m 14.16806,0 v 0.631128 h 1.97353 v -0.631128 z m 18.41396,0 v 0.631128 h 1.97354 v -0.631128 z m 14.16897,0 v 0.631128 h 1.97356 V 93.689088 Z M 45.645884,97.867459 v 8.017111 h 1.019135 v -8.017111 z m 16.596127,0 v 8.017111 h 1.019135 v -8.017111 z m 15.177493,0 v 8.017111 c 0,0 0.778922,0.24021 1.019134,0 1.889652,-1.88965 0,-8.017111 0,-8.017111 z m 16.343527,0 v 8.017111 h 1.019088 v -8.017111 z m 14.967729,0 v 8.017111 h 1.01906 v -8.017111 z m 16.59517,0 v 8.017111 h 1.01913 v -8.017111 z m 15.00869,0 v 8.017111 h 1.01909 v -8.017111 z m 16.76003,0 v 8.017111 h 1.02003 v -8.017111 z m 14.55514,0 v 8.017111 h 1.01913 v -8.017111 z m 31.58113,0 v 8.017111 h 1.01912 v -8.017111 z m 15.0087,0 v 8.017111 h 1.01909 v -8.017111 z m 16.51321,0 v 8.017111 h 1.01913 v -8.017111 z m 14.55425,0 v 8.017111 h 1.01908 v -8.017111 z m 14.3475,0 v 8.017111 h 1.02001 v -8.017111 z m 16.92672,0 v 8.017111 h 1.01908 V 97.867459 Z M 181.99465,99.0842 v 6.98891 h 4.85694 V 99.0842 Z m 5.40151,0.0058 v 6.98796 h 4.85689 V 99.09 Z m -4.38965,0.867902 h 1.0118 c 1.10533,0 2.02453,1.176258 2.02453,2.621988 0,1.44892 -0.91971,2.62012 -2.02453,2.62012 h -1.0118 z m 7.21834,0.0072 h 1.01187 v 5.242108 h -1.01187 c -1.10429,0 -2.0236,-1.17224 -2.0236,-2.62105 0,-1.44579 0.9188,-2.621058 2.0236,-2.621058 z" />
  <path
     style="fill:#fe0000;fill-opacity:{{peak_right_15}};fill-rule:evenodd;stroke:#363636;stroke-width:0.657756;stroke-linecap:round;stroke-linejoin:round;stroke-dasharray:none;stroke-opacity:1"
     d="m 273.83382,111.32888 v 24.34224 h 14.97342 c 0.007,0 0.0121,-0.0372 0.0121,-0.0929 v -24.14194 c 0,-0.0548 -0.005,-0.0995 -0.0121,-0.0995 z"
     id="PEAK_RIGHT_15" />
  <path
     style="fill:#fe0000;fill-opacity:{{peak_right_14}};fill-rule:evenodd;stroke:#363636;stroke-width:0.657756;stroke-linecap:round;stroke-linejoin:round;stroke-dasharray:none;stroke-opacity:1"
     d="m 258.34924,111.32888 v 24.34224 h 14.68219 v -24.34224 z"
     id="PEAK_RIGHT_14" />
  <path
     style="fill:#fe0000;fill-opacity:{{peak_right_13}};fill-rule:evenodd;stroke:#363636;stroke-width:0.657756;stroke-linecap:round;stroke-linejoin:round;stroke-dasharray:none;stroke-opacity:1"
     d="m 242.62798,111.32888 v 24.34224 h 14.91887 v -24.34224 z"
     id="PEAK_RIGHT_13" />
  <path
     style="fill:#fdba34;fill-opacity:{{peak_right_12}};fill-rule:evenodd;stroke:#363636;stroke-width:0.657756;stroke-linecap:round;stroke-linejoin:round;stroke-dasharray:none;stroke-opacity:1"
     d="m 227.74433,111.32888 v 24.34224 h 14.08126 v -24.34224 z"
     id="PEAK_RIGHT_12" />
  <path
     style="fill:#fdba34;fill-opacity:{{peak_right_11}};fill-rule:evenodd;stroke:#363636;stroke-width:0.657756;stroke-linecap:round;stroke-linejoin:round;stroke-dasharray:none;stroke-opacity:1"
     d="m 212.35775,111.32888 v 24.34224 h 14.5842 v -24.34224 z"
     id="PEAK_RIGHT_11" />
  <path
     style="fill:#fdba34;fill-opacity:{{peak_right_10}};fill-rule:evenodd;stroke:#363636;stroke-width:0.657756;stroke-linecap:round;stroke-linejoin:round;stroke-dasharray:none;stroke-opacity:1"
     d="m 196.6365,111.32888 v 24.34224 h 14.91886 v -24.34224 z"
     id="PEAK_RIGHT_10" />
  <path
     style="fill:#fdba34;fill-opacity:{{peak_right_09}};fill-rule:evenodd;stroke:#363636;stroke-width:0.657756;stroke-linecap:round;stroke-linejoin:round;stroke-dasharray:none;stroke-opacity:1"
     d="m 180.41231,111.32888 v 24.34224 h 15.4218 v -24.34224 z"
     id="PEAK_RIGHT_09" />
  <path
     style="fill:#75d445;fill-opacity:{{peak_right_08}};fill-rule:evenodd;stroke:#363636;stroke-width:0.657756;stroke-linecap:round;stroke-linejoin:round;stroke-dasharray:none;stroke-opacity:1"
     d="m 165.19399,111.32888 v 24.34224 h 14.41593 v -24.34224 z"
     id="PEAK_RIGHT_08" />
  <path
     style="fill:#7ae047;fill-opacity:{{peak_right_07}};fill-rule:evenodd;stroke:#363636;stroke-width:0.657756;stroke-linecap:round;stroke-linejoin:round;stroke-dasharray:none;stroke-opacity:1"
     d="m 149.47271,111.32888 v 24.34224 h 14.91889 v -24.34224 z"
     id="PEAK_RIGHT_07" />
  <path
     style="fill:#7ae047;fill-opacity:{{peak_right_06}};fill-rule:evenodd;stroke:#363636;stroke-width:0.657756;stroke-linecap:round;stroke-linejoin:round;stroke-dasharray:none;stroke-opacity:1"
     d="m 133.41584,111.32888 v 24.34224 h 15.25448 v -24.34224 z"
     id="PEAK_RIGHT_06" />
  <path
     style="fill:#7ae047;fill-opacity:{{peak_right_05}};fill-rule:evenodd;stroke:#363636;stroke-width:0.657756;stroke-linecap:round;stroke-linejoin:round;stroke-dasharray:none;stroke-opacity:1"
     d="m 118.19753,111.32888 v 24.34224 h 14.41593 v -24.34224 z"
     id="PEAK_RIGHT_05" />
  <path
     style="fill:#7ae047;fill-opacity:{{peak_right_04}};fill-rule:evenodd;stroke:#363636;stroke-width:0.657756;stroke-linecap:round;stroke-linejoin:round;stroke-dasharray:none;stroke-opacity:1"
     d="m 102.14065,111.32888 v 24.34224 h 15.25449 v -24.34224 z"
     id="PEAK_RIGHT_04" />
  <path
     style="fill:#7ae047;fill-opacity:{{peak_right_03}};fill-rule:evenodd;stroke:#363636;stroke-width:0.657756;stroke-linecap:round;stroke-linejoin:round;stroke-dasharray:none;stroke-opacity:1"
     d="m 86.75406,111.32888 v 24.34224 h 14.58421 v -24.34224 z"
     id="PEAK_RIGHT_03" />
  <path
     style="fill:#7ae047;fill-opacity:{{peak_right_02}};fill-rule:evenodd;stroke:#363636;stroke-width:0.657756;stroke-linecap:round;stroke-linejoin:round;stroke-dasharray:none;stroke-opacity:1"
     d="m 71.032791,111.32888 v 24.34224 h 14.918881 v -24.34224 z"
     id="PEAK_RIGHT_02" />
  <path
     style="fill:#7ae047;fill-opacity:{{peak_right_01}};fill-rule:evenodd;stroke:#363636;stroke-width:0.657756;stroke-linecap:round;stroke-linejoin:round;stroke-dasharray:none;stroke-opacity:1"
     d="m 55.227398,111.32888 v 24.34224 h 15.003004 v -24.34224 z"
     id="PEAK_RIGHT_01" />
  <path
     style="fill:#7ae047;fill-opacity:{{peak_right_00}};fill-rule:evenodd;stroke:#363636;stroke-width:0.657944;stroke-linecap:round;stroke-linejoin:round;stroke-dasharray:none;stroke-opacity:1"
     d="m 40.34147,111.32939 c -0.0071,0 -0.01249,0.0483 -0.01249,0.0995 v 24.14923 c 0,0.0548 0.0053,0.0929 0.01249,0.0929 h 14.083446 v -24.34205 z"
     id="PEAK_RIGHT_00" />
  <path
     id="path18"
     style="font-size:17.3333px;font-family:Arimo;-inkscape-font-specification:Arimo;fill:#ffffff;fill-opacity:1;fill-rule:evenodd;stroke:#ffffff;stroke-width:1;stroke-linecap:round;stroke-linejoin:round;stroke-dasharray:none;stroke-opacity:1"
     d="m 10.791563,54.909359 v 4.69417 h 3.00824 v -0.51969 h -2.37169 v -4.17448 z m 3.79468,0 v 4.69417 h 3.69785 v -0.51969 h -3.0613 v -1.63598 h 2.72456 v -0.51276 h -2.72456 v -1.50605 h 2.92444 v -0.51969 z m 4.55042,0 v 4.69417 h 0.63654 v -1.90194 h 2.61845 v -0.52662 h -2.61845 v -1.74592 h 2.6984 v -0.51969 z m 3.76162,0 v 0.51969 h 1.61212 v 4.17448 h 0.63269 v -4.17448 h 1.61293 v -0.51969 z m -10.26627,33.35219 v 1.49604 l 0.007,0.40283 h -0.007 c -0.11098,-0.21767 -0.25762,-0.37673 -0.43974,-0.47663 -0.18212,-0.1 -0.40951,-0.14992 -0.68268,-0.14992 -0.8839,0 -1.32613,0.62875 -1.32613,1.8858 0,0.62187 0.10666,1.08579 0.31981,1.39225 0.21543,0.30651 0.55106,0.45975 1.00632,0.45975 0.27096,0 0.49749,-0.05 0.67962,-0.14993 0.18432,-0.0999 0.33178,-0.26486 0.4428,-0.49584 h 0.0134 c 0,0.0932 0.004,0.20405 0.009,0.33288 0.009,0.12879 0.0174,0.21125 0.0239,0.24676 h 0.57275 c -0.0134,-0.11989 -0.0201,-0.36807 -0.0201,-0.74342 v -4.20057 z m 1.61907,0.24982 v 4.69417 h 1.90579 c 0.5419,0 0.965,-0.11572 1.26926,-0.34669 0.30426,-0.23318 0.45588,-0.55882 0.45588,-0.97636 0,-0.31313 -0.10086,-0.57138 -0.30292,-0.7757 -0.20208,-0.20653 -0.48943,-0.33229 -0.86257,-0.37669 0.28426,-0.0644 0.50415,-0.19102 0.65962,-0.3798 0.15548,-0.18878 0.23294,-0.42199 0.23294,-0.69957 0,-0.7596 -0.55054,-1.13936 -1.65208,-1.13936 z m 0.63655,0.50981 h 1.06937 c 0.32867,0 0.57936,0.0541 0.75263,0.16296 0.1732,0.10884 0.25982,0.29037 0.25982,0.54354 0,0.26431 -0.0842,0.46084 -0.25293,0.58964 -0.16657,0.12658 -0.41975,0.18991 -0.75952,0.18991 h -1.06937 z m -3.21811,0.95637 c 0.33535,-4e-5 0.5794,0.1108 0.73263,0.33288 0.15323,0.22208 0.22986,0.57188 0.22986,1.04937 0,0.49525 -0.0766,0.86088 -0.22986,1.09626 -0.15323,0.23546 -0.39975,0.35288 -0.73957,0.35288 -0.29981,0 -0.51637,-0.10908 -0.64962,-0.32674 -0.13329,-0.21763 -0.19987,-0.5783 -0.19987,-1.08244 0,-0.50194 0.0666,-0.86419 0.19987,-1.08626 0.13553,-0.22432 0.3545,-0.33599 0.65656,-0.33595 z m 3.21811,1.02552 h 1.18544 c 0.77731,0 1.16625,0.27647 1.16625,0.8295 0,0.28651 -0.0891,0.50221 -0.2668,0.64655 -0.17767,0.14438 -0.46084,0.2168 -0.8495,0.2168 h -1.23539 z m 4.15138,29.914781 c 0,0.73957 -1.31417,0.20826 -1.72282,0.62577 -0.40865,0.41751 -0.61273,1.00718 -0.61273,1.76894 0,0.49753 0.0933,0.93058 0.27984,1.29925 0.18879,0.36645 0.46112,0.64792 0.81644,0.84335 0.35536,0.19543 0.77846,0.29289 1.26926,0.29289 0.42199,0 0.81257,-0.0691 1.17238,-0.2068 0.36201,-0.13989 0.66765,-0.33647 0.91638,-0.58964 v -1.61905 h -1.98882 v 0.53354 h 1.40224 v 0.84564 c -0.16433,0.15993 -0.38003,0.28651 -0.64654,0.3798 -0.26428,0.0932 -0.54914,0.13989 -0.85564,0.13989 -0.53744,0 -0.95885,-0.17075 -1.26311,-0.51276 -0.30426,-0.34422 -0.45589,-0.81309 -0.45589,-1.40611 0,-0.59519 0.14327,-1.05579 0.42975,-1.38226 0.28651,-0.32871 0.70044,-0.49276 1.24237,-0.49276 0.34865,0 0.63935,0.0608 0.87255,0.18295 0.2354,0.12214 0.42027,0.31623 0.55351,0.58274 l 0.60581,-0.17992 c -0.17547,-0.38645 -0.4253,-0.66709 -0.74955,-0.84257 -0.32427,-0.17543 -1.26543,-0.78258 -1.26543,-0.26289 z m -8.94167,0.0701 v 4.69339 h 0.63655 v -1.94887 h 1.46223 l 1.21927,1.94887 h 0.73264 l -1.33227,-2.02188 c 0.35756,-0.0622 0.63738,-0.21212 0.83951,-0.44975 0.20431,-0.23762 0.30674,-0.53079 0.30674,-0.87949 0,-0.42195 -0.1449,-0.75094 -0.43361,-0.98632 -0.28647,-0.23766 -0.69378,-0.35595 -1.22234,-0.35595 z m 4.99705,0 v 4.69339 h 0.63656 v -4.69339 z m 7.13274,0 v 4.69339 h 0.6358 v -2.17488 h 2.5385 v 2.17488 h 0.63655 v -4.69339 h -0.63655 v 1.985 h -2.5385 v -1.985 z m 4.52042,0 v 0.51969 h 1.61212 v 4.1737 h 0.63349 v -4.1737 h 1.61212 v -0.51969 z m -16.01366,0.5097 h 1.50913 c 0.34869,0 0.61521,0.0717 0.79953,0.21602 0.18659,0.14217 0.27984,0.35031 0.27984,0.62348 0,0.28207 -0.0924,0.50194 -0.27676,0.65962 -0.18212,0.15544 -0.44112,0.23294 -0.77648,0.23294 h -1.53526 z" />
</svg>
