<?xml version="1.0" encoding="UTF-8" standalone="no"?>
<!-- Created with Inkscape (http://www.inkscape.org/) -->

<svg
   width="320"
   height="170"
   viewBox="0 0 320 170"
   version="1.1"
   id="svg1"
   xml:space="preserve"
   xmlns="http://www.w3.org/2000/svg"
   xmlns:svg="http://www.w3.org/2000/svg">
<rect
   style="fill:#000000;fill-opacity:1;stroke-width:6.88695"
   id="rect2"
   width="320"
   height="170"
   x="0"
   y="-2.7815501e-08" /><rect
   style="fill:#1e5a72;fill-opacity:1;stroke-width:4.40109;stroke-linejoin:round"
   id="rect10"
   width="160"
   height="116.05745"
   x="160"
   y="7.2436981" /><rect
   style="fill:#1e5a72;fill-opacity:1;stroke-width:4.40109;stroke-linejoin:round"
   id="rect9"
   width="160"
   height="116.05745"
   x="0"
   y="7.2436981" />
     <path
   id="NEEDLE_LEFT"
   style="fill:#1fbdd2;fill-opacity:1;stroke-width:1.87469;stroke-linecap:round;stroke-opacity:1"
   d="m 80.008464,24.484783 -0.02906,1.644494 c -0.216152,0.501644 -2.075598,4.971619 -2.075598,10.41432 0,5.132842 0.740733,9.400539 1.717152,10.290802 l -0.01922,1.118934 -1.399879,80.744887 -0.0024,0.008 c -0.183954,0.55644 -0.02015,0.95853 0.239773,1.47254 0.260067,0.51401 0.91769,0.85736 1.571836,0.85736 0.65415,0 1.166002,-0.5299 1.569412,-0.85736 0.403387,-0.32746 0.304263,-1.2238 0.234946,-1.48465 v -0.002 -0.002 l -1.400058,-80.735437 -0.01937,-1.133466 c 0.967843,-0.924654 1.700196,-5.173794 1.700196,-10.27627 0,-5.315431 -1.774396,-9.7035 -2.058646,-10.373147 v -0.0024 z" 
   transform="rotate({{needle_left}}, 80, 126)" />
   <path
   id="NEEDLE_RIGHT"
   style="fill:#1fbdd2;fill-opacity:1;stroke-width:1.87469;stroke-linecap:round;stroke-opacity:1"
   d="m 240.00577,24.484783 -0.0267,1.644494 c -0.21606,0.501644 -2.07561,4.971619 -2.07561,10.41432 0,5.132842 0.74073,9.400539 1.71717,10.290802 l -0.0192,1.118934 h 0.0436 l -1.44348,83.224957 -0.002,0.007 c -0.18396,0.55644 -0.0202,0.95853 0.23977,1.47254 0.26007,0.514 0.91769,0.85736 1.57184,0.85736 0.65415,0 1.166,-0.52991 1.56941,-0.85736 0.40339,-0.32747 0.30426,-1.2238 0.23495,-1.48465 v -0.002 -0.002 l -1.44357,-83.215027 h 0.0436 l -0.0192,-1.133466 c 0.96781,-0.924654 1.70019,-5.173794 1.70019,-10.27627 0,-5.317143 -1.77528,-9.708104 -2.05864,-10.375569 z" 
   transform="rotate({{needle_right}}, 240, 126)" />
<path
   id="FRAME"
   style="fill:#3c3c3c;stroke-width:4.16378"
   d="M 0 -34.191406 L 0 0 L -11.996094 0 L -11.996094 5 L 0 19 L 0 95.587891 L 0 179.6543 L 0 204.19141 L 5 204.19141 L 5 179.6543 L 157.5 179.6543 L 157.5 186.74609 L 162.5 186.74609 L 162.5 179.6543 L 315 179.6543 L 315 204.19141 L 320 204.19141 L 320 179.6543 L 320 95.587891 L 320 19 L 331.99609 5 L 331.99609 0 L 320 0 L 320 -34.191406 L 315 -34.191406 L 315 0 L 165 0 L 165 -5 L 162.5 -5 L 162.5 -34.191406 L 157.5 -34.191406 L 157.5 -5 L 155 -5 L 155 0 L 5 0 L 5 -34.191406 L 0 -34.191406 z M 5 19 L 155 19 L 155 95.587891 L 5 95.587891 L 5 19 z M 165 19 L 315 19 L 315 95.587891 L 165 95.587891 L 165 19 z M 157.5 193.99023 L 157.5 204.19141 L 162.5 204.19141 L 162.5 193.99023 L 157.5 193.99023 z " />   
<rect
   style="fill:#ffffff;fill-opacity:1;stroke-width:4.68673"
   id="rect1"
   width="7.4401841"
   height="1.2400306"
   x="7.4401913"
   y="43.368866" /><path
   id="rect3"
   style="fill:#ffffff;fill-opacity:1;stroke-width:4.68673"
   d="m 146.94364,40.250048 v 3.100085 h -3.10007 v 1.240062 h 3.10007 v 3.100038 h 1.24003 v -3.100038 h 3.10008 v -1.240062 h -3.10008 v -3.100085 z" /><path
   id="text4"
   style="fill:#ffffff;fill-opacity:1;stroke-width:4.68673"
   d="m 86.579216,42.731719 c -0.14932,0.0047 -0.303701,0.01875 -0.465018,0.04218 l 0.145336,0.917896 c 0.440927,-0.0614 0.812604,-0.03749 1.114087,0.07733 0.301497,0.113419 0.528185,0.284016 0.680565,0.510994 0.126448,0.181376 0.201717,0.382437 0.227681,0.603088 0.0225,0.220277 -0.008,0.43446 -0.09205,0.641801 -0.106951,0.259176 -0.304825,0.47964 -0.593378,0.661204 -0.194499,0.126542 -0.433991,0.216058 -0.719314,0.271362 v 0.0024 c -0.158881,0.0094 -0.324697,0.02343 -0.496494,0.04218 l 0.101702,0.944517 h 0.01453 v 0.0047 c 0.116746,-0.0094 0.232884,-0.02343 0.346349,-0.03749 0.444115,-0.03281 0.809417,-0.02812 1.094713,0.01406 0.356613,0.05858 0.604119,0.158412 0.743535,0.298076 0.07452,0.07171 0.106577,0.146695 0.09687,0.227775 -0.0164,0.126542 -0.09472,0.261989 -0.237336,0.404465 -0.226931,0.239961 -0.563382,0.424149 -1.007525,0.557018 -0.444161,0.129823 -0.970444,0.159349 -1.576682,0.08483 l -0.121105,0.937299 c 0.768333,0.09373 1.442013,0.04921 2.022315,-0.135446 0.580306,-0.184657 1.029712,-0.441959 1.344173,-0.772608 0.291749,-0.301357 0.456769,-0.625116 0.498921,-0.968747 0.0486,-0.388999 -0.07953,-0.735114 -0.387499,-1.036611 -0.178283,-0.171534 -0.430617,-0.306512 -0.758064,-0.406808 0.217183,-0.217464 0.379016,-0.459768 0.489233,-0.728974 0.149132,-0.359941 0.204436,-0.726771 0.162255,-1.099554 -0.0389,-0.375876 -0.169472,-0.723725 -0.389936,-1.041438 -0.246381,-0.363222 -0.598856,-0.637771 -1.055967,-0.825896 -0.340397,-0.141071 -0.733909,-0.20481 -1.181904,-0.188875 z m 24.146694,0.339319 c -0.3216,0 -0.61849,0.106389 -0.89369,0.321979 -0.27521,0.212308 -0.51465,0.506916 -0.7169,0.881574 -0.35478,0.673061 -0.54965,1.508705 -0.58611,2.506697 l -0.005,0.159818 c 0,0.925067 0.16647,1.720733 0.50134,2.390467 0.18236,0.361346 0.40259,0.646909 0.66118,0.852516 0.25862,0.206216 0.54481,0.312605 0.85979,0.321978 h 0.0169 0.005 0.005 v 0.0024 h -0.002 v 0.0024 h 0.007 c 0.32161,0 0.61849,-0.104983 0.8937,-0.317292 0.2752,-0.21559 0.51464,-0.511744 0.71689,-0.886448 0.35478,-0.673062 0.54964,-1.508706 0.58611,-2.506698 l 0.007,-0.159818 c 0,-0.925019 -0.16886,-1.720686 -0.50376,-2.390419 -0.18236,-0.361347 -0.40259,-0.646957 -0.66119,-0.852564 -0.25861,-0.206216 -0.54481,-0.312604 -0.85978,-0.321978 h -0.0145 -0.01 v -0.0047 z m -37.678044,0.402122 -3.06859,0.01875 -0.111404,4.38856 0.5522,-0.08249 c 0.521774,-0.07921 0.951739,-0.0703 1.29089,0.02343 0.339132,0.09139 0.586999,0.232931 0.743536,0.428836 0.136805,0.166379 0.204154,0.347756 0.201014,0.540099 -0.0032,0.195905 -0.0785,0.379625 -0.225245,0.552191 -0.179361,0.208559 -0.45569,0.362284 -0.830723,0.460236 -0.375032,0.0942 -0.853308,0.09608 -1.433783,0.0047 l -0.162255,0.92277 c 0.769618,0.120449 1.415777,0.103109 1.937551,-0.05343 0.521783,-0.159818 0.92009,-0.399778 1.194015,-0.71932 0.296717,-0.351973 0.448754,-0.737832 0.455316,-1.155232 0.0066,-0.417587 -0.132869,-0.799087 -0.416557,-1.148014 -0.218495,-0.267613 -0.524164,-0.480437 -0.915492,-0.636974 -0.391342,-0.155599 -0.865611,-0.222151 -1.426519,-0.203404 l 0.06299,-2.392857 2.157944,-0.0094 z m -19.680645,0.169659 -0.0098,0.956656 2.114348,0.01406 -1.690508,6.219525 0.922756,0.249334 1.852782,-6.810475 -0.457753,-0.603041 z m 57.353839,0.382438 h 0.005 0.0122 0.005 c 0.25337,0.02343 0.48117,0.23996 0.68541,0.651502 0.26522,0.527163 0.3972,1.181712 0.3972,1.964162 v 0.116231 0.02343 c -0.03,0.838831 -0.19019,1.533358 -0.48196,2.08044 -0.24535,0.463986 -0.5001,0.695089 -0.76534,0.695089 h -0.01 c -0.002,-1.41e-4 -0.003,1.4e-4 -0.005,0 h -0.005 c -0.24835,-0.02343 -0.4767,-0.242304 -0.68299,-0.651503 -0.26522,-0.527163 -0.3972,-1.181712 -0.3972,-1.964208 v -0.113888 -0.02343 c 0.03,-0.838878 0.19019,-1.530968 0.48196,-2.07805 0.24385,-0.461174 0.49703,-0.69462 0.76049,-0.697479 z m -73.878704,1.085024 -1.339326,1.562135 0.707204,0.607915 0.498916,-0.576421 -0.09205,5.718186 0.93729,0.01406 0.108966,-7.013926 z m 3.582045,0.126073 c -0.31612,0 -0.608675,0.105452 -0.879165,0.317292 -0.270471,0.20856 -0.50597,0.498809 -0.704781,0.867092 -0.348693,0.661579 -0.540582,1.482179 -0.576421,2.463111 l -0.0047,0.155131 c 0,0.909226 0.164926,1.693363 0.494075,2.351708 0.179221,0.355254 0.394857,0.633411 0.64908,0.83555 0.254208,0.202467 0.538074,0.310261 0.847679,0.319635 h 0.01453 0.0047 0.0024 v 0.0024 h -0.0024 v 0.0024 h 0.0098 c 0.31612,0 0.608675,-0.10592 0.87916,-0.314948 0.270471,-0.21184 0.505975,-0.501199 0.704786,-0.869482 0.34874,-0.661532 0.540582,-1.482132 0.576421,-2.463112 l 0.0047,-0.157474 c 0,-0.909272 -0.164926,-1.693362 -0.494075,-2.351707 -0.179221,-0.355254 -0.397295,-0.633412 -0.651498,-0.835551 -0.254208,-0.202466 -0.535651,-0.307918 -0.845257,-0.317291 h -0.01453 -0.0098 v -0.0047 z m -0.0047,0.93969 h 0.0047 0.01453 c 0.248865,0.02343 0.47507,0.234805 0.675723,0.639411 0.260723,0.518164 0.389936,1.161137 0.389936,1.930276 v 0.113888 0.02343 c -0.02953,0.824537 -0.187891,1.506362 -0.4747,2.044118 -0.241039,0.456019 -0.490232,0.685153 -0.7508,0.685387 h -0.0024 -0.0075 C 40.021473,51.59381 39.793914,51.378221 39.588602,50.970756 39.327879,50.452545 39.198666,49.809572 39.198666,49.04048 v -0.111544 -0.02343 c 0.02953,-0.824537 0.185501,-1.506409 0.472277,-2.044118 0.23968,-0.453206 0.489417,-0.680138 0.748378,-0.682997 z m 91.834939,2.252396 c -0.14932,0.0047 -0.30614,0.01875 -0.46745,0.04218 l 0.14533,0.920333 c 0.44088,-0.0614 0.81258,-0.03749 1.11409,0.07733 0.3015,0.113419 0.52818,0.284016 0.68056,0.510995 0.12645,0.181376 0.20416,0.382437 0.23007,0.603088 0.0225,0.220276 -0.008,0.43446 -0.092,0.641801 -0.107,0.259176 -0.30487,0.47964 -0.59338,0.661204 -0.19449,0.126542 -0.43642,0.216058 -0.72173,0.271362 v 0.0024 c -0.15884,0.0094 -0.32226,0.02343 -0.49408,0.04218 l 0.1017,0.944517 h 0.0145 v 0.0047 c 0.1167,-0.0094 0.23045,-0.02343 0.34392,-0.03749 0.44411,-0.03281 0.80941,-0.02812 1.09471,0.01406 0.35662,0.05858 0.60412,0.158412 0.74353,0.298076 0.0745,0.07171 0.10658,0.146695 0.0969,0.227775 -0.0164,0.126542 -0.0947,0.261988 -0.23734,0.404465 -0.22693,0.239961 -0.56338,0.426493 -1.00752,0.559455 -0.44416,0.129822 -0.96802,0.157006 -1.57426,0.08249 l -0.12111,0.937299 c 0.76834,0.09373 1.44202,0.04921 2.02232,-0.135447 0.5803,-0.184657 1.02728,-0.441958 1.34175,-0.772607 0.29175,-0.301357 0.45921,-0.625116 0.50134,-0.968747 0.0486,-0.388999 -0.082,-0.735114 -0.38993,-1.036611 -0.17833,-0.172003 -0.43062,-0.306044 -0.75807,-0.406809 0.21718,-0.216995 0.38141,-0.46258 0.49165,-0.731411 0.14914,-0.359941 0.202,-0.724334 0.15987,-1.097116 -0.0389,-0.375876 -0.16704,-0.723772 -0.3875,-1.041439 -0.24638,-0.363221 -0.59885,-0.637817 -1.05596,-0.825895 -0.3404,-0.141071 -0.73392,-0.204811 -1.18191,-0.188876 z M 15.682069,49.019389 c -0.304169,0.01875 -0.597788,0.113419 -0.881583,0.278392 -0.322447,0.19075 -0.579332,0.472563 -0.770175,0.847689 -0.187563,0.374939 -0.256083,0.841409 -0.203451,1.397443 l 0.939708,-0.08952 c -0.02953,-0.345412 0.003,-0.629522 0.101702,-0.850079 0.10203,-0.223557 0.243757,-0.388999 0.421431,-0.494075 0.197452,-0.111076 0.398184,-0.157006 0.605483,-0.138259 0.190844,0.01875 0.351224,0.09467 0.479542,0.232462 0.112059,0.118106 0.175096,0.291046 0.191312,0.518306 0.01968,0.226837 -0.03234,0.508744 -0.157427,0.847688 -0.210575,0.53635 -0.495425,1.059389 -0.857367,1.569399 -0.361956,0.506682 -0.745706,1.003382 -1.150419,1.487053 -0.273096,0.335569 -0.526868,0.653939 -0.760488,0.956702 l 0.370533,0.760469 2.925696,0.04827 0.01453,-0.942173 -1.973877,-0.03749 c 0.05263,-0.06561 0.104795,-0.128885 0.157427,-0.191219 0.424477,-0.513337 0.832391,-1.042563 1.220654,-1.588801 0.388249,-0.549473 0.701922,-1.127815 0.942131,-1.736528 0.190844,-0.529788 0.259364,-0.989837 0.203451,-1.378086 -0.05591,-0.391811 -0.197686,-0.708399 -0.42143,-0.951781 -0.299436,-0.316354 -0.662123,-0.4952 -1.089871,-0.537709 -0.103624,-0.0094 -0.206217,-0.01406 -0.307591,-0.0094 z m 4.291672,0.05577 c -0.319167,0 -0.615738,0.10592 -0.888853,0.319635 -0.273142,0.210434 -0.511359,0.502558 -0.712045,0.874309 -0.352067,0.667953 -0.545086,1.496942 -0.581267,2.487342 l -0.0047,0.157474 c 0,0.91799 0.166566,1.708875 0.498917,2.373501 0.180954,0.359003 0.399684,0.641519 0.656343,0.845251 0.256646,0.20481 0.53994,0.310262 0.852521,0.319635 h 0.01453 0.0047 0.0047 v 0.0024 0.0024 h 0.0047 c 0.319167,0 0.615743,-0.104515 0.888853,-0.314949 0.273096,-0.213715 0.511331,-0.507338 0.71205,-0.879183 0.352067,-0.667953 0.545081,-1.496942 0.581262,-2.487295 l 0.0047,-0.159818 c 0,-0.917989 -0.166613,-1.708875 -0.498921,-2.3735 -0.180955,-0.359004 -0.399684,-0.63913 -0.656344,-0.842815 -0.256645,-0.204342 -0.539935,-0.312605 -0.852521,-0.321978 h -0.01453 -0.01218 v -0.0024 z m -0.0047,0.946953 h 0.0024 0.0024 0.0098 0.0047 0.0024 c 0.249943,0.02343 0.476406,0.239961 0.678142,0.646675 0.263253,0.52318 0.394763,1.173136 0.394763,1.94968 v 0.113888 0.02343 c -0.02953,0.832457 -0.19,1.518173 -0.479546,2.061084 -0.243476,0.460705 -0.497248,0.692652 -0.760488,0.692652 h -0.0098 c -0.250084,-0.01875 -0.478126,-0.235274 -0.685406,-0.646628 -0.263254,-0.52318 -0.394763,-1.173136 -0.394763,-1.94968 v -0.113888 -0.02343 c 0.02953,-0.832458 0.19,-1.51822 0.479546,-2.061084 0.242726,-0.459299 0.493288,-0.691246 0.755641,-0.692699 z m 66.813926,2.988681 -1.194014,0.05109 -0.733849,11.458212 c -1.420674,-0.01406 -2.845435,-0.02343 -4.274715,-0.02343 -0.666237,0 -1.33127,0.0016 -1.995675,0.0047 l -0.336648,-11.387958 -1.223077,-0.05577 0.370533,11.450901 c -1.487864,0.0094 -2.970966,0.03281 -4.449095,0.05812 l -1.448316,-11.380647 -1.186751,0.07968 1.341755,11.327405 c -1.701621,0.03749 -3.395855,0.08296 -5.08364,0.140602 l -2.295997,-11.322578 -1.256985,0.205748 2.266933,11.162713 c -1.529411,0.05671 -3.052931,0.122324 -4.570194,0.196374 h -0.0024 L 57.511449,53.968249 56.21329,54.251796 59.35212,65.04393 c -4.143215,0.215589 -8.238513,0.495153 -12.281633,0.83316 l -5.311305,-10.562063 -1.286048,0.729021 5.010981,9.968676 c -5.25179,0.461174 -10.414482,1.024378 -15.471318,1.683239 h -0.0024 l -7.406276,-9.547245 -1.012371,1.009944 6.791109,8.752844 c -3.491192,0.471297 -6.931618,0.988337 -10.317447,1.550042 l 1.00026,1.039001 c 19.028641,-3.111051 39.786551,-4.824473 61.51473,-4.824473 20.140718,0 39.446368,1.472945 57.315088,4.165706 l 0.82346,-1.075323 c -4.75143,-0.724756 -9.60544,-1.363511 -14.54857,-1.910921 l 2.71258,-4.245615 h 0.002 c 5.07795,0.54816 10.05994,1.193007 14.93608,1.92784 l 0.82346,-1.075324 c -4.91208,-0.749314 -9.9334,-1.407097 -15.04991,-1.966645 l 2.40256,-3.758805 -0.99057,-0.993024 -2.93054,4.589574 h -0.002 c -1.77516,-0.186532 -3.56242,-0.362284 -5.35974,-0.52557 l 2.39287,-4.524148 -1.23761,-0.750814 -2.71499,5.136938 c -1.73649,-0.150444 -3.48279,-0.288703 -5.23865,-0.41665 l 2.12162,-4.834175 -1.31027,-0.65633 -2.36139,5.379101 c -1.79432,-0.12373 -3.59983,-0.234337 -5.41302,-0.334164 l 1.67598,-5.093351 -1.33449,-0.847642 -3.70798,11.27407 h -0.002 c -1.48872,-0.08436 -2.98448,-0.159817 -4.485423,-0.227775 l 2.809443,-11.455775 -1.48707,-0.01406 -2.906319,11.40005 c -1.692402,-0.06983 -3.391262,-0.130291 -5.098174,-0.179033 L 94.063291,53.581453 92.680368,53.307748 91.10611,64.627889 c -1.652973,-0.04218 -3.311428,-0.07452 -4.977078,-0.09702 z m 19.787213,7.95849 c 1.77272,0.09655 3.53485,0.205279 5.2895,0.324791 l -1.87215,4.262581 c -1.59982,-0.1167 -3.2069,-0.221682 -4.82207,-0.319635 z m 6.84196,0.433523 c 1.72344,0.124198 3.43702,0.258707 5.14177,0.404465 l -2.25482,4.262628 c -1.57892,-0.141539 -3.16633,-0.274643 -4.76152,-0.397435 z m 6.7015,0.540099 h 0.002 c 1.75903,0.157474 3.50815,0.328071 5.24591,0.508604 l -2.71014,4.240788 c -1.58944,-0.169191 -3.18806,-0.329009 -4.79543,-0.479547 z M 80.580402,133.17685 a 0.62001533,0.62001533 0 0 0 -0.620012,0.62001 0.62001533,0.62001533 0 0 0 0.620012,0.62001 0.62001533,0.62001533 0 0 0 0.620017,-0.62001 0.62001533,0.62001533 0 0 0 -0.620017,-0.62001 z" /><path
   style="baseline-shift:baseline;display:inline;overflow:visible;vector-effect:none;fill:#ff6e6e;fill-opacity:1;stroke-width:4.68804;stroke-linejoin:round;stroke-miterlimit:0;enable-background:accumulate;stop-color:#000000"
   d="m 148.18367,63.810617 c -2.3903,0 -4.3401,1.94982 -4.3401,4.340146 0,2.390279 1.9498,4.349239 4.3401,4.349239 2.39031,0 4.34011,-1.95896 4.34011,-4.349239 0,-2.390326 -1.9498,-4.340146 -4.34011,-4.340146 z m 0,1.245264 c 0.22356,0 0.19305,0.358535 0.40288,0.40259 -0.68666,0.274642 -1.42838,0.639645 -1.42839,1.419189 -3e-5,1.020301 0.84766,1.858757 1.86789,1.858804 0.779,-4.7e-5 1.144,-0.733427 1.41924,-1.419283 0.18124,0.394623 0.84238,0.368377 0.84238,0.833254 0,1.719936 -1.38405,3.103975 -3.104,3.103975 -1.71995,0 -3.10401,-1.384039 -3.104,-3.103975 -1e-5,-1.719983 1.38405,-3.094882 3.104,-3.094882 z m 0.84238,1.199522 c 0.34987,0 0.61348,0.272767 0.61348,0.622585 1e-5,0.34963 -0.26363,0.622632 -0.61348,0.622632 -0.34986,0 -0.62263,-0.272768 -0.62262,-0.622632 0,-0.34963 0.27276,-0.622585 0.62262,-0.622585 z"
   id="path29" /><path
   id="label_left"
   style="fill:#bfff6a;fill-opacity:1;stroke-width:4.68673"
   d="m 8.1012238,95.404753 v 1.290889 H 8.7430364 151.25696 151.89877 V 95.404753 H 151.25696 8.7430364 Z m 63.5903242,3.451256 -0.03656,0.576421 c -0.007,0.100343 -0.0164,0.192531 -0.01687,0.293062 v 0.007 c 0,1.735548 1.013618,3.274698 2.53577,4.340108 1.522151,1.06541 3.574888,1.69306 5.829594,1.69293 2.254702,1.3e-4 4.300183,-0.62752 5.822334,-1.69293 1.522152,-1.06541 2.535765,-2.60456 2.535765,-4.340108 v -0.007 c -3.79e-4,-0.100531 -0.0021,-0.192719 -0.0098,-0.293062 l -0.04593,-0.576421 z m -58.078,0.915492 c -0.645414,0 -1.147881,0.208935 -1.506444,0.627279 -0.358563,0.41234 -0.537669,0.96581 -0.537669,1.65903 0,0.58565 0.161678,1.10183 0.484386,1.55003 0.32271,0.44224 0.821463,0.66362 1.496756,0.66362 0.950191,0 1.558348,-0.46521 1.821296,-1.39746 l -0.852522,-0.27853 c -0.143423,0.61553 -0.468078,0.92275 -0.976039,0.92275 -0.71115,0 -1.068074,-0.50747 -1.068074,-1.52339 0,-0.98008 0.361923,-1.47012 1.085027,-1.47012 0.501989,0 0.809213,0.24254 0.922757,0.72658 l 0.869475,-0.20584 c -0.239042,-0.84861 -0.818638,-1.273949 -1.738949,-1.273949 z m 106.635382,0 v 5.807799 h 1.11167 v -2.10224 c 0,-0.90039 0.30679,-1.35144 0.92033,-1.35144 0.27891,0 0.46216,0.0846 0.54978,0.25187 0.0956,0.16731 0.1429,0.4924 0.1429,0.97846 v 2.22333 h 1.11167 v -2.47279 c 0,-0.60557 -0.10287,-1.06076 -0.31003,-1.36355 -0.20715,-0.31078 -0.58195,-0.46502 -1.12378,-0.46502 -0.49402,0 -0.92435,0.20983 -1.29089,0.63213 v -2.138568 z m -104.312747,0.08961 v 4.357059 h 0.879163 v -1.64207 h 0.571576 c 0.531869,0 0.90993,-0.0398 1.131044,-0.12349 0.227091,-0.0897 0.409906,-0.23893 0.547357,-0.44806 0.137448,-0.21512 0.205865,-0.48622 0.205865,-0.80892 0,-0.35854 -0.08955,-0.64835 -0.268836,-0.86947 -0.173306,-0.22708 -0.373551,-0.360225 -0.60064,-0.402031 -0.221115,-0.04171 -0.574325,-0.06299 -1.058385,-0.06299 z m 119.684767,0.0047 -1.12378,0.646649 v 0.83557 h -0.51345 v 0.88643 h 0.51345 v 1.84067 c 0,0.58963 0.0638,0.99926 0.19132,1.23035 0.13544,0.2311 0.43399,0.34635 0.89611,0.34635 0.32667,0 0.62105,-0.0556 0.88401,-0.16713 l -0.0969,-0.85979 c -0.19923,0.0717 -0.3493,0.10657 -0.45287,0.10657 -0.11952,0 -0.19994,-0.0473 -0.23978,-0.1429 -0.0398,-0.0956 -0.0581,-0.31612 -0.0581,-0.65876 v -1.69536 h 0.7508 v -0.88627 h -0.7508 z m -62.517412,0.225229 h 13.802608 c -0.137649,1.10256 -0.643774,2.16569 -1.784969,2.96445 -1.279388,0.89549 -3.097413,1.47508 -5.117549,1.47496 -2.020135,1.2e-4 -3.835742,-0.57947 -5.115125,-1.47496 -1.141196,-0.79876 -1.64732,-1.86189 -1.784965,-2.96445 z m 70.536442,0.24221 c -0.88446,0 -1.49805,0.26368 -1.84067,0.78955 -0.15935,0.26298 -0.23978,0.48521 -0.23978,0.66846 0,0.35858 0.2761,0.71263 0.82588,1.06323 -0.71712,0.31073 -1.07533,0.75766 -1.07533,1.33933 0,0.27089 0.0739,0.53456 0.22524,0.78955 0.20715,0.29484 0.49154,0.52121 0.8501,0.68056 0.36655,0.15935 0.80101,0.23977 1.303,0.23977 1.05975,0 1.79689,-0.30679 2.21123,-0.92033 0.24703,-0.247 0.37053,-0.5438 0.37053,-0.88643 0,-0.29479 -0.10109,-0.5519 -0.30033,-0.77502 -0.19122,-0.2311 -0.47317,-0.38773 -0.84767,-0.46741 0.27891,-0.0797 0.50114,-0.21568 0.66845,-0.4069 0.16732,-0.19919 0.25187,-0.41731 0.25187,-0.65634 0,-0.2948 -0.13596,-0.58504 -0.4069,-0.8719 -0.20716,-0.2072 -0.47497,-0.35558 -0.80166,-0.44322 -0.32672,-0.0956 -0.7239,-0.1429 -1.19402,-0.1429 z m 5.62857,0 c -0.88445,0 -1.49804,0.26368 -1.84067,0.78955 -0.15935,0.26298 -0.23733,0.48521 -0.23733,0.66846 0,0.35858 0.27365,0.71263 0.82345,1.06323 -0.71712,0.31073 -1.07533,0.75766 -1.07533,1.33933 0,0.27089 0.0763,0.53456 0.22768,0.78955 0.20715,0.29484 0.48911,0.52121 0.84767,0.68056 0.36655,0.15935 0.80102,0.23977 1.303,0.23977 1.05976,0 1.79689,-0.30679 2.21123,-0.92033 0.24704,-0.247 0.37053,-0.5438 0.37053,-0.88643 0,-0.29479 -0.0986,-0.5519 -0.29789,-0.77502 -0.19121,-0.2311 -0.4756,-0.38773 -0.85009,-0.46741 0.2789,-0.0797 0.50356,-0.21568 0.67087,-0.4069 0.16732,-0.19919 0.24948,-0.41731 0.24948,-0.65634 0,-0.2948 -0.13596,-0.58504 -0.4069,-0.8719 -0.20716,-0.2072 -0.47255,-0.35558 -0.79924,-0.44322 -0.32671,-0.0956 -0.72632,-0.1429 -1.19644,-0.1429 z m -132.453204,0.26157 h 0.428681 c 0.460152,0 0.762377,0.0459 0.905803,0.13563 0.143428,0.0897 0.215552,0.25135 0.215552,0.48439 0,0.23902 -0.08084,0.40203 -0.242191,0.49165 -0.161355,0.0837 -0.437436,0.12594 -0.82588,0.12594 h -0.481965 z m -6.9485315,0.11867 c -0.4302747,0 -0.7586368,0.17912 -0.9857277,0.53767 v -0.46746 h -0.779863 v 4.35706 h 0.8331455 v -1.59605 c 0.2868513,0.31078 0.5940745,0.46745 0.9227572,0.46745 0.4063725,0 0.7260215,-0.15794 0.9590865,-0.4747 0.239042,-0.31673 0.360869,-0.71593 0.360869,-1.19401 0,-0.44819 -0.114403,-0.83127 -0.341494,-1.148 -0.227091,-0.32273 -0.55045,-0.48196 -0.9687735,-0.48196 z m 134.0347255,0.40929 c 0.16737,0 0.31575,0.0225 0.44323,0.0702 0.13549,0.0398 0.24657,0.0913 0.33421,0.15499 0.11951,0.11159 0.17922,0.24339 0.17922,0.39477 0,0.27094 -0.14182,0.48316 -0.4287,0.63454 -0.11956,0.0875 -0.23307,0.14304 -0.33664,0.16713 -0.10363,0.0159 -0.22717,0.0244 -0.37054,0.0244 -0.2789,0 -0.49699,-0.0721 -0.65634,-0.21554 -0.19923,-0.17528 -0.29789,-0.35854 -0.29789,-0.54978 0,-0.2072 0.0987,-0.37386 0.29789,-0.50134 0.11956,-0.0716 0.24305,-0.11885 0.37053,-0.1429 0.12753,-0.0239 0.28177,-0.0366 0.46502,-0.0366 z m 5.631,0 c 0.16736,0 0.31331,0.0225 0.44079,0.0702 0.13549,0.0398 0.249,0.0913 0.33665,0.15499 0.11951,0.11159 0.17922,0.24339 0.17922,0.39477 0,0.27094 -0.14426,0.48316 -0.43109,0.63454 -0.11956,0.0875 -0.23063,0.14304 -0.33421,0.16713 -0.10362,0.0159 -0.22716,0.0244 -0.37053,0.0244 -0.27891,0 -0.49942,-0.0721 -0.65877,-0.21554 -0.19923,-0.17528 -0.29789,-0.35854 -0.29789,-0.54978 0,-0.2072 0.0987,-0.37386 0.29789,-0.50134 0.11956,-0.0716 0.24306,-0.11885 0.37053,-0.1429 0.12748,-0.0239 0.28416,-0.0366 0.46741,-0.0366 z m -32.03251,0.13076 c -1.17927,0 -1.76801,0.43033 -1.76801,1.29089 0,0.3187 0.11112,0.58823 0.33421,0.81135 0.22309,0.22309 0.84912,0.4519 1.877,0.68298 0.30281,0.0638 0.45288,0.18316 0.45288,0.35845 0,0.30281 -0.26536,0.45287 -0.79924,0.45287 -0.50199,0 -0.80465,-0.22224 -0.90823,-0.66845 l -1.11166,0.17922 c 0.22309,0.86055 0.89639,1.29089 2.01989,1.29089 0.52589,0 0.97452,-0.11937 1.34902,-0.35844 0.37452,-0.23902 0.56189,-0.58897 0.56189,-1.05112 0,-0.35858 -0.11525,-0.63052 -0.34635,-0.81377 -0.22309,-0.19126 -0.62446,-0.34963 -1.20613,-0.47712 -0.78883,-0.17533 -1.18432,-0.35854 -1.18432,-0.54978 0,-0.2311 0.25125,-0.34635 0.75322,-0.34635 0.43825,0 0.70191,0.16671 0.78955,0.50135 l 1.05112,-0.19132 c -0.21512,-0.74102 -0.837,-1.11167 -1.86489,-1.11167 z m 21.1556,0 c -0.58963,0 -1.05897,0.20809 -1.40956,0.62244 -0.34265,0.41435 -0.51345,0.95166 -0.51345,1.61301 0,0.60557 0.15841,1.11804 0.47712,1.54035 0.3187,0.41435 0.83947,0.62243 1.56457,0.62243 0.92429,0 1.53373,-0.41379 1.82856,-1.24245 l -1.10925,-0.19131 c -0.11154,0.40638 -0.34864,0.6079 -0.7072,0.6079 -0.57371,0 -0.8805,-0.34991 -0.92034,-1.05112 h 2.79734 c 0,-1.68126 -0.66915,-2.52123 -2.00779,-2.52123 z m -6.58524,0.0244 c -0.55776,0 -1.02295,0.23879 -1.39745,0.71689 v -0.62243 h -1.02933 v 4.20689 h 1.11167 v -1.89879 c 0,-0.74901 0.0928,-1.19591 0.2761,-1.33933 0.18325,-0.14341 0.3972,-0.21554 0.64423,-0.21554 0.27891,0 0.46216,0.097 0.54978,0.28819 0.0956,0.18325 0.1429,0.52077 0.1429,1.01479 v 2.15068 h 1.11167 v -2.61569 c 0,-1.1235 -0.46933,-1.68567 -1.40957,-1.68567 z m -7.14713,0.0702 v 2.66656 c 0,1.09162 0.46521,1.63722 1.39746,1.63722 0.59761,0 1.06522,-0.24296 1.39988,-0.729 v 0.63455 h 1.0269 v -4.20931 h -1.11167 v 1.77043 c 0,0.69321 -0.0638,1.14598 -0.19131,1.36113 -0.11952,0.21517 -0.35835,0.32455 -0.7169,0.32455 -0.2789,0 -0.46628,-0.10109 -0.56189,-0.30032 -0.0876,-0.20715 -0.1308,-0.61266 -0.1308,-1.21823 v -1.93756 z m -115.2889514,0.0291 c 0.4601574,0 0.6902514,0.32465 0.6902514,0.97604 0,0.66334 -0.225094,0.99542 -0.6732981,0.99542 -0.48406,0 -0.7241584,-0.34822 -0.7241584,-1.04143 0,-0.62151 0.2350957,-0.93003 0.7072051,-0.93003 z M 138.72829,102.1014 c 0.53371,0 0.81151,0.33164 0.83557,0.99299 h -1.66145 c 0,-0.66134 0.2761,-0.99299 0.82588,-0.99299 z m 5.05458,1.17222 c 0.35858,0 0.62638,0.10695 0.80166,0.32212 0.11951,0.13544 0.17922,0.30211 0.17922,0.50134 0,0.31875 -0.0887,0.5434 -0.264,0.67088 -0.20716,0.17528 -0.47255,0.26156 -0.79924,0.26156 -0.31078,0 -0.57029,-0.10287 -0.77744,-0.31003 -0.11951,-0.11951 -0.17922,-0.31105 -0.17922,-0.57399 0,-0.26298 0.0904,-0.47278 0.27366,-0.63213 0.18325,-0.15935 0.43863,-0.23977 0.76533,-0.23977 z m 5.631,0 c 0.35858,0 0.62395,0.10695 0.79924,0.32212 0.11951,0.13544 0.17922,0.30211 0.17922,0.50134 0,0.31875 -0.0863,0.5434 -0.26157,0.67088 -0.20715,0.17528 -0.47497,0.26156 -0.80166,0.26156 -0.31078,0 -0.57029,-0.10287 -0.77744,-0.31003 -0.11951,-0.11951 -0.17922,-0.31105 -0.17922,-0.57399 0,-0.26298 0.0928,-0.47278 0.2761,-0.63213 0.18325,-0.15935 0.43863,-0.23977 0.76533,-0.23977 z" /><path
   id="path3"
   style="fill:#ff6e6e;fill-opacity:1;stroke-width:4.68673"
   d="m 132.2546,48.428905 c -0.14932,0.0047 -0.30613,0.01781 -0.46745,0.04124 l 0.14533,0.920338 c 0.44089,-0.0614 0.81258,-0.03749 1.1141,0.07752 0.30149,0.113419 0.52818,0.284063 0.68056,0.511027 0.12644,0.181377 0.20415,0.382437 0.23007,0.603065 0.0225,0.220276 -0.008,0.43446 -0.0921,0.64181 -0.107,0.259176 -0.30487,0.479626 -0.59337,0.66119 -0.1945,0.126542 -0.43643,0.215964 -0.72174,0.271268 v 0.0024 c -0.15883,0.0094 -0.32226,0.02484 -0.49408,0.04359 l 0.10171,0.944555 h 0.0145 v 0.0047 c 0.1167,-0.0094 0.23044,-0.02484 0.34391,-0.0389 0.44411,-0.03281 0.80942,-0.02765 1.09472,0.01453 0.35661,0.05858 0.60411,0.158224 0.74353,0.297889 0.0745,0.07171 0.10657,0.146601 0.0969,0.227681 -0.0164,0.126542 -0.0947,0.261989 -0.23734,0.404465 -0.22693,0.239961 -0.56338,0.426493 -1.00752,0.559469 -0.44416,0.129823 -0.96802,0.156865 -1.57426,0.08235 l -0.1211,0.93729 c 0.76833,0.09373 1.44201,0.04902 2.02231,-0.135634 0.5803,-0.184657 1.02729,-0.441959 1.34176,-0.772598 0.29174,-0.301357 0.4592,-0.625144 0.50133,-0.968776 0.0486,-0.388998 -0.082,-0.73509 -0.38993,-1.036587 -0.17833,-0.172003 -0.43062,-0.306137 -0.75807,-0.406902 0.21719,-0.216996 0.38141,-0.46258 0.49166,-0.731425 0.14913,-0.359941 0.20199,-0.724353 0.15986,-1.097136 -0.0389,-0.375875 -0.16703,-0.723766 -0.3875,-1.041433 -0.24638,-0.363221 -0.59885,-0.637798 -1.05596,-0.825877 -0.3404,-0.14107 -0.73391,-0.204857 -1.1819,-0.188922 z m -17.52754,6.333361 -2.36139,5.379115 c -1.66746,-0.114966 -3.34396,-0.218215 -5.02794,-0.312418 l -0.39232,1.160106 c 1.64651,0.09134 3.28301,0.194078 4.9141,0.305153 l -1.87215,4.262605 c -1.48833,-0.108545 -2.98386,-0.208278 -4.48543,-0.300326 l -0.39237,1.157684 c 11.3418,0.689155 22.31035,1.848432 32.78573,3.427035 l 0.82346,-1.075337 c -4.75143,-0.724756 -9.60544,-1.363496 -14.54856,-1.910907 l 2.71256,-4.245652 h 0.002 c 5.07794,0.54816 10.05993,1.19303 14.93607,1.927863 l 0.82346,-1.075342 c -4.91208,-0.749315 -9.93339,-1.40706 -15.04991,-1.966609 l 2.40256,-3.758845 -0.99057,-0.992992 -2.93054,4.589564 h -0.002 c -1.77515,-0.186532 -3.56241,-0.362284 -5.35974,-0.525556 l 2.39287,-4.524175 -1.23761,-0.7508 -2.71499,5.136923 c -1.73649,-0.150444 -3.48279,-0.288609 -5.23864,-0.416557 l 2.12162,-4.834183 z m -1.31511,6.640946 c 1.72343,0.124199 3.43701,0.258708 5.14177,0.404465 l -2.25483,4.262605 c -1.57891,-0.141539 -3.16633,-0.274408 -4.76152,-0.397201 z m 6.70149,0.54009 h 0.002 c 1.75903,0.157474 3.50815,0.328071 5.24591,0.508608 l -2.71014,4.240807 c -1.58944,-0.169191 -3.18806,-0.329008 -4.79543,-0.479541 z" />
   <ellipse
   style="fill:#ff6e6e;stroke-width:4.68673;fill-opacity:{{overflow_left}}"
   id="LED_LEFT"
   cx="148.20941"
   cy="68.056786"
   rx="3.2210627"
   ry="3.2926419" />
   <path
   style="fill:#b3eaff;fill-opacity:1;stroke:#ffffff;stroke-width:0.5;stroke-dasharray:none;stroke-opacity:1"
   d="m 69.263091,136.46252 -0.490701,-0.84756 c -2.899326,6.11094 -3.38997,6.37857 -11.062026,6.33396 h -8.430336 l 1.204398,-1.15968 c 2.364051,-2.18565 2.676285,-2.76552 3.791415,-7.40445 1.293537,-5.53101 1.91802,-7.98426 2.497875,-9.72387 0.669126,-1.87341 1.828809,-2.72088 3.702219,-2.72088 0.579843,0 0.981261,0 2.631687,0.0885 l 1.739583,-2.49729 c -0.892119,-0.0885 -1.338108,-0.1335 -1.962618,-0.1335 -0.847551,0 -1.605789,0.0885 -2.364069,0.2676 -1.204395,0.3123 -3.345369,1.8288 -5.129577,3.61302 -2.185644,2.23023 -2.943924,4.28208 -4.683522,12.57861 -1.204395,5.70942 -2.364066,7.35981 -5.174178,7.35981 -0.356847,0 -0.892119,0 -1.38282,-0.045 -0.624411,0.62442 -0.892119,0.93669 -1.561173,1.78419 l 4.371285,-0.1335 6.824565,0.2229 8.787183,0.35685 c 2.319453,0 3.300771,-0.49071 4.103664,-2.14104 0.535272,-1.02597 1.918005,-4.10367 2.587074,-5.79864 z m 15.93049,2.94393 v -1.29354 c -1.65038,1.33812 -4.81733,4.05906 -7.09218,4.05906 -2.497882,0 -2.720905,-2.6763 -2.676307,-4.41588 1.025977,-0.49071 5.397198,-3.79143 6.289307,-4.46052 1.65038,-1.33809 2.85471,-2.76552 2.85471,-4.86195 0,-1.47195 -0.89212,-2.58708 -2.54248,-2.58708 -1.60578,0 -2.98853,0.80283 -4.59432,2.05182 -3.925222,3.03315 -5.307985,8.0289 -5.307985,12.22176 0,2.72091 1.115112,4.63893 3.836026,4.63893 3.434579,0 7.404439,-3.5238 9.233229,-5.3526 z m -3.92524,-9.7239 c 0,3.21156 -3.6576,5.04036 -5.798646,6.69075 0.17841,-2.23023 1.873426,-8.56416 4.415896,-8.56416 0.98126,0 1.38282,0.89214 1.38282,1.87341 z m 27.349379,-15.61173 c -0.89212,-0.2229 -1.24897,-0.2676 -2.14103,-0.2676 -2.6763,0 -4.54971,0.98127 -7.538249,3.88062 -2.49787,2.40867 -3.07774,3.74682 -4.81733,11.15124 h -3.74683 c -0.26757,0.1785 -0.53527,0.35685 -0.62441,0.40143 l -0.98126,0.53526 c -0.17844,0.0885 -0.53527,0.2676 -0.89212,0.49071 h 5.88786 l -1.8288,7.80588 c -2.6763,12.26637 -3.70221,14.27358 -7.49364,14.27358 -0.62442,0 -1.15969,-0.045 -2.36405,-0.2229 -0.44599,0.66912 -0.57985,0.89211 -0.89212,1.29354 -0.35685,0.49071 -0.75827,0.98127 -1.11512,1.51656 0.98126,0.1335 1.47197,0.1785 2.18565,0.1785 1.47196,0 2.63168,-0.2229 3.34537,-0.62442 1.29353,-0.71367 3.56839,-2.89932 4.77273,-4.46049 1.38282,-1.87341 2.98853,-5.70942 4.01445,-9.76848 l 2.63172,-9.99168 h 3.969829 l 1.8288,-1.42737 -2.81011,-0.045 -2.631689,0.045 c 2.899319,-11.32965 3.568389,-12.71241 6.200089,-12.71241 0.75827,0 1.33811,0.0885 2.98854,0.35685 z m 7.41093,25.55865 0.0886,-1.1151 c -3.38997,2.00721 -4.81733,2.76549 -5.44181,2.76549 -0.57984,0 -1.29353,-1.15968 -1.29353,-2.09643 0,-0.62442 0.75826,-4.05906 1.91801,-8.74257 0.62441,-0.045 1.07054,-0.045 1.29353,-0.045 l 1.78421,-0.045 c 0.17841,0 0.62441,-0.045 1.33811,-0.1335 l 1.69498,-1.29354 h -5.70937 l 1.78419,-7.22601 c -0.84755,0.44601 -1.20439,0.57984 -1.87341,0.89214 -0.31227,0.1785 -0.66912,0.31227 -1.02597,0.49068 -0.17844,0.0885 -0.40142,0.1785 -0.62441,0.2676 l -1.24897,5.57562 c -0.40142,0.045 -0.66912,0.045 -0.80283,0.045 h -1.07055 c 0,0 -0.31227,0 -0.66912,0.045 -0.4907,0.31227 -0.53527,0.31227 -1.29354,0.93669 -0.13356,0.0885 -0.35685,0.2676 -0.66912,0.49071 h 1.07054 2.05183 0.98126 c -2.36407,9.90231 -2.36407,9.90231 -2.36407,11.28504 0,1.42737 0.93669,2.98854 1.7842,2.98854 0.98126,0 4.01445,-1.87341 8.29652,-5.08497 z"
   id="text11"
   aria-label="Left" /><rect
   style="fill:#ffffff;fill-opacity:1;stroke-width:4.68673"
   id="rect4"
   width="7.4401841"
   height="1.2400306"
   x="168.64418"
   y="42.730061" /><path
   id="path4"
   style="fill:#ffffff;fill-opacity:1;stroke-width:4.68673"
   d="m 308.14762,40.250048 v 3.100085 h -3.10007 v 1.240062 h 3.10007 v 3.100038 h 1.24003 v -3.100038 h 3.10008 v -1.240062 h -3.10008 v -3.100085 z" /><path
   id="path5"
   style="fill:#ffffff;fill-opacity:1;stroke-width:4.68673"
   d="m 247.7832,42.731719 c -0.14932,0.0047 -0.3037,0.01875 -0.46502,0.04218 l 0.14534,0.917896 c 0.44092,-0.0614 0.8126,-0.03749 1.11408,0.07733 0.3015,0.113419 0.52819,0.284016 0.68057,0.510994 0.12645,0.181376 0.20172,0.382437 0.22768,0.603088 0.0225,0.220277 -0.008,0.43446 -0.0921,0.641801 -0.10695,0.259176 -0.30482,0.47964 -0.59337,0.661204 -0.1945,0.126542 -0.434,0.216058 -0.71932,0.271362 v 0.0024 c -0.15888,0.0094 -0.3247,0.02343 -0.49649,0.04218 l 0.1017,0.944517 h 0.0145 v 0.0047 c 0.11674,-0.0094 0.23288,-0.02343 0.34635,-0.03749 0.44411,-0.03281 0.80941,-0.02812 1.09471,0.01406 0.35661,0.05858 0.60412,0.158412 0.74354,0.298076 0.0745,0.07171 0.10657,0.146695 0.0969,0.227775 -0.0164,0.126542 -0.0947,0.261989 -0.23734,0.404465 -0.22693,0.239961 -0.56338,0.424149 -1.00752,0.557018 -0.44416,0.129823 -0.97044,0.159349 -1.57668,0.08483 l -0.12111,0.937299 c 0.76834,0.09373 1.44202,0.04921 2.02232,-0.135446 0.5803,-0.184657 1.02971,-0.441959 1.34417,-0.772608 0.29175,-0.301357 0.45677,-0.625116 0.49892,-0.968747 0.0486,-0.388999 -0.0795,-0.735114 -0.3875,-1.036611 -0.17828,-0.171534 -0.43061,-0.306512 -0.75806,-0.406808 0.21718,-0.217464 0.37901,-0.459768 0.48923,-0.728974 0.14913,-0.359941 0.20444,-0.726771 0.16226,-1.099554 -0.0389,-0.375876 -0.16948,-0.723725 -0.38994,-1.041438 -0.24638,-0.363222 -0.59886,-0.637771 -1.05597,-0.825896 -0.34039,-0.141071 -0.73391,-0.20481 -1.1819,-0.188875 z m 24.14669,0.339319 c -0.3216,0 -0.61848,0.106389 -0.89369,0.321979 -0.2752,0.212308 -0.51464,0.506916 -0.7169,0.881574 -0.35478,0.673061 -0.54964,1.508705 -0.5861,2.506697 l -0.005,0.159818 c 0,0.925067 0.16647,1.720733 0.50134,2.390467 0.18236,0.361346 0.40259,0.646909 0.66119,0.852516 0.25861,0.206216 0.5448,0.312605 0.85978,0.321978 h 0.0169 0.005 0.005 v 0.0024 h -0.002 v 0.0024 h 0.007 c 0.3216,0 0.61848,-0.104983 0.89369,-0.317292 0.2752,-0.21559 0.51464,-0.511744 0.71689,-0.886448 0.35479,-0.673062 0.54965,-1.508706 0.58611,-2.506698 l 0.007,-0.159818 c 0,-0.925019 -0.16887,-1.720686 -0.50376,-2.390419 -0.18237,-0.361347 -0.4026,-0.646957 -0.66119,-0.852564 -0.25862,-0.206216 -0.54481,-0.312604 -0.85979,-0.321978 h -0.0145 -0.01 v -0.0047 z m -37.67804,0.402122 -3.06859,0.01875 -0.1114,4.38856 0.5522,-0.08249 c 0.52177,-0.07921 0.95173,-0.0703 1.29089,0.02343 0.33913,0.09139 0.58699,0.232931 0.74353,0.428836 0.13681,0.166379 0.20416,0.347756 0.20101,0.540099 -0.003,0.195905 -0.0785,0.379625 -0.22524,0.552191 -0.17936,0.208559 -0.45569,0.362284 -0.83072,0.460236 -0.37503,0.0942 -0.85331,0.09608 -1.43379,0.0047 l -0.16225,0.92277 c 0.76962,0.120449 1.41578,0.103109 1.93755,-0.05343 0.52178,-0.159818 0.92009,-0.399778 1.19402,-0.71932 0.29671,-0.351973 0.44875,-0.737832 0.45531,-1.155232 0.007,-0.417587 -0.13287,-0.799087 -0.41656,-1.148014 -0.21849,-0.267613 -0.52416,-0.480437 -0.91549,-0.636974 -0.39134,-0.155599 -0.86561,-0.222151 -1.42652,-0.203404 l 0.063,-2.392857 2.15795,-0.0094 z m -19.68065,0.169659 -0.01,0.956656 2.11435,0.01406 -1.69051,6.219525 0.92276,0.249334 1.85278,-6.810475 -0.45775,-0.603041 z m 57.35385,0.382438 h 0.005 0.0122 0.005 c 0.25336,0.02343 0.48116,0.23996 0.6854,0.651502 0.26523,0.527163 0.3972,1.181712 0.3972,1.964162 v 0.116231 0.02343 c -0.03,0.838831 -0.19018,1.533358 -0.48196,2.08044 -0.24535,0.463986 -0.5001,0.695089 -0.76533,0.695089 h -0.01 c -0.002,-1.41e-4 -0.003,1.4e-4 -0.005,0 h -0.005 c -0.24835,-0.02343 -0.4767,-0.242304 -0.68299,-0.651503 -0.26522,-0.527163 -0.3972,-1.181712 -0.3972,-1.964208 v -0.113888 -0.02343 c 0.03,-0.838878 0.19019,-1.530968 0.48197,-2.07805 0.24385,-0.461174 0.49702,-0.69462 0.76048,-0.697479 z m -73.87871,1.085024 -1.33932,1.562135 0.7072,0.607915 0.49892,-0.576421 -0.0921,5.718186 0.93729,0.01406 0.10896,-7.013926 z m 3.58205,0.126073 c -0.31612,0 -0.60868,0.105452 -0.87917,0.317292 -0.27047,0.20856 -0.50597,0.498809 -0.70478,0.867092 -0.34869,0.661579 -0.54058,1.482179 -0.57642,2.463111 l -0.005,0.155131 c 0,0.909226 0.16493,1.693363 0.49408,2.351708 0.17922,0.355254 0.39485,0.633411 0.64908,0.83555 0.25421,0.202467 0.53807,0.310261 0.84768,0.319635 h 0.0145 0.005 0.002 v 0.0024 h -0.002 v 0.0024 h 0.01 c 0.31612,0 0.60868,-0.10592 0.87916,-0.314948 0.27048,-0.21184 0.50598,-0.501199 0.70479,-0.869482 0.34874,-0.661532 0.54058,-1.482132 0.57642,-2.463112 l 0.005,-0.157474 c 0,-0.909272 -0.16493,-1.693362 -0.49408,-2.351707 -0.17922,-0.355254 -0.39729,-0.633412 -0.65149,-0.835551 -0.25421,-0.202466 -0.53566,-0.307918 -0.84526,-0.317291 h -0.0145 -0.01 v -0.0047 z m -0.005,0.93969 h 0.005 0.0145 c 0.24886,0.02343 0.47507,0.234805 0.67572,0.639411 0.26072,0.518164 0.38993,1.161137 0.38993,1.930276 v 0.113888 0.02343 c -0.0295,0.824537 -0.18789,1.506362 -0.4747,2.044118 -0.24103,0.456019 -0.49023,0.685153 -0.7508,0.685387 h -0.002 -0.007 c -0.24769,-0.01875 -0.47525,-0.234336 -0.68056,-0.641801 -0.26072,-0.518211 -0.38994,-1.161184 -0.38994,-1.930276 v -0.111544 -0.02343 c 0.0295,-0.824537 0.1855,-1.506409 0.47228,-2.044118 0.23968,-0.453206 0.48942,-0.680138 0.74838,-0.682997 z m 91.83493,2.252396 c -0.14932,0.0047 -0.30613,0.01875 -0.46745,0.04218 l 0.14533,0.920333 c 0.44089,-0.0614 0.81258,-0.03749 1.1141,0.07733 0.30149,0.113419 0.52818,0.284016 0.68056,0.510995 0.12644,0.181376 0.20415,0.382437 0.23007,0.603088 0.0225,0.220276 -0.008,0.43446 -0.0921,0.641801 -0.107,0.259176 -0.30487,0.47964 -0.59337,0.661204 -0.1945,0.126542 -0.43643,0.216058 -0.72174,0.271362 v 0.0024 c -0.15883,0.0094 -0.32226,0.02343 -0.49407,0.04218 l 0.1017,0.944517 h 0.0145 v 0.0047 c 0.1167,-0.0094 0.23044,-0.02343 0.34391,-0.03749 0.44411,-0.03281 0.80942,-0.02812 1.09472,0.01406 0.35661,0.05858 0.60412,0.158412 0.74353,0.298076 0.0745,0.07171 0.10657,0.146695 0.0969,0.227775 -0.0164,0.126542 -0.0947,0.261988 -0.23733,0.404465 -0.22694,0.239961 -0.56339,0.426493 -1.00753,0.559455 -0.44416,0.129822 -0.96802,0.157006 -1.57426,0.08249 l -0.1211,0.937299 c 0.76833,0.09373 1.44201,0.04921 2.02231,-0.135447 0.5803,-0.184657 1.02729,-0.441958 1.34176,-0.772607 0.29174,-0.301357 0.4592,-0.625116 0.50134,-0.968747 0.0486,-0.388999 -0.082,-0.735114 -0.38994,-1.036611 -0.17833,-0.172003 -0.43062,-0.306044 -0.75807,-0.406809 0.21719,-0.216995 0.38141,-0.46258 0.49166,-0.731411 0.14913,-0.359941 0.20199,-0.724334 0.15986,-1.097116 -0.0389,-0.375876 -0.16703,-0.723772 -0.3875,-1.041439 -0.24638,-0.363221 -0.59885,-0.637817 -1.05596,-0.825895 -0.3404,-0.141071 -0.73391,-0.204811 -1.1819,-0.188876 z m -116.57258,0.590949 c -0.30416,0.01875 -0.59778,0.113419 -0.88158,0.278392 -0.32245,0.19075 -0.57933,0.472563 -0.77017,0.847689 -0.18757,0.374939 -0.25609,0.841409 -0.20345,1.397443 l 0.9397,-0.08952 c -0.0295,-0.345412 0.003,-0.629522 0.10171,-0.850079 0.10203,-0.223557 0.24375,-0.388999 0.42143,-0.494075 0.19745,-0.111076 0.39818,-0.157006 0.60548,-0.138259 0.19084,0.01875 0.35122,0.09467 0.47954,0.232462 0.11206,0.118106 0.1751,0.291046 0.19131,0.518306 0.0197,0.226837 -0.0323,0.508744 -0.15742,0.847688 -0.21058,0.53635 -0.49543,1.059389 -0.85737,1.569399 -0.36196,0.506682 -0.74571,1.003382 -1.15042,1.487053 -0.2731,0.335569 -0.52687,0.653939 -0.76049,0.956702 l 0.37054,0.760469 2.92569,0.04827 0.0145,-0.942173 -1.97388,-0.03749 c 0.0526,-0.06561 0.1048,-0.128885 0.15743,-0.191219 0.42448,-0.513337 0.83239,-1.042563 1.22065,-1.588801 0.38825,-0.549473 0.70193,-1.127815 0.94214,-1.736528 0.19084,-0.529788 0.25936,-0.989837 0.20345,-1.378086 -0.0559,-0.391811 -0.19769,-0.708399 -0.42143,-0.951781 -0.29944,-0.316354 -0.66213,-0.4952 -1.08987,-0.537709 -0.10363,-0.0094 -0.20622,-0.01406 -0.30759,-0.0094 z m 4.29168,0.05577 c -0.31917,0 -0.61574,0.10592 -0.88886,0.319635 -0.27314,0.210434 -0.51136,0.502558 -0.71204,0.874309 -0.35207,0.667953 -0.54509,1.496942 -0.58127,2.487342 l -0.005,0.157474 c 0,0.91799 0.16657,1.708875 0.49892,2.373501 0.18096,0.359003 0.39969,0.641519 0.65634,0.845251 0.25665,0.20481 0.53994,0.310262 0.85253,0.319635 h 0.0145 0.005 0.005 v 0.0024 0.0024 h 0.005 c 0.31917,0 0.61575,-0.104515 0.88886,-0.314949 0.27309,-0.213715 0.51133,-0.507338 0.71205,-0.879183 0.35206,-0.667953 0.54508,-1.496942 0.58126,-2.487295 l 0.005,-0.159818 c 0,-0.917989 -0.16662,-1.708875 -0.49892,-2.3735 -0.18096,-0.359004 -0.39969,-0.63913 -0.65635,-0.842815 -0.25664,-0.204342 -0.53993,-0.312605 -0.85252,-0.321978 h -0.0145 -0.0122 v -0.0024 z m -0.005,0.946953 h 0.002 0.002 0.01 0.005 0.002 c 0.24994,0.02343 0.4764,0.239961 0.67814,0.646675 0.26325,0.52318 0.39476,1.173136 0.39476,1.94968 v 0.113888 0.02343 c -0.0295,0.832457 -0.19,1.518173 -0.47954,2.061084 -0.24348,0.460705 -0.49725,0.692652 -0.76049,0.692652 h -0.01 c -0.25009,-0.01875 -0.47813,-0.235274 -0.68541,-0.646628 -0.26325,-0.52318 -0.39476,-1.173136 -0.39476,-1.94968 v -0.113888 -0.02343 c 0.0295,-0.832458 0.19,-1.51822 0.47954,-2.061084 0.24273,-0.459299 0.49329,-0.691246 0.75565,-0.692699 z m 66.81392,2.988681 -1.19401,0.05109 -0.73385,11.458212 c -1.42067,-0.01406 -2.84544,-0.02343 -4.27471,-0.02343 -0.66624,0 -1.33127,0.0016 -1.99568,0.0047 l -0.33665,-11.387958 -1.22307,-0.05577 0.37053,11.450901 c -1.48787,0.0094 -2.97097,0.03281 -4.4491,0.05812 l -1.44831,-11.380647 -1.18675,0.07968 1.34175,11.327405 c -1.70162,0.03749 -3.39585,0.08296 -5.08364,0.140602 l -2.296,-11.322578 -1.25698,0.205748 2.26693,11.162713 c -1.52941,0.05671 -3.05293,0.122324 -4.57019,0.196374 h -0.002 l -3.19938,-11.007676 -1.29816,0.283547 3.13883,10.792134 c -4.14321,0.215589 -8.23851,0.495153 -12.28163,0.83316 l -5.3113,-10.562063 -1.28605,0.729021 5.01098,9.968676 c -5.25179,0.461174 -10.41448,1.024378 -15.47132,1.683239 h -0.002 l -7.40628,-9.547245 -1.01237,1.009944 6.79111,8.752844 c -3.49119,0.471297 -6.93162,0.988337 -10.31745,1.550042 l 1.00027,1.039001 c 19.02864,-3.111051 39.78654,-4.824473 61.51472,-4.824473 20.14072,0 39.44637,1.472945 57.3151,4.165706 l 0.82345,-1.075323 c -4.75143,-0.724756 -9.60544,-1.363511 -14.54856,-1.910921 l 2.71257,-4.245615 h 0.002 c 5.07794,0.54816 10.05993,1.193007 14.93607,1.92784 l 0.82346,-1.075324 c -4.91208,-0.749314 -9.93339,-1.407097 -15.04991,-1.966645 l 2.40256,-3.758805 -0.99057,-0.993024 -2.93054,4.589574 h -0.002 c -1.77516,-0.186532 -3.56242,-0.362284 -5.35974,-0.52557 l 2.39287,-4.524148 -1.23761,-0.750814 -2.71499,5.136938 c -1.73649,-0.150444 -3.48279,-0.288703 -5.23865,-0.41665 l 2.12162,-4.834175 -1.31027,-0.65633 -2.36138,5.379101 c -1.79432,-0.12373 -3.59983,-0.234337 -5.41303,-0.334164 l 1.67598,-5.093351 -1.33448,-0.847642 -3.70799,11.27407 h -0.002 c -1.48872,-0.08436 -2.98448,-0.159817 -4.48542,-0.227775 l 2.80944,-11.455775 -1.48706,-0.01406 -2.90633,11.40005 c -1.6924,-0.06983 -3.39126,-0.130291 -5.09817,-0.179033 l 1.64691,-11.082758 -1.38292,-0.273705 -1.57426,11.320141 c -1.65297,-0.04218 -3.31143,-0.07452 -4.97708,-0.09702 z m 19.78721,7.95849 c 1.77272,0.09655 3.53485,0.205279 5.28951,0.324791 l -1.87216,4.262581 c -1.59981,-0.1167 -3.2069,-0.221682 -4.82207,-0.319635 z m 6.84197,0.433523 c 1.72343,0.124198 3.43701,0.258707 5.14177,0.404465 l -2.25483,4.262628 c -1.57892,-0.141539 -3.16633,-0.274643 -4.76152,-0.397435 z m 6.70149,0.540099 h 0.002 c 1.75903,0.157474 3.50815,0.328071 5.24592,0.508604 l -2.71015,4.240788 c -1.58944,-0.169191 -3.18806,-0.329009 -4.79543,-0.479547 z m -39.53324,71.233945 a 0.62001533,0.62001533 0 0 0 -0.62002,0.62001 0.62001533,0.62001533 0 0 0 0.62002,0.62001 0.62001533,0.62001533 0 0 0 0.62001,-0.62001 0.62001533,0.62001533 0 0 0 -0.62001,-0.62001 z" /><path
   style="fill:#ff6e6e;fill-opacity:1;stroke-width:4.68673"
   d="m 309.38766,63.810617 c -2.39031,0 -4.34011,1.94982 -4.34011,4.340146 0,2.390279 1.9498,4.349239 4.34011,4.349239 2.3903,0 4.3401,-1.95896 4.3401,-4.349239 0,-2.390326 -1.9498,-4.340146 -4.3401,-4.340146 z m 0,1.245264 c 0.22356,0 0.19304,0.358535 0.40287,0.40259 -0.68665,0.274642 -1.42838,0.639645 -1.42839,1.419189 -3e-5,1.020301 0.84766,1.858757 1.86789,1.858804 0.779,-4.7e-5 1.14401,-0.733427 1.41924,-1.419283 0.18124,0.394623 0.84238,0.368377 0.84238,0.833254 0,1.719936 -1.38405,3.103975 -3.104,3.103975 -1.71995,0 -3.104,-1.384039 -3.104,-3.103975 0,-1.719983 1.38405,-3.094882 3.104,-3.094882 z m 0.84238,1.199522 c 0.34986,0 0.61347,0.272767 0.61348,0.622585 10e-6,0.34963 -0.26363,0.622632 -0.61348,0.622632 -0.34987,0 -0.62264,-0.272768 -0.62263,-0.622632 0,-0.34963 0.27277,-0.622585 0.62263,-0.622585 z"
   id="path6" /><path
   id="label_right"
   style="fill:#bfff6a;fill-opacity:1;stroke-width:4.68673"
   d="m 170.0867,95.404753 v 1.290889 h 0.64908 142.51392 0.64181 V 95.404753 H 313.2497 170.73578 Z m 61.11026,3.451256 -0.0365,0.576421 c -0.007,0.100343 -0.01,0.192531 -0.01,0.293062 v 0.007 c 0,1.735548 1.00392,3.274698 2.52607,4.340108 1.52215,1.06541 3.57732,1.69306 5.83202,1.69293 2.25471,1.3e-4 4.30745,-0.62752 5.8296,-1.69293 1.52215,-1.06541 2.52608,-2.60456 2.52608,-4.340108 v -0.007 c 0,-0.100531 4.3e-4,-0.192719 -0.007,-0.293062 l -0.0389,-0.576421 z m -55.56887,0.915492 c -0.64542,0 -1.14788,0.208935 -1.50645,0.627279 -0.35858,0.41234 -0.53767,0.96581 -0.53767,1.65903 0,0.58565 0.16169,1.10183 0.48439,1.55003 0.32268,0.44224 0.82146,0.66362 1.49675,0.66362 0.95018,0 1.55834,-0.46521 1.8213,-1.39746 l -0.85252,-0.27853 c -0.14341,0.61553 -0.46806,0.92275 -0.97604,0.92275 -0.71116,0 -1.06808,-0.50747 -1.06808,-1.52339 0,-0.98008 0.36191,-1.47012 1.08503,-1.47012 0.50199,0 0.80921,0.24254 0.92276,0.72658 l 0.86948,-0.20584 c -0.23903,-0.84861 -0.81864,-1.273935 -1.73895,-1.273935 z m 106.63537,0 v 5.807799 h 1.11167 v -2.10224 c 0,-0.90039 0.30678,-1.35144 0.92032,-1.35144 0.27891,0 0.46216,0.0846 0.54978,0.25187 0.0956,0.16731 0.1429,0.4924 0.1429,0.97846 v 2.22333 h 1.11167 v -2.47279 c 0,-0.60557 -0.10287,-1.06076 -0.31003,-1.36355 -0.20715,-0.31078 -0.58193,-0.46502 -1.12378,-0.46502 -0.49401,0 -0.92435,0.20983 -1.29088,0.63213 v -2.138568 z m -104.31275,0.08961 v 4.357059 h 0.87916 v -1.64207 h 0.57158 c 0.53187,0 0.90993,-0.0398 1.13104,-0.12349 0.22708,-0.0897 0.40991,-0.23893 0.54736,-0.44806 0.13747,-0.21512 0.20584,-0.48622 0.20584,-0.80892 0,-0.35854 -0.0896,-0.64835 -0.26883,-0.86947 -0.17332,-0.22708 -0.37353,-0.360225 -0.60064,-0.402031 -0.22112,-0.04171 -0.57433,-0.06299 -1.05839,-0.06299 z m 119.68476,0.0047 -1.12377,0.646649 v 0.83557 h -0.51345 v 0.88643 h 0.51345 v 1.84067 c 0,0.58963 0.0638,0.99926 0.19131,1.23035 0.13545,0.2311 0.43394,0.34635 0.89612,0.34635 0.32666,0 0.62104,-0.0556 0.884,-0.16713 l -0.0969,-0.85979 c -0.19923,0.0717 -0.3494,0.10657 -0.45288,0.10657 -0.1195,0 -0.19994,-0.0473 -0.23977,-0.1429 -0.0398,-0.0956 -0.0581,-0.31612 -0.0581,-0.65876 v -1.69536 h 0.7508 v -0.88627 h -0.7508 z m -65.02895,0.225239 h 13.80503 c -0.13765,1.10256 -0.64377,2.16569 -1.78497,2.96445 -1.27938,0.89549 -3.09741,1.47508 -5.11755,1.47496 -2.02013,1.2e-4 -3.83816,-0.57947 -5.11754,-1.47496 -1.1412,-0.79876 -1.64733,-1.86189 -1.78497,-2.96445 z m 73.04798,0.24221 c -0.88446,0 -1.49804,0.26368 -1.84067,0.78955 -0.15935,0.26298 -0.23977,0.48521 -0.23977,0.66846 0,0.35858 0.27609,0.71263 0.82588,1.06323 -0.71713,0.31073 -1.07534,0.75766 -1.07534,1.33933 0,0.27089 0.0739,0.53456 0.22524,0.78955 0.20716,0.29484 0.49154,0.52121 0.8501,0.68056 0.36655,0.15935 0.80101,0.23977 1.303,0.23977 1.05976,0 1.79689,-0.30679 2.21123,-0.92033 0.24704,-0.247 0.37053,-0.5438 0.37053,-0.88643 0,-0.29479 -0.10109,-0.5519 -0.30032,-0.77502 -0.19122,-0.2311 -0.47318,-0.38773 -0.84768,-0.46741 0.27891,-0.0797 0.50114,-0.21568 0.66846,-0.4069 0.16731,-0.19919 0.25186,-0.41731 0.25186,-0.65634 0,-0.2948 -0.13596,-0.58504 -0.4069,-0.8719 -0.20715,-0.2072 -0.47497,-0.35558 -0.80166,-0.44322 -0.32671,-0.0956 -0.7239,-0.1429 -1.19402,-0.1429 z m 5.62857,0 c -0.88445,0 -1.49804,0.26368 -1.84067,0.78955 -0.15934,0.26298 -0.23733,0.48521 -0.23733,0.66846 0,0.35858 0.27367,0.71263 0.82345,1.06323 -0.71712,0.31073 -1.07534,0.75766 -1.07534,1.33933 0,0.27089 0.0763,0.53456 0.2277,0.78955 0.20714,0.29484 0.4891,0.52121 0.84766,0.68056 0.36655,0.15935 0.80102,0.23977 1.30301,0.23977 1.05975,0 1.79688,-0.30679 2.21122,-0.92033 0.24704,-0.247 0.37053,-0.5438 0.37053,-0.88643 0,-0.29479 -0.0987,-0.5519 -0.29789,-0.77502 -0.19122,-0.2311 -0.4756,-0.38773 -0.8501,-0.46741 0.27891,-0.0797 0.50357,-0.21568 0.67088,-0.4069 0.16733,-0.19919 0.24948,-0.41731 0.24948,-0.65634 0,-0.2948 -0.13596,-0.58504 -0.4069,-0.8719 -0.20716,-0.2072 -0.47254,-0.35558 -0.79924,-0.44322 -0.32672,-0.0956 -0.72632,-0.1429 -1.19644,-0.1429 z m -132.4532,0.26157 h 0.4287 c 0.46014,0 0.76238,0.0459 0.9058,0.13563 0.14342,0.0897 0.21554,0.25135 0.21554,0.48439 0,0.23902 -0.0808,0.40203 -0.24221,0.49165 -0.16136,0.0837 -0.43741,0.12594 -0.82588,0.12594 h -0.48196 z m -6.94853,0.11867 c -0.43028,0 -0.75864,0.17912 -0.98573,0.53767 v -0.46746 h -0.77986 v 4.35706 h 0.83315 v -1.59605 c 0.28687,0.31078 0.59407,0.46745 0.92275,0.46745 0.40639,0 0.72603,-0.15794 0.95909,-0.4747 0.23902,-0.31673 0.36088,-0.71593 0.36088,-1.19401 0,-0.44819 -0.11441,-0.83127 -0.34148,-1.148 -0.22707,-0.32273 -0.55045,-0.48196 -0.96877,-0.48196 z m 134.03473,0.40929 c 0.16736,0 0.31575,0.0225 0.44322,0.0702 0.1355,0.0398 0.24657,0.0913 0.33422,0.15499 0.11951,0.11159 0.17922,0.24339 0.17922,0.39477 0,0.27094 -0.14182,0.48316 -0.4287,0.63454 -0.11956,0.0875 -0.23307,0.14304 -0.33665,0.16713 -0.10362,0.0159 -0.22721,0.0244 -0.37053,0.0244 -0.27891,0 -0.497,-0.0721 -0.65634,-0.21554 -0.19924,-0.17528 -0.29789,-0.35854 -0.29789,-0.54978 0,-0.2072 0.0987,-0.37386 0.29789,-0.50134 0.11955,-0.0716 0.24305,-0.11885 0.37053,-0.1429 0.12752,-0.0239 0.28177,-0.0366 0.46502,-0.0366 z m 5.631,0 c 0.16736,0 0.31331,0.0225 0.44079,0.0702 0.13549,0.0398 0.249,0.0913 0.33664,0.15499 0.11952,0.11159 0.17922,0.24339 0.17922,0.39477 0,0.27094 -0.14425,0.48316 -0.43113,0.63454 -0.11956,0.0875 -0.23063,0.14304 -0.33421,0.16713 -0.10362,0.0159 -0.22721,0.0244 -0.37053,0.0244 -0.27891,0 -0.49942,-0.0721 -0.65877,-0.21554 -0.19923,-0.17528 -0.29789,-0.35854 -0.29789,-0.54978 0,-0.2072 0.0987,-0.37386 0.29789,-0.50134 0.11956,-0.0716 0.2431,-0.11885 0.37053,-0.1429 0.12748,-0.0239 0.28421,-0.0366 0.46746,-0.0366 z m -32.03251,0.13076 c -1.17928,0 -1.76802,0.43033 -1.76802,1.29089 0,0.3187 0.11113,0.58823 0.33421,0.81135 0.22309,0.22309 0.84913,0.4519 1.87701,0.68298 0.30281,0.0638 0.45288,0.18316 0.45288,0.35845 0,0.30281 -0.26537,0.45287 -0.79925,0.45287 -0.50199,0 -0.80464,-0.22224 -0.90822,-0.66845 l -1.11167,0.17922 c 0.22309,0.86055 0.8964,1.29089 2.01989,1.29089 0.5259,0 0.97452,-0.11937 1.34902,-0.35844 0.37452,-0.23902 0.56189,-0.58897 0.56189,-1.05112 0,-0.35858 -0.11525,-0.63052 -0.34635,-0.81377 -0.22309,-0.19126 -0.62445,-0.34963 -1.20612,-0.47712 -0.78884,-0.17533 -1.18433,-0.35854 -1.18433,-0.54978 0,-0.2311 0.25126,-0.34635 0.75322,-0.34635 0.43827,0 0.70191,0.16671 0.78956,0.50135 l 1.05111,-0.19132 c -0.21512,-0.74102 -0.837,-1.11167 -1.86489,-1.11167 z m 21.1556,0 c -0.58964,0 -1.05897,0.20809 -1.40957,0.62244 -0.3426,0.41435 -0.51345,0.95166 -0.51345,1.61301 0,0.60557 0.15841,1.11804 0.47712,1.54035 0.3187,0.41435 0.83948,0.62243 1.56457,0.62243 0.92429,0 1.53375,-0.41379 1.82857,-1.24245 l -1.10925,-0.19131 c -0.11154,0.40638 -0.34865,0.6079 -0.7072,0.6079 -0.57371,0 -0.8805,-0.34991 -0.92033,-1.05112 h 2.79733 c 0,-1.68126 -0.66915,-2.52123 -2.00779,-2.52123 z m -6.58524,0.0244 c -0.55777,0 -1.02296,0.23879 -1.39746,0.71689 v -0.62243 h -1.02932 v 4.20689 h 1.11167 v -1.89879 c 0,-0.74901 0.0928,-1.19591 0.27609,-1.33933 0.18325,-0.14341 0.3972,-0.21554 0.64423,-0.21554 0.27891,0 0.46216,0.097 0.54979,0.28819 0.0956,0.18325 0.14289,0.52077 0.14289,1.01479 v 2.15068 h 1.11167 v -2.61569 c 0,-1.1235 -0.46933,-1.68567 -1.40956,-1.68567 z m -7.14714,0.0702 v 2.66656 c 0,1.09162 0.46521,1.63722 1.39746,1.63722 0.59761,0 1.06522,-0.24296 1.39988,-0.729 v 0.63455 h 1.0269 v -4.20931 h -1.11167 v 1.77043 c 0,0.69321 -0.0638,1.14598 -0.19131,1.36113 -0.11951,0.21517 -0.35835,0.32455 -0.71688,0.32455 -0.27891,0 -0.4663,-0.10109 -0.5619,-0.30032 -0.0876,-0.20715 -0.13076,-0.61266 -0.13076,-1.21823 v -1.93756 z m -115.28894,0.0291 c 0.46014,0 0.69025,0.32465 0.69025,0.97604 0,0.66334 -0.22511,0.99542 -0.6733,0.99542 -0.48406,0 -0.72416,-0.34822 -0.72416,-1.04143 0,-0.62151 0.23509,-0.93003 0.70721,-0.93003 z m 129.09398,0.72416 c 0.5337,0 0.81151,0.33164 0.83556,0.99299 h -1.66145 c 0,-0.66134 0.2761,-0.99299 0.82589,-0.99299 z m 5.05457,1.17222 c 0.35858,0 0.62638,0.10695 0.80166,0.32212 0.11952,0.13544 0.17922,0.30211 0.17922,0.50134 0,0.31875 -0.0887,0.5434 -0.264,0.67088 -0.20715,0.17528 -0.47255,0.26156 -0.79924,0.26156 -0.31077,0 -0.57028,-0.10287 -0.77744,-0.31003 -0.11951,-0.11951 -0.17922,-0.31105 -0.17922,-0.57399 0,-0.26298 0.0904,-0.47278 0.27371,-0.63213 0.18325,-0.15935 0.43863,-0.23977 0.76533,-0.23977 z m 5.631,0 c 0.35858,0 0.62396,0.10695 0.79924,0.32212 0.11951,0.13544 0.17922,0.30211 0.17922,0.50134 0,0.31875 -0.0863,0.5434 -0.26157,0.67088 -0.20715,0.17528 -0.47496,0.26156 -0.80166,0.26156 -0.31077,0 -0.57028,-0.10287 -0.77744,-0.31003 -0.11951,-0.11951 -0.17922,-0.31105 -0.17922,-0.57399 0,-0.26298 0.0928,-0.47278 0.2761,-0.63213 0.18325,-0.15935 0.43863,-0.23977 0.76533,-0.23977 z" /><path
   id="path2"
   style="fill:#ff6e6e;fill-opacity:1;stroke-width:4.68673"
   d="m 293.4586,48.428905 c -0.14932,0.0047 -0.30614,0.01781 -0.46745,0.04124 l 0.14533,0.920338 c 0.44088,-0.0614 0.81258,-0.03749 1.11409,0.07752 0.3015,0.113419 0.52818,0.284063 0.68056,0.511027 0.12645,0.181377 0.20416,0.382437 0.23008,0.603065 0.0225,0.220276 -0.008,0.43446 -0.092,0.64181 -0.107,0.259176 -0.30487,0.479626 -0.59337,0.66119 -0.1945,0.126542 -0.43643,0.215964 -0.72174,0.271268 v 0.0024 c -0.15884,0.0094 -0.32226,0.02484 -0.49408,0.04359 l 0.1017,0.944555 h 0.0145 v 0.0047 c 0.1167,-0.0094 0.23045,-0.02484 0.34392,-0.0389 0.44411,-0.03281 0.80941,-0.02765 1.09471,0.01453 0.35662,0.05858 0.60412,0.158224 0.74353,0.297889 0.0745,0.07171 0.10658,0.146601 0.0969,0.227681 -0.0164,0.126542 -0.0947,0.261989 -0.23734,0.404465 -0.22693,0.239961 -0.56338,0.426493 -1.00752,0.559469 -0.44416,0.129823 -0.96802,0.156865 -1.57426,0.08235 l -0.12111,0.93729 c 0.76834,0.09373 1.44202,0.04902 2.02232,-0.135634 0.5803,-0.184657 1.02728,-0.441959 1.34175,-0.772598 0.29175,-0.301357 0.45921,-0.625144 0.50134,-0.968776 0.0486,-0.388998 -0.082,-0.73509 -0.38993,-1.036587 -0.17833,-0.172003 -0.43062,-0.306137 -0.75807,-0.406902 0.21718,-0.216996 0.38141,-0.46258 0.49165,-0.731425 0.14914,-0.359941 0.202,-0.724353 0.15987,-1.097136 -0.0389,-0.375875 -0.16704,-0.723766 -0.3875,-1.041433 -0.24638,-0.363221 -0.59885,-0.637798 -1.05596,-0.825877 -0.3404,-0.14107 -0.73392,-0.204857 -1.18191,-0.188922 z m -17.52755,6.333361 -2.36138,5.379115 c -1.66747,-0.114966 -3.34396,-0.218215 -5.02794,-0.312418 l -0.39233,1.160106 c 1.64652,0.09134 3.28302,0.194078 4.91411,0.305153 l -1.87216,4.262605 c -1.48832,-0.108545 -2.98385,-0.208278 -4.48542,-0.300326 l -0.39237,1.157684 c 11.34179,0.689155 22.31035,1.848432 32.78573,3.427035 l 0.82346,-1.075337 c -4.75143,-0.724756 -9.60544,-1.363496 -14.54857,-1.910907 l 2.71257,-4.245652 h 0.002 c 5.07795,0.54816 10.05994,1.19303 14.93608,1.927863 l 0.82346,-1.075342 c -4.91208,-0.749315 -9.9334,-1.40706 -15.04991,-1.966609 l 2.40256,-3.758845 -0.99057,-0.992992 -2.93054,4.589564 h -0.002 c -1.77515,-0.186532 -3.56242,-0.362284 -5.35974,-0.525556 l 2.39287,-4.524175 -1.23761,-0.7508 -2.71499,5.136923 c -1.73649,-0.150444 -3.48279,-0.288609 -5.23864,-0.416557 l 2.12161,-4.834183 z m -1.31511,6.640946 c 1.72344,0.124199 3.43702,0.258708 5.14177,0.404465 l -2.25482,4.262605 c -1.57892,-0.141539 -3.16633,-0.274408 -4.76152,-0.397201 z m 6.7015,0.54009 h 0.002 c 1.75903,0.157474 3.50815,0.328071 5.24591,0.508608 l -2.71014,4.240807 c -1.58944,-0.169191 -3.18806,-0.329008 -4.79543,-0.479541 z" /><ellipse
   style="fill:#ff6e6e;stroke-width:4.68673;fill-opacity:{{overflow_right}}"
   id="LED_RIGHT"
   cx="309.19232"
   cy="68.097542"
   rx="3.2210627"
   ry="3.2926419" />
<path
   style="fill:#b3eaff;fill-opacity:1;stroke:#ffffff;stroke-width:0.5;stroke-dasharray:none;stroke-opacity:1"
   d="m 227.45332,148.66241 -2.18565,-2.72088 c -1.42734,2.63169 -2.6763,3.6576 -4.41588,3.6576 -2.09643,0 -4.10366,-2.23023 -5.93244,-6.64614 -1.15971,-2.76549 -2.5425,-6.91377 -4.3713,-12.71241 2.54248,-0.80283 3.56838,-1.29354 4.95115,-2.18565 2.09642,-1.42737 3.30078,-3.47919 3.30078,-5.62023 0,-2.76549 -2.23026,-4.28208 -6.28932,-4.28208 l -2.58708,0.0885 0.35685,-1.42737 -4.05906,1.91805 c -7.31523,1.24896 -11.19585,4.6389 -11.19585,9.85767 0,1.15968 0.1335,1.91802 0.62442,3.56841 l 3.74682,-1.91802 c -0.35685,-1.51656 -0.49071,-2.27484 -0.49071,-3.30078 0,-2.14104 0.66912,-3.83601 2.05185,-5.12955 1.24896,-1.1151 2.49786,-1.60578 5.3526,-1.96263 l -0.40143,1.60578 -0.75828,3.12234 -2.23024,8.83179 c -1.87341,7.53825 -3.07773,8.69796 -8.87639,8.65338 l -1.73958,1.9626 2.63169,0.045 c 2.31944,0 6.3339,-0.0885 7.67205,-0.1785 l 3.30078,-1.69497 -5.88786,-0.1335 c 5.04036,-5.04036 5.30799,-5.44182 6.73536,-11.10663 l 0.0885,-0.045 c 0.49071,-0.045 0.75828,0.35685 1.02597,1.47195 1.695,7.44903 3.16695,11.6865 4.99578,14.40741 1.91799,2.85474 4.54971,4.23747 8.07348,4.23747 2.49789,0 4.01445,-0.53526 6.51231,-2.36406 z m -12.53397,-25.69245 c 0,2.23026 -1.20441,4.3713 -3.07776,5.53101 -1.33812,0.80286 -2.40867,1.11513 -4.81734,1.42737 l 2.58708,-10.43757 h 1.38282 c 2.76549,0 3.92523,1.02597 3.92523,3.47919 z m 17.35785,17.08371 0.1785,-1.33812 c -2.18565,1.33812 -4.3713,2.45328 -4.77273,2.45328 -0.49071,0 -0.84756,-0.53529 -0.84756,-1.24899 0,-1.60575 0.53526,-3.30075 0.93669,-4.99575 l 1.38282,-5.66484 c 0.2229,-0.93669 0.57984,-2.36403 0.57984,-2.89932 0,-0.35685 -0.1335,-0.57984 -0.53526,-0.57984 -1.02597,0 -5.66484,3.03315 -7.00299,3.92526 l -0.045,1.29351 c 1.026,-0.57984 2.63169,-1.65036 3.25617,-1.65036 0.49071,0 0.53526,0.49068 0.53526,0.89211 0,0.98127 -0.98124,4.28208 -1.47195,6.3339 -0.49071,2.05182 -1.29354,4.14825 -1.29354,6.15549 0,1.15968 0.44598,1.87341 1.15968,1.87341 0.75825,0 1.56117,-0.40143 4.14825,-2.09643 0.7137,-0.49071 1.07055,-0.75828 3.79143,-2.45328 z m 0.31227,-20.6967 c -0.80282,-1.29354 -0.84753,-1.42737 -1.29354,-2.45328 -0.045,-0.1785 -0.1335,-0.40143 -0.2229,-0.57984 -0.2676,0.2229 -0.44598,0.35685 -0.62439,0.49071 -1.20441,1.02597 -1.29354,1.07052 -2.45328,1.87341 0.35685,1.07052 0.66913,1.60578 1.695,3.12234 l 1.47195,-1.33809 c 0.2676,-0.1785 0.40143,-0.3123 1.42737,-1.11513 z m 19.27587,6.42312 -5.17419,0.0885 c -2.72091,0.045 -3.47919,0.1785 -4.81734,0.98124 -2.14104,1.33812 -3.6576,2.58711 -4.59429,3.79143 -1.33812,1.73958 -2.94396,7.13679 -2.94396,9.8577 0,1.11513 0.2676,1.91802 0.98127,2.89932 l -5.12958,4.41591 c -2.23023,1.9626 -3.25614,3.43458 -3.25614,4.68351 0,1.65039 1.9626,2.58708 5.3526,2.58708 4.10364,0 7.3152,-1.15968 10.30374,-3.74682 1.91799,-1.65036 2.36406,-2.58708 3.30075,-7.00296 l 2.23026,-10.03614 c 0.1785,-0.98124 0.4014,-1.8288 0.57984,-2.54247 l 0.66912,-2.49789 c 0.0885,-0.4014 0.1785,-0.7137 0.2229,-0.98124 0.80283,-0.2229 0.84756,-0.2229 2.27484,-2.49789 z m -9.59007,20.74131 c -0.57984,2.6763 -0.98127,3.70218 -1.78419,4.54971 -0.98127,1.1151 -2.81013,1.69497 -5.44182,1.69497 -2.89932,0 -4.46049,-0.80283 -4.46049,-2.23026 0,-1.8288 1.20438,-2.9439 13.60449,-12.44478 z m 6.64614,-18.28806 c -0.2229,0.1785 -0.49071,0.40143 -0.7137,0.53529 -1.42737,1.02597 -1.73961,1.42734 -2.14104,2.49786 l -1.47195,5.21877 c -0.89214,0.57984 -1.96263,1.38282 -5.70945,4.19286 -0.80283,-0.80283 -1.1151,-1.51656 -1.1151,-2.58708 0,-1.51656 1.07052,-5.39721 2.00721,-7.53822 0.89211,-1.82883 1.8288,-2.27487 5.08497,-2.27487 0.31227,0 0.84753,0 1.42734,-0.045 h 1.20441 c 0.49071,0 0.93669,0 1.42737,0 z m 22.75503,11.4189 0.31227,-1.29354 c -3.7914,2.23026 -4.41588,2.54247 -4.99575,2.54247 -0.4014,0 -0.66912,-0.44598 -0.66912,-1.15968 0,-0.89211 0.2676,-2.18565 1.02597,-5.08497 1.42737,-5.26338 2.14104,-7.98429 2.14104,-8.1627 0,-0.44598 -0.35685,-0.75825 -0.93669,-0.75825 -0.93669,0 -4.01445,1.695 -9.59004,5.30799 l 1.51656,-5.97705 c 1.07052,-4.3713 1.51656,-5.75406 2.09643,-6.86916 0.62439,-1.24899 1.56117,-1.82883 2.76549,-1.82883 0.57984,0 0.93669,0.045 2.6763,0.40143 l 1.9179,-2.72097 c -0.80283,-0.1785 -1.15968,-0.2229 -1.8288,-0.2229 -2.45328,0 -3.74679,0.66912 -7.00296,3.5238 -2.31948,2.05182 -2.67633,2.8101 -4.05906,8.69793 l -4.28208,18.42186 3.16695,-1.29351 2.63169,-10.39299 c 0.44601,-0.31227 0.98127,-0.62442 1.07055,-0.66912 3.07776,-1.96263 4.95117,-2.94393 5.44182,-2.94393 0.31227,0 0.53526,0.31227 0.53526,0.7137 0,0.53526 -0.1785,1.38282 -0.80283,3.79143 -1.38267,5.3526 -1.91802,7.93968 -1.91802,9.144 0,0.53529 0.1785,1.07055 0.66912,1.91802 2.45329,-1.24896 5.66485,-3.30075 8.11812,-5.08497 z m 14.63697,-0.0885 0.0885,-1.11513 c -3.39,2.00724 -4.81734,2.76552 -5.44182,2.76552 -0.57984,0 -1.29351,-1.15968 -1.29351,-2.09643 0,-0.62442 0.75825,-4.05906 1.91802,-8.74257 0.62439,-0.045 1.07052,-0.045 1.29354,-0.045 l 1.78419,-0.045 c 0.1785,0 0.62439,-0.045 1.33809,-0.1335 l 1.695,-1.29354 H 281.986 l 1.78419,-7.22601 c -0.84755,0.44601 -1.20441,0.57984 -1.8734,0.89214 -0.31228,0.1785 -0.66913,0.31227 -1.02597,0.49068 -0.1785,0.0885 -0.40143,0.1785 -0.62442,0.2676 l -1.24896,5.57562 c -0.40143,0.045 -0.66912,0.045 -0.80283,0.045 h -1.07055 c 0,0 -0.31227,0 -0.66912,0.045 -0.49071,0.31227 -0.53529,0.31227 -1.29354,0.93669 -0.13351,0.0885 -0.35685,0.2676 -0.66913,0.49071 h 1.07052 2.05183 0.98126 c -2.36405,9.90231 -2.36405,9.90231 -2.36405,11.28504 0,1.42737 0.93669,2.98854 1.78419,2.98854 0.98127,0 4.01445,-1.87341 8.29653,-5.08497 z"
   id="text12"
   aria-label="Right" /><path
   id="rect12"
   style="fill:#1e5a72;fill-opacity:1;stroke:none;stroke-width:0.340139;stroke-linejoin:round;stroke-dasharray:none;stroke-opacity:1"
   d="m 5,6.1289062 v 0.5 H 159.75 V 163.37109 H 5 v 0.5 h 154.75 0.5 H 315 v -0.5 H 160.25 V 6.6289062 H 315 v -0.5 h -154.75 -0.5 z" /></svg>
