<?xml version="1.0" encoding="UTF-8" standalone="no"?>
<!-- Created with Inkscape (http://www.inkscape.org/) -->

<svg
   width="160"
   height="170"
   viewBox="0 0 160 170.00001"
   version="1.1"
   id="svg1"
   xml:space="preserve"
   sodipodi:docname="vuaioz.svg"
   inkscape:version="1.4.3 (1:1.4.3+202512261035+0d15f75042)"
   inkscape:export-filename="vuaioY.svg"
   inkscape:export-xdpi="90"
   inkscape:export-ydpi="90"
   xmlns:inkscape="http://www.inkscape.org/namespaces/inkscape"
   xmlns:sodipodi="http://sodipodi.sourceforge.net/DTD/sodipodi-0.dtd"
   xmlns="http://www.w3.org/2000/svg"
   xmlns:svg="http://www.w3.org/2000/svg"><defs
   id="defs1" /><sodipodi:namedview
   id="namedview1"
   pagecolor="#ffffff"
   bordercolor="#666666"
   borderopacity="1.0"
   inkscape:showpageshadow="2"
   inkscape:pageopacity="0.0"
   inkscape:pagecheckerboard="0"
   inkscape:deskcolor="#d1d1d1"
   inkscape:zoom="3.747667"
   inkscape:cx="85.119622"
   inkscape:cy="99.128338"
   inkscape:current-layer="svg1" />
<rect
   style="fill:#000000;fill-opacity:1;stroke-width:3;stroke-linejoin:round;stroke-miterlimit:0"
   id="backer"
   width="128"
   height="64"
   x="285.72717"
   y="25.259041" /><g
   id="g17"
   transform="translate(285.72717,25.259041)"><g
     id="g12"
     transform="translate(3.0000004,3.0000005)"><rect
       style="fill:#0000ff;fill-opacity:1;stroke-linejoin:round"
       id="rect8"
       width="60"
       height="60"
       x="-1.7163086e-07"
       y="-4.296875e-07" /><path
       id="NEEDLE_LEFT"
       style="fill:#ffff00;fill-opacity:1;stroke-width:0.999541;stroke-linejoin:round"
       d="M 29.78863,4.4820673 28.5,54.56708 h 3 L 30.38238,4.4820673 Z" /><path
       id="path5"
       style="baseline-shift:baseline;display:inline;overflow:visible;vector-effect:none;fill:#ffffff;stroke-width:3.7778;stroke-linejoin:round;stroke-miterlimit:0;enable-background:accumulate;stop-color:#000000"
       d="m 0.99999849,0.52502852 a 0.50004934,0.49959199 0 0 0 -0.50195,0.50149398 V 58.973471 a 0.50004934,0.49959199 0 0 0 0.50195,0.5015 H 59.000001 a 0.50004934,0.49959199 0 0 0 0.50195,-0.5015 V 1.0265225 A 0.50004934,0.49959199 0 0 0 59.000001,0.52502852 Z M 1.5039085,1.5299675 H 58.498041 V 43.489601 H 1.6874985 v 0.99518 H 58.498041 v 1.00299 H 1.6874985 v 1.00299 H 58.498041 v 11.98122 H 1.5039085 Z m 50.9980395,1.996219 v 1.998171 h -2 v 0.999086 h 2 v 1.99817 h 1 v -1.99817 h 2 v -0.999086 h -2 V 3.5261865 Z M 3.5019485,5.5243575 v 0.999086 h 5 v -0.999086 z m 35.2382795,0.999086 c -0.60404,0 -1.06375,0.200637 -1.37695,0.602963 -0.30762,0.396736 -0.46094,1.041674 -0.46094,1.935728 0,0.916405 0.16414,1.5655125 0.49414,1.9454855 0.29643,0.340858 0.74531,0.51125 1.34375,0.51125 1.21367,0 1.82031,-0.83032 1.82031,-2.4899085 0,-1.670763 -0.60664,-2.505518 -1.82031,-2.505518 z m -0.0253,0.503445 c 0.46421,0 0.79892,0.153184 1.00586,0.460516 0.21252,0.301742 0.32031,0.840951 0.32031,1.617659 0,0.74877 -0.1014,1.2621665 -0.30274,1.5415585 -0.19574,0.273803 -0.53685,0.411732 -1.02343,0.411732 -0.481,0 -0.81987,-0.165958 -1.01563,-0.495639 -0.16222,-0.296154 -0.24219,-0.7729185 -0.24219,-1.4322835 0,-0.765533 0.0908,-1.306958 0.27537,-1.625465 0.19019,-0.318504 0.51821,-0.478078 0.98243,-0.478078 z m 14.78516,2.497713 c -1.65093,0 -2.9961,1.3439325 -2.9961,2.9933545 0,1.649421 1.34517,2.993353 2.9961,2.993353 1.65093,0 3.00586,-1.343932 3.00586,-2.993353 0,-1.649422 -1.35493,-2.9933545 -3.00586,-2.9933545 z m -41.67195,0.9951835 c -0.60403,0 -1.06374,0.200638 -1.37695,0.602964 -0.30761,0.396735 -0.4609395,1.041673 -0.4609395,1.935727 0,0.916405 0.1661095,1.565513 0.4960995,1.945485 0.29643,0.340859 0.74335,0.511251 1.34179,0.511251 1.21368,0 1.82032,-0.830321 1.82032,-2.489908 0,-1.670763 -0.60665,-2.505519 -1.82032,-2.505519 z m 41.67188,0 c 1.11049,0 2.00195,0.888694 2.00195,1.998171 0,1.109476 -0.89146,1.998171 -2.00195,1.998171 -1.11049,0 -2,-0.888695 -2,-1.998171 0,-1.109477 0.88951,-1.998171 2,-1.998171 z M 7.6250185,10.636866 c -0.632,0 -1.0831,0.08852 -1.35156,0.267334 -0.43066,0.290565 -0.64649,0.762895 -0.64649,1.416672 0,0.201159 0.0883,0.30246 0.26173,0.30246 0.17337,0 0.25977,-0.08409 0.25977,-0.251724 0,-0.385561 0.0864,-0.674722 0.25977,-0.870297 0.2293,-0.257041 0.62012,-0.386365 1.17383,-0.386365 0.81098,0 1.21679,0.295549 1.21679,0.887858 0,0.307331 -0.14471,0.546822 -0.43554,0.720045 -0.151,0.111749 -0.48128,0.230257 -0.99024,0.353191 -0.50337,0.122926 -0.84002,0.23088 -1.00781,0.325875 -0.57608,0.335266 -0.86328,0.915277 -0.86328,1.736689 l 0.008,0.376607 h 3.68359 c 0.16218,0 0.24416,-0.09048 0.24416,-0.269283 0,-0.173224 -0.1036,-0.25953 -0.31053,-0.25953 h -3.06251 c 0,-0.491729 0.14691,-0.85194 0.44335,-1.081041 0.19575,-0.150873 0.56047,-0.284629 1.0918,-0.401976 0.54811,-0.156461 0.92587,-0.296603 1.13281,-0.419538 0.36915,-0.262629 0.55274,-0.640047 0.55274,-1.131776 0,-0.419087 -0.17499,-0.753487 -0.52734,-1.004939 -0.29084,-0.206752 -0.6686,-0.310265 -1.13282,-0.310261 z m 10.1113295,0.04293 v 0.679066 h 0.67773 v -0.679066 z m 6.78125,0 v 0.679066 h 0.67773 v -0.679066 z m 6.78125,0 v 0.679066 h 0.67773 v -0.679066 z m 13.5625,0 v 0.679066 h 0.67773 v -0.679066 z m -33.0586,0.343438 c 0.46422,0 0.79892,0.153183 1.00586,0.460515 0.21253,0.301742 0.32032,0.840952 0.32032,1.61766 0,0.74877 -0.10137,1.262166 -0.30274,1.541558 -0.19574,0.273803 -0.53685,0.411732 -1.02344,0.411732 -0.48099,0 -0.81987,-0.165958 -1.01562,-0.49564 -0.16218,-0.296153 -0.2422,-0.772918 -0.2422,-1.432283 0,-0.765532 0.0908,-1.306958 0.27538,-1.625465 0.19015,-0.318504 0.51821,-0.478077 0.98242,-0.478077 z m 18.20118,1.715226 c -9.29388,0 -17.75374,2.941595 -23.9785195,7.739009 v 1.274224 c 6.0842795,-4.940449 14.5666295,-8.016099 23.9785195,-8.016099 9.41128,0 17.89227,3.074253 23.9746,8.014148 v -1.276179 c -6.22431,-4.79517 -14.68318,-7.735106 -23.9746,-7.735103 z" /><rect
       style="fill:#000000;fill-opacity:1;stroke-width:0.820258;stroke-linejoin:round"
       id="rect5"
       width="59"
       height="18.982622"
       x="0.083926871"
       y="43.206856" /><path
       id="rect9"
       style="baseline-shift:baseline;display:inline;overflow:visible;vector-effect:none;fill:#ffffff;stroke-linejoin:round;enable-background:accumulate;stop-color:#000000"
       d="M 0.4921867,-4.2968751e-7 A 0.49185268,0.49185268 0 0 0 -3.0035442e-7,0.49218757 V 43 v 1 1 1 13.507812 A 0.49185268,0.49185268 0 0 0 0.4921867,60 H 59.507812 A 0.49185268,0.49185268 0 0 0 60,59.507812 V 46 45 44 43 0.49218757 A 0.49185268,0.49185268 0 0 0 59.507812,-4.2968751e-7 Z M 0.9843747,0.98437457 H 59.017578 V 43 H 0.9843747 Z M 0.9843747,44 H 59.017578 v 1 H 0.9843747 Z m 0,2 H 59.017578 V 59.017578 H 0.9843747 Z" /><path
       style="font-size:1.59809px;line-height:1.1;font-family:mry_KacstQurn;-inkscape-font-specification:mry_KacstQurn;text-align:center;letter-spacing:0px;baseline-shift:baseline;text-anchor:middle;display:inline;overflow:visible;vector-effect:none;fill:#ffffff;stroke-width:3.7778;stroke-miterlimit:0;enable-background:accumulate;stop-color:#000000"
       d="m 24.41561,26.474684 -0.369108,0.538385 2.347438,6.136116 0.369109,0.258133 h 0.944882 l 0.369108,-0.258133 2.340057,-6.136116 -0.369109,-0.538385 h -0.863682 l -0.369109,0.258128 -1.579722,4.189079 -1.579725,-4.189079 -0.369109,-0.258128 z m 6.437008,0 -0.398623,0.398257 v 3.835072 c 0,0.86543 0.223862,1.586008 0.708662,2.087166 0.487498,0.500488 1.198866,0.730137 2.044785,0.730137 0.843416,0 1.552683,-0.229056 2.037399,-0.730137 0.487867,-0.500869 0.708657,-1.221287 0.708657,-2.087166 v -3.835072 l -0.39862,-0.398257 h -0.834151 l -0.398623,0.398257 v 3.73182 c 0,0.606616 -0.120945,0.986211 -0.265739,1.165272 -0.146683,0.176852 -0.387855,0.295005 -0.848916,0.295005 -0.464167,0 -0.710101,-0.118723 -0.856297,-0.295005 -0.144794,-0.179054 -0.273146,-0.558644 -0.273146,-1.165272 v -3.73182 l -0.391234,-0.398257 z m -5.861223,0.789139 h 0.0223 l 1.638781,4.351332 z m 4.466045,0 h 0.0223 l -1.565114,4.085827 z m 1.786416,0 h 0.0443 v 3.340938 c 0,0.686642 0.124196,1.221452 0.435534,1.62253 -0.29983,-0.316079 -0.479826,-0.791088 -0.479826,-1.519278 z m 3.868112,0 h 0.05167 v 3.44419 c 0,0.731975 -0.181796,1.210431 -0.487204,1.526653 0.315175,-0.401593 0.43553,-0.939588 0.43553,-1.629905 z m -8.245572,4.919217 h 0.730809 l -0.162406,0.435136 h -0.398623 z"
       id="path7" /><path
       id="LED_LEFT"
       style="fill:#ffffff"
       d="m 53.492188,10.539062 a 1.9999999,1.9981707 0 0 0 -1.990235,2.00586 1.9999999,1.9981707 0 0 0 2.003906,1.992187 1.9999999,1.9981707 0 0 0 1.996094,-1.998047 v -0.01562 a 1.9999999,1.9981707 0 0 0 -2.009765,-1.98438 z M 54.498047,11 A 0.5,0.5 0 0 1 55,11.496094 V 11.5 A 0.5,0.5 0 0 1 54.5,12 0.5,0.5 0 0 1 54,11.501953 0.5,0.5 0 0 1 54.498047,11 Z" /></g><g
     id="g16"
     transform="translate(65,3.0000005)"><rect
       style="fill:#0000ff;fill-opacity:1;stroke-linejoin:round"
       id="rect12"
       width="60"
       height="60"
       x="-1.7163086e-07"
       y="-4.296875e-07" /><path
       id="NEEDLE_RIGHT"
       style="fill:#ffff00;fill-opacity:1;stroke-width:0.999541;stroke-linejoin:round"
       d="M 29.78863,4.4820673 28.5,54.56708 h 3 L 30.38238,4.4820673 Z" /><path
       id="path13"
       style="baseline-shift:baseline;display:inline;overflow:visible;vector-effect:none;fill:#ffffff;stroke-width:3.7778;stroke-linejoin:round;stroke-miterlimit:0;enable-background:accumulate;stop-color:#000000"
       d="m 0.99999849,0.52502852 a 0.50004934,0.49959199 0 0 0 -0.50195,0.50149398 V 58.973471 a 0.50004934,0.49959199 0 0 0 0.50195,0.5015 H 59.000001 a 0.50004934,0.49959199 0 0 0 0.50195,-0.5015 V 1.0265225 A 0.50004934,0.49959199 0 0 0 59.000001,0.52502852 Z M 1.5039085,1.5299675 H 58.498041 V 43.489601 H 1.6874985 v 0.99518 H 58.498041 v 1.00299 H 1.6874985 v 1.00299 H 58.498041 v 11.98122 H 1.5039085 Z m 50.9980395,1.996219 v 1.998171 h -2 v 0.999086 h 2 v 1.99817 h 1 v -1.99817 h 2 v -0.999086 h -2 V 3.5261865 Z M 3.5019485,5.5243575 v 0.999086 h 5 v -0.999086 z m 35.2382795,0.999086 c -0.60404,0 -1.06375,0.200637 -1.37695,0.602963 -0.30762,0.396736 -0.46094,1.041674 -0.46094,1.935728 0,0.916405 0.16414,1.5655125 0.49414,1.9454855 0.29643,0.340858 0.74531,0.51125 1.34375,0.51125 1.21367,0 1.82031,-0.83032 1.82031,-2.4899085 0,-1.670763 -0.60664,-2.505518 -1.82031,-2.505518 z m -0.0253,0.503445 c 0.46421,0 0.79892,0.153184 1.00586,0.460516 0.21252,0.301742 0.32031,0.840951 0.32031,1.617659 0,0.74877 -0.1014,1.2621665 -0.30274,1.5415585 -0.19574,0.273803 -0.53685,0.411732 -1.02343,0.411732 -0.481,0 -0.81987,-0.165958 -1.01563,-0.495639 -0.16222,-0.296154 -0.24219,-0.7729185 -0.24219,-1.4322835 0,-0.765533 0.0908,-1.306958 0.27537,-1.625465 0.19019,-0.318504 0.51821,-0.478078 0.98243,-0.478078 z m 14.78516,2.497713 c -1.65093,0 -2.9961,1.3439325 -2.9961,2.9933545 0,1.649421 1.34517,2.993353 2.9961,2.993353 1.65093,0 3.00586,-1.343932 3.00586,-2.993353 0,-1.649422 -1.35493,-2.9933545 -3.00586,-2.9933545 z m -41.67195,0.9951835 c -0.60403,0 -1.06374,0.200638 -1.37695,0.602964 -0.30761,0.396735 -0.4609395,1.041673 -0.4609395,1.935727 0,0.916405 0.1661095,1.565513 0.4960995,1.945485 0.29643,0.340859 0.74335,0.511251 1.34179,0.511251 1.21368,0 1.82032,-0.830321 1.82032,-2.489908 0,-1.670763 -0.60665,-2.505519 -1.82032,-2.505519 z m 41.67188,0 c 1.11049,0 2.00195,0.888694 2.00195,1.998171 0,1.109476 -0.89146,1.998171 -2.00195,1.998171 -1.11049,0 -2,-0.888695 -2,-1.998171 0,-1.109477 0.88951,-1.998171 2,-1.998171 z M 7.6250185,10.636866 c -0.632,0 -1.0831,0.08852 -1.35156,0.267334 -0.43066,0.290565 -0.64649,0.762895 -0.64649,1.416672 0,0.201159 0.0883,0.30246 0.26173,0.30246 0.17337,0 0.25977,-0.08409 0.25977,-0.251724 0,-0.385561 0.0864,-0.674722 0.25977,-0.870297 0.2293,-0.257041 0.62012,-0.386365 1.17383,-0.386365 0.81098,0 1.21679,0.295549 1.21679,0.887858 0,0.307331 -0.14471,0.546822 -0.43554,0.720045 -0.151,0.111749 -0.48128,0.230257 -0.99024,0.353191 -0.50337,0.122926 -0.84002,0.23088 -1.00781,0.325875 -0.57608,0.335266 -0.86328,0.915277 -0.86328,1.736689 l 0.008,0.376607 h 3.68359 c 0.16218,0 0.24416,-0.09048 0.24416,-0.269283 0,-0.173224 -0.1036,-0.25953 -0.31053,-0.25953 h -3.06251 c 0,-0.491729 0.14691,-0.85194 0.44335,-1.081041 0.19575,-0.150873 0.56047,-0.284629 1.0918,-0.401976 0.54811,-0.156461 0.92587,-0.296603 1.13281,-0.419538 0.36915,-0.262629 0.55274,-0.640047 0.55274,-1.131776 0,-0.419087 -0.17499,-0.753487 -0.52734,-1.004939 -0.29084,-0.206752 -0.6686,-0.310265 -1.13282,-0.310261 z m 10.1113295,0.04293 v 0.679066 h 0.67773 v -0.679066 z m 6.78125,0 v 0.679066 h 0.67773 v -0.679066 z m 6.78125,0 v 0.679066 h 0.67773 v -0.679066 z m 13.5625,0 v 0.679066 h 0.67773 v -0.679066 z m -33.0586,0.343438 c 0.46422,0 0.79892,0.153183 1.00586,0.460515 0.21253,0.301742 0.32032,0.840952 0.32032,1.61766 0,0.74877 -0.10137,1.262166 -0.30274,1.541558 -0.19574,0.273803 -0.53685,0.411732 -1.02344,0.411732 -0.48099,0 -0.81987,-0.165958 -1.01562,-0.49564 -0.16218,-0.296153 -0.2422,-0.772918 -0.2422,-1.432283 0,-0.765532 0.0908,-1.306958 0.27538,-1.625465 0.19015,-0.318504 0.51821,-0.478077 0.98242,-0.478077 z m 18.20118,1.715226 c -9.29388,0 -17.75374,2.941595 -23.9785195,7.739009 v 1.274224 c 6.0842795,-4.940449 14.5666295,-8.016099 23.9785195,-8.016099 9.41128,0 17.89227,3.074253 23.9746,8.014148 v -1.276179 c -6.22431,-4.79517 -14.68318,-7.735106 -23.9746,-7.735103 z" /><rect
       style="fill:#000000;fill-opacity:1;stroke-width:0.820258;stroke-linejoin:round"
       id="rect13"
       width="59"
       height="18.982622"
       x="0.083926871"
       y="43.206856" /><path
       id="path14"
       style="baseline-shift:baseline;display:inline;overflow:visible;vector-effect:none;fill:#ffffff;stroke-linejoin:round;enable-background:accumulate;stop-color:#000000"
       d="M 0.4921867,-4.2968751e-7 A 0.49185268,0.49185268 0 0 0 -3.0035442e-7,0.49218757 V 43 v 1 1 1 13.507812 A 0.49185268,0.49185268 0 0 0 0.4921867,60 H 59.507812 A 0.49185268,0.49185268 0 0 0 60,59.507812 V 46 45 44 43 0.49218757 A 0.49185268,0.49185268 0 0 0 59.507812,-4.2968751e-7 Z M 0.9843747,0.98437457 H 59.017578 V 43 H 0.9843747 Z M 0.9843747,44 H 59.017578 v 1 H 0.9843747 Z m 0,2 H 59.017578 V 59.017578 H 0.9843747 Z" /><path
       style="font-size:1.59809px;line-height:1.1;font-family:mry_KacstQurn;-inkscape-font-specification:mry_KacstQurn;text-align:center;letter-spacing:0px;baseline-shift:baseline;text-anchor:middle;display:inline;overflow:visible;vector-effect:none;fill:#ffffff;stroke-width:3.7778;stroke-miterlimit:0;enable-background:accumulate;stop-color:#000000"
       d="m 24.41561,26.474684 -0.369108,0.538385 2.347438,6.136116 0.369109,0.258133 h 0.944882 l 0.369108,-0.258133 2.340057,-6.136116 -0.369109,-0.538385 h -0.863682 l -0.369109,0.258128 -1.579722,4.189079 -1.579725,-4.189079 -0.369109,-0.258128 z m 6.437008,0 -0.398623,0.398257 v 3.835072 c 0,0.86543 0.223862,1.586008 0.708662,2.087166 0.487498,0.500488 1.198866,0.730137 2.044785,0.730137 0.843416,0 1.552683,-0.229056 2.037399,-0.730137 0.487867,-0.500869 0.708657,-1.221287 0.708657,-2.087166 v -3.835072 l -0.39862,-0.398257 h -0.834151 l -0.398623,0.398257 v 3.73182 c 0,0.606616 -0.120945,0.986211 -0.265739,1.165272 -0.146683,0.176852 -0.387855,0.295005 -0.848916,0.295005 -0.464167,0 -0.710101,-0.118723 -0.856297,-0.295005 -0.144794,-0.179054 -0.273146,-0.558644 -0.273146,-1.165272 v -3.73182 l -0.391234,-0.398257 z m -5.861223,0.789139 h 0.0223 l 1.638781,4.351332 z m 4.466045,0 h 0.0223 l -1.565114,4.085827 z m 1.786416,0 h 0.0443 v 3.340938 c 0,0.686642 0.124196,1.221452 0.435534,1.62253 -0.29983,-0.316079 -0.479826,-0.791088 -0.479826,-1.519278 z m 3.868112,0 h 0.05167 v 3.44419 c 0,0.731975 -0.181796,1.210431 -0.487204,1.526653 0.315175,-0.401593 0.43553,-0.939588 0.43553,-1.629905 z m -8.245572,4.919217 h 0.730809 l -0.162406,0.435136 h -0.398623 z"
       id="path15" /><path
       id="LED_RIGHT"
       style="fill:#ffffff"
       d="m 53.492188,10.539062 a 1.9999999,1.9981707 0 0 0 -1.990235,2.00586 1.9999999,1.9981707 0 0 0 2.003906,1.992187 1.9999999,1.9981707 0 0 0 1.996094,-1.998047 v -0.01562 a 1.9999999,1.9981707 0 0 0 -2.009765,-1.98438 z M 54.498047,11 A 0.5,0.5 0 0 1 55,11.496094 V 11.5 A 0.5,0.5 0 0 1 54.5,12 0.5,0.5 0 0 1 54,11.501953 0.5,0.5 0 0 1 54.498047,11 Z" /></g></g><path
   d="m 315.72717,83.114462 v -5.855421 h 1.19277 v 4.86747 h 2.92771 v 0.987951 z"
   id="text17"
   style="font-size:10px;line-height:1.1;font-family:Ramabhadra;-inkscape-font-specification:Ramabhadra;text-align:center;letter-spacing:0px;word-spacing:0.0022px;text-anchor:middle;fill:#ffffff;stroke-linejoin:round"
   aria-label="L" /><path
   d="m 378.72717,83.114463 v -5.855422 h 2.49398 q 1.15663,0 1.72289,0.349398 0.57832,0.349397 0.57832,1.289156 0,1.409639 -1.55422,1.638554 0.60241,0.313253 1.3012,1.433735 l 0.72289,1.144579 h -1.42168 l -1.26506,-1.891567 q -0.19277,-0.289156 -0.43374,-0.421686 -0.22891,-0.132531 -0.72289,-0.132531 h -0.24096 v 2.445784 z m 1.18073,-3.373494 h 0.87952 q 0.89156,0 1.20481,-0.144579 0.31326,-0.156626 0.31326,-0.614457 0,-0.433735 -0.26506,-0.578314 -0.25301,-0.156626 -1.20482,-0.156626 h -0.92771 z"
   id="text18"
   style="font-size:10px;line-height:1.1;font-family:Ramabhadra;-inkscape-font-specification:Ramabhadra;text-align:center;letter-spacing:0px;word-spacing:0.0022px;text-anchor:middle;fill:#ffffff;stroke-linejoin:round"
   aria-label="R" /><rect
   style="fill:#1e5a72;stroke-width:0.5;stroke-linejoin:round"
   id="rect2"
   width="160"
   height="170"
   x="0"
   y="1.0155239" /><rect
   style="fill:#000000;fill-opacity:1;stroke-width:3.44348"
   id="rect2-5"
   width="160"
   height="85"
   x="0"
   y="0" /><path
   style="fill:#b3eaff;fill-opacity:1;stroke:#ffffff;stroke-width:0.25;stroke-dasharray:none;stroke-opacity:1"
   d="m 74.578805,51.626446 -0.24535,-0.42378 c -1.449663,3.05547 -1.694985,3.18929 -5.531013,3.16698 h -4.215169 l 0.602199,-0.57984 c 1.182026,-1.09282 1.338143,-1.38276 1.895708,-3.70222 0.646769,-2.76551 0.95901,-3.992135 1.248938,-4.86194 0.334563,-0.936705 0.914404,-1.36044 1.851109,-1.36044 0.289922,0 0.490631,0 1.315844,0.04425 l 0.869791,-1.248645 c -0.446059,-0.04425 -0.669054,-0.06675 -0.981309,-0.06675 -0.423775,0 -0.802894,0.04425 -1.182034,0.1338 -0.602198,0.15615 -1.672685,0.9144 -2.564789,1.80651 -1.092822,1.115115 -1.471963,2.14104 -2.341762,6.289305 -0.602197,2.85471 -1.182033,3.6799 -2.587089,3.6799 -0.178423,0 -0.446059,0 -0.69141,-0.0225 -0.312205,0.31221 -0.446059,0.46834 -0.780586,0.89209 l 2.185642,-0.0667 3.412284,0.11145 4.393591,0.17842 c 1.159727,0 1.650386,-0.24535 2.051832,-1.07052 0.267636,-0.51298 0.959003,-2.05183 1.293537,-2.89932 z m 7.965245,1.47196 v -0.64677 c -0.82519,0.66906 -2.408665,2.02954 -3.54609,2.02954 -1.248941,0 -1.360452,-1.33815 -1.338153,-2.20794 0.512988,-0.24536 2.698599,-1.89572 3.144653,-2.23027 0.82519,-0.66904 1.427355,-1.38275 1.427355,-2.43097 0,-0.735975 -0.44606,-1.29354 -1.27124,-1.29354 -0.80289,0 -1.494265,0.401415 -2.29716,1.02591 -1.962611,1.51658 -2.653992,4.01445 -2.653992,6.11088 0,1.36046 0.557556,2.31947 1.918013,2.31947 1.717289,0 3.702219,-1.7619 4.616614,-2.67631 z m -1.96262,-4.86195 c 0,1.60579 -1.8288,2.52019 -2.899323,3.34538 0.0892,-1.11512 0.936713,-4.28208 2.207948,-4.28208 0.49063,0 0.69141,0.44607 0.69141,0.9367 z m 13.67469,-7.80586 c -0.44606,-0.11145 -0.624485,-0.1338 -1.070515,-0.1338 -1.33815,0 -2.274855,0.490635 -3.769125,1.94031 -1.248935,1.204335 -1.53887,1.87341 -2.408665,5.57562 H 85.1344 c -0.133785,0.08925 -0.267635,0.178425 -0.312205,0.200715 l -0.49063,0.267625 c -0.08922,0.0443 -0.267635,0.13381 -0.44606,0.24536 h 2.94393 l -0.9144,3.90294 c -1.33815,6.13318 -1.851105,7.13679 -3.74682,7.13679 -0.31221,0 -0.579845,-0.0225 -1.182025,-0.11145 -0.222995,0.33456 -0.289925,0.44605 -0.44606,0.64677 -0.178425,0.24536 -0.379135,0.49063 -0.55756,0.75828 0.49063,0.0667 0.735985,0.0892 1.092825,0.0892 0.73598,0 1.31584,-0.11145 1.672685,-0.31221 0.646765,-0.35683 1.784195,-1.44966 2.386365,-2.23024 0.69141,-0.93671 1.494265,-2.85471 2.007225,-4.88424 l 1.31586,-4.99584 h 1.984915 l 0.9144,-0.71369 -1.405055,-0.0225 -1.315845,0.0225 c 1.44966,-5.664825 1.784195,-6.356205 3.100045,-6.356205 0.379135,0 0.669055,0.04425 1.49427,0.178425 z m 3.705465,12.77933 0.0443,-0.55755 c -1.694985,1.0036 -2.408665,1.38274 -2.720905,1.38274 -0.28992,0 -0.646765,-0.57984 -0.646765,-1.04821 0,-0.31222 0.37913,-2.02954 0.959005,-4.37129 0.312205,-0.0225 0.53527,-0.0225 0.646765,-0.0225 l 0.892105,-0.0225 c 0.08921,0 0.312205,-0.0225 0.669055,-0.0667 l 0.84749,-0.64677 H 95.79795 l 0.892095,-3.613005 c -0.423775,0.223005 -0.602195,0.28992 -0.936705,0.44607 -0.156135,0.08925 -0.33456,0.156135 -0.512985,0.24534 -0.08922,0.04425 -0.20071,0.08925 -0.312205,0.1338 l -0.624485,2.78781 c -0.20071,0.0225 -0.33456,0.0225 -0.401415,0.0225 h -0.535275 c 0,0 -0.156135,0 -0.33456,0.0225 -0.24535,0.156135 -0.267635,0.156135 -0.64677,0.468345 -0.06678,0.0442 -0.178425,0.1338 -0.33456,0.24536 h 0.53527 1.025915 0.49063 c -1.182035,4.95115 -1.182035,4.95115 -1.182035,5.64251 0,0.71369 0.468345,1.49427 0.8921,1.49427 0.49063,0 2.007225,-0.9367 4.14826,-2.54248 z"
   id="text11"
   aria-label="Left" /><rect
   style="fill:#ffffff;fill-opacity:1;stroke-width:4.72443"
   id="rect1-3"
   width="7.5000367"
   height="1.2500061"
   x="7.5525208"
   y="13.004266" /><path
   id="rect3"
   style="fill:#ffffff;fill-opacity:1;stroke-width:4.72443"
   d="m 148.17818,9.8603608 v 3.1250202 h -3.12501 v 1.25004 h 3.12501 v 3.124975 h 1.25001 v -3.124975 h 3.12502 v -1.25004 h -3.12502 V 9.8603608 Z" /><path
   id="text4"
   style="fill:#ffffff;fill-opacity:1;stroke-width:4.72443"
   d="m 87.328163,12.361996 c -0.15052,0.0045 -0.30614,0.0189 -0.46876,0.0425 l 0.1465,0.92528 c 0.44448,-0.06189 0.81915,-0.0378 1.12306,0.07795 0.30392,0.11433 0.53243,0.2863 0.68604,0.515105 0.12746,0.182835 0.20334,0.385515 0.22951,0.60794 0.0226,0.22205 -0.008,0.437955 -0.0928,0.646965 -0.10781,0.26126 -0.30727,0.4835 -0.59815,0.666525 -0.19607,0.127555 -0.43748,0.217795 -0.7251,0.27354 v 0.0025 c -0.16016,0.0094 -0.32731,0.0236 -0.50049,0.0425 l 0.10252,0.952115 h 0.0146 v 0.0045 c 0.11769,-0.0095 0.23476,-0.0236 0.34914,-0.0378 0.44768,-0.03305 0.81593,-0.02835 1.10351,0.01415 0.35949,0.05906 0.60899,0.15969 0.74952,0.300475 0.0751,0.07229 0.10744,0.147875 0.0977,0.22961 -0.0165,0.12756 -0.0955,0.264095 -0.23925,0.407715 -0.22875,0.241895 -0.56791,0.427565 -1.01563,0.5615 -0.44773,0.130865 -0.97825,0.16063 -1.58937,0.08552 l -0.12207,0.944835 c 0.77451,0.09449 1.45361,0.0496 2.03858,-0.136535 0.58498,-0.18614 1.038,-0.445515 1.35498,-0.77882 0.29411,-0.303785 0.46045,-0.630145 0.50294,-0.97654 0.049,-0.39213 -0.0802,-0.74103 -0.39061,-1.04495 -0.17972,-0.172915 -0.43408,-0.30898 -0.76417,-0.41008 0.21893,-0.219215 0.38207,-0.46347 0.49317,-0.73484 0.15034,-0.36284 0.20608,-0.73262 0.16356,-1.1084 -0.0392,-0.3789 -0.17083,-0.729545 -0.39307,-1.049815 -0.24837,-0.366145 -0.60367,-0.6429 -1.06446,-0.83254 -0.34314,-0.142205 -0.73981,-0.20646 -1.19142,-0.190395 z m 24.340947,0.342045 c -0.3242,0 -0.62347,0.107245 -0.90089,0.32457 -0.27742,0.214015 -0.51878,0.510995 -0.72266,0.888665 -0.35764,0.678475 -0.55407,1.520845 -0.59082,2.526865 l -0.004,0.1611 c 0,0.93251 0.16781,1.73458 0.50537,2.4097 0.18383,0.36425 0.40583,0.65211 0.66651,0.859375 0.26069,0.207875 0.54918,0.31512 0.86669,0.324565 h 0.017 0.005 0.005 v 0.0025 h -0.003 v 0.0025 h 0.008 c 0.32419,0 0.62346,-0.105825 0.90088,-0.319845 0.27742,-0.21732 0.51879,-0.51586 0.72266,-0.893575 0.35764,-0.678475 0.55407,-1.520845 0.59082,-2.526865 l 0.008,-0.1611 c 0,-0.932465 -0.17022,-1.73453 -0.50781,-2.40965 -0.18383,-0.364255 -0.40583,-0.652165 -0.66651,-0.859425 -0.2607,-0.207875 -0.54919,-0.31512 -0.8667,-0.324565 h -0.0146 -0.01 v -0.0045 z m -37.981147,0.40536 -3.09327,0.0189 -0.1123,4.42386 0.55664,-0.08315 c 0.52597,-0.07984 0.95939,-0.07086 1.30127,0.0236 0.34186,0.09213 0.59172,0.234805 0.74952,0.43229 0.13791,0.167715 0.2058,0.35055 0.20263,0.54444 -0.004,0.197485 -0.0791,0.38268 -0.22706,0.556635 -0.1808,0.210235 -0.45935,0.3652 -0.8374,0.46394 -0.37805,0.09496 -0.86017,0.09685 -1.44532,0.0045 l -0.16356,0.93019 c 0.77581,0.12142 1.42717,0.10394 1.95314,-0.05386 0.52598,-0.161105 0.92749,-0.402995 1.20362,-0.72511 0.2991,-0.3548 0.45236,-0.743765 0.45898,-1.164525 0.007,-0.420945 -0.13394,-0.805515 -0.41991,-1.15725 -0.22025,-0.269765 -0.52838,-0.4843 -0.92286,-0.642095 -0.39449,-0.15685 -0.87257,-0.22394 -1.43799,-0.20504 l 0.0635,-2.412105 2.17531,-0.0095 z m -19.83896,0.17102 -0.01,0.964355 2.13136,0.01415 -1.70411,6.269555 0.93018,0.25134 1.86768,-6.86526 -0.46143,-0.607895 z m 57.815217,0.385515 h 0.005 0.0123 0.005 c 0.25541,0.0236 0.48504,0.24189 0.69092,0.656745 0.26736,0.531405 0.4004,1.19122 0.4004,1.97996 v 0.11717 0.0236 c -0.0302,0.845575 -0.19172,1.54569 -0.48584,2.097175 -0.24733,0.467715 -0.50412,0.70068 -0.77149,0.70068 h -0.01 c -0.002,-1.45e-4 -0.004,1.4e-4 -0.005,0 h -0.005 c -0.25035,-0.02365 -0.48054,-0.244255 -0.68849,-0.656745 -0.26736,-0.531405 -0.40039,-1.19122 -0.40039,-1.98001 v -0.114805 -0.0236 c 0.0302,-0.845625 0.19172,-1.54328 0.48584,-2.094765 0.24581,-0.464885 0.50103,-0.700205 0.76661,-0.70309 z m -74.473027,1.093755 -1.3501,1.5747 0.7129,0.612805 0.50293,-0.581055 -0.0928,5.764185 0.94483,0.01415 0.10984,-7.07035 z m 3.61086,0.127085 c -0.31866,0 -0.61357,0.1063 -0.88623,0.319845 -0.27265,0.21024 -0.51004,0.50282 -0.71045,0.87407 -0.3515,0.6669 -0.54493,1.4941 -0.58106,2.482925 l -0.005,0.156375 c 0,0.91654 0.16625,1.706985 0.49805,2.37063 0.18066,0.35811 0.39803,0.638505 0.6543,0.84227 0.25625,0.204095 0.5424,0.312755 0.8545,0.322205 h 0.0146 0.005 0.002 v 0.0025 h -0.002 v 0.0025 h 0.01 c 0.31867,0 0.61357,-0.10677 0.88624,-0.31748 0.27264,-0.213545 0.51004,-0.50523 0.71045,-0.87648 0.35155,-0.66685 0.54493,-1.49405 0.58106,-2.482925 l 0.005,-0.15874 c 0,-0.916585 -0.16625,-1.706985 -0.49805,-2.370625 -0.18066,-0.35811 -0.40049,-0.638505 -0.65674,-0.84227 -0.25625,-0.204095 -0.53996,-0.310395 -0.85206,-0.319845 h -0.0146 -0.01 v -0.0045 z m -0.005,0.94725 h 0.005 0.0146 c 0.25087,0.0236 0.47889,0.236695 0.68116,0.644555 0.26282,0.522335 0.39307,1.17048 0.39307,1.945805 v 0.114805 0.0236 c -0.0298,0.83117 -0.1894,1.51848 -0.47852,2.06056 -0.24298,0.459685 -0.49417,0.690665 -0.75684,0.6909 h -0.002 -0.008 c -0.24968,-0.0189 -0.47907,-0.23622 -0.68604,-0.646965 -0.26282,-0.52238 -0.39307,-1.170525 -0.39307,-1.945805 v -0.11244 -0.0236 c 0.0298,-0.83117 0.18699,-1.518525 0.47608,-2.06056 0.2416,-0.456855 0.49335,-0.68561 0.75439,-0.68849 z m 92.573707,2.270515 c -0.15053,0.0045 -0.3086,0.0189 -0.47122,0.0425 l 0.14651,0.927735 c 0.44442,-0.06189 0.81911,-0.0378 1.12305,0.07795 0.30392,0.11433 0.53243,0.2863 0.68604,0.515105 0.12746,0.182835 0.20579,0.385515 0.23192,0.60794 0.0227,0.22205 -0.008,0.437955 -0.0928,0.646965 -0.10786,0.26126 -0.30732,0.483495 -0.59815,0.66652 -0.19606,0.12756 -0.43994,0.2178 -0.72754,0.273545 v 0.0025 c -0.16012,0.0095 -0.32486,0.0236 -0.49805,0.0425 l 0.10252,0.952115 h 0.0147 v 0.0045 c 0.11764,-0.0095 0.2323,-0.0236 0.34668,-0.0378 0.44768,-0.03305 0.81593,-0.02835 1.10352,0.0142 0.35949,0.05906 0.60898,0.159685 0.74951,0.300475 0.0751,0.07229 0.10744,0.147875 0.0977,0.229605 -0.0166,0.12756 -0.0955,0.2641 -0.23924,0.40772 -0.22876,0.24189 -0.56792,0.429925 -1.01564,0.563955 -0.44773,0.13087 -0.9758,0.15827 -1.58692,0.08315 l -0.12211,0.94487 c 0.77452,0.09449 1.45362,0.0496 2.03859,-0.136535 0.58497,-0.186145 1.03554,-0.445515 1.35254,-0.778825 0.2941,-0.30378 0.4629,-0.630145 0.50538,-0.97654 0.049,-0.392125 -0.0826,-0.741025 -0.39308,-1.04495 -0.17976,-0.173385 -0.43408,-0.308505 -0.76416,-0.41008 0.21893,-0.21874 0.38448,-0.4663 0.49561,-0.737295 0.15033,-0.362835 0.20362,-0.73016 0.16115,-1.10594 -0.0392,-0.3789 -0.16838,-0.729595 -0.39062,-1.04982 -0.24836,-0.36614 -0.60367,-0.642945 -1.06445,-0.83254 -0.34314,-0.142205 -0.73982,-0.206455 -1.19142,-0.190395 z M 15.860383,18.700246 c -0.30661,0.0189 -0.60259,0.11433 -0.88867,0.28063 -0.32504,0.192285 -0.58399,0.476365 -0.77637,0.85451 -0.18907,0.377955 -0.25815,0.848175 -0.20509,1.408685 l 0.94727,-0.09024 c -0.0298,-0.34819 0.003,-0.634585 0.10252,-0.856915 0.10285,-0.225355 0.24571,-0.39213 0.42482,-0.49805 0.19904,-0.11197 0.40139,-0.15827 0.61035,-0.13937 0.19238,0.0189 0.35405,0.09543 0.4834,0.23433 0.11296,0.119055 0.17651,0.293385 0.19285,0.522475 0.0198,0.22866 -0.0326,0.512835 -0.15869,0.85451 -0.21227,0.54066 -0.49941,1.06791 -0.86426,1.58202 -0.36487,0.51076 -0.75171,1.011455 -1.15968,1.499015 -0.27529,0.33827 -0.5311,0.6592 -0.7666,0.9644 l 0.37351,0.766585 2.94923,0.04865 0.0147,-0.94975 -1.98976,-0.0378 c 0.0531,-0.06614 0.10564,-0.129925 0.15869,-0.19276 0.4279,-0.517465 0.83909,-1.05095 1.23048,-1.60158 0.39137,-0.553895 0.70757,-1.13689 0.94971,-1.7505 0.19238,-0.53405 0.26145,-0.9978 0.20509,-1.38917 -0.0564,-0.394965 -0.19928,-0.7141 -0.42482,-0.95944 -0.30185,-0.318895 -0.66745,-0.49918 -1.09864,-0.54203 -0.10446,-0.0095 -0.20788,-0.0142 -0.31007,-0.0095 z m 4.3262,0.05622 c -0.32173,0 -0.62069,0.10677 -0.896,0.322205 -0.27534,0.21213 -0.51548,0.5066 -0.71778,0.881345 -0.3549,0.673325 -0.54947,1.508985 -0.58594,2.50735 l -0.005,0.15874 c 0,0.925375 0.16791,1.722625 0.50293,2.392595 0.18241,0.36189 0.4029,0.64668 0.66162,0.85205 0.25871,0.20646 0.54429,0.31276 0.85938,0.32221 h 0.0147 0.005 0.005 v 0.0025 0.0025 h 0.005 c 0.32173,0 0.62069,-0.105355 0.896,-0.317485 0.27529,-0.215435 0.51544,-0.51142 0.71778,-0.886255 0.3549,-0.673325 0.54946,-1.508985 0.58594,-2.507305 l 0.005,-0.1611 c 0,-0.925375 -0.16796,-1.722625 -0.50294,-2.392595 -0.18241,-0.361895 -0.4029,-0.64427 -0.66162,-0.849595 -0.25871,-0.205985 -0.54428,-0.31512 -0.85938,-0.32457 h -0.0147 -0.0123 v -0.0025 z m -0.005,0.95457 h 0.002 0.002 0.01 0.005 0.002 c 0.25195,0.02365 0.48024,0.24189 0.6836,0.65188 0.26537,0.527385 0.39794,1.18257 0.39794,1.965365 v 0.1148 0.0236 c -0.0298,0.839155 -0.19153,1.530385 -0.48341,2.077665 -0.24543,0.46441 -0.50125,0.698225 -0.7666,0.698225 h -0.01 c -0.2521,-0.0189 -0.48198,-0.237165 -0.69092,-0.65183 -0.26538,-0.52739 -0.39794,-1.182575 -0.39794,-1.965365 v -0.114805 -0.0236 c 0.0298,-0.83915 0.19153,-1.53043 0.4834,-2.07766 0.24468,-0.462995 0.49726,-0.69681 0.76172,-0.698275 z m 67.35141,3.012725 -1.20362,0.05149 -0.73975,11.55039 c -1.4321,-0.01415 -2.86833,-0.0236 -4.3091,-0.0236 -0.6716,0 -1.34198,0.0015 -2.01173,0.0045 l -0.33936,-11.47957 -1.23291,-0.05622 0.37351,11.543015 c -1.49983,0.0094 -2.99487,0.03305 -4.48489,0.05859 l -1.45996,-11.4722 -1.1963,0.08032 1.35255,11.41853 c -1.71532,0.0378 -3.42318,0.08363 -5.12454,0.141735 l -2.31446,-11.413665 -1.26711,0.207405 2.28518,11.25251 c -1.54172,0.05716 -3.07749,0.12331 -4.60696,0.197955 h -0.002 l -3.22512,-11.09623 -1.3086,0.28583 3.16408,10.87895 c -4.17655,0.217325 -8.30479,0.499135 -12.38044,0.839865 l -5.35399,-10.64701 -1.29639,0.73489 5.05129,10.048865 c -5.29404,0.464885 -10.49826,1.03262 -15.59578,1.69678 h -0.002 l -7.46585,-9.624045 -1.02052,1.018065 6.84574,8.823255 c -3.51927,0.47509 -6.98737,0.99629 -10.40044,1.562515 l 1.00831,1.04736 c 19.18172,-3.13608 40.10661,-4.863285 62.00958,-4.863285 20.302747,0 39.763697,1.484795 57.776167,4.19922 l 0.83008,-1.083975 c -4.78965,-0.730585 -9.68272,-1.37448 -14.6656,-1.926295 l 2.73439,-4.27977 h 0.002 c 5.1188,0.55257 10.14087,1.202605 15.05624,1.94335 l 0.83007,-1.083975 c -4.95158,-0.75534 -10.01329,-1.418415 -15.17097,-1.982465 l 2.42189,-3.78904 -0.99854,-1.001015 -2.95412,4.626495 h -0.002 c -1.78943,-0.18803 -3.59107,-0.3652 -5.40285,-0.5298 l 2.41212,-4.56054 -1.24757,-0.756855 -2.73683,5.17826 c -1.75045,-0.15165 -3.51081,-0.29102 -5.28079,-0.42 l 2.13869,-4.873065 -1.32081,-0.661605 -2.38038,5.42237 c -1.80876,-0.124725 -3.62879,-0.23622 -5.45657,-0.33685 l 1.68946,-5.134325 -1.34522,-0.85446 -3.73781,11.364765 h -0.003 c -1.50071,-0.08504 -3.0085,-0.161105 -4.521507,-0.22961 l 2.832037,-11.54793 -1.49903,-0.0142 -2.929697,11.491755 c -1.70587,-0.07019 -3.41839,-0.131135 -5.13904,-0.180265 l 1.66017,-11.171915 -1.39405,-0.275905 -1.58692,11.411205 c -1.66627,-0.0425 -3.33807,-0.07512 -5.01712,-0.09779 z m 19.946387,8.02251 c 1.78697,0.09733 3.56329,0.20693 5.33205,0.327405 l -1.88721,4.29687 c -1.61269,-0.117635 -3.2327,-0.223465 -4.86086,-0.322205 z m 6.897,0.43701 c 1.7373,0.1252 3.46467,0.26079 5.18313,0.40772 l -2.27296,4.29692 c -1.59162,-0.14268 -3.1918,-0.276855 -4.79982,-0.400635 z m 6.75541,0.544445 h 0.002 c 1.77318,0.15874 3.53637,0.33071 5.28811,0.512695 l -2.73195,4.274905 c -1.60222,-0.170555 -3.2137,-0.331655 -4.834,-0.483405 z M 81.280493,103.53471 a 0.62500305,0.62500305 0 0 0 -0.625,0.625 0.62500305,0.62500305 0 0 0 0.625,0.62499 0.62500305,0.62500305 0 0 0 0.62501,-0.62499 0.62500305,0.62500305 0 0 0 -0.62501,-0.625 z" /><path
   style="baseline-shift:baseline;display:inline;overflow:visible;vector-effect:none;fill:#ff6e6e;fill-opacity:1;stroke-width:4.72576;stroke-linejoin:round;stroke-miterlimit:0;enable-background:accumulate;stop-color:#000000"
   d="m 149.4282,33.610461 c -2.40954,0 -4.37503,1.965505 -4.37503,4.37506 0,2.40951 1.96549,4.384225 4.37503,4.384225 2.40953,0 4.37502,-1.974715 4.37502,-4.384225 0,-2.409555 -1.96549,-4.37506 -4.37502,-4.37506 z m 0,1.25528 c 0.22535,0 0.1946,0.36142 0.40611,0.40583 -0.69218,0.27685 -1.43988,0.64479 -1.43988,1.430605 -3e-5,1.02851 0.85448,1.87371 1.88292,1.873755 0.78527,-4.5e-5 1.1532,-0.739325 1.43066,-1.4307 0.18269,0.3978 0.84915,0.37134 0.84915,0.83996 0,1.73377 -1.39519,3.128945 -3.12897,3.128945 -1.73379,0 -3.12897,-1.395175 -3.12897,-3.128945 0,-1.73382 1.39518,-3.11978 3.12897,-3.11978 z m 0.84915,1.20917 c 0.35268,0 0.61841,0.274965 0.61841,0.627595 2e-5,0.352445 -0.26574,0.62764 -0.61841,0.62764 -0.35268,0 -0.62765,-0.27496 -0.62763,-0.62764 0,-0.35244 0.27495,-0.627595 0.62763,-0.627595 z"
   id="path29" /><rect
   style="fill:#3c3c3c;fill-opacity:1;stroke-width:2.65302"
   id="rect8-5"
   width="160"
   height="19.541"
   x="0.052459717"
   y="65.458755" /><path
   id="label_left"
   style="fill:#bfff6a;fill-opacity:1;stroke-width:4.72443"
   d="m 7.5817929,65.458756 v 1.301275 h 0.64698 143.6603671 0.64698 V 65.458756 H 151.88914 8.2287729 Z m 64.1018801,3.47902 -0.0369,0.581055 c -0.007,0.10115 -0.0165,0.19408 -0.017,0.29542 v 0.0071 c 0,1.74951 1.02178,3.301045 2.55617,4.375025 1.5344,1.07398 3.60365,1.706685 5.87649,1.70655 2.27284,1.35e-4 4.33478,-0.63257 5.86917,-1.70655 1.5344,-1.07398 2.55617,-2.625515 2.55617,-4.375025 v -0.0071 c -3.9e-4,-0.10134 -0.002,-0.19427 -0.01,-0.29542 l -0.0463,-0.581055 z m -58.54521,0.922855 c -0.6506,0 -1.15711,0.210615 -1.51856,0.63233 -0.36145,0.415655 -0.542,0.97357 -0.542,1.672365 0,0.590365 0.16298,1.1107 0.48829,1.56251 0.3253,0.445795 0.82807,0.66895 1.5088,0.66895 0.95783,0 1.57088,-0.468945 1.83594,-1.4087 l -0.85938,-0.28077 c -0.14457,0.62048 -0.47184,0.93018 -0.98389,0.93018 -0.71687,0 -1.07666,-0.511555 -1.07666,-1.535655 0,-0.987955 0.36483,-1.48194 1.09375,-1.48194 0.50603,0 0.81572,0.24449 0.93018,0.732425 l 0.87647,-0.207495 c -0.24097,-0.855445 -0.82522,-1.2842 -1.75294,-1.2842 z m 107.493207,0 v 5.854515 h 1.12061 v -2.119145 c 0,-0.907635 0.30926,-1.36231 0.92773,-1.36231 0.28116,0 0.46588,0.08523 0.55421,0.25389 0.0964,0.16866 0.14405,0.49637 0.14405,0.986335 v 2.24122 h 1.12061 v -2.49269 c 0,-0.610435 -0.1037,-1.06929 -0.31252,-1.374515 -0.20882,-0.313275 -0.58664,-0.46876 -1.13282,-0.46876 -0.498,0 -0.9318,0.211515 -1.30128,0.63721 v -2.15577 z m -105.151887,0.09033 v 4.392115 h 0.88624 v -1.655285 h 0.57617 c 0.53615,0 0.91725,-0.04015 1.14014,-0.124485 0.22892,-0.09038 0.41321,-0.240855 0.55176,-0.451655 0.13856,-0.216855 0.20752,-0.490135 0.20752,-0.815435 0,-0.36142 -0.0903,-0.65357 -0.27099,-0.876465 -0.1747,-0.2289 -0.37656,-0.36312 -0.60548,-0.405265 -0.22289,-0.04205 -0.57894,-0.0635 -1.0669,-0.0635 z m 120.647567,0.0045 -1.13282,0.65186 v 0.84229 h -0.51758 v 0.89356 h 0.51758 v 1.85548 c 0,0.594365 0.0643,1.00729 0.19285,1.24024 0.13654,0.23296 0.43749,0.349135 0.90332,0.349135 0.3293,0 0.62605,-0.05604 0.89112,-0.168475 l -0.0976,-0.866705 c -0.20084,0.07228 -0.35211,0.10743 -0.45652,0.10743 -0.12048,0 -0.20155,-0.04765 -0.24171,-0.144045 -0.0401,-0.09638 -0.0586,-0.318665 -0.0586,-0.664065 v -1.708995 h 0.75684 v -0.893405 h -0.75684 z m -63.020327,0.227055 h 13.91364 c -0.13875,1.111425 -0.64895,2.18311 -1.79933,2.9883 -1.28968,0.902695 -3.12233,1.48694 -5.15871,1.48682 -2.03639,1.2e-4 -3.8666,-0.584125 -5.15628,-1.48682 -1.15037,-0.80519 -1.66057,-1.876875 -1.79932,-2.9883 z m 71.103857,0.24416 c -0.89157,0 -1.5101,0.265795 -1.85548,0.7959 -0.16063,0.26509 -0.2417,0.48911 -0.2417,0.673835 0,0.361465 0.27831,0.71837 0.83252,1.071785 -0.72289,0.31323 -1.08398,0.76375 -1.08398,1.3501 0,0.27307 0.0744,0.538865 0.22705,0.7959 0.20882,0.297215 0.49549,0.52541 0.85694,0.68604 0.3695,0.16063 0.80745,0.241705 1.31348,0.241705 1.06828,0 1.81134,-0.309265 2.22902,-0.927745 0.24902,-0.248975 0.37351,-0.54817 0.37351,-0.893555 0,-0.297165 -0.1019,-0.55634 -0.30274,-0.781255 -0.19276,-0.23296 -0.47699,-0.39085 -0.8545,-0.47117 0.28116,-0.08036 0.50517,-0.217415 0.67384,-0.410175 0.16866,-0.200785 0.25389,-0.42066 0.25389,-0.66162 0,-0.29717 -0.13706,-0.589745 -0.41018,-0.87891 -0.20882,-0.20887 -0.47879,-0.358445 -0.80811,-0.44679 -0.32934,-0.09638 -0.72972,-0.14405 -1.20362,-0.14405 z m 5.67385,0 c -0.89157,0 -1.51009,0.265795 -1.85547,0.7959 -0.16064,0.26509 -0.23925,0.48911 -0.23925,0.673835 0,0.361465 0.27586,0.71837 0.83008,1.071785 -0.72289,0.31323 -1.08399,0.76375 -1.08399,1.3501 0,0.27307 0.0769,0.538865 0.22952,0.7959 0.20882,0.297215 0.49304,0.52541 0.85449,0.68604 0.3695,0.16063 0.80746,0.241705 1.31348,0.241705 1.06828,0 1.81135,-0.309265 2.22902,-0.927745 0.24902,-0.248975 0.37351,-0.54817 0.37351,-0.893555 0,-0.297165 -0.0995,-0.55634 -0.30028,-0.781255 -0.19276,-0.23296 -0.47943,-0.39085 -0.85694,-0.47117 0.28115,-0.08036 0.50761,-0.217415 0.67628,-0.410175 0.16866,-0.200785 0.25148,-0.42066 0.25148,-0.66162 0,-0.29717 -0.13706,-0.589745 -0.41018,-0.87891 -0.20882,-0.20887 -0.47635,-0.358445 -0.80567,-0.44679 -0.32934,-0.09638 -0.73216,-0.14405 -1.20606,-0.14405 z m -133.518707,0.26367 h 0.43213 c 0.46385,0 0.76851,0.0463 0.91309,0.136725 0.14458,0.09038 0.21728,0.253375 0.21728,0.488285 0,0.240945 -0.0815,0.405265 -0.24414,0.49561 -0.16265,0.08433 -0.44095,0.126945 -0.83252,0.126945 h -0.48584 z m -7.0044301,0.119625 c -0.43374,0 -0.76474,0.180565 -0.99366,0.541995 v -0.471215 h -0.78614 v 4.39211 h 0.83985 v -1.608895 c 0.28916,0.31328 0.59885,0.471215 0.93018,0.471215 0.40964,0 0.7318601,-0.159215 0.9668001,-0.47852 0.24097,-0.319275 0.36378,-0.72169 0.36378,-1.20362 0,-0.451795 -0.11533,-0.83795 -0.34425,-1.15723 -0.22891,-0.325325 -0.5548701,-0.48584 -0.9765601,-0.48584 z M 144.47455,71.222556 c 0.16871,0 0.31829,0.0227 0.44679,0.07082 0.13658,0.04015 0.24856,0.09199 0.3369,0.156235 0.12048,0.11249 0.18067,0.24534 0.18067,0.39794 0,0.27312 -0.14297,0.48705 -0.43215,0.63965 -0.12052,0.0882 -0.23494,0.14419 -0.33935,0.168475 -0.10446,0.01605 -0.229,0.02455 -0.37352,0.02455 -0.28115,0 -0.50099,-0.07271 -0.66162,-0.217275 -0.20084,-0.176695 -0.30029,-0.36142 -0.30029,-0.5542 0,-0.20887 0.0995,-0.37687 0.30029,-0.505375 0.12052,-0.07214 0.24501,-0.11981 0.37351,-0.144045 0.12855,-0.0241 0.28403,-0.03685 0.46876,-0.03685 z m 5.6763,0 c 0.16871,0 0.31582,0.0227 0.44433,0.07082 0.13659,0.04015 0.25101,0.09199 0.33936,0.156235 0.12047,0.11249 0.18066,0.24534 0.18066,0.39794 0,0.27312 -0.14542,0.48705 -0.43455,0.63965 -0.12052,0.0882 -0.23249,0.14419 -0.3369,0.168475 -0.10446,0.01605 -0.22899,0.02455 -0.37351,0.02455 -0.28115,0 -0.50344,-0.07271 -0.66407,-0.217275 -0.20084,-0.176695 -0.30028,-0.36142 -0.30028,-0.5542 0,-0.20887 0.0995,-0.37687 0.30028,-0.505375 0.12052,-0.07214 0.24501,-0.11981 0.37351,-0.144045 0.12851,-0.0241 0.28645,-0.03685 0.47117,-0.03685 z m -32.29019,0.13181 c -1.18876,0 -1.78224,0.4338 -1.78224,1.30128 0,0.32126 0.11201,0.59296 0.3369,0.817875 0.22488,0.22488 0.85595,0.45553 1.8921,0.688475 0.30525,0.0643 0.45652,0.18463 0.45652,0.361325 0,0.305245 -0.2675,0.456525 -0.80567,0.456525 -0.50603,0 -0.81112,-0.224035 -0.91553,-0.673835 l -1.12061,0.180665 c 0.22488,0.867475 0.9036,1.301275 2.03614,1.301275 0.53012,0 0.98236,-0.120335 1.35987,-0.361325 0.37754,-0.24095 0.56641,-0.593705 0.56641,-1.059575 0,-0.361465 -0.11617,-0.63559 -0.34913,-0.820315 -0.22489,-0.192805 -0.62948,-0.352445 -1.21583,-0.480965 -0.79518,-0.17674 -1.19385,-0.361415 -1.19385,-0.554195 0,-0.232965 0.25327,-0.34914 0.75928,-0.34914 0.44178,0 0.70755,0.16805 0.7959,0.50538 l 1.05958,-0.19285 c -0.21686,-0.74699 -0.84375,-1.120615 -1.87989,-1.120615 z m 21.32579,0 c -0.59439,0 -1.0675,0.209765 -1.42091,0.62745 -0.34541,0.417685 -0.51758,0.95931 -0.51758,1.62598 0,0.610445 0.15968,1.12704 0.48096,1.552745 0.32126,0.417685 0.84623,0.62744 1.57715,0.62744 0.93173,0 1.54608,-0.41712 1.84327,-1.252445 l -1.11817,-0.192855 c -0.11244,0.40966 -0.35145,0.6128 -0.71289,0.6128 -0.57832,0 -0.88758,-0.352725 -0.92774,-1.05958 h 2.81984 c 0,-1.69479 -0.67453,-2.541515 -2.02393,-2.541515 z m -6.63822,0.02455 c -0.56225,0 -1.03119,0.24071 -1.4087,0.72266 v -0.62744 h -1.0376 v 4.24074 h 1.12061 v -1.91407 c 0,-0.755035 0.0935,-1.205535 0.27832,-1.350105 0.18472,-0.144565 0.40039,-0.217275 0.64941,-0.217275 0.28115,0 0.46588,0.09775 0.55421,0.290505 0.0964,0.184725 0.14404,0.52496 0.14404,1.02296 v 2.167975 h 1.12062 v -2.63673 c 0,-1.132535 -0.47311,-1.699225 -1.42091,-1.699225 z m -7.20463,0.07082 v 2.688005 c 0,1.100405 0.46895,1.650395 1.4087,1.650395 0.60242,0 1.07379,-0.244915 1.41114,-0.734865 v 0.639655 h 1.03516 v -4.243175 h -1.12061 v 1.78468 c 0,0.698785 -0.0643,1.155195 -0.19285,1.372075 -0.12047,0.216895 -0.36123,0.327165 -0.72266,0.327165 -0.28115,0 -0.47003,-0.101905 -0.56641,-0.30274 -0.0883,-0.20882 -0.13186,-0.61759 -0.13186,-1.228035 v -1.953145 z m -116.2163871,0.0293 c 0.46386,0 0.69581,0.32726 0.69581,0.98389 0,0.668675 -0.22691,1.003425 -0.67872,1.003425 -0.48795,0 -0.72998,-0.351025 -0.72998,-1.04981 0,-0.626505 0.23698,-0.937505 0.71289,-0.937505 z M 139.25969,72.209021 c 0.538,0 0.81803,0.3343 0.84228,1.00098 h -1.67481 c 0,-0.66667 0.27832,-1.00098 0.83253,-1.00098 z m 5.09524,1.181645 c 0.36146,0 0.63141,0.107815 0.80811,0.32471 0.12047,0.136535 0.18066,0.30454 0.18066,0.50538 0,0.321305 -0.0894,0.547765 -0.26613,0.67627 -0.20882,0.17669 -0.47635,0.26367 -0.80567,0.26367 -0.31327,0 -0.57487,-0.103705 -0.78369,-0.312525 -0.12047,-0.12047 -0.18066,-0.31356 -0.18066,-0.578615 0,-0.265085 0.0911,-0.47658 0.27586,-0.63721 0.18472,-0.16063 0.44216,-0.241705 0.77149,-0.241705 z m 5.67629,0 c 0.36147,0 0.62898,0.107815 0.80567,0.32471 0.12047,0.136535 0.18066,0.30454 0.18066,0.50538 0,0.321305 -0.087,0.547765 -0.26367,0.67627 -0.20882,0.17669 -0.47879,0.26367 -0.80811,0.26367 -0.31327,0 -0.57487,-0.103705 -0.78369,-0.312525 -0.12047,-0.12047 -0.18066,-0.31356 -0.18066,-0.578615 0,-0.265085 0.0936,-0.47658 0.27831,-0.63721 0.18473,-0.16063 0.44216,-0.241705 0.77149,-0.241705 z" /><path
   id="path3"
   style="fill:#ff6e6e;fill-opacity:1;stroke-width:4.72443"
   d="m 133.37099,18.105011 c -0.15053,0.0045 -0.3086,0.01795 -0.47122,0.0416 l 0.1465,0.92774 c 0.44443,-0.06189 0.81912,-0.0378 1.12305,0.07814 0.30393,0.11433 0.53244,0.286345 0.68604,0.515135 0.12747,0.182835 0.2058,0.385515 0.23193,0.607915 0.0226,0.22205 -0.008,0.437955 -0.0928,0.646975 -0.10786,0.26126 -0.30733,0.483485 -0.59815,0.66651 -0.19606,0.12756 -0.43994,0.2177 -0.72754,0.27345 v 0.0025 c -0.16011,0.0095 -0.32485,0.02505 -0.49806,0.04395 l 0.10252,0.952155 h 0.0147 v 0.0045 c 0.11764,-0.0095 0.23231,-0.02505 0.34669,-0.0392 0.44768,-0.03305 0.81593,-0.0279 1.10352,0.01465 0.35948,0.05906 0.60898,0.159495 0.74951,0.300285 0.0751,0.07228 0.10744,0.14778 0.0977,0.22951 -0.0165,0.12756 -0.0955,0.264095 -0.23925,0.40772 -0.22875,0.24189 -0.56791,0.429925 -1.01563,0.56397 -0.44773,0.130865 -0.9758,0.158125 -1.58692,0.08301 l -0.12208,0.94483 c 0.77452,0.09449 1.45361,0.0494 2.03858,-0.136725 0.58497,-0.18614 1.03555,-0.44551 1.35255,-0.77881 0.2941,-0.303785 0.4629,-0.630175 0.50538,-0.97657 0.049,-0.39213 -0.0826,-0.741005 -0.39308,-1.044925 -0.17976,-0.17339 -0.43408,-0.3086 -0.76416,-0.410175 0.21893,-0.218745 0.38447,-0.466305 0.49561,-0.73731 0.15032,-0.362835 0.20362,-0.73018 0.16115,-1.10596 -0.0392,-0.3789 -0.16838,-0.72959 -0.39062,-1.049815 -0.24836,-0.36614 -0.60367,-0.642925 -1.06446,-0.83252 -0.34313,-0.142205 -0.73981,-0.206505 -1.19141,-0.19044 z m -17.66856,6.38431 -2.38038,5.422385 c -1.68088,-0.11589 -3.37086,-0.21997 -5.06838,-0.31493 l -0.39548,1.16944 c 1.65976,0.09208 3.30942,0.19564 4.95363,0.307605 l -1.88721,4.296895 c -1.5003,-0.109415 -3.00786,-0.20995 -4.52151,-0.30274 l -0.39553,1.166995 c 11.43304,0.6947 22.48983,1.863305 33.04948,3.454605 l 0.83009,-1.083985 c -4.78966,-0.73059 -9.68273,-1.374465 -14.66561,-1.92628 l 2.73439,-4.27981 h 0.002 c 5.1188,0.55257 10.14087,1.20263 15.05623,1.943375 l 0.83008,-1.083995 c -4.95159,-0.75534 -10.0133,-1.418375 -15.17098,-1.982425 l 2.42189,-3.789085 -0.99853,-1.00098 -2.95412,4.626485 h -0.002 c -1.78944,-0.188035 -3.59108,-0.3652 -5.40286,-0.529785 l 2.41212,-4.56057 -1.24756,-0.75684 -2.73683,5.178245 c -1.75046,-0.15165 -3.51081,-0.29093 -5.28079,-0.419905 l 2.13868,-4.87307 z m -1.32568,6.69437 c 1.73729,0.125195 3.46466,0.260785 5.18313,0.407715 l -2.27296,4.296895 c -1.59162,-0.142675 -3.1918,-0.276615 -4.79983,-0.400395 z m 6.7554,0.544435 h 0.002 c 1.77318,0.15874 3.53637,0.33071 5.28811,0.5127 l -2.73195,4.27492 c -1.60222,-0.170555 -3.2137,-0.331655 -4.834,-0.4834 z" /><ellipse
   style="fill:#ff6e6e;stroke-width:4.72443"
   id="LED"
   cx="149.45415"
   cy="37.890793"
   rx="3.2469745"
   ry="3.3191295" /><rect
   style="fill:#000000;fill-opacity:1;stroke-width:3.44348"
   id="rect4"
   width="160"
   height="85"
   x="-3.2031251e-09"
   y="85" /><path
   style="fill:#b3eaff;fill-opacity:1;stroke:#ffffff;stroke-width:0.25;stroke-dasharray:none;stroke-opacity:1"
   d="m 73.678569,142.72637 -1.09283,-1.36044 c -0.71367,1.31584 -1.33815,1.8288 -2.20794,1.8288 -1.04821,0 -2.05183,-1.11512 -2.96622,-3.32307 -0.57985,-1.38275 -1.27125,-3.45689 -2.18565,-6.35621 1.27124,-0.40142 1.78419,-0.64677 2.47558,-1.09283 1.04821,-0.71368 1.65039,-1.73959 1.65039,-2.81011 0,-1.38275 -1.11513,-2.14104 -3.14466,-2.14104 l -1.29354,0.0443 0.17842,-0.71369 -2.02953,0.95903 c -3.65761,0.62448 -5.597922,2.31945 -5.597922,4.92883 0,0.57985 0.06675,0.95902 0.31221,1.78421 l 1.873412,-0.95901 c -0.178425,-0.75828 -0.245355,-1.13742 -0.245355,-1.65039 0,-1.07052 0.33456,-1.91801 1.025925,-2.56478 0.62448,-0.55755 1.24893,-0.80289 2.6763,-0.98131 l -0.20072,0.80289 -0.37914,1.56117 -1.11512,4.4159 c -0.9367,3.76912 -1.53886,4.34898 -4.438192,4.32669 l -0.86979,0.9813 1.315845,0.0225 c 1.159722,0 3.166947,-0.0443 3.836027,-0.0893 l 1.65039,-0.84748 -2.94393,-0.0667 c 2.52018,-2.52018 2.65399,-2.72091 3.36768,-5.55331 l 0.0443,-0.0225 c 0.24535,-0.0225 0.37914,0.17843 0.51298,0.73598 0.8475,3.72452 1.58348,5.84325 2.49789,7.20371 0.959,1.42737 2.27486,2.11873 4.03674,2.11873 1.24895,0 2.00723,-0.26763 3.25616,-1.18203 z m -6.26699,-12.84623 c 0,1.11513 -0.6022,2.18565 -1.53888,2.7655 -0.66906,0.40143 -1.20433,0.55757 -2.40867,0.71369 l 1.29354,-5.21879 h 0.69141 c 1.38275,0 1.96262,0.51299 1.96262,1.7396 z m 8.67893,8.54186 0.0893,-0.66906 c -1.09283,0.66906 -2.18565,1.22664 -2.38637,1.22664 -0.24535,0 -0.42378,-0.26765 -0.42378,-0.6245 0,-0.80287 0.26763,-1.65037 0.46835,-2.49787 l 0.69141,-2.83243 c 0.11145,-0.46834 0.28992,-1.18201 0.28992,-1.44966 0,-0.17842 -0.0667,-0.28992 -0.26763,-0.28992 -0.51299,0 -2.83242,1.51658 -3.5015,1.96264 l -0.0225,0.64675 c 0.513,-0.28992 1.31585,-0.82518 1.62809,-0.82518 0.24535,0 0.26763,0.24534 0.26763,0.44606 0,0.49063 -0.49062,2.14104 -0.73598,3.16695 -0.24535,1.02591 -0.64677,2.07412 -0.64677,3.07774 0,0.57984 0.22299,0.93671 0.57984,0.93671 0.37913,0 0.78059,-0.20072 2.07413,-1.04822 0.35685,-0.24535 0.53527,-0.37914 1.89571,-1.22664 z m 0.15613,-10.34836 c -0.40141,-0.64677 -0.42376,-0.71368 -0.64677,-1.22664 -0.0225,-0.0892 -0.0667,-0.20071 -0.11145,-0.28992 -0.1338,0.11145 -0.22299,0.17843 -0.31219,0.24536 -0.60221,0.51298 -0.64677,0.53526 -1.22664,0.9367 0.17842,0.53526 0.33456,0.80289 0.8475,1.56117 l 0.73597,-0.66904 c 0.1338,-0.0892 0.20072,-0.15615 0.71369,-0.55757 z m 9.63794,3.21156 -2.5871,0.0443 c -1.36045,0.0225 -1.73959,0.0892 -2.40867,0.49062 -1.07052,0.66906 -1.8288,1.29356 -2.29714,1.89572 -0.66906,0.86979 -1.47198,3.5684 -1.47198,4.92885 0,0.55757 0.1338,0.95901 0.49063,1.44966 l -2.56479,2.20796 c -1.11511,0.9813 -1.62807,1.71729 -1.62807,2.34175 0,0.8252 0.9813,1.29354 2.6763,1.29354 2.05182,0 3.6576,-0.57984 5.15187,-1.87341 0.959,-0.82518 1.18203,-1.29354 1.65038,-3.50148 l 1.11513,-5.01807 c 0.0892,-0.49062 0.2007,-0.9144 0.28992,-1.27123 l 0.33456,-1.24895 c 0.0443,-0.2007 0.0893,-0.35685 0.11145,-0.49062 0.40141,-0.11145 0.42378,-0.11145 1.13742,-1.24895 z m -4.79504,10.37066 c -0.28992,1.33815 -0.49063,1.85109 -0.89209,2.27486 -0.49064,0.55755 -1.40507,0.84748 -2.72091,0.84748 -1.44966,0 -2.23025,-0.40141 -2.23025,-1.11513 0,-0.9144 0.60219,-1.47195 6.80225,-6.22239 z m 3.32307,-9.14403 c -0.11145,0.0892 -0.24535,0.20071 -0.35685,0.26764 -0.71368,0.51299 -0.8698,0.71368 -1.07052,1.24894 l -0.73597,2.60938 c -0.44607,0.28992 -0.98132,0.69141 -2.85473,2.09643 -0.40141,-0.40141 -0.55755,-0.75828 -0.55755,-1.29354 0,-0.75828 0.53526,-2.6986 1.00361,-3.76911 0.44605,-0.91442 0.9144,-1.13744 2.54248,-1.13744 0.15614,0 0.42377,0 0.71367,-0.0225 h 0.60221 c 0.24535,0 0.46834,0 0.71368,0 z m 11.37752,5.70945 0.15613,-0.64677 c -1.8957,1.11513 -2.20794,1.27124 -2.49787,1.27124 -0.2007,0 -0.33456,-0.22299 -0.33456,-0.57984 0,-0.44606 0.1338,-1.09283 0.51298,-2.54249 0.71369,-2.63169 1.07052,-3.99215 1.07052,-4.08135 0,-0.22299 -0.17842,-0.37913 -0.46834,-0.37913 -0.46835,0 -2.00723,0.8475 -4.79502,2.654 l 0.75828,-2.98853 c 0.53526,-2.18565 0.75828,-2.87703 1.04821,-3.43458 0.3122,-0.62449 0.78059,-0.91441 1.38275,-0.91441 0.28992,0 0.46834,0.0225 1.33815,0.20071 l 0.95895,-1.36048 c -0.40142,-0.0893 -0.57984,-0.11145 -0.9144,-0.11145 -1.22664,0 -1.8734,0.33456 -3.50148,1.7619 -1.15974,1.02591 -1.33817,1.40505 -2.02953,4.34896 l -2.14104,9.21094 1.58347,-0.64676 1.31585,-5.19649 c 0.223,-0.15614 0.49063,-0.31221 0.53527,-0.33456 1.53888,-0.98132 2.47559,-1.47197 2.72091,-1.47197 0.15614,0 0.26763,0.15613 0.26763,0.35685 0,0.26763 -0.0892,0.69141 -0.40141,1.89572 -0.69134,2.6763 -0.95901,3.96984 -0.95901,4.572 0,0.26764 0.0892,0.53527 0.33456,0.95901 1.22664,-0.62448 2.83242,-1.65038 4.05906,-2.54249 z m 7.318481,-0.0443 0.0443,-0.55756 c -1.695,1.00362 -2.40867,1.38276 -2.72091,1.38276 -0.28992,0 -0.646751,-0.57984 -0.646751,-1.04822 0,-0.31221 0.379121,-2.02953 0.959011,-4.37128 0.31219,-0.0225 0.53526,-0.0225 0.64677,-0.0225 l 0.89209,-0.0225 c 0.0892,0 0.3122,-0.0225 0.66905,-0.0667 l 0.8475,-0.64678 h -2.85471 l 0.89209,-3.613 c -0.42377,0.223 -0.6022,0.28992 -0.9367,0.44607 -0.15614,0.0892 -0.33456,0.15613 -0.51298,0.24534 -0.0892,0.0442 -0.20072,0.0892 -0.31221,0.1338 l -0.624481,2.78781 c -0.20072,0.0225 -0.33456,0.0225 -0.40142,0.0225 h -0.53527 c 0,0 -0.15614,0 -0.33456,0.0225 -0.24536,0.15613 -0.26765,0.15613 -0.64677,0.46835 -0.0668,0.0443 -0.17843,0.1338 -0.33457,0.24535 h 0.53526 1.02592 0.49063 c -1.18203,4.95116 -1.18203,4.95116 -1.18203,5.64252 0,0.71369 0.46835,1.49427 0.8921,1.49427 0.49063,0 2.007221,-0.9367 4.148261,-2.54248 z"
   id="text12"
   aria-label="Right" /><rect
   style="fill:#ffffff;fill-opacity:1;stroke-width:4.72443"
   id="rect6"
   width="7.5000367"
   height="1.2500061"
   x="7.500061"
   y="98.004265" /><path
   id="path6"
   style="fill:#ffffff;fill-opacity:1;stroke-width:4.72443"
   d="m 148.12572,94.860361 v 3.12502 h -3.12501 v 1.250039 h 3.12501 v 3.12498 h 1.25001 v -3.12498 h 3.12502 v -1.250039 h -3.12502 v -3.12502 z" /><path
   id="path8"
   style="fill:#ffffff;fill-opacity:1;stroke-width:4.72443"
   d="m 87.275703,97.361996 c -0.15052,0.0045 -0.30614,0.0189 -0.46876,0.0425 l 0.1465,0.92528 c 0.44448,-0.06189 0.81915,-0.0378 1.12306,0.07795 0.30392,0.11433 0.53243,0.2863 0.68604,0.515105 0.12746,0.182839 0.20334,0.385519 0.22951,0.607939 0.0226,0.22205 -0.008,0.43796 -0.0928,0.64697 -0.10781,0.26126 -0.30727,0.4835 -0.59815,0.66652 -0.19607,0.12756 -0.43748,0.2178 -0.7251,0.27354 v 0.002 c -0.16016,0.01 -0.32731,0.0236 -0.50049,0.0425 l 0.10252,0.95212 h 0.0146 v 0.005 c 0.11769,-0.01 0.23476,-0.0236 0.34914,-0.0378 0.44768,-0.0331 0.81593,-0.0284 1.10351,0.0142 0.35949,0.0591 0.60899,0.15969 0.74952,0.30047 0.0751,0.0723 0.10744,0.14788 0.0977,0.22961 -0.0165,0.12756 -0.0955,0.2641 -0.23925,0.40772 -0.22875,0.24189 -0.56791,0.42756 -1.01563,0.5615 -0.44773,0.13086 -0.97825,0.16063 -1.58937,0.0855 l -0.12207,0.94483 c 0.77451,0.0945 1.45361,0.0496 2.03858,-0.13653 0.58498,-0.18614 1.038,-0.44552 1.35498,-0.77882 0.29411,-0.30379 0.46045,-0.63015 0.50294,-0.97654 0.049,-0.39213 -0.0802,-0.74103 -0.39061,-1.04495 -0.17972,-0.17292 -0.43408,-0.30898 -0.76417,-0.41008 0.21893,-0.21922 0.38207,-0.46347 0.49317,-0.73484 0.15034,-0.36284 0.20608,-0.73262 0.16356,-1.1084 -0.0392,-0.3789 -0.17083,-0.729549 -0.39307,-1.049819 -0.24837,-0.366145 -0.60367,-0.6429 -1.06446,-0.83254 -0.34314,-0.142205 -0.73981,-0.20646 -1.19142,-0.190395 z m 24.340947,0.342045 c -0.3242,0 -0.62347,0.107245 -0.90089,0.32457 -0.27742,0.214015 -0.51878,0.510995 -0.72266,0.888665 -0.35764,0.678474 -0.55407,1.520844 -0.59082,2.526864 l -0.004,0.1611 c 0,0.93251 0.16781,1.73458 0.50537,2.4097 0.18383,0.36425 0.40583,0.65211 0.66651,0.85938 0.26069,0.20787 0.54918,0.31512 0.86669,0.32456 h 0.017 0.005 0.005 v 0.002 h -0.003 v 0.002 h 0.008 c 0.32419,0 0.62346,-0.10582 0.90088,-0.31984 0.27742,-0.21732 0.51879,-0.51586 0.72266,-0.89358 0.35764,-0.67847 0.55407,-1.52084 0.59082,-2.52686 l 0.008,-0.1611 c 0,-0.93247 -0.17022,-1.73453 -0.50781,-2.409654 -0.18383,-0.364255 -0.40583,-0.652165 -0.66651,-0.859425 -0.2607,-0.207875 -0.54919,-0.31512 -0.8667,-0.324565 h -0.0146 -0.01 v -0.0045 z m -37.981147,0.40536 -3.09327,0.0189 -0.1123,4.423859 0.55664,-0.0832 c 0.52597,-0.0798 0.95939,-0.0709 1.30127,0.0236 0.34186,0.0921 0.59172,0.23481 0.74952,0.43229 0.13791,0.16772 0.2058,0.35055 0.20263,0.54444 -0.004,0.19749 -0.0791,0.38268 -0.22706,0.55664 -0.1808,0.21023 -0.45935,0.3652 -0.8374,0.46394 -0.37805,0.095 -0.86017,0.0969 -1.44532,0.005 l -0.16356,0.93019 c 0.77581,0.12142 1.42717,0.10394 1.95314,-0.0538 0.52598,-0.16111 0.92749,-0.403 1.20362,-0.72511 0.2991,-0.3548 0.45236,-0.74377 0.45898,-1.16453 0.007,-0.42094 -0.13394,-0.80551 -0.41991,-1.15725 -0.22025,-0.26976 -0.52838,-0.4843 -0.92286,-0.64209 -0.39449,-0.15685 -0.87257,-0.22394 -1.43799,-0.20504 l 0.0635,-2.41211 2.17531,-0.009 z m -19.83896,0.17102 -0.01,0.964359 2.13136,0.0142 -1.70411,6.26955 0.93018,0.25134 1.86768,-6.865259 -0.46143,-0.607895 z m 57.815217,0.385515 h 0.005 0.0123 0.005 c 0.25541,0.0236 0.48504,0.24189 0.69092,0.656744 0.26736,0.53141 0.4004,1.19122 0.4004,1.97996 v 0.11717 0.0236 c -0.0302,0.84558 -0.19172,1.54569 -0.48584,2.09718 -0.24733,0.46771 -0.50412,0.70068 -0.77149,0.70068 h -0.01 c -0.002,-1.5e-4 -0.004,1.4e-4 -0.005,0 h -0.005 c -0.25035,-0.0237 -0.48054,-0.24426 -0.68849,-0.65675 -0.26736,-0.5314 -0.40039,-1.19122 -0.40039,-1.98001 v -0.1148 -0.0236 c 0.0302,-0.84563 0.19172,-1.54328 0.48584,-2.09477 0.24581,-0.464884 0.50103,-0.700204 0.76661,-0.703089 z m -74.473027,1.093754 -1.3501,1.5747 0.7129,0.61281 0.50293,-0.58106 -0.0928,5.76419 0.94483,0.0142 0.10984,-7.07035 z m 3.61086,0.12709 c -0.31866,0 -0.61357,0.1063 -0.88623,0.31984 -0.27265,0.21024 -0.51004,0.50282 -0.71045,0.87407 -0.3515,0.6669 -0.54493,1.4941 -0.58106,2.48293 l -0.005,0.15637 c 0,0.91654 0.16625,1.70699 0.49805,2.37063 0.18066,0.35811 0.39803,0.63851 0.6543,0.84227 0.25625,0.2041 0.5424,0.31276 0.8545,0.32221 h 0.0146 0.005 0.002 v 0.002 h -0.002 v 0.002 h 0.01 c 0.31867,0 0.61357,-0.10677 0.88624,-0.31748 0.27264,-0.21355 0.51004,-0.50523 0.71045,-0.87648 0.35155,-0.66685 0.54493,-1.49405 0.58106,-2.48293 l 0.005,-0.15874 c 0,-0.91658 -0.16625,-1.70698 -0.49805,-2.37062 -0.18066,-0.35811 -0.40049,-0.63851 -0.65674,-0.84227 -0.25625,-0.2041 -0.53996,-0.3104 -0.85206,-0.31985 h -0.0146 -0.01 v -0.004 z m -0.005,0.94725 h 0.005 0.0146 c 0.25087,0.0236 0.47889,0.23669 0.68116,0.64455 0.26282,0.52234 0.39307,1.17048 0.39307,1.94581 v 0.1148 0.0236 c -0.0298,0.83117 -0.1894,1.51848 -0.47852,2.06056 -0.24298,0.45969 -0.49417,0.69067 -0.75684,0.6909 h -0.002 -0.008 c -0.24968,-0.0189 -0.47907,-0.23622 -0.68604,-0.64696 -0.26282,-0.52238 -0.39307,-1.17053 -0.39307,-1.94581 v -0.11244 -0.0236 c 0.0298,-0.83117 0.18699,-1.51852 0.47608,-2.06056 0.2416,-0.45685 0.49335,-0.68561 0.75439,-0.68849 z m 92.573707,2.27051 c -0.15053,0.004 -0.3086,0.0189 -0.47122,0.0425 l 0.14651,0.92774 c 0.44442,-0.0619 0.81911,-0.0378 1.12305,0.078 0.30392,0.11433 0.53243,0.2863 0.68604,0.5151 0.12746,0.18284 0.20579,0.38552 0.23192,0.60794 0.0227,0.22205 -0.008,0.43796 -0.0928,0.64697 -0.10786,0.26126 -0.30732,0.48349 -0.59815,0.66652 -0.19606,0.12756 -0.43994,0.2178 -0.72754,0.27354 v 0.002 c -0.16012,0.01 -0.32486,0.0236 -0.49805,0.0425 l 0.10252,0.95212 h 0.0147 v 0.004 c 0.11764,-0.01 0.2323,-0.0236 0.34668,-0.0378 0.44768,-0.033 0.81593,-0.0283 1.10352,0.0142 0.35949,0.0591 0.60898,0.15968 0.74951,0.30047 0.0751,0.0723 0.10744,0.14788 0.0977,0.22961 -0.0166,0.12756 -0.0955,0.2641 -0.23924,0.40772 -0.22876,0.24189 -0.56792,0.42992 -1.01564,0.56395 -0.44773,0.13087 -0.9758,0.15827 -1.58692,0.0832 l -0.12211,0.94487 c 0.77452,0.0945 1.45362,0.0496 2.03859,-0.13653 0.58497,-0.18615 1.03554,-0.44552 1.35254,-0.77883 0.2941,-0.30378 0.4629,-0.63014 0.50538,-0.97654 0.049,-0.39212 -0.0826,-0.74102 -0.39308,-1.04495 -0.17976,-0.17338 -0.43408,-0.3085 -0.76416,-0.41008 0.21893,-0.21874 0.38448,-0.4663 0.49561,-0.73729 0.15033,-0.36284 0.20362,-0.73016 0.16115,-1.10594 -0.0392,-0.3789 -0.16838,-0.7296 -0.39062,-1.04982 -0.24836,-0.36614 -0.60367,-0.64295 -1.06445,-0.83254 -0.34314,-0.14221 -0.73982,-0.20646 -1.19142,-0.1904 z m -117.510377,0.59571 c -0.30661,0.0189 -0.60259,0.11433 -0.88867,0.28063 -0.32504,0.19228 -0.58399,0.47636 -0.77637,0.85451 -0.18907,0.37795 -0.25815,0.84817 -0.20509,1.40868 l 0.94727,-0.0902 c -0.0298,-0.34819 0.003,-0.63458 0.10252,-0.85691 0.10285,-0.22536 0.24571,-0.39213 0.42482,-0.49805 0.19904,-0.11197 0.40139,-0.15827 0.61035,-0.13937 0.19238,0.0189 0.35405,0.0954 0.4834,0.23433 0.11296,0.11905 0.17651,0.29338 0.19285,0.52247 0.0198,0.22866 -0.0326,0.51284 -0.15869,0.85451 -0.21227,0.54066 -0.49941,1.06791 -0.86426,1.58202 -0.36487,0.51076 -0.75171,1.01146 -1.15968,1.49902 -0.27529,0.33827 -0.5311,0.6592 -0.7666,0.9644 l 0.37351,0.76658 2.94923,0.0486 0.0147,-0.94975 -1.98976,-0.0378 c 0.0531,-0.0661 0.10564,-0.12992 0.15869,-0.19276 0.4279,-0.51746 0.83909,-1.05095 1.23048,-1.60158 0.39137,-0.55389 0.70757,-1.13689 0.94971,-1.7505 0.19238,-0.53405 0.26145,-0.9978 0.20509,-1.38917 -0.0564,-0.39496 -0.19928,-0.7141 -0.42482,-0.95944 -0.30185,-0.31889 -0.66745,-0.49918 -1.09864,-0.54203 -0.10446,-0.01 -0.20788,-0.0142 -0.31007,-0.01 z m 4.3262,0.0562 c -0.32173,0 -0.62069,0.10677 -0.896,0.3222 -0.27534,0.21213 -0.51548,0.5066 -0.71778,0.88135 -0.3549,0.67332 -0.54947,1.50898 -0.58594,2.50735 l -0.005,0.15874 c 0,0.92537 0.16791,1.72262 0.50293,2.39259 0.18241,0.36189 0.4029,0.64668 0.66162,0.85205 0.25871,0.20646 0.54429,0.31276 0.85938,0.32221 h 0.0147 0.005 0.005 v 0.002 0.002 h 0.005 c 0.32173,0 0.62069,-0.10535 0.896,-0.31748 0.27529,-0.21544 0.51544,-0.51142 0.71778,-0.88626 0.3549,-0.67332 0.54946,-1.50898 0.58594,-2.5073 l 0.005,-0.1611 c 0,-0.92538 -0.16796,-1.72263 -0.50294,-2.3926 -0.18241,-0.36189 -0.4029,-0.64427 -0.66162,-0.84959 -0.25871,-0.20599 -0.54428,-0.31512 -0.85938,-0.32457 h -0.0147 -0.0123 v -0.003 z m -0.005,0.95457 h 0.002 0.002 0.01 0.005 0.002 c 0.25195,0.0237 0.48024,0.24189 0.6836,0.65188 0.26537,0.52738 0.39794,1.18257 0.39794,1.96536 v 0.1148 0.0236 c -0.0298,0.83916 -0.19153,1.53039 -0.48341,2.07767 -0.24543,0.46441 -0.50125,0.69822 -0.7666,0.69822 h -0.01 c -0.2521,-0.0189 -0.48198,-0.23716 -0.69092,-0.65183 -0.26538,-0.52739 -0.39794,-1.18257 -0.39794,-1.96536 v -0.11481 -0.0236 c 0.0298,-0.83915 0.19153,-1.53043 0.4834,-2.07766 0.24468,-0.46299 0.49726,-0.69681 0.76172,-0.69827 z m 67.35141,3.01272 -1.20362,0.0515 -0.73975,11.55039 c -1.4321,-0.0142 -2.86833,-0.0236 -4.3091,-0.0236 -0.6716,0 -1.34198,0.002 -2.01173,0.005 l -0.33936,-11.47957 -1.23291,-0.0562 0.37351,11.54302 c -1.49983,0.009 -2.99487,0.0331 -4.48489,0.0586 l -1.45996,-11.4722 -1.1963,0.0803 1.35255,11.41853 c -1.71532,0.0378 -3.42318,0.0836 -5.12454,0.14173 l -2.31446,-11.41366 -1.26711,0.2074 2.28518,11.25251 c -1.54172,0.0572 -3.07749,0.12331 -4.60696,0.19796 h -0.002 l -3.22512,-11.09623 -1.3086,0.28583 3.16408,10.87895 c -4.17655,0.21732 -8.30479,0.49913 -12.38044,0.83986 l -5.35399,-10.64701 -1.29639,0.73489 5.05129,10.04887 c -5.29404,0.46488 -10.49826,1.03262 -15.59578,1.69678 h -0.002 l -7.46585,-9.62405 -1.02052,1.01807 6.84574,8.82325 c -3.51927,0.47509 -6.98737,0.99629 -10.40044,1.56252 l 1.00831,1.04736 c 19.18172,-3.13608 40.10661,-4.86329 62.00958,-4.86329 20.302747,0 39.763697,1.4848 57.776167,4.19922 l 0.83008,-1.08397 c -4.78965,-0.73059 -9.68272,-1.37448 -14.6656,-1.9263 l 2.73439,-4.27977 h 0.002 c 5.1188,0.55257 10.14087,1.20261 15.05624,1.94335 l 0.83007,-1.08397 c -4.95158,-0.75534 -10.01329,-1.41842 -15.17097,-1.98247 l 2.42189,-3.78904 -0.99854,-1.00101 -2.95412,4.62649 h -0.002 c -1.78943,-0.18803 -3.59107,-0.3652 -5.40285,-0.5298 l 2.41212,-4.56054 -1.24757,-0.75685 -2.73683,5.17826 c -1.75045,-0.15165 -3.51081,-0.29102 -5.28079,-0.42 l 2.13869,-4.87307 -1.32081,-0.6616 -2.38038,5.42237 c -1.80876,-0.12473 -3.62879,-0.23622 -5.45657,-0.33685 l 1.68946,-5.13433 -1.34522,-0.85446 -3.73781,11.36477 h -0.003 c -1.50071,-0.085 -3.0085,-0.16111 -4.521507,-0.22961 l 2.832037,-11.54793 -1.49903,-0.0142 -2.929697,11.49175 c -1.70602,-0.0702 -3.41854,-0.13113 -5.13919,-0.18026 l 1.66017,-11.17192 -1.39405,-0.2759 -1.58692,11.4112 c -1.66627,-0.0425 -3.33807,-0.0751 -5.01712,-0.0978 z m 19.946387,8.02251 c 1.78697,0.0973 3.56329,0.20693 5.33205,0.32741 l -1.88721,4.29687 c -1.61269,-0.11764 -3.2327,-0.22347 -4.86086,-0.32221 z m 6.897,0.43701 c 1.7373,0.1252 3.46467,0.26079 5.18313,0.40772 l -2.27296,4.29692 c -1.59162,-0.14268 -3.1918,-0.27685 -4.79982,-0.40063 z m 6.75541,0.54445 h 0.002 c 1.77318,0.15874 3.53637,0.33071 5.28811,0.51269 l -2.73195,4.27491 c -1.60222,-0.17056 -3.2137,-0.33166 -4.834,-0.48341 z m -39.851297,71.80698 a 0.62500305,0.62500305 0 0 0 -0.625,0.62499 0.62500305,0.62500305 0 0 0 0.625,0.625 0.62500305,0.62500305 0 0 0 0.62501,-0.625 0.62500305,0.62500305 0 0 0 -0.62501,-0.62499 z" /><path
   style="baseline-shift:baseline;display:inline;overflow:visible;vector-effect:none;fill:#ff6e6e;fill-opacity:1;stroke-width:4.72576;stroke-linejoin:round;stroke-miterlimit:0;enable-background:accumulate;stop-color:#000000"
   d="m 149.37574,118.61046 c -2.40954,0 -4.37503,1.96551 -4.37503,4.37506 0,2.40951 1.96549,4.38423 4.37503,4.38423 2.40953,0 4.37502,-1.97472 4.37502,-4.38423 0,-2.40955 -1.96549,-4.37506 -4.37502,-4.37506 z m 0,1.25528 c 0.22535,0 0.1946,0.36142 0.40611,0.40583 -0.69218,0.27685 -1.43988,0.64479 -1.43988,1.43061 -3e-5,1.02851 0.85448,1.87371 1.88292,1.87375 0.78527,-4e-5 1.1532,-0.73932 1.43066,-1.4307 0.18269,0.3978 0.84915,0.37134 0.84915,0.83996 0,1.73377 -1.39519,3.12895 -3.12897,3.12895 -1.73379,0 -3.12897,-1.39518 -3.12897,-3.12895 0,-1.73382 1.39518,-3.11978 3.12897,-3.11978 z m 0.84915,1.20917 c 0.35268,0 0.61841,0.27497 0.61841,0.6276 2e-5,0.35244 -0.26574,0.62764 -0.61841,0.62764 -0.35268,0 -0.62765,-0.27496 -0.62763,-0.62764 0,-0.35244 0.27495,-0.6276 0.62763,-0.6276 z"
   id="path9" /><path
   id="path10"
   style="fill:#1fbdd2;fill-opacity:1;stroke-width:1.88978;stroke-linecap:round;stroke-opacity:1"
   d="m 80.061043,85.016536 -0.0293,1.657725 c -0.2179,0.50568 -2.0923,5.011615 -2.0923,10.4981 0,5.174129 0.74669,9.476159 1.73096,10.373589 l -0.0194,1.12793 -1.41113,81.39444 -0.002,0.008 c -0.18544,0.56091 -0.0203,0.96624 0.2417,1.48439 0.26216,0.51813 0.92507,0.86426 1.58448,0.86426 0.65941,0 1.17538,-0.53417 1.58204,-0.86426 0.40663,-0.3301 0.30671,-1.23366 0.23683,-1.4966 v -0.002 -0.002 l -1.41132,-81.38491 -0.0195,-1.14258 c 0.97563,-0.9321 1.71388,-5.21542 1.71388,-10.358939 0,-5.358195 -1.78867,-9.78156 -2.07522,-10.456595 v -0.0025 z" /><rect
   style="fill:#3c3c3c;fill-opacity:1;stroke-width:2.94424"
   id="rect10"
   width="160"
   height="24.066523"
   x="-3.2031251e-09"
   y="150.64255" /><path
   id="path11"
   style="fill:#bfff6a;fill-opacity:1;stroke-width:4.72443"
   d="m 7.5293332,150.45875 v 1.30128 h 0.64698 143.6603668 0.64698 v -1.30128 H 151.83668 8.1763132 Z m 64.1018798,3.47903 -0.0369,0.58105 c -0.007,0.10115 -0.0165,0.19408 -0.017,0.29542 v 0.007 c 0,1.74951 1.02178,3.30105 2.55617,4.37503 1.5344,1.07398 3.60365,1.70668 5.87649,1.70654 2.27284,1.4e-4 4.33478,-0.63256 5.86917,-1.70654 1.5344,-1.07398 2.55617,-2.62552 2.55617,-4.37503 v -0.007 c -3.9e-4,-0.10134 -0.002,-0.19427 -0.01,-0.29542 l -0.0463,-0.58105 z m -58.54521,0.92285 c -0.6506,0 -1.15711,0.21061 -1.51856,0.63233 -0.36145,0.41565 -0.542,0.97357 -0.542,1.67236 0,0.59037 0.16298,1.1107 0.48829,1.56251 0.3253,0.4458 0.82807,0.66895 1.5088,0.66895 0.95783,0 1.57088,-0.46894 1.83594,-1.4087 l -0.85938,-0.28077 c -0.14457,0.62048 -0.47184,0.93018 -0.98389,0.93018 -0.71687,0 -1.07666,-0.51155 -1.07666,-1.53565 0,-0.98796 0.36483,-1.48194 1.09375,-1.48194 0.50603,0 0.81572,0.24449 0.93018,0.73242 l 0.87647,-0.20749 c -0.24097,-0.85545 -0.82522,-1.2842 -1.75294,-1.2842 z m 107.493207,0 v 5.85451 h 1.12061 V 158.596 c 0,-0.90764 0.30926,-1.36231 0.92773,-1.36231 0.28116,0 0.46588,0.0852 0.55421,0.25389 0.0964,0.16866 0.14405,0.49637 0.14405,0.98633 v 2.24122 h 1.12061 v -2.49268 c 0,-0.61044 -0.1037,-1.0693 -0.31252,-1.37452 -0.20882,-0.31327 -0.58664,-0.46876 -1.13282,-0.46876 -0.498,0 -0.9318,0.21151 -1.30128,0.63721 v -2.15577 z m -105.151887,0.0903 v 4.39211 h 0.88624 v -1.65528 h 0.57617 c 0.53615,0 0.91725,-0.0402 1.14014,-0.12449 0.22892,-0.0904 0.41321,-0.24085 0.55176,-0.45165 0.13856,-0.21686 0.20752,-0.49014 0.20752,-0.81544 0,-0.36142 -0.0903,-0.65357 -0.27099,-0.87646 -0.1747,-0.2289 -0.37656,-0.36312 -0.60548,-0.40527 -0.22289,-0.042 -0.57894,-0.0635 -1.0669,-0.0635 z m 120.647567,0.004 -1.13282,0.65186 v 0.84229 h -0.51758 v 0.89356 h 0.51758 v 1.85548 c 0,0.59436 0.0643,1.00729 0.19285,1.24024 0.13654,0.23296 0.43749,0.34913 0.90332,0.34913 0.3293,0 0.62605,-0.056 0.89112,-0.16847 l -0.0976,-0.86671 c -0.20084,0.0723 -0.35211,0.10743 -0.45652,0.10743 -0.12048,0 -0.20155,-0.0476 -0.24171,-0.14404 -0.0401,-0.0964 -0.0586,-0.31867 -0.0586,-0.66407 v -1.70899 h 0.75684 v -0.89341 h -0.75684 z m -63.020327,0.22705 h 13.91364 c -0.13875,1.11143 -0.64895,2.18311 -1.79933,2.9883 -1.28968,0.9027 -3.12233,1.48694 -5.15871,1.48682 -2.03639,1.2e-4 -3.8666,-0.58412 -5.15628,-1.48682 -1.15037,-0.80519 -1.66057,-1.87687 -1.79932,-2.9883 z m 71.103857,0.24416 c -0.89157,0 -1.5101,0.2658 -1.85548,0.7959 -0.16063,0.26509 -0.2417,0.48911 -0.2417,0.67384 0,0.36146 0.27831,0.71837 0.83252,1.07178 -0.72289,0.31323 -1.08398,0.76375 -1.08398,1.3501 0,0.27307 0.0744,0.53887 0.22705,0.7959 0.20882,0.29722 0.49549,0.52541 0.85694,0.68605 0.3695,0.16062 0.80745,0.2417 1.31348,0.2417 1.06828,0 1.81134,-0.30927 2.22902,-0.92775 0.24902,-0.24897 0.37351,-0.54817 0.37351,-0.89355 0,-0.29717 -0.1019,-0.55634 -0.30274,-0.78126 -0.19276,-0.23296 -0.47699,-0.39085 -0.8545,-0.47117 0.28116,-0.0804 0.50517,-0.21741 0.67384,-0.41017 0.16866,-0.20079 0.25389,-0.42066 0.25389,-0.66162 0,-0.29717 -0.13706,-0.58974 -0.41018,-0.87891 -0.20882,-0.20887 -0.47879,-0.35845 -0.80811,-0.44679 -0.32934,-0.0964 -0.72972,-0.14405 -1.20362,-0.14405 z m 5.67385,0 c -0.89157,0 -1.51009,0.2658 -1.85547,0.7959 -0.16064,0.26509 -0.23925,0.48911 -0.23925,0.67384 0,0.36146 0.27586,0.71837 0.83008,1.07178 -0.72289,0.31323 -1.08399,0.76375 -1.08399,1.3501 0,0.27307 0.0769,0.53887 0.22952,0.7959 0.20882,0.29722 0.49304,0.52541 0.85449,0.68605 0.3695,0.16062 0.80746,0.2417 1.31348,0.2417 1.06828,0 1.81135,-0.30927 2.22902,-0.92775 0.24902,-0.24897 0.37351,-0.54817 0.37351,-0.89355 0,-0.29717 -0.0995,-0.55634 -0.30028,-0.78126 -0.19276,-0.23296 -0.47943,-0.39085 -0.85694,-0.47117 0.28115,-0.0804 0.50761,-0.21741 0.67628,-0.41017 0.16866,-0.20079 0.25148,-0.42066 0.25148,-0.66162 0,-0.29717 -0.13706,-0.58974 -0.41018,-0.87891 -0.20882,-0.20887 -0.47635,-0.35845 -0.80567,-0.44679 -0.32934,-0.0964 -0.73216,-0.14405 -1.20606,-0.14405 z m -133.518707,0.26367 h 0.43213 c 0.46385,0 0.76851,0.0463 0.91309,0.13673 0.14458,0.0904 0.21728,0.25337 0.21728,0.48828 0,0.24095 -0.0815,0.40527 -0.24414,0.49561 -0.16265,0.0843 -0.44095,0.12695 -0.83252,0.12695 h -0.48584 z m -7.0044298,0.11963 c -0.43374,0 -0.76474,0.18056 -0.99366,0.54199 v -0.47121 h -0.78614 v 4.39211 h 0.83985 v -1.6089 c 0.28916,0.31328 0.59885,0.47122 0.93018,0.47122 0.40964,0 0.7318598,-0.15922 0.9667998,-0.47852 0.24097,-0.31928 0.36378,-0.72169 0.36378,-1.20362 0,-0.4518 -0.11533,-0.83795 -0.34425,-1.15723 -0.22891,-0.32533 -0.5548698,-0.48584 -0.9765598,-0.48584 z m 135.1129568,0.41258 c 0.16871,0 0.31829,0.0227 0.44679,0.0708 0.13658,0.0401 0.24856,0.092 0.3369,0.15624 0.12048,0.11249 0.18067,0.24534 0.18067,0.39794 0,0.27312 -0.14297,0.48705 -0.43215,0.63965 -0.12052,0.0882 -0.23494,0.14419 -0.33935,0.16847 -0.10446,0.0161 -0.229,0.0246 -0.37352,0.0246 -0.28115,0 -0.50099,-0.0727 -0.66162,-0.21727 -0.20084,-0.1767 -0.30029,-0.36142 -0.30029,-0.5542 0,-0.20887 0.0995,-0.37687 0.30029,-0.50538 0.12052,-0.0721 0.24501,-0.11981 0.37351,-0.14404 0.12855,-0.0241 0.28403,-0.0369 0.46876,-0.0369 z m 5.6763,0 c 0.16871,0 0.31582,0.0227 0.44433,0.0708 0.13659,0.0401 0.25101,0.092 0.33936,0.15624 0.12047,0.11249 0.18066,0.24534 0.18066,0.39794 0,0.27312 -0.14542,0.48705 -0.43455,0.63965 -0.12052,0.0882 -0.23249,0.14419 -0.3369,0.16847 -0.10446,0.0161 -0.22899,0.0246 -0.37351,0.0246 -0.28115,0 -0.50344,-0.0727 -0.66407,-0.21727 -0.20084,-0.1767 -0.30028,-0.36142 -0.30028,-0.5542 0,-0.20887 0.0995,-0.37687 0.30028,-0.50538 0.12052,-0.0721 0.24501,-0.11981 0.37351,-0.14404 0.12851,-0.0241 0.28645,-0.0369 0.47117,-0.0369 z m -32.29019,0.13181 c -1.18876,0 -1.78224,0.43381 -1.78224,1.30129 0,0.32126 0.11201,0.59296 0.3369,0.81787 0.22488,0.22488 0.85595,0.45553 1.8921,0.68848 0.30525,0.0643 0.45652,0.18462 0.45652,0.36132 0,0.30524 -0.2675,0.45652 -0.80567,0.45652 -0.50603,0 -0.81112,-0.22403 -0.91553,-0.67383 l -1.12061,0.18067 c 0.22488,0.86747 0.9036,1.30127 2.03614,1.30127 0.53012,0 0.98236,-0.12033 1.35987,-0.36132 0.37754,-0.24095 0.56641,-0.59371 0.56641,-1.05958 0,-0.36146 -0.11617,-0.63559 -0.34913,-0.82031 -0.22489,-0.19281 -0.62948,-0.35245 -1.21583,-0.48097 -0.79518,-0.17674 -1.19385,-0.36141 -1.19385,-0.55419 0,-0.23297 0.25327,-0.34914 0.75928,-0.34914 0.44178,0 0.70755,0.16804 0.7959,0.50538 l 1.05958,-0.19285 c -0.21686,-0.74699 -0.84375,-1.12062 -1.87989,-1.12062 z m 21.32579,0 c -0.59439,0 -1.0675,0.20977 -1.42091,0.62746 -0.34541,0.41768 -0.51758,0.9593 -0.51758,1.62597 0,0.61045 0.15968,1.12704 0.48096,1.55275 0.32126,0.41768 0.84623,0.62744 1.57715,0.62744 0.93173,0 1.54608,-0.41712 1.84327,-1.25245 l -1.11817,-0.19285 c -0.11244,0.40966 -0.35145,0.6128 -0.71289,0.6128 -0.57832,0 -0.88758,-0.35272 -0.92774,-1.05958 h 2.81984 c 0,-1.69479 -0.67453,-2.54152 -2.02393,-2.54152 z m -6.63822,0.0246 c -0.56225,0 -1.03119,0.24072 -1.4087,0.72266 v -0.62743 h -1.0376 v 4.24074 h 1.12061 v -1.91407 c 0,-0.75504 0.0935,-1.20554 0.27832,-1.35011 0.18472,-0.14456 0.40039,-0.21727 0.64941,-0.21727 0.28115,0 0.46588,0.0977 0.55421,0.2905 0.0964,0.18473 0.14404,0.52496 0.14404,1.02296 v 2.16797 h 1.12062 v -2.63673 c 0,-1.13253 -0.47311,-1.69922 -1.42091,-1.69922 z m -7.20463,0.0708 v 2.68801 c 0,1.1004 0.46895,1.65039 1.4087,1.65039 0.60242,0 1.07379,-0.24491 1.41114,-0.73486 v 0.63966 h 1.03516 v -4.24318 h -1.12061 v 1.78468 c 0,0.69879 -0.0643,1.1552 -0.19285,1.37207 -0.12047,0.2169 -0.36123,0.32717 -0.72266,0.32717 -0.28115,0 -0.47003,-0.10191 -0.56641,-0.30274 -0.0883,-0.20882 -0.13186,-0.61759 -0.13186,-1.22804 v -1.95314 z m -116.2163868,0.0293 c 0.46386,0 0.69581,0.32726 0.69581,0.9839 0,0.66867 -0.22691,1.00342 -0.67872,1.00342 -0.48795,0 -0.72998,-0.35102 -0.72998,-1.04981 0,-0.6265 0.23698,-0.93751 0.71289,-0.93751 z m 130.1324768,0.72999 c 0.538,0 0.81803,0.3343 0.84228,1.00098 h -1.67481 c 0,-0.66667 0.27832,-1.00098 0.83253,-1.00098 z m 5.09524,1.18165 c 0.36146,0 0.63141,0.10781 0.80811,0.32471 0.12047,0.13653 0.18066,0.30453 0.18066,0.50538 0,0.3213 -0.0894,0.54776 -0.26613,0.67627 -0.20882,0.17669 -0.47635,0.26366 -0.80567,0.26366 -0.31327,0 -0.57487,-0.1037 -0.78369,-0.31252 -0.12047,-0.12047 -0.18066,-0.31356 -0.18066,-0.57861 0,-0.26509 0.0911,-0.47658 0.27586,-0.63721 0.18472,-0.16063 0.44216,-0.24171 0.77149,-0.24171 z m 5.67629,0 c 0.36147,0 0.62898,0.10781 0.80567,0.32471 0.12047,0.13653 0.18066,0.30453 0.18066,0.50538 0,0.3213 -0.087,0.54776 -0.26367,0.67627 -0.20882,0.17669 -0.47879,0.26366 -0.80811,0.26366 -0.31327,0 -0.57487,-0.1037 -0.78369,-0.31252 -0.12047,-0.12047 -0.18066,-0.31356 -0.18066,-0.57861 0,-0.26509 0.0936,-0.47658 0.27831,-0.63721 0.18473,-0.16063 0.44216,-0.24171 0.77149,-0.24171 z" /><path
   id="path12"
   style="fill:#ff6e6e;fill-opacity:1;stroke-width:4.72443"
   d="m 133.31853,103.10501 c -0.15053,0.005 -0.3086,0.018 -0.47122,0.0416 l 0.1465,0.92774 c 0.44443,-0.0619 0.81912,-0.0378 1.12305,0.0782 0.30393,0.11433 0.53244,0.28635 0.68604,0.51514 0.12747,0.18283 0.2058,0.38551 0.23193,0.60791 0.0226,0.22205 -0.008,0.43796 -0.0928,0.64698 -0.10786,0.26126 -0.30733,0.48348 -0.59815,0.66651 -0.19606,0.12756 -0.43994,0.2177 -0.72754,0.27345 v 0.003 c -0.16011,0.009 -0.32485,0.025 -0.49806,0.0439 l 0.10252,0.95215 h 0.0147 v 0.004 c 0.11764,-0.01 0.23231,-0.025 0.34669,-0.0392 0.44768,-0.0331 0.81593,-0.0279 1.10352,0.0147 0.35948,0.0591 0.60898,0.1595 0.74951,0.30029 0.0751,0.0723 0.10744,0.14778 0.0977,0.22951 -0.0165,0.12756 -0.0955,0.26409 -0.23925,0.40772 -0.22875,0.24189 -0.56791,0.42992 -1.01563,0.56397 -0.44773,0.13086 -0.9758,0.15812 -1.58692,0.083 l -0.12208,0.94483 c 0.77452,0.0945 1.45361,0.0494 2.03858,-0.13673 0.58497,-0.18614 1.03555,-0.44551 1.35255,-0.77881 0.2941,-0.30378 0.4629,-0.63017 0.50538,-0.97657 0.049,-0.39213 -0.0826,-0.741 -0.39308,-1.04492 -0.17976,-0.17339 -0.43408,-0.3086 -0.76416,-0.41018 0.21893,-0.21874 0.38447,-0.4663 0.49561,-0.73731 0.15032,-0.36283 0.20362,-0.73018 0.16115,-1.10596 -0.0392,-0.3789 -0.16838,-0.72959 -0.39062,-1.04981 -0.24836,-0.36614 -0.60367,-0.64293 -1.06446,-0.83252 -0.34313,-0.14221 -0.73981,-0.20651 -1.19141,-0.19044 z m -17.66856,6.38431 -2.38038,5.42239 c -1.68088,-0.11589 -3.37086,-0.21997 -5.06838,-0.31493 l -0.39548,1.16944 c 1.65976,0.0921 3.30942,0.19564 4.95363,0.3076 l -1.88721,4.2969 c -1.5003,-0.10942 -3.00786,-0.20995 -4.52151,-0.30274 l -0.39553,1.16699 c 11.43304,0.6947 22.48983,1.86331 33.04948,3.4546 l 0.83009,-1.08398 c -4.78966,-0.73059 -9.68273,-1.37446 -14.66561,-1.92628 l 2.73439,-4.27981 h 0.002 c 5.1188,0.55257 10.14087,1.20263 15.05623,1.94338 l 0.83008,-1.084 c -4.95159,-0.75534 -10.0133,-1.41837 -15.17098,-1.98242 l 2.42189,-3.78909 -0.99853,-1.00098 -2.95412,4.62649 h -0.002 c -1.78944,-0.18804 -3.59108,-0.3652 -5.40286,-0.52979 l 2.41212,-4.56057 -1.24756,-0.75684 -2.73683,5.17825 c -1.75046,-0.15165 -3.51081,-0.29093 -5.28079,-0.41991 l 2.13868,-4.87307 z m -1.32568,6.69437 c 1.73729,0.1252 3.46466,0.26079 5.18313,0.40772 l -2.27296,4.29689 c -1.59162,-0.14267 -3.1918,-0.27661 -4.79983,-0.40039 z m 6.7554,0.54444 h 0.002 c 1.77318,0.15874 3.53637,0.33071 5.28811,0.5127 l -2.73195,4.27492 c -1.60222,-0.17056 -3.2137,-0.33166 -4.834,-0.4834 z" /><ellipse
   style="fill:#ff6e6e;stroke-width:4.72443"
   id="ellipse12"
   cx="149.40169"
   cy="122.89079"
   rx="3.2469745"
   ry="3.3191295" /><rect
   style="fill:#ff002a;fill-opacity:1;stroke-width:0.644235;stroke-linejoin:round"
   id="rect1"
   width="160"
   height="85"
   x="160"
   y="85" /><rect
   style="fill:#ff002a;fill-opacity:1;stroke-width:0.644235;stroke-linejoin:round"
   id="rect14"
   width="160"
   height="85"
   x="-160"
   y="0" /></svg>
