<?xml version="1.0" encoding="UTF-8" standalone="no"?>
<!-- Created with Inkscape (http://www.inkscape.org/) -->

<svg
   width="320"
   height="170"
   viewBox="0 0 320 170"
   version="1.1"
   id="svg1"
   xml:space="preserve"
   xmlns="http://www.w3.org/2000/svg"
   xmlns:svg="http://www.w3.org/2000/svg">
<rect
   style="fill:#000000;fill-opacity:1;stroke-width:6.88695"
   id="rect2"
   width="320"
   height="170"
   x="0"
   y="-2.7815501e-08" />
   <path
   d="m 95.791609,109.40147 h 4.542881 c 5.86639,0 7.33299,-0.10732 9.22884,-0.78696 2.86165,-0.96581 5.79485,-2.82588 7.18991,-4.54288 1.8243,-2.25355 3.11205,-6.009475 3.11205,-9.049984 0,-2.468179 -1.28775,-4.328255 -3.72015,-5.401376 -1.53814,-0.679643 -3.36245,-0.965809 -6.83221,-1.180433 l 0.2504,-1.00158 -2.57549,1.073121 c -2.9332,0.50079 -4.79328,1.144663 -6.68912,2.360867 -3.040512,1.967388 -4.507111,4.364025 -4.507111,7.440305 0,0.679643 0.03577,1.108891 0.250395,2.00316 l 2.933197,-1.323517 c -0.214624,-0.930038 -0.250395,-1.323516 -0.250395,-2.003159 0,-4.256713 2.647034,-6.760662 7.654934,-7.261452 l -2.68281,10.659668 c -1.39505,5.97371 -2.32509,7.0826 -6.188327,7.36876 z M 109.02677,89.548729 c 2.64703,0.107312 3.82746,0.321936 4.93635,0.894267 1.75277,0.930038 2.79012,2.897427 2.79012,5.294064 0,3.11205 -1.18043,6.90374 -2.79012,8.94267 -1.75276,2.25356 -3.86323,3.11205 -7.54761,3.11205 h -0.53656 l -4.57865,-0.14308 c 4.1494,-3.86323 4.1494,-3.86323 5.75908,-10.33773 z m 21.31936,5.15098 c -1.43083,0 -3.72015,1.037351 -5.83062,2.611261 -2.28933,1.716994 -3.89901,5.43715 -3.89901,9.01422 0,2.14624 1.21621,3.5413 3.11205,3.5413 1.00158,0 2.03893,-0.35771 3.64861,-1.21621 1.78854,-1.00158 2.96897,-1.89585 3.61284,-2.71857 1.43083,-1.96739 2.57549,-5.47292 2.57549,-7.941096 0,-1.931618 -1.32351,-3.290905 -3.21936,-3.290905 z m -1.86007,1.681223 c 1.43082,0 2.32509,1.359287 2.32509,3.541299 0,1.538139 -0.50079,3.362449 -1.35929,5.115209 -1.03735,2.03893 -2.32509,3.14782 -3.68438,3.14782 -1.4666,0 -2.39663,-1.32351 -2.39663,-3.36244 0,-4.1494 2.61126,-8.441888 5.11521,-8.441888 z m 7.04681,5.580228 c 0.67964,-1.75276 0.8585,-2.217782 1.10889,-2.647031 0.57233,-0.965808 1.21621,-1.359286 2.11047,-1.359286 l 1.18044,0.03577 c 0.28616,0.03577 0.6081,0.03577 0.93004,0.03577 0.78695,0 1.00157,-0.03577 1.64545,-0.286165 -1.86008,2.110471 -2.9332,3.326672 -3.18359,3.720152 -1.35929,1.96739 -2.21779,4.36403 -2.21779,6.2241 0,1.28775 0.78696,2.18202 1.93162,2.18202 1.86008,0 3.97055,-1.50237 6.93951,-4.86482 -0.39347,1.18043 -0.53656,1.89585 -0.53656,2.82589 0,1.32351 0.67965,2.03893 1.93162,2.03893 4.50711,0 11.51817,-8.72805 11.51817,-14.379826 0,-0.965809 -0.28617,-1.573911 -0.89427,-1.967389 -0.89427,0.214624 -1.2162,0.357707 -2.50395,0.930038 0.35771,0.930039 0.46502,1.50237 0.46502,2.503949 0,2.360866 -0.89427,5.150978 -2.36087,7.440308 -1.28774,1.93162 -3.07628,3.43399 -4.18517,3.43399 -0.75118,0 -1.2162,-0.64388 -1.2162,-1.64546 0,-1.53814 0.50079,-3.36244 2.89742,-10.480812 -0.9658,0.321936 -1.35928,0.429248 -2.64703,0.751184 -0.0715,0.250395 -0.32193,1.108892 -0.78695,2.611261 -0.8585,2.718577 -1.14466,3.433987 -1.82431,4.542877 -1.28774,2.11047 -3.68438,4.04209 -5.0079,4.04209 -0.6081,0 -0.9658,-0.57233 -0.9658,-1.57391 0,-1.53814 0.6081,-3.5413 1.60968,-5.3656 0.85849,-1.538144 1.68122,-2.539724 3.68438,-4.542883 V 95.8086 c 0,-0.07154 0,-0.143083 -0.0358,-0.286166 h -0.39348 c -0.6081,0.429249 -0.8585,0.50079 -1.4666,0.50079 -1.00158,0 -2.9332,-0.03577 -4.07786,-0.07154 -0.3577,-0.03577 -0.75118,-0.03577 -0.96581,-0.03577 -0.6081,0 -1.00158,0.107312 -1.2162,0.357707 -0.53656,0.53656 -1.25197,2.182013 -2.0747,4.829039 z m 26.47032,6.76066 2.11048,-8.40611 0.89426,-0.572332 c 3.32668,-2.074701 3.72016,-2.289325 4.22095,-2.289325 0.21462,0 0.3577,0.178854 0.3577,0.465019 0,0.572331 -0.25039,1.609682 -1.32351,5.973708 -0.78696,3.14782 -0.93004,3.79169 -0.93004,4.47134 0,0.50079 0.14308,0.93003 0.53656,1.60968 1.60968,-0.71542 4.11363,-2.28933 6.61758,-4.1494 l 0.25039,-1.00158 c -3.46975,2.00316 -3.72015,2.11047 -4.07786,2.11047 -0.3577,0 -0.57233,-0.35771 -0.57233,-0.96581 0,-0.96581 0.14308,-1.57391 1.717,-7.261452 0.89426,-3.183593 0.89426,-3.183593 0.89426,-3.398217 0,-0.393478 -0.25039,-0.608102 -0.67964,-0.608102 -0.78696,0 -0.89427,0.07154 -4.7575,2.432408 -1.43083,0.894267 -2.36087,1.466598 -2.79012,1.752764 0.35771,-1.251974 0.8585,-3.433987 0.8585,-3.720153 0,-0.286165 -0.17885,-0.465019 -0.46502,-0.465019 -0.39348,0 -2.82589,1.251975 -5.616,2.897427 l -0.21462,0.930038 c 2.28932,-1.03735 2.4324,-1.073121 2.75434,-1.073121 0.25039,0 0.42925,0.214624 0.42925,0.50079 0,0.786955 -0.64387,3.648607 -1.57391,6.975287 l -0.82273,2.89743 c -0.0715,0.25039 -0.25039,0.93003 -0.50079,1.93161 z m 13.879,1.03735 2.53972,-0.96581 2.28933,-8.69228 c 2.32509,-1.609677 3.86323,-2.468173 4.32825,-2.468173 0.28617,0 0.46502,0.286165 0.46502,0.786955 0,1.073121 -1.35928,6.474498 -2.86165,11.339308 l 2.71857,-0.96581 2.21778,-8.94267 c 2.03893,-1.323516 3.97055,-2.396637 4.3998,-2.396637 0.32194,0 0.46502,0.250395 0.46502,0.679643 0,0.786956 -0.32194,2.396634 -1.28775,6.081024 -0.53656,2.21778 -0.71541,3.11205 -0.71541,3.93477 0,0.75119 0.17885,1.14466 0.8585,1.60968 2.0747,-1.03735 4.07786,-2.32509 6.04524,-3.899 l 0.0358,-0.82273 c -3.0405,1.86008 -3.0405,1.86008 -3.54129,1.86008 -0.39348,0 -0.64388,-0.35771 -0.64388,-0.93004 0,-0.82273 0.42925,-2.71857 1.18044,-5.36561 1.14466,-3.970543 1.35928,-4.793269 1.35928,-5.3656 0,-0.357707 -0.17885,-0.536561 -0.57233,-0.536561 -0.64387,0 -2.86165,1.144663 -7.22568,3.720153 0.14308,-0.643873 0.14308,-0.643873 0.46502,-2.03893 0.14308,-0.53656 0.25039,-1.144662 0.25039,-1.287745 0,-0.250395 -0.17885,-0.393478 -0.46502,-0.393478 -0.6081,0 -1.96738,0.751185 -7.11836,4.006319 0.57233,-2.432408 0.75118,-3.255134 0.75118,-3.505529 0,-0.321936 -0.21462,-0.50079 -0.53656,-0.50079 -0.35771,0 -0.75118,0.214624 -2.53972,1.216204 -2.36087,1.359287 -2.36087,1.359287 -3.00474,1.788535 l -0.25039,1.00158 c 1.89584,-0.965809 2.21778,-1.073121 2.64703,-1.073121 0.28616,0 0.50079,0.286165 0.50079,0.679643 0,0.53656 -0.10731,1.001579 -1.53814,6.68912 -0.32194,1.14466 -0.6081,2.3251 -0.89427,3.50553 z m 28.65237,-22.392454 c -1.00158,0.786955 -1.82431,1.430828 -2.46818,1.860076 0.25039,0.751185 0.57233,1.359287 1.35928,2.503949 1.00158,-0.894267 1.1089,-1.001579 2.3251,-1.931617 -0.10731,-0.214625 -0.17885,-0.357707 -0.46502,-0.822727 -0.21462,-0.429248 -0.2504,-0.429248 -0.53656,-1.144662 z m 1.35928,17.885354 -0.6081,0.32193 c -2.46818,1.35929 -2.89743,1.53814 -3.32668,1.53814 -0.39347,0 -0.64387,-0.39348 -0.64387,-1.00158 0,-0.6081 0,-0.6081 1.18044,-5.32983 1.32351,-5.437148 1.32351,-5.437148 1.32351,-5.723314 0,-0.214624 -0.17885,-0.357707 -0.42925,-0.357707 -0.6081,0 -2.71857,1.180433 -5.65177,3.147822 l -0.0715,1.001579 c 2.18201,-1.180433 2.28933,-1.216203 2.61126,-1.216203 0.28617,0 0.42925,0.214624 0.42925,0.608101 0,0.50079 -0.10731,1.00158 -0.64387,3.040512 -1.68122,6.2241 -1.68122,6.2241 -1.68122,7.15414 0,0.85849 0.32193,1.43083 0.85849,1.43083 0.6081,0 1.57391,-0.46502 3.46976,-1.68123 0.67964,-0.42925 1.35929,-0.85849 2.03893,-1.32351 0.32194,-0.17886 0.57233,-0.35771 1.00158,-0.60811 z m 1.14465,5.04366 c 0.21462,0.0358 0.32194,0.0715 0.32194,0.0715 0.0715,0 0.17885,-0.0358 0.28616,-0.0715 0.75119,-3.14782 2.28933,-5.50868 4.90059,-7.61915 0.42925,5.58022 0.6081,6.90374 1.14466,8.54919 0.78696,2.39664 3.11205,3.89901 6.11679,3.89901 1.96739,0 3.21936,-0.50079 4.3998,-1.75277 l -1.39506,-1.64545 c -0.96581,1.717 -1.93162,2.43241 -3.21937,2.43241 -1.25197,0 -2.50394,-1.00158 -3.0405,-2.46818 -0.75119,-1.96739 -0.75119,-2.00316 -1.82431,-9.19307 l -0.21462,-1.57391 c 3.00473,-2.790114 4.22094,-3.64861 5.18675,-3.64861 0.39347,0 0.75118,0.07154 1.50237,0.393477 l 0.78695,-2.503949 c -0.53656,-0.357707 -0.78695,-0.465019 -1.25197,-0.465019 -0.46502,0 -0.75119,0.07154 -1.35929,0.357707 -1.00158,0.894268 -1.14466,1.037351 -2.53972,2.396637 -1.18043,1.144662 -1.25197,1.216204 -2.50395,2.396637 -0.14308,-1.323516 -0.3577,-2.647032 -0.46502,-3.147822 -0.32193,-1.466598 -0.82272,-2.003159 -1.96739,-2.003159 -1.10889,0 -2.14624,0.608102 -4.61442,2.754344 l -0.0715,0.965809 c 2.14625,-1.430828 2.3251,-1.502369 3.04051,-1.502369 1.18044,0 1.60968,0.930038 2.14624,4.685957 l -0.78695,0.64388 c -0.28617,0.21462 -0.71541,0.57233 -1.32352,1.03735 -1.86007,1.39505 -1.89584,1.43082 -2.57549,2.00316 -0.93004,0.82272 -1.2162,1.32351 -1.86007,3.14782 z"
   id="DOWNMIX"
   style="fill:#b3eaff"
   />
     <rect
   style="fill:#ffffff;fill-opacity:1;stroke-width:9.44886"
   id="rect1"
   width="15.000073"
   height="2.5000122"
   x="15.000088"
   y="26.008532" /><path
   id="rect3"
   style="fill:#ffffff;fill-opacity:1;stroke-width:9.44886"
   d="m 296.25145,19.720717 v 6.250046 h -6.25003 v 2.500076 h 6.25003 v 6.249951 h 2.50001 v -6.249951 h 6.25004 v -2.500076 h -6.25004 v -6.250046 z" /><path
   id="text4"
   style="fill:#ffffff;fill-opacity:1;stroke-width:9.44886"
   d="m 174.5514,24.723986 c -0.30104,0.0094 -0.61229,0.03779 -0.93752,0.08504 l 0.29301,1.850561 c 0.88895,-0.123781 1.63829,-0.07559 2.2461,0.155906 0.60785,0.228662 1.06487,0.572601 1.37208,1.03021 0.25493,0.365671 0.40668,0.771027 0.45903,1.21588 0.0453,0.444096 -0.0161,0.875909 -0.18558,1.293927 -0.21562,0.522522 -0.61455,0.966997 -1.1963,1.333046 -0.39213,0.255119 -0.87497,0.435593 -1.4502,0.547089 v 0.0049 c -0.32032,0.0189 -0.65462,0.04724 -1.00098,0.08504 l 0.20504,1.904229 h 0.0293 v 0.0094 c 0.23538,-0.0189 0.46952,-0.04724 0.69828,-0.07559 0.89537,-0.06614 1.63185,-0.05669 2.20703,0.02835 0.71897,0.118111 1.21796,0.319372 1.49904,0.600948 0.15023,0.144567 0.21486,0.295749 0.19531,0.459215 -0.0331,0.255119 -0.19097,0.528191 -0.4785,0.815437 -0.45751,0.483782 -1.13582,0.855122 -2.03126,1.122997 -0.89546,0.261734 -1.9565,0.321262 -3.17873,0.171025 l -0.24415,1.889678 c 1.54902,0.188978 2.90722,0.09921 4.07716,-0.273072 1.16995,-0.372285 2.07599,-0.891028 2.70997,-1.557645 0.5882,-0.607562 0.92089,-1.26029 1.00587,-1.953081 0.098,-0.784256 -0.16034,-1.482054 -0.78123,-2.0899 -0.35943,-0.345828 -0.86816,-0.617956 -1.52832,-0.820161 0.43786,-0.438428 0.76413,-0.926934 0.98633,-1.469677 0.30067,-0.725673 0.41216,-1.465235 0.32712,-2.216798 -0.0784,-0.757799 -0.34167,-1.459094 -0.78614,-2.099632 -0.49673,-0.732287 -1.20735,-1.285802 -2.12893,-1.665079 -0.68627,-0.284411 -1.47962,-0.412916 -2.38282,-0.38079 z m 48.68189,0.684097 c -0.64839,0 -1.24693,0.21449 -1.80177,0.649137 -0.55484,0.428034 -1.03757,1.02199 -1.44533,1.777332 -0.71528,1.356951 -1.10813,3.041684 -1.18164,5.053726 l -0.009,0.322206 c 0,1.865017 0.33562,3.469151 1.01074,4.819394 0.36766,0.728507 0.81166,1.304226 1.33302,1.718748 0.52139,0.41575 1.09837,0.630239 1.7334,0.649137 h 0.034 0.009 0.009 v 0.0048 h -0.005 v 0.0049 h 0.0151 c 0.64838,0 1.24693,-0.211654 1.80177,-0.639688 0.55483,-0.434648 1.03757,-1.031721 1.44531,-1.787158 0.71528,-1.356952 1.10814,-3.041684 1.18165,-5.053726 l 0.0151,-0.322206 c 0,-1.864922 -0.34044,-3.469056 -1.01563,-4.819299 -0.36766,-0.728508 -0.81166,-1.304321 -1.33302,-1.718843 -0.52139,-0.41575 -1.09838,-0.63024 -1.7334,-0.649137 h -0.0293 -0.0198 v -0.0094 z m -75.96229,0.810713 -6.18655,0.03779 -0.2246,8.847729 1.11328,-0.1663 c 1.05194,-0.159686 1.91879,-0.141733 2.60255,0.04724 0.68372,0.184253 1.18344,0.469609 1.49903,0.864571 0.27582,0.335435 0.4116,0.701106 0.40526,1.088888 -0.007,0.394962 -0.15826,0.765358 -0.45411,1.113265 -0.36161,0.420474 -0.91871,0.730397 -1.67481,0.927878 -0.7561,0.189923 -1.72034,0.193702 -2.89063,0.0094 l -0.32712,1.860387 c 1.55161,0.242836 2.85433,0.207875 3.90627,-0.107717 1.05196,-0.322206 1.85498,-0.805988 2.40724,-1.450212 0.59821,-0.709609 0.90473,-1.487534 0.91796,-2.32905 0.0132,-0.841894 -0.26788,-1.611032 -0.83982,-2.3145 -0.4405,-0.53953 -1.05676,-0.968603 -1.84571,-1.284195 -0.78898,-0.313702 -1.74515,-0.447876 -2.87599,-0.410081 l 0.12699,-4.824212 4.35061,-0.0189 z m -39.67793,0.342049 -0.0198,1.928702 4.26272,0.02835 -3.40822,12.539116 1.86036,0.50268 3.73537,-13.730524 -0.92287,-1.215785 z m 115.63045,0.771027 h 0.009 0.0246 0.009 c 0.51081,0.04725 0.97008,0.483782 1.38184,1.313487 0.53471,1.062808 0.80079,2.382437 0.80079,3.959925 v 0.234332 0.04724 c -0.0605,1.691158 -0.38343,3.091385 -0.97168,4.194351 -0.49465,0.935438 -1.00824,1.401362 -1.54298,1.401362 h -0.0198 c -0.003,-2.84e-4 -0.007,2.83e-4 -0.009,0 h -0.009 c -0.5007,-0.04725 -0.96107,-0.488507 -1.37697,-1.313487 -0.53471,-1.062808 -0.80079,-2.382437 -0.80079,-3.96002 v -0.229607 -0.04724 c 0.0605,-1.691253 0.38344,-3.086567 0.97169,-4.189533 0.49162,-0.929768 1.00205,-1.400416 1.53321,-1.40618 z m -148.946052,2.187507 -2.700202,3.149401 1.425786,1.225613 1.00586,-1.162116 -0.185575,11.528371 1.889659,0.02835 0.219686,-14.140699 z m 7.22172,0.254175 c -0.637326,0 -1.227143,0.212599 -1.772474,0.639688 -0.545294,0.420474 -1.020081,1.005642 -1.420902,1.748134 -0.702996,1.333802 -1.08986,2.988204 -1.162116,4.965851 l -0.0094,0.312758 c 0,1.83308 0.332506,3.413969 0.9961,4.741251 0.361324,0.716224 0.796067,1.277015 1.308601,1.684544 0.512507,0.408191 1.084806,0.625515 1.708998,0.644413 h 0.02929 0.0094 0.0049 v 0.0049 h -0.0049 v 0.0049 h 0.01984 c 0.637326,0 1.227143,-0.213545 1.772465,-0.634964 0.545294,-0.427089 1.02009,-1.010462 1.420911,-1.752954 0.70309,-1.333707 1.08986,-2.988109 1.162116,-4.965851 l 0.0094,-0.317482 c 0,-1.833174 -0.332506,-3.413969 -0.9961,-4.741251 -0.361324,-0.716224 -0.80098,-1.277014 -1.313477,-1.684544 -0.512506,-0.408191 -1.07992,-0.62079 -1.704112,-0.639688 h -0.02929 -0.01984 v -0.0094 z m -0.0094,1.894497 h 0.0094 0.02929 c 0.501735,0.04724 0.957784,0.473388 1.362318,1.289109 0.525641,1.044666 0.786146,2.340956 0.786146,3.891609 v 0.229608 0.04724 c -0.05953,1.662339 -0.378805,3.03696 -0.957038,4.121123 -0.485955,0.919374 -0.988351,1.381329 -1.51368,1.381802 h -0.0049 -0.01512 c -0.499372,-0.0378 -0.958153,-0.472444 -1.372079,-1.293928 -0.525641,-1.044761 -0.786146,-2.341051 -0.786146,-3.89161 v -0.224882 -0.04724 c 0.05953,-1.662339 0.373986,-3.037054 0.952153,-4.121122 0.483215,-0.913706 0.986707,-1.37122 1.508795,-1.376984 z m 185.147402,4.54103 c -0.30104,0.0094 -0.6172,0.0378 -0.94243,0.08504 l 0.29301,1.855474 c 0.88885,-0.12378 1.63822,-0.07559 2.24611,0.155906 0.60784,0.228662 1.06486,0.572601 1.37207,1.03021 0.25493,0.365671 0.41159,0.771027 0.46384,1.21588 0.0454,0.444096 -0.0161,0.875909 -0.18557,1.293927 -0.21572,0.522523 -0.61465,0.966997 -1.1963,1.333046 -0.39212,0.25512 -0.87987,0.435593 -1.45508,0.547089 v 0.0049 c -0.32023,0.0189 -0.64971,0.04724 -0.9961,0.08504 l 0.20504,1.904229 h 0.0293 v 0.0094 c 0.23528,-0.0189 0.4646,-0.04724 0.69336,-0.07559 0.89537,-0.06614 1.63185,-0.05669 2.20704,0.02835 0.71897,0.118111 1.21796,0.319372 1.49903,0.600948 0.15024,0.144567 0.21487,0.295749 0.19531,0.459215 -0.0331,0.255119 -0.19096,0.528191 -0.47849,0.815437 -0.45752,0.483782 -1.13583,0.859846 -2.03126,1.127911 -0.89547,0.261733 -1.95162,0.316537 -3.17385,0.1663 L 265.138,50.74153 c 1.54904,0.188978 2.90723,0.09921 4.07717,-0.273072 1.16994,-0.372285 2.07109,-0.891028 2.70509,-1.557645 0.5882,-0.607562 0.9258,-1.26029 1.01075,-1.953081 0.098,-0.784256 -0.16526,-1.482054 -0.78615,-2.0899 -0.35953,-0.346773 -0.86816,-0.617011 -1.52832,-0.820161 0.43786,-0.437483 0.76895,-0.932603 0.99121,-1.47459 0.30067,-0.725673 0.40725,-1.460322 0.3223,-2.211885 -0.0784,-0.757799 -0.33675,-1.459188 -0.78123,-2.099632 -0.49673,-0.732287 -1.20734,-1.285896 -2.12891,-1.665079 -0.68627,-0.284411 -1.47964,-0.412916 -2.38283,-0.38079 z M 31.616446,37.400489 c -0.613231,0.0378 -1.205193,0.228662 -1.77735,0.561262 -0.650082,0.384569 -1.167984,0.952729 -1.552742,1.709016 -0.378143,0.75591 -0.516286,1.696355 -0.410175,2.817369 l 1.894535,-0.180474 c -0.05953,-0.696381 0.0061,-1.269171 0.205041,-1.713835 0.205702,-0.450711 0.491435,-0.784256 0.849642,-0.996099 0.39808,-0.223938 0.802775,-0.316537 1.220708,-0.278742 0.384758,0.0378 0.708098,0.190867 0.966799,0.468664 0.225922,0.238111 0.353009,0.586774 0.385702,1.04495 0.03968,0.457325 -0.0652,1.025674 -0.317387,1.709016 -0.424538,1.081328 -0.998821,2.135822 -1.728528,3.164047 -0.729736,1.021517 -1.503409,2.022908 -2.319347,2.998031 -0.550586,0.676538 -1.062213,1.3184 -1.533211,1.928796 l 0.747027,1.533173 5.898464,0.09732 0.02929,-1.899506 -3.979512,-0.07559 c 0.106111,-0.132284 0.211277,-0.259843 0.317387,-0.385513 0.855784,-1.034935 1.678176,-2.1019 2.460948,-3.203166 0.782744,-1.107785 1.415138,-2.273775 1.89942,-3.500993 0.384758,-1.0681 0.5229,-1.995601 0.410176,-2.778345 -0.112725,-0.789925 -0.398554,-1.428195 -0.849642,-1.918875 -0.603688,-0.637798 -1.334898,-0.998367 -2.197277,-1.084068 -0.208915,-0.0189 -0.41575,-0.02835 -0.620129,-0.0189 z m 8.652392,0.112441 c -0.643467,0 -1.241382,0.213544 -1.792005,0.644413 -0.55068,0.424254 -1.030947,1.013202 -1.435548,1.762686 -0.709798,1.346652 -1.09894,3.017967 -1.171886,5.014701 l -0.0094,0.317482 c 0,1.850749 0.335812,3.445245 1.00586,4.785189 0.36482,0.723783 0.805799,1.293361 1.323247,1.704103 0.51742,0.412915 1.088566,0.625515 1.718758,0.644412 h 0.02929 0.0094 0.0094 v 0.0049 0.0049 h 0.0094 c 0.643468,0 1.241392,-0.21071 1.792006,-0.634964 0.550585,-0.430868 1.03089,-1.022839 1.435556,-1.772512 0.709799,-1.346652 1.098932,-3.017968 1.171877,-5.014607 l 0.0094,-0.322207 c 0,-1.850749 -0.335907,-3.445245 -1.00587,-4.785189 -0.36482,-0.723783 -0.805799,-1.288541 -1.323247,-1.699189 -0.51742,-0.41197 -1.088557,-0.630239 -1.718758,-0.649137 h -0.02929 -0.02457 v -0.0049 z m -0.0094,1.909143 h 0.0049 0.0049 0.01984 0.0094 0.0049 c 0.503908,0.04725 0.960477,0.483782 1.367194,1.303755 0.530743,1.054777 0.795878,2.365145 0.795878,3.930728 v 0.229607 0.04724 c -0.05953,1.678308 -0.383057,3.060771 -0.966808,4.155328 -0.490868,0.928823 -1.002496,1.396448 -1.53321,1.396448 h -0.01984 c -0.504192,-0.0378 -0.963945,-0.474333 -1.38184,-1.30366 -0.530743,-1.054777 -0.795878,-2.365146 -0.795878,-3.930728 v -0.229608 -0.04724 c 0.05953,-1.678307 0.383057,-3.060865 0.966808,-4.155327 0.489357,-0.925989 0.994512,-1.393614 1.523441,-1.396543 z m 134.702822,6.025447 -2.40724,0.102993 -1.4795,23.100774 c -2.86421,-0.02835 -5.73666,-0.04724 -8.61821,-0.04724 -1.34319,0 -2.68396,0.0033 -4.02346,0.0094 l -0.67871,-22.959136 -2.46583,-0.112442 0.74702,23.086035 c -2.99966,0.0189 -5.98973,0.06614 -8.96977,0.117166 l -2.91993,-22.944396 -2.3926,0.16063 2.7051,22.837057 c -3.43062,0.07559 -6.84635,0.167245 -10.24907,0.283466 l -4.62893,-22.827324 -2.5342,0.414805 4.57034,22.505024 c -3.08343,0.114331 -6.15498,0.246615 -9.21392,0.395907 h -0.005 l -6.45023,-22.192455 -2.61721,0.571656 6.32816,21.757902 c -8.35309,0.434648 -16.60957,0.998273 -24.760862,1.679725 L 84.190225,50.093055 81.597438,51.562826 91.700023,71.660562 C 81.111946,72.59033 70.703501,73.7258 60.508468,75.054122 h -0.0049 l -14.931711,-19.248094 -2.04103,2.036136 13.691481,17.646511 c -7.038554,0.950178 -13.974758,1.992577 -20.800893,3.125023 l 2.016615,2.094719 c 38.363447,-6.272156 80.21324,-9.726567 124.01918,-9.726567 40.60549,0 79.52739,2.969589 115.55233,8.398435 l 1.66016,-2.167948 c -9.5793,-1.461172 -19.36543,-2.748958 -29.3312,-3.852586 l 5.46879,-8.559538 h 0.005 c 10.23759,1.10514 20.28173,2.405209 30.11246,3.886697 l 1.66016,-2.167948 c -9.90318,-1.510685 -20.0266,-2.836833 -30.34195,-3.964933 l 4.84377,-7.578084 -1.99707,-2.002026 -5.90823,9.25299 h -0.005 c -3.57887,-0.376064 -7.18215,-0.730397 -10.80571,-1.059595 l 4.82424,-9.121084 -2.49513,-1.513709 -5.47366,10.356524 c -3.50091,-0.303309 -7.02162,-0.58205 -10.56158,-0.840004 l 4.27737,-9.746127 -2.64162,-1.323219 -4.76076,10.844746 c -3.61751,-0.24945 -7.25758,-0.472443 -10.91314,-0.673704 l 3.37892,-10.268649 -2.69044,-1.708922 -7.47563,22.729529 h -0.005 c -3.0014,-0.170079 -6.01698,-0.322206 -9.04302,-0.459215 l 5.66409,-23.095861 -2.99806,-0.02835 -5.85941,22.983515 c -3.41203,-0.140788 -6.83708,-0.262679 -10.27837,-0.360947 l 3.32033,-22.343826 -2.78809,-0.551814 -3.17385,22.822411 c -3.33254,-0.08504 -6.67613,-0.150237 -10.03423,-0.195591 z m 39.89277,16.045024 c 3.57395,0.194646 7.12658,0.41386 10.66411,0.654806 l -3.77443,8.593743 c -3.22537,-0.235277 -6.4654,-0.446931 -9.72172,-0.644413 z m 13.79401,0.87402 c 3.47459,0.250395 6.92933,0.521577 10.36626,0.815437 l -4.54592,8.593837 c -3.18324,-0.285356 -6.38361,-0.553703 -9.59965,-0.801264 z m 13.51081,1.088887 h 0.005 c 3.54636,0.317482 7.07274,0.66142 10.57623,1.025391 l -5.4639,8.549805 c -3.20445,-0.341104 -6.4274,-0.66331 -9.66801,-0.966807 z M 162.45726,207.06942 a 1.2500061,1.2500061 0 0 0 -1.25,1.24999 1.2500061,1.2500061 0 0 0 1.25,1.24999 1.2500061,1.2500061 0 0 0 1.25001,-1.24999 1.2500061,1.2500061 0 0 0 -1.25001,-1.24999 z" /><path
   style="baseline-shift:baseline;display:inline;overflow:visible;vector-effect:none;fill:#ff6e6e;fill-opacity:1;stroke-width:9.45151;stroke-linejoin:round;stroke-miterlimit:0;enable-background:accumulate;stop-color:#000000"
   d="m 298.75147,67.220918 c -4.81907,0 -8.75005,3.931012 -8.75005,8.750122 0,4.819016 3.93098,8.768452 8.75005,8.768452 4.81906,0 8.75004,-3.949436 8.75004,-8.768452 0,-4.81911 -3.93098,-8.750122 -8.75004,-8.750122 z m 0,2.510564 c 0.45071,0 0.3892,0.722838 0.81222,0.811657 -1.38435,0.553704 -2.87974,1.289581 -2.87975,2.861211 -6e-5,2.057018 1.70896,3.74742 3.76583,3.747514 1.57054,-9.4e-5 2.30641,-1.478652 2.86132,-2.861399 0.36538,0.795594 1.69831,0.74268 1.69831,1.679913 0,3.467545 -2.79037,6.257889 -6.25794,6.257889 -3.46758,0 -6.25795,-2.790344 -6.25794,-6.257889 -10e-6,-3.467639 2.79036,-6.239558 6.25794,-6.239558 z m 1.69831,2.418342 c 0.70536,0 1.23682,0.549924 1.23683,1.255187 2e-5,0.704886 -0.5315,1.255282 -1.23683,1.255282 -0.70536,0 -1.25529,-0.549924 -1.25527,-1.255282 1e-5,-0.704885 0.54992,-1.255187 1.25527,-1.255187 z"
   id="path29" /><path
   id="NEEDLE"
   style="fill:#1fbdd2;fill-opacity:1;stroke-width:3.77955;stroke-linecap:round;stroke-opacity:1"
   d="m 160.01716,0.03307292 -0.0586,3.31544588 c -0.43579,1.0113593 -4.1846,10.0232272 -4.1846,20.9961972 0,10.348265 1.49338,18.952322 3.46193,20.747172 l -0.0387,2.25587 -2.82228,162.788882 -0.005,0.0151 c -0.37087,1.12183 -0.0406,1.93248 0.4834,2.96877 0.52432,1.03628 1.85015,1.72852 3.16897,1.72852 1.31882,0 2.35076,-1.06834 3.16407,-1.72852 0.81326,-0.66019 0.61342,-2.4673 0.47367,-2.99319 v -0.005 -0.005 l -2.82264,-162.769822 -0.0391,-2.285168 c 1.95126,-1.864185 3.42775,-10.430829 3.42775,-20.717874 0,-10.716383 -3.57734,-19.5631193 -4.15042,-20.913189 v -0.00488 z" 
   transform="rotate({{needle}}, 160.0, 180.0)" />
   <g
   id="g7"><rect
     style="fill:#3c3c3c;fill-opacity:1;stroke-width:5.88847"
     id="rect8"
     width="320"
     height="48.133045"
     x="0"
     y="131.28508" /><path
     id="label_left"
     style="fill:#bfff6a;fill-opacity:1;stroke-width:9.44886"
     d="m 15.058668,130.91751 v 2.60255 h 1.293951 287.320751 1.29394 v -2.60255 H 303.67337 16.352619 Z m 128.203752,6.95804 -0.0737,1.16211 c -0.0142,0.2023 -0.0331,0.38816 -0.034,0.59084 v 0.0142 c 0,3.49902 2.04355,6.60209 5.11234,8.75005 3.06879,2.14796 7.20729,3.41337 11.75298,3.4131 4.54568,2.7e-4 8.66955,-1.26514 11.73834,-3.4131 3.0688,-2.14796 5.11233,-5.25103 5.11233,-8.75005 v -0.0142 c -7.7e-4,-0.20268 -0.004,-0.38854 -0.0198,-0.59084 l -0.0926,-1.16211 z m -117.090416,1.84571 c -1.301211,0 -2.31423,0.42123 -3.037125,1.26466 -0.722895,0.83131 -1.08399,1.94714 -1.08399,3.34473 0,1.18073 0.325958,2.2214 0.976567,3.12502 0.650611,0.89159 1.656141,1.3379 3.017594,1.3379 1.915669,0 3.141767,-0.93789 3.671893,-2.8174 l -1.718759,-0.56154 c -0.289154,1.24096 -0.943687,1.86036 -1.967783,1.86036 -1.433742,0 -2.153331,-1.02311 -2.153331,-3.07131 0,-1.97591 0.729669,-2.96388 2.18751,-2.96388 1.012056,0 1.631447,0.48898 1.860361,1.46485 l 1.752938,-0.41499 c -0.48193,-1.71089 -1.650445,-2.5684 -3.505875,-2.5684 z m 214.986406,0 v 11.70903 h 2.24122 V 147.192 c 0,-1.81527 0.61852,-2.72462 1.85547,-2.72462 0.56231,0 0.93176,0.17046 1.10841,0.50778 0.19276,0.33732 0.2881,0.99274 0.2881,1.97267 v 4.48244 h 2.24122 v -4.98538 c 0,-1.22087 -0.2074,-2.13858 -0.62504,-2.74903 -0.41764,-0.62655 -1.17326,-0.93752 -2.26564,-0.93752 -0.99599,0 -1.86358,0.42303 -2.60255,1.27442 v -4.31154 z m -210.303767,0.18066 v 8.78423 h 1.77247 v -3.31057 h 1.15235 c 1.072294,0 1.834499,-0.0803 2.280284,-0.24897 0.457835,-0.18076 0.826407,-0.48171 1.10352,-0.90331 0.277107,-0.43371 0.415042,-0.98027 0.415042,-1.63087 0,-0.72284 -0.180549,-1.30714 -0.541996,-1.75293 -0.349401,-0.4578 -0.753113,-0.72624 -1.210944,-0.81053 -0.445788,-0.0841 -1.157892,-0.12699 -2.1338,-0.12699 z m 241.295127,0.009 -2.26563,1.30372 v 1.68458 h -1.03517 v 1.78712 h 1.03517 v 3.71096 c 0,1.18873 0.12869,2.01458 0.3857,2.48048 0.27307,0.46592 0.87497,0.69827 1.80665,0.69827 0.65859,0 1.25209,-0.11207 1.78224,-0.33695 l -0.19531,-1.73341 c -0.40167,0.14456 -0.70422,0.21486 -0.91304,0.21486 -0.24095,0 -0.40309,-0.0953 -0.48341,-0.28809 -0.0803,-0.19276 -0.11716,-0.63733 -0.11716,-1.32813 v -3.41799 h 1.51368 v -1.78681 h -1.51368 z m -126.04065,0.45411 h 27.82728 c -0.27751,2.22285 -1.2979,4.36622 -3.59866,5.9766 -2.57936,1.80539 -6.24466,2.97388 -10.31743,2.97364 -4.07277,2.4e-4 -7.7332,-1.16825 -10.31255,-2.97364 -2.30075,-1.61038 -3.32114,-3.75375 -3.59864,-5.9766 z m 142.20772,0.48832 c -1.78314,0 -3.02019,0.53159 -3.71095,1.5918 -0.32127,0.53018 -0.48341,0.97822 -0.48341,1.34767 0,0.72293 0.55663,1.43674 1.66505,2.14357 -1.44579,0.62646 -2.16797,1.5275 -2.16797,2.7002 0,0.54614 0.14891,1.07773 0.45411,1.5918 0.41764,0.59443 0.99098,1.05082 1.71387,1.37208 0.739,0.32126 1.61491,0.48341 2.62697,0.48341 2.13655,0 3.62268,-0.61853 4.45803,-1.85549 0.49805,-0.49795 0.74702,-1.09634 0.74702,-1.78711 0,-0.59433 -0.20381,-1.11268 -0.60548,-1.56251 -0.38551,-0.46592 -0.95397,-0.7817 -1.70899,-0.94234 0.56231,-0.16072 1.01034,-0.43483 1.34767,-0.82035 0.33732,-0.40157 0.50778,-0.84132 0.50778,-1.32324 0,-0.59434 -0.27411,-1.17949 -0.82035,-1.75782 -0.41764,-0.41774 -0.95758,-0.71689 -1.61622,-0.89358 -0.65868,-0.19276 -1.45944,-0.2881 -2.40724,-0.2881 z m 11.34771,0 c -1.78314,0 -3.02019,0.53159 -3.71095,1.5918 -0.32127,0.53018 -0.4785,0.97822 -0.4785,1.34767 0,0.72293 0.55172,1.43674 1.66017,2.14357 -1.44579,0.62646 -2.16798,1.5275 -2.16798,2.7002 0,0.54614 0.15383,1.07773 0.45903,1.5918 0.41764,0.59443 0.98609,1.05082 1.70899,1.37208 0.73899,0.32126 1.61491,0.48341 2.62696,0.48341 2.13656,0 3.62269,-0.61853 4.45803,-1.85549 0.49805,-0.49795 0.74703,-1.09634 0.74703,-1.78711 0,-0.59433 -0.1989,-1.11268 -0.60057,-1.56251 -0.38551,-0.46592 -0.95885,-0.7817 -1.71387,-0.94234 0.5623,-0.16072 1.01522,-0.43483 1.35255,-0.82035 0.33732,-0.40157 0.50296,-0.84132 0.50296,-1.32324 0,-0.59434 -0.27411,-1.17949 -0.82035,-1.75782 -0.41764,-0.41774 -0.9527,-0.71689 -1.61134,-0.89358 -0.65868,-0.19276 -1.46432,-0.2881 -2.41212,-0.2881 z m -267.037437,0.52734 h 0.864259 c 0.927709,0 1.537021,0.0926 1.826181,0.27345 0.289163,0.18076 0.434572,0.50675 0.434572,0.97657 0,0.48189 -0.162984,0.81053 -0.48828,0.99122 -0.325305,0.16866 -0.88191,0.25389 -1.665047,0.25389 h -0.971685 z m -14.008857,0.23925 c -0.867472,0 -1.52948,0.36113 -1.987315,1.08399 v -0.94243 h -1.572273 v 8.78422 h 1.679695 v -3.21779 c 0.578318,0.62656 1.197707,0.94243 1.860361,0.94243 0.819283,0 1.463724,-0.31843 1.933603,-0.95704 0.48193,-0.63855 0.727544,-1.44338 0.727544,-2.40724 0,-0.90359 -0.230647,-1.6759 -0.688482,-2.31446 -0.457835,-0.65065 -1.109757,-0.97168 -1.953133,-0.97168 z m 270.225924,0.82517 c 0.33742,0 0.63657,0.0454 0.89358,0.14164 0.27317,0.0803 0.49711,0.18397 0.6738,0.31247 0.24095,0.22498 0.36133,0.49068 0.36133,0.79588 0,0.54624 -0.28593,0.9741 -0.86429,1.2793 -0.24104,0.17641 -0.46989,0.28838 -0.67871,0.33695 -0.20892,0.0321 -0.45799,0.0491 -0.74703,0.0491 -0.5623,0 -1.00199,-0.14542 -1.32325,-0.43455 -0.40167,-0.35339 -0.60057,-0.72284 -0.60057,-1.1084 0,-0.41774 0.199,-0.75374 0.60057,-1.01075 0.24104,-0.14428 0.49002,-0.23962 0.74703,-0.28809 0.2571,-0.0482 0.56806,-0.0737 0.93752,-0.0737 z m 11.3526,0 c 0.33742,0 0.63165,0.0454 0.88866,0.14164 0.27317,0.0803 0.50202,0.18397 0.67872,0.31247 0.24094,0.22498 0.36132,0.49068 0.36132,0.79588 0,0.54624 -0.29084,0.9741 -0.86911,1.2793 -0.24104,0.17641 -0.46497,0.28838 -0.67379,0.33695 -0.20892,0.0321 -0.45799,0.0491 -0.74703,0.0491 -0.5623,0 -1.00687,-0.14542 -1.32813,-0.43455 -0.40168,-0.35339 -0.60057,-0.72284 -0.60057,-1.1084 0,-0.41774 0.19899,-0.75374 0.60057,-1.01075 0.24104,-0.14428 0.49001,-0.23962 0.74702,-0.28809 0.25701,-0.0482 0.57289,-0.0737 0.94234,-0.0737 z m -64.58039,0.26362 c -2.37752,0 -3.56447,0.8676 -3.56447,2.60256 0,0.64252 0.22403,1.18592 0.6738,1.63575 0.44977,0.44976 1.7119,0.91106 3.78419,1.37695 0.6105,0.1286 0.91305,0.36926 0.91305,0.72265 0,0.61049 -0.535,0.91305 -1.61134,0.91305 -1.01206,0 -1.62224,-0.44807 -1.83106,-1.34767 l -2.24122,0.36133 c 0.44977,1.73495 1.80721,2.60255 4.07228,2.60255 1.06025,0 1.96473,-0.24067 2.71975,-0.72265 0.75506,-0.4819 1.13281,-1.18741 1.13281,-2.11915 0,-0.72293 -0.23235,-1.27118 -0.69827,-1.64063 -0.44976,-0.38561 -1.25896,-0.70489 -2.43165,-0.96193 -1.59037,-0.35348 -2.38771,-0.72283 -2.38771,-1.10839 0,-0.46593 0.50655,-0.69828 1.51856,-0.69828 0.88356,0 1.41511,0.3361 1.5918,1.01076 l 2.11916,-0.3857 c -0.43371,-1.49398 -1.68748,-2.24123 -3.75978,-2.24123 z m 42.65158,0 c -1.18877,0 -2.13499,0.41953 -2.84182,1.2549 -0.6908,0.83537 -1.03516,1.91862 -1.03516,3.25196 0,1.22089 0.31937,2.25408 0.96192,3.10549 0.64253,0.83537 1.69246,1.25488 3.15431,1.25488 1.86345,0 3.09215,-0.83424 3.68654,-2.50489 l -2.23634,-0.38571 c -0.22488,0.81932 -0.7029,1.2256 -1.42578,1.2256 -1.15665,0 -1.77516,-0.70545 -1.85548,-2.11916 h 5.63967 c 0,-3.38958 -1.34905,-5.08303 -4.04786,-5.08303 z m -13.27644,0.0491 c -1.1245,0 -2.06237,0.48142 -2.81739,1.44532 v -1.25488 h -2.07521 v 8.48148 h 2.24122 v -3.82814 c 0,-1.51007 0.18709,-2.41107 0.55664,-2.70021 0.36945,-0.28913 0.80079,-0.43455 1.29883,-0.43455 0.5623,0 0.93175,0.1955 1.10841,0.58101 0.19275,0.36945 0.28809,1.04992 0.28809,2.04592 v 4.33595 h 2.24123 v -5.27346 c 0,-2.26507 -0.94622,-3.39845 -2.84182,-3.39845 z m -14.40925,0.14164 v 5.37601 c 0,2.20081 0.93789,3.30079 2.8174,3.30079 1.20483,0 2.14758,-0.48983 2.82228,-1.46973 v 1.27931 h 2.07032 v -8.48635 h -2.24122 v 3.56936 c 0,1.39757 -0.1287,2.31039 -0.38571,2.74415 -0.24094,0.43379 -0.72246,0.65433 -1.44531,0.65433 -0.56231,0 -0.94007,-0.20381 -1.13283,-0.60548 -0.17669,-0.41764 -0.26372,-1.23518 -0.26372,-2.45607 v -3.90629 z m -232.432777,0.0586 c 0.927718,0 1.391608,0.65452 1.391608,1.96778 0,1.33735 -0.45381,2.00685 -1.357429,2.00685 -0.975908,0 -1.459967,-0.70205 -1.459967,-2.09962 0,-1.25301 0.473974,-1.87501 1.425788,-1.87501 z m 260.264947,1.45997 c 1.076,0 1.63607,0.6686 1.68457,2.00196 h -3.34962 c 0,-1.33334 0.55663,-2.00196 1.66505,-2.00196 z m 10.19048,2.36329 c 0.72293,0 1.26283,0.21563 1.61622,0.64942 0.24094,0.27307 0.36132,0.60908 0.36132,1.01076 0,0.64261 -0.17886,1.09553 -0.53225,1.35254 -0.41764,0.35338 -0.9527,0.52734 -1.61134,0.52734 -0.62655,0 -1.14974,-0.20741 -1.56738,-0.62505 -0.24095,-0.24094 -0.36133,-0.62712 -0.36133,-1.15723 0,-0.53017 0.18227,-0.95316 0.55172,-1.27442 0.36945,-0.32126 0.88432,-0.48341 1.54298,-0.48341 z m 11.35259,0 c 0.72294,0 1.25795,0.21563 1.61134,0.64942 0.24094,0.27307 0.36132,0.60908 0.36132,1.01076 0,0.64261 -0.17395,1.09553 -0.52734,1.35254 -0.41764,0.35338 -0.95758,0.52734 -1.61622,0.52734 -0.62655,0 -1.14975,-0.20741 -1.56739,-0.62505 -0.24094,-0.24094 -0.36132,-0.62712 -0.36132,-1.15723 0,-0.53017 0.18718,-0.95316 0.55663,-1.27442 0.36945,-0.32126 0.88432,-0.48341 1.54298,-0.48341 z" /></g><path
   id="path3"
   style="fill:#ff6e6e;fill-opacity:1;stroke-width:9.44886"
   d="m 266.63705,36.21002 c -0.30105,0.0094 -0.6172,0.03591 -0.94243,0.08315 l 0.293,1.855484 c 0.88886,-0.123781 1.63823,-0.07559 2.24611,0.156284 0.60785,0.228662 1.06486,0.572695 1.37207,1.030276 0.25493,0.365671 0.4116,0.771027 0.46385,1.215831 0.0453,0.444097 -0.0161,0.87591 -0.18558,1.293947 -0.21572,0.522522 -0.61465,0.966968 -1.19629,1.333018 -0.39213,0.255119 -0.87988,0.435403 -1.45509,0.5469 v 0.0049 c -0.32022,0.0189 -0.6497,0.05008 -0.9961,0.08787 l 0.20504,1.904306 h 0.0293 v 0.0094 c 0.23528,-0.0189 0.46461,-0.05008 0.69336,-0.07843 0.89538,-0.06614 1.63186,-0.05575 2.20705,0.02929 0.71896,0.11811 1.21796,0.318993 1.49902,0.600569 0.15024,0.144568 0.21487,0.295561 0.19531,0.459026 -0.0331,0.25512 -0.19096,0.528192 -0.47849,0.815437 -0.45751,0.483782 -1.13583,0.859847 -2.03126,1.12794 -0.89547,0.261733 -1.95161,0.316253 -3.17384,0.166016 l -0.24416,1.88966 c 1.54903,0.188977 2.90722,0.09884 4.07716,-0.27345 1.16994,-0.372286 2.0711,-0.891028 2.7051,-1.557627 0.58819,-0.607562 0.9258,-1.260346 1.01075,-1.953137 0.098,-0.784256 -0.16527,-1.482007 -0.78615,-2.089853 -0.35953,-0.346773 -0.86816,-0.6172 -1.52833,-0.82035 0.43786,-0.437483 0.76895,-0.932603 0.99122,-1.474618 0.30066,-0.725673 0.40724,-1.46036 0.3223,-2.211923 -0.0784,-0.757799 -0.33676,-1.459178 -0.78123,-2.099622 -0.49673,-0.732287 -1.20734,-1.285858 -2.12892,-1.665041 -0.68627,-0.284411 -1.47963,-0.41301 -2.38282,-0.380884 z m -35.3371,12.76862 -4.76076,10.844772 c -3.36176,-0.231781 -6.74172,-0.439939 -10.13677,-0.629861 l -0.79097,2.338877 c 3.31952,0.184159 6.61885,0.391278 9.90727,0.615216 l -3.77442,8.59379 c -3.0006,-0.218836 -6.01573,-0.419908 -9.04302,-0.605483 l -0.79106,2.333992 c 22.86607,1.389399 44.97966,3.726604 66.09896,6.909209 l 1.66017,-2.167976 c -9.57931,-1.461173 -19.36544,-2.74893 -29.33121,-3.852557 l 5.46878,-8.559614 h 0.005 c 10.23759,1.105139 20.28173,2.405256 30.11246,3.886743 l 1.66016,-2.167985 c -9.90318,-1.510685 -20.0266,-2.836757 -30.34195,-3.964857 l 4.84377,-7.578168 -1.99707,-2.001959 -5.90823,9.252969 h -0.005 c -3.57887,-0.376065 -7.18215,-0.730397 -10.80571,-1.059567 l 4.82424,-9.121139 -2.49513,-1.51368 -5.47366,10.356493 c -3.50092,-0.303309 -7.02162,-0.581861 -10.56158,-0.839815 l 4.27737,-9.746144 z m -2.65138,13.388737 c 3.4746,0.250395 6.92934,0.521578 10.36627,0.815437 l -4.54593,8.59379 c -3.18323,-0.285355 -6.3836,-0.553231 -9.59965,-0.800791 z m 13.51081,1.088869 h 0.005 c 3.54635,0.317481 7.07273,0.66142 10.57622,1.0254 l -5.4639,8.549843 c -3.20445,-0.341104 -6.4274,-0.66331 -9.66801,-0.966798 z" />
   <ellipse
   style="fill:#ff6e6e;fill-opacity:{{overflow}};stroke-width:9.44886"
   id="LED"
   cx="298.80338"
   cy="75.781578"
   rx="6.4939489"
   ry="6.6382589" />
</svg>




































