<?xml version="1.0" encoding="UTF-8" standalone="no"?>
<svg
   fill="none"
   viewBox="0 0 49 49"
   version="1.1"
   id="svg2"
   sodipodi:docname="cloudy_with_rain_dark.svg"
   inkscape:version="1.4.2 (1:1.4.2+202505120737+ebf0e940d0)"
   xmlns:inkscape="http://www.inkscape.org/namespaces/inkscape"
   xmlns:sodipodi="http://sodipodi.sourceforge.net/DTD/sodipodi-0.dtd"
   xmlns="http://www.w3.org/2000/svg"
   xmlns:svg="http://www.w3.org/2000/svg">
  <defs
     id="defs2" />
  <sodipodi:namedview
     id="namedview2"
     pagecolor="#ffffff"
     bordercolor="#666666"
     borderopacity="1.0"
     inkscape:showpageshadow="2"
     inkscape:pageopacity="0.0"
     inkscape:pagecheckerboard="0"
     inkscape:deskcolor="#d1d1d1"
     inkscape:zoom="16.285714"
     inkscape:cx="24.530702"
     inkscape:cy="24.5"
     inkscape:window-width="1920"
     inkscape:window-height="1011"
     inkscape:window-x="0"
     inkscape:window-y="32"
     inkscape:window-maximized="1"
     inkscape:current-layer="svg2" />
  <rect
     x="0.0"
     y="0.0"
     width="49.0"
     height="49.0"
     fill="#ff0000"
     stroke="none"
     data-bg="1"
     id="rect1" />
  <path
     fill-rule="evenodd"
     d="M30.406 31.085c-3.405 3.576-3.313 9.143.275 12.611 3.682 3.559 9.652 3.559 13.334 0 3.682-3.559 3.682-9.328 0-12.887a6.223 6.223 0 0 0-.059-.056l-4.51-4.36a15.969 15.969 0 0 1-9.04 4.692Z"
     clip-rule="evenodd"
     fill="#ff0000"
     stroke="white"
     stroke-width="1px"
     id="path1"
     style="fill:#ffffff;fill-opacity:1;stroke:none" />
  <path
     d="M40.493 15.074c0 6.853-5.462 12.44-12.299 12.699v.01H10.976l-.118-.001c-4.463 0-8.081-3.594-8.081-8.027 0-4.432 3.618-8.026 8.081-8.026 1.55 0 2.997.433 4.226 1.183 1.034-5.989 6.287-10.547 12.613-10.547 7.067 0 12.796 5.69 12.796 12.709Z"
     fill="#ff0000"
     stroke="white"
     stroke-width="1px"
     id="path2" />
</svg>
