<?xml version='1.0' encoding='utf-8' standalone='no'?>
<svg xmlns="http://www.w3.org/2000/svg" fill="none" viewBox="0 0 48 48">
  <rect x="0.0" y="0.0" width="48.0" height="48.0" fill="#ff0000" stroke="none" data-bg="1"/><path fill-rule="evenodd" d="M47 16.5c0 8.358-6.662 15.171-15 15.488V32H11v-.002l-.143.001C5.413 31.999 1 27.616 1 22.21c0-5.407 4.413-9.79 9.857-9.79 1.889 0 3.654.528 5.154 1.444C17.271 6.559 23.678 1 31.393 1 40.013 1 47 7.939 47 16.5Z" clip-rule="evenodd" fill="#ff0000" stroke="white" stroke-width="1px"/>
  <path d="m32 33-4.243 4.101a5.663 5.663 0 0 0 0 8.201c2.343 2.264 6.142 2.264 8.486 0a5.663 5.663 0 0 0 0-8.201l-.038-.036L32 33Z" fill="white" stroke="none"/>
  </svg>
