<?xml version="1.0" encoding="UTF-8" standalone="no"?>
<svg
   fill="none"
   viewBox="0 0 48 48"
   version="1.1"
   id="svg1"
   sodipodi:docname="haze_fog_dust_smoke.svg"
   inkscape:version="1.4.2 (1:1.4.2+202505120737+ebf0e940d0)"
   xmlns:inkscape="http://www.inkscape.org/namespaces/inkscape"
   xmlns:sodipodi="http://sodipodi.sourceforge.net/DTD/sodipodi-0.dtd"
   xmlns="http://www.w3.org/2000/svg"
   xmlns:svg="http://www.w3.org/2000/svg">
  <defs
     id="defs1" />
  <sodipodi:namedview
     id="namedview1"
     pagecolor="#ffffff"
     bordercolor="#666666"
     borderopacity="1.0"
     inkscape:showpageshadow="2"
     inkscape:pageopacity="0.0"
     inkscape:pagecheckerboard="0"
     inkscape:deskcolor="#d1d1d1"
     inkscape:zoom="16.625"
     inkscape:cx="24.030075"
     inkscape:cy="24"
     inkscape:window-width="1920"
     inkscape:window-height="1011"
     inkscape:window-x="0"
     inkscape:window-y="32"
     inkscape:window-maximized="1"
     inkscape:current-layer="svg1" />
  <rect
     x="0.0"
     y="0.0"
     width="48.0"
     height="48.0"
     fill="#ff0000"
     stroke="none"
     data-bg="1"
     id="rect1" />
  <path
     d="M33.01 33c-2.45 0-3.96.76-5.29 1.44-1.17.59-2.1 1.06-3.71 1.06-1.61 0-2.54-.47-3.71-1.06-1.33-.68-2.84-1.44-5.29-1.44s-3.96.76-5.29 1.44c-1.17.59-2.1 1.06-3.71 1.06V39c2.45 0 3.96-.76 5.29-1.44 1.17-.59 2.1-1.06 3.71-1.06 1.61 0 2.54.47 3.71 1.06 1.33.67 2.84 1.44 5.29 1.44s3.96-.76 5.29-1.44c1.17-.59 2.1-1.06 3.71-1.06 1.61 0 2.54.47 3.71 1.06 1.33.67 2.84 1.44 5.29 1.44v-3.5c-1.61 0-2.54-.47-3.71-1.06-1.33-.68-2.84-1.44-5.29-1.44ZM33.01 25c-2.45 0-3.96.76-5.29 1.44-1.17.59-2.1 1.06-3.71 1.06-1.61 0-2.54-.47-3.71-1.06-1.33-.68-2.84-1.44-5.29-1.44s-3.96.76-5.29 1.44c-1.17.59-2.1 1.06-3.71 1.06V31c2.45 0 3.96-.76 5.29-1.44 1.17-.59 2.1-1.06 3.71-1.06 1.61 0 2.54.47 3.71 1.06 1.33.67 2.84 1.44 5.29 1.44s3.96-.76 5.29-1.44c1.17-.59 2.1-1.06 3.71-1.06 1.61 0 2.54.47 3.71 1.06 1.33.67 2.84 1.44 5.29 1.44v-3.5c-1.61 0-2.54-.47-3.71-1.06-1.33-.68-2.84-1.44-5.29-1.44ZM33.01 17c-2.45 0-3.96.76-5.29 1.44-1.17.59-2.1 1.06-3.71 1.06-1.61 0-2.54-.47-3.71-1.06-1.33-.68-2.84-1.44-5.29-1.44s-3.96.76-5.29 1.44c-1.17.59-2.1 1.06-3.71 1.06V23c2.45 0 3.96-.76 5.29-1.44 1.17-.59 2.1-1.06 3.71-1.06 1.61 0 2.54.47 3.71 1.06 1.33.67 2.84 1.44 5.29 1.44s3.96-.76 5.29-1.44c1.17-.59 2.1-1.06 3.71-1.06 1.61 0 2.54.47 3.71 1.06 1.33.67 2.84 1.44 5.29 1.44v-3.5c-1.61 0-2.54-.47-3.71-1.06-1.33-.68-2.84-1.44-5.29-1.44ZM38.3 10.44C36.97 9.76 35.46 9 33.01 9s-3.96.76-5.29 1.44c-1.17.59-2.1 1.06-3.71 1.06-1.61 0-2.54-.47-3.71-1.06C18.97 9.76 17.46 9 15.01 9s-3.96.76-5.29 1.44c-1.17.59-2.1 1.06-3.71 1.06V15c2.45 0 3.96-.76 5.29-1.44 1.17-.59 2.1-1.06 3.71-1.06 1.61 0 2.54.47 3.71 1.06 1.33.67 2.84 1.44 5.29 1.44s3.96-.76 5.29-1.44c1.17-.59 2.1-1.06 3.71-1.06 1.61 0 2.54.47 3.71 1.06 1.33.67 2.84 1.44 5.29 1.44v-3.5c-1.61 0-2.54-.47-3.71-1.06Z"
     fill="#ff0000"
     stroke="white"
     stroke-width="1px"
     id="path1"
     style="fill:#ffffff;fill-opacity:1;stroke:none" />
</svg>
