<?xml version="1.0" encoding="UTF-8" standalone="no"?>
<svg
   fill="none"
   viewBox="0 0 48 48"
   version="1.1"
   id="svg5"
   sodipodi:docname="mixed_rain_snow.svg"
   inkscape:version="1.4.2 (1:1.4.2+202505120737+ebf0e940d0)"
   xmlns:inkscape="http://www.inkscape.org/namespaces/inkscape"
   xmlns:sodipodi="http://sodipodi.sourceforge.net/DTD/sodipodi-0.dtd"
   xmlns="http://www.w3.org/2000/svg"
   xmlns:svg="http://www.w3.org/2000/svg">
  <defs
     id="defs5" />
  <sodipodi:namedview
     id="namedview5"
     pagecolor="#ffffff"
     bordercolor="#666666"
     borderopacity="1.0"
     inkscape:showpageshadow="2"
     inkscape:pageopacity="0.0"
     inkscape:pagecheckerboard="0"
     inkscape:deskcolor="#d1d1d1"
     inkscape:zoom="16.625"
     inkscape:cx="24.030075"
     inkscape:cy="24"
     inkscape:window-width="1920"
     inkscape:window-height="1011"
     inkscape:window-x="0"
     inkscape:window-y="32"
     inkscape:window-maximized="1"
     inkscape:current-layer="svg5" />
  <rect
     x="0.0"
     y="0.0"
     width="48.0"
     height="48.0"
     fill="#ff0000"
     stroke="none"
     data-bg="1"
     id="rect1" />
  <path
     fill-rule="evenodd"
     d="M47 16.5c0 8.358-6.662 15.171-15 15.488V32H11v-.002l-.143.001C5.413 31.999 1 27.616 1 22.21c0-5.407 4.413-9.79 9.857-9.79 1.889 0 3.655.528 5.154 1.444C17.271 6.559 23.679 1 31.393 1 40.013 1 47 7.939 47 16.5Z"
     clip-rule="evenodd"
     fill="#ff0000"
     stroke="white"
     stroke-width="1px"
     id="path1" />
  <path
     fill-rule="evenodd"
     d="M19.13 41.391V47h1.74v-5.609l5.26 2.805.87-1.392L21.74 40 27 37.196l-.87-1.392-5.26 2.805V33h-1.74v5.609l-5.26-2.805-.87 1.392L18.26 40 13 42.804l.87 1.392 5.26-2.805Z"
     clip-rule="evenodd"
     fill="#ff0000"
     stroke="white"
     stroke-width="1px"
     id="path2"
     style="fill:#ffffff;fill-opacity:1;stroke:none" />
  <path
     d="m37 35 5.657 5.656L37 46.312l-5.657-5.656L37 35Z"
     fill="#ff0000"
     stroke="white"
     stroke-width="1px"
     id="path4"
     style="fill:#ffffff;fill-opacity:1;stroke:none" />
  <path
     d="m37 19-4.243 4.101a5.663 5.663 0 0 0 0 8.201c2.344 2.264 6.143 2.264 8.486 0a5.663 5.663 0 0 0 0-8.201l-.038-.036L37 19Z"
     fill="#ff0000"
     stroke="white"
     stroke-width="1px"
     id="path5"
     style="stroke:none;fill:#ffffff;fill-opacity:1" />
</svg>
