<?xml version="1.0" encoding="UTF-8" standalone="no"?>
<svg
   fill="none"
   viewBox="0 0 48 48"
   version="1.1"
   id="svg2"
   sodipodi:docname="partly_cloudy_day.svg"
   inkscape:version="1.4.2 (1:1.4.2+202505120737+ebf0e940d0)"
   xmlns:inkscape="http://www.inkscape.org/namespaces/inkscape"
   xmlns:sodipodi="http://sodipodi.sourceforge.net/DTD/sodipodi-0.dtd"
   xmlns="http://www.w3.org/2000/svg"
   xmlns:svg="http://www.w3.org/2000/svg">
  <defs
     id="defs2" />
  <sodipodi:namedview
     id="namedview2"
     pagecolor="#ffffff"
     bordercolor="#666666"
     borderopacity="1.0"
     inkscape:showpageshadow="2"
     inkscape:pageopacity="0.0"
     inkscape:pagecheckerboard="0"
     inkscape:deskcolor="#d1d1d1"
     inkscape:zoom="16.625"
     inkscape:cx="24.030075"
     inkscape:cy="24"
     inkscape:window-width="1920"
     inkscape:window-height="1011"
     inkscape:window-x="0"
     inkscape:window-y="32"
     inkscape:window-maximized="1"
     inkscape:current-layer="svg2" />
  <rect
     x="0.0"
     y="0.0"
     width="48.0"
     height="48.0"
     fill="#ff0000"
     stroke="none"
     data-bg="1"
     id="rect1" />
  <path
     d="M33.995 7.163a8.022 8.022 0 0 1 7.45 7.451 8.022 8.022 0 0 0 1.958 4.725 8.022 8.022 0 0 1 0 10.537 8.025 8.025 0 0 0-1.957 4.726 8.023 8.023 0 0 1-7.451 7.451 8.021 8.021 0 0 0-4.726 1.957 8.02 8.02 0 0 1-10.536 0 8.021 8.021 0 0 0-4.726-1.957 8.024 8.024 0 0 1-7.452-7.451 8.025 8.025 0 0 0-1.957-4.726 8.022 8.022 0 0 1 0-10.537 8.022 8.022 0 0 0 1.957-4.725 8.022 8.022 0 0 1 7.452-7.451 8.027 8.027 0 0 0 4.726-1.957 8.02 8.02 0 0 1 10.535 0 8.027 8.027 0 0 0 4.727 1.957Z"
     fill="#ff0000"
     stroke="white"
     stroke-width="1px"
     id="path1"
     style="fill:#ffffff;fill-opacity:1;stroke:none" />
  <path
     fill-rule="evenodd"
     d="M47 31.999c0 7.318-5.715 13.325-13 13.947V46H14v-.002c-4.971 0-9-3.959-9-8.842 0-4.883 4.029-8.841 9-8.841 1.725 0 3.337.476 4.706 1.303C19.857 23.021 25.706 18 32.75 18 40.62 18 47 24.268 47 31.999Z"
     clip-rule="evenodd"
     fill="#ff0000"
     stroke="white"
     stroke-width="1px"
     id="path2" />
</svg>
