<?xml version="1.0" encoding="UTF-8" standalone="no"?>
<svg
   fill="none"
   viewBox="0 0 48 48"
   version="1.1"
   id="svg2"
   sodipodi:docname="partly_cloudy_night.svg"
   inkscape:version="1.4.2 (1:1.4.2+202505120737+ebf0e940d0)"
   xmlns:inkscape="http://www.inkscape.org/namespaces/inkscape"
   xmlns:sodipodi="http://sodipodi.sourceforge.net/DTD/sodipodi-0.dtd"
   xmlns="http://www.w3.org/2000/svg"
   xmlns:svg="http://www.w3.org/2000/svg">
  <defs
     id="defs2" />
  <sodipodi:namedview
     id="namedview2"
     pagecolor="#ffffff"
     bordercolor="#666666"
     borderopacity="1.0"
     inkscape:showpageshadow="2"
     inkscape:pageopacity="0.0"
     inkscape:pagecheckerboard="0"
     inkscape:deskcolor="#d1d1d1"
     inkscape:zoom="16.625"
     inkscape:cx="24.030075"
     inkscape:cy="24"
     inkscape:window-width="1920"
     inkscape:window-height="1011"
     inkscape:window-x="0"
     inkscape:window-y="32"
     inkscape:window-maximized="1"
     inkscape:current-layer="svg2" />
  <rect
     x="0.0"
     y="0.0"
     width="48.0"
     height="48.0"
     fill="#ff0000"
     stroke="none"
     data-bg="1"
     id="rect1" />
  <path
     fill-rule="evenodd"
     d="M23.849 1c-3.231 3.937-5.163 8.932-5.163 14.368 0 12.705 10.558 23.005 23.582 23.005.245 0 .489-.004.732-.011C38.679 43.628 32.034 47 24.582 47 11.558 47 1 36.7 1 23.995 1 11.528 11.164 1.377 23.849 1Z"
     clip-rule="evenodd"
     fill="#ff0000"
     stroke="white"
     stroke-width="1px"
     id="path1"
     style="fill:#ffffff;fill-opacity:1;stroke:none" />
  <path
     fill-rule="evenodd"
     d="M47 31.5c0 8.358-6.662 15.172-15 15.488V47H10.857C5.413 47 1 42.617 1 37.211c0-5.407 4.413-9.79 9.857-9.79 1.889 0 3.654.528 5.154 1.443C17.271 21.559 23.678 16 31.393 16 40.012 16 47 22.94 47 31.5Z"
     clip-rule="evenodd"
     fill="#ff0000"
     stroke="white"
     stroke-width="1px"
     id="path2" />
</svg>
