<?xml version="1.0" encoding="UTF-8" standalone="no"?>
<svg
   fill="none"
   viewBox="0 0 49 49"
   version="1.1"
   id="svg4"
   sodipodi:docname="snow_with_cloudy_light.svg"
   inkscape:version="1.4.2 (1:1.4.2+202505120737+ebf0e940d0)"
   xmlns:inkscape="http://www.inkscape.org/namespaces/inkscape"
   xmlns:sodipodi="http://sodipodi.sourceforge.net/DTD/sodipodi-0.dtd"
   xmlns="http://www.w3.org/2000/svg"
   xmlns:svg="http://www.w3.org/2000/svg">
  <defs
     id="defs4" />
  <sodipodi:namedview
     id="namedview4"
     pagecolor="#ffffff"
     bordercolor="#666666"
     borderopacity="1.0"
     inkscape:showpageshadow="2"
     inkscape:pageopacity="0.0"
     inkscape:pagecheckerboard="0"
     inkscape:deskcolor="#d1d1d1"
     inkscape:zoom="16.285714"
     inkscape:cx="24.530702"
     inkscape:cy="24.5"
     inkscape:window-width="1920"
     inkscape:window-height="1011"
     inkscape:window-x="0"
     inkscape:window-y="32"
     inkscape:window-maximized="1"
     inkscape:current-layer="svg4" />
  <rect
     x="0.0"
     y="0.0"
     width="49.0"
     height="49.0"
     fill="#ff0000"
     stroke="none"
     data-bg="1"
     id="rect1" />
  <path
     d="M24.94 46.442h-.046c-3.023 0-5.467-2.434-5.467-5.428 0-.73.145-1.426.408-2.061.048-.117.177-.221.37-.243a20.37 20.37 0 0 0 7.722-2.502l.006-.003.418-.243.005-.003a20.602 20.602 0 0 0 6.992-6.904.471.471 0 0 1 .307-.227 9.062 9.062 0 0 1 1.673-.155c4.945 0 8.949 3.981 8.949 8.884 0 4.788-3.817 8.696-8.6 8.878l-.185.007H24.94Z"
     fill="#ff0000"
     stroke="white"
     stroke-width="1px"
     id="path1" />
  <path
     d="M24.94 46.442h-.046c-3.023 0-5.467-2.434-5.467-5.428 0-.73.145-1.426.408-2.061.048-.117.177-.221.37-.243a20.37 20.37 0 0 0 7.722-2.502l.006-.003.418-.243.005-.003a20.602 20.602 0 0 0 6.992-6.904.471.471 0 0 1 .307-.227 9.062 9.062 0 0 1 1.673-.155c4.945 0 8.949 3.981 8.949 8.884 0 4.788-3.817 8.696-8.6 8.878l-.185.007H24.94Z"
     fill="#ff0000"
     stroke="white"
     stroke-width="1px"
     id="path2" />
  <path
     d="M24.94 46.442h-.046c-3.023 0-5.467-2.434-5.467-5.428 0-.73.145-1.426.408-2.061.048-.117.177-.221.37-.243a20.37 20.37 0 0 0 7.722-2.502l.006-.003.418-.243.005-.003a20.602 20.602 0 0 0 6.992-6.904.471.471 0 0 1 .307-.227 9.062 9.062 0 0 1 1.673-.155c4.945 0 8.949 3.981 8.949 8.884 0 4.788-3.817 8.696-8.6 8.878l-.185.007H24.94Z"
     fill="#ff0000"
     stroke="white"
     stroke-width="1px"
     id="path3" />
  <path
     fill-rule="evenodd"
     d="M26.85 29.741a.5.5 0 0 1-.612-.354l-1.312-4.896a.5.5 0 0 0-.233-.304l-2.125-1.227a.527.527 0 0 0-.61.07 6.238 6.238 0 0 1-2.078 1.208.528.528 0 0 0-.363.493v2.442a.5.5 0 0 0 .147.354l3.586 3.585a.5.5 0 0 1 0 .707l-1.626 1.627a.5.5 0 0 1-.707 0l-2.696-2.695a.5.5 0 0 0-.707 0l-2.696 2.695a.5.5 0 0 1-.707 0l-1.626-1.627a.5.5 0 0 1 0-.707l3.586-3.585a.5.5 0 0 0 .146-.353v-2.426a.528.528 0 0 0-.367-.495 6.238 6.238 0 0 1-2.105-1.207.527.527 0 0 0-.609-.068l-2.094 1.209a.5.5 0 0 0-.233.304l-1.313 4.897a.5.5 0 0 1-.612.353l-2.222-.595a.5.5 0 0 1-.353-.612l.986-3.68a.5.5 0 0 0-.354-.613l-3.681-.987a.5.5 0 0 1-.354-.612l.595-2.221a.5.5 0 0 1 .613-.354l4.898 1.312a.5.5 0 0 0 .379-.05l2.083-1.202a.528.528 0 0 0 .245-.564 6.269 6.269 0 0 1-.003-2.445.528.528 0 0 0-.245-.563l-2.08-1.2a.5.5 0 0 0-.379-.05l-4.898 1.312a.5.5 0 0 1-.613-.353l-.595-2.222a.5.5 0 0 1 .354-.612l3.68-.987a.5.5 0 0 0 .354-.612l-.986-3.68a.5.5 0 0 1 .353-.613l2.222-.596a.5.5 0 0 1 .612.354l1.312 4.896a.5.5 0 0 0 .233.304l2.086 1.204c.195.112.44.08.609-.069a6.237 6.237 0 0 1 2.115-1.216.528.528 0 0 0 .367-.494V9.51a.5.5 0 0 0-.146-.354l-3.586-3.585a.5.5 0 0 1 0-.708l1.626-1.626a.5.5 0 0 1 .707 0l2.696 2.695a.5.5 0 0 0 .707 0l2.695-2.695a.5.5 0 0 1 .708 0l1.626 1.626a.5.5 0 0 1 0 .708l-3.586 3.585a.5.5 0 0 0-.147.353v2.428c0 .224.15.42.363.493a6.239 6.239 0 0 1 2.088 1.216c.17.15.415.183.61.07l2.115-1.22a.5.5 0 0 0 .233-.304l1.312-4.897a.5.5 0 0 1 .613-.353l2.221.595a.5.5 0 0 1 .354.612l-.986 3.68a.5.5 0 0 0 .353.613l3.682.987a.5.5 0 0 1 .353.612l-.595 2.221a.5.5 0 0 1-.612.354l-4.898-1.313a.5.5 0 0 0-.38.05l-2.125 1.227a.528.528 0 0 0-.245.56 6.273 6.273 0 0 1-.002 2.399c-.044.22.05.449.245.561l2.127 1.228a.5.5 0 0 0 .38.05l4.898-1.312a.5.5 0 0 1 .612.353l.596 2.222a.5.5 0 0 1-.354.612l-3.681.986a.5.5 0 0 0-.354.613l.986 3.68a.5.5 0 0 1-.353.613l-2.222.595ZM14.899 18.334a2.944 2.944 0 1 1 5.888.001 2.944 2.944 0 0 1-5.888 0Z"
     clip-rule="evenodd"
     fill="#ff0000"
     stroke="white"
     stroke-width="1px"
     id="path4"
     style="fill:#ffffff;fill-opacity:1;stroke:none" />
</svg>
