<?xml version="1.0" encoding="UTF-8" standalone="no"?>
<svg
   fill="none"
   viewBox="0 0 49 49"
   version="1.1"
   id="svg3"
   sodipodi:docname="sunny_with_snow_light.svg"
   inkscape:version="1.4.2 (1:1.4.2+202505120737+ebf0e940d0)"
   xmlns:inkscape="http://www.inkscape.org/namespaces/inkscape"
   xmlns:sodipodi="http://sodipodi.sourceforge.net/DTD/sodipodi-0.dtd"
   xmlns="http://www.w3.org/2000/svg"
   xmlns:svg="http://www.w3.org/2000/svg">
  <sodipodi:namedview
     id="namedview3"
     pagecolor="#ffffff"
     bordercolor="#666666"
     borderopacity="1.0"
     inkscape:showpageshadow="2"
     inkscape:pageopacity="0.0"
     inkscape:pagecheckerboard="0"
     inkscape:deskcolor="#d1d1d1"
     inkscape:zoom="16.285714"
     inkscape:cx="24.530702"
     inkscape:cy="24.5"
     inkscape:window-width="1920"
     inkscape:window-height="1011"
     inkscape:window-x="0"
     inkscape:window-y="32"
     inkscape:window-maximized="1"
     inkscape:current-layer="svg3" />
  <rect
     x="0.0"
     y="0.0"
     width="49.0"
     height="49.0"
     fill="#ff0000"
     stroke="none"
     data-bg="1"
     id="rect1" />
  <path
     d="m 27.059,5.16 a 6.21,6.21 0 0 1 5.774,5.774 6.21,6.21 0 0 0 1.517,3.662 6.21,6.21 0 0 1 0,8.166 6.21,6.21 0 0 0 -1.517,3.662 6.21,6.21 0 0 1 -5.774,5.774 6.21,6.21 0 0 0 -3.662,1.517 6.21,6.21 0 0 1 -8.166,0 6.21,6.21 0 0 0 -3.662,-1.517 6.21,6.21 0 0 1 -5.775,-5.774 6.21,6.21 0 0 0 -1.517,-3.662 6.21,6.21 0 0 1 0,-8.166 6.21,6.21 0 0 0 1.517,-3.662 6.21,6.21 0 0 1 5.775,-5.775 6.21,6.21 0 0 0 3.662,-1.517 6.21,6.21 0 0 1 8.166,0 6.21,6.21 0 0 0 3.662,1.517 z"
     fill="#ff0000"
     stroke="#ffffff"
     stroke-width="1px"
     id="path1"
     style="fill:#ffffff;fill-opacity:1;stroke:none" />
  <path
     fill-rule="evenodd"
     d="m 31.927,34.147 c -0.13,0.085 -0.18,0.25 -0.201,0.404 a 4.586,4.586 0 0 0 0,1.298 0.538,0.538 0 0 1 -0.252,0.547 l -1.102,0.636 a 0.5,0.5 0 0 1 -0.379,0.05 L 26.872,36.246 A 0.5,0.5 0 0 0 26.259,36.6 l -0.44,1.642 a 0.5,0.5 0 0 0 0.354,0.612 l 2.075,0.556 a 0.5,0.5 0 0 1 0.353,0.612 l -0.556,2.075 a 0.5,0.5 0 0 0 0.354,0.612 l 1.642,0.44 a 0.5,0.5 0 0 0 0.612,-0.353 l 0.837,-3.122 a 0.5,0.5 0 0 1 0.233,-0.303 l 1.111,-0.642 c 0.19,-0.11 0.426,-0.08 0.598,0.053 0.337,0.263 0.712,0.48 1.114,0.64 a 0.538,0.538 0 0 1 0.35,0.493 v 1.288 a 0.5,0.5 0 0 1 -0.147,0.353 l -2.285,2.285 a 0.5,0.5 0 0 0 0,0.707 l 1.202,1.202 a 0.5,0.5 0 0 0 0.707,0 l 1.519,-1.518 a 0.5,0.5 0 0 1 0.707,0 l 1.519,1.518 a 0.5,0.5 0 0 0 0.707,0 l 1.202,-1.202 a 0.5,0.5 0 0 0 0,-0.707 L 37.742,41.556 A 0.5,0.5 0 0 1 37.595,41.203 V 39.9 c 0,-0.219 0.143,-0.41 0.345,-0.491 a 4.545,4.545 0 0 0 1.097,-0.638 0.538,0.538 0 0 1 0.6,-0.055 l 1.131,0.654 a 0.5,0.5 0 0 1 0.233,0.303 l 0.837,3.122 a 0.5,0.5 0 0 0 0.612,0.353 l 1.642,-0.44 a 0.5,0.5 0 0 0 0.354,-0.612 L 43.89,40.021 a 0.5,0.5 0 0 1 0.353,-0.612 l 2.075,-0.556 a 0.5,0.5 0 0 0 0.353,-0.612 l -0.44,-1.642 a 0.5,0.5 0 0 0 -0.612,-0.354 l -3.121,0.837 a 0.5,0.5 0 0 1 -0.38,-0.05 l -1.134,-0.655 a 0.538,0.538 0 0 1 -0.253,-0.546 4.585,4.585 0 0 0 0.002,-1.265 0.538,0.538 0 0 1 0.252,-0.544 l 1.133,-0.654 a 0.5,0.5 0 0 1 0.38,-0.05 l 3.121,0.836 a 0.5,0.5 0 0 0 0.612,-0.353 l 0.44,-1.642 A 0.5,0.5 0 0 0 46.318,31.546 L 44.243,30.99 A 0.5,0.5 0 0 1 43.89,30.378 l 0.556,-2.075 a 0.5,0.5 0 0 0 -0.354,-0.612 l -1.642,-0.44 a 0.5,0.5 0 0 0 -0.612,0.354 L 41,30.726 a 0.5,0.5 0 0 1 -0.233,0.304 l -1.124,0.65 a 0.538,0.538 0 0 1 -0.6,-0.056 4.545,4.545 0 0 0 -1.104,-0.643 0.538,0.538 0 0 1 -0.345,-0.491 v -1.291 a 0.5,0.5 0 0 1 0.147,-0.354 l 2.285,-2.285 a 0.5,0.5 0 0 0 0,-0.707 l -1.202,-1.202 a 0.5,0.5 0 0 0 -0.707,0 l -1.52,1.519 c -0.113,0.113 -0.247,0.228 -0.264,0.388 a 2.934,2.934 0 0 0 -0.009,0.103 9.705,9.705 0 0 1 -4.399,7.486 z m 2.453,1.048 a 1.848,1.848 0 1 1 3.696,0 1.848,1.848 0 0 1 -3.696,0 z"
     clip-rule="evenodd"
     fill="#ff0000"
     stroke="#ffffff"
     stroke-width="1px"
     id="path2"
     style="fill:#ffffff;fill-opacity:1;stroke:none" />
  <defs
     id="defs3" />
</svg>
