<?xml version="1.0" encoding="UTF-8" standalone="no"?>
<svg
   height="24"
   viewBox="0 0 48 48"
   width="24"
   version="1.1"
   id="svg1"
   sodipodi:docname="umbrella.svg"
   inkscape:version="1.4.2 (1:1.4.2+202505120737+ebf0e940d0)"
   xmlns:inkscape="http://www.inkscape.org/namespaces/inkscape"
   xmlns:sodipodi="http://sodipodi.sourceforge.net/DTD/sodipodi-0.dtd"
   xmlns="http://www.w3.org/2000/svg"
   xmlns:svg="http://www.w3.org/2000/svg">
  <defs
     id="defs1" />
  <sodipodi:namedview
     id="namedview1"
     pagecolor="#ffffff"
     bordercolor="#666666"
     borderopacity="1.0"
     inkscape:showpageshadow="2"
     inkscape:pageopacity="0.0"
     inkscape:pagecheckerboard="0"
     inkscape:deskcolor="#d1d1d1"
     inkscape:zoom="33.25"
     inkscape:cx="12.015038"
     inkscape:cy="12"
     inkscape:window-width="1920"
     inkscape:window-height="1011"
     inkscape:window-x="0"
     inkscape:window-y="32"
     inkscape:window-maximized="1"
     inkscape:current-layer="svg1" />
  <rect
     x="0.0"
     y="0.0"
     width="48.0"
     height="48.0"
     fill="#ff0000"
     stroke="none"
     data-bg="1"
     id="rect1" />
  <path
     d="M44.63 23.21C42 13.78 34.1 6.81 25.5 6.07V4.5c0-.83-.67-1.5-1.5-1.5s-1.5.67-1.5 1.5v1.57c-8.66.74-16.53 7.78-19.1 17.32-.07.2-.1.41-.08.62v.01c.06.73.64 1.31 1.36 1.37.63.05 1.21-.28 1.48-.83a4.575 4.575 0 0 1 3.87-2.12c2.16 0 4.02 1.43 4.51 3.47.16.65.73 1.12 1.4 1.15.69.02 1.28-.4 1.48-1.04.56-1.73 2.59-3.06 5.07-3.45V39c0 3.31 2.69 6 6 6s6-2.69 6-6c0-.83-.67-1.5-1.5-1.5s-1.5.67-1.5 1.5c0 1.65-1.35 3-3 3s-3-1.35-3-3V22.57c2.48.39 4.51 1.71 5.07 3.45.2.62.78 1.04 1.43 1.04h.06c.67-.03 1.24-.49 1.4-1.15.49-2.04 2.34-3.47 4.49-3.47 1.27 0 2.99.34 3.94 1.94.31.53.92.81 1.54.71.61-.1 1.1-.57 1.22-1.18.06-.22.06-.47-.01-.7zm-6.68-3.77a7.65 7.65 0 0 0-6.13 3.03c-1.79-1.87-4.66-3.03-7.83-3.03s-6.04 1.17-7.83 3.03c-1.4-1.87-3.65-3.03-6.14-3.03-.68 0-1.34.09-1.97.26C11.11 13.88 16.84 9 24 9c6.47 0 12.68 4.29 16.02 10.67-.65-.15-1.34-.23-2.07-.23z"
     fill="#ff0000"
     stroke="white"
     stroke-width="1px"
     id="path1"
     style="fill:#ffffff;fill-opacity:1;stroke:none" />
</svg>
