<?xml version="1.0" encoding="UTF-8" standalone="no"?>
<svg
   fill="none"
   viewBox="0 0 48 48"
   version="1.1"
   id="svg6"
   sodipodi:docname="very_hot.svg"
   inkscape:version="1.4.2 (1:1.4.2+202505120737+ebf0e940d0)"
   xmlns:inkscape="http://www.inkscape.org/namespaces/inkscape"
   xmlns:sodipodi="http://sodipodi.sourceforge.net/DTD/sodipodi-0.dtd"
   xmlns="http://www.w3.org/2000/svg"
   xmlns:svg="http://www.w3.org/2000/svg">
  <sodipodi:namedview
     id="namedview6"
     pagecolor="#ffffff"
     bordercolor="#666666"
     borderopacity="1.0"
     inkscape:showpageshadow="2"
     inkscape:pageopacity="0.0"
     inkscape:pagecheckerboard="0"
     inkscape:deskcolor="#d1d1d1"
     inkscape:zoom="16.625"
     inkscape:cx="24.030075"
     inkscape:cy="24"
     inkscape:window-width="1920"
     inkscape:window-height="1011"
     inkscape:window-x="0"
     inkscape:window-y="32"
     inkscape:window-maximized="1"
     inkscape:current-layer="svg6" />
  <rect
     x="0.0"
     y="0.0"
     width="48.0"
     height="48.0"
     fill="#ff0000"
     stroke="none"
     data-bg="1"
     id="rect1" />
  <path
     fill-rule="evenodd"
     d="m 35.577,4 a 6.5,6.5 0 0 0 -6.5,6.5 V 29.859 A 9.973,9.973 0 0 0 26,37.076 c 0,5.522 4.477,10 10,10 5.523,0 10,-4.478 10,-10 A 9.969,9.969 0 0 0 42.923,29.86 l 10e-4,-0.052 V 10.5 A 6.5,6.5 0 0 0 36.424,4 Z"
     clip-rule="evenodd"
     fill="#ff0000"
     stroke="#ffffff"
     stroke-width="1px"
     id="path1"
     style="stroke:none;fill:#ffffff;fill-opacity:1" />
  <path
     fill-rule="evenodd"
     d="m 36.001,6.513 a 3.75,3.75 0 0 0 -3.75,3.75 V 31.27 a 6.923,6.923 0 1 0 7.5,-0.001 V 10.263 a 3.75,3.75 0 0 0 -3.75,-3.75 z"
     clip-rule="evenodd"
     fill="#ff0000"
     stroke="#ffffff"
     stroke-width="1px"
     id="path2" />
  <path
     d="m 36.001,34.003 a 3.75,3.75 0 1 1 0,7.5 3.75,3.75 0 0 1 0,-7.5 z"
     fill="#ffffff"
     stroke="none"
     id="path3"
     style="stroke-width:1px" />
  <path
     d="m 36,12 a 1.333,1.333 0 0 1 1.333,1.333 v 21.334 a 1.333,1.333 0 1 1 -2.666,0 V 13.333 A 1.333,1.333 0 0 1 36,12 Z"
     fill="#ff0000"
     stroke="#ffffff"
     stroke-width="1px"
     id="path4"
     style="fill:#ffffff;fill-opacity:1;stroke:none" />
  <path
     fill-rule="evenodd"
     d="M 24.903,44.17 A 7.922,7.922 0 0 1 15.92,43.175 7.923,7.923 0 0 0 11.25,41.24 7.917,7.917 0 0 1 3.887,33.877 a 7.923,7.923 0 0 0 -1.935,-4.67 7.919,7.919 0 0 1 0,-10.413 7.923,7.923 0 0 0 1.935,-4.67 7.917,7.917 0 0 1 7.363,-7.363 7.922,7.922 0 0 0 4.67,-1.934 7.917,7.917 0 0 1 10.413,0 c 0.212,0.184 0.432,0.357 0.66,0.517 A 9.19,9.19 0 0 0 26.214,9.062 V 27.62 c -2.214,3.414 -3.088,5.894 -3.088,10.032 0,2.394 0.6,4.627 1.777,6.518 z"
     clip-rule="evenodd"
     fill="#ff0000"
     stroke="#ffffff"
     stroke-width="1px"
     id="path5"
     style="fill:#ffffff;fill-opacity:1;stroke:none" />
  <defs
     id="defs6" />
</svg>
