<?xml version="1.0" encoding="UTF-8" standalone="no"?>
<!-- Created with Inkscape (http://www.inkscape.org/) -->

<svg
   width="256"
   height="64"
   viewBox="0 0 256 64"
   version="1.1"
   id="svg1"
   xmlns="http://www.w3.org/2000/svg"
   xmlns:svg="http://www.w3.org/2000/svg">
  <defs
     id="defs1" />
  <rect
     style="fill:#000000;fill-opacity:1;stroke:none;stroke-width:9.3;stroke-linecap:round;stroke-linejoin:round"
     id="PEAK_RIGHT_ect1"
     width="256"
     height="64"
     x="0"
     y="0" />
  <g
     id="g1"
     transform="translate(-4.806198,70)">
    <path
       style="fill-opacity:{{peak_15}};fill:#fe0000;stroke:#363636;stroke-width:0.530984;stroke-opacity:1"
       d="m 242.59095,-41.58786 v 19.105233 h 12.43258 c 0.006,0 0.01,-0.03499 0.01,-0.07807 V -41.509 c 0,-0.04301 -0.004,-0.0729 -0.01,-0.0729 z"
       id="PEAK_15" />
    <path
       style="fill-opacity:{{peak_14}};fill:#fe0000;stroke:#363636;stroke-width:0.530984;stroke-opacity:1"
       d="m 228.59085,-41.58786 v 19.105233 h 12.19078 V -41.58786 Z"
       id="PEAK_14" />
    <path
       style="ffill-opacity:{{peak_13}};fill:#fe0000;stroke:#363636;stroke-width:0.530984;stroke-opacity:1"
       d="m 214.39425,-41.58786 v 19.105233 h 12.38729 V -41.58786 Z"
       id="PEAK_13" />
    <path
       style="fill-opacity:{{peak_12}};fill:#febb35;stroke:#363636;stroke-width:0.530984;stroke-opacity:1"
       d="m 200.88203,-41.655781 v 19.10527 h 11.69182 v -19.10527 z"
       id="PEAK_12" />
    <path
       style="fill-opacity:{{peak_11}};fill:#febb35;stroke:#363636;stroke-width:0.530984;stroke-opacity:1"
       d="m 186.96331,-41.655781 v 19.10527 h 12.1094 v -19.10527 z"
       id="PEAK_11" />
    <path
       style="fill-opacity:{{peak_10}};fill:#febb35;stroke:#363636;stroke-width:0.530984;stroke-opacity:1"
       d="m 172.7667,-41.655781 v 19.10527 h 12.3873 v -19.10527 z"
       id="PEAK_10" />
    <path
       style="fill-opacity:{{peak_09}};fill:#febb35;stroke-opacity:1"
       d="m 158.15249,-41.655781 v 19.10527 h 12.8049 v -19.10527 z"
       id="PEAK_09" />
    <path
       style="fill-opacity:{{peak_08}};fill:#7ae047;stroke:#363636;stroke-width:0.530984;stroke-opacity:1"
       d="m 143.89038,-41.9509 v 19.105234 h 11.96971 V -41.9509 Z"
       id="PEAK_08" />
    <path
       style="fill-opacity:{{peak_07}};fill:#7ae047;stroke:#363636;stroke-width:0.530984;stroke-opacity:1"
       d="m 129.69377,-41.9509 v 19.105234 h 12.38731 V -41.9509 Z"
       id="PEAK_07" />
    <path
       style="fill-opacity:{{peak_06}};fill:#7ae047;stroke:#363636;stroke-width:0.530984;stroke-opacity:1"
       d="m 115.21851,-41.9509 v 19.105234 h 12.66596 V -41.9509 Z"
       id="PEAK_06" />
    <path
       style="fill-opacity:{{peak_05}};fill:#7ae047;stroke:#363636;stroke-width:0.530984;stroke-opacity:1"
       d="m 101.43874,-41.9509 v 19.105234 h 11.96969 V -41.9509 Z"
       id="PEAK_05" />
    <path
       style="fill-opacity:{{peak_04}};fill:#7ae047;stroke:#363636;stroke-width:0.530984;stroke-opacity:1"
       d="m 86.963475,-41.9509 v 19.105234 h 12.66596 V -41.9509 Z"
       id="PEAK_04" />
    <path
       style="fill-opacity:{{peak_03}};fill:#7ae047;stroke:#363636;stroke-width:0.530984;stroke-opacity:1"
       d="m 73.044755,-41.9509 v 19.105234 H 85.154171 V -41.9509 Z"
       id="PEAK_03" />
    <path
       style="fill-opacity:{{peak_02}};fill:#7ae047;stroke:#363636;stroke-width:0.530984;stroke-opacity:1"
       d="m 58.848151,-41.9509 v 19.105234 H 71.23545 V -41.9509 Z"
       id="PEAK_02" />
    <path
       style="fill-opacity:{{peak_01}};fill:#7ae047;stroke:#363636;stroke-width:0.530984;stroke-opacity:1"
       d="m 44.581699,-41.9509 v 19.105234 H 57.038843 V -41.9509 Z"
       id="PEAK_01" />
    <path
       style="fill-opacity:{{peak_00}};fill:#7ae047;stroke:#363636;stroke-width:0.530984;stroke-opacity:1"
       d="m 31.0821,-41.9509 c -0.0059,0 -0.01041,0.03791 -0.01041,0.07808 v 18.948339 c 0,0.04301 0.0044,0.07808 0.01041,0.07808 h 11.69029 v -19.105233 z"
       id="PEAK_00" />
  </g>
  <path
     id="scale_titles_01"
     style="fill:#f7f7d7;fill-opacity:1"
     d="m 155.66626,51.853349 v 5.898825 h 4.09989 v -5.898822 z m 4.55962,0.0048 v 5.898826 h 4.09989 v -5.898826 z m -3.70553,0.733422 h 0.8541 c 0.93307,0 1.709,0.992145 1.709,2.212547 0,1.223078 -0.77636,2.212547 -1.709,2.212547 h -0.8541 z m 6.09336,0.0048 h 0.85488 v 4.425093 h -0.85488 c -0.93221,0 -1.70825,-0.989547 -1.70825,-2.212546 0,-1.220446 0.77561,-2.212547 1.70825,-2.212547 z M 31.864486,13.903589 c -0.430862,0 -0.783962,0.108244 -1.059378,0.323669 -0.273164,0.215425 -0.431441,0.515241 -0.475876,0.899488 l 0.60273,0.04609 c 0.02677,-0.246481 0.120801,-0.437227 0.282899,-0.572709 0.16433,-0.135482 0.379165,-0.202987 0.643481,-0.202987 0.290913,0 0.509172,0.07328 0.655766,0.219873 0.148814,0.144378 0.223687,0.341776 0.223687,0.592744 0,0.253213 -0.09149,0.452224 -0.273688,0.596562 -0.179874,0.142178 -0.433909,0.212946 -0.762628,0.212946 h -0.326692 v 0.519658 h 0.339772 c 0.370891,-3.6e-5 0.6541,0.07242 0.849491,0.216763 0.197681,0.142178 0.296746,0.340402 0.296746,0.595819 0,0.29312 -0.08658,0.514651 -0.259821,0.663476 -0.170994,0.148783 -0.407506,0.222943 -0.709577,0.222943 -0.601872,0 -0.94255,-0.27738 -1.022481,-0.832612 l -0.619632,0.05613 c 0.05326,0.419751 0.220696,0.73787 0.50276,0.953295 0.284265,0.213182 0.664067,0.319812 1.139353,0.319812 0.510793,0 0.903896,-0.119076 1.179308,-0.356733 0.275385,-0.237625 0.412831,-0.57326 0.412831,-1.006315 0,-0.299816 -0.09744,-0.548029 -0.292924,-0.745703 C 32.99518,16.428125 32.722011,16.309883 32.3711,16.272136 v -0.01295 c 0.319819,-0.06663 0.562995,-0.193226 0.729568,-0.379759 0.168778,-0.188778 0.252937,-0.432819 0.252937,-0.732675 0,-0.390859 -0.130767,-0.695635 -0.392835,-0.913303 -0.259853,-0.219873 -0.62545,-0.32981 -1.096284,-0.32981 z m 3.827733,0 c -0.568577,0 -0.984978,0.20153 -1.249246,0.60349 -0.262073,0.401998 -0.392867,1.005842 -0.392867,1.812043 0,0.78841 0.135824,1.388043 0.406686,1.798937 0.270965,0.410855 0.675793,0.616554 1.215431,0.616554 0.539728,0 0.947757,-0.206565 1.223126,-0.619624 0.277659,-0.413099 0.415936,-1.011904 0.415936,-1.795867 0,-0.797305 -0.131656,-1.399417 -0.395945,-1.805864 -0.262068,-0.406446 -0.670121,-0.609669 -1.223121,-0.609669 z m 9.854222,0 c -0.424737,0.0723 -0.784005,0.111546 -1.059374,0.333667 -0.273168,0.222077 -0.431472,0.520276 -0.475876,0.89563 l 0.612696,0.05687 c 0.02869,-0.25093 0.125563,-0.445021 0.289815,-0.582747 0.166589,-0.139886 0.377319,-0.209875 0.632739,-0.209875 0.268721,0 0.4786,0.07081 0.62963,0.212985 0.150987,0.142087 0.226765,0.342012 0.226765,0.599632 0,0.191021 -0.04418,0.361771 -0.132994,0.512762 -0.08658,0.15103 -0.201539,0.29588 -0.343669,0.433606 -0.142075,0.137682 -0.302017,0.275136 -0.479702,0.412823 -0.175473,0.137729 -0.352879,0.287614 -0.532797,0.449744 -0.179874,0.159925 -0.352237,0.339807 -0.516611,0.539685 -0.162098,0.197673 -0.299544,0.426678 -0.412831,0.686503 v 0.42286 h 3.108189 v -0.509731 h -2.448569 c 0.06665,-0.155438 0.175709,-0.316191 0.326739,-0.482768 0.150998,-0.168782 0.354218,-0.357835 0.609638,-0.566608 0.464182,-0.377556 0.778172,-0.656549 0.942502,-0.836431 0.164374,-0.179922 0.28761,-0.359803 0.369805,-0.539685 0.08435,-0.179882 0.126901,-0.36063 0.126901,-0.542755 0,-0.410855 -0.128239,-0.727321 -0.383612,-0.949438 -0.253173,-0.224321 -0.622994,-0.416114 -1.089337,-0.336737 z m 3.797759,0 c -0.568545,0 -0.984993,0.20153 -1.249262,0.60349 -0.262069,0.401998 -0.392867,1.005842 -0.392867,1.812043 0,0.78841 0.135675,1.388043 0.406687,1.798937 0.270964,0.410855 0.675793,0.616554 1.215446,0.616554 0.539716,0 0.947741,-0.206565 1.22311,-0.619624 0.277616,-0.413099 0.41594,-1.011904 0.41594,-1.795867 0,-0.797305 -0.13166,-1.399417 -0.395948,-1.805864 -0.262069,-0.406446 -0.670121,-0.609669 -1.223106,-0.609669 z m 29.199735,0 c -0.568529,0 -0.984973,0.20153 -1.249246,0.60349 -0.262068,0.401998 -0.392866,1.005842 -0.392866,1.812043 0,0.78841 0.134935,1.388043 0.405927,1.798937 0.27092,0.410855 0.676509,0.616554 1.216194,0.616554 0.539685,0 0.94695,-0.206565 1.222362,-0.619624 0.277585,-0.413099 0.416684,-1.011904 0.416684,-1.795867 0,-0.797305 -0.132404,-1.399417 -0.396689,-1.805864 -0.262068,-0.406446 -0.669381,-0.609669 -1.222366,-0.609669 z m 39.017035,0 c -0.43084,0 -0.78396,0.108244 -1.05937,0.323669 -0.27317,0.215425 -0.43226,0.515241 -0.47662,0.899488 l 0.60349,0.04609 c 0.0268,-0.246481 0.1208,-0.437227 0.28289,-0.572709 0.16433,-0.135482 0.37842,-0.202987 0.6427,-0.202987 0.29091,0 0.50996,0.07328 0.65654,0.219873 0.14882,0.144378 0.22294,0.341776 0.22294,0.592744 0,0.253213 -0.0907,0.452224 -0.27293,0.596562 -0.17987,0.142178 -0.43471,0.212946 -0.76337,0.212946 h -0.32595 v 0.519658 h 0.33975 c 0.37091,-3.6e-5 0.65408,0.07242 0.84952,0.216763 0.19766,0.142178 0.29598,0.340402 0.29598,0.595819 0,0.29312 -0.0866,0.514651 -0.25985,0.663476 -0.17099,0.148783 -0.40752,0.222943 -0.70958,0.222943 -0.60187,0 -0.9425,-0.27738 -1.02249,-0.832612 l -0.61962,0.05613 c 0.0534,0.419751 0.22073,0.73787 0.5028,0.953295 0.28427,0.213182 0.66406,0.319812 1.13931,0.319812 0.51084,0 0.90395,-0.119076 1.17932,-0.356733 0.27541,-0.237625 0.4136,-0.57326 0.4136,-1.006315 0,-0.299816 -0.0982,-0.548029 -0.29367,-0.745703 -0.19547,-0.197673 -0.46863,-0.315915 -0.81955,-0.353662 v -0.01295 c 0.31981,-0.06663 0.56303,-0.193226 0.7296,-0.379759 0.16878,-0.188778 0.2537,-0.432819 0.2537,-0.732675 0,-0.390859 -0.13151,-0.695635 -0.39363,-0.913303 -0.25982,-0.219873 -0.62466,-0.32981 -1.09551,-0.32981 z m 15.57391,0 c -0.43084,0 -0.78396,0.111546 -1.05937,0.333667 -0.27317,0.222077 -0.43223,0.520276 -0.47662,0.89563 l 0.61349,0.05687 c 0.0287,-0.25093 0.12541,-0.445021 0.28981,-0.582747 0.16655,-0.139886 0.37729,-0.209875 0.63269,-0.209875 0.26872,0 0.47861,0.07081 0.62963,0.212985 0.15103,0.142087 0.2268,0.342012 0.2268,0.599632 0,0.191021 -0.0449,0.361771 -0.13374,0.512762 -0.0866,0.15103 -0.20075,0.29588 -0.34288,0.433606 -0.14208,0.137682 -0.30202,0.275136 -0.47969,0.412823 -0.17544,0.137729 -0.35288,0.287614 -0.53277,0.449744 -0.17991,0.159925 -0.35228,0.339807 -0.51661,0.539685 -0.16214,0.197673 -0.29958,0.426678 -0.41283,0.686503 v 0.42286 h 3.10815 v -0.509731 h -2.44857 c 0.0667,-0.155438 0.17497,-0.316191 0.32599,-0.482768 0.15103,-0.168782 0.35422,-0.357835 0.60964,-0.566608 0.46414,-0.377556 0.77892,-0.656549 0.94329,-0.836431 0.16435,-0.179922 0.28758,-0.359803 0.36976,-0.539685 0.0844,-0.179882 0.12601,-0.36063 0.12601,-0.542755 0,-0.410855 -0.1275,-0.727321 -0.38284,-0.949438 -0.25317,-0.224321 -0.61627,-0.336737 -1.08936,-0.336737 z m 26.92415,0 c -0.56853,0 -0.98495,0.20153 -1.24925,0.60349 -0.26207,0.401998 -0.39284,1.005842 -0.39284,1.812043 0,0.78841 0.13494,1.388043 0.4059,1.798937 0.27097,0.410855 0.67655,0.616554 1.21624,0.616554 0.53968,0 0.94695,-0.206565 1.22232,-0.619624 0.27761,-0.413099 0.41668,-1.011904 0.41668,-1.795867 0,-0.797305 -0.1324,-1.399417 -0.39668,-1.805864 -0.26206,-0.406446 -0.66934,-0.609669 -1.22237,-0.609669 z m 30.71886,0 c 0,0.43085 -0.78396,0.111546 -1.05937,0.333667 -0.27317,0.222077 -0.43223,0.520276 -0.47663,0.89563 l 0.61269,0.05687 c 0.0287,-0.25093 0.12549,-0.445021 0.28983,-0.582747 0.16657,-0.139886 0.37806,-0.209875 0.63348,-0.209875 0.26872,0 0.47864,0.07081 0.62963,0.212985 0.15103,0.142087 0.22601,0.342012 0.22601,0.599632 0,0.191021 -0.0442,0.361771 -0.13297,0.512762 -0.0866,0.15103 -0.20074,0.29588 -0.34288,0.433606 -0.14213,0.137682 -0.30205,0.275136 -0.47973,0.412823 -0.17544,0.137729 -0.35363,0.287614 -0.53355,0.449744 -0.17988,0.159925 -0.3515,0.339807 -0.51583,0.539685 -0.16213,0.197673 -0.30037,0.426678 -0.41361,0.686503 v 0.42286 h 3.10818 v -0.509731 h -2.44856 c 0.0666,-0.155438 0.17571,-0.316191 0.32674,-0.482768 0.15099,-0.168782 0.35421,-0.357835 0.60963,-0.566608 0.46419,-0.377556 0.77818,-0.656549 0.94251,-0.836431 0.16437,-0.179922 0.28761,-0.359803 0.3698,-0.539685 0.0844,-0.179882 0.12682,-0.36063 0.12682,-0.542755 0,-0.410855 -0.12742,-0.727321 -0.38283,-0.949438 -0.25321,-0.224321 -1.08936,-0.809777 -1.08936,-0.336737 z m 13.43516,0 c -0.43085,0 -0.78396,0.108244 -1.05937,0.323669 -0.27317,0.215425 -0.43223,0.515241 -0.47663,0.899488 l 0.60349,0.04609 c 0.0268,-0.246481 0.1208,-0.437227 0.2829,-0.572709 0.16437,-0.135482 0.37841,-0.202987 0.64269,-0.202987 0.29096,0 0.50997,0.07328 0.65655,0.219873 0.14878,0.144378 0.22294,0.341776 0.22294,0.592744 0,0.253213 -0.0908,0.452224 -0.27289,0.596562 -0.17989,0.142178 -0.43396,0.212946 -0.76263,0.212946 h -0.32674 v 0.519658 h 0.33981 c 0.37086,0 0.65403,0.07242 0.8495,0.216763 0.19767,0.142178 0.29674,0.340402 0.29674,0.595819 0,0.29312 -0.0866,0.514651 -0.25987,0.663476 -0.17098,0.148783 -0.40754,0.222943 -0.70956,0.222943 -0.60188,0 -0.9433,-0.27738 -1.02324,-0.832612 l -0.61963,0.05613 c 0.0533,0.419751 0.22149,0.73787 0.50355,0.953295 0.28427,0.213182 0.66403,0.319812 1.13932,0.319812 0.51079,0 0.9039,-0.119076 1.17931,-0.356733 0.27537,-0.237625 0.41282,-0.57326 0.41282,-1.006315 0,-0.299816 -0.0975,-0.548029 -0.29289,-0.745703 -0.19547,-0.197673 -0.4686,-0.315915 -0.81955,-0.353662 v -0.01295 c 0.31986,-0.06663 0.56303,-0.193226 0.72957,-0.379759 0.16878,-0.188778 0.25294,-0.432819 0.25294,-0.732675 0,-0.390859 -0.13077,-0.695635 -0.39283,-0.913303 -0.25986,-0.219873 -0.62545,-0.32981 -1.0963,-0.32981 z m 44.22398,0 c -0.56854,0 -0.98494,0.20153 -1.24926,0.60349 -0.26207,0.401998 -0.39361,1.005842 -0.39361,1.812043 0,0.78841 0.13572,1.388043 0.40668,1.798937 0.27093,0.410855 0.6765,0.616554 1.21623,0.616554 0.53965,0 0.94696,-0.206565 1.22233,-0.619624 0.27762,-0.413099 0.41668,-1.011904 0.41668,-1.795867 0,-0.797305 -0.13242,-1.399417 -0.39668,-1.805864 -0.26207,-0.406446 -0.66935,-0.609669 -1.22237,-0.609669 z m -189.378553,0.06998 -1.10936,0.763377 v 0.565816 l 1.059374,-0.755696 v 3.610937 h -1.195438 v 0.509735 h 2.941359 v -0.509735 h -1.142431 v -4.184434 z m 2.595388,0 -0.156816,2.525427 h 0.58656 c 0.139989,-0.122138 0.27986,-0.208773 0.419747,-0.25986 0.139993,-0.05106 0.290723,-0.07687 0.452822,-0.07687 0.310951,0 0.557476,0.09159 0.73955,0.27368 0.184369,0.182126 0.276798,0.420381 0.276798,0.715749 0,0.339807 -0.09075,0.607938 -0.272929,0.803367 -0.182137,0.193226 -0.434432,0.289819 -0.756499,0.289819 -0.524137,0 -0.849731,-0.232312 -0.976318,-0.696501 l -0.605812,0.06995 c 0.07111,0.362046 0.240975,0.638517 0.509696,0.829539 0.268763,0.190981 0.621863,0.286748 1.059374,0.286748 0.521937,0 0.929202,-0.142414 1.222366,-0.426674 0.295376,-0.284269 0.44282,-0.674026 0.44282,-1.169315 0,-0.435295 -0.137462,-0.788445 -0.412831,-1.05937 -0.273168,-0.270965 -0.640489,-0.406687 -1.102428,-0.406687 -0.386407,0 -0.709608,0.0999 -0.969429,0.299816 l 0.09,-1.489118 h 2.12183 v -0.509692 z m 12.952398,0 -1.109375,0.763377 v 0.565816 l 1.059374,-0.755696 v 3.610937 h -1.196195 v 0.509735 h 2.942119 v -0.509735 h -1.143174 v -4.184434 z m 14.131667,0 v 0.509692 h 2.521613 c -0.595236,0.863944 -1.020025,1.628419 -1.275429,2.29249 -0.253173,0.661819 -0.37976,1.292315 -0.37976,1.891987 h 0.625761 c 0,-0.433094 0.0491,-0.851983 0.146834,-1.256221 0.09997,-0.404207 0.248993,-0.813959 0.446674,-1.229262 0.197626,-0.415303 0.535788,-0.989154 1.015521,-1.722064 v -0.486622 z m 13.86491,0 -0.15602,2.525427 h 0.58577 c 0.13999,-0.122138 0.27986,-0.208773 0.41975,-0.25986 0.13998,-0.05106 0.29072,-0.07687 0.45281,-0.07687 0.31096,0 0.55823,0.09159 0.74035,0.27368 0.18434,0.182126 0.27601,0.420381 0.27601,0.715749 0,0.339807 -0.0907,0.607938 -0.27293,0.803367 -0.18214,0.193226 -0.43443,0.289819 -0.7565,0.289819 -0.52414,0 -0.84899,-0.232312 -0.97558,-0.696501 l -0.60655,0.06995 c 0.0711,0.362046 0.24102,0.638517 0.50969,0.829539 0.26876,0.190981 0.62188,0.286748 1.05938,0.286748 0.52193,0 0.9292,-0.142414 1.22236,-0.426674 0.29538,-0.284269 0.44361,-0.674026 0.44361,-1.169315 0,-0.435295 -0.1382,-0.788445 -0.41362,-1.05937 -0.27317,-0.270965 -0.64049,-0.406687 -1.10242,-0.406687 -0.38646,0 -0.70961,0.0999 -0.96943,0.299816 l 0.0898,-1.489118 h 2.12183 v -0.509692 z m 44.04102,0 -1.10932,0.763377 v 0.565816 l 1.05937,-0.755696 v 3.610937 h -1.19624 v 0.509735 h 2.94136 v -0.509735 h -1.14241 v -4.184434 z m 28.63317,0 -1.10936,0.763377 v 0.565816 l 1.05938,-0.755696 v 3.610937 h -1.19624 v 0.509735 h 2.94137 v -0.509735 h -1.14243 v -4.184434 z m 41.09194,0 -0.15602,2.525427 h 0.58577 c 0.13993,-0.122138 0.27986,-0.208773 0.41975,-0.25986 0.13993,-0.05106 0.29147,-0.07687 0.4536,-0.07687 0.31092,0 0.55744,0.09159 0.73957,0.27368 0.18433,0.182126 0.276,0.420381 0.276,0.715749 0,0.339807 -0.0908,0.607938 -0.27293,0.803367 -0.18213,0.193226 -0.43443,0.289819 -0.75649,0.289819 -0.52414,0 -0.84899,-0.232312 -0.97557,-0.696501 l -0.60656,0.06995 c 0.0711,0.362046 0.24097,0.638517 0.50969,0.829539 0.26876,0.190981 0.62187,0.286748 1.05937,0.286748 0.52193,0 0.92921,-0.142414 1.22237,-0.426674 0.29541,-0.284269 0.44357,-0.674026 0.44357,-1.169315 0,-0.435295 -0.1382,-0.788445 -0.41358,-1.05937 -0.27316,-0.270965 -0.64049,-0.406687 -1.10243,-0.406687 -0.38645,0 -0.70961,0.0999 -0.96943,0.299816 l 0.0899,-1.489118 h 2.12182 v -0.509692 z m 15.14495,0 v 0.509692 h 2.52158 c -0.59519,0.863944 -1.02076,1.628419 -1.27614,2.29249 -0.25317,0.661819 -0.3798,1.292315 -0.3798,1.891987 h 0.62656 c 0,-0.433094 0.0491,-0.851983 0.14686,-1.256221 0.0999,-0.404207 0.24821,-0.813959 0.44589,-1.229262 0.19767,-0.415303 0.53661,-0.989154 1.01631,-1.722064 v -0.486622 z m 12.98543,0 -1.10933,0.763377 v 0.565816 l 1.05938,-0.755696 v 3.610937 h -1.19624 v 0.509735 h 2.94136 V 18.158003 H 245.0521 V 13.973569 Z M 11.833643,34.134168 v 1.496046 l 0.0074,0.402829 h -0.0074 c -0.11098,-0.217673 -0.257621,-0.376728 -0.439742,-0.476628 -0.182122,-0.09997 -0.409513,-0.149927 -0.682681,-0.149927 -0.8839012,0 -1.3261311,0.628755 -1.3261311,1.885807 0,0.621871 0.1066656,1.085786 0.3198079,1.39225 0.2154292,0.306508 0.5510642,0.459746 1.0063232,0.459746 0.270964,0 0.497493,-0.04996 0.679615,-0.149928 0.184325,-0.0999 0.331781,-0.264863 0.442808,-0.49584 h 0.01338 c 0,0.09325 0.0045,0.204049 0.0089,0.332879 0.0089,0.128791 0.0174,0.211253 0.02393,0.246761 h 0.572756 c -0.01338,-0.119895 -0.02007,-0.368069 -0.02007,-0.743423 v -4.200572 z m 1.619066,0.249827 v 4.694168 h 1.905792 c 0.5419,0 0.964997,-0.115726 1.269257,-0.346695 0.30426,-0.233178 0.45588,-0.558815 0.45588,-0.976361 0,-0.313121 -0.100863,-0.571371 -0.302918,-0.7757 -0.202085,-0.20653 -0.489432,-0.33229 -0.86257,-0.376689 0.284264,-0.0644 0.504145,-0.191018 0.659619,-0.379795 0.155478,-0.188782 0.232941,-0.421994 0.232941,-0.699571 0,-0.759598 -0.550545,-1.139357 -1.652079,-1.139357 z m 22.23951,-19.9937 c 0.35981,0 0.617935,0.152368 0.773413,0.456632 0.15765,0.304264 0.236019,0.794826 0.236019,1.472236 0,0.652928 -0.08167,1.136798 -0.246017,1.452202 -0.164373,0.315364 -0.423364,0.473557 -0.77648,0.473557 -0.355315,0 -0.615184,-0.154848 -0.779557,-0.463559 -0.162126,-0.308712 -0.242935,-0.795968 -0.242935,-1.4622 0,-0.686306 0.08004,-1.179348 0.239873,-1.479164 0.162173,-0.299816 0.427036,-0.449704 0.795684,-0.449704 z m 13.651981,0 c 0.359795,0 0.617892,0.152368 0.77337,0.456632 0.157678,0.304264 0.236046,0.794826 0.236046,1.472236 0,0.652928 -0.08167,1.136798 -0.246001,1.452202 -0.164373,0.315364 -0.42338,0.473557 -0.776491,0.473557 -0.355348,0 -0.615173,-0.154848 -0.779546,-0.463559 -0.162094,-0.308712 -0.242951,-0.795968 -0.242951,-1.4622 0,-0.686306 0.08004,-1.179348 0.239873,-1.479164 0.162126,-0.299816 0.427036,-0.449704 0.7957,-0.449704 z m 29.199735,0 c 0.359811,0 0.617149,0.152368 0.772626,0.456632 0.157678,0.304264 0.236763,0.794826 0.236763,1.472236 0,0.652928 -0.08241,1.136798 -0.24676,1.452202 -0.164327,0.315364 -0.422589,0.473557 -0.775689,0.473557 -0.355363,0 -0.615184,-0.154848 -0.779557,-0.463559 -0.162099,-0.308712 -0.243683,-0.795968 -0.243683,-1.4622 0,-0.686306 0.08004,-1.179348 0.239861,-1.479164 0.162126,-0.299816 0.42778,-0.449704 0.796439,-0.449704 z m 81.515095,0 c 0.35981,0 0.61715,0.152368 0.77262,0.456632 0.15768,0.304264 0.23681,0.794826 0.23681,1.472236 0,0.652928 -0.0824,1.136798 -0.24681,1.452202 -0.16433,0.315364 -0.42254,0.473557 -0.77568,0.473557 -0.35537,0 -0.61519,-0.154848 -0.77952,-0.463559 -0.16214,-0.308712 -0.24372,-0.795968 -0.24372,-1.4622 0,-0.686306 0.08,-1.179348 0.23985,-1.479164 0.16214,-0.299816 0.42778,-0.449704 0.79645,-0.449704 z m 88.378,0 c 0.3598,0 0.61718,0.152368 0.77262,0.456632 0.15768,0.304264 0.2368,0.794826 0.2368,1.472236 0,0.652928 -0.0824,1.136798 -0.2468,1.452202 -0.16433,0.315364 -0.42333,0.473557 -0.77644,0.473557 -0.35535,0 -0.61522,-0.154848 -0.77955,-0.463559 -0.16213,-0.308712 -0.24294,-0.795968 -0.24294,-1.4622 0,-0.686306 0.0799,-1.179348 0.23987,-1.479164 0.16213,-0.299816 0.42778,-0.449704 0.79644,-0.449704 z m -77.16459,0.339764 v 1.426108 h -1.41225 v 0.485878 h 1.41225 v 1.426066 h 0.48973 v -1.426066 h 1.41225 v -0.485878 h -1.41225 v -1.426108 z m 15.36096,0 v 1.426108 h -1.41224 v 0.485878 h 1.41224 v 1.426066 h 0.48974 v -1.426066 h 1.41221 v -0.485878 h -1.41221 v -1.426108 z m 13.46516,0 v 1.426108 h -1.41225 v 0.485878 h 1.41225 v 1.426066 h 0.4897 v -1.426066 h 1.41304 v -0.485878 h -1.41304 v -1.426108 z m 13.46591,0 v 1.426108 h -1.413 v 0.485878 h 1.413 v 1.426066 h 0.48974 v -1.426066 h 1.41224 v -0.485878 h -1.41224 v -1.426108 z m 15.36096,0 v 1.426108 h -1.41299 v 0.485878 h 1.41299 v 1.426066 h 0.48974 v -1.426066 h 1.41225 v -0.485878 h -1.41225 v -1.426108 z m 11.56936,0 v 1.426108 h -1.41225 v 0.485878 h 1.41225 v 1.426066 h 0.4897 v -1.426066 h 1.41225 v -0.485878 h -1.41225 V 14.730059 Z M 14.089259,34.893846 h 1.069372 c 0.328672,0 0.579361,0.05412 0.75263,0.162956 0.173195,0.108838 0.259821,0.290369 0.259821,0.543542 0,0.264313 -0.0842,0.460844 -0.252932,0.589635 -0.166574,0.126586 -0.419747,0.189915 -0.759519,0.189915 h -1.069372 z m -3.218114,0.956365 c 0.335352,-3.9e-5 0.579405,0.110802 0.732635,0.33288 0.153234,0.222077 0.229863,0.571882 0.229863,1.049376 0,0.495246 -0.07662,0.860874 -0.229863,1.096256 -0.15323,0.23546 -0.399751,0.352875 -0.739566,0.352875 -0.299813,0 -0.516375,-0.109078 -0.649626,-0.326739 -0.133293,-0.21763 -0.199869,-0.578299 -0.199869,-1.08244 0,-0.501937 0.06665,-0.864185 0.199869,-1.086258 0.13553,-0.224321 0.354501,-0.335989 0.656557,-0.33595 z M 28.020596,16.588982 v 0.532757 h 1.665155 v -0.532757 z m 13.651966,0 v 0.532757 h 1.665155 v -0.532757 z m 13.651981,0 v 0.532757 h 1.665139 v -0.532757 z m 15.546983,0 v 0.532757 h 1.66593 v -0.532757 z m 15.54777,0 v 0.532757 h 1.665931 v -0.532757 z m 13.648904,0 v 0.532757 h 1.66519 v -0.532757 z m 13.64811,0 v 0.532757 h 1.66593 v -0.532757 z m 15.54395,0 v 0.532757 h 1.66595 v -0.532757 z m 13.64887,0 v 0.532757 h 1.66597 V 16.588982 Z M 14.089259,36.875689 H 15.2747 c 0.77731,0 1.166248,0.276475 1.166248,0.829504 0,0.286512 -0.08911,0.502212 -0.266799,0.646551 -0.177674,0.144378 -0.460836,0.216803 -0.849495,0.216803 h -1.235395 z m 18.0881,-16.759619 v 6.767572 h 0.860292 V 20.11607 Z m 14.009454,0 v 6.767572 h 0.860292 V 20.11607 Z m 14.356933,0 v 6.767572 h 0.860291 V 20.11607 Z m 13.9395,0 v 6.767572 h 0.860253 V 20.11607 Z m 14.323134,0 v 6.767572 h 0.860232 V 20.11607 Z m 14.00865,0 v 6.767572 h 0.86029 V 20.11607 Z m 14.35772,0 v 6.767572 H 118.033 V 20.11607 Z m 14.14781,0 v 6.767572 h 0.86104 V 20.11607 Z m 13.97485,0 v 6.767572 h 0.86029 V 20.11607 Z m 28.34718,0 v 6.767572 h 0.86028 V 20.11607 Z m 14.35772,0 v 6.767572 h 0.86024 V 20.11607 Z m 13.93947,0 v 6.767572 h 0.86028 V 20.11607 Z m 13.9741,0 v 6.767572 h 0.86024 V 20.11607 Z m 13.79957,0 v 6.767572 h 0.86103 V 20.11607 Z m 14.28852,0 v 6.767572 h 0.86025 V 20.11607 Z m -84.41727,0 v 6.767572 h 0.86025 V 20.11607 Z" />
  <path
     id="scale_titles_02"
     style="fill:#f7f7d7;fill-opacity:1"
     d="m 95.00788,4.31747 v 4.69338 h 0.6358 V 7.18192 h 1.37918 c 0.49745,0 0.89056,-0.13075 1.17932,-0.39283 0.29091,-0.26207 0.43663,-0.61521 0.43663,-1.05937 0,-0.44864 -0.14416,-0.79593 -0.43281,-1.04249 C 97.91727,4.44075 97.50921,4.31747 96.98288,4.31747 Z m 4.55042,0 v 4.69338 h 3.69781 V 8.49116 h -3.06126 v -1.6352 h 2.72452 V 6.34242 h -2.72452 V 4.83716 h 2.92439 V 4.31747 Z m 5.91957,0 -1.91501,4.69338 h 0.65961 l 0.53969,-1.37226 h 2.13874 l 0.53582,1.37226 h 0.64962 l -1.88506,-4.69338 z m 3.18197,0 v 4.69338 h 0.63576 V 7.21191 l 0.61349,-0.46588 1.87507,2.26482 h 0.78956 l -2.26483,-2.65457 1.99881,-2.03881 h -0.74955 L 109.2956,6.66916 V 4.31747 Z m 6.44623,0 v 4.69338 h 3.0082 V 8.49116 h -2.37244 V 4.31747 Z m 3.79389,0 v 4.69338 h 3.69786 V 8.49116 h -3.0613 v -1.6352 h 2.72535 V 6.34242 h -2.72535 V 4.83716 h 2.92522 V 4.31747 Z m 4.02148,0 1.91506,4.69338 h 0.65961 l 1.91577,-4.69338 h -0.66959 l -1.29231,3.30419 -0.27985,0.82951 -0.27983,-0.82951 -1.29923,-3.30419 z m 5.08011,0 v 4.69338 h 3.69781 V 8.49116 h -3.06126 v -1.6352 h 2.72453 V 6.34242 H 128.6381 V 4.83716 h 2.92444 V 4.31747 Z m 4.55039,0 v 4.69338 h 3.00823 V 8.49116 h -2.37168 V 4.31747 Z m 5.43679,0 v 4.69338 h 0.56661 V 5.8796 l -0.0134,-0.62962 -0.0104,-0.36976 0.10994,0.36669 0.18681,0.56582 1.2293,3.19812 h 0.44668 l 1.21233,-3.19812 c 0.0866,-0.22432 0.18406,-0.53496 0.29293,-0.93251 -0.0201,0.31981 -0.0292,0.65293 -0.0292,0.99938 v 3.13125 h 0.57271 V 4.31747 h -0.81644 l -1.22619,3.25425 c -0.0201,0.0466 -0.0583,0.16149 -0.11603,0.34362 -0.0555,0.17988 -0.0921,0.31399 -0.10994,0.40283 -0.0134,-0.0666 -0.0417,-0.17406 -0.0838,-0.32288 -0.04,-0.15099 -0.0817,-0.29258 -0.126,-0.42357 l -1.2493,-3.25425 z m 5.68359,0 v 4.69338 h 3.69782 V 8.49116 h -3.06126 v -1.6352 h 2.72452 V 6.34242 h -2.72452 V 4.83716 h 2.92444 V 4.31747 Z m 4.1437,0 v 0.51969 h 1.61292 v 4.17369 h 0.6327 V 4.83716 h 1.61213 V 4.31747 Z m 4.57424,0 v 4.69338 h 3.69785 V 8.49116 h -3.06129 v -1.6352 h 2.72455 V 6.34242 h -2.72455 V 4.83716 h 2.92443 V 4.31747 Z m 4.55042,0 v 4.69338 h 0.63656 V 7.06198 h 1.46219 l 1.21931,1.94887 h 0.73338 l -1.33306,-2.02188 c 0.35756,-0.0621 0.63742,-0.21212 0.8395,-0.44975 0.20437,-0.23762 0.30674,-0.53078 0.30674,-0.87949 0,-0.42195 -0.14406,-0.75094 -0.43281,-0.98632 -0.28647,-0.23766 -0.69454,-0.35594 -1.22312,-0.35594 z m -51.10915,0.4797 0.09,0.276 c 0.0622,0.19323 0.12392,0.36645 0.18602,0.51969 l 0.60349,1.54911 h -1.75588 l 0.59964,-1.54219 c 0.1089,-0.28871 0.19126,-0.52523 0.24679,-0.70956 z m -10.18785,0.0299 h 1.26307 c 0.72846,0 1.09243,0.30316 1.09243,0.90948 0,0.62849 -0.35558,0.94251 -1.06629,0.94251 h -1.28921 z m 61.93356,0 h 1.50907 c 0.34871,0 0.61522,0.0717 0.79955,0.21601 0.18658,0.14218 0.27983,0.35032 0.27983,0.62349 0,0.28206 -0.0924,0.50193 -0.27676,0.65962 -0.18212,0.15543 -0.44033,0.23294 -0.77569,0.23294 h -1.536 z" />
</svg>
