<?xml version="1.0" encoding="UTF-8" standalone="no"?>
<!-- Created with Inkscape (http://www.inkscape.org/) -->

<svg
   width="255.99998"
   height="63.999996"
   viewBox="0 0 67.73333 16.933332"
   version="1.1"
   id="svg1"
   xml:space="preserve"
   sodipodi:docname="vu2up.svg"
   inkscape:version="1.4.3 (1:1.4.3+202512261035+0d15f75042)"
   xmlns:inkscape="http://www.inkscape.org/namespaces/inkscape"
   xmlns:sodipodi="http://sodipodi.sourceforge.net/DTD/sodipodi-0.dtd"
   xmlns="http://www.w3.org/2000/svg"
   xmlns:svg="http://www.w3.org/2000/svg"><defs
   id="defs1" /><sodipodi:namedview
   id="namedview1"
   pagecolor="#ffffff"
   bordercolor="#666666"
   borderopacity="1.0"
   inkscape:showpageshadow="2"
   inkscape:pageopacity="0.0"
   inkscape:pagecheckerboard="0"
   inkscape:deskcolor="#d1d1d1"
   inkscape:zoom="2.0012071"
   inkscape:cx="185.8878"
   inkscape:cy="9.7441188"
   inkscape:current-layer="svg1" />
<rect
   style="fill:#000000;fill-opacity:1"
   id="rect2"
   width="67.73333"
   height="16.933332"
   x="0"
   y="-2.7815501e-08" />
     <rect
   style="fill:#ffffff;fill-opacity:1"
   id="rect1"
   width="1.5875"
   height="0.26458332"
   x="1.5875015"
   y="2.7821288" />
     <path
   id="rect3"
   style="fill:#ffffff;fill-opacity:1"
   d="m 31.353125,2.1166717 v 0.66146 h -0.661458 v 0.26459 h 0.661458 v 0.66145 h 0.264583 v -0.66145 h 0.661459 v -0.26459 h -0.661459 v -0.66146 z" />
     <path
   id="text4"
   style="fill:#ffffff;fill-opacity:1"
   d="m 18.473266,2.6461817 c -0.03186,10e-4 -0.0648,0.004 -0.09922,0.009 l 0.03101,0.19585 c 0.09408,-0.0131 0.173384,-0.008 0.237711,0.0165 0.06433,0.0242 0.112698,0.0606 0.145211,0.10903 0.02698,0.0387 0.04304,0.0816 0.04858,0.12868 0.0048,0.047 -0.0017,0.0927 -0.01964,0.13694 -0.02282,0.0553 -0.06504,0.10234 -0.126608,0.14108 -0.0415,0.027 -0.0926,0.0461 -0.153479,0.0579 v 5.2e-4 c -0.0339,0.002 -0.06928,0.005 -0.105936,0.009 l 0.0217,0.20153 h 0.0031 v 10e-4 c 0.02491,-0.002 0.04969,-0.005 0.0739,-0.008 0.09476,-0.007 0.172704,-0.006 0.233577,0.003 0.07609,0.0125 0.1289,0.0338 0.158647,0.0636 0.0159,0.0153 0.02274,0.0313 0.02067,0.0486 -0.0035,0.027 -0.02021,0.0559 -0.05064,0.0863 -0.04842,0.0512 -0.120208,0.0905 -0.214974,0.11885 -0.09477,0.0277 -0.207062,0.034 -0.336414,0.0181 l -0.02584,0.19999 c 0.163938,0.02 0.30768,0.0105 0.431498,-0.0289 0.123819,-0.0394 0.219708,-0.0943 0.286804,-0.16485 0.06225,-0.0643 0.09746,-0.13338 0.106454,-0.2067 0.01037,-0.083 -0.01697,-0.15685 -0.08268,-0.22118 -0.03804,-0.0366 -0.09188,-0.0654 -0.161747,-0.0868 0.04634,-0.0464 0.08087,-0.0981 0.104387,-0.15554 0.03182,-0.0768 0.04362,-0.15507 0.03462,-0.23461 -0.0083,-0.0802 -0.03616,-0.15442 -0.0832,-0.22221 -0.05257,-0.0775 -0.127777,-0.13608 -0.22531,-0.17622 -0.07263,-0.0301 -0.156593,-0.0437 -0.252181,-0.0403 z m 5.152141,0.0724 c -0.06862,0 -0.131966,0.0227 -0.190686,0.0687 -0.05872,0.0453 -0.109809,0.10816 -0.152963,0.1881 -0.0757,0.14361 -0.117277,0.32191 -0.125057,0.53485 l -0.001,0.0341 c 0,0.19738 0.03552,0.36715 0.10697,0.51005 0.03891,0.0771 0.0859,0.13803 0.141077,0.1819 0.05518,0.044 0.116244,0.0667 0.183451,0.0687 h 0.0036 0.001 10e-4 v 5.1e-4 h -5.17e-4 v 5.2e-4 h 0.0016 c 0.06862,0 0.131966,-0.0224 0.190686,-0.0677 0.05872,-0.046 0.109809,-0.10919 0.152962,-0.18914 0.0757,-0.14361 0.117277,-0.32191 0.125057,-0.53485 l 0.0016,-0.0341 c 0,-0.19737 -0.03603,-0.36714 -0.107487,-0.51004 -0.03891,-0.0771 -0.0859,-0.13804 -0.141077,-0.18191 -0.05518,-0.044 -0.116245,-0.0667 -0.183451,-0.0687 h -0.0031 -0.0021 v -10e-4 z m -8.039303,0.0858 -0.65474,0.004 -0.02377,0.93638 0.117822,-0.0176 c 0.11133,-0.0169 0.203071,-0.015 0.275435,0.005 0.07236,0.0195 0.125247,0.0497 0.158647,0.0915 0.02919,0.0355 0.04356,0.0742 0.04289,0.11524 -6.93e-4,0.0418 -0.01675,0.081 -0.04806,0.11782 -0.03827,0.0445 -0.09723,0.0773 -0.17725,0.0982 -0.08002,0.0201 -0.182069,0.0205 -0.305924,0.001 l -0.03462,0.19689 c 0.164212,0.0257 0.302082,0.022 0.413412,-0.0114 0.111332,-0.0341 0.196318,-0.0853 0.254765,-0.15348 0.06331,-0.0751 0.09575,-0.15743 0.09715,-0.24649 0.0014,-0.0891 -0.02835,-0.1705 -0.08888,-0.24495 -0.04662,-0.0571 -0.11184,-0.10251 -0.195337,-0.13591 -0.0835,-0.0332 -0.184694,-0.0474 -0.304374,-0.0434 l 0.01344,-0.51056 0.460437,-0.002 z m -4.199227,0.0362 -0.0021,0.20412 0.451135,0.003 -0.360701,1.32705 0.196887,0.0532 0.395325,-1.45314 -0.09767,-0.12867 z m 12.237496,0.0816 h 0.001 0.0026 10e-4 c 0.05406,0.005 0.102666,0.0512 0.146244,0.13901 0.05659,0.11248 0.08475,0.25214 0.08475,0.41909 v 0.0248 0.005 c -0.0064,0.17898 -0.04058,0.32717 -0.102836,0.4439 -0.05235,0.099 -0.106705,0.14831 -0.163298,0.14831 h -0.0021 c -3.33e-4,-3e-5 -7.01e-4,3e-5 -0.001,0 h -0.001 c -0.05299,-0.005 -0.101712,-0.0517 -0.145728,-0.13901 -0.05659,-0.11248 -0.08475,-0.25214 -0.08475,-0.4191 v -0.0243 -0.005 c 0.0064,-0.17899 0.04058,-0.32666 0.102836,-0.44339 0.05203,-0.0984 0.10605,-0.14821 0.162264,-0.14882 z m -15.7633795,0.23151 -0.28577,0.33331 0.150895,0.12971 0.106453,-0.12299 -0.01964,1.22008 0.199988,0.003 0.02325,-1.49655 z m 0.764295,0.0269 c -0.06745,0 -0.129872,0.0225 -0.187586,0.0677 -0.05771,0.0445 -0.107958,0.10643 -0.150378,0.18501 -0.0744,0.14116 -0.115343,0.31625 -0.12299,0.52555 l -0.001,0.0331 c 0,0.194 0.03519,0.36131 0.10542,0.50178 0.03824,0.0758 0.08425,0.13515 0.138493,0.17828 0.05424,0.0432 0.114808,0.0662 0.180868,0.0682 h 0.0031 10e-4 5.17e-4 v 5.2e-4 h -5.17e-4 v 5.2e-4 h 0.0021 c 0.06745,0 0.129872,-0.0226 0.187585,-0.0672 0.05771,-0.0452 0.107959,-0.10694 0.150379,-0.18552 0.07441,-0.14115 0.115343,-0.31624 0.12299,-0.52555 l 0.001,-0.0336 c 0,-0.19401 -0.03519,-0.36131 -0.10542,-0.50178 -0.03824,-0.0758 -0.08477,-0.13515 -0.139009,-0.17828 -0.05424,-0.0432 -0.114291,-0.0657 -0.180351,-0.0677 h -0.0031 -0.0021 v -10e-4 z m -10e-4,0.2005 h 10e-4 0.0031 c 0.0531,0.005 0.101365,0.0501 0.144178,0.13643 0.05563,0.11056 0.0832,0.24775 0.0832,0.41186 v 0.0243 0.005 c -0.0063,0.17593 -0.04009,0.32141 -0.101286,0.43615 -0.05143,0.0973 -0.1046,0.14619 -0.160197,0.14624 h -5.17e-4 -0.0016 c -0.05285,-0.004 -0.101404,-0.05 -0.145211,-0.13694 -0.05563,-0.11057 -0.0832,-0.24776 -0.0832,-0.41186 v -0.0238 -0.005 c 0.0063,-0.17593 0.03958,-0.32142 0.100769,-0.43615 0.05114,-0.0967 0.104426,-0.14512 0.15968,-0.14573 z m 19.5946705,0.48059 c -0.03186,10e-4 -0.06532,0.004 -0.09974,0.009 l 0.03101,0.19637 c 0.09407,-0.0131 0.173378,-0.008 0.237712,0.0165 0.06433,0.0242 0.112697,0.0606 0.14521,0.10903 0.02698,0.0387 0.04356,0.0816 0.04909,0.12868 0.0048,0.047 -0.0017,0.0927 -0.01964,0.13694 -0.02283,0.0553 -0.06505,0.10234 -0.126607,0.14108 -0.0415,0.027 -0.09312,0.0461 -0.153996,0.0579 v 5.2e-4 c -0.03389,0.002 -0.06876,0.005 -0.10542,0.009 l 0.0217,0.20153 h 0.0031 v 0.001 c 0.0249,-0.002 0.04917,-0.005 0.07338,-0.008 0.09476,-0.007 0.172704,-0.006 0.233578,0.003 0.07609,0.0125 0.1289,0.0338 0.158646,0.0636 0.0159,0.0153 0.02274,0.0313 0.02067,0.0486 -0.0035,0.027 -0.02021,0.0559 -0.05064,0.0863 -0.04842,0.0512 -0.120208,0.091 -0.214974,0.11937 -0.09477,0.0277 -0.206545,0.0335 -0.335897,0.0176 l -0.02584,0.19999 c 0.163939,0.02 0.30768,0.0105 0.431498,-0.0289 0.123818,-0.0394 0.21919,-0.0943 0.286288,-0.16485 0.06225,-0.0643 0.09798,-0.13338 0.10697,-0.2067 0.01037,-0.083 -0.01749,-0.15685 -0.0832,-0.22118 -0.03805,-0.0367 -0.09188,-0.0653 -0.161747,-0.0868 0.04634,-0.0463 0.08138,-0.0987 0.104903,-0.15606 0.03182,-0.0768 0.0431,-0.15455 0.03411,-0.23409 -0.0083,-0.0802 -0.03564,-0.15443 -0.08268,-0.22221 -0.05257,-0.0775 -0.127776,-0.13609 -0.225309,-0.17622 -0.07263,-0.0301 -0.156594,-0.0437 -0.252181,-0.0403 z m -24.8729015,0.12609 c -0.0649,0.004 -0.127549,0.0242 -0.188102,0.0594 -0.0688,0.0407 -0.123611,0.10083 -0.164331,0.18087 -0.04002,0.08 -0.05464,0.17953 -0.04341,0.29817 l 0.200504,-0.0191 c -0.0063,-0.0737 6.45e-4,-0.13432 0.0217,-0.18138 0.02177,-0.0477 0.05201,-0.083 0.08992,-0.10542 0.04213,-0.0237 0.08496,-0.0335 0.129191,-0.0295 0.04072,0.004 0.07494,0.0202 0.102319,0.0496 0.02391,0.0252 0.03736,0.0621 0.04082,0.11059 0.0042,0.0484 -0.0069,0.10855 -0.03359,0.18087 -0.04493,0.11444 -0.105708,0.22604 -0.182935,0.33486 -0.07723,0.10811 -0.15911,0.21409 -0.245463,0.31729 -0.05827,0.0716 -0.112417,0.13953 -0.162264,0.20413 l 0.07906,0.16226 0.624251,0.0103 0.0031,-0.20103 -0.421163,-0.008 c 0.01123,-0.014 0.02236,-0.0275 0.03359,-0.0408 0.09057,-0.10953 0.177606,-0.22245 0.260449,-0.339 0.08284,-0.11724 0.149768,-0.24064 0.201021,-0.37052 0.04072,-0.11304 0.05534,-0.2112 0.04341,-0.29404 -0.01193,-0.0836 -0.04218,-0.15115 -0.08992,-0.20308 -0.06389,-0.0675 -0.141276,-0.10566 -0.232544,-0.11473 -0.02211,-0.002 -0.044,-0.003 -0.06563,-0.002 z m 0.915707,0.0119 c -0.0681,0 -0.131379,0.0226 -0.189653,0.0682 -0.05828,0.0449 -0.109108,0.10723 -0.151928,0.18655 -0.07512,0.14252 -0.116304,0.3194 -0.124024,0.53072 l -10e-4,0.0336 c 0,0.19587 0.03554,0.36462 0.106453,0.50643 0.03861,0.0766 0.08528,0.13688 0.140043,0.18035 0.05476,0.0437 0.115206,0.0662 0.181901,0.0682 h 0.0031 0.001 10e-4 v 5.2e-4 5.2e-4 h 0.001 c 0.0681,0 0.13138,-0.0223 0.189653,-0.0672 0.05827,-0.0456 0.109102,-0.10825 0.151929,-0.18759 0.07512,-0.14252 0.116303,-0.3194 0.124023,-0.53071 l 0.001,-0.0341 c 0,-0.19587 -0.03555,-0.36462 -0.106454,-0.50643 -0.03861,-0.0766 -0.08528,-0.13637 -0.140043,-0.17983 -0.05476,-0.0436 -0.115205,-0.0667 -0.181901,-0.0687 h -0.0031 -0.0026 v -5.2e-4 z m -0.001,0.20205 h 5.17e-4 5.17e-4 0.0021 0.001 5.17e-4 c 0.05333,0.005 0.10165,0.0512 0.144694,0.13798 0.05617,0.11163 0.08423,0.25031 0.08423,0.416 v 0.0243 0.005 c -0.0063,0.17762 -0.04054,0.32393 -0.10232,0.43977 -0.05195,0.0983 -0.106097,0.14779 -0.162264,0.14779 h -0.0021 c -0.05336,-0.004 -0.102017,-0.0502 -0.146244,-0.13797 -0.05617,-0.11163 -0.08423,-0.25031 -0.08423,-0.416 v -0.0243 -0.005 c 0.0063,-0.17762 0.04054,-0.32394 0.10232,-0.43977 0.05179,-0.098 0.105252,-0.14749 0.16123,-0.1478 z m 14.2559785,0.63769 -0.254765,0.0109 -0.15658,2.44482 c -0.303127,-0.003 -0.607126,-0.005 -0.912089,-0.005 -0.142154,0 -0.284051,3.5e-4 -0.425814,0.001 l -0.07183,-2.42983 -0.260966,-0.0119 0.07906,2.44326 c -0.317463,0.002 -0.63391,0.007 -0.949296,0.0124 l -0.309025,-2.42827 -0.253215,0.017 0.286288,2.41691 c -0.363072,0.008 -0.724568,0.0177 -1.084688,0.03 l -0.489893,-2.41588 -0.268201,0.0439 0.483692,2.38177 c -0.326328,0.0121 -0.651399,0.0261 -0.975135,0.0419 h -5.16e-4 l -0.682646,-2.34869 -0.276986,0.0605 0.669727,2.3027 c -0.884031,0.046 -1.757838,0.10565 -2.620512,0.17777 l -1.1332645,-2.25361 -0.274402,0.15555 1.069185,2.127 c -1.120566,0.0984 -2.222121,0.21857 -3.30109,0.35915 h -5.17e-4 l -1.580265,-2.03708 -0.216008,0.21549 1.449008,1.86758 c -0.74491,0.10056 -1.478988,0.21088 -2.201417,0.33073 l 0.213424,0.22169 c 4.06011,-0.6638 8.4891915,-1.02939 13.1252975,-1.02939 4.297393,0 8.416607,0.31428 12.229228,0.88883 l 0.1757,-0.22944 c -1.013805,-0.15464 -2.049498,-0.29093 -3.104204,-0.40773 l 0.578777,-0.90588 h 5.16e-4 c 1.083473,0.11696 2.146472,0.25455 3.186886,0.41134 l 0.1757,-0.22944 c -1.048082,-0.15988 -2.119472,-0.30023 -3.211174,-0.41962 l 0.51263,-0.80201 -0.211356,-0.21188 -0.625285,0.97927 h -5.17e-4 c -0.378762,-0.0398 -0.760107,-0.0773 -1.143599,-0.11214 l 0.510563,-0.96531 -0.264067,-0.1602 -0.579292,1.09606 c -0.370512,-0.0321 -0.743118,-0.0616 -1.117762,-0.0889 l 0.452686,-1.03146 -0.27957,-0.14004 -0.503845,1.14773 c -0.382851,-0.0264 -0.76809,-0.05 -1.154968,-0.0713 l 0.357601,-1.08676 -0.284737,-0.18086 -0.791167,2.40553 h -5.16e-4 c -0.317646,-0.018 -0.636794,-0.0341 -0.957048,-0.0486 l 0.599447,-2.4443 -0.317293,-0.003 -0.620118,2.43241 c -0.361105,-0.0149 -0.723588,-0.0278 -1.087789,-0.0382 l 0.3514,-2.36471 -0.295072,-0.0584 -0.335897,2.41536 c -0.352692,-0.009 -0.706554,-0.0159 -1.061951,-0.0207 z m 4.221964,1.69809 c 0.378242,0.0206 0.754226,0.0438 1.128613,0.0693 l -0.399458,0.9095 c -0.34135,-0.0249 -0.684252,-0.0473 -1.028878,-0.0682 z m 1.459859,0.0925 c 0.367726,0.0265 0.733351,0.0552 1.097091,0.0863 l -0.481108,0.90951 c -0.336891,-0.0302 -0.675595,-0.0586 -1.015958,-0.0848 z m 1.429887,0.11524 h 5.17e-4 c 0.375321,0.0336 0.748528,0.07 1.119312,0.10852 l -0.57826,0.90485 c -0.339136,-0.0361 -0.68023,-0.0702 -1.023193,-0.10232 z M 17.193309,21.944312 a 0.13229166,0.13229166 0 0 0 -0.132291,0.13229 0.13229166,0.13229166 0 0 0 0.132291,0.13229 0.13229166,0.13229166 0 0 0 0.132292,-0.13229 0.13229166,0.13229166 0 0 0 -0.132292,-0.13229 z" />
     <path
   style="baseline-shift:baseline;display:inline;overflow:visible;vector-effect:none;fill:#ff6e6e;fill-opacity:1;stroke-width:1.00028;stroke-linejoin:round;stroke-miterlimit:0;enable-background:accumulate;stop-color:#000000"
   d="m 31.617709,7.1437517 c -0.510016,0 -0.926042,0.41603 -0.926042,0.92605 0,0.51001 0.416026,0.92799 0.926042,0.92799 0.510015,0 0.926041,-0.41798 0.926041,-0.92799 0,-0.51002 -0.416026,-0.92605 -0.926041,-0.92605 z m 0,0.2657 c 0.0477,0 0.04119,0.0765 0.08596,0.0859 -0.14651,0.0586 -0.304771,0.13648 -0.304773,0.30281 -6e-6,0.2177 0.180864,0.3966 0.398549,0.39661 0.166214,-10e-6 0.244094,-0.15649 0.302821,-0.30283 0.03867,0.0842 0.179737,0.0786 0.179737,0.17779 0,0.36698 -0.295312,0.66229 -0.662295,0.66229 -0.366984,0 -0.662297,-0.29531 -0.662296,-0.66229 -10e-7,-0.36699 0.295312,-0.66035 0.662296,-0.66035 z m 0.179737,0.25594 c 0.07465,0 0.130896,0.0582 0.130897,0.13284 2e-6,0.0746 -0.05625,0.13285 -0.130897,0.13285 -0.07465,0 -0.132851,-0.0582 -0.132849,-0.13285 1e-6,-0.0746 0.0582,-0.13284 0.132849,-0.13284 z"
   id="path29" />
     <rect
   style="fill:#ffffff;fill-opacity:1"
   id="rect4"
   width="1.5875"
   height="0.26458332"
   x="35.983334"
   y="2.6458282" />
     <path
   id="path4"
   style="fill:#ffffff;fill-opacity:1"
   d="m 65.748956,2.1166717 v 0.66146 h -0.661458 v 0.26459 h 0.661458 v 0.66145 h 0.264583 v -0.66145 h 0.661459 v -0.26459 h -0.661459 v -0.66146 z" />
     <path
   id="path5"
   style="fill:#ffffff;fill-opacity:1"
   d="m 52.869097,2.6461817 c -0.03186,10e-4 -0.0648,0.004 -0.09922,0.009 l 0.03101,0.19585 c 0.09408,-0.0131 0.173384,-0.008 0.237711,0.0165 0.06433,0.0242 0.112698,0.0606 0.145211,0.10903 0.02698,0.0387 0.04304,0.0816 0.04858,0.12868 0.0048,0.047 -0.0017,0.0927 -0.01964,0.13694 -0.02282,0.0553 -0.06504,0.10234 -0.126608,0.14108 -0.0415,0.027 -0.0926,0.0461 -0.153479,0.0579 v 5.2e-4 c -0.0339,0.002 -0.06928,0.005 -0.105936,0.009 l 0.0217,0.20153 h 0.0031 v 10e-4 c 0.02491,-0.002 0.04969,-0.005 0.0739,-0.008 0.09476,-0.007 0.172704,-0.006 0.233577,0.003 0.07609,0.0125 0.1289,0.0338 0.158647,0.0636 0.0159,0.0153 0.02274,0.0313 0.02067,0.0486 -0.0035,0.027 -0.02021,0.0559 -0.05064,0.0863 -0.04842,0.0512 -0.120208,0.0905 -0.214974,0.11885 -0.09477,0.0277 -0.207062,0.034 -0.336414,0.0181 l -0.02584,0.19999 c 0.163938,0.02 0.30768,0.0105 0.431498,-0.0289 0.123819,-0.0394 0.219708,-0.0943 0.286804,-0.16485 0.06225,-0.0643 0.09746,-0.13338 0.106454,-0.2067 0.01037,-0.083 -0.01697,-0.15685 -0.08268,-0.22118 -0.03804,-0.0366 -0.09188,-0.0654 -0.161747,-0.0868 0.04634,-0.0464 0.08087,-0.0981 0.104387,-0.15554 0.03182,-0.0768 0.04362,-0.15507 0.03462,-0.23461 -0.0083,-0.0802 -0.03616,-0.15442 -0.0832,-0.22221 -0.05257,-0.0775 -0.127777,-0.13608 -0.22531,-0.17622 -0.07263,-0.0301 -0.156593,-0.0437 -0.252181,-0.0403 z m 5.152141,0.0724 c -0.06862,0 -0.131966,0.0227 -0.190686,0.0687 -0.05872,0.0453 -0.109809,0.10816 -0.152963,0.1881 -0.0757,0.14361 -0.117277,0.32191 -0.125057,0.53485 l -10e-4,0.0341 c 0,0.19738 0.03552,0.36715 0.10697,0.51005 0.03891,0.0771 0.0859,0.13803 0.141077,0.1819 0.05518,0.044 0.116244,0.0667 0.183451,0.0687 h 0.0036 0.001 10e-4 v 5.1e-4 h -5.17e-4 v 5.2e-4 h 0.0016 c 0.06862,0 0.131966,-0.0224 0.190686,-0.0677 0.05872,-0.046 0.109809,-0.10919 0.152962,-0.18914 0.0757,-0.14361 0.117277,-0.32191 0.125057,-0.53485 l 0.0016,-0.0341 c 0,-0.19737 -0.03603,-0.36714 -0.107487,-0.51004 -0.03891,-0.0771 -0.0859,-0.13804 -0.141077,-0.18191 -0.05518,-0.044 -0.116245,-0.0667 -0.183451,-0.0687 h -0.0031 -0.0021 v -10e-4 z m -8.039303,0.0858 -0.65474,0.004 -0.02377,0.93638 0.117822,-0.0176 c 0.11133,-0.0169 0.203071,-0.015 0.275435,0.005 0.07236,0.0195 0.125247,0.0497 0.158647,0.0915 0.02919,0.0355 0.04356,0.0742 0.04289,0.11524 -6.93e-4,0.0418 -0.01675,0.081 -0.04806,0.11782 -0.03827,0.0445 -0.09723,0.0773 -0.17725,0.0982 -0.08002,0.0201 -0.182069,0.0205 -0.305924,0.001 l -0.03462,0.19689 c 0.164212,0.0257 0.302082,0.022 0.413412,-0.0114 0.111332,-0.0341 0.196318,-0.0853 0.254765,-0.15348 0.06331,-0.0751 0.09575,-0.15743 0.09715,-0.24649 0.0014,-0.0891 -0.02835,-0.1705 -0.08888,-0.24495 -0.04662,-0.0571 -0.11184,-0.10251 -0.195337,-0.13591 -0.0835,-0.0332 -0.184694,-0.0474 -0.304374,-0.0434 l 0.01344,-0.51056 0.460437,-0.002 z m -4.199227,0.0362 -0.0021,0.20412 0.451135,0.003 -0.360701,1.32705 0.196887,0.0532 0.395325,-1.45314 -0.09767,-0.12867 z m 12.237496,0.0816 h 10e-4 0.0026 0.001 c 0.05406,0.005 0.102666,0.0512 0.146244,0.13901 0.05659,0.11248 0.08475,0.25214 0.08475,0.41909 v 0.0248 0.005 c -0.0064,0.17898 -0.04058,0.32717 -0.102836,0.4439 -0.05235,0.099 -0.106705,0.14831 -0.163298,0.14831 h -0.0021 c -3.33e-4,-3e-5 -7.01e-4,3e-5 -10e-4,0 h -0.001 c -0.05299,-0.005 -0.101712,-0.0517 -0.145728,-0.13901 -0.05659,-0.11248 -0.08475,-0.25214 -0.08475,-0.4191 v -0.0243 -0.005 c 0.0064,-0.17899 0.04058,-0.32666 0.102836,-0.44339 0.05203,-0.0984 0.10605,-0.14821 0.162264,-0.14882 z m -15.763379,0.23151 -0.28577,0.33331 0.150895,0.12971 0.106453,-0.12299 -0.01964,1.22008 0.199988,0.003 0.02325,-1.49655 z m 0.764295,0.0269 c -0.06745,0 -0.129872,0.0225 -0.187586,0.0677 -0.05771,0.0445 -0.107958,0.10643 -0.150378,0.18501 -0.0744,0.14116 -0.115343,0.31625 -0.12299,0.52555 l -0.001,0.0331 c 0,0.194 0.03519,0.36131 0.10542,0.50178 0.03824,0.0758 0.08425,0.13515 0.138493,0.17828 0.05424,0.0432 0.114808,0.0662 0.180868,0.0682 h 0.0031 0.001 5.17e-4 v 5.2e-4 h -5.17e-4 v 5.2e-4 h 0.0021 c 0.06745,0 0.129872,-0.0226 0.187585,-0.0672 0.05771,-0.0452 0.107959,-0.10694 0.150379,-0.18552 0.07441,-0.14115 0.115343,-0.31624 0.12299,-0.52555 l 10e-4,-0.0336 c 0,-0.19401 -0.03519,-0.36131 -0.10542,-0.50178 -0.03824,-0.0758 -0.08477,-0.13515 -0.139009,-0.17828 -0.05424,-0.0432 -0.114291,-0.0657 -0.180351,-0.0677 h -0.0031 -0.0021 v -10e-4 z m -0.001,0.2005 h 0.001 0.0031 c 0.0531,0.005 0.101365,0.0501 0.144178,0.13643 0.05563,0.11056 0.0832,0.24775 0.0832,0.41186 v 0.0243 0.005 c -0.0063,0.17593 -0.04009,0.32141 -0.101286,0.43615 -0.05143,0.0973 -0.1046,0.14619 -0.160197,0.14624 h -5.17e-4 -0.0016 c -0.05285,-0.004 -0.101404,-0.05 -0.145211,-0.13694 -0.05563,-0.11057 -0.0832,-0.24776 -0.0832,-0.41186 v -0.0238 -0.005 c 0.0063,-0.17593 0.03958,-0.32142 0.100769,-0.43615 0.05114,-0.0967 0.104426,-0.14512 0.15968,-0.14573 z m 19.59467,0.48059 c -0.03186,10e-4 -0.06532,0.004 -0.09974,0.009 l 0.03101,0.19637 c 0.09407,-0.0131 0.173378,-0.008 0.237712,0.0165 0.06433,0.0242 0.112697,0.0606 0.14521,0.10903 0.02698,0.0387 0.04356,0.0816 0.04909,0.12868 0.0048,0.047 -0.0017,0.0927 -0.01964,0.13694 -0.02283,0.0553 -0.06505,0.10234 -0.126607,0.14108 -0.0415,0.027 -0.09312,0.0461 -0.153996,0.0579 v 5.2e-4 c -0.03389,0.002 -0.06876,0.005 -0.10542,0.009 l 0.0217,0.20153 h 0.0031 v 0.001 c 0.0249,-0.002 0.04917,-0.005 0.07338,-0.008 0.09476,-0.007 0.172704,-0.006 0.233578,0.003 0.07609,0.0125 0.1289,0.0338 0.158646,0.0636 0.0159,0.0153 0.02274,0.0313 0.02067,0.0486 -0.0035,0.027 -0.02021,0.0559 -0.05064,0.0863 -0.04842,0.0512 -0.120208,0.091 -0.214974,0.11937 -0.09477,0.0277 -0.206545,0.0335 -0.335897,0.0176 l -0.02584,0.19999 c 0.163939,0.02 0.30768,0.0105 0.431498,-0.0289 0.123818,-0.0394 0.21919,-0.0943 0.286288,-0.16485 0.06225,-0.0643 0.09798,-0.13338 0.10697,-0.2067 0.01037,-0.083 -0.01749,-0.15685 -0.0832,-0.22118 -0.03805,-0.0367 -0.09188,-0.0653 -0.161747,-0.0868 0.04634,-0.0463 0.08138,-0.0987 0.104903,-0.15606 0.03182,-0.0768 0.0431,-0.15455 0.03411,-0.23409 -0.0083,-0.0802 -0.03564,-0.15443 -0.08268,-0.22221 -0.05257,-0.0775 -0.127776,-0.13609 -0.225309,-0.17622 -0.07263,-0.0301 -0.156594,-0.0437 -0.252181,-0.0403 z m -24.872901,0.12609 c -0.0649,0.004 -0.127549,0.0242 -0.188102,0.0594 -0.0688,0.0407 -0.123611,0.10083 -0.164331,0.18087 -0.04002,0.08 -0.05464,0.17953 -0.04341,0.29817 l 0.200504,-0.0191 c -0.0063,-0.0737 6.45e-4,-0.13432 0.0217,-0.18138 0.02177,-0.0477 0.05201,-0.083 0.08992,-0.10542 0.04213,-0.0237 0.08496,-0.0335 0.129191,-0.0295 0.04072,0.004 0.07494,0.0202 0.102319,0.0496 0.02391,0.0252 0.03736,0.0621 0.04082,0.11059 0.0042,0.0484 -0.0069,0.10855 -0.03359,0.18087 -0.04493,0.11444 -0.105708,0.22604 -0.182935,0.33486 -0.07723,0.10811 -0.15911,0.21409 -0.245463,0.31729 -0.05827,0.0716 -0.112417,0.13953 -0.162264,0.20413 l 0.07906,0.16226 0.624251,0.0103 0.0031,-0.20103 -0.421163,-0.008 c 0.01123,-0.014 0.02236,-0.0275 0.03359,-0.0408 0.09057,-0.10953 0.177606,-0.22245 0.260449,-0.339 0.08284,-0.11724 0.149768,-0.24064 0.201021,-0.37052 0.04072,-0.11304 0.05534,-0.2112 0.04341,-0.29404 -0.01193,-0.0836 -0.04218,-0.15115 -0.08992,-0.20308 -0.06389,-0.0675 -0.141276,-0.10566 -0.232544,-0.11473 -0.02211,-0.002 -0.044,-0.003 -0.06563,-0.002 z m 0.915707,0.0119 c -0.0681,0 -0.131379,0.0226 -0.189653,0.0682 -0.05828,0.0449 -0.109108,0.10723 -0.151928,0.18655 -0.07512,0.14252 -0.116304,0.3194 -0.124024,0.53072 l -0.001,0.0336 c 0,0.19587 0.03554,0.36462 0.106453,0.50643 0.03861,0.0766 0.08528,0.13688 0.140043,0.18035 0.05476,0.0437 0.115206,0.0662 0.181901,0.0682 h 0.0031 0.001 10e-4 v 5.2e-4 5.2e-4 h 10e-4 c 0.0681,0 0.13138,-0.0223 0.189653,-0.0672 0.05827,-0.0456 0.109102,-0.10825 0.151929,-0.18759 0.07512,-0.14252 0.116303,-0.3194 0.124023,-0.53071 l 10e-4,-0.0341 c 0,-0.19587 -0.03555,-0.36462 -0.106454,-0.50643 -0.03861,-0.0766 -0.08528,-0.13637 -0.140043,-0.17983 -0.05476,-0.0436 -0.115205,-0.0667 -0.181901,-0.0687 h -0.0031 -0.0026 v -5.2e-4 z m -10e-4,0.20205 h 5.17e-4 5.17e-4 0.0021 10e-4 5.17e-4 c 0.05333,0.005 0.10165,0.0512 0.144694,0.13798 0.05617,0.11163 0.08423,0.25031 0.08423,0.416 v 0.0243 0.005 c -0.0063,0.17762 -0.04054,0.32393 -0.10232,0.43977 -0.05195,0.0983 -0.106097,0.14779 -0.162264,0.14779 h -0.0021 c -0.05336,-0.004 -0.102017,-0.0502 -0.146244,-0.13797 -0.05617,-0.11163 -0.08423,-0.25031 -0.08423,-0.416 v -0.0243 -0.005 c 0.0063,-0.17762 0.04054,-0.32394 0.10232,-0.43977 0.05179,-0.098 0.105252,-0.14749 0.16123,-0.1478 z m 14.255978,0.63769 -0.254765,0.0109 -0.15658,2.44482 c -0.303127,-0.003 -0.607126,-0.005 -0.912089,-0.005 -0.142154,0 -0.284051,3.5e-4 -0.425814,0.001 l -0.07183,-2.42983 -0.260966,-0.0119 0.07906,2.44326 c -0.317463,0.002 -0.63391,0.007 -0.949296,0.0124 l -0.309025,-2.42827 -0.253215,0.017 0.286288,2.41691 c -0.363072,0.008 -0.724568,0.0177 -1.084688,0.03 l -0.489893,-2.41588 -0.268201,0.0439 0.483692,2.38177 c -0.326328,0.0121 -0.651399,0.0261 -0.975135,0.0419 h -5.16e-4 l -0.682646,-2.34869 -0.276986,0.0605 0.669727,2.3027 c -0.884031,0.046 -1.757838,0.10565 -2.620512,0.17777 l -1.133264,-2.25361 -0.274402,0.15555 1.069185,2.127 c -1.120566,0.0984 -2.222121,0.21857 -3.30109,0.35915 h -5.17e-4 l -1.580265,-2.03708 -0.216008,0.21549 1.449008,1.86758 c -0.74491,0.10056 -1.478988,0.21088 -2.201417,0.33073 l 0.213424,0.22169 c 4.06011,-0.6638 8.489191,-1.02939 13.125297,-1.02939 4.297393,0 8.416607,0.31428 12.229228,0.88883 l 0.1757,-0.22944 c -1.013805,-0.15464 -2.049498,-0.29093 -3.104204,-0.40773 l 0.578777,-0.90588 h 5.16e-4 c 1.083473,0.11696 2.146472,0.25455 3.186886,0.41134 l 0.1757,-0.22944 c -1.048082,-0.15988 -2.119472,-0.30023 -3.211174,-0.41962 l 0.51263,-0.80201 -0.211356,-0.21188 -0.625285,0.97927 h -5.17e-4 c -0.378762,-0.0398 -0.760107,-0.0773 -1.143599,-0.11214 l 0.510563,-0.96531 -0.264067,-0.1602 -0.579292,1.09606 c -0.370512,-0.0321 -0.743118,-0.0616 -1.117762,-0.0889 l 0.452686,-1.03146 -0.27957,-0.14004 -0.503845,1.14773 c -0.382851,-0.0264 -0.76809,-0.05 -1.154968,-0.0713 l 0.357601,-1.08676 -0.284737,-0.18086 -0.791167,2.40553 h -5.16e-4 c -0.317646,-0.018 -0.636794,-0.0341 -0.957048,-0.0486 l 0.599447,-2.4443 -0.317293,-0.003 -0.620118,2.43241 c -0.361105,-0.0149 -0.723588,-0.0278 -1.087789,-0.0382 l 0.3514,-2.36471 -0.295072,-0.0584 -0.335897,2.41536 c -0.352692,-0.009 -0.706554,-0.0159 -1.061951,-0.0207 z m 4.221964,1.69809 c 0.378242,0.0206 0.754226,0.0438 1.128613,0.0693 l -0.399458,0.9095 c -0.34135,-0.0249 -0.684252,-0.0473 -1.028878,-0.0682 z m 1.459859,0.0925 c 0.367726,0.0265 0.733351,0.0552 1.097091,0.0863 l -0.481108,0.90951 c -0.336891,-0.0302 -0.675595,-0.0586 -1.015958,-0.0848 z m 1.429887,0.11524 h 5.17e-4 c 0.375321,0.0336 0.748528,0.07 1.119312,0.10852 l -0.57826,0.90485 c -0.339136,-0.0361 -0.68023,-0.0702 -1.023193,-0.10232 z M 51.58914,21.944312 a 0.13229166,0.13229166 0 0 0 -0.132291,0.13229 0.13229166,0.13229166 0 0 0 0.132291,0.13229 0.13229166,0.13229166 0 0 0 0.132292,-0.13229 0.13229166,0.13229166 0 0 0 -0.132292,-0.13229 z" />
     <path
   style="fill:#ff6e6e;fill-opacity:1"
   d="m 66.01354,7.1437517 c -0.510016,0 -0.926042,0.41603 -0.926042,0.92605 0,0.51001 0.416026,0.92799 0.926042,0.92799 0.510015,0 0.926041,-0.41798 0.926041,-0.92799 0,-0.51002 -0.416026,-0.92605 -0.926041,-0.92605 z m 0,0.2657 c 0.0477,0 0.04119,0.0765 0.08596,0.0859 -0.14651,0.0586 -0.304771,0.13648 -0.304773,0.30281 -6e-6,0.2177 0.180864,0.3966 0.398549,0.39661 0.166214,-10e-6 0.244094,-0.15649 0.302821,-0.30283 0.03867,0.0842 0.179737,0.0786 0.179737,0.17779 0,0.36698 -0.295312,0.66229 -0.662295,0.66229 -0.366984,0 -0.662297,-0.29531 -0.662296,-0.66229 -10e-7,-0.36699 0.295312,-0.66035 0.662296,-0.66035 z m 0.179737,0.25594 c 0.07465,0 0.130896,0.0582 0.130897,0.13284 2e-6,0.0746 -0.05625,0.13285 -0.130897,0.13285 -0.07465,0 -0.132851,-0.0582 -0.132849,-0.13285 10e-7,-0.0746 0.0582,-0.13284 0.132849,-0.13284 z"
   id="path6" />
     <path
   style="fill:#b3eaff;fill-opacity:1"
   d="m 16.170962,10.887449 -0.0349,-0.06028 c -0.206208,0.434627 -0.241104,0.453661 -0.786762,0.450489 h -0.599589 l 0.08566,-0.08248 c 0.168138,-0.155449 0.190345,-0.196691 0.269656,-0.526624 0.092,-0.393381 0.136415,-0.567864 0.177656,-0.6915887 0.04759,-0.133242 0.13007,-0.193518 0.263312,-0.193518 0.04124,0 0.06979,0 0.187173,0.0063 l 0.123724,-0.177615 c -0.06345,-0.0063 -0.09517,-0.0095 -0.139587,-0.0095 -0.06028,0 -0.114208,0.0063 -0.168139,0.01903 -0.08566,0.02221 -0.237932,0.130069 -0.36483,0.256966 -0.155449,0.1586217 -0.20938,0.3045537 -0.333105,0.8946257 -0.08566,0.406071 -0.168139,0.523451 -0.368002,0.523451 -0.02538,0 -0.06345,0 -0.09835,-0.0032 -0.04441,0.04441 -0.06345,0.06662 -0.111035,0.126897 l 0.310898,-0.0095 0.485382,0.01586 0.624969,0.02538 c 0.164966,0 0.23476,-0.0349 0.291864,-0.152277 0.03807,-0.07297 0.136414,-0.291864 0.184,-0.412416 z m 1.133021,0.209381 v -0.092 c -0.11738,0.09517 -0.342622,0.288691 -0.504416,0.288691 -0.177656,0 -0.193518,-0.190346 -0.190346,-0.31407 0.07297,-0.0349 0.383864,-0.269657 0.447313,-0.317243 0.11738,-0.09517 0.203035,-0.196691 0.203035,-0.345795 0,-0.10469 -0.06345,-0.184001 -0.180828,-0.184001 -0.114208,0 -0.212553,0.0571 -0.326761,0.145932 -0.279173,0.215725 -0.377519,0.571037 -0.377519,0.869245 0,0.193519 0.07931,0.329933 0.272829,0.329933 0.244277,0 0.526624,-0.250622 0.656693,-0.380692 z m -0.279174,-0.69159 c 0,0.228415 -0.260139,0.358484 -0.412416,0.475864 0.01269,-0.158621 0.133243,-0.609106 0.314071,-0.609106 0.06979,0 0.09835,0.06345 0.09835,0.133242 z m 1.945164,-1.1103504 c -0.06345,-0.01586 -0.08883,-0.01903 -0.152276,-0.01903 -0.190346,0 -0.323588,0.06979 -0.536141,0.2760007 -0.177656,0.171311 -0.218898,0.266484 -0.342622,0.7931077 h -0.266485 c -0.01903,0.01269 -0.03807,0.02538 -0.04441,0.02855 l -0.06979,0.03807 c -0.01269,0.0063 -0.03807,0.01903 -0.06345,0.0349 h 0.418761 l -0.130069,0.555176 c -0.190346,0.872418 -0.263312,1.015177 -0.532969,1.015177 -0.04441,0 -0.08248,-0.0032 -0.168138,-0.01586 -0.03172,0.04759 -0.04124,0.06345 -0.06345,0.092 -0.02538,0.0349 -0.05393,0.06979 -0.07931,0.107862 0.06979,0.0095 0.10469,0.01269 0.155449,0.01269 0.10469,0 0.187173,-0.01586 0.237932,-0.04441 0.092,-0.05076 0.253794,-0.206208 0.33945,-0.317243 0.09835,-0.133242 0.212553,-0.406071 0.285519,-0.694762 l 0.187175,-0.710637 h 0.282346 l 0.130069,-0.101517 -0.199863,-0.0032 -0.187173,0.0032 c 0.206208,-0.8057977 0.253794,-0.9041424 0.440968,-0.9041424 0.05393,0 0.09517,0.0063 0.212553,0.02538 z m 0.527086,1.8178024 0.0063,-0.07931 c -0.241104,0.142759 -0.342622,0.196691 -0.387036,0.196691 -0.04124,0 -0.092,-0.08248 -0.092,-0.149105 0,-0.04441 0.05393,-0.288691 0.136414,-0.621796 0.04441,-0.0032 0.07614,-0.0032 0.092,-0.0032 l 0.126898,-0.0032 c 0.01269,0 0.04441,-0.0032 0.09517,-0.0095 l 0.120552,-0.092 H 19.18929 l 0.126897,-0.5139327 c -0.06028,0.03172 -0.08566,0.04124 -0.133242,0.06345 -0.02221,0.01269 -0.04759,0.02221 -0.07297,0.0349 -0.01269,0.0063 -0.02855,0.01269 -0.04441,0.01903 l -0.08883,0.3965527 c -0.02855,0.0032 -0.04759,0.0032 -0.0571,0.0032 h -0.07614 c 0,0 -0.02221,0 -0.04759,0.0032 -0.0349,0.02221 -0.03807,0.02221 -0.092,0.06662 -0.0095,0.0063 -0.02538,0.01904 -0.04759,0.0349 h 0.07614 0.145932 0.06979 c -0.168139,0.70428 -0.168139,0.70428 -0.168139,0.802625 0,0.101518 0.06662,0.212553 0.126897,0.212553 0.06979,0 0.285519,-0.133242 0.590072,-0.361657 z"
   id="text11"
   aria-label="Left" />
     <path
   id="NEEDLE_LEFT"
   style="fill:#1fbdd2;fill-opacity:1;stroke-width:0.4;stroke-linecap:round;stroke-opacity:1:stroke:#000000"
   d="M 17.437695 0.033072917 L 17.431494 0.38395589 C 17.385374 0.49099089 16.988627 1.4447422 16.988627 2.6060425 C 16.988627 3.7012285 17.146676 4.6118201 17.355013 4.8017741 L 17.350879 5.0405192 L 17.052189 22.268925 L 17.051672 22.270475 C 17.012422 22.389201 17.047332 22.474995 17.102832 22.584668 C 17.158322 22.694341 17.298638 22.767602 17.438212 22.767602 C 17.577787 22.767602 17.687 22.654537 17.773075 22.584668 C 17.859145 22.514798 17.837991 22.323547 17.823201 22.267891 L 17.823201 22.267375 L 17.823201 22.266858 L 17.524512 5.0405192 L 17.520378 4.7986735 C 17.726885 4.6013815 17.883146 3.6947495 17.883146 2.6060425 C 17.883146 1.4718976 17.504546 0.53562256 17.443896 0.39274088 L 17.443896 0.39222412 L 17.437695 0.033072917 z "
   transform="rotate({{needle_left}}, 16.9333325, 22.311285)" />
     <path
   style="fill:#b3eaff;fill-opacity:1"
   d="m 50.432676,11.759867 -0.155449,-0.193518 c -0.101517,0.187174 -0.190346,0.260139 -0.31407,0.260139 -0.149104,0 -0.291864,-0.158621 -0.421933,-0.472692 -0.08248,-0.19669 -0.180829,-0.491726 -0.310899,-0.904142 0.180829,-0.0571 0.253795,-0.092 0.35214,-0.155449 0.149104,-0.101518 0.23476,-0.24745 0.23476,-0.3997257 0,-0.196691 -0.158622,-0.304554 -0.447313,-0.304554 l -0.184001,0.0063 0.02538,-0.101518 -0.288691,0.136415 c -0.520279,0.08883 -0.79628,0.329933 -0.79628,0.7011067 0,0.08248 0.0095,0.136414 0.04441,0.253794 l 0.266484,-0.136414 c -0.02538,-0.107863 -0.0349,-0.161794 -0.0349,-0.23476 0,-0.152277 0.04759,-0.2728287 0.145932,-0.3648287 0.08883,-0.07931 0.177656,-0.114208 0.380692,-0.139587 l -0.02855,0.114207 -0.05393,0.2220697 -0.158621,0.628141 c -0.133242,0.536141 -0.218898,0.618624 -0.631314,0.615452 l -0.123725,0.139587 0.187174,0.0032 c 0.164966,0 0.450485,-0.0063 0.545658,-0.01269 l 0.23476,-0.120552 -0.418761,-0.0095 c 0.358484,-0.358485 0.377519,-0.387037 0.479037,-0.789935 l 0.0063,-0.0032 c 0.0349,-0.0032 0.05393,0.02538 0.07297,0.10469 0.120552,0.529796 0.225242,0.831177 0.355312,1.024695 0.136414,0.203036 0.323588,0.301381 0.57421,0.301381 0.177656,0 0.285518,-0.03807 0.463174,-0.168139 z M 49.541224,9.9325483 c 0,0.1586207 -0.08566,0.3108977 -0.218898,0.3933807 -0.09517,0.0571 -0.171311,0.07931 -0.342623,0.101518 l 0.184001,-0.7423487 h 0.09835 c 0.19669,0 0.279174,0.07297 0.279174,0.24745 z m 1.23454,1.2150397 0.01269,-0.09517 c -0.155449,0.09517 -0.310898,0.174483 -0.33945,0.174483 -0.0349,0 -0.06028,-0.03807 -0.06028,-0.08883 0,-0.114207 0.03807,-0.23476 0.06662,-0.355312 l 0.09835,-0.402899 c 0.01586,-0.06662 0.04124,-0.168138 0.04124,-0.206208 0,-0.02538 -0.0095,-0.04124 -0.03807,-0.04124 -0.07297,0 -0.402899,0.215725 -0.498071,0.279174 l -0.0032,0.092 c 0.07297,-0.04124 0.187173,-0.11738 0.231587,-0.11738 0.0349,0 0.03807,0.0349 0.03807,0.06345 0,0.06979 -0.06979,0.304553 -0.104691,0.450485 -0.0349,0.145932 -0.092,0.295036 -0.092,0.437795 0,0.08248 0.03172,0.133242 0.08248,0.133242 0.05393,0 0.111035,-0.02855 0.295036,-0.149104 0.05076,-0.0349 0.07614,-0.05393 0.269657,-0.174484 z m 0.02221,-1.4720067 c -0.0571,-0.092 -0.06028,-0.101518 -0.092,-0.174484 -0.0032,-0.01269 -0.0095,-0.02855 -0.01586,-0.04124 -0.01903,0.01586 -0.03172,0.02538 -0.04441,0.0349 -0.08566,0.07297 -0.092,0.07614 -0.174484,0.133242 0.02538,0.07614 0.04759,0.114208 0.120553,0.222071 l 0.10469,-0.09517 c 0.01903,-0.01269 0.02855,-0.02221 0.101518,-0.07931 z m 1.370952,0.4568297 -0.368001,0.0063 c -0.193519,0.0032 -0.24745,0.01269 -0.342623,0.06979 -0.152277,0.09517 -0.260139,0.184001 -0.32676,0.269657 -0.09517,0.123724 -0.209381,0.507588 -0.209381,0.701107 0,0.07931 0.01904,0.136414 0.06979,0.206208 l -0.36483,0.31407 c -0.158621,0.139587 -0.231587,0.244277 -0.231587,0.333105 0,0.11738 0.139587,0.184001 0.380692,0.184001 0.291863,0 0.520278,-0.08248 0.732831,-0.266484 0.136414,-0.11738 0.168139,-0.184001 0.23476,-0.498071 l 0.158621,-0.713797 c 0.01269,-0.06979 0.02855,-0.13007 0.04124,-0.180829 l 0.04759,-0.177656 c 0.0063,-0.02855 0.01269,-0.05076 0.01586,-0.06979 0.0571,-0.01586 0.06028,-0.01586 0.161793,-0.177656 z m -0.682072,1.47518 c -0.04124,0.190346 -0.06979,0.263311 -0.126897,0.323588 -0.06979,0.07931 -0.199863,0.120552 -0.387037,0.120552 -0.206208,0 -0.317243,-0.0571 -0.317243,-0.158622 0,-0.130069 0.08566,-0.20938 0.967591,-0.885108 z m 0.472692,-1.300697 c -0.01586,0.01269 -0.0349,0.02855 -0.05076,0.03807 -0.101518,0.07297 -0.123725,0.101517 -0.152276,0.177656 l -0.104691,0.371174 c -0.06345,0.04124 -0.139587,0.09835 -0.406071,0.298208 -0.0571,-0.0571 -0.07931,-0.107862 -0.07931,-0.184001 0,-0.107862 0.07614,-0.383864 0.142759,-0.53614 0.06345,-0.13007 0.13007,-0.161794 0.361657,-0.161794 0.02221,0 0.06028,0 0.101518,-0.0032 h 0.08566 c 0.0349,0 0.06662,0 0.101518,0 z m 1.618402,0.812143 0.02221,-0.092 c -0.269656,0.158622 -0.31407,0.180829 -0.355312,0.180829 -0.02855,0 -0.04759,-0.03172 -0.04759,-0.08248 0,-0.06345 0.01903,-0.155449 0.07297,-0.361657 0.101518,-0.374346 0.152277,-0.567865 0.152277,-0.580554 0,-0.03172 -0.02538,-0.05393 -0.06662,-0.05393 -0.06662,0 -0.285519,0.120553 -0.682072,0.37752 l 0.107862,-0.425106 c 0.07614,-0.3108977 0.107863,-0.4092437 0.149104,-0.4885537 0.04441,-0.08883 0.111035,-0.1300697 0.196691,-0.1300697 0.04124,0 0.06662,0.0032 0.190346,0.02855 l 0.136406,-0.193523 c -0.0571,-0.01269 -0.08248,-0.01586 -0.130069,-0.01586 -0.174484,0 -0.266484,0.04759 -0.498072,0.2506217 -0.164966,0.145931 -0.190346,0.199863 -0.288691,0.6186227 l -0.304553,1.310214 0.225242,-0.092 0.187174,-0.739177 c 0.03172,-0.02221 0.06979,-0.04441 0.07614,-0.04759 0.218898,-0.139587 0.35214,-0.209381 0.387037,-0.209381 0.02221,0 0.03807,0.02221 0.03807,0.05076 0,0.03807 -0.01269,0.09835 -0.0571,0.269657 -0.09834,0.380692 -0.136415,0.564692 -0.136415,0.650348 0,0.03807 0.01269,0.07614 0.04759,0.136415 0.174484,-0.08883 0.402899,-0.23476 0.577382,-0.361657 z m 1.041022,-0.0063 0.0063,-0.07931 c -0.241105,0.142759 -0.342622,0.196691 -0.387036,0.196691 -0.04124,0 -0.092,-0.08248 -0.092,-0.149105 0,-0.04441 0.05393,-0.288691 0.136415,-0.621796 0.04441,-0.0032 0.07614,-0.0032 0.092,-0.0032 l 0.126897,-0.0032 c 0.01269,0 0.04441,-0.0032 0.09517,-0.0095 l 0.120553,-0.092 h -0.406071 l 0.126897,-0.5139327 c -0.06028,0.03172 -0.08566,0.04124 -0.133242,0.06345 -0.02221,0.01269 -0.04759,0.02221 -0.07297,0.0349 -0.01269,0.0063 -0.02855,0.01269 -0.04441,0.01903 l -0.08883,0.3965527 c -0.02855,0.0032 -0.04759,0.0032 -0.0571,0.0032 h -0.07614 c 0,0 -0.02221,0 -0.04759,0.0032 -0.0349,0.02221 -0.03807,0.02221 -0.092,0.06662 -0.0095,0.0063 -0.02538,0.01904 -0.04759,0.0349 h 0.07614 0.145931 0.06979 c -0.168139,0.70428 -0.168139,0.70428 -0.168139,0.802625 0,0.101518 0.06662,0.212553 0.126897,0.212553 0.06979,0 0.285519,-0.133242 0.590072,-0.361657 z"
   id="text12"
   aria-label="Right" />
     <path
   id="NEEDLE_RIGHT"
   style="fill:#1fbdd2;fill-opacity:1;stroke-width:0.4;stroke-linecap:round;stroke-opacity:1:stroke:#000000"
   d="M 51.039262 0.033072917 L 51.033577 0.38395589 C 50.987477 0.49099089 50.59071 1.4447422 50.59071 2.6060425 C 50.59071 3.7012285 50.748756 4.6118201 50.957096 4.8017741 L 50.952962 5.0405192 L 50.962264 5.0405192 L 50.654272 22.798092 L 50.653755 22.799642 C 50.614505 22.918369 50.649415 23.004162 50.704915 23.113835 C 50.760405 23.223508 50.900721 23.296769 51.040295 23.296769 C 51.17987 23.296769 51.289083 23.183704 51.375158 23.113835 C 51.461228 23.043965 51.440075 22.852715 51.425285 22.797058 L 51.425285 22.796541 L 51.425285 22.796024 L 51.117293 5.0405192 L 51.126595 5.0405192 L 51.122461 4.7986735 C 51.328961 4.6013815 51.485229 3.6947495 51.485229 2.6060425 C 51.485229 1.4715322 51.10644 0.53464012 51.04598 0.39222412 L 51.039262 0.033072917 z "
   transform="rotate({{needle_right}}, 50.7999975, 22.311285)" />
     <rect
   style="fill:#3c3c3c;fill-opacity:1"
   id="rect8"
   width="86.505577"
   height="5.1350346"
   x="-12.936337"
   y="13.923842" />
     <path
   id="label_left"
   style="fill:#bfff6a;fill-opacity:1"
   d="m 1.5937012,13.884941 v 0.275435 H 1.7306437 32.138607 32.275549 V 13.884941 H 32.138607 1.7306437 Z m 13.5681638,0.736389 -0.0078,0.12299 c -0.0015,0.02141 -0.0035,0.04108 -0.0036,0.06253 v 0.0015 c 0,0.370311 0.216274,0.698717 0.541053,0.926042 0.324779,0.227325 0.762768,0.361246 1.243851,0.361218 0.481082,2.8e-5 0.917523,-0.133893 1.242302,-0.361218 0.324779,-0.227325 0.541052,-0.555731 0.541052,-0.926042 v -0.0015 c -8.1e-5,-0.02145 -4.41e-4,-0.04112 -0.0021,-0.06253 l -0.0098,-0.12299 z M 2.7698568,14.816667 c -0.1377108,0 -0.2449214,0.04458 -0.3214274,0.133842 -0.076506,0.08798 -0.1147217,0.206072 -0.1147217,0.353983 0,0.12496 0.034497,0.235097 0.1033528,0.330729 0.068856,0.09436 0.1752741,0.141594 0.3193604,0.141594 0.2027407,0 0.3325021,-0.09926 0.3886068,-0.298173 l -0.1819011,-0.05943 c -0.030602,0.131335 -0.099873,0.196887 -0.208256,0.196887 -0.1517369,0 -0.2278931,-0.108278 -0.2278931,-0.325045 0,-0.209116 0.077223,-0.313676 0.2315104,-0.313676 0.1071087,0 0.1726606,0.05175 0.1968872,0.15503 l 0.1855184,-0.04392 C 3.0898895,14.90742 2.9662222,14.816667 2.7698568,14.816667 Z m 22.7526162,0 v 1.2392 h 0.237195 v -0.448551 c 0,-0.192115 0.06546,-0.288354 0.19637,-0.288354 0.05951,0 0.09861,0.01804 0.117306,0.05374 0.0204,0.0357 0.03049,0.105064 0.03049,0.208773 v 0.474389 h 0.237195 v -0.527616 c 0,-0.129209 -0.02195,-0.226332 -0.06615,-0.290938 -0.0442,-0.06631 -0.124169,-0.09922 -0.239779,-0.09922 -0.105408,0 -0.197228,0.04477 -0.275435,0.134875 v -0.456302 z m -22.2570393,0.01912 v 0.929659 H 3.4530192 V 15.41508 h 0.1219564 c 0.1134839,0 0.1941502,-0.0085 0.2413289,-0.02635 0.048454,-0.01913 0.087461,-0.05098 0.1167887,-0.0956 0.029327,-0.0459 0.043925,-0.103744 0.043925,-0.172599 0,-0.0765 -0.019108,-0.138338 -0.057361,-0.185518 -0.036978,-0.04845 -0.079704,-0.07686 -0.1281576,-0.08578 -0.047179,-0.0089 -0.1225429,-0.01344 -0.225826,-0.01344 z m 25.5369423,10e-4 -0.239778,0.137976 v 0.178284 h -0.109555 v 0.189136 h 0.109555 v 0.392741 c 0,0.125807 0.01362,0.213209 0.04082,0.262516 0.0289,0.04931 0.0926,0.0739 0.191203,0.0739 0.0697,0 0.132512,-0.01186 0.188619,-0.03566 l -0.02067,-0.183452 c -0.04251,0.0153 -0.07453,0.02274 -0.09663,0.02274 -0.0255,0 -0.04266,-0.01009 -0.05116,-0.03049 -0.0085,-0.0204 -0.0124,-0.06745 -0.0124,-0.14056 v -0.361735 h 0.160197 V 15.15308 H 28.80238 Z m -13.339237,0.04806 h 2.94504 c -0.02937,0.23525 -0.137361,0.462089 -0.380856,0.63252 -0.272981,0.191069 -0.66089,0.314734 -1.091923,0.314709 -0.431033,2.5e-5 -0.818426,-0.12364 -1.091406,-0.314709 -0.243495,-0.170431 -0.351486,-0.39727 -0.380855,-0.63252 z m 15.050244,0.05168 c -0.188715,0 -0.319635,0.05626 -0.392741,0.168465 -0.034,0.05611 -0.05116,0.103527 -0.05116,0.142627 0,0.07651 0.05891,0.152054 0.176217,0.22686 -0.153012,0.0663 -0.229443,0.16166 -0.229443,0.28577 0,0.0578 0.01576,0.114059 0.04806,0.168465 0.0442,0.06291 0.104878,0.111211 0.181384,0.145211 0.07821,0.034 0.17091,0.05116 0.278019,0.05116 0.226118,0 0.383399,-0.06546 0.471806,-0.196371 0.05271,-0.0527 0.07906,-0.116029 0.07906,-0.189135 0,-0.0629 -0.02157,-0.117758 -0.06408,-0.165365 -0.0408,-0.04931 -0.100961,-0.08273 -0.180867,-0.09973 0.05951,-0.01701 0.106927,-0.04602 0.142627,-0.08682 0.0357,-0.0425 0.05374,-0.08904 0.05374,-0.140043 0,-0.0629 -0.02901,-0.124828 -0.08682,-0.186035 -0.0442,-0.04421 -0.101343,-0.07587 -0.171049,-0.09457 -0.06971,-0.0204 -0.154457,-0.03049 -0.254765,-0.03049 z m 1.20096,0 c -0.188715,0 -0.319635,0.05626 -0.392741,0.168465 -0.034,0.05611 -0.05064,0.103527 -0.05064,0.142627 0,0.07651 0.05839,0.152054 0.1757,0.22686 -0.153012,0.0663 -0.229443,0.16166 -0.229443,0.28577 0,0.0578 0.01628,0.114059 0.04858,0.168465 0.0442,0.06291 0.104361,0.111211 0.180867,0.145211 0.07821,0.034 0.170911,0.05116 0.278019,0.05116 0.226118,0 0.383399,-0.06546 0.471806,-0.196371 0.05271,-0.0527 0.07906,-0.116029 0.07906,-0.189135 0,-0.0629 -0.02105,-0.117758 -0.06356,-0.165365 -0.0408,-0.04931 -0.101478,-0.08273 -0.181384,-0.09973 0.05951,-0.01701 0.107444,-0.04602 0.143144,-0.08682 0.0357,-0.0425 0.05323,-0.08904 0.05323,-0.140043 0,-0.0629 -0.02901,-0.124828 -0.08682,-0.186035 -0.0442,-0.04421 -0.100827,-0.07587 -0.170532,-0.09457 -0.06971,-0.0204 -0.154974,-0.03049 -0.255282,-0.03049 z m -28.2613238,0.05581 h 0.091467 c 0.098182,0 0.1626672,0.0098 0.1932698,0.02894 0.030603,0.01913 0.045992,0.05363 0.045992,0.103353 0,0.051 -0.017249,0.08578 -0.051676,0.104903 -0.034428,0.01785 -0.093335,0.02687 -0.1762166,0.02687 H 3.4530192 Z m -1.4825968,0.02532 c -0.091807,0 -0.1618691,0.03822 -0.2103231,0.114722 v -0.09974 H 1.5937012 v 0.929659 H 1.7714681 V 15.62175 c 0.061205,0.06631 0.1267567,0.09974 0.1968872,0.09974 0.086707,0 0.15491,-0.0337 0.2046387,-0.101286 0.051004,-0.06758 0.076998,-0.152757 0.076998,-0.254765 0,-0.09563 -0.02441,-0.177366 -0.072864,-0.244946 -0.048454,-0.06886 -0.1174487,-0.102836 -0.2067056,-0.102836 z m 28.5987706,0.08733 c 0.03571,0 0.06737,0.0048 0.09457,0.01499 0.02891,0.0085 0.05261,0.01947 0.07131,0.03307 0.0255,0.02381 0.03824,0.05193 0.03824,0.08423 0,0.05781 -0.03026,0.103092 -0.09147,0.135392 -0.02551,0.01867 -0.04973,0.03052 -0.07183,0.03566 -0.02211,0.0034 -0.04847,0.0052 -0.07906,0.0052 -0.05951,0 -0.106043,-0.01539 -0.140043,-0.04599 -0.04251,-0.0374 -0.06356,-0.0765 -0.06356,-0.117305 0,-0.04421 0.02106,-0.07977 0.06356,-0.10697 0.02551,-0.01527 0.05186,-0.02536 0.07906,-0.03049 0.02721,-0.0051 0.06012,-0.0078 0.09922,-0.0078 z m 1.201477,0 c 0.03571,0 0.06685,0.0048 0.09405,0.01499 0.02891,0.0085 0.05313,0.01947 0.07183,0.03307 0.0255,0.02381 0.03824,0.05193 0.03824,0.08423 0,0.05781 -0.03078,0.103092 -0.09198,0.135392 -0.02551,0.01867 -0.04921,0.03052 -0.07131,0.03566 -0.02211,0.0034 -0.04847,0.0052 -0.07906,0.0052 -0.05951,0 -0.10656,-0.01539 -0.14056,-0.04599 -0.04251,-0.0374 -0.06356,-0.0765 -0.06356,-0.117305 0,-0.04421 0.02106,-0.07977 0.06356,-0.10697 0.02551,-0.01527 0.05186,-0.02536 0.07906,-0.03049 0.0272,-0.0051 0.06063,-0.0078 0.09973,-0.0078 z m -6.834724,0.0279 c -0.25162,0 -0.377238,0.09182 -0.377238,0.275436 0,0.068 0.02371,0.125509 0.07131,0.173116 0.0476,0.0476 0.181175,0.09642 0.400492,0.145727 0.06461,0.01361 0.09663,0.03908 0.09663,0.07648 0,0.06461 -0.05662,0.09663 -0.170532,0.09663 -0.10711,0 -0.171687,-0.04742 -0.193787,-0.142627 l -0.237194,0.03824 c 0.0476,0.183615 0.191262,0.275435 0.430981,0.275435 0.112209,0 0.207932,-0.02547 0.287838,-0.07648 0.07991,-0.051 0.119889,-0.125667 0.119889,-0.224275 0,-0.07651 -0.02459,-0.134533 -0.0739,-0.173633 -0.0476,-0.04081 -0.133239,-0.0746 -0.257349,-0.101803 -0.168313,-0.03741 -0.252698,-0.0765 -0.252698,-0.117305 0,-0.04931 0.05361,-0.0739 0.160714,-0.0739 0.09351,0 0.149765,0.03557 0.168465,0.106971 l 0.224276,-0.04082 c -0.0459,-0.158112 -0.17859,-0.237195 -0.397908,-0.237195 z m 4.513936,0 c -0.12581,0 -0.225951,0.0444 -0.300757,0.132809 -0.07311,0.08841 -0.109554,0.203054 -0.109554,0.344165 0,0.12921 0.0338,0.238555 0.101803,0.328662 0.068,0.08841 0.179117,0.132808 0.333829,0.132808 0.197214,0 0.327251,-0.08829 0.390157,-0.2651 l -0.236678,-0.04082 c -0.0238,0.08671 -0.07439,0.129708 -0.150895,0.129708 -0.122411,0 -0.18787,-0.07466 -0.19637,-0.224276 h 0.596862 c 0,-0.358729 -0.142774,-0.537952 -0.428397,-0.537952 z m -1.405082,0.0052 c -0.11901,0 -0.218267,0.05095 -0.298173,0.152962 v -0.132808 h -0.219625 v 0.897619 h 0.237195 v -0.405143 c 0,-0.159815 0.0198,-0.25517 0.05891,-0.28577 0.0391,-0.0306 0.08475,-0.04599 0.137459,-0.04599 0.05951,0 0.09861,0.02069 0.117306,0.06149 0.0204,0.0391 0.03049,0.111116 0.03049,0.216525 v 0.458886 h 0.237195 v -0.558105 c 0,-0.239719 -0.100141,-0.359668 -0.300757,-0.359668 z m -1.524972,0.01499 v 0.568958 c 0,0.232918 0.09926,0.349332 0.298173,0.349332 0.127511,0 0.227285,-0.05184 0.29869,-0.155546 v 0.135393 h 0.219108 V 15.15308 h -0.237195 v 0.377755 c 0,0.147909 -0.01362,0.244515 -0.04082,0.290421 -0.0255,0.04591 -0.07646,0.06925 -0.152962,0.06925 -0.05951,0 -0.09949,-0.02157 -0.11989,-0.06408 -0.0187,-0.0442 -0.02791,-0.130722 -0.02791,-0.259932 V 15.15308 Z m -24.599015,0.0062 c 0.098183,0 0.1472778,0.06927 0.1472778,0.208256 0,0.141536 -0.048028,0.212391 -0.1436605,0.212391 -0.1032831,0 -0.1545125,-0.0743 -0.1545125,-0.222209 0,-0.13261 0.050162,-0.198438 0.1508952,-0.198438 z m 27.544572,0.154513 c 0.113876,0 0.17315,0.07076 0.178283,0.211873 h -0.3545 c 0,-0.141111 0.05891,-0.211873 0.176217,-0.211873 z m 1.078487,0.250114 c 0.07651,0 0.133649,0.02282 0.171049,0.06873 0.0255,0.0289 0.03824,0.06446 0.03824,0.106971 0,0.06801 -0.01893,0.115943 -0.05633,0.143143 -0.0442,0.0374 -0.100827,0.05581 -0.170532,0.05581 -0.06631,0 -0.121681,-0.02195 -0.165881,-0.06615 -0.0255,-0.0255 -0.03824,-0.06637 -0.03824,-0.122473 0,-0.05611 0.01929,-0.100876 0.05839,-0.134876 0.0391,-0.034 0.09359,-0.05116 0.163298,-0.05116 z m 1.201477,0 c 0.07651,0 0.133132,0.02282 0.170532,0.06873 0.0255,0.0289 0.03824,0.06446 0.03824,0.106971 0,0.06801 -0.01841,0.115943 -0.05581,0.143143 -0.0442,0.0374 -0.101343,0.05581 -0.171049,0.05581 -0.06631,0 -0.121681,-0.02195 -0.165881,-0.06615 -0.0255,-0.0255 -0.03824,-0.06637 -0.03824,-0.122473 0,-0.05611 0.01981,-0.100876 0.05891,-0.134876 0.0391,-0.034 0.09359,-0.05116 0.163298,-0.05116 z" />
   
     <path
   id="label_right"
   style="fill:#bfff6a;fill-opacity:1"
   d="m 35.983333,13.884941 v 0.275435 h 0.138493 30.407963 0.136942 V 13.884941 H 66.529789 36.121826 Z m 13.038998,0.736389 -0.0078,0.12299 c -0.0015,0.02141 -0.0021,0.04108 -0.0021,0.06253 v 0.0015 c 0,0.370311 0.214206,0.698717 0.538985,0.926042 0.324779,0.227325 0.763286,0.361246 1.244369,0.361218 0.481082,2.8e-5 0.919072,-0.133893 1.243851,-0.361218 0.324779,-0.227325 0.538986,-0.555731 0.538986,-0.926042 v -0.0015 c 0,-0.02145 9.1e-5,-0.04112 -0.0016,-0.06253 l -0.0083,-0.12299 z M 37.16569,14.816667 c -0.137711,0 -0.244921,0.04458 -0.321427,0.133842 -0.07651,0.08798 -0.114722,0.206072 -0.114722,0.353983 0,0.12496 0.0345,0.235097 0.103353,0.330729 0.06885,0.09436 0.175273,0.141594 0.31936,0.141594 0.20274,0 0.332502,-0.09926 0.388607,-0.298173 l -0.181901,-0.05943 c -0.0306,0.131335 -0.09987,0.196887 -0.208256,0.196887 -0.151737,0 -0.227893,-0.108278 -0.227893,-0.325045 0,-0.209116 0.07722,-0.313676 0.23151,-0.313676 0.107108,0 0.17266,0.05175 0.196887,0.15503 l 0.185519,-0.04392 C 37.485727,14.90742 37.362055,14.81667 37.16569,14.81667 Z m 22.752616,0 v 1.2392 h 0.237195 v -0.448551 c 0,-0.192115 0.06546,-0.288354 0.19637,-0.288354 0.05951,0 0.09861,0.01804 0.117306,0.05374 0.0204,0.0357 0.03049,0.105064 0.03049,0.208773 v 0.474389 h 0.237195 v -0.527616 c 0,-0.129209 -0.02195,-0.226332 -0.06615,-0.290938 -0.0442,-0.06631 -0.124169,-0.09922 -0.239779,-0.09922 -0.105408,0 -0.197228,0.04477 -0.275435,0.134875 v -0.456302 z m -22.257039,0.01912 v 0.929659 h 0.187585 V 15.41508 h 0.121957 c 0.113484,0 0.19415,-0.0085 0.241329,-0.02635 0.04845,-0.01913 0.08746,-0.05098 0.116788,-0.0956 0.02933,-0.0459 0.04392,-0.103744 0.04392,-0.172599 0,-0.0765 -0.01911,-0.138338 -0.05736,-0.185518 -0.03698,-0.04845 -0.0797,-0.07686 -0.128158,-0.08578 -0.04718,-0.0089 -0.122543,-0.01344 -0.225826,-0.01344 z m 25.536942,10e-4 -0.239778,0.137976 v 0.178284 h -0.109554 v 0.189136 h 0.109554 v 0.392741 c 0,0.125807 0.01362,0.213209 0.04082,0.262516 0.0289,0.04931 0.09259,0.0739 0.191203,0.0739 0.0697,0 0.132512,-0.01186 0.188619,-0.03566 l -0.02067,-0.183452 c -0.04251,0.0153 -0.07455,0.02274 -0.09663,0.02274 -0.0255,0 -0.04266,-0.01009 -0.05116,-0.03049 -0.0085,-0.0204 -0.0124,-0.06745 -0.0124,-0.14056 V 15.342183 H 63.35841 V 15.15308 h -0.160197 z m -13.875122,0.04806 h 2.945557 c -0.02937,0.23525 -0.137359,0.462089 -0.380855,0.63252 -0.27298,0.191069 -0.66089,0.314734 -1.091923,0.314709 -0.431033,2.5e-5 -0.818943,-0.12364 -1.091923,-0.314709 -0.243495,-0.170431 -0.351487,-0.39727 -0.380856,-0.63252 z m 15.586129,0.05168 c -0.188715,0 -0.319635,0.05626 -0.392741,0.168465 -0.034,0.05611 -0.05116,0.103527 -0.05116,0.142627 0,0.07651 0.05891,0.152054 0.176217,0.22686 -0.153012,0.0663 -0.229443,0.16166 -0.229443,0.28577 0,0.0578 0.01576,0.114059 0.04806,0.168465 0.0442,0.06291 0.104878,0.111211 0.181384,0.145211 0.07821,0.034 0.17091,0.05116 0.278019,0.05116 0.226118,0 0.383399,-0.06546 0.471806,-0.196371 0.05271,-0.0527 0.07906,-0.116029 0.07906,-0.189135 0,-0.0629 -0.02157,-0.117758 -0.06408,-0.165365 -0.0408,-0.04931 -0.100961,-0.08273 -0.180867,-0.09973 0.05951,-0.01701 0.106927,-0.04602 0.142627,-0.08682 0.0357,-0.0425 0.05374,-0.08904 0.05374,-0.140043 0,-0.0629 -0.02901,-0.124828 -0.08682,-0.186035 -0.0442,-0.04421 -0.101343,-0.07587 -0.171049,-0.09457 -0.06971,-0.0204 -0.154457,-0.03049 -0.254765,-0.03049 z m 1.20096,0 c -0.188715,0 -0.319635,0.05626 -0.392741,0.168465 -0.034,0.05611 -0.05064,0.103527 -0.05064,0.142627 0,0.07651 0.05839,0.152054 0.175699,0.22686 -0.153012,0.0663 -0.229443,0.16166 -0.229443,0.28577 0,0.0578 0.01628,0.114059 0.04858,0.168465 0.0442,0.06291 0.104361,0.111211 0.180867,0.145211 0.07821,0.034 0.170912,0.05116 0.27802,0.05116 0.226118,0 0.383398,-0.06546 0.471805,-0.196371 0.05271,-0.0527 0.07906,-0.116029 0.07906,-0.189135 0,-0.0629 -0.02105,-0.117758 -0.06356,-0.165365 -0.0408,-0.04931 -0.101478,-0.08273 -0.181384,-0.09973 0.05951,-0.01701 0.107444,-0.04602 0.143144,-0.08682 0.0357,-0.0425 0.05323,-0.08904 0.05323,-0.140043 0,-0.0629 -0.02901,-0.124828 -0.08682,-0.186035 -0.0442,-0.04421 -0.100827,-0.07587 -0.170532,-0.09457 -0.06971,-0.0204 -0.154974,-0.03049 -0.255282,-0.03049 z m -28.261324,0.05581 h 0.09147 c 0.09818,0 0.162668,0.0098 0.19327,0.02894 0.0306,0.01913 0.04599,0.05363 0.04599,0.103353 0,0.051 -0.01725,0.08578 -0.05168,0.104903 -0.03443,0.01785 -0.09333,0.02687 -0.176217,0.02687 h -0.102836 z m -1.482596,0.02532 c -0.09181,0 -0.16187,0.03822 -0.210324,0.114722 v -0.09974 h -0.166398 v 0.929659 h 0.177767 V 15.62175 c 0.06121,0.06631 0.126757,0.09974 0.196887,0.09974 0.08671,0 0.154911,-0.0337 0.204639,-0.101286 0.051,-0.06758 0.077,-0.152757 0.077,-0.254765 0,-0.09563 -0.02441,-0.177366 -0.07286,-0.244946 -0.04845,-0.06886 -0.117449,-0.102836 -0.206705,-0.102836 z m 28.598771,0.08733 c 0.03571,0 0.06737,0.0048 0.09457,0.01499 0.02891,0.0085 0.05261,0.01947 0.07131,0.03307 0.0255,0.02381 0.03824,0.05193 0.03824,0.08423 0,0.05781 -0.03026,0.103092 -0.09147,0.135392 -0.02551,0.01867 -0.04973,0.03052 -0.07183,0.03566 -0.02211,0.0034 -0.04848,0.0052 -0.07906,0.0052 -0.05951,0 -0.106043,-0.01539 -0.140043,-0.04599 -0.04251,-0.0374 -0.06356,-0.0765 -0.06356,-0.117305 0,-0.04421 0.02105,-0.07977 0.06356,-0.10697 0.02551,-0.01527 0.05186,-0.02536 0.07906,-0.03049 0.02721,-0.0051 0.06012,-0.0078 0.09922,-0.0078 z m 1.201477,0 c 0.03571,0 0.06685,0.0048 0.09405,0.01499 0.02891,0.0085 0.05313,0.01947 0.07183,0.03307 0.0255,0.02381 0.03824,0.05193 0.03824,0.08423 0,0.05781 -0.03078,0.103092 -0.09199,0.135392 -0.02551,0.01867 -0.04921,0.03052 -0.07131,0.03566 -0.02211,0.0034 -0.04848,0.0052 -0.07906,0.0052 -0.05951,0 -0.10656,-0.01539 -0.14056,-0.04599 -0.04251,-0.0374 -0.06356,-0.0765 -0.06356,-0.117305 0,-0.04421 0.02106,-0.07977 0.06356,-0.10697 0.02551,-0.01527 0.05187,-0.02536 0.07906,-0.03049 0.0272,-0.0051 0.06064,-0.0078 0.09974,-0.0078 z m -6.834725,0.0279 c -0.25162,0 -0.377238,0.09182 -0.377238,0.275436 0,0.068 0.02371,0.125509 0.07131,0.173116 0.0476,0.0476 0.181176,0.09642 0.400493,0.145727 0.06461,0.01361 0.09663,0.03908 0.09663,0.07648 0,0.06461 -0.05662,0.09663 -0.170533,0.09663 -0.10711,0 -0.171686,-0.04742 -0.193786,-0.142627 l -0.237195,0.03824 c 0.0476,0.183615 0.191262,0.275435 0.430981,0.275435 0.112209,0 0.207932,-0.02547 0.287838,-0.07648 0.07991,-0.051 0.119889,-0.125667 0.119889,-0.224275 0,-0.07651 -0.02459,-0.134533 -0.0739,-0.173633 -0.0476,-0.04081 -0.133239,-0.0746 -0.257349,-0.101803 -0.168313,-0.03741 -0.252697,-0.0765 -0.252697,-0.117305 0,-0.04931 0.05361,-0.0739 0.160713,-0.0739 0.09351,0 0.149766,0.03557 0.168466,0.106971 l 0.224275,-0.04082 c -0.0459,-0.158112 -0.17859,-0.237195 -0.397908,-0.237195 z m 4.513936,0 c -0.12581,0 -0.225951,0.0444 -0.300757,0.132809 -0.0731,0.08841 -0.109554,0.203054 -0.109554,0.344165 0,0.12921 0.0338,0.238555 0.101803,0.328662 0.068,0.08841 0.179118,0.132808 0.33383,0.132808 0.197214,0 0.327251,-0.08829 0.390157,-0.2651 l -0.236678,-0.04082 c -0.0238,0.08671 -0.07439,0.129708 -0.150896,0.129708 -0.122411,0 -0.18787,-0.07466 -0.19637,-0.224276 h 0.596863 c 0,-0.358729 -0.142775,-0.537952 -0.428398,-0.537952 z m -1.405082,0.0052 c -0.11901,0 -0.218267,0.05095 -0.298173,0.152962 v -0.132808 h -0.219625 v 0.897619 h 0.237195 v -0.405143 c 0,-0.159815 0.0198,-0.25517 0.05891,-0.28577 0.0391,-0.0306 0.08475,-0.04599 0.137459,-0.04599 0.05951,0 0.09861,0.02069 0.117306,0.06149 0.0204,0.0391 0.03049,0.111116 0.03049,0.216525 v 0.458886 h 0.237195 v -0.558105 c 0,-0.239719 -0.100141,-0.359668 -0.300757,-0.359668 z m -1.524972,0.01499 v 0.568958 c 0,0.232918 0.09926,0.349332 0.298173,0.349332 0.127511,0 0.227285,-0.05184 0.29869,-0.155546 v 0.135393 h 0.219108 V 15.15308 h -0.237195 v 0.377755 c 0,0.147909 -0.01362,0.244515 -0.04082,0.290421 -0.0255,0.04591 -0.07646,0.06925 -0.152962,0.06925 -0.05951,0 -0.09949,-0.02157 -0.11989,-0.06408 -0.0187,-0.0442 -0.0279,-0.130722 -0.0279,-0.259932 V 15.15308 Z m -24.599015,0.0062 c 0.09818,0 0.147278,0.06927 0.147278,0.208256 0,0.141536 -0.04803,0.212391 -0.14366,0.212391 -0.103283,0 -0.154513,-0.0743 -0.154513,-0.222209 0,-0.13261 0.05016,-0.198438 0.150895,-0.198438 z m 27.544572,0.154513 c 0.113876,0 0.173151,0.07076 0.178284,0.211873 h -0.354501 c 0,-0.141111 0.05891,-0.211873 0.176217,-0.211873 z m 1.078487,0.250114 c 0.07651,0 0.133649,0.02282 0.171049,0.06873 0.0255,0.0289 0.03824,0.06446 0.03824,0.106971 0,0.06801 -0.01893,0.115943 -0.05633,0.143143 -0.0442,0.0374 -0.100827,0.05581 -0.170532,0.05581 -0.06631,0 -0.121681,-0.02195 -0.165881,-0.06615 -0.0255,-0.0255 -0.03824,-0.06637 -0.03824,-0.122473 0,-0.05611 0.01929,-0.100876 0.0584,-0.134876 0.0391,-0.034 0.09359,-0.05116 0.163297,-0.05116 z m 1.201477,0 c 0.07651,0 0.133132,0.02282 0.170532,0.06873 0.0255,0.0289 0.03824,0.06446 0.03824,0.106971 0,0.06801 -0.01841,0.115943 -0.05581,0.143143 -0.0442,0.0374 -0.101343,0.05581 -0.171049,0.05581 -0.06631,0 -0.121681,-0.02195 -0.165881,-0.06615 -0.0255,-0.0255 -0.03824,-0.06637 -0.03824,-0.122473 0,-0.05611 0.01981,-0.100876 0.05891,-0.134876 0.0391,-0.034 0.09359,-0.05116 0.163297,-0.05116 z" />
     <path
   id="path2"
   style="fill:#ff6e6e;fill-opacity:1"
   d="m 62.614783,3.8617811 c -0.03186,10e-4 -0.06532,0.0038 -0.09974,0.0088 l 0.03101,0.196371 c 0.09407,-0.0131 0.173378,-0.008 0.237712,0.01654 0.06433,0.0242 0.112697,0.06061 0.14521,0.109037 0.02698,0.0387 0.04356,0.0816 0.04909,0.1286749 0.0048,0.047 -0.0017,0.0927 -0.01964,0.136942 -0.02283,0.0553 -0.06505,0.102337 -0.126607,0.141077 -0.0415,0.027 -0.09312,0.04608 -0.153996,0.05788 v 5.17e-4 c -0.03389,0.002 -0.06876,0.0053 -0.10542,0.0093 l 0.0217,0.201538 h 0.0031 v 10e-4 c 0.0249,-0.002 0.04917,-0.0053 0.07338,-0.0083 0.09476,-0.007 0.172704,-0.0059 0.233578,0.0031 0.07609,0.0125 0.1289,0.03376 0.158646,0.06356 0.0159,0.0153 0.02274,0.03128 0.02067,0.04858 -0.0035,0.027 -0.02021,0.0559 -0.05064,0.0863 -0.04842,0.0512 -0.120208,0.091 -0.214974,0.119373 -0.09477,0.0277 -0.206545,0.03347 -0.335897,0.01757 l -0.02584,0.199988 c 0.163939,0.02 0.30768,0.01046 0.431498,-0.02894 0.123818,-0.0394 0.21919,-0.0943 0.286288,-0.164848 0.06225,-0.0643 0.09798,-0.133386 0.10697,-0.206706 0.01037,-0.083 -0.01749,-0.156845 -0.0832,-0.221175 -0.03805,-0.0367 -0.09188,-0.06532 -0.161747,-0.08682 0.04634,-0.0463 0.08138,-0.0987 0.104903,-0.156063 0.03182,-0.0768 0.0431,-0.154554 0.03411,-0.234094 -0.0083,-0.0802 -0.03564,-0.1544289 -0.08268,-0.2222089 -0.05257,-0.0775 -0.127776,-0.136086 -0.225309,-0.176216 -0.07263,-0.0301 -0.156594,-0.04371 -0.252181,-0.04031 z M 58.874959,5.21312 58.371114,6.3608528 c -0.355784,-0.02453 -0.713495,-0.04656 -1.072803,-0.06666 l -0.08371,0.24753 c 0.351314,0.01949 0.700491,0.04141 1.048514,0.06511 l -0.399458,0.909505 c -0.317562,-0.02316 -0.636661,-0.04444 -0.957048,-0.06408 l -0.08372,0.247013 c 2.419981,0.147044 4.760324,0.394397 6.995439,0.731221 l 0.1757,-0.229443 C 62.980223,8.0464088 61.94453,7.9101218 60.889824,7.7933218 L 61.4686,6.8874338 h 5.17e-4 c 1.083473,0.11696 2.146472,0.254555 3.186886,0.411345 l 0.1757,-0.229444 c -1.048082,-0.15988 -2.119472,-0.300222 -3.211174,-0.419612 L 62.133159,5.847704 61.921803,5.635831 61.296518,6.6150988 H 61.296 c -0.378762,-0.0398 -0.760107,-0.0773 -1.143599,-0.112137 L 60.662964,5.537646 60.398897,5.377449 59.819604,6.4735058 c -0.370512,-0.0321 -0.743117,-0.06158 -1.117761,-0.08888 L 59.154529,5.353164 Z m -0.280603,1.4169678 c 0.367726,0.0265 0.733351,0.0552 1.097091,0.0863 l -0.481108,0.909505 c -0.336891,-0.0302 -0.675595,-0.05855 -1.015958,-0.08475 z m 1.429887,0.115238 h 5.17e-4 c 0.375321,0.0336 0.748527,0.07 1.119311,0.108521 l -0.578259,0.904854 c -0.339136,-0.0361 -0.68023,-0.0702 -1.023193,-0.102319 z" />
     <path
   id="path3"
   style="fill:#ff6e6e;fill-opacity:1"
   d="m 28.218949,3.8617811 c -0.03186,10e-4 -0.06532,0.0038 -0.09974,0.0088 l 0.03101,0.196371 c 0.09407,-0.0131 0.173378,-0.008 0.237712,0.01654 0.06433,0.0242 0.112697,0.06061 0.14521,0.109037 0.02698,0.0387 0.04356,0.0816 0.04909,0.1286749 0.0048,0.047 -0.0017,0.0927 -0.01964,0.136942 -0.02283,0.0553 -0.06505,0.102337 -0.126607,0.141077 -0.0415,0.027 -0.09312,0.04608 -0.153996,0.05788 v 5.17e-4 c -0.03389,0.002 -0.06876,0.0053 -0.10542,0.0093 l 0.0217,0.201538 h 0.0031 v 10e-4 c 0.0249,-0.002 0.04917,-0.0053 0.07338,-0.0083 0.09476,-0.007 0.172704,-0.0059 0.233578,0.0031 0.07609,0.0125 0.1289,0.03376 0.158646,0.06356 0.0159,0.0153 0.02274,0.03128 0.02067,0.04858 -0.0035,0.027 -0.02021,0.0559 -0.05064,0.0863 -0.04842,0.0512 -0.120208,0.091 -0.214974,0.119373 -0.09477,0.0277 -0.206545,0.03347 -0.335897,0.01757 l -0.02584,0.199988 c 0.163939,0.02 0.30768,0.01046 0.431498,-0.02894 0.123818,-0.0394 0.21919,-0.0943 0.286288,-0.164848 0.06225,-0.0643 0.09798,-0.133386 0.10697,-0.206706 0.01037,-0.083 -0.01749,-0.156845 -0.0832,-0.221175 -0.03805,-0.0367 -0.09188,-0.06532 -0.161747,-0.08682 0.04634,-0.0463 0.08138,-0.0987 0.104903,-0.156063 0.03182,-0.0768 0.0431,-0.154554 0.03411,-0.234094 -0.0083,-0.0802 -0.03564,-0.1544289 -0.08268,-0.2222089 -0.05257,-0.0775 -0.127776,-0.136086 -0.225309,-0.176216 -0.07263,-0.0301 -0.156594,-0.04371 -0.252181,-0.04031 z M 24.479125,5.21312 23.97528,6.3608528 c -0.355784,-0.02453 -0.713495,-0.04656 -1.072803,-0.06666 l -0.08371,0.24753 c 0.351314,0.01949 0.700491,0.04141 1.048514,0.06511 l -0.399458,0.909505 c -0.317562,-0.02316 -0.636661,-0.04444 -0.957048,-0.06408 l -0.08372,0.247013 c 2.419981,0.147044 4.760324,0.394397 6.995439,0.731221 l 0.1757,-0.229443 c -1.013805,-0.15464 -2.049498,-0.290927 -3.104204,-0.407727 l 0.578776,-0.905888 h 5.17e-4 c 1.083473,0.11696 2.146472,0.254555 3.186886,0.411345 l 0.1757,-0.229444 c -1.048082,-0.15988 -2.119472,-0.300222 -3.211174,-0.419612 L 27.737325,5.847704 27.525969,5.635831 26.900684,6.6150988 h -5.18e-4 c -0.378762,-0.0398 -0.760107,-0.0773 -1.143599,-0.112137 L 26.26713,5.537646 26.003063,5.377449 25.42377,6.4735058 c -0.370512,-0.0321 -0.743117,-0.06158 -1.117761,-0.08888 L 24.758695,5.353164 Z m -0.280603,1.4169678 c 0.367726,0.0265 0.733351,0.0552 1.097091,0.0863 l -0.481108,0.909505 c -0.336891,-0.0302 -0.675595,-0.05855 -1.015958,-0.08475 z m 1.429887,0.115238 h 5.17e-4 c 0.375321,0.0336 0.748527,0.07 1.119311,0.108521 l -0.578259,0.904854 c -0.339136,-0.0361 -0.68023,-0.0702 -1.023193,-0.102319 z" />
     <ellipse
   style="fill:#ff6e6e;fill-opacity:{{overflow_left}}"
   id="LED_LEFT"
   cx="31.623201"
   cy="8.0497503"
   rx="0.68727291"
   ry="0.70254564" />
     <ellipse
   style="fill:#ff6e6e;fill-opacity:{{overflow_right}}"
   id="LED_RIGHT"
   cx="65.971863"
   cy="8.0584459"
   rx="0.68727291"
   ry="0.70254564" />
</svg>
