<?xml version="1.0" encoding="UTF-8" standalone="no"?>
<!-- Created with Inkscape (http://www.inkscape.org/) -->

<svg
   width="67.73333mm"
   height="16.933332mm"
   viewBox="0 0 67.73333 16.933332"
   version="1.1"
   id="svg1"
   xml:space="preserve"
   xmlns="http://www.w3.org/2000/svg"
   xmlns:svg="http://www.w3.org/2000/svg"><defs
     id="defs1" /><rect
     style="fill:#ff0000;fill-opacity:1;stroke:none;stroke-width:0.529167;stroke-linejoin:round;stroke-miterlimit:0;stroke-opacity:0.635294"
     id="rect2"
     width="67.73333"
     height="16.933332"
     x="0"
     y="-2.7815501e-08" /><rect
     style="fill:#ffffff;fill-opacity:1;stroke:none;stroke-width:0.529167;stroke-linejoin:round;stroke-miterlimit:0;stroke-opacity:0.635294"
     id="rect1"
     width="1.5875"
     height="0.26458332"
     x="1.5875015"
     y="2.7821288" /><path
     id="rect3"
     style="fill:#ffffff;fill-opacity:1;stroke:none;stroke-width:0.529167;stroke-linejoin:round;stroke-miterlimit:0;stroke-opacity:0.635294"
     d="m 31.353125,2.1166717 v 0.66146 h -0.661458 v 0.26459 h 0.661458 v 0.66145 h 0.264583 v -0.66145 h 0.661459 v -0.26459 h -0.661459 v -0.66146 z" /><path
     id="text4"
     style="font-size:70.5556px;line-height:1.1;font-family:Moomycraft;-inkscape-font-specification:'Moomycraft, Normal';text-align:center;letter-spacing:0px;text-anchor:middle;fill:#ffffff;stroke-width:0.0161754;stroke-linejoin:round;stroke-miterlimit:0;stroke-opacity:0.635294"
     d="m 18.473266,2.6461817 c -0.03186,10e-4 -0.0648,0.004 -0.09922,0.009 l 0.03101,0.19585 c 0.09408,-0.0131 0.173384,-0.008 0.237711,0.0165 0.06433,0.0242 0.112698,0.0606 0.145211,0.10903 0.02698,0.0387 0.04304,0.0816 0.04858,0.12868 0.0048,0.047 -0.0017,0.0927 -0.01964,0.13694 -0.02282,0.0553 -0.06504,0.10234 -0.126608,0.14108 -0.0415,0.027 -0.0926,0.0461 -0.153479,0.0579 v 5.2e-4 c -0.0339,0.002 -0.06928,0.005 -0.105936,0.009 l 0.0217,0.20153 h 0.0031 v 10e-4 c 0.02491,-0.002 0.04969,-0.005 0.0739,-0.008 0.09476,-0.007 0.172704,-0.006 0.233577,0.003 0.07609,0.0125 0.1289,0.0338 0.158647,0.0636 0.0159,0.0153 0.02274,0.0313 0.02067,0.0486 -0.0035,0.027 -0.02021,0.0559 -0.05064,0.0863 -0.04842,0.0512 -0.120208,0.0905 -0.214974,0.11885 -0.09477,0.0277 -0.207062,0.034 -0.336414,0.0181 l -0.02584,0.19999 c 0.163938,0.02 0.30768,0.0105 0.431498,-0.0289 0.123819,-0.0394 0.219708,-0.0943 0.286804,-0.16485 0.06225,-0.0643 0.09746,-0.13338 0.106454,-0.2067 0.01037,-0.083 -0.01697,-0.15685 -0.08268,-0.22118 -0.03804,-0.0366 -0.09188,-0.0654 -0.161747,-0.0868 0.04634,-0.0464 0.08087,-0.0981 0.104387,-0.15554 0.03182,-0.0768 0.04362,-0.15507 0.03462,-0.23461 -0.0083,-0.0802 -0.03616,-0.15442 -0.0832,-0.22221 -0.05257,-0.0775 -0.127777,-0.13608 -0.22531,-0.17622 -0.07263,-0.0301 -0.156593,-0.0437 -0.252181,-0.0403 z m 5.152141,0.0724 c -0.06862,0 -0.131966,0.0227 -0.190686,0.0687 -0.05872,0.0453 -0.109809,0.10816 -0.152963,0.1881 -0.0757,0.14361 -0.117277,0.32191 -0.125057,0.53485 l -0.001,0.0341 c 0,0.19738 0.03552,0.36715 0.10697,0.51005 0.03891,0.0771 0.0859,0.13803 0.141077,0.1819 0.05518,0.044 0.116244,0.0667 0.183451,0.0687 h 0.0036 0.001 10e-4 v 5.1e-4 h -5.17e-4 v 5.2e-4 h 0.0016 c 0.06862,0 0.131966,-0.0224 0.190686,-0.0677 0.05872,-0.046 0.109809,-0.10919 0.152962,-0.18914 0.0757,-0.14361 0.117277,-0.32191 0.125057,-0.53485 l 0.0016,-0.0341 c 0,-0.19737 -0.03603,-0.36714 -0.107487,-0.51004 -0.03891,-0.0771 -0.0859,-0.13804 -0.141077,-0.18191 -0.05518,-0.044 -0.116245,-0.0667 -0.183451,-0.0687 h -0.0031 -0.0021 v -10e-4 z m -8.039303,0.0858 -0.65474,0.004 -0.02377,0.93638 0.117822,-0.0176 c 0.11133,-0.0169 0.203071,-0.015 0.275435,0.005 0.07236,0.0195 0.125247,0.0497 0.158647,0.0915 0.02919,0.0355 0.04356,0.0742 0.04289,0.11524 -6.93e-4,0.0418 -0.01675,0.081 -0.04806,0.11782 -0.03827,0.0445 -0.09723,0.0773 -0.17725,0.0982 -0.08002,0.0201 -0.182069,0.0205 -0.305924,0.001 l -0.03462,0.19689 c 0.164212,0.0257 0.302082,0.022 0.413412,-0.0114 0.111332,-0.0341 0.196318,-0.0853 0.254765,-0.15348 0.06331,-0.0751 0.09575,-0.15743 0.09715,-0.24649 0.0014,-0.0891 -0.02835,-0.1705 -0.08888,-0.24495 -0.04662,-0.0571 -0.11184,-0.10251 -0.195337,-0.13591 -0.0835,-0.0332 -0.184694,-0.0474 -0.304374,-0.0434 l 0.01344,-0.51056 0.460437,-0.002 z m -4.199227,0.0362 -0.0021,0.20412 0.451135,0.003 -0.360701,1.32705 0.196887,0.0532 0.395325,-1.45314 -0.09767,-0.12867 z m 12.237496,0.0816 h 0.001 0.0026 10e-4 c 0.05406,0.005 0.102666,0.0512 0.146244,0.13901 0.05659,0.11248 0.08475,0.25214 0.08475,0.41909 v 0.0248 0.005 c -0.0064,0.17898 -0.04058,0.32717 -0.102836,0.4439 -0.05235,0.099 -0.106705,0.14831 -0.163298,0.14831 h -0.0021 c -3.33e-4,-3e-5 -7.01e-4,3e-5 -0.001,0 h -0.001 c -0.05299,-0.005 -0.101712,-0.0517 -0.145728,-0.13901 -0.05659,-0.11248 -0.08475,-0.25214 -0.08475,-0.4191 v -0.0243 -0.005 c 0.0064,-0.17899 0.04058,-0.32666 0.102836,-0.44339 0.05203,-0.0984 0.10605,-0.14821 0.162264,-0.14882 z m -15.7633795,0.23151 -0.28577,0.33331 0.150895,0.12971 0.106453,-0.12299 -0.01964,1.22008 0.199988,0.003 0.02325,-1.49655 z m 0.764295,0.0269 c -0.06745,0 -0.129872,0.0225 -0.187586,0.0677 -0.05771,0.0445 -0.107958,0.10643 -0.150378,0.18501 -0.0744,0.14116 -0.115343,0.31625 -0.12299,0.52555 l -0.001,0.0331 c 0,0.194 0.03519,0.36131 0.10542,0.50178 0.03824,0.0758 0.08425,0.13515 0.138493,0.17828 0.05424,0.0432 0.114808,0.0662 0.180868,0.0682 h 0.0031 10e-4 5.17e-4 v 5.2e-4 h -5.17e-4 v 5.2e-4 h 0.0021 c 0.06745,0 0.129872,-0.0226 0.187585,-0.0672 0.05771,-0.0452 0.107959,-0.10694 0.150379,-0.18552 0.07441,-0.14115 0.115343,-0.31624 0.12299,-0.52555 l 0.001,-0.0336 c 0,-0.19401 -0.03519,-0.36131 -0.10542,-0.50178 -0.03824,-0.0758 -0.08477,-0.13515 -0.139009,-0.17828 -0.05424,-0.0432 -0.114291,-0.0657 -0.180351,-0.0677 h -0.0031 -0.0021 v -10e-4 z m -10e-4,0.2005 h 10e-4 0.0031 c 0.0531,0.005 0.101365,0.0501 0.144178,0.13643 0.05563,0.11056 0.0832,0.24775 0.0832,0.41186 v 0.0243 0.005 c -0.0063,0.17593 -0.04009,0.32141 -0.101286,0.43615 -0.05143,0.0973 -0.1046,0.14619 -0.160197,0.14624 h -5.17e-4 -0.0016 c -0.05285,-0.004 -0.101404,-0.05 -0.145211,-0.13694 -0.05563,-0.11057 -0.0832,-0.24776 -0.0832,-0.41186 v -0.0238 -0.005 c 0.0063,-0.17593 0.03958,-0.32142 0.100769,-0.43615 0.05114,-0.0967 0.104426,-0.14512 0.15968,-0.14573 z m 19.5946705,0.48059 c -0.03186,10e-4 -0.06532,0.004 -0.09974,0.009 l 0.03101,0.19637 c 0.09407,-0.0131 0.173378,-0.008 0.237712,0.0165 0.06433,0.0242 0.112697,0.0606 0.14521,0.10903 0.02698,0.0387 0.04356,0.0816 0.04909,0.12868 0.0048,0.047 -0.0017,0.0927 -0.01964,0.13694 -0.02283,0.0553 -0.06505,0.10234 -0.126607,0.14108 -0.0415,0.027 -0.09312,0.0461 -0.153996,0.0579 v 5.2e-4 c -0.03389,0.002 -0.06876,0.005 -0.10542,0.009 l 0.0217,0.20153 h 0.0031 v 0.001 c 0.0249,-0.002 0.04917,-0.005 0.07338,-0.008 0.09476,-0.007 0.172704,-0.006 0.233578,0.003 0.07609,0.0125 0.1289,0.0338 0.158646,0.0636 0.0159,0.0153 0.02274,0.0313 0.02067,0.0486 -0.0035,0.027 -0.02021,0.0559 -0.05064,0.0863 -0.04842,0.0512 -0.120208,0.091 -0.214974,0.11937 -0.09477,0.0277 -0.206545,0.0335 -0.335897,0.0176 l -0.02584,0.19999 c 0.163939,0.02 0.30768,0.0105 0.431498,-0.0289 0.123818,-0.0394 0.21919,-0.0943 0.286288,-0.16485 0.06225,-0.0643 0.09798,-0.13338 0.10697,-0.2067 0.01037,-0.083 -0.01749,-0.15685 -0.0832,-0.22118 -0.03805,-0.0367 -0.09188,-0.0653 -0.161747,-0.0868 0.04634,-0.0463 0.08138,-0.0987 0.104903,-0.15606 0.03182,-0.0768 0.0431,-0.15455 0.03411,-0.23409 -0.0083,-0.0802 -0.03564,-0.15443 -0.08268,-0.22221 -0.05257,-0.0775 -0.127776,-0.13609 -0.225309,-0.17622 -0.07263,-0.0301 -0.156594,-0.0437 -0.252181,-0.0403 z m -24.8729015,0.12609 c -0.0649,0.004 -0.127549,0.0242 -0.188102,0.0594 -0.0688,0.0407 -0.123611,0.10083 -0.164331,0.18087 -0.04002,0.08 -0.05464,0.17953 -0.04341,0.29817 l 0.200504,-0.0191 c -0.0063,-0.0737 6.45e-4,-0.13432 0.0217,-0.18138 0.02177,-0.0477 0.05201,-0.083 0.08992,-0.10542 0.04213,-0.0237 0.08496,-0.0335 0.129191,-0.0295 0.04072,0.004 0.07494,0.0202 0.102319,0.0496 0.02391,0.0252 0.03736,0.0621 0.04082,0.11059 0.0042,0.0484 -0.0069,0.10855 -0.03359,0.18087 -0.04493,0.11444 -0.105708,0.22604 -0.182935,0.33486 -0.07723,0.10811 -0.15911,0.21409 -0.245463,0.31729 -0.05827,0.0716 -0.112417,0.13953 -0.162264,0.20413 l 0.07906,0.16226 0.624251,0.0103 0.0031,-0.20103 -0.421163,-0.008 c 0.01123,-0.014 0.02236,-0.0275 0.03359,-0.0408 0.09057,-0.10953 0.177606,-0.22245 0.260449,-0.339 0.08284,-0.11724 0.149768,-0.24064 0.201021,-0.37052 0.04072,-0.11304 0.05534,-0.2112 0.04341,-0.29404 -0.01193,-0.0836 -0.04218,-0.15115 -0.08992,-0.20308 -0.06389,-0.0675 -0.141276,-0.10566 -0.232544,-0.11473 -0.02211,-0.002 -0.044,-0.003 -0.06563,-0.002 z m 0.915707,0.0119 c -0.0681,0 -0.131379,0.0226 -0.189653,0.0682 -0.05828,0.0449 -0.109108,0.10723 -0.151928,0.18655 -0.07512,0.14252 -0.116304,0.3194 -0.124024,0.53072 l -10e-4,0.0336 c 0,0.19587 0.03554,0.36462 0.106453,0.50643 0.03861,0.0766 0.08528,0.13688 0.140043,0.18035 0.05476,0.0437 0.115206,0.0662 0.181901,0.0682 h 0.0031 0.001 10e-4 v 5.2e-4 5.2e-4 h 0.001 c 0.0681,0 0.13138,-0.0223 0.189653,-0.0672 0.05827,-0.0456 0.109102,-0.10825 0.151929,-0.18759 0.07512,-0.14252 0.116303,-0.3194 0.124023,-0.53071 l 0.001,-0.0341 c 0,-0.19587 -0.03555,-0.36462 -0.106454,-0.50643 -0.03861,-0.0766 -0.08528,-0.13637 -0.140043,-0.17983 -0.05476,-0.0436 -0.115205,-0.0667 -0.181901,-0.0687 h -0.0031 -0.0026 v -5.2e-4 z m -0.001,0.20205 h 5.17e-4 5.17e-4 0.0021 0.001 5.17e-4 c 0.05333,0.005 0.10165,0.0512 0.144694,0.13798 0.05617,0.11163 0.08423,0.25031 0.08423,0.416 v 0.0243 0.005 c -0.0063,0.17762 -0.04054,0.32393 -0.10232,0.43977 -0.05195,0.0983 -0.106097,0.14779 -0.162264,0.14779 h -0.0021 c -0.05336,-0.004 -0.102017,-0.0502 -0.146244,-0.13797 -0.05617,-0.11163 -0.08423,-0.25031 -0.08423,-0.416 v -0.0243 -0.005 c 0.0063,-0.17762 0.04054,-0.32394 0.10232,-0.43977 0.05179,-0.098 0.105252,-0.14749 0.16123,-0.1478 z m 14.2559785,0.63769 -0.254765,0.0109 -0.15658,2.44482 c -0.303127,-0.003 -0.607126,-0.005 -0.912089,-0.005 -0.142154,0 -0.284051,3.5e-4 -0.425814,0.001 l -0.07183,-2.42983 -0.260966,-0.0119 0.07906,2.44326 c -0.317463,0.002 -0.63391,0.007 -0.949296,0.0124 l -0.309025,-2.42827 -0.253215,0.017 0.286288,2.41691 c -0.363072,0.008 -0.724568,0.0177 -1.084688,0.03 l -0.489893,-2.41588 -0.268201,0.0439 0.483692,2.38177 c -0.326328,0.0121 -0.651399,0.0261 -0.975135,0.0419 h -5.16e-4 l -0.682646,-2.34869 -0.276986,0.0605 0.669727,2.3027 c -0.884031,0.046 -1.757838,0.10565 -2.620512,0.17777 l -1.1332645,-2.25361 -0.274402,0.15555 1.069185,2.127 c -1.120566,0.0984 -2.222121,0.21857 -3.30109,0.35915 h -5.17e-4 l -1.580265,-2.03708 -0.216008,0.21549 1.449008,1.86758 c -0.74491,0.10056 -1.478988,0.21088 -2.201417,0.33073 l 0.213424,0.22169 c 4.06011,-0.6638 8.4891915,-1.02939 13.1252975,-1.02939 4.297393,0 8.416607,0.31428 12.229228,0.88883 l 0.1757,-0.22944 c -1.013805,-0.15464 -2.049498,-0.29093 -3.104204,-0.40773 l 0.578777,-0.90588 h 5.16e-4 c 1.083473,0.11696 2.146472,0.25455 3.186886,0.41134 l 0.1757,-0.22944 c -1.048082,-0.15988 -2.119472,-0.30023 -3.211174,-0.41962 l 0.51263,-0.80201 -0.211356,-0.21188 -0.625285,0.97927 h -5.17e-4 c -0.378762,-0.0398 -0.760107,-0.0773 -1.143599,-0.11214 l 0.510563,-0.96531 -0.264067,-0.1602 -0.579292,1.09606 c -0.370512,-0.0321 -0.743118,-0.0616 -1.117762,-0.0889 l 0.452686,-1.03146 -0.27957,-0.14004 -0.503845,1.14773 c -0.382851,-0.0264 -0.76809,-0.05 -1.154968,-0.0713 l 0.357601,-1.08676 -0.284737,-0.18086 -0.791167,2.40553 h -5.16e-4 c -0.317646,-0.018 -0.636794,-0.0341 -0.957048,-0.0486 l 0.599447,-2.4443 -0.317293,-0.003 -0.620118,2.43241 c -0.361105,-0.0149 -0.723588,-0.0278 -1.087789,-0.0382 l 0.3514,-2.36471 -0.295072,-0.0584 -0.335897,2.41536 c -0.352692,-0.009 -0.706554,-0.0159 -1.061951,-0.0207 z m 4.221964,1.69809 c 0.378242,0.0206 0.754226,0.0438 1.128613,0.0693 l -0.399458,0.9095 c -0.34135,-0.0249 -0.684252,-0.0473 -1.028878,-0.0682 z m 1.459859,0.0925 c 0.367726,0.0265 0.733351,0.0552 1.097091,0.0863 l -0.481108,0.90951 c -0.336891,-0.0302 -0.675595,-0.0586 -1.015958,-0.0848 z m 1.429887,0.11524 h 5.17e-4 c 0.375321,0.0336 0.748528,0.07 1.119312,0.10852 l -0.57826,0.90485 c -0.339136,-0.0361 -0.68023,-0.0702 -1.023193,-0.10232 z M 17.193309,21.944312 a 0.13229166,0.13229166 0 0 0 -0.132291,0.13229 0.13229166,0.13229166 0 0 0 0.132291,0.13229 0.13229166,0.13229166 0 0 0 0.132292,-0.13229 0.13229166,0.13229166 0 0 0 -0.132292,-0.13229 z" /><path
     style="baseline-shift:baseline;display:inline;overflow:visible;vector-effect:none;fill:#ffffff;fill-opacity:1;stroke-width:1.00028;stroke-linejoin:round;stroke-miterlimit:0;enable-background:accumulate;stop-color:#000000"
     d="m 31.617709,7.1437517 c -0.510016,0 -0.926042,0.41603 -0.926042,0.92605 0,0.51001 0.416026,0.92799 0.926042,0.92799 0.510015,0 0.926041,-0.41798 0.926041,-0.92799 0,-0.51002 -0.416026,-0.92605 -0.926041,-0.92605 z m 0,0.2657 c 0.0477,0 0.04119,0.0765 0.08596,0.0859 -0.14651,0.0586 -0.304771,0.13648 -0.304773,0.30281 -6e-6,0.2177 0.180864,0.3966 0.398549,0.39661 0.166214,-10e-6 0.244094,-0.15649 0.302821,-0.30283 0.03867,0.0842 0.179737,0.0786 0.179737,0.17779 0,0.36698 -0.295312,0.66229 -0.662295,0.66229 -0.366984,0 -0.662297,-0.29531 -0.662296,-0.66229 -10e-7,-0.36699 0.295312,-0.66035 0.662296,-0.66035 z m 0.179737,0.25594 c 0.07465,0 0.130896,0.0582 0.130897,0.13284 2e-6,0.0746 -0.05625,0.13285 -0.130897,0.13285 -0.07465,0 -0.132851,-0.0582 -0.132849,-0.13285 1e-6,-0.0746 0.0582,-0.13284 0.132849,-0.13284 z"
     id="path29" /><rect
     style="fill:#ffffff;fill-opacity:1;stroke:none;stroke-width:0.529167;stroke-linejoin:round;stroke-miterlimit:0;stroke-opacity:0.635294"
     id="rect4"
     width="1.5875"
     height="0.26458332"
     x="35.983334"
     y="2.6458282" /><path
     id="path4"
     style="fill:#ffffff;fill-opacity:1;stroke:none;stroke-width:0.529167;stroke-linejoin:round;stroke-miterlimit:0;stroke-opacity:0.635294"
     d="m 65.748956,2.1166717 v 0.66146 h -0.661458 v 0.26459 h 0.661458 v 0.66145 h 0.264583 v -0.66145 h 0.661459 v -0.26459 h -0.661459 v -0.66146 z" /><path
     id="path5"
     style="font-size:70.5556px;line-height:1.1;font-family:Moomycraft;-inkscape-font-specification:'Moomycraft, Normal';text-align:center;letter-spacing:0px;text-anchor:middle;fill:#ffffff;stroke-width:0.0161754;stroke-linejoin:round;stroke-miterlimit:0;stroke-opacity:0.635294"
     d="m 52.869097,2.6461817 c -0.03186,10e-4 -0.0648,0.004 -0.09922,0.009 l 0.03101,0.19585 c 0.09408,-0.0131 0.173384,-0.008 0.237711,0.0165 0.06433,0.0242 0.112698,0.0606 0.145211,0.10903 0.02698,0.0387 0.04304,0.0816 0.04858,0.12868 0.0048,0.047 -0.0017,0.0927 -0.01964,0.13694 -0.02282,0.0553 -0.06504,0.10234 -0.126608,0.14108 -0.0415,0.027 -0.0926,0.0461 -0.153479,0.0579 v 5.2e-4 c -0.0339,0.002 -0.06928,0.005 -0.105936,0.009 l 0.0217,0.20153 h 0.0031 v 10e-4 c 0.02491,-0.002 0.04969,-0.005 0.0739,-0.008 0.09476,-0.007 0.172704,-0.006 0.233577,0.003 0.07609,0.0125 0.1289,0.0338 0.158647,0.0636 0.0159,0.0153 0.02274,0.0313 0.02067,0.0486 -0.0035,0.027 -0.02021,0.0559 -0.05064,0.0863 -0.04842,0.0512 -0.120208,0.0905 -0.214974,0.11885 -0.09477,0.0277 -0.207062,0.034 -0.336414,0.0181 l -0.02584,0.19999 c 0.163938,0.02 0.30768,0.0105 0.431498,-0.0289 0.123819,-0.0394 0.219708,-0.0943 0.286804,-0.16485 0.06225,-0.0643 0.09746,-0.13338 0.106454,-0.2067 0.01037,-0.083 -0.01697,-0.15685 -0.08268,-0.22118 -0.03804,-0.0366 -0.09188,-0.0654 -0.161747,-0.0868 0.04634,-0.0464 0.08087,-0.0981 0.104387,-0.15554 0.03182,-0.0768 0.04362,-0.15507 0.03462,-0.23461 -0.0083,-0.0802 -0.03616,-0.15442 -0.0832,-0.22221 -0.05257,-0.0775 -0.127777,-0.13608 -0.22531,-0.17622 -0.07263,-0.0301 -0.156593,-0.0437 -0.252181,-0.0403 z m 5.152141,0.0724 c -0.06862,0 -0.131966,0.0227 -0.190686,0.0687 -0.05872,0.0453 -0.109809,0.10816 -0.152963,0.1881 -0.0757,0.14361 -0.117277,0.32191 -0.125057,0.53485 l -10e-4,0.0341 c 0,0.19738 0.03552,0.36715 0.10697,0.51005 0.03891,0.0771 0.0859,0.13803 0.141077,0.1819 0.05518,0.044 0.116244,0.0667 0.183451,0.0687 h 0.0036 0.001 10e-4 v 5.1e-4 h -5.17e-4 v 5.2e-4 h 0.0016 c 0.06862,0 0.131966,-0.0224 0.190686,-0.0677 0.05872,-0.046 0.109809,-0.10919 0.152962,-0.18914 0.0757,-0.14361 0.117277,-0.32191 0.125057,-0.53485 l 0.0016,-0.0341 c 0,-0.19737 -0.03603,-0.36714 -0.107487,-0.51004 -0.03891,-0.0771 -0.0859,-0.13804 -0.141077,-0.18191 -0.05518,-0.044 -0.116245,-0.0667 -0.183451,-0.0687 h -0.0031 -0.0021 v -10e-4 z m -8.039303,0.0858 -0.65474,0.004 -0.02377,0.93638 0.117822,-0.0176 c 0.11133,-0.0169 0.203071,-0.015 0.275435,0.005 0.07236,0.0195 0.125247,0.0497 0.158647,0.0915 0.02919,0.0355 0.04356,0.0742 0.04289,0.11524 -6.93e-4,0.0418 -0.01675,0.081 -0.04806,0.11782 -0.03827,0.0445 -0.09723,0.0773 -0.17725,0.0982 -0.08002,0.0201 -0.182069,0.0205 -0.305924,0.001 l -0.03462,0.19689 c 0.164212,0.0257 0.302082,0.022 0.413412,-0.0114 0.111332,-0.0341 0.196318,-0.0853 0.254765,-0.15348 0.06331,-0.0751 0.09575,-0.15743 0.09715,-0.24649 0.0014,-0.0891 -0.02835,-0.1705 -0.08888,-0.24495 -0.04662,-0.0571 -0.11184,-0.10251 -0.195337,-0.13591 -0.0835,-0.0332 -0.184694,-0.0474 -0.304374,-0.0434 l 0.01344,-0.51056 0.460437,-0.002 z m -4.199227,0.0362 -0.0021,0.20412 0.451135,0.003 -0.360701,1.32705 0.196887,0.0532 0.395325,-1.45314 -0.09767,-0.12867 z m 12.237496,0.0816 h 10e-4 0.0026 0.001 c 0.05406,0.005 0.102666,0.0512 0.146244,0.13901 0.05659,0.11248 0.08475,0.25214 0.08475,0.41909 v 0.0248 0.005 c -0.0064,0.17898 -0.04058,0.32717 -0.102836,0.4439 -0.05235,0.099 -0.106705,0.14831 -0.163298,0.14831 h -0.0021 c -3.33e-4,-3e-5 -7.01e-4,3e-5 -10e-4,0 h -0.001 c -0.05299,-0.005 -0.101712,-0.0517 -0.145728,-0.13901 -0.05659,-0.11248 -0.08475,-0.25214 -0.08475,-0.4191 v -0.0243 -0.005 c 0.0064,-0.17899 0.04058,-0.32666 0.102836,-0.44339 0.05203,-0.0984 0.10605,-0.14821 0.162264,-0.14882 z m -15.763379,0.23151 -0.28577,0.33331 0.150895,0.12971 0.106453,-0.12299 -0.01964,1.22008 0.199988,0.003 0.02325,-1.49655 z m 0.764295,0.0269 c -0.06745,0 -0.129872,0.0225 -0.187586,0.0677 -0.05771,0.0445 -0.107958,0.10643 -0.150378,0.18501 -0.0744,0.14116 -0.115343,0.31625 -0.12299,0.52555 l -0.001,0.0331 c 0,0.194 0.03519,0.36131 0.10542,0.50178 0.03824,0.0758 0.08425,0.13515 0.138493,0.17828 0.05424,0.0432 0.114808,0.0662 0.180868,0.0682 h 0.0031 0.001 5.17e-4 v 5.2e-4 h -5.17e-4 v 5.2e-4 h 0.0021 c 0.06745,0 0.129872,-0.0226 0.187585,-0.0672 0.05771,-0.0452 0.107959,-0.10694 0.150379,-0.18552 0.07441,-0.14115 0.115343,-0.31624 0.12299,-0.52555 l 10e-4,-0.0336 c 0,-0.19401 -0.03519,-0.36131 -0.10542,-0.50178 -0.03824,-0.0758 -0.08477,-0.13515 -0.139009,-0.17828 -0.05424,-0.0432 -0.114291,-0.0657 -0.180351,-0.0677 h -0.0031 -0.0021 v -10e-4 z m -0.001,0.2005 h 0.001 0.0031 c 0.0531,0.005 0.101365,0.0501 0.144178,0.13643 0.05563,0.11056 0.0832,0.24775 0.0832,0.41186 v 0.0243 0.005 c -0.0063,0.17593 -0.04009,0.32141 -0.101286,0.43615 -0.05143,0.0973 -0.1046,0.14619 -0.160197,0.14624 h -5.17e-4 -0.0016 c -0.05285,-0.004 -0.101404,-0.05 -0.145211,-0.13694 -0.05563,-0.11057 -0.0832,-0.24776 -0.0832,-0.41186 v -0.0238 -0.005 c 0.0063,-0.17593 0.03958,-0.32142 0.100769,-0.43615 0.05114,-0.0967 0.104426,-0.14512 0.15968,-0.14573 z m 19.59467,0.48059 c -0.03186,10e-4 -0.06532,0.004 -0.09974,0.009 l 0.03101,0.19637 c 0.09407,-0.0131 0.173378,-0.008 0.237712,0.0165 0.06433,0.0242 0.112697,0.0606 0.14521,0.10903 0.02698,0.0387 0.04356,0.0816 0.04909,0.12868 0.0048,0.047 -0.0017,0.0927 -0.01964,0.13694 -0.02283,0.0553 -0.06505,0.10234 -0.126607,0.14108 -0.0415,0.027 -0.09312,0.0461 -0.153996,0.0579 v 5.2e-4 c -0.03389,0.002 -0.06876,0.005 -0.10542,0.009 l 0.0217,0.20153 h 0.0031 v 0.001 c 0.0249,-0.002 0.04917,-0.005 0.07338,-0.008 0.09476,-0.007 0.172704,-0.006 0.233578,0.003 0.07609,0.0125 0.1289,0.0338 0.158646,0.0636 0.0159,0.0153 0.02274,0.0313 0.02067,0.0486 -0.0035,0.027 -0.02021,0.0559 -0.05064,0.0863 -0.04842,0.0512 -0.120208,0.091 -0.214974,0.11937 -0.09477,0.0277 -0.206545,0.0335 -0.335897,0.0176 l -0.02584,0.19999 c 0.163939,0.02 0.30768,0.0105 0.431498,-0.0289 0.123818,-0.0394 0.21919,-0.0943 0.286288,-0.16485 0.06225,-0.0643 0.09798,-0.13338 0.10697,-0.2067 0.01037,-0.083 -0.01749,-0.15685 -0.0832,-0.22118 -0.03805,-0.0367 -0.09188,-0.0653 -0.161747,-0.0868 0.04634,-0.0463 0.08138,-0.0987 0.104903,-0.15606 0.03182,-0.0768 0.0431,-0.15455 0.03411,-0.23409 -0.0083,-0.0802 -0.03564,-0.15443 -0.08268,-0.22221 -0.05257,-0.0775 -0.127776,-0.13609 -0.225309,-0.17622 -0.07263,-0.0301 -0.156594,-0.0437 -0.252181,-0.0403 z m -24.872901,0.12609 c -0.0649,0.004 -0.127549,0.0242 -0.188102,0.0594 -0.0688,0.0407 -0.123611,0.10083 -0.164331,0.18087 -0.04002,0.08 -0.05464,0.17953 -0.04341,0.29817 l 0.200504,-0.0191 c -0.0063,-0.0737 6.45e-4,-0.13432 0.0217,-0.18138 0.02177,-0.0477 0.05201,-0.083 0.08992,-0.10542 0.04213,-0.0237 0.08496,-0.0335 0.129191,-0.0295 0.04072,0.004 0.07494,0.0202 0.102319,0.0496 0.02391,0.0252 0.03736,0.0621 0.04082,0.11059 0.0042,0.0484 -0.0069,0.10855 -0.03359,0.18087 -0.04493,0.11444 -0.105708,0.22604 -0.182935,0.33486 -0.07723,0.10811 -0.15911,0.21409 -0.245463,0.31729 -0.05827,0.0716 -0.112417,0.13953 -0.162264,0.20413 l 0.07906,0.16226 0.624251,0.0103 0.0031,-0.20103 -0.421163,-0.008 c 0.01123,-0.014 0.02236,-0.0275 0.03359,-0.0408 0.09057,-0.10953 0.177606,-0.22245 0.260449,-0.339 0.08284,-0.11724 0.149768,-0.24064 0.201021,-0.37052 0.04072,-0.11304 0.05534,-0.2112 0.04341,-0.29404 -0.01193,-0.0836 -0.04218,-0.15115 -0.08992,-0.20308 -0.06389,-0.0675 -0.141276,-0.10566 -0.232544,-0.11473 -0.02211,-0.002 -0.044,-0.003 -0.06563,-0.002 z m 0.915707,0.0119 c -0.0681,0 -0.131379,0.0226 -0.189653,0.0682 -0.05828,0.0449 -0.109108,0.10723 -0.151928,0.18655 -0.07512,0.14252 -0.116304,0.3194 -0.124024,0.53072 l -0.001,0.0336 c 0,0.19587 0.03554,0.36462 0.106453,0.50643 0.03861,0.0766 0.08528,0.13688 0.140043,0.18035 0.05476,0.0437 0.115206,0.0662 0.181901,0.0682 h 0.0031 0.001 10e-4 v 5.2e-4 5.2e-4 h 10e-4 c 0.0681,0 0.13138,-0.0223 0.189653,-0.0672 0.05827,-0.0456 0.109102,-0.10825 0.151929,-0.18759 0.07512,-0.14252 0.116303,-0.3194 0.124023,-0.53071 l 10e-4,-0.0341 c 0,-0.19587 -0.03555,-0.36462 -0.106454,-0.50643 -0.03861,-0.0766 -0.08528,-0.13637 -0.140043,-0.17983 -0.05476,-0.0436 -0.115205,-0.0667 -0.181901,-0.0687 h -0.0031 -0.0026 v -5.2e-4 z m -10e-4,0.20205 h 5.17e-4 5.17e-4 0.0021 10e-4 5.17e-4 c 0.05333,0.005 0.10165,0.0512 0.144694,0.13798 0.05617,0.11163 0.08423,0.25031 0.08423,0.416 v 0.0243 0.005 c -0.0063,0.17762 -0.04054,0.32393 -0.10232,0.43977 -0.05195,0.0983 -0.106097,0.14779 -0.162264,0.14779 h -0.0021 c -0.05336,-0.004 -0.102017,-0.0502 -0.146244,-0.13797 -0.05617,-0.11163 -0.08423,-0.25031 -0.08423,-0.416 v -0.0243 -0.005 c 0.0063,-0.17762 0.04054,-0.32394 0.10232,-0.43977 0.05179,-0.098 0.105252,-0.14749 0.16123,-0.1478 z m 14.255978,0.63769 -0.254765,0.0109 -0.15658,2.44482 c -0.303127,-0.003 -0.607126,-0.005 -0.912089,-0.005 -0.142154,0 -0.284051,3.5e-4 -0.425814,0.001 l -0.07183,-2.42983 -0.260966,-0.0119 0.07906,2.44326 c -0.317463,0.002 -0.63391,0.007 -0.949296,0.0124 l -0.309025,-2.42827 -0.253215,0.017 0.286288,2.41691 c -0.363072,0.008 -0.724568,0.0177 -1.084688,0.03 l -0.489893,-2.41588 -0.268201,0.0439 0.483692,2.38177 c -0.326328,0.0121 -0.651399,0.0261 -0.975135,0.0419 h -5.16e-4 l -0.682646,-2.34869 -0.276986,0.0605 0.669727,2.3027 c -0.884031,0.046 -1.757838,0.10565 -2.620512,0.17777 l -1.133264,-2.25361 -0.274402,0.15555 1.069185,2.127 c -1.120566,0.0984 -2.222121,0.21857 -3.30109,0.35915 h -5.17e-4 l -1.580265,-2.03708 -0.216008,0.21549 1.449008,1.86758 c -0.74491,0.10056 -1.478988,0.21088 -2.201417,0.33073 l 0.213424,0.22169 c 4.06011,-0.6638 8.489191,-1.02939 13.125297,-1.02939 4.297393,0 8.416607,0.31428 12.229228,0.88883 l 0.1757,-0.22944 c -1.013805,-0.15464 -2.049498,-0.29093 -3.104204,-0.40773 l 0.578777,-0.90588 h 5.16e-4 c 1.083473,0.11696 2.146472,0.25455 3.186886,0.41134 l 0.1757,-0.22944 c -1.048082,-0.15988 -2.119472,-0.30023 -3.211174,-0.41962 l 0.51263,-0.80201 -0.211356,-0.21188 -0.625285,0.97927 h -5.17e-4 c -0.378762,-0.0398 -0.760107,-0.0773 -1.143599,-0.11214 l 0.510563,-0.96531 -0.264067,-0.1602 -0.579292,1.09606 c -0.370512,-0.0321 -0.743118,-0.0616 -1.117762,-0.0889 l 0.452686,-1.03146 -0.27957,-0.14004 -0.503845,1.14773 c -0.382851,-0.0264 -0.76809,-0.05 -1.154968,-0.0713 l 0.357601,-1.08676 -0.284737,-0.18086 -0.791167,2.40553 h -5.16e-4 c -0.317646,-0.018 -0.636794,-0.0341 -0.957048,-0.0486 l 0.599447,-2.4443 -0.317293,-0.003 -0.620118,2.43241 c -0.361105,-0.0149 -0.723588,-0.0278 -1.087789,-0.0382 l 0.3514,-2.36471 -0.295072,-0.0584 -0.335897,2.41536 c -0.352692,-0.009 -0.706554,-0.0159 -1.061951,-0.0207 z m 4.221964,1.69809 c 0.378242,0.0206 0.754226,0.0438 1.128613,0.0693 l -0.399458,0.9095 c -0.34135,-0.0249 -0.684252,-0.0473 -1.028878,-0.0682 z m 1.459859,0.0925 c 0.367726,0.0265 0.733351,0.0552 1.097091,0.0863 l -0.481108,0.90951 c -0.336891,-0.0302 -0.675595,-0.0586 -1.015958,-0.0848 z m 1.429887,0.11524 h 5.17e-4 c 0.375321,0.0336 0.748528,0.07 1.119312,0.10852 l -0.57826,0.90485 c -0.339136,-0.0361 -0.68023,-0.0702 -1.023193,-0.10232 z M 51.58914,21.944312 a 0.13229166,0.13229166 0 0 0 -0.132291,0.13229 0.13229166,0.13229166 0 0 0 0.132291,0.13229 0.13229166,0.13229166 0 0 0 0.132292,-0.13229 0.13229166,0.13229166 0 0 0 -0.132292,-0.13229 z" /><path
     style="baseline-shift:baseline;display:inline;overflow:visible;vector-effect:none;fill:#ffffff;fill-opacity:1;stroke-width:1.00028;stroke-linejoin:round;stroke-miterlimit:0;enable-background:accumulate;stop-color:#000000"
     d="m 66.01354,7.1437517 c -0.510016,0 -0.926042,0.41603 -0.926042,0.92605 0,0.51001 0.416026,0.92799 0.926042,0.92799 0.510015,0 0.926041,-0.41798 0.926041,-0.92799 0,-0.51002 -0.416026,-0.92605 -0.926041,-0.92605 z m 0,0.2657 c 0.0477,0 0.04119,0.0765 0.08596,0.0859 -0.14651,0.0586 -0.304771,0.13648 -0.304773,0.30281 -6e-6,0.2177 0.180864,0.3966 0.398549,0.39661 0.166214,-10e-6 0.244094,-0.15649 0.302821,-0.30283 0.03867,0.0842 0.179737,0.0786 0.179737,0.17779 0,0.36698 -0.295312,0.66229 -0.662295,0.66229 -0.366984,0 -0.662297,-0.29531 -0.662296,-0.66229 -10e-7,-0.36699 0.295312,-0.66035 0.662296,-0.66035 z m 0.179737,0.25594 c 0.07465,0 0.130896,0.0582 0.130897,0.13284 2e-6,0.0746 -0.05625,0.13285 -0.130897,0.13285 -0.07465,0 -0.132851,-0.0582 -0.132849,-0.13285 10e-7,-0.0746 0.0582,-0.13284 0.132849,-0.13284 z"
     id="path6" /><path
     id="path1"
     style="baseline-shift:baseline;display:inline;overflow:visible;opacity:1;vector-effect:none;fill:#ffffff;stroke-linecap:square;enable-background:accumulate;stop-color:#000000;stop-opacity:1"
     d="m 1.5937012,13.884941 v 0.275435 H 1.7306437 32.138607 32.275549 V 13.884941 H 32.138607 1.7306437 Z m 14.0973308,0.736389 -0.0078,0.12299 c -0.0015,0.02141 -0.0035,0.04108 -0.0036,0.06253 v 0.0015 c 0,0.370311 0.216274,0.698717 0.541053,0.926042 0.324779,0.227325 0.762768,0.361246 1.243851,0.361218 0.481082,2.8e-5 0.917523,-0.133893 1.242302,-0.361218 0.324779,-0.227325 0.541052,-0.555731 0.541052,-0.926042 v -0.0015 c -8.1e-5,-0.02145 -4.74e-4,-0.04112 -0.0021,-0.06253 l -0.0098,-0.12299 z m 0.301274,0.26355 h 2.94504 c -0.02937,0.23525 -0.137361,0.462088 -0.380856,0.632519 -0.272981,0.191069 -0.66089,0.314735 -1.091923,0.31471 -0.431033,2.5e-5 -0.818426,-0.123641 -1.091406,-0.31471 -0.243495,-0.170431 -0.351486,-0.397269 -0.380855,-0.632519 z" /><path
     id="path7"
     style="baseline-shift:baseline;display:inline;overflow:visible;opacity:1;vector-effect:none;fill:#ffffff;stroke-linecap:square;enable-background:accumulate;stop-color:#000000;stop-opacity:1"
     d="m 35.983334,13.884941 v 0.275435 h 0.138493 30.407963 0.136943 V 13.884941 H 66.52979 36.121827 Z m 14.097331,0.736389 -0.0078,0.12299 c -0.0015,0.02141 -0.0021,0.04108 -0.0021,0.06253 v 0.0015 c 0,0.370311 0.214206,0.698717 0.538985,0.926042 0.324779,0.227325 0.763286,0.361246 1.244369,0.361218 0.481082,2.8e-5 0.919072,-0.133893 1.243851,-0.361218 0.324779,-0.227325 0.538986,-0.555731 0.538986,-0.926042 v -0.0015 c 0,-0.02145 4.2e-5,-0.04112 -0.0016,-0.06253 l -0.0083,-0.12299 z m 0.300757,0.26355 h 2.945557 c -0.02937,0.23525 -0.137359,0.462088 -0.380855,0.632519 -0.27298,0.191069 -0.66089,0.314735 -1.091923,0.31471 -0.431033,2.5e-5 -0.818943,-0.123641 -1.091923,-0.31471 -0.243495,-0.170431 -0.351487,-0.397269 -0.380856,-0.632519 z" /><path
     style="font-weight:500;font-size:3.17243px;line-height:1.1;font-family:'TeX Gyre Chorus';-inkscape-font-specification:'TeX Gyre Chorus Medium';letter-spacing:0.0829469px;fill:#ffffff;stroke-width:0.0165229;stroke-linecap:square"
     d="m 16.170962,10.887449 -0.0349,-0.06028 c -0.206208,0.434627 -0.241104,0.453661 -0.786762,0.450489 h -0.599589 l 0.08566,-0.08248 c 0.168138,-0.155449 0.190345,-0.196691 0.269656,-0.526624 0.092,-0.393381 0.136415,-0.567864 0.177656,-0.6915887 0.04759,-0.133242 0.13007,-0.193518 0.263312,-0.193518 0.04124,0 0.06979,0 0.187173,0.0063 l 0.123724,-0.177615 c -0.06345,-0.0063 -0.09517,-0.0095 -0.139587,-0.0095 -0.06028,0 -0.114208,0.0063 -0.168139,0.01903 -0.08566,0.02221 -0.237932,0.130069 -0.36483,0.256966 -0.155449,0.1586217 -0.20938,0.3045537 -0.333105,0.8946257 -0.08566,0.406071 -0.168139,0.523451 -0.368002,0.523451 -0.02538,0 -0.06345,0 -0.09835,-0.0032 -0.04441,0.04441 -0.06345,0.06662 -0.111035,0.126897 l 0.310898,-0.0095 0.485382,0.01586 0.624969,0.02538 c 0.164966,0 0.23476,-0.0349 0.291864,-0.152277 0.03807,-0.07297 0.136414,-0.291864 0.184,-0.412416 z m 1.133021,0.209381 v -0.092 c -0.11738,0.09517 -0.342622,0.288691 -0.504416,0.288691 -0.177656,0 -0.193518,-0.190346 -0.190346,-0.31407 0.07297,-0.0349 0.383864,-0.269657 0.447313,-0.317243 0.11738,-0.09517 0.203035,-0.196691 0.203035,-0.345795 0,-0.10469 -0.06345,-0.184001 -0.180828,-0.184001 -0.114208,0 -0.212553,0.0571 -0.326761,0.145932 -0.279173,0.215725 -0.377519,0.571037 -0.377519,0.869245 0,0.193519 0.07931,0.329933 0.272829,0.329933 0.244277,0 0.526624,-0.250622 0.656693,-0.380692 z m -0.279174,-0.69159 c 0,0.228415 -0.260139,0.358484 -0.412416,0.475864 0.01269,-0.158621 0.133243,-0.609106 0.314071,-0.609106 0.06979,0 0.09835,0.06345 0.09835,0.133242 z m 1.945164,-1.1103504 c -0.06345,-0.01586 -0.08883,-0.01903 -0.152276,-0.01903 -0.190346,0 -0.323588,0.06979 -0.536141,0.2760007 -0.177656,0.171311 -0.218898,0.266484 -0.342622,0.7931077 h -0.266485 c -0.01903,0.01269 -0.03807,0.02538 -0.04441,0.02855 l -0.06979,0.03807 c -0.01269,0.0063 -0.03807,0.01903 -0.06345,0.0349 h 0.418761 l -0.130069,0.555176 c -0.190346,0.872418 -0.263312,1.015177 -0.532969,1.015177 -0.04441,0 -0.08248,-0.0032 -0.168138,-0.01586 -0.03172,0.04759 -0.04124,0.06345 -0.06345,0.092 -0.02538,0.0349 -0.05393,0.06979 -0.07931,0.107862 0.06979,0.0095 0.10469,0.01269 0.155449,0.01269 0.10469,0 0.187173,-0.01586 0.237932,-0.04441 0.092,-0.05076 0.253794,-0.206208 0.33945,-0.317243 0.09835,-0.133242 0.212553,-0.406071 0.285519,-0.694762 l 0.187175,-0.710637 h 0.282346 l 0.130069,-0.101517 -0.199863,-0.0032 -0.187173,0.0032 c 0.206208,-0.8057977 0.253794,-0.9041424 0.440968,-0.9041424 0.05393,0 0.09517,0.0063 0.212553,0.02538 z m 0.527086,1.8178024 0.0063,-0.07931 c -0.241104,0.142759 -0.342622,0.196691 -0.387036,0.196691 -0.04124,0 -0.092,-0.08248 -0.092,-0.149105 0,-0.04441 0.05393,-0.288691 0.136414,-0.621796 0.04441,-0.0032 0.07614,-0.0032 0.092,-0.0032 l 0.126898,-0.0032 c 0.01269,0 0.04441,-0.0032 0.09517,-0.0095 l 0.120552,-0.092 H 19.18929 l 0.126897,-0.5139327 c -0.06028,0.03172 -0.08566,0.04124 -0.133242,0.06345 -0.02221,0.01269 -0.04759,0.02221 -0.07297,0.0349 -0.01269,0.0063 -0.02855,0.01269 -0.04441,0.01903 l -0.08883,0.3965527 c -0.02855,0.0032 -0.04759,0.0032 -0.0571,0.0032 h -0.07614 c 0,0 -0.02221,0 -0.04759,0.0032 -0.0349,0.02221 -0.03807,0.02221 -0.092,0.06662 -0.0095,0.0063 -0.02538,0.01904 -0.04759,0.0349 h 0.07614 0.145932 0.06979 c -0.168139,0.70428 -0.168139,0.70428 -0.168139,0.802625 0,0.101518 0.06662,0.212553 0.126897,0.212553 0.06979,0 0.285519,-0.133242 0.590072,-0.361657 z"
     id="text11"
     aria-label="Left" /><path
     style="font-weight:500;font-size:3.17243px;line-height:1.1;font-family:'TeX Gyre Chorus';-inkscape-font-specification:'TeX Gyre Chorus Medium';letter-spacing:0.0829469px;fill:#ffffff;stroke-width:0.0165229;stroke-linecap:square"
     d="m 50.432676,11.759867 -0.155449,-0.193518 c -0.101517,0.187174 -0.190346,0.260139 -0.31407,0.260139 -0.149104,0 -0.291864,-0.158621 -0.421933,-0.472692 -0.08248,-0.19669 -0.180829,-0.491726 -0.310899,-0.904142 0.180829,-0.0571 0.253795,-0.092 0.35214,-0.155449 0.149104,-0.101518 0.23476,-0.24745 0.23476,-0.3997257 0,-0.196691 -0.158622,-0.304554 -0.447313,-0.304554 l -0.184001,0.0063 0.02538,-0.101518 -0.288691,0.136415 c -0.520279,0.08883 -0.79628,0.329933 -0.79628,0.7011067 0,0.08248 0.0095,0.136414 0.04441,0.253794 l 0.266484,-0.136414 c -0.02538,-0.107863 -0.0349,-0.161794 -0.0349,-0.23476 0,-0.152277 0.04759,-0.2728287 0.145932,-0.3648287 0.08883,-0.07931 0.177656,-0.114208 0.380692,-0.139587 l -0.02855,0.114207 -0.05393,0.2220697 -0.158621,0.628141 c -0.133242,0.536141 -0.218898,0.618624 -0.631314,0.615452 l -0.123725,0.139587 0.187174,0.0032 c 0.164966,0 0.450485,-0.0063 0.545658,-0.01269 l 0.23476,-0.120552 -0.418761,-0.0095 c 0.358484,-0.358485 0.377519,-0.387037 0.479037,-0.789935 l 0.0063,-0.0032 c 0.0349,-0.0032 0.05393,0.02538 0.07297,0.10469 0.120552,0.529796 0.225242,0.831177 0.355312,1.024695 0.136414,0.203036 0.323588,0.301381 0.57421,0.301381 0.177656,0 0.285518,-0.03807 0.463174,-0.168139 z M 49.541224,9.9325483 c 0,0.1586207 -0.08566,0.3108977 -0.218898,0.3933807 -0.09517,0.0571 -0.171311,0.07931 -0.342623,0.101518 l 0.184001,-0.7423487 h 0.09835 c 0.19669,0 0.279174,0.07297 0.279174,0.24745 z m 1.23454,1.2150397 0.01269,-0.09517 c -0.155449,0.09517 -0.310898,0.174483 -0.33945,0.174483 -0.0349,0 -0.06028,-0.03807 -0.06028,-0.08883 0,-0.114207 0.03807,-0.23476 0.06662,-0.355312 l 0.09835,-0.402899 c 0.01586,-0.06662 0.04124,-0.168138 0.04124,-0.206208 0,-0.02538 -0.0095,-0.04124 -0.03807,-0.04124 -0.07297,0 -0.402899,0.215725 -0.498071,0.279174 l -0.0032,0.092 c 0.07297,-0.04124 0.187173,-0.11738 0.231587,-0.11738 0.0349,0 0.03807,0.0349 0.03807,0.06345 0,0.06979 -0.06979,0.304553 -0.104691,0.450485 -0.0349,0.145932 -0.092,0.295036 -0.092,0.437795 0,0.08248 0.03172,0.133242 0.08248,0.133242 0.05393,0 0.111035,-0.02855 0.295036,-0.149104 0.05076,-0.0349 0.07614,-0.05393 0.269657,-0.174484 z m 0.02221,-1.4720067 c -0.0571,-0.092 -0.06028,-0.101518 -0.092,-0.174484 -0.0032,-0.01269 -0.0095,-0.02855 -0.01586,-0.04124 -0.01903,0.01586 -0.03172,0.02538 -0.04441,0.0349 -0.08566,0.07297 -0.092,0.07614 -0.174484,0.133242 0.02538,0.07614 0.04759,0.114208 0.120553,0.222071 l 0.10469,-0.09517 c 0.01903,-0.01269 0.02855,-0.02221 0.101518,-0.07931 z m 1.370952,0.4568297 -0.368001,0.0063 c -0.193519,0.0032 -0.24745,0.01269 -0.342623,0.06979 -0.152277,0.09517 -0.260139,0.184001 -0.32676,0.269657 -0.09517,0.123724 -0.209381,0.507588 -0.209381,0.701107 0,0.07931 0.01904,0.136414 0.06979,0.206208 l -0.36483,0.31407 c -0.158621,0.139587 -0.231587,0.244277 -0.231587,0.333105 0,0.11738 0.139587,0.184001 0.380692,0.184001 0.291863,0 0.520278,-0.08248 0.732831,-0.266484 0.136414,-0.11738 0.168139,-0.184001 0.23476,-0.498071 l 0.158621,-0.713797 c 0.01269,-0.06979 0.02855,-0.13007 0.04124,-0.180829 l 0.04759,-0.177656 c 0.0063,-0.02855 0.01269,-0.05076 0.01586,-0.06979 0.0571,-0.01586 0.06028,-0.01586 0.161793,-0.177656 z m -0.682072,1.47518 c -0.04124,0.190346 -0.06979,0.263311 -0.126897,0.323588 -0.06979,0.07931 -0.199863,0.120552 -0.387037,0.120552 -0.206208,0 -0.317243,-0.0571 -0.317243,-0.158622 0,-0.130069 0.08566,-0.20938 0.967591,-0.885108 z m 0.472692,-1.300697 c -0.01586,0.01269 -0.0349,0.02855 -0.05076,0.03807 -0.101518,0.07297 -0.123725,0.101517 -0.152276,0.177656 l -0.104691,0.371174 c -0.06345,0.04124 -0.139587,0.09835 -0.406071,0.298208 -0.0571,-0.0571 -0.07931,-0.107862 -0.07931,-0.184001 0,-0.107862 0.07614,-0.383864 0.142759,-0.53614 0.06345,-0.13007 0.13007,-0.161794 0.361657,-0.161794 0.02221,0 0.06028,0 0.101518,-0.0032 h 0.08566 c 0.0349,0 0.06662,0 0.101518,0 z m 1.618402,0.812143 0.02221,-0.092 c -0.269656,0.158622 -0.31407,0.180829 -0.355312,0.180829 -0.02855,0 -0.04759,-0.03172 -0.04759,-0.08248 0,-0.06345 0.01903,-0.155449 0.07297,-0.361657 0.101518,-0.374346 0.152277,-0.567865 0.152277,-0.580554 0,-0.03172 -0.02538,-0.05393 -0.06662,-0.05393 -0.06662,0 -0.285519,0.120553 -0.682072,0.37752 l 0.107862,-0.425106 c 0.07614,-0.3108977 0.107863,-0.4092437 0.149104,-0.4885537 0.04441,-0.08883 0.111035,-0.1300697 0.196691,-0.1300697 0.04124,0 0.06662,0.0032 0.190346,0.02855 l 0.136406,-0.193523 c -0.0571,-0.01269 -0.08248,-0.01586 -0.130069,-0.01586 -0.174484,0 -0.266484,0.04759 -0.498072,0.2506217 -0.164966,0.145931 -0.190346,0.199863 -0.288691,0.6186227 l -0.304553,1.310214 0.225242,-0.092 0.187174,-0.739177 c 0.03172,-0.02221 0.06979,-0.04441 0.07614,-0.04759 0.218898,-0.139587 0.35214,-0.209381 0.387037,-0.209381 0.02221,0 0.03807,0.02221 0.03807,0.05076 0,0.03807 -0.01269,0.09835 -0.0571,0.269657 -0.09834,0.380692 -0.136415,0.564692 -0.136415,0.650348 0,0.03807 0.01269,0.07614 0.04759,0.136415 0.174484,-0.08883 0.402899,-0.23476 0.577382,-0.361657 z m 1.041022,-0.0063 0.0063,-0.07931 c -0.241105,0.142759 -0.342622,0.196691 -0.387036,0.196691 -0.04124,0 -0.092,-0.08248 -0.092,-0.149105 0,-0.04441 0.05393,-0.288691 0.136415,-0.621796 0.04441,-0.0032 0.07614,-0.0032 0.092,-0.0032 l 0.126897,-0.0032 c 0.01269,0 0.04441,-0.0032 0.09517,-0.0095 l 0.120553,-0.092 h -0.406071 l 0.126897,-0.5139327 c -0.06028,0.03172 -0.08566,0.04124 -0.133242,0.06345 -0.02221,0.01269 -0.04759,0.02221 -0.07297,0.0349 -0.01269,0.0063 -0.02855,0.01269 -0.04441,0.01903 l -0.08883,0.3965527 c -0.02855,0.0032 -0.04759,0.0032 -0.0571,0.0032 h -0.07614 c 0,0 -0.02221,0 -0.04759,0.0032 -0.0349,0.02221 -0.03807,0.02221 -0.092,0.06662 -0.0095,0.0063 -0.02538,0.01904 -0.04759,0.0349 h 0.07614 0.145931 0.06979 c -0.168139,0.70428 -0.168139,0.70428 -0.168139,0.802625 0,0.101518 0.06662,0.212553 0.126897,0.212553 0.06979,0 0.285519,-0.133242 0.590072,-0.361657 z"
     id="text12"
     aria-label="Right" /><path
     id="text13"
     style="font-size:1.71807px;line-height:1.1;font-family:mry_KacstQurn;-inkscape-font-specification:mry_KacstQurn;letter-spacing:0.0449207px;fill:#ffffff;stroke-width:0.00894824;stroke-linecap:square"
     d="m 25.498185,14.803748 v 1.305863 h 0.150895 v -0.47594 c 0,-0.107668 0.01904,-0.190263 0.05684,-0.24753 0.03894,-0.05841 0.109823,-0.08733 0.212907,-0.08733 0.137446,0 0.206189,0.07394 0.206189,0.221692 v 0.589111 h 0.149345 v -0.599447 c 0,-0.117974 -0.02811,-0.203628 -0.08423,-0.256315 -0.05612,-0.05383 -0.139935,-0.08061 -0.252181,-0.08061 -0.05956,0 -0.115375,0.01212 -0.166915,0.03617 -0.0504,0.02405 -0.09063,0.05949 -0.120406,0.106453 h -0.0098 c 0.0057,-0.04009 0.0083,-0.08286 0.0083,-0.128674 v -0.383439 z m -22.1464516,0.06201 c -0.1259918,0 -0.2327164,0.02678 -0.3209106,0.08062 -0.088194,0.05269 -0.155206,0.126625 -0.2010214,0.221691 -0.04467,0.09392 -0.067179,0.202894 -0.067179,0.326595 0,0.128283 0.020778,0.239798 0.062012,0.334864 0.042379,0.09507 0.1050062,0.168601 0.188619,0.220141 0.083613,0.05154 0.1877959,0.077 0.3126424,0.077 0.067577,0 0.1255268,-0.0039 0.1736328,-0.01189 0.049251,-0.008 0.096812,-0.02054 0.1426269,-0.03772 v -0.133842 c -0.045815,0.01375 -0.092454,0.02495 -0.1405598,0.03411 -0.048106,0.0092 -0.09913,0.01395 -0.1529623,0.01395 -0.1408817,0 -0.2467964,-0.0441 -0.31781,-0.132292 -0.069868,-0.08934 -0.1049032,-0.210433 -0.1049032,-0.362768 0,-0.153482 0.037576,-0.274058 0.1131714,-0.362252 0.075595,-0.08819 0.1793734,-0.132292 0.3110921,-0.132292 0.054978,0 0.1055966,0.0069 0.151412,0.02067 0.046961,0.01375 0.089327,0.02881 0.127124,0.04599 L 3.690214,14.938106 C 3.5940021,14.89 3.4811613,14.865759 3.3517334,14.865758 Z m 27.4887616,0 c -0.06987,0 -0.132089,0.0112 -0.187069,0.03411 -0.05497,0.02291 -0.09867,0.05621 -0.130741,0.09974 -0.03207,0.04238 -0.04806,0.09514 -0.04806,0.15813 0,0.07559 0.02078,0.138332 0.06201,0.187586 0.04238,0.04811 0.0934,0.08915 0.152963,0.123506 -0.04467,0.02062 -0.08663,0.04567 -0.125574,0.07545 -0.03894,0.02978 -0.07051,0.06522 -0.09457,0.106453 -0.02291,0.04124 -0.03411,0.09013 -0.03411,0.146245 0,0.10423 0.03544,0.185499 0.106453,0.243912 0.07101,0.05727 0.172139,0.08578 0.303857,0.08578 0.122556,0 0.22033,-0.02984 0.292489,-0.0894 0.0733,-0.06071 0.109554,-0.142379 0.109554,-0.245463 0,-0.05612 -0.01252,-0.104091 -0.03772,-0.144177 -0.02405,-0.04009 -0.05644,-0.07512 -0.09767,-0.104903 -0.04124,-0.03093 -0.08707,-0.05863 -0.137459,-0.08268 0.04238,-0.02177 0.08128,-0.04641 0.116788,-0.0739 0.03551,-0.02863 0.06362,-0.06102 0.08423,-0.09767 0.02176,-0.03665 0.03256,-0.07994 0.03256,-0.129191 0,-0.09507 -0.03463,-0.167681 -0.103353,-0.218074 -0.06872,-0.05039 -0.156918,-0.07545 -0.264583,-0.07545 z m 1.027844,0 c -0.06987,0 -0.132089,0.0112 -0.187069,0.03411 -0.05498,0.02291 -0.09867,0.05621 -0.130741,0.09974 -0.03207,0.04238 -0.04806,0.09514 -0.04806,0.15813 0,0.07559 0.02078,0.138332 0.06201,0.187586 0.04238,0.04811 0.0934,0.08915 0.152962,0.123506 -0.04467,0.02062 -0.08663,0.04567 -0.125574,0.07545 -0.03894,0.02978 -0.07051,0.06522 -0.09457,0.106453 -0.02291,0.04124 -0.03411,0.09013 -0.03411,0.146245 0,0.10423 0.03544,0.185499 0.106453,0.243912 0.07101,0.05727 0.172139,0.08578 0.303858,0.08578 0.122555,0 0.219812,-0.02984 0.291972,-0.0894 0.0733,-0.06071 0.11007,-0.142379 0.11007,-0.245463 0,-0.05612 -0.01252,-0.104091 -0.03772,-0.144177 -0.02405,-0.04009 -0.05695,-0.07512 -0.09819,-0.104903 -0.04124,-0.03093 -0.08707,-0.05863 -0.137459,-0.08268 0.04238,-0.02177 0.0818,-0.04641 0.117305,-0.0739 0.03551,-0.02863 0.0631,-0.06102 0.08372,-0.09767 0.02176,-0.03665 0.03307,-0.07994 0.03307,-0.129191 0,-0.09507 -0.03463,-0.167681 -0.103353,-0.218074 -0.06872,-0.05039 -0.156918,-0.07545 -0.264583,-0.07545 z m -30.1283935,0.01705 v 1.226799 h 0.1550293 v -0.47749 h 0.1405599 c 0.1225556,0 0.219408,-0.01864 0.2904215,-0.05529 0.072159,-0.03665 0.1231823,-0.08421 0.1529623,-0.142627 0.030925,-0.05956 0.046509,-0.123108 0.046509,-0.190686 0,-0.11454 -0.036766,-0.20314 -0.1100708,-0.266134 -0.073304,-0.06299 -0.190013,-0.09457 -0.3503662,-0.09457 z m 2.2153686,0 v 1.226799 h 0.1545126 v -0.47749 h 0.1410766 c 0.1225557,0 0.219408,-0.01864 0.2904216,-0.05529 0.072159,-0.03665 0.1226654,-0.08421 0.1524454,-0.142627 0.030925,-0.05956 0.046509,-0.123108 0.046509,-0.190686 0,-0.11454 -0.036766,-0.20314 -0.1100708,-0.266134 -0.073304,-0.06299 -0.190013,-0.09457 -0.3503662,-0.09457 z m 24.9364629,0.09457 -0.05995,0.195854 -0.132292,0.05994 v 0.07235 h 0.130742 v 0.535884 c 0,0.07445 0.01252,0.1324 0.03772,0.173633 0.0252,0.04123 0.05758,0.07067 0.09767,0.08785 0.04123,0.01603 0.08625,0.02377 0.134359,0.02377 0.02749,0 0.056,-0.0025 0.08578,-0.0083 0.02978,-0.0046 0.0527,-0.0111 0.06873,-0.01912 V 15.984 c -0.01489,0.0046 -0.03434,0.0094 -0.05839,0.01395 -0.02405,0.0035 -0.04789,0.0052 -0.0708,0.0052 -0.04238,0 -0.0769,-0.01345 -0.104386,-0.03979 -0.02635,-0.02749 -0.03979,-0.06894 -0.03979,-0.125057 v -0.532777 h 0.26614 V 15.188737 H 28.981177 V 14.97738 Z m 1.947167,0.01034 c 0.06643,0 0.119594,0.01558 0.159681,0.04651 0.04009,0.02978 0.06046,0.07296 0.06046,0.130225 0,0.06185 -0.02078,0.110738 -0.06201,0.146244 -0.04009,0.03551 -0.08979,0.06575 -0.149345,0.09095 -0.04124,-0.01833 -0.07933,-0.03685 -0.113688,-0.05633 -0.03437,-0.02062 -0.06155,-0.04526 -0.08216,-0.0739 -0.01947,-0.02863 -0.02946,-0.06459 -0.02946,-0.10697 0,-0.05727 0.02037,-0.100445 0.06046,-0.130225 0.04124,-0.03093 0.09307,-0.04651 0.156062,-0.04651 z m 1.027845,0 c 0.06643,0 0.119593,0.01558 0.15968,0.04651 0.04009,0.02978 0.05994,0.07296 0.05994,0.130225 0,0.06185 -0.02026,0.110738 -0.0615,0.146244 -0.04009,0.03551 -0.0903,0.06575 -0.149862,0.09095 -0.04124,-0.01833 -0.07881,-0.03685 -0.113171,-0.05633 -0.03437,-0.02062 -0.06207,-0.04526 -0.08268,-0.0739 -0.01947,-0.02863 -0.02894,-0.06459 -0.02894,-0.10697 0,-0.05727 0.01986,-0.100445 0.05994,-0.130225 0.04124,-0.03093 0.09359,-0.04651 0.15658,-0.04651 z m -29.9718142,0.02739 h 0.1560628 c 0.1088112,0 0.1883484,0.01946 0.2387451,0.0584 0.050397,0.03894 0.075964,0.09822 0.075964,0.17725 0,0.09048 -0.02903,0.154436 -0.0863,0.192236 -0.057269,0.0378 -0.1441372,0.05684 -0.260966,0.05684 H 1.8949748 Z m 2.2148519,0 h 0.1565795 c 0.1088112,0 0.1883485,0.01946 0.2387452,0.0584 0.050397,0.03894 0.075448,0.09822 0.075448,0.17725 0,0.09048 -0.028514,0.154436 -0.085783,0.192236 -0.057269,0.0378 -0.144654,0.05684 -0.2614828,0.05684 H 4.1098267 Z m 20.8069983,0.15658 c -0.103085,0 -0.18649,0.02118 -0.25063,0.06356 -0.06299,0.04238 -0.09457,0.102465 -0.09457,0.180351 0,0.05039 0.01172,0.09143 0.03462,0.123506 0.02291,0.03207 0.05529,0.05978 0.09767,0.08268 0.04238,0.02291 0.0934,0.04582 0.152963,0.06873 0.0607,0.02291 0.106936,0.04368 0.139009,0.06201 0.03321,0.01833 0.05613,0.03645 0.06873,0.05478 0.0126,0.01833 0.01912,0.0391 0.01912,0.06201 0,0.04123 -0.01732,0.07402 -0.05168,0.09922 -0.03436,0.02405 -0.08966,0.03617 -0.166398,0.03617 -0.05383,0 -0.107511,-0.0073 -0.160197,-0.02222 -0.05154,-0.01603 -0.09564,-0.03335 -0.132292,-0.05168 v 0.137459 c 0.03551,0.01833 0.07614,0.03259 0.121956,0.04289 0.04696,0.01031 0.102775,0.0155 0.166915,0.0155 0.112246,0 0.201768,-0.02292 0.268201,-0.06873 0.06643,-0.04582 0.09922,-0.113232 0.09922,-0.202572 0,-0.04925 -0.0108,-0.08988 -0.03256,-0.121956 -0.02176,-0.03321 -0.05334,-0.06133 -0.09457,-0.08423 -0.04124,-0.02291 -0.09093,-0.04542 -0.149345,-0.06718 -0.05841,-0.02291 -0.105053,-0.04236 -0.14056,-0.05839 -0.03436,-0.01718 -0.059,-0.03398 -0.0739,-0.05116 -0.01489,-0.01833 -0.02274,-0.04043 -0.02274,-0.06563 0,-0.03436 0.01599,-0.06114 0.04806,-0.08062 0.03321,-0.02061 0.08077,-0.03101 0.142627,-0.03101 0.04467,0 0.08836,0.0056 0.130741,0.01705 0.04238,0.01145 0.08302,0.02531 0.121957,0.04134 l 0.05168,-0.120406 c -0.04238,-0.01947 -0.08821,-0.03413 -0.137459,-0.04444 -0.04811,-0.01145 -0.10046,-0.01705 -0.15658,-0.01705 z m 3.237529,0 c -0.05823,7.1e-5 -0.113868,0.01219 -0.166398,0.03617 -0.05269,0.02291 -0.09373,0.05835 -0.123507,0.106454 h -0.0088 l -0.02222,-0.125574 h -0.121956 v 0.920874 h 0.150895 v -0.47749 c 0,-0.107668 0.01945,-0.190264 0.05839,-0.24753 0.03894,-0.05727 0.109418,-0.08578 0.211357,-0.08578 0.137445,0 0.206189,0.07394 0.206189,0.221692 v 0.589111 h 0.149345 v -0.599447 c 0,-0.11912 -0.0276,-0.205178 -0.08372,-0.257865 -0.05603,-0.05374 -0.139395,-0.08053 -0.24908,-0.08061 z m 1.684652,0 c -0.08133,0 -0.153128,0.01945 -0.214974,0.05839 -0.06071,0.03894 -0.108267,0.09424 -0.142627,0.166398 -0.03321,0.07216 -0.04961,0.158623 -0.04961,0.259416 0,0.101939 0.01812,0.188402 0.05478,0.259416 0.0378,0.06987 0.09015,0.122623 0.15658,0.158129 0.06758,0.03551 0.144461,0.05323 0.23151,0.05323 0.063,0 0.117484,-0.0052 0.163298,-0.0155 0.04582,-0.0092 0.09257,-0.02383 0.139526,-0.04444 v -0.132292 c -0.04811,0.02062 -0.09526,0.03661 -0.141076,0.04806 -0.04467,0.01031 -0.0961,0.0155 -0.154513,0.0155 -0.09163,0 -0.163434,-0.02678 -0.214974,-0.08061 -0.05042,-0.05498 -0.0768,-0.134515 -0.07906,-0.238745 h 0.630453 v -0.09147 c 0,-0.08362 -0.01507,-0.156228 -0.04599,-0.218074 -0.02978,-0.063 -0.07348,-0.111368 -0.130742,-0.145728 -0.05612,-0.03436 -0.12354,-0.05168 -0.202571,-0.05168 z m -3.244764,0.01705 v 0.603064 c 0,0.116828 0.02811,0.201965 0.08423,0.255798 0.05612,0.05269 0.139529,0.07906 0.250631,0.07906 0.05956,0 0.115778,-0.0108 0.168465,-0.03256 0.05269,-0.02291 0.09424,-0.05835 0.124023,-0.106453 h 0.0067 l 0.02222,0.121956 h 0.124023 v -0.920874 h -0.151411 v 0.479557 c 0,0.107668 -0.01986,0.189747 -0.05994,0.247014 -0.03894,0.05727 -0.109418,0.0863 -0.211357,0.0863 -0.1363,0 -0.204638,-0.07353 -0.204638,-0.220141 V 15.18873 Z m 3.242696,0.106453 c 0.07674,0 0.132959,0.02464 0.168466,0.0739 0.03552,0.04811 0.05416,0.11125 0.05529,0.189135 h -0.469222 c 0.008,-0.08247 0.03266,-0.146939 0.0739,-0.192753 0.04238,-0.04696 0.09941,-0.07028 0.171565,-0.07028 z m 0.978235,0.235645 0.02739,0.01033 c 0.07789,0.02978 0.140109,0.0643 0.187069,0.104387 0.04696,0.03894 0.0708,0.08823 0.0708,0.147794 0,0.063 -0.02251,0.114943 -0.06718,0.15503 -0.04352,0.03895 -0.107073,0.05839 -0.190686,0.05839 -0.08819,0 -0.153474,-0.01945 -0.195854,-0.05839 -0.04238,-0.04009 -0.06356,-0.0903 -0.06356,-0.149862 0,-0.063 0.01946,-0.11483 0.0584,-0.156063 0.04009,-0.04238 0.09804,-0.07955 0.173632,-0.111621 z m 1.027328,0 0.02739,0.01033 c 0.07789,0.02978 0.140626,0.0643 0.187586,0.104387 0.04696,0.03894 0.07028,0.08823 0.07028,0.147794 0,0.063 -0.02199,0.114943 -0.06666,0.15503 -0.04352,0.03895 -0.10759,0.05839 -0.191203,0.05839 -0.08819,0 -0.153473,-0.01945 -0.195853,-0.05839 -0.04238,-0.04009 -0.06356,-0.0903 -0.06356,-0.149862 0,-0.063 0.01997,-0.11483 0.05891,-0.156063 0.04009,-0.04238 0.09752,-0.07955 0.173116,-0.111621 z" /><path
     id="path15"
     style="font-size:1.71807px;line-height:1.1;font-family:mry_KacstQurn;-inkscape-font-specification:mry_KacstQurn;letter-spacing:0.0449207px;fill:#ffffff;stroke-width:0.00894824;stroke-linecap:square"
     d="m 59.89404,14.803748 v 1.305863 h 0.150895 v -0.47594 c 0,-0.107668 0.01904,-0.190263 0.05684,-0.24753 0.03894,-0.05841 0.109823,-0.08733 0.212907,-0.08733 0.137446,0 0.206189,0.07394 0.206189,0.221692 v 0.589111 h 0.149345 v -0.599447 c 0,-0.117974 -0.02811,-0.203628 -0.08423,-0.256315 -0.05612,-0.05383 -0.139935,-0.08061 -0.252181,-0.08061 -0.05956,0 -0.115375,0.01212 -0.166915,0.03617 -0.0504,0.02405 -0.09063,0.05949 -0.120406,0.106453 h -0.0098 c 0.0057,-0.04009 0.0083,-0.08286 0.0083,-0.128674 v -0.383439 z m -22.146456,0.06201 c -0.125991,0 -0.232716,0.02678 -0.32091,0.08062 -0.08819,0.05269 -0.155206,0.126625 -0.201022,0.221691 -0.04467,0.09392 -0.06718,0.202894 -0.06718,0.326595 0,0.128283 0.02078,0.239798 0.06201,0.334864 0.04238,0.09507 0.105006,0.168601 0.188619,0.220141 0.08361,0.05154 0.187796,0.077 0.312643,0.077 0.06758,0 0.125527,-0.0039 0.173633,-0.01189 0.04925,-0.008 0.09681,-0.02054 0.142627,-0.03772 v -0.133842 c -0.04582,0.01375 -0.09245,0.02495 -0.14056,0.03411 -0.04811,0.0092 -0.09913,0.01395 -0.152963,0.01395 -0.140881,0 -0.246796,-0.0441 -0.31781,-0.132292 -0.06987,-0.08934 -0.104903,-0.210433 -0.104903,-0.362768 0,-0.153482 0.03758,-0.274058 0.113171,-0.362252 0.07559,-0.08819 0.179374,-0.132292 0.311093,-0.132292 0.05498,0 0.105596,0.0069 0.151412,0.02067 0.04696,0.01375 0.08933,0.02881 0.127124,0.04599 l 0.06149,-0.130225 c -0.09621,-0.04811 -0.209049,-0.07235 -0.338477,-0.07235 z m 27.488766,0 c -0.06987,0 -0.132089,0.0112 -0.187069,0.03411 -0.05498,0.02291 -0.09867,0.05621 -0.130741,0.09974 -0.03207,0.04238 -0.04806,0.09514 -0.04806,0.15813 0,0.07559 0.02078,0.138332 0.06201,0.187586 0.04238,0.04811 0.0934,0.08915 0.152963,0.123506 -0.04467,0.02062 -0.08663,0.04567 -0.125574,0.07545 -0.03894,0.02978 -0.07052,0.06522 -0.09457,0.106453 -0.02291,0.04124 -0.03411,0.09013 -0.03411,0.146245 0,0.10423 0.03544,0.185499 0.106453,0.243912 0.07101,0.05727 0.172139,0.08578 0.303857,0.08578 0.122556,0 0.22033,-0.02984 0.292489,-0.0894 0.0733,-0.06071 0.109554,-0.142379 0.109554,-0.245463 0,-0.05612 -0.01252,-0.104091 -0.03772,-0.144177 -0.02405,-0.04009 -0.05644,-0.07512 -0.09767,-0.104903 -0.04124,-0.03093 -0.08707,-0.05863 -0.137459,-0.08268 0.04238,-0.02177 0.08128,-0.04641 0.116788,-0.0739 0.03551,-0.02863 0.06362,-0.06102 0.08423,-0.09767 0.02176,-0.03665 0.03256,-0.07994 0.03256,-0.129191 0,-0.09507 -0.03463,-0.167681 -0.103353,-0.218074 -0.06872,-0.05039 -0.156918,-0.07545 -0.264583,-0.07545 z m 1.027844,0 c -0.06987,0 -0.132089,0.0112 -0.187069,0.03411 -0.05497,0.02291 -0.09867,0.05621 -0.130741,0.09974 -0.03207,0.04238 -0.04806,0.09514 -0.04806,0.15813 0,0.07559 0.02078,0.138332 0.06201,0.187586 0.04238,0.04811 0.0934,0.08915 0.152962,0.123506 -0.04467,0.02062 -0.08663,0.04567 -0.125574,0.07545 -0.03894,0.02978 -0.07051,0.06522 -0.09457,0.106453 -0.02291,0.04124 -0.03411,0.09013 -0.03411,0.146245 0,0.10423 0.03544,0.185499 0.106453,0.243912 0.07101,0.05727 0.172139,0.08578 0.303858,0.08578 0.122555,0 0.219812,-0.02984 0.291972,-0.0894 0.0733,-0.06071 0.11007,-0.142379 0.11007,-0.245463 0,-0.05612 -0.01252,-0.104091 -0.03772,-0.144177 -0.02405,-0.04009 -0.05695,-0.07512 -0.09819,-0.104903 -0.04124,-0.03093 -0.08707,-0.05863 -0.137459,-0.08268 0.04238,-0.02177 0.0818,-0.04641 0.117305,-0.0739 0.03551,-0.02863 0.0631,-0.06102 0.08372,-0.09767 0.02176,-0.03665 0.03307,-0.07994 0.03307,-0.129191 0,-0.09507 -0.03463,-0.167681 -0.103353,-0.218074 -0.06872,-0.05039 -0.156918,-0.07545 -0.264583,-0.07545 z m -30.128398,0.01705 v 1.226799 h 0.155029 v -0.47749 h 0.14056 c 0.122556,0 0.219408,-0.01864 0.290422,-0.05529 0.07216,-0.03665 0.123182,-0.08421 0.152962,-0.142627 0.03092,-0.05956 0.04651,-0.123108 0.04651,-0.190686 0,-0.11454 -0.03677,-0.20314 -0.110071,-0.266134 -0.0733,-0.06299 -0.190013,-0.09457 -0.350366,-0.09457 z m 2.215369,0 v 1.226799 h 0.154513 v -0.47749 h 0.141077 c 0.122556,0 0.219408,-0.01864 0.290422,-0.05529 0.07216,-0.03665 0.122665,-0.08421 0.152445,-0.142627 0.03092,-0.05956 0.04651,-0.123108 0.04651,-0.190686 0,-0.11454 -0.03677,-0.20314 -0.110071,-0.266134 -0.0733,-0.06299 -0.190013,-0.09457 -0.350366,-0.09457 z m 24.936467,0.09457 -0.05994,0.195854 -0.132292,0.05994 v 0.07235 h 0.130742 v 0.535884 c 0,0.07445 0.01252,0.1324 0.03772,0.173633 0.0252,0.04123 0.05758,0.07067 0.09767,0.08785 0.04123,0.01603 0.08625,0.02377 0.134359,0.02377 0.02749,0 0.056,-0.0025 0.08578,-0.0083 0.02978,-0.0046 0.0527,-0.0111 0.06873,-0.01912 V 15.984 c -0.01489,0.0046 -0.03434,0.0094 -0.05839,0.01395 -0.02405,0.0035 -0.04789,0.0052 -0.0708,0.0052 -0.04238,0 -0.0769,-0.01345 -0.104386,-0.03979 -0.02635,-0.02749 -0.03979,-0.06894 -0.03979,-0.125057 v -0.532784 h 0.266133 V 15.188737 H 63.377032 V 14.97738 Z m 1.947167,0.01034 c 0.06643,0 0.119594,0.01558 0.159681,0.04651 0.04009,0.02978 0.06046,0.07296 0.06046,0.130225 0,0.06185 -0.02078,0.110738 -0.06201,0.146244 -0.04009,0.03551 -0.08978,0.06575 -0.149345,0.09095 -0.04123,-0.01833 -0.07933,-0.03685 -0.113688,-0.05633 -0.03437,-0.02062 -0.06155,-0.04526 -0.08216,-0.0739 -0.01947,-0.02863 -0.02946,-0.06459 -0.02946,-0.10697 0,-0.05727 0.02038,-0.100445 0.06046,-0.130225 0.04124,-0.03093 0.09307,-0.04651 0.156062,-0.04651 z m 1.027845,0 c 0.06643,0 0.119593,0.01558 0.15968,0.04651 0.04009,0.02978 0.05994,0.07296 0.05994,0.130225 0,0.06185 -0.02026,0.110738 -0.0615,0.146244 -0.04009,0.03551 -0.0903,0.06575 -0.149862,0.09095 -0.04124,-0.01833 -0.07881,-0.03685 -0.113171,-0.05633 -0.03437,-0.02062 -0.06207,-0.04526 -0.08268,-0.0739 -0.01947,-0.02863 -0.02894,-0.06459 -0.02894,-0.10697 0,-0.05727 0.01986,-0.100445 0.05994,-0.130225 0.04124,-0.03093 0.09359,-0.04651 0.15658,-0.04651 z m -29.971819,0.02739 h 0.156063 c 0.108811,0 0.188348,0.01946 0.238745,0.0584 0.0504,0.03894 0.07596,0.09822 0.07596,0.17725 0,0.09048 -0.02903,0.154436 -0.0863,0.192236 -0.05727,0.0378 -0.144137,0.05684 -0.260966,0.05684 h -0.123502 z m 2.214853,0 h 0.15658 c 0.108811,0 0.188348,0.01946 0.238745,0.0584 0.0504,0.03894 0.07545,0.09822 0.07545,0.17725 0,0.09048 -0.02851,0.154436 -0.08578,0.192236 -0.05727,0.0378 -0.144654,0.05684 -0.261483,0.05684 h -0.123512 z m 20.807002,0.15658 c -0.103085,0 -0.18649,0.02118 -0.25063,0.06356 -0.06299,0.04238 -0.09457,0.102465 -0.09457,0.180351 0,0.05039 0.01172,0.09143 0.03462,0.123506 0.02291,0.03207 0.05529,0.05978 0.09767,0.08268 0.04238,0.02291 0.0934,0.04582 0.152963,0.06873 0.0607,0.02291 0.106936,0.04368 0.139009,0.06201 0.03321,0.01833 0.05613,0.03645 0.06873,0.05478 0.0126,0.01833 0.01912,0.0391 0.01912,0.06201 0,0.04123 -0.01732,0.07402 -0.05168,0.09922 -0.03436,0.02405 -0.08966,0.03617 -0.166398,0.03617 -0.05383,0 -0.107511,-0.0073 -0.160197,-0.02222 -0.05154,-0.01603 -0.09564,-0.03335 -0.132292,-0.05168 v 0.137459 c 0.03551,0.01833 0.07614,0.03259 0.121956,0.04289 0.04696,0.01031 0.102775,0.0155 0.166915,0.0155 0.112246,0 0.201768,-0.02292 0.268201,-0.06873 0.06643,-0.04582 0.09922,-0.113232 0.09922,-0.202572 0,-0.04925 -0.0108,-0.08988 -0.03256,-0.121956 -0.02176,-0.03321 -0.05333,-0.06133 -0.09457,-0.08423 -0.04124,-0.02291 -0.09093,-0.04542 -0.149345,-0.06718 -0.05841,-0.02291 -0.105053,-0.04236 -0.14056,-0.05839 -0.03436,-0.01718 -0.059,-0.03398 -0.0739,-0.05116 -0.01489,-0.01833 -0.02274,-0.04043 -0.02274,-0.06563 0,-0.03436 0.01599,-0.06114 0.04806,-0.08062 0.03321,-0.02061 0.08077,-0.03101 0.142627,-0.03101 0.04467,0 0.08836,0.0056 0.130741,0.01705 0.04238,0.01145 0.08302,0.02531 0.121957,0.04134 l 0.05168,-0.120406 c -0.04238,-0.01947 -0.08821,-0.03413 -0.137459,-0.04444 -0.04811,-0.01145 -0.10046,-0.01705 -0.15658,-0.01705 z m 3.237529,0 c -0.05823,7.1e-5 -0.113868,0.01219 -0.166398,0.03617 -0.05269,0.02291 -0.09373,0.05835 -0.123507,0.106454 h -0.0088 l -0.02222,-0.125574 h -0.121956 v 0.920874 h 0.150895 v -0.47749 c 0,-0.107668 0.01945,-0.190264 0.05839,-0.24753 0.03894,-0.05727 0.109418,-0.08578 0.211357,-0.08578 0.137445,0 0.206189,0.07394 0.206189,0.221692 v 0.589111 h 0.149345 v -0.599447 c 0,-0.11912 -0.0276,-0.205178 -0.08372,-0.257865 -0.05603,-0.05374 -0.139395,-0.08053 -0.24908,-0.08061 z m 1.684652,0 c -0.08133,0 -0.153128,0.01945 -0.214974,0.05839 -0.06071,0.03894 -0.108267,0.09424 -0.142627,0.166398 -0.03321,0.07216 -0.04961,0.158623 -0.04961,0.259416 0,0.101939 0.01812,0.188402 0.05478,0.259416 0.0378,0.06987 0.09015,0.122623 0.15658,0.158129 0.06758,0.03551 0.144461,0.05323 0.23151,0.05323 0.063,0 0.117484,-0.0052 0.163298,-0.0155 0.04582,-0.0092 0.09257,-0.02383 0.139526,-0.04444 v -0.132292 c -0.04811,0.02062 -0.09526,0.03661 -0.141076,0.04806 -0.04467,0.01031 -0.0961,0.0155 -0.154513,0.0155 -0.09163,0 -0.163434,-0.02678 -0.214974,-0.08061 -0.05042,-0.05498 -0.0768,-0.134515 -0.07906,-0.238745 h 0.630453 v -0.09147 c 0,-0.08362 -0.01507,-0.156228 -0.04599,-0.218074 -0.02978,-0.063 -0.07347,-0.111368 -0.130742,-0.145728 -0.05612,-0.03436 -0.12354,-0.05168 -0.202571,-0.05168 z m -3.244764,0.01705 v 0.603064 c 0,0.116828 0.02811,0.201965 0.08423,0.255798 0.05612,0.05269 0.139529,0.07906 0.250631,0.07906 0.05956,0 0.115778,-0.0108 0.168465,-0.03256 0.05269,-0.02291 0.09424,-0.05835 0.124023,-0.106453 h 0.0067 l 0.02222,0.121956 h 0.124023 v -0.920874 h -0.151411 v 0.479557 c 0,0.107668 -0.01986,0.189747 -0.05994,0.247014 -0.03894,0.05727 -0.109418,0.0863 -0.211357,0.0863 -0.1363,0 -0.204638,-0.07353 -0.204638,-0.220141 V 15.18873 Z m 3.242696,0.106453 c 0.07674,0 0.132959,0.02464 0.168466,0.0739 0.03552,0.04811 0.05416,0.11125 0.05529,0.189135 h -0.469222 c 0.008,-0.08247 0.03266,-0.146939 0.0739,-0.192753 0.04238,-0.04696 0.09941,-0.07028 0.171565,-0.07028 z m 0.978235,0.235645 0.02739,0.01033 c 0.07789,0.02978 0.140109,0.0643 0.187069,0.104387 0.04696,0.03894 0.0708,0.08823 0.0708,0.147794 0,0.063 -0.02251,0.114943 -0.06718,0.15503 -0.04352,0.03895 -0.107073,0.05839 -0.190686,0.05839 -0.08819,0 -0.153474,-0.01945 -0.195854,-0.05839 -0.04238,-0.04009 -0.06356,-0.0903 -0.06356,-0.149862 0,-0.063 0.01946,-0.11483 0.0584,-0.156063 0.04009,-0.04238 0.09804,-0.07955 0.173632,-0.111621 z m 1.027328,0 0.02739,0.01033 c 0.07789,0.02978 0.140626,0.0643 0.187586,0.104387 0.04696,0.03894 0.07028,0.08823 0.07028,0.147794 0,0.063 -0.02199,0.114943 -0.06666,0.15503 -0.04352,0.03895 -0.10759,0.05839 -0.191203,0.05839 -0.08819,0 -0.153473,-0.01945 -0.195853,-0.05839 -0.04238,-0.04009 -0.06356,-0.0903 -0.06356,-0.149862 0,-0.063 0.01997,-0.11483 0.05891,-0.156063 0.04009,-0.04238 0.09752,-0.07955 0.173116,-0.111621 z" /></svg>
