<?xml version="1.0" encoding="UTF-8" standalone="no"?>
<!-- Created with Inkscape (http://www.inkscape.org/) -->

<svg
   width="128"
   height="64"
   viewBox="0 0 128 64.000004"
   version="1.1"
   id="svg1"
   xml:space="preserve"
   xmlns="http://www.w3.org/2000/svg"
   xmlns:svg="http://www.w3.org/2000/svg">
<rect
     style="fill:#000000;fill-opacity:1;stroke-width:3;stroke-linejoin:round;stroke-miterlimit:0"
     id="backer"
     width="128"
     height="64"
     x="0"
     y="0" /><g
     id="g17"><g
       id="g12"
       transform="translate(3.0000004,3.0000005)"><rect
         style="fill:#0000ff;fill-opacity:1;stroke-linejoin:round"
         id="rect8"
         width="60"
         height="60"
         x="-1.7163086e-07"
         y="-4.296875e-07" /><path
         id="NEEDLE_LEFT"
   transform="rotate({{needle_left}}, 29.773437, 45.38238)"
         style="fill:#ffff00;fill-opacity:1;stroke-width:0.999541;stroke-linejoin:round"
         d="M 29.78863,4.4820673 28.5,54.56708 h 3 L 30.38238,4.4820673 Z" /><path
         id="path5"
         style="baseline-shift:baseline;display:inline;overflow:visible;vector-effect:none;fill:#ffffff;stroke-width:3.7778;stroke-linejoin:round;stroke-miterlimit:0;enable-background:accumulate;stop-color:#000000"
         d="m 0.99999849,0.52502852 a 0.50004934,0.49959199 0 0 0 -0.50195,0.50149398 V 58.973471 a 0.50004934,0.49959199 0 0 0 0.50195,0.5015 H 59.000001 a 0.50004934,0.49959199 0 0 0 0.50195,-0.5015 V 1.0265225 A 0.50004934,0.49959199 0 0 0 59.000001,0.52502852 Z M 1.5039085,1.5299675 H 58.498041 V 43.489601 H 1.6874985 v 0.99518 H 58.498041 v 1.00299 H 1.6874985 v 1.00299 H 58.498041 v 11.98122 H 1.5039085 Z m 50.9980395,1.996219 v 1.998171 h -2 v 0.999086 h 2 v 1.99817 h 1 v -1.99817 h 2 v -0.999086 h -2 V 3.5261865 Z M 3.5019485,5.5243575 v 0.999086 h 5 v -0.999086 z m 35.2382795,0.999086 c -0.60404,0 -1.06375,0.200637 -1.37695,0.602963 -0.30762,0.396736 -0.46094,1.041674 -0.46094,1.935728 0,0.916405 0.16414,1.5655125 0.49414,1.9454855 0.29643,0.340858 0.74531,0.51125 1.34375,0.51125 1.21367,0 1.82031,-0.83032 1.82031,-2.4899085 0,-1.670763 -0.60664,-2.505518 -1.82031,-2.505518 z m -0.0253,0.503445 c 0.46421,0 0.79892,0.153184 1.00586,0.460516 0.21252,0.301742 0.32031,0.840951 0.32031,1.617659 0,0.74877 -0.1014,1.2621665 -0.30274,1.5415585 -0.19574,0.273803 -0.53685,0.411732 -1.02343,0.411732 -0.481,0 -0.81987,-0.165958 -1.01563,-0.495639 -0.16222,-0.296154 -0.24219,-0.7729185 -0.24219,-1.4322835 0,-0.765533 0.0908,-1.306958 0.27537,-1.625465 0.19019,-0.318504 0.51821,-0.478078 0.98243,-0.478078 z m 14.78516,2.497713 c -1.65093,0 -2.9961,1.3439325 -2.9961,2.9933545 0,1.649421 1.34517,2.993353 2.9961,2.993353 1.65093,0 3.00586,-1.343932 3.00586,-2.993353 0,-1.649422 -1.35493,-2.9933545 -3.00586,-2.9933545 z m -41.67195,0.9951835 c -0.60403,0 -1.06374,0.200638 -1.37695,0.602964 -0.30761,0.396735 -0.4609395,1.041673 -0.4609395,1.935727 0,0.916405 0.1661095,1.565513 0.4960995,1.945485 0.29643,0.340859 0.74335,0.511251 1.34179,0.511251 1.21368,0 1.82032,-0.830321 1.82032,-2.489908 0,-1.670763 -0.60665,-2.505519 -1.82032,-2.505519 z m 41.67188,0 c 1.11049,0 2.00195,0.888694 2.00195,1.998171 0,1.109476 -0.89146,1.998171 -2.00195,1.998171 -1.11049,0 -2,-0.888695 -2,-1.998171 0,-1.109477 0.88951,-1.998171 2,-1.998171 z M 7.6250185,10.636866 c -0.632,0 -1.0831,0.08852 -1.35156,0.267334 -0.43066,0.290565 -0.64649,0.762895 -0.64649,1.416672 0,0.201159 0.0883,0.30246 0.26173,0.30246 0.17337,0 0.25977,-0.08409 0.25977,-0.251724 0,-0.385561 0.0864,-0.674722 0.25977,-0.870297 0.2293,-0.257041 0.62012,-0.386365 1.17383,-0.386365 0.81098,0 1.21679,0.295549 1.21679,0.887858 0,0.307331 -0.14471,0.546822 -0.43554,0.720045 -0.151,0.111749 -0.48128,0.230257 -0.99024,0.353191 -0.50337,0.122926 -0.84002,0.23088 -1.00781,0.325875 -0.57608,0.335266 -0.86328,0.915277 -0.86328,1.736689 l 0.008,0.376607 h 3.68359 c 0.16218,0 0.24416,-0.09048 0.24416,-0.269283 0,-0.173224 -0.1036,-0.25953 -0.31053,-0.25953 h -3.06251 c 0,-0.491729 0.14691,-0.85194 0.44335,-1.081041 0.19575,-0.150873 0.56047,-0.284629 1.0918,-0.401976 0.54811,-0.156461 0.92587,-0.296603 1.13281,-0.419538 0.36915,-0.262629 0.55274,-0.640047 0.55274,-1.131776 0,-0.419087 -0.17499,-0.753487 -0.52734,-1.004939 -0.29084,-0.206752 -0.6686,-0.310265 -1.13282,-0.310261 z m 10.1113295,0.04293 v 0.679066 h 0.67773 v -0.679066 z m 6.78125,0 v 0.679066 h 0.67773 v -0.679066 z m 6.78125,0 v 0.679066 h 0.67773 v -0.679066 z m 13.5625,0 v 0.679066 h 0.67773 v -0.679066 z m -33.0586,0.343438 c 0.46422,0 0.79892,0.153183 1.00586,0.460515 0.21253,0.301742 0.32032,0.840952 0.32032,1.61766 0,0.74877 -0.10137,1.262166 -0.30274,1.541558 -0.19574,0.273803 -0.53685,0.411732 -1.02344,0.411732 -0.48099,0 -0.81987,-0.165958 -1.01562,-0.49564 -0.16218,-0.296153 -0.2422,-0.772918 -0.2422,-1.432283 0,-0.765532 0.0908,-1.306958 0.27538,-1.625465 0.19015,-0.318504 0.51821,-0.478077 0.98242,-0.478077 z m 18.20118,1.715226 c -9.29388,0 -17.75374,2.941595 -23.9785195,7.739009 v 1.274224 c 6.0842795,-4.940449 14.5666295,-8.016099 23.9785195,-8.016099 9.41128,0 17.89227,3.074253 23.9746,8.014148 v -1.276179 c -6.22431,-4.79517 -14.68318,-7.735106 -23.9746,-7.735103 z" /><rect
         style="fill:#000000;fill-opacity:1;stroke-width:0.820258;stroke-linejoin:round"
         id="rect5"
         width="59"
         height="18.982622"
         x="0.083926871"
         y="43.206856" /><path
         id="rect9"
         style="baseline-shift:baseline;display:inline;overflow:visible;vector-effect:none;fill:#ffffff;stroke-linejoin:round;enable-background:accumulate;stop-color:#000000"
         d="M 0.4921867,-4.2968751e-7 A 0.49185268,0.49185268 0 0 0 -3.0035442e-7,0.49218757 V 43 v 1 1 1 13.507812 A 0.49185268,0.49185268 0 0 0 0.4921867,60 H 59.507812 A 0.49185268,0.49185268 0 0 0 60,59.507812 V 46 45 44 43 0.49218757 A 0.49185268,0.49185268 0 0 0 59.507812,-4.2968751e-7 Z M 0.9843747,0.98437457 H 59.017578 V 43 H 0.9843747 Z M 0.9843747,44 H 59.017578 v 1 H 0.9843747 Z m 0,2 H 59.017578 V 59.017578 H 0.9843747 Z" /><path
         style="font-size:1.59809px;line-height:1.1;font-family:mry_KacstQurn;-inkscape-font-specification:mry_KacstQurn;text-align:center;letter-spacing:0px;baseline-shift:baseline;text-anchor:middle;display:inline;overflow:visible;vector-effect:none;fill:#ffffff;stroke-width:3.7778;stroke-miterlimit:0;enable-background:accumulate;stop-color:#000000"
         d="m 24.41561,26.474684 -0.369108,0.538385 2.347438,6.136116 0.369109,0.258133 h 0.944882 l 0.369108,-0.258133 2.340057,-6.136116 -0.369109,-0.538385 h -0.863682 l -0.369109,0.258128 -1.579722,4.189079 -1.579725,-4.189079 -0.369109,-0.258128 z m 6.437008,0 -0.398623,0.398257 v 3.835072 c 0,0.86543 0.223862,1.586008 0.708662,2.087166 0.487498,0.500488 1.198866,0.730137 2.044785,0.730137 0.843416,0 1.552683,-0.229056 2.037399,-0.730137 0.487867,-0.500869 0.708657,-1.221287 0.708657,-2.087166 v -3.835072 l -0.39862,-0.398257 h -0.834151 l -0.398623,0.398257 v 3.73182 c 0,0.606616 -0.120945,0.986211 -0.265739,1.165272 -0.146683,0.176852 -0.387855,0.295005 -0.848916,0.295005 -0.464167,0 -0.710101,-0.118723 -0.856297,-0.295005 -0.144794,-0.179054 -0.273146,-0.558644 -0.273146,-1.165272 v -3.73182 l -0.391234,-0.398257 z m -5.861223,0.789139 h 0.0223 l 1.638781,4.351332 z m 4.466045,0 h 0.0223 l -1.565114,4.085827 z m 1.786416,0 h 0.0443 v 3.340938 c 0,0.686642 0.124196,1.221452 0.435534,1.62253 -0.29983,-0.316079 -0.479826,-0.791088 -0.479826,-1.519278 z m 3.868112,0 h 0.05167 v 3.44419 c 0,0.731975 -0.181796,1.210431 -0.487204,1.526653 0.315175,-0.401593 0.43553,-0.939588 0.43553,-1.629905 z m -8.245572,4.919217 h 0.730809 l -0.162406,0.435136 h -0.398623 z"
         id="path7" /><path
         id="LED_LEFT"
         style="fill:#ffffff;fill-opacity={{overflow_left}}"
         d="m 53.492188,10.539062 a 1.9999999,1.9981707 0 0 0 -1.990235,2.00586 1.9999999,1.9981707 0 0 0 2.003906,1.992187 1.9999999,1.9981707 0 0 0 1.996094,-1.998047 v -0.01562 a 1.9999999,1.9981707 0 0 0 -2.009765,-1.98438 z M 54.498047,11 A 0.5,0.5 0 0 1 55,11.496094 V 11.5 A 0.5,0.5 0 0 1 54.5,12 0.5,0.5 0 0 1 54,11.501953 0.5,0.5 0 0 1 54.498047,11 Z" /></g><g
       id="g16"
       transform="translate(65,3.0000005)"><rect
         style="fill:#0000ff;fill-opacity:1;stroke-linejoin:round"
         id="rect12"
         width="60"
         height="60"
         x="-1.7163086e-07"
         y="-4.296875e-07" /><path
         id="NEEDLE_RIGHT"
   transform="rotate({{needle_right}}, 29.773437, 45.38238)"
         style="fill:#ffff00;fill-opacity:1;stroke-width:0.999541;stroke-linejoin:round"
         d="M 29.78863,4.4820673 28.5,54.56708 h 3 L 30.38238,4.4820673 Z" /><path
         id="path13"
         style="baseline-shift:baseline;display:inline;overflow:visible;vector-effect:none;fill:#ffffff;stroke-width:3.7778;stroke-linejoin:round;stroke-miterlimit:0;enable-background:accumulate;stop-color:#000000"
         d="m 0.99999849,0.52502852 a 0.50004934,0.49959199 0 0 0 -0.50195,0.50149398 V 58.973471 a 0.50004934,0.49959199 0 0 0 0.50195,0.5015 H 59.000001 a 0.50004934,0.49959199 0 0 0 0.50195,-0.5015 V 1.0265225 A 0.50004934,0.49959199 0 0 0 59.000001,0.52502852 Z M 1.5039085,1.5299675 H 58.498041 V 43.489601 H 1.6874985 v 0.99518 H 58.498041 v 1.00299 H 1.6874985 v 1.00299 H 58.498041 v 11.98122 H 1.5039085 Z m 50.9980395,1.996219 v 1.998171 h -2 v 0.999086 h 2 v 1.99817 h 1 v -1.99817 h 2 v -0.999086 h -2 V 3.5261865 Z M 3.5019485,5.5243575 v 0.999086 h 5 v -0.999086 z m 35.2382795,0.999086 c -0.60404,0 -1.06375,0.200637 -1.37695,0.602963 -0.30762,0.396736 -0.46094,1.041674 -0.46094,1.935728 0,0.916405 0.16414,1.5655125 0.49414,1.9454855 0.29643,0.340858 0.74531,0.51125 1.34375,0.51125 1.21367,0 1.82031,-0.83032 1.82031,-2.4899085 0,-1.670763 -0.60664,-2.505518 -1.82031,-2.505518 z m -0.0253,0.503445 c 0.46421,0 0.79892,0.153184 1.00586,0.460516 0.21252,0.301742 0.32031,0.840951 0.32031,1.617659 0,0.74877 -0.1014,1.2621665 -0.30274,1.5415585 -0.19574,0.273803 -0.53685,0.411732 -1.02343,0.411732 -0.481,0 -0.81987,-0.165958 -1.01563,-0.495639 -0.16222,-0.296154 -0.24219,-0.7729185 -0.24219,-1.4322835 0,-0.765533 0.0908,-1.306958 0.27537,-1.625465 0.19019,-0.318504 0.51821,-0.478078 0.98243,-0.478078 z m 14.78516,2.497713 c -1.65093,0 -2.9961,1.3439325 -2.9961,2.9933545 0,1.649421 1.34517,2.993353 2.9961,2.993353 1.65093,0 3.00586,-1.343932 3.00586,-2.993353 0,-1.649422 -1.35493,-2.9933545 -3.00586,-2.9933545 z m -41.67195,0.9951835 c -0.60403,0 -1.06374,0.200638 -1.37695,0.602964 -0.30761,0.396735 -0.4609395,1.041673 -0.4609395,1.935727 0,0.916405 0.1661095,1.565513 0.4960995,1.945485 0.29643,0.340859 0.74335,0.511251 1.34179,0.511251 1.21368,0 1.82032,-0.830321 1.82032,-2.489908 0,-1.670763 -0.60665,-2.505519 -1.82032,-2.505519 z m 41.67188,0 c 1.11049,0 2.00195,0.888694 2.00195,1.998171 0,1.109476 -0.89146,1.998171 -2.00195,1.998171 -1.11049,0 -2,-0.888695 -2,-1.998171 0,-1.109477 0.88951,-1.998171 2,-1.998171 z M 7.6250185,10.636866 c -0.632,0 -1.0831,0.08852 -1.35156,0.267334 -0.43066,0.290565 -0.64649,0.762895 -0.64649,1.416672 0,0.201159 0.0883,0.30246 0.26173,0.30246 0.17337,0 0.25977,-0.08409 0.25977,-0.251724 0,-0.385561 0.0864,-0.674722 0.25977,-0.870297 0.2293,-0.257041 0.62012,-0.386365 1.17383,-0.386365 0.81098,0 1.21679,0.295549 1.21679,0.887858 0,0.307331 -0.14471,0.546822 -0.43554,0.720045 -0.151,0.111749 -0.48128,0.230257 -0.99024,0.353191 -0.50337,0.122926 -0.84002,0.23088 -1.00781,0.325875 -0.57608,0.335266 -0.86328,0.915277 -0.86328,1.736689 l 0.008,0.376607 h 3.68359 c 0.16218,0 0.24416,-0.09048 0.24416,-0.269283 0,-0.173224 -0.1036,-0.25953 -0.31053,-0.25953 h -3.06251 c 0,-0.491729 0.14691,-0.85194 0.44335,-1.081041 0.19575,-0.150873 0.56047,-0.284629 1.0918,-0.401976 0.54811,-0.156461 0.92587,-0.296603 1.13281,-0.419538 0.36915,-0.262629 0.55274,-0.640047 0.55274,-1.131776 0,-0.419087 -0.17499,-0.753487 -0.52734,-1.004939 -0.29084,-0.206752 -0.6686,-0.310265 -1.13282,-0.310261 z m 10.1113295,0.04293 v 0.679066 h 0.67773 v -0.679066 z m 6.78125,0 v 0.679066 h 0.67773 v -0.679066 z m 6.78125,0 v 0.679066 h 0.67773 v -0.679066 z m 13.5625,0 v 0.679066 h 0.67773 v -0.679066 z m -33.0586,0.343438 c 0.46422,0 0.79892,0.153183 1.00586,0.460515 0.21253,0.301742 0.32032,0.840952 0.32032,1.61766 0,0.74877 -0.10137,1.262166 -0.30274,1.541558 -0.19574,0.273803 -0.53685,0.411732 -1.02344,0.411732 -0.48099,0 -0.81987,-0.165958 -1.01562,-0.49564 -0.16218,-0.296153 -0.2422,-0.772918 -0.2422,-1.432283 0,-0.765532 0.0908,-1.306958 0.27538,-1.625465 0.19015,-0.318504 0.51821,-0.478077 0.98242,-0.478077 z m 18.20118,1.715226 c -9.29388,0 -17.75374,2.941595 -23.9785195,7.739009 v 1.274224 c 6.0842795,-4.940449 14.5666295,-8.016099 23.9785195,-8.016099 9.41128,0 17.89227,3.074253 23.9746,8.014148 v -1.276179 c -6.22431,-4.79517 -14.68318,-7.735106 -23.9746,-7.735103 z" /><rect
         style="fill:#000000;fill-opacity:1;stroke-width:0.820258;stroke-linejoin:round"
         id="rect13"
         width="59"
         height="18.982622"
         x="0.083926871"
         y="43.206856" /><path
         id="path14"
         style="baseline-shift:baseline;display:inline;overflow:visible;vector-effect:none;fill:#ffffff;stroke-linejoin:round;enable-background:accumulate;stop-color:#000000"
         d="M 0.4921867,-4.2968751e-7 A 0.49185268,0.49185268 0 0 0 -3.0035442e-7,0.49218757 V 43 v 1 1 1 13.507812 A 0.49185268,0.49185268 0 0 0 0.4921867,60 H 59.507812 A 0.49185268,0.49185268 0 0 0 60,59.507812 V 46 45 44 43 0.49218757 A 0.49185268,0.49185268 0 0 0 59.507812,-4.2968751e-7 Z M 0.9843747,0.98437457 H 59.017578 V 43 H 0.9843747 Z M 0.9843747,44 H 59.017578 v 1 H 0.9843747 Z m 0,2 H 59.017578 V 59.017578 H 0.9843747 Z" /><path
         style="font-size:1.59809px;line-height:1.1;font-family:mry_KacstQurn;-inkscape-font-specification:mry_KacstQurn;text-align:center;letter-spacing:0px;baseline-shift:baseline;text-anchor:middle;display:inline;overflow:visible;vector-effect:none;fill:#ffffff;stroke-width:3.7778;stroke-miterlimit:0;enable-background:accumulate;stop-color:#000000"
         d="m 24.41561,26.474684 -0.369108,0.538385 2.347438,6.136116 0.369109,0.258133 h 0.944882 l 0.369108,-0.258133 2.340057,-6.136116 -0.369109,-0.538385 h -0.863682 l -0.369109,0.258128 -1.579722,4.189079 -1.579725,-4.189079 -0.369109,-0.258128 z m 6.437008,0 -0.398623,0.398257 v 3.835072 c 0,0.86543 0.223862,1.586008 0.708662,2.087166 0.487498,0.500488 1.198866,0.730137 2.044785,0.730137 0.843416,0 1.552683,-0.229056 2.037399,-0.730137 0.487867,-0.500869 0.708657,-1.221287 0.708657,-2.087166 v -3.835072 l -0.39862,-0.398257 h -0.834151 l -0.398623,0.398257 v 3.73182 c 0,0.606616 -0.120945,0.986211 -0.265739,1.165272 -0.146683,0.176852 -0.387855,0.295005 -0.848916,0.295005 -0.464167,0 -0.710101,-0.118723 -0.856297,-0.295005 -0.144794,-0.179054 -0.273146,-0.558644 -0.273146,-1.165272 v -3.73182 l -0.391234,-0.398257 z m -5.861223,0.789139 h 0.0223 l 1.638781,4.351332 z m 4.466045,0 h 0.0223 l -1.565114,4.085827 z m 1.786416,0 h 0.0443 v 3.340938 c 0,0.686642 0.124196,1.221452 0.435534,1.62253 -0.29983,-0.316079 -0.479826,-0.791088 -0.479826,-1.519278 z m 3.868112,0 h 0.05167 v 3.44419 c 0,0.731975 -0.181796,1.210431 -0.487204,1.526653 0.315175,-0.401593 0.43553,-0.939588 0.43553,-1.629905 z m -8.245572,4.919217 h 0.730809 l -0.162406,0.435136 h -0.398623 z"
         id="path15" /><path
         id="LED_RIGHT"
style="fill:#ffffff;fill-opacity={{overflow_right}}"
         d="m 53.492188,10.539062 a 1.9999999,1.9981707 0 0 0 -1.990235,2.00586 1.9999999,1.9981707 0 0 0 2.003906,1.992187 1.9999999,1.9981707 0 0 0 1.996094,-1.998047 v -0.01562 a 1.9999999,1.9981707 0 0 0 -2.009765,-1.98438 z M 54.498047,11 A 0.5,0.5 0 0 1 55,11.496094 V 11.5 A 0.5,0.5 0 0 1 54.5,12 0.5,0.5 0 0 1 54,11.501953 0.5,0.5 0 0 1 54.498047,11 Z" /></g></g><path
     d="M 30,57.855421 V 52 h 1.19277 v 4.86747 h 2.92771 v 0.987951 z"
     id="text17"
     style="font-size:10px;line-height:1.1;font-family:Ramabhadra;-inkscape-font-specification:Ramabhadra;text-align:center;letter-spacing:0px;word-spacing:0.0022px;text-anchor:middle;fill:#ffffff;stroke-linejoin:round"
     aria-label="L" /><path
     d="M 93,57.855422 V 52 h 2.49398 q 1.15663,0 1.72289,0.349398 0.57832,0.349397 0.57832,1.289156 0,1.409639 -1.55422,1.638554 0.60241,0.313253 1.3012,1.433735 l 0.72289,1.144579 h -1.42168 l -1.26506,-1.891567 q -0.19277,-0.289156 -0.43374,-0.421686 -0.22891,-0.132531 -0.72289,-0.132531 h -0.24096 v 2.445784 z m 1.18073,-3.373494 h 0.87952 q 0.89156,0 1.20481,-0.144579 0.31326,-0.156626 0.31326,-0.614457 0,-0.433735 -0.26506,-0.578314 -0.25301,-0.156626 -1.20482,-0.156626 h -0.92771 z"
     id="text18"
     style="font-size:10px;line-height:1.1;font-family:Ramabhadra;-inkscape-font-specification:Ramabhadra;text-align:center;letter-spacing:0px;word-spacing:0.0022px;text-anchor:middle;fill:#ffffff;stroke-linejoin:round"
     aria-label="R" /></svg>
