<?xml version="1.0" encoding="UTF-8" standalone="no"?>
<!-- Created with Inkscape (http://www.inkscape.org/) -->

<svg
   width="128"
   height="64"
   viewBox="0 0 32 16"
   version="1.1"
   id="svg1"
   xml:space="preserve"
   sodipodi:docname="vudownmix.svg"
   inkscape:version="1.4.3 (1:1.4.3+202512261035+0d15f75042)"
   xmlns:inkscape="http://www.inkscape.org/namespaces/inkscape"
   xmlns:sodipodi="http://sodipodi.sourceforge.net/DTD/sodipodi-0.dtd"
   xmlns="http://www.w3.org/2000/svg"
   xmlns:svg="http://www.w3.org/2000/svg"><sodipodi:namedview
   id="namedview1"
   pagecolor="#ffffff"
   bordercolor="#666666"
   borderopacity="1.0"
   inkscape:showpageshadow="false"
   inkscape:pageopacity="0.0"
   inkscape:pagecheckerboard="0"
   inkscape:deskcolor="#d1d1d1"
   inkscape:zoom="25.326536"
   inkscape:cx="19.090649"
   inkscape:cy="28.211517"
   inkscape:current-layer="svg1"
   borderlayer="false"
   showborder="false" /><defs
   id="defs1" /><rect
   style="fill:#000000;fill-opacity:1;stroke:none;stroke-width:0.140009;stroke-linejoin:round;stroke-miterlimit:0;stroke-opacity:0.635294"
   id="rect2"
   width="33.866665"
   height="16.933332"
   x="0"
   y="0" />
     <rect
   style="fill:#ffffff;fill-opacity:1;stroke:none;stroke-width:0.529167;stroke-linejoin:round;stroke-miterlimit:0;stroke-opacity:0.635294"
   id="rect1"
   width="1.5875"
   height="0.26458332"
   x="1.587502"
   y="2.6458266" /><path
   id="rect3"
   style="fill:#ffffff;fill-opacity:1;stroke:none;stroke-width:0.529167;stroke-linejoin:round;stroke-miterlimit:0;stroke-opacity:0.635294"
   d="m 31.353125,2.11667 v 0.66146 h -0.661458 v 0.26459 h 0.661458 v 0.66145 h 0.264583 V 3.04272 h 0.661459 V 2.77813 H 31.617708 V 2.11667 Z" /><path
   id="text4"
   style="font-size:70.5556px;line-height:1.1;font-family:Moomycraft;-inkscape-font-specification:'Moomycraft, Normal';text-align:center;letter-spacing:0px;text-anchor:middle;fill:#ffffff;stroke-width:0.0161754;stroke-linejoin:round;stroke-miterlimit:0;stroke-opacity:0.635294"
   d="m 18.473145,2.6459961 c -0.03186,10e-4 -0.0647,0.00428 -0.09912,0.00928 l 0.03125,0.1958008 c 0.09408,-0.0131 0.172978,-0.0079 0.237305,0.016602 0.06433,0.0242 0.112995,0.060457 0.145508,0.1088867 0.02698,0.0387 0.0428,0.081826 0.04834,0.1289063 0.0048,0.047 -0.0016,0.092479 -0.01953,0.1367187 -0.02282,0.0553 -0.0649,0.1023733 -0.126465,0.1411133 -0.0415,0.027 -0.09293,0.045817 -0.153809,0.057617 v 9.765e-4 c -0.0339,0.002 -0.0693,0.00479 -0.105957,0.00879 l 0.02197,0.2016602 h 0.0029 v 9.765e-4 c 0.02491,-0.002 0.05001,-0.0053 0.07422,-0.0083 0.09476,-0.007 0.172526,-0.00558 0.233399,0.00342 0.07609,0.0125 0.128944,0.033677 0.158691,0.063477 0.0159,0.0153 0.02258,0.03104 0.02051,0.04834 -0.0035,0.027 -0.01986,0.056026 -0.05029,0.086426 -0.04842,0.0512 -0.120566,0.090302 -0.215332,0.1186523 -0.09477,0.0277 -0.207074,0.034455 -0.336426,0.018555 l -0.02588,0.1997071 c 0.163938,0.02 0.307823,0.010591 0.431641,-0.028809 0.123819,-0.0394 0.219525,-0.094489 0.286621,-0.1650391 0.06225,-0.0643 0.09745,-0.133223 0.106445,-0.206543 0.01037,-0.083 -0.01681,-0.1568614 -0.08252,-0.2211914 -0.03804,-0.0366 -0.09175,-0.065514 -0.161621,-0.086914 0.04634,-0.0464 0.08098,-0.097834 0.104492,-0.1552735 0.03182,-0.0768 0.04367,-0.1553233 0.03467,-0.2348633 -0.0083,-0.0802 -0.03646,-0.1543779 -0.0835,-0.2221679 -0.05257,-0.0775 -0.127565,-0.1361296 -0.225098,-0.1762696 -0.07263,-0.0301 -0.156853,-0.043439 -0.252441,-0.040039 z m 5.152343,0.072754 c -0.06862,0 -0.132198,0.022359 -0.190918,0.068359 -0.05872,0.0453 -0.109678,0.1085365 -0.152832,0.1884765 -0.0757,0.14361 -0.11722,0.321728 -0.125,0.534668 l -9.76e-4,0.03418 c 0,0.19738 0.03548,0.3668656 0.106933,0.5097656 0.03891,0.0771 0.08594,0.1382589 0.141114,0.1821289 0.05518,0.044 0.116386,0.066848 0.183593,0.068848 h 0.0034 9.77e-4 9.76e-4 v 4.883e-4 h -4.88e-4 v 4.882e-4 h 0.0015 c 0.06862,0 0.132198,-0.022571 0.190918,-0.067871 0.05872,-0.046 0.109679,-0.1090148 0.152832,-0.1889648 0.0757,-0.14361 0.11722,-0.3222162 0.125,-0.5351562 l 0.0015,-0.03418 c 0,-0.19737 -0.03597,-0.3668657 -0.107422,-0.5097657 -0.03891,-0.0771 -0.08594,-0.1382589 -0.141113,-0.1821289 -0.05518,-0.044 -0.1159,-0.066359 -0.183106,-0.068359 h -0.0034 -0.002 V 2.71875 Z m -8.03955,0.085449 -0.654786,0.00439 -0.02344,0.9360351 0.117676,-0.017578 c 0.11133,-0.0169 0.203026,-0.015117 0.27539,0.00488 0.07236,0.0195 0.125292,0.049997 0.158692,0.091797 0.02919,0.0355 0.04364,0.074194 0.04297,0.1152343 -6.93e-4,0.0418 -0.01703,0.080856 -0.04834,0.1176758 -0.03827,0.0445 -0.09723,0.077245 -0.177247,0.098145 -0.08002,0.0201 -0.181809,0.020477 -0.305664,9.765e-4 l -0.03467,0.1972656 c 0.164212,0.0257 0.302245,0.021681 0.413575,-0.011719 0.111332,-0.0341 0.195947,-0.08514 0.254394,-0.1533203 0.06331,-0.0751 0.09577,-0.1575221 0.09717,-0.2465821 0.0014,-0.0891 -0.02834,-0.1706671 -0.08887,-0.2451171 -0.04662,-0.0571 -0.111816,-0.1023422 -0.195313,-0.1357422 -0.0835,-0.0332 -0.184519,-0.047457 -0.304199,-0.043457 l 0.01367,-0.5102539 0.459961,-0.00244 z m -4.199219,0.036621 -0.002,0.2041016 0.451172,0.00293 -0.36084,1.3266601 0.196777,0.053223 0.395508,-1.453125 -0.09766,-0.128418 z m 12.237793,0.081543 h 9.76e-4 0.0024 9.76e-4 c 0.05406,0.005 0.102907,0.050862 0.146485,0.1386719 0.05659,0.11248 0.08447,0.2524836 0.08447,0.4194336 v 0.024414 0.00537 c -0.0064,0.17898 -0.04028,0.3271177 -0.102539,0.4438477 -0.05235,0.099 -0.106981,0.1479492 -0.163574,0.1479492 h -0.002 -4.88e-4 -4.89e-4 -9.76e-4 c -0.05299,-0.005 -0.10198,-0.051362 -0.145996,-0.1386719 -0.05659,-0.11248 -0.08447,-0.2524736 -0.08447,-0.4194336 v -0.023926 -0.00537 c 0.0064,-0.17899 0.04028,-0.3266293 0.102539,-0.4433593 0.05203,-0.0984 0.106384,-0.1478275 0.162598,-0.1484375 z M 7.8608398,3.1538086 7.5751953,3.4868164 7.7260742,3.6166992 7.8325195,3.4936523 l -0.019531,1.2202149 0.199707,0.00293 0.023437,-1.4965821 z m 0.7646485,0.026855 c -0.06745,0 -0.1302743,0.022183 -0.1879883,0.067383 -0.05771,0.0445 -0.1079706,0.1064786 -0.1503906,0.1850586 -0.0744,0.14116 -0.1149116,0.3165789 -0.1225586,0.5258789 l -9.766e-4,0.033203 c 0,0.194 0.034751,0.3609948 0.1049805,0.5014648 0.03824,0.0758 0.084429,0.1350927 0.1386719,0.1782227 0.05424,0.0432 0.114604,0.066359 0.180664,0.068359 h 0.00342 9.766e-4 4.882e-4 v 4.883e-4 h -4.882e-4 v 4.882e-4 h 0.00195 c 0.06745,0 0.129787,-0.022783 0.1875,-0.067383 0.05771,-0.0452 0.1079706,-0.1064786 0.1503906,-0.1850586 0.07441,-0.14115 0.1153999,-0.3165689 0.1230469,-0.5258789 l 9.765e-4,-0.033691 c 0,-0.19401 -0.035239,-0.3609948 -0.1054687,-0.5014648 -0.03824,-0.0758 -0.084433,-0.1350927 -0.1386719,-0.1782227 -0.05424,-0.0432 -0.114604,-0.065871 -0.180664,-0.067871 h -0.00293 -0.00195 v -9.765e-4 z m -9.766e-4,0.2001953 h 9.766e-4 0.00293 c 0.0531,0.005 0.1012299,0.050389 0.1440429,0.1367187 0.05563,0.11056 0.083496,0.2475111 0.083496,0.4116211 v 0.024414 0.00488 c -0.0063,0.17593 -0.040366,0.3217834 -0.1015625,0.4365234 -0.05143,0.0973 -0.1045592,0.1459461 -0.1601562,0.1459961 H 8.59375 8.5922852 c -0.05285,-0.004 -0.1017009,-0.049779 -0.1455079,-0.1367187 -0.05563,-0.11057 -0.083008,-0.2480094 -0.083008,-0.4121094 v -0.023926 -0.00488 c 0.0063,-0.17593 0.039397,-0.3213052 0.100586,-0.4360351 0.05114,-0.0967 0.1044139,-0.1453861 0.1596679,-0.1459961 z M 28.21875,3.8618164 c -0.03186,10e-4 -0.06519,0.00379 -0.09961,0.00879 l 0.03125,0.196289 c 0.09407,-0.0131 0.173459,-0.0079 0.237793,0.016602 0.06433,0.0242 0.112506,0.060457 0.145019,0.1088867 0.02698,0.0387 0.0433,0.081826 0.04883,0.1289063 0.0048,0.047 -0.0016,0.092479 -0.01953,0.1367187 -0.02283,0.0553 -0.06491,0.1023733 -0.126465,0.1411133 -0.0415,0.027 -0.09293,0.046306 -0.153808,0.058106 v 4.882e-4 c -0.03389,0.002 -0.06881,0.00479 -0.105469,0.00879 l 0.02148,0.2016602 h 0.0029 v 9.765e-4 c 0.0249,-0.002 0.04952,-0.00481 0.07373,-0.00781 0.09476,-0.007 0.172525,-0.00607 0.233399,0.00293 0.07609,0.0125 0.128945,0.033677 0.158691,0.063477 0.0159,0.0153 0.02258,0.031528 0.02051,0.048828 -0.0035,0.027 -0.01986,0.055537 -0.05029,0.085937 -0.04842,0.0512 -0.120566,0.091259 -0.215332,0.1196289 -0.09477,0.0277 -0.206586,0.033478 -0.335937,0.017578 l -0.02588,0.2001953 c 0.163939,0.02 0.307822,0.010103 0.43164,-0.029297 0.123818,-0.0394 0.219523,-0.094001 0.286621,-0.1645508 0.06225,-0.0643 0.09794,-0.1337113 0.106934,-0.2070313 0.01037,-0.083 -0.01779,-0.1568614 -0.0835,-0.2211914 -0.03805,-0.0367 -0.09175,-0.064926 -0.161621,-0.086426 0.04634,-0.0463 0.08146,-0.09889 0.10498,-0.15625 0.03182,-0.0768 0.04317,-0.1543467 0.03418,-0.2338867 -0.0083,-0.0802 -0.03597,-0.1543879 -0.08301,-0.2221679 -0.05257,-0.0775 -0.127565,-0.1361396 -0.225098,-0.1762696 -0.07263,-0.0301 -0.156854,-0.043927 -0.252441,-0.040527 z M 3.3461914,3.9873047 v 4.883e-4 c -0.0649,0.004 -0.1279236,0.02437 -0.1884766,0.05957 -0.0688,0.0407 -0.1233425,0.100624 -0.1640625,0.180664 -0.04002,0.08 -0.054687,0.1796999 -0.043457,0.2983399 l 0.2006836,-0.019043 c -0.0063,-0.0737 4.294e-4,-0.1345806 0.021484,-0.1816406 0.02177,-0.0477 0.051934,-0.083049 0.089844,-0.1054688 0.04213,-0.0237 0.085164,-0.033297 0.1293946,-0.029297 0.04072,0.004 0.074672,0.019916 0.1020507,0.049316 0.02391,0.0252 0.037556,0.06235 0.041016,0.1108398 0.0042,0.0484 -0.007,0.1083441 -0.033691,0.1806641 -0.04493,0.11444 -0.1053902,0.2261409 -0.1826172,0.3349609 -0.07723,0.10811 -0.1592525,0.2141828 -0.2456055,0.3173828 -0.05827,0.0716 -0.1122624,0.1395016 -0.1621094,0.2041016 l 0.078613,0.1621094 0.6245117,0.010254 0.00293,-0.2006836 -0.4208984,-0.0083 c 0.01123,-0.014 0.022461,-0.027227 0.033691,-0.040527 0.09057,-0.10953 0.1774109,-0.2228055 0.2602539,-0.3393555 0.08284,-0.11724 0.1499189,-0.2402372 0.2011719,-0.3701172 0.04072,-0.11304 0.055387,-0.2115936 0.043457,-0.2944336 -0.01193,-0.0836 -0.042592,-0.151195 -0.090332,-0.203125 -0.06389,-0.0675 -0.1411539,-0.1051878 -0.2324219,-0.1142578 -0.02211,-0.002 -0.0438,-0.00344 -0.06543,-0.00244 z m 0.9155274,0.012207 c -0.0681,0 -0.1311792,0.022759 -0.1894532,0.068359 -0.05828,0.0449 -0.1090354,0.1072034 -0.1518554,0.1865234 -0.07512,0.14252 -0.1163035,0.3194418 -0.1240235,0.5307617 l -0.00146,0.033691 c 0,0.19587 0.036021,0.3645376 0.1069336,0.5063476 0.03861,0.0766 0.084885,0.1367058 0.1396484,0.1801758 0.05476,0.0437 0.1154339,0.066359 0.1821289,0.068359 h 0.00293 9.766e-4 9.765e-4 v 4.883e-4 4.882e-4 h 9.766e-4 c 0.0681,0 0.1316684,-0.022483 0.1899414,-0.067383 0.05827,-0.0456 0.1090285,-0.10816 0.1518555,-0.1875 0.07512,-0.14252 0.1163034,-0.3194517 0.1240234,-0.5307617 l 9.766e-4,-0.033691 c 0,-0.19587 -0.035541,-0.3650259 -0.1064453,-0.5068359 C 4.5512338,4.1719352 4.50447,4.1123077 4.449707,4.0688477 4.394947,4.0252477 4.3347624,4.002 4.2680664,4 h -0.00342 -0.00244 v -4.883e-4 z m -9.766e-4,0.2021485 h 4.883e-4 4.883e-4 0.00195 0.00146 4.883e-4 c 0.05333,0.005 0.1014873,0.051404 0.1445312,0.1381836 0.05617,0.1116299 0.083984,0.2503256 0.083984,0.4160156 v 0.023926 0.00537 c -0.0063,0.1776201 -0.040271,0.3236132 -0.1020508,0.4394532 -0.05195,0.0983 -0.1059423,0.1479492 -0.1621093,0.1479492 h -0.00244 C 4.1741791,5.3685586 4.12577,5.322145 4.081543,5.234375 4.025373,5.122745 3.9970703,4.9840494 3.9970703,4.8183594 v -0.023926 -0.00537 c 0.0063,-0.17762 0.040759,-0.3236231 0.1025391,-0.4394531 0.05179,-0.098 0.1051548,-0.1476392 0.1611328,-0.1479492 z m 14.2558598,0.6376953 -0.254395,0.010742 -0.156738,2.4448242 c -0.303127,-0.003 -0.607147,-0.00488 -0.91211,-0.00488 -0.142154,0 -0.284018,3.265e-4 -0.425781,9.765e-4 l -0.07178,-2.4296875 -0.261231,-0.011719 0.0791,2.4428711 c -0.317463,0.002 -0.633833,0.0073 -0.949219,0.012695 l -0.309082,-2.4282227 -0.25293,0.016602 0.286133,2.4169922 c -0.363072,0.008 -0.724841,0.017973 -1.084961,0.030273 L 13.713867,4.9248047 13.445801,4.96875 13.929199,7.3505859 c -0.326328,0.0121 -0.651361,0.026192 -0.975097,0.041992 h -4.89e-4 l -0.682617,-2.3491211 -0.276855,0.060547 0.669921,2.3027344 c -0.884031,0.046 -1.757931,0.1056144 -2.620605,0.1777344 L 8.9101562,5.3310547 8.6357422,5.4868164 9.7050781,7.6137695 c -1.120566,0.0984 -2.2223005,0.2183068 -3.3012695,0.3588867 H 6.4033203 L 4.8232422,5.9355469 4.6069336,6.1513672 6.0561523,8.0185547 C 5.8702482,8.0436511 4.4289454,8.2398603 3.0498047,8.4780273 L 1.5209961,6.9018555 1.2739258,7.090332 c 0,0 0.9396975,0.9685132 1.4091797,1.453125 0.083214,0.085895 0.2261033,0.2521048 0.2495117,0.2578125 h 4.883e-4 l 0.359375,-0.073242 C 3.6148565,8.6634923 3.9397302,8.6006165 4.2670898,8.5390625 8.2727376,7.8956901 12.632922,7.5419922 17.193359,7.5419922 c 4.297393,0 8.416383,0.3141219 12.229004,0.8886719 L 29.598145,8.2011719 C 28.58434,8.0465319 27.548847,7.910257 26.494141,7.793457 l 0.578613,-0.9057617 h 4.88e-4 c 1.083473,0.11696 2.146598,0.2543428 3.187012,0.4111328 L 30.436035,7.0693359 C 29.387953,6.9094559 28.316311,6.7692923 27.224609,6.6499023 l 0.512696,-0.8022461 -0.211426,-0.211914 -0.625,0.9794922 h -4.88e-4 c -0.378762,-0.0398 -0.760063,-0.077465 -1.143555,-0.1123047 L 26.26709,5.5375977 26.00293,5.3774414 25.423828,6.4736328 c -0.370512,-0.0321 -0.743032,-0.061567 -1.117676,-0.088867 L 24.758789,5.3530273 24.479004,5.2133789 23.975098,6.3608398 c -0.382851,-0.0264 -0.767907,-0.049989 -1.154786,-0.071289 L 23.177734,5.203125 22.893066,5.0219727 22.102051,7.4277344 h -4.89e-4 c -0.317645,-0.018 -0.636777,-0.034328 -0.957031,-0.048828 l 0.59961,-2.4443359 -0.317383,-0.00293 -0.620117,2.4326172 c -0.361105,-0.0149 -0.72369,-0.028174 -1.087891,-0.038574 l 0.351562,-2.3647461 -0.29541,-0.058105 -0.335937,2.4155274 c -0.352692,-0.009 -0.706127,-0.016196 -1.061524,-0.020996 z m 4.222168,1.6982422 c 0.378242,0.0206 0.754031,0.043836 1.128418,0.069336 l -0.399415,0.9091797 c -0.34135,-0.0249 -0.684182,-0.046971 -1.028808,-0.067871 z m 1.45996,0.092285 c 0.367726,0.0265 0.733428,0.055326 1.097168,0.086426 l -0.481445,0.909668 c -0.336891,-0.0302 -0.675262,-0.058761 -1.015625,-0.084961 z m 1.429688,0.1152344 h 4.88e-4 c 0.375321,0.0336 0.748357,0.070367 1.119141,0.1088867 L 26.169922,7.7587891 C 25.830786,7.7226891 25.489936,7.68837 25.146973,7.65625 Z"
   sodipodi:nodetypes="ccccccccccccccccccccccsccccccccccscccccccccccccsccccccccccscccccccccccccscccccccccccccccccccscccscccccscccccccccccccscccccccccccccsccccccccccsccccscccscccscccccccccccccccccccccccccccsccccccccccccccccccccccccccccccccccccsccccccccccccsccccccccccscccccccscccsccscccccccscccccccccccccccccccccccccccccsccccsccccccccccccccccccccccccccccccccccccccccccccccccccc" /><path
   style="baseline-shift:baseline;display:inline;overflow:visible;vector-effect:none;fill:#ff6e6e;fill-opacity:1;stroke-width:1.00028;stroke-linejoin:round;stroke-miterlimit:0;enable-background:accumulate;stop-color:#000000"
   d="m 31.617709,7.14375 c -0.510016,0 -0.926042,0.41603 -0.926042,0.92605 0,0.51001 0.416026,0.92799 0.926042,0.92799 0.510015,0 0.926041,-0.41798 0.926041,-0.92799 0,-0.51002 -0.416026,-0.92605 -0.926041,-0.92605 z m 0,0.2657 c 0.0477,0 0.04119,0.0765 0.08596,0.0859 -0.14651,0.0586 -0.304771,0.13648 -0.304773,0.30281 -6e-6,0.2177 0.180864,0.3966 0.398549,0.39661 0.166214,-10e-6 0.244094,-0.15649 0.302821,-0.30283 0.03867,0.0842 0.179737,0.0786 0.179737,0.17779 0,0.36698 -0.295312,0.66229 -0.662295,0.66229 -0.366984,0 -0.662297,-0.29531 -0.662296,-0.66229 -10e-7,-0.36699 0.295312,-0.66035 0.662296,-0.66035 z m 0.179737,0.25594 c 0.07465,0 0.130896,0.0582 0.130897,0.13284 2e-6,0.0746 -0.05625,0.13285 -0.130897,0.13285 -0.07465,0 -0.132851,-0.0582 -0.132849,-0.13285 1e-6,-0.0746 0.0582,-0.13284 0.132849,-0.13284 z"
   id="path29" /><path
   d="M 15.358924,13.385405 13.872893,9.8045293 h 0.445155 l 1.230722,3.0637117 1.237268,-3.0637117 h 0.432061 l -1.492577,3.5808757 z m 2.179954,-3.5808757 h 0.39933 v 2.2257727 q 0,0.418969 0.117835,0.628454 0.137474,0.248763 0.373144,0.360052 0.150567,0.07201 0.340412,0.07201 0.189846,0 0.32732,-0.07201 0.242216,-0.111289 0.379691,-0.353506 0.06546,-0.117835 0.09165,-0.268402 0.03273,-0.157113 0.03273,-0.366598 V 9.8045293 h 0.392784 v 2.2257727 q 0,0.229124 -0.03273,0.412423 -0.03273,0.183299 -0.104743,0.340412 -0.157113,0.353506 -0.504072,0.536805 -0.281495,0.124381 -0.582629,0.124381 -0.30768,0 -0.576082,-0.117835 -0.353505,-0.183299 -0.517165,-0.543351 -0.137474,-0.30768 -0.137474,-0.752835 z"
   id="text29"
   style="font-size:6.35px;line-height:1.1;font-family:NATS;-inkscape-font-specification:NATS;text-align:center;letter-spacing:0px;text-anchor:middle;stroke:#8dfff2;stroke-width:0.264583;stroke-linejoin:round;stroke-miterlimit:0"
   aria-label="VU" /><path
   id="path2"
   style="font-size:70.5556px;line-height:1.1;font-family:Moomycraft;-inkscape-font-specification:'Moomycraft, Normal';text-align:center;letter-spacing:0px;text-anchor:middle;fill:#ff6e6e;fill-opacity:1;stroke-width:0.0161754;stroke-linejoin:round;stroke-miterlimit:0;stroke-opacity:0.635294"
   d="m 28.217894,3.8610432 c -0.03186,10e-4 -0.06532,0.0038 -0.09974,0.0088 l 0.03101,0.196371 c 0.09407,-0.0131 0.173378,-0.008 0.237712,0.01654 0.06433,0.0242 0.112697,0.06061 0.14521,0.109037 0.02698,0.0387 0.04356,0.0816 0.04909,0.128675 0.0048,0.047 -0.0017,0.0927 -0.01964,0.136942 -0.02283,0.0553 -0.06505,0.102337 -0.126607,0.141077 -0.0415,0.027 -0.09312,0.04608 -0.153996,0.05788 v 5.17e-4 c -0.03389,0.002 -0.06876,0.0053 -0.10542,0.0093 l 0.0217,0.201538 h 0.0031 v 0.001 c 0.0249,-0.002 0.04917,-0.0053 0.07338,-0.0083 0.09476,-0.007 0.172704,-0.0059 0.233578,0.0031 0.07609,0.0125 0.1289,0.03376 0.158646,0.06356 0.0159,0.0153 0.02274,0.03128 0.02067,0.04858 -0.0035,0.027 -0.02021,0.0559 -0.05064,0.0863 -0.04842,0.0512 -0.120208,0.091 -0.214974,0.119373 -0.09477,0.0277 -0.206545,0.03347 -0.335897,0.01757 l -0.02584,0.199988 c 0.163939,0.02 0.30768,0.01046 0.431498,-0.02894 0.123818,-0.0394 0.21919,-0.0943 0.286288,-0.164848 0.06225,-0.0643 0.09798,-0.133386 0.10697,-0.206706 0.01037,-0.083 -0.01749,-0.156845 -0.0832,-0.221175 -0.03805,-0.0367 -0.09188,-0.06532 -0.161747,-0.08682 0.04634,-0.0463 0.08138,-0.0987 0.104903,-0.156063 0.03182,-0.0768 0.0431,-0.154554 0.03411,-0.234094 -0.0083,-0.0802 -0.03564,-0.154429 -0.08268,-0.222209 -0.05257,-0.0775 -0.127776,-0.136086 -0.225309,-0.176216 -0.07263,-0.0301 -0.156594,-0.04371 -0.252181,-0.04031 z m -3.739824,1.351339 -0.503845,1.147733 c -0.355784,-0.02453 -0.713495,-0.04656 -1.072803,-0.06666 l -0.08371,0.24753 c 0.351314,0.01949 0.700491,0.04141 1.048514,0.06511 l -0.399458,0.909505 c -0.317562,-0.02316 -0.636661,-0.04444 -0.957048,-0.06408 L 22.426,7.6985332 c 2.419981,0.147044 4.760324,0.394397 6.995439,0.731221 l 0.1757,-0.229443 c -1.013805,-0.15464 -2.049498,-0.290927 -3.104204,-0.407727 l 0.578776,-0.905888 h 5.17e-4 c 1.083473,0.11696 2.146472,0.254555 3.186886,0.411345 l 0.1757,-0.229444 c -1.048082,-0.15988 -2.119472,-0.300222 -3.211174,-0.419612 l 0.51263,-0.802019 -0.211356,-0.211873 -0.625285,0.979268 h -5.18e-4 c -0.378762,-0.0398 -0.760107,-0.0773 -1.143599,-0.112137 l 0.510563,-0.965316 -0.264067,-0.160197 -0.579293,1.096057 c -0.370512,-0.0321 -0.743117,-0.06158 -1.117761,-0.08888 l 0.452686,-1.031462 z m -0.280603,1.416968 c 0.367726,0.0265 0.733351,0.0552 1.097091,0.0863 l -0.481108,0.909505 c -0.336891,-0.0302 -0.675595,-0.05855 -1.015958,-0.08475 z m 1.429887,0.115238 h 5.17e-4 c 0.375321,0.0336 0.748527,0.07 1.119311,0.108521 l -0.578259,0.904854 c -0.339136,-0.0361 -0.68023,-0.0702 -1.023193,-0.102319 z" /><path
   id="rect4"
   style="fill:#ff0000;fill-opacity:1;stroke-width:0.0620001;stroke-linecap:square"
   d="m 16.00111,0.97151697 -0.364319,21.01008703 -5.16e-4,0.0015 c -0.03709,0.112183 -0.0039,0.192997 0.04857,0.296625 0.05243,0.103628 0.184895,0.173116 0.316776,0.173116 0.131882,0 0.234929,-0.107098 0.31626,-0.173116 0.08133,-0.06602 0.06151,-0.246615 0.04754,-0.299205 -8.6e-5,-3.22e-4 8.7e-5,-7.11e-4 0,-10e-4 z"
   sodipodi:nodetypes="ccczszscc" /><path
   style="fill:none;stroke:#03ff00;stroke-width:0.0585827;stroke-linecap:square;stroke-opacity:1"
   d="M 15.968403,22.021628 -12.434125,-7.2684786"
   id="path1" /><path
   style="fill:none;stroke:#03ff00;stroke-width:0.0585827;stroke-linecap:square;stroke-opacity:1"
   d="M 16.037961,22.021628 44.440489,-7.2684786"
   id="path5" /><ellipse
   style="fill:#000000;fill-opacity:1;stroke:none;stroke-width:0.0585827;stroke-linecap:square;stroke-opacity:1"
   id="path4"
   cx="16"
   cy="22.059315"
   rx="0.042601999"
   ry="0.0425" /><path
   style="fill:#000000;fill-opacity:1;stroke:#03ff00;stroke-width:0.0585827;stroke-linecap:square;stroke-opacity:1"
   d="M -12.438276,-7.2806066 H 44.335155"
   id="path6"
   sodipodi:nodetypes="cc" /><text
   xml:space="preserve"
   style="font-style:normal;font-variant:normal;font-weight:normal;font-stretch:normal;font-size:10px;line-height:1.1;font-family:'Amatic SC';-inkscape-font-specification:'Amatic SC';text-align:center;letter-spacing:0px;word-spacing:0.00055px;writing-mode:lr-tb;direction:ltr;text-anchor:middle;fill:#000000;fill-opacity:1;stroke:#03ff00;stroke-width:0.0585827;stroke-linecap:square;stroke-opacity:1"
   x="2.0646369"
   y="-25.788485"
   id="text11"><tspan
     sodipodi:role="line"
     id="tspan11"
     style="stroke-width:0.0585827"
     x="2.0646369"
     y="-25.788485">117.672</tspan></text><path
   style="fill:#000000;fill-opacity:1;stroke:#03ff00;stroke-width:0.0585827;stroke-linecap:square;stroke-opacity:1"
   d="M 15.948439,-7.2806066 V 22.078883"
   id="path11"
   sodipodi:nodetypes="cc" /><text
   xml:space="preserve"
   style="font-style:normal;font-variant:normal;font-weight:normal;font-stretch:normal;font-size:10px;line-height:1.1;font-family:'Amatic SC';-inkscape-font-specification:'Amatic SC';text-align:center;letter-spacing:0px;word-spacing:0.00055px;writing-mode:lr-tb;direction:ltr;text-anchor:middle;fill:#000000;fill-opacity:1;stroke:#03ff00;stroke-width:0.0585827;stroke-linecap:square;stroke-opacity:1"
   x="1.6642463"
   y="-14.513264"
   id="text12"><tspan
     sodipodi:role="line"
     id="tspan12"
     style="stroke-width:0.0585827"
     x="1.6642463"
     y="-14.513264">117.672</tspan></text><text
   xml:space="preserve"
   style="font-style:normal;font-variant:normal;font-weight:normal;font-stretch:normal;font-size:10px;line-height:1.1;font-family:'Amatic SC';-inkscape-font-specification:'Amatic SC';text-align:center;letter-spacing:0px;word-spacing:0.00055px;writing-mode:lr-tb;direction:ltr;text-anchor:middle;fill:#000000;fill-opacity:1;stroke:#03ff00;stroke-width:0.0585827;stroke-linecap:square;stroke-opacity:1"
   x="32.896729"
   y="-28.833017"
   id="text13"><tspan
     sodipodi:role="line"
     id="tspan13"
     style="stroke-width:0.0585827"
     x="32.896729"
     y="-28.833017">+/- 44.01</tspan></text></svg>
