<?xml version="1.0" encoding="UTF-8" standalone="no"?>
<!-- Created with Inkscape (http://www.inkscape.org/) -->

<svg
   width="33.866665mm"
   height="16.933332mm"
   viewBox="0 0 33.866665 16.933332"
   version="1.1"
   id="svg1"
   xml:space="preserve"
   xmlns="http://www.w3.org/2000/svg"
   xmlns:svg="http://www.w3.org/2000/svg"><defs
     id="defs1" /><g
     id="layer1"
     transform="translate(99.190331,176.52516)"><rect
       style="fill:#ff0000;fill-opacity:1;stroke:none;stroke-width:0.529167;stroke-linejoin:round;stroke-miterlimit:0;stroke-opacity:0.635294"
       id="rect2"
       width="33.866665"
       height="16.933332"
       x="-99.190331"
       y="-176.52516" /><rect
       style="fill:#ffffff;fill-opacity:1;stroke:none;stroke-width:0.529167;stroke-linejoin:round;stroke-miterlimit:0;stroke-opacity:0.635294"
       id="rect1"
       width="1.5875"
       height="0.26458332"
       x="-97.602829"
       y="-173.87933" /><path
       id="rect3"
       style="fill:#ffffff;fill-opacity:1;stroke:none;stroke-width:0.529167;stroke-linejoin:round;stroke-miterlimit:0;stroke-opacity:0.635294"
       d="m -67.837206,-174.40849 v 0.66146 h -0.661458 v 0.26459 h 0.661458 v 0.66145 h 0.264583 v -0.66145 h 0.661459 v -0.26459 h -0.661459 v -0.66146 z" /><path
       id="text4"
       style="font-size:70.5556px;line-height:1.1;font-family:Moomycraft;-inkscape-font-specification:'Moomycraft, Normal';text-align:center;letter-spacing:0px;text-anchor:middle;fill:#ffffff;stroke-width:0.0161754;stroke-linejoin:round;stroke-miterlimit:0;stroke-opacity:0.635294"
       d="m -80.717065,-173.87898 c -0.03186,0.001 -0.0648,0.004 -0.09922,0.009 l 0.03101,0.19585 c 0.09408,-0.0131 0.173384,-0.008 0.237711,0.0165 0.06433,0.0242 0.112698,0.0606 0.145211,0.10903 0.02698,0.0387 0.04304,0.0816 0.04858,0.12868 0.0048,0.047 -0.0017,0.0927 -0.01964,0.13694 -0.02282,0.0553 -0.06504,0.10234 -0.126608,0.14108 -0.0415,0.027 -0.0926,0.0461 -0.153479,0.0579 v 5.2e-4 c -0.0339,0.002 -0.06928,0.005 -0.105936,0.009 l 0.0217,0.20153 h 0.0031 v 0.001 c 0.02491,-0.002 0.04969,-0.005 0.0739,-0.008 0.09476,-0.007 0.172704,-0.006 0.233577,0.003 0.07609,0.0125 0.1289,0.0338 0.158647,0.0636 0.0159,0.0153 0.02274,0.0313 0.02067,0.0486 -0.0035,0.027 -0.02021,0.0559 -0.05064,0.0863 -0.04842,0.0512 -0.120208,0.0905 -0.214974,0.11885 -0.09477,0.0277 -0.207062,0.034 -0.336414,0.0181 l -0.02584,0.19999 c 0.163938,0.02 0.30768,0.0105 0.431498,-0.0289 0.123819,-0.0394 0.219708,-0.0943 0.286804,-0.16485 0.06225,-0.0643 0.09746,-0.13338 0.106454,-0.2067 0.01037,-0.083 -0.01697,-0.15685 -0.08268,-0.22118 -0.03804,-0.0366 -0.09188,-0.0654 -0.161747,-0.0868 0.04634,-0.0464 0.08087,-0.0981 0.104387,-0.15554 0.03182,-0.0768 0.04362,-0.15507 0.03462,-0.23461 -0.0083,-0.0802 -0.03616,-0.15442 -0.0832,-0.22221 -0.05257,-0.0775 -0.127777,-0.13608 -0.22531,-0.17622 -0.07263,-0.0301 -0.156593,-0.0437 -0.252181,-0.0403 z m 5.152141,0.0724 c -0.06862,0 -0.131966,0.0227 -0.190686,0.0687 -0.05872,0.0453 -0.109809,0.10816 -0.152963,0.1881 -0.0757,0.14361 -0.117277,0.32191 -0.125057,0.53485 l -0.001,0.0341 c 0,0.19738 0.03552,0.36715 0.10697,0.51005 0.03891,0.0771 0.0859,0.13803 0.141077,0.1819 0.05518,0.044 0.116244,0.0667 0.183451,0.0687 h 0.0036 10e-4 0.001 v 5.1e-4 h -5.17e-4 v 5.2e-4 h 0.0016 c 0.06862,0 0.131966,-0.0224 0.190686,-0.0677 0.05872,-0.046 0.109809,-0.10919 0.152962,-0.18914 0.0757,-0.14361 0.117277,-0.32191 0.125057,-0.53485 l 0.0016,-0.0341 c 0,-0.19737 -0.03603,-0.36714 -0.107487,-0.51004 -0.03891,-0.0771 -0.0859,-0.13804 -0.141077,-0.18191 -0.05518,-0.044 -0.116245,-0.0667 -0.183451,-0.0687 h -0.0031 -0.0021 v -0.001 z m -8.039303,0.0858 -0.65474,0.004 -0.02377,0.93638 0.117822,-0.0176 c 0.11133,-0.0169 0.203071,-0.015 0.275435,0.005 0.07236,0.0195 0.125247,0.0497 0.158647,0.0915 0.02919,0.0355 0.04356,0.0742 0.04289,0.11524 -6.93e-4,0.0418 -0.01675,0.081 -0.04806,0.11782 -0.03827,0.0445 -0.09723,0.0773 -0.17725,0.0982 -0.08002,0.0201 -0.182069,0.0205 -0.305924,0.001 l -0.03462,0.19689 c 0.164212,0.0257 0.302082,0.022 0.413412,-0.0114 0.111332,-0.0341 0.196318,-0.0853 0.254765,-0.15348 0.06331,-0.0751 0.09575,-0.15743 0.09715,-0.24649 0.0014,-0.0891 -0.02835,-0.1705 -0.08888,-0.24495 -0.04662,-0.0571 -0.11184,-0.10251 -0.195337,-0.13591 -0.0835,-0.0332 -0.184694,-0.0474 -0.304374,-0.0434 l 0.01344,-0.51056 0.460437,-0.002 z m -4.199227,0.0362 -0.0021,0.20412 0.451135,0.003 -0.360701,1.32705 0.196887,0.0532 0.395325,-1.45314 -0.09767,-0.12867 z m 12.237496,0.0816 h 10e-4 0.0026 0.001 c 0.05406,0.005 0.102666,0.0512 0.146244,0.13901 0.05659,0.11248 0.08475,0.25214 0.08475,0.41909 v 0.0248 0.005 c -0.0064,0.17898 -0.04058,0.32717 -0.102836,0.4439 -0.05235,0.099 -0.106705,0.14831 -0.163298,0.14831 h -0.0021 c -3.33e-4,-3e-5 -7.01e-4,3e-5 -0.001,0 h -0.001 c -0.05299,-0.005 -0.101712,-0.0517 -0.145728,-0.13901 -0.05659,-0.11248 -0.08475,-0.25214 -0.08475,-0.4191 v -0.0243 -0.005 c 0.0064,-0.17899 0.04058,-0.32666 0.102836,-0.44339 0.05203,-0.0984 0.10605,-0.14821 0.162264,-0.14882 z m -15.763379,0.23151 -0.28577,0.33331 0.150895,0.12971 0.106453,-0.12299 -0.01964,1.22008 0.199988,0.003 0.02325,-1.49655 z m 0.764295,0.0269 c -0.06745,0 -0.129872,0.0225 -0.187586,0.0677 -0.05771,0.0445 -0.107958,0.10643 -0.150378,0.18501 -0.0744,0.14116 -0.115343,0.31625 -0.12299,0.52555 l -10e-4,0.0331 c 0,0.194 0.03519,0.36131 0.10542,0.50178 0.03824,0.0758 0.08425,0.13515 0.138493,0.17828 0.05424,0.0432 0.114808,0.0662 0.180868,0.0682 h 0.0031 10e-4 5.17e-4 v 5.2e-4 h -5.17e-4 v 5.2e-4 h 0.0021 c 0.06745,0 0.129872,-0.0226 0.187585,-0.0672 0.05771,-0.0452 0.107959,-0.10694 0.150379,-0.18552 0.07441,-0.14115 0.115343,-0.31624 0.12299,-0.52555 l 10e-4,-0.0336 c 0,-0.19401 -0.03519,-0.36131 -0.10542,-0.50178 -0.03824,-0.0758 -0.08477,-0.13515 -0.139009,-0.17828 -0.05424,-0.0432 -0.114291,-0.0657 -0.180351,-0.0677 h -0.0031 -0.0021 v -0.001 z m -10e-4,0.2005 h 10e-4 0.0031 c 0.0531,0.005 0.101365,0.0501 0.144178,0.13643 0.05563,0.11056 0.0832,0.24775 0.0832,0.41186 v 0.0243 0.005 c -0.0063,0.17593 -0.04009,0.32141 -0.101286,0.43615 -0.05143,0.0973 -0.1046,0.14619 -0.160197,0.14624 h -5.17e-4 -0.0016 c -0.05285,-0.004 -0.101404,-0.05 -0.145211,-0.13694 -0.05563,-0.11057 -0.0832,-0.24776 -0.0832,-0.41186 v -0.0238 -0.005 c 0.0063,-0.17593 0.03958,-0.32142 0.100769,-0.43615 0.05114,-0.0967 0.104426,-0.14512 0.15968,-0.14573 z m 19.59467,0.48059 c -0.03186,0.001 -0.06532,0.004 -0.09974,0.009 l 0.03101,0.19637 c 0.09407,-0.0131 0.173378,-0.008 0.237712,0.0165 0.06433,0.0242 0.112697,0.0606 0.14521,0.10903 0.02698,0.0387 0.04356,0.0816 0.04909,0.12868 0.0048,0.047 -0.0017,0.0927 -0.01964,0.13694 -0.02283,0.0553 -0.06505,0.10234 -0.126607,0.14108 -0.0415,0.027 -0.09312,0.0461 -0.153996,0.0579 v 5.2e-4 c -0.03389,0.002 -0.06876,0.005 -0.10542,0.009 l 0.0217,0.20153 h 0.0031 v 10e-4 c 0.0249,-0.002 0.04917,-0.005 0.07338,-0.008 0.09476,-0.007 0.172704,-0.006 0.233578,0.003 0.07609,0.0125 0.1289,0.0338 0.158646,0.0636 0.0159,0.0153 0.02274,0.0313 0.02067,0.0486 -0.0035,0.027 -0.02021,0.0559 -0.05064,0.0863 -0.04842,0.0512 -0.120208,0.091 -0.214974,0.11937 -0.09477,0.0277 -0.206545,0.0335 -0.335897,0.0176 l -0.02584,0.19999 c 0.163939,0.02 0.30768,0.0105 0.431498,-0.0289 0.123818,-0.0394 0.21919,-0.0943 0.286288,-0.16485 0.06225,-0.0643 0.09798,-0.13338 0.10697,-0.2067 0.01037,-0.083 -0.01749,-0.15685 -0.0832,-0.22118 -0.03805,-0.0367 -0.09188,-0.0653 -0.161747,-0.0868 0.04634,-0.0463 0.08138,-0.0987 0.104903,-0.15606 0.03182,-0.0768 0.0431,-0.15455 0.03411,-0.23409 -0.0083,-0.0802 -0.03564,-0.15443 -0.08268,-0.22221 -0.05257,-0.0775 -0.127776,-0.13609 -0.225309,-0.17622 -0.07263,-0.0301 -0.156594,-0.0437 -0.252181,-0.0403 z m -24.872901,0.12609 c -0.0649,0.004 -0.127549,0.0242 -0.188102,0.0594 -0.0688,0.0407 -0.123611,0.10083 -0.164331,0.18087 -0.04002,0.08 -0.05464,0.17953 -0.04341,0.29817 l 0.200504,-0.0191 c -0.0063,-0.0737 6.45e-4,-0.13432 0.0217,-0.18138 0.02177,-0.0477 0.05201,-0.083 0.08992,-0.10542 0.04213,-0.0237 0.08496,-0.0335 0.129191,-0.0295 0.04072,0.004 0.07494,0.0202 0.102319,0.0496 0.02391,0.0252 0.03736,0.0621 0.04082,0.11059 0.0042,0.0484 -0.0069,0.10855 -0.03359,0.18087 -0.04493,0.11444 -0.105708,0.22604 -0.182935,0.33486 -0.07723,0.10811 -0.15911,0.21409 -0.245463,0.31729 -0.05827,0.0716 -0.112417,0.13953 -0.162264,0.20413 l 0.07906,0.16226 0.624251,0.0103 0.0031,-0.20103 -0.421163,-0.008 c 0.01123,-0.014 0.02236,-0.0275 0.03359,-0.0408 0.09057,-0.10953 0.177606,-0.22245 0.260449,-0.339 0.08284,-0.11724 0.149768,-0.24064 0.201021,-0.37052 0.04072,-0.11304 0.05534,-0.2112 0.04341,-0.29404 -0.01193,-0.0836 -0.04218,-0.15115 -0.08992,-0.20308 -0.06389,-0.0675 -0.141276,-0.10566 -0.232544,-0.11473 -0.02211,-0.002 -0.044,-0.003 -0.06563,-0.002 z m 0.915707,0.0119 c -0.0681,0 -0.131379,0.0226 -0.189653,0.0682 -0.05828,0.0449 -0.109108,0.10723 -0.151928,0.18655 -0.07512,0.14252 -0.116304,0.3194 -0.124024,0.53072 l -0.001,0.0336 c 0,0.19587 0.03554,0.36462 0.106453,0.50643 0.03861,0.0766 0.08528,0.13688 0.140043,0.18035 0.05476,0.0437 0.115206,0.0662 0.181901,0.0682 h 0.0031 10e-4 0.001 v 5.2e-4 5.2e-4 h 0.001 c 0.0681,0 0.13138,-0.0223 0.189653,-0.0672 0.05827,-0.0456 0.109102,-0.10825 0.151929,-0.18759 0.07512,-0.14252 0.116303,-0.3194 0.124023,-0.53071 l 0.001,-0.0341 c 0,-0.19587 -0.03555,-0.36462 -0.106454,-0.50643 -0.03861,-0.0766 -0.08528,-0.13637 -0.140043,-0.17983 -0.05476,-0.0436 -0.115205,-0.0667 -0.181901,-0.0687 h -0.0031 -0.0026 v -5.2e-4 z m -10e-4,0.20205 h 5.17e-4 5.17e-4 0.0021 0.001 5.17e-4 c 0.05333,0.005 0.10165,0.0512 0.144694,0.13798 0.05617,0.11163 0.08423,0.25031 0.08423,0.416 v 0.0243 0.005 c -0.0063,0.17762 -0.04054,0.32393 -0.10232,0.43977 -0.05195,0.0983 -0.106097,0.14779 -0.162264,0.14779 h -0.0021 c -0.05336,-0.004 -0.102017,-0.0502 -0.146244,-0.13797 -0.05617,-0.11163 -0.08423,-0.25031 -0.08423,-0.416 v -0.0243 -0.005 c 0.0063,-0.17762 0.04054,-0.32394 0.10232,-0.43977 0.05179,-0.098 0.105252,-0.14749 0.16123,-0.1478 z m 14.255978,0.63769 -0.254765,0.0109 -0.15658,2.44482 c -0.303127,-0.003 -0.607126,-0.005 -0.912089,-0.005 -0.142154,0 -0.284051,3.5e-4 -0.425814,0.001 l -0.07183,-2.42983 -0.260966,-0.0119 0.07906,2.44326 c -0.317463,0.002 -0.63391,0.007 -0.949296,0.0124 l -0.309025,-2.42827 -0.253215,0.017 0.286288,2.41691 c -0.363072,0.008 -0.724568,0.0177 -1.084688,0.03 l -0.489893,-2.41588 -0.268201,0.0439 0.483692,2.38177 c -0.326328,0.0121 -0.651399,0.0261 -0.975135,0.0419 h -5.16e-4 l -0.682646,-2.34869 -0.276986,0.0605 0.669727,2.3027 c -0.884031,0.046 -1.757838,0.10565 -2.620512,0.17777 l -1.133264,-2.25361 -0.274402,0.15555 1.069185,2.127 c -1.120566,0.0984 -2.222121,0.21857 -3.30109,0.35915 h -5.17e-4 l -1.580265,-2.03708 -0.216008,0.21549 1.449008,1.86758 c -0.74491,0.10056 -1.478988,0.21088 -2.201417,0.33073 l 0.213424,0.22169 c 4.06011,-0.6638 8.489191,-1.02939 13.125297,-1.02939 4.297393,0 8.416607,0.31428 12.229228,0.88883 l 0.1757,-0.22944 c -1.013805,-0.15464 -2.049498,-0.29093 -3.104204,-0.40773 l 0.578777,-0.90588 h 5.16e-4 c 1.083473,0.11696 2.146472,0.25455 3.186886,0.41134 l 0.1757,-0.22944 c -1.048082,-0.15988 -2.119472,-0.30023 -3.211174,-0.41962 l 0.51263,-0.80201 -0.211356,-0.21188 -0.625285,0.97927 h -5.17e-4 c -0.378762,-0.0398 -0.760107,-0.0773 -1.143599,-0.11214 l 0.510563,-0.96531 -0.264067,-0.1602 -0.579292,1.09606 c -0.370512,-0.0321 -0.743118,-0.0616 -1.117762,-0.0889 l 0.452686,-1.03146 -0.27957,-0.14004 -0.503845,1.14773 c -0.382851,-0.0264 -0.76809,-0.05 -1.154968,-0.0713 l 0.357601,-1.08676 -0.284737,-0.18086 -0.791167,2.40553 h -5.16e-4 c -0.317646,-0.018 -0.636794,-0.0341 -0.957048,-0.0486 l 0.599447,-2.4443 -0.317293,-0.003 -0.620118,2.43241 c -0.361105,-0.0149 -0.723588,-0.0278 -1.087789,-0.0382 l 0.3514,-2.36471 -0.295072,-0.0584 -0.335897,2.41536 c -0.352692,-0.009 -0.706554,-0.0159 -1.061951,-0.0207 z m 4.221964,1.69809 c 0.378242,0.0206 0.754226,0.0438 1.128613,0.0693 l -0.399458,0.9095 c -0.34135,-0.0249 -0.684252,-0.0473 -1.028878,-0.0682 z m 1.459859,0.0925 c 0.367726,0.0265 0.733351,0.0552 1.097091,0.0863 l -0.481108,0.90951 c -0.336891,-0.0302 -0.675595,-0.0586 -1.015958,-0.0848 z m 1.429887,0.11524 h 5.17e-4 c 0.375321,0.0336 0.748528,0.07 1.119312,0.10852 l -0.57826,0.90485 c -0.339136,-0.0361 -0.68023,-0.0702 -1.023193,-0.10232 z m -8.435144,15.19907 a 0.13229166,0.13229166 0 0 0 -0.132291,0.13229 0.13229166,0.13229166 0 0 0 0.132291,0.13229 0.13229166,0.13229166 0 0 0 0.132292,-0.13229 0.13229166,0.13229166 0 0 0 -0.132292,-0.13229 z" /><path
       style="baseline-shift:baseline;display:inline;overflow:visible;vector-effect:none;fill:#ffffff;fill-opacity:1;stroke-width:1.00028;stroke-linejoin:round;stroke-miterlimit:0;enable-background:accumulate;stop-color:#000000"
       d="m -67.572622,-169.38141 c -0.510016,0 -0.926042,0.41603 -0.926042,0.92605 0,0.51001 0.416026,0.92799 0.926042,0.92799 0.510015,0 0.926041,-0.41798 0.926041,-0.92799 0,-0.51002 -0.416026,-0.92605 -0.926041,-0.92605 z m 0,0.2657 c 0.0477,0 0.04119,0.0765 0.08596,0.0859 -0.14651,0.0586 -0.304771,0.13648 -0.304773,0.30281 -6e-6,0.2177 0.180864,0.3966 0.398549,0.39661 0.166214,-1e-5 0.244094,-0.15649 0.302821,-0.30283 0.03867,0.0842 0.179737,0.0786 0.179737,0.17779 0,0.36698 -0.295312,0.66229 -0.662295,0.66229 -0.366984,0 -0.662297,-0.29531 -0.662296,-0.66229 -10e-7,-0.36699 0.295312,-0.66035 0.662296,-0.66035 z m 0.179737,0.25594 c 0.07465,0 0.130896,0.0582 0.130897,0.13284 2e-6,0.0746 -0.05625,0.13285 -0.130897,0.13285 -0.07465,0 -0.132851,-0.0582 -0.132849,-0.13285 10e-7,-0.0746 0.0582,-0.13284 0.132849,-0.13284 z"
       id="path29" /><text
       xml:space="preserve"
       style="font-style:normal;font-variant:normal;font-weight:normal;font-stretch:normal;font-size:6.35px;line-height:1.1;font-family:NATS;-inkscape-font-specification:NATS;text-align:center;letter-spacing:0px;writing-mode:lr-tb;direction:ltr;text-anchor:middle;fill:none;fill-opacity:1;stroke:#ffffff;stroke-width:0.264583;stroke-linejoin:round;stroke-miterlimit:0;stroke-dasharray:none;stroke-opacity:1"
       x="-82.119522"
       y="-163.17249"
       id="text29"><tspan
         id="tspan29"
         style="font-style:normal;font-variant:normal;font-weight:normal;font-stretch:normal;font-size:6.35px;font-family:NATS;-inkscape-font-specification:NATS;fill:none;stroke:#ffffff;stroke-width:0.264583;stroke-opacity:1"
         x="-82.119522"
         y="-163.17249">VU</tspan></text></g></svg>
