<?xml version="1.0" encoding="utf-8"?>
<svg height="64" space="preserve" version="1.1" viewBox="0 0 128 64" width="128">
<defs/>
<rect height="64" paint-order="markers stroke fill" stroke-linecap="round" stroke-linejoin="round" stroke-miterlimit="0" stroke-width="0.3" width="128" x="0" y="0"/>
<path d="M 14.031 21.441 C 7.493 21.356 5.3446 27.022 4.8125 34.807 l .48047 17.164 c 4.7417 9.6611 10.889 8.4318 17.324 4.9707 3.4681-1.5058 6.9218-3.0194 15.398-1.6035 l 5.9336 2.2461 4.8125-1.9258 .48047-4.8105-5.7734-2.8887-.80273-3.0469 .05078-.16016 h -.85156 v -7.8594 h 2.7793 l -1.4961-1.123-1.123-3.209 2.8867-4.3301 c 2.6001 .12828 4.1222-1.4683 8.6621 1.7637 1.872-1.2112-.22496-4.1864-2.0859-7.0566-5.3134-1.4501-9.2399 1.2606-13.795 2.0859-3.9554 .59585-8.2347 .90626-15.559-1.4453 C 18.877 22.137 16.211 21.47 14.031 21.441Z M 17 37 h 6 v 7.0645 h -6z m 8.6426 0 h 2.0293 l -1.2363 7.209-1.9707-.33789z m 6.168 0 h 2 v 7.1563 h -2z m 6 0 h 1.9688 v 7.1563 h -1.9688z M 13.5 48 C 14.328 48 15 48.672 15 49.5 15 50.328 14.328 51 13.5 51 12.672 51 12 50.328 12 49.5 12 48.672 12.672 48 13.5 48Z m 4 0 C 18.328 48 19 48.672 19 49.5 19 50.328 18.328 51 17.5 51 16.672 51 16 50.328 16 49.5 16 48.672 16.672 48 17.5 48Z m -2 4 C 16.328 52 17 52.672 17 53.5 17 54.328 16.328 55 15.5 55 14.672 55 14 54.328 14 53.5 14 52.672 14.672 52 15.5 52Z" fill="#27c6ff" paint-order="markers stroke fill" stroke="#000" stroke-linecap="round" stroke-linejoin="round" stroke-miterlimit="0" stroke-width="0.5"/>
<path d="m 103 31 v 1 h 1 v 3 h -9 v 1 h -1 v 1.0176 C 93.643 37.005 93.28 37 92.912 37 H 54 49 42.668 V 35 H 42 V 34.867 H 12.25 V 45.795 H 42.668 V 45 L 95 43.514 104 45.813 V 49 h -1 v 1 h 3 v -1 h -1 v -2.9316 l 1.2773 .32617 L 108 46.484 V 49 h -1 v 1 h 3 v -1 h -1 v -2.4648 l 3 .1543 V 49 h -1 v 1 h 3 v -1 h -1 v -2.2578 l 4 .20703 V 46 h 1 V 36 h -1 v -1 h -4 v -3 h 1 v -1 h -3 v 1 h 1 v 3 h -3 v -3 h 1 v -1 h -3 v 1 h 1 v 3 h -3 v -3 h 1 v -1z m -86 6 h 6 v 7.0645 h -6z m 8.6426 0 h 2.0293 l -1.2363 7.209-1.9707-.33789z m 6.168 0 h 2 v 7.1563 h -2z m 6 0 h 2 v 7.1563 h -2z M 102 37 c 1.6569 0 3 .44772 3 1 0-.55229 1.3432-1 3-1 1.6569 0 3 .44772 3 1 0-.55229 1.3432-1 3-1 1.6569 0 3 .44772 3 1 0 .55229-1.3432 1-3 1-1.6569 0-3-.44772-3-1 0 .55229-1.3432 1-3 1-1.6569 0-3-.44772-3-1 0 .55229-1.3432 1-3 1-1.6569 0-3-.44772-3-1 0-.55229 1.3432-1 3-1z m 0 4 c 1.6569 0 3 .44772 3 1 0-.55229 1.3432-1 3-1 1.6569 0 3 .44772 3 1 0-.55229 1.3432-1 3-1 1.6569 0 3 .44772 3 1 0 .55229-1.3432 1-3 1-1.6569 0-3-.44772-3-1 0 .55229-1.3432 1-3 1-1.6569 0-3-.44772-3-1 0 .55229-1.3432 1-3 1-1.6569 0-3-.44772-3-1 0-.55229 1.3432-1 3-1z" fill="#fff" paint-order="markers stroke fill" stroke="#989898" stroke-linecap="round" stroke-linejoin="round" stroke-miterlimit="0" stroke-width="0.3"/>
<path d="m 16 42 v 1 h 100 v -1z" fill="#402424" fill-opacity="{{ripple-even}}" paint-order="markers stroke fill" stroke-linecap="round" stroke-linejoin="round" stroke-miterlimit="0" stroke-width="0.3"/>
<path d="m 16 40 v 1 h 100 v -1z" fill="#402424" fill-opacity="{{blink-even}}" paint-order="markers stroke fill" stroke-linecap="round" stroke-linejoin="round" stroke-miterlimit="0" stroke-width="0.3"/>
<path d="m 16 38 v 1 h 100 v -1z" fill="#402424" fill-opacity="{{ripple-odd}}" paint-order="markers stroke fill" stroke-linecap="round" stroke-linejoin="round" stroke-miterlimit="0" stroke-width="0.3"/>
<circle cx="25.413" cy="39.517" fill="none" paint-order="markers stroke fill" r="10" stroke="#000" stroke-linecap="round" stroke-linejoin="round" stroke-miterlimit="0" stroke-width="0.5"/>
<rect fill="#fff" height="9.4647" paint-order="markers stroke fill" stroke="#000" stroke-linecap="round" stroke-linejoin="round" stroke-miterlimit="0" stroke-width="0.500054" transform="translate({{progress-arc}}, 0)" width="3.0479" x="48.25" y="36.25"/>
<path d="m 17 37 v 7.0645 h 6 V 37Z m 8.6426 0-1.1777 6.8711 1.9707 .33789 L 27.672 37Z m 6.168 0 v 7.1563 h 2 V 37Z m 6 0 v 7.1563 h 1.9688 V 37Z M 13.5 48 C 12.672 48 12 48.672 12 49.5 12 50.328 12.672 51 13.5 51 14.328 51 15 50.328 15 49.5 15 48.672 14.328 48 13.5 48Z m 4 0 C 16.672 48 16 48.672 16 49.5 16 50.328 16.672 51 17.5 51 18.328 51 19 50.328 19 49.5 19 48.672 18.328 48 17.5 48Z m -2 4 C 14.672 52 14 52.672 14 53.5 14 54.328 14.672 55 15.5 55 16.328 55 17 54.328 17 53.5 17 52.672 16.328 52 15.5 52Z" fill="#f00" paint-order="markers stroke fill" stroke="#fff" stroke-linecap="round" stroke-linejoin="round" stroke-miterlimit="0" stroke-width="0.5"/>
<path d="m 102.89 30.979 v 1.2656 l 1.0644-.11328 .0723 2.8203 h 1.082 l .0625-2.8027 .80274-.01953 v -1.1504z m 3.9746 0-.002 1.2656 1.0644-.11328 .0723 2.8203 h 1.084 l .0605-2.8027 .80273-.01953 v -1.1504z m 3.9141 0 v 1.2656 l 1.0645-.11328 .0723 2.8203 h 1.082 l .0625-2.8027 .80078-.01953 v -1.1504z m -6.752 15.203-.0723 2.8203-1.0644-.11328 v 1.2656 h 3.084 v -1.1504 l -.80274-.01953-.0625-2.8027z m 3.9727 0-.0723 2.8203-1.0644-.11328 .002 1.2656 h 3.082 v -1.1504 l -.80273-.01953-.0605-2.8027z m 3.916 0-.0723 2.8203-1.0645-.11328 v 1.2656 h 3.082 v -1.1504 l -.80078-.01953-.0625-2.8027z" fill="#a8a8a8" stroke-linecap="square" stroke-width="1.18966"/>
<path d="m 52.759 23.544 .20677 .3383-.71326 .43596 .16298 .26664 .71326-.43596 .20677 .3383 .26664-.16297" fill="#a8a8a8" stroke-linecap="square"/>
</svg>
