<?xml version="1.0" encoding="UTF-8" standalone="no"?>
<!-- Blinky Bass - Created by shunte88 -->

<svg
   version="1.1"
   id="svg1"
   width="128"
   height="64"
   viewBox="0 0 128 64"
   xml:space="preserve"
   xmlns="http://www.w3.org/2000/svg"
   xmlns:svg="http://www.w3.org/2000/svg">
   <rect
   style="fill:#ff0000;fill-opacity:1;stroke-width:0.3;stroke-linecap:round;stroke-linejoin:round;stroke-miterlimit:0;paint-order:markers stroke fill"
   id="rect29"
   width="128"
   height="64"
   x="0"
   y="0" /><path
   id="path2"
   style="fill:#ffffff;fill-opacity:1;stroke:#000000;stroke-width:0.5;stroke-linecap:round;stroke-linejoin:round;stroke-miterlimit:0;paint-order:markers stroke fill"
   d="M 14.03125,21.441406 C 7.4929826,21.355916 5.3445591,27.021927 4.8125,34.806641 l 0.4804688,17.164062 c 4.7417052,9.661146 10.8893182,8.431822 17.3242192,4.970703 3.468099,-1.50576 6.921835,-3.019377 15.398437,-1.603515 l 5.933594,2.246093 4.8125,-1.925781 0.480469,-4.810547 -5.773438,-2.888672 -0.802734,-3.046875 0.05078,-0.160156 h -0.851563 v -7.859375 h 2.779297 l -1.496093,-1.123047 -1.123047,-3.208984 2.886718,-4.330078 c 2.600113,0.128279 4.122171,-1.468329 8.66211,1.763672 1.872,-1.211186 -0.224961,-4.186354 -2.085938,-7.056641 -5.31344,-1.450084 -9.239941,1.260647 -13.794922,2.085938 -3.955385,0.595846 -8.234732,0.906256 -15.558593,-1.445313 C 18.877244,22.136948 16.21067,21.469903 14.03125,21.441406 Z M 17,37 h 6 v 7.064453 h -6 z m 8.642578,0 h 2.029297 l -1.236328,7.208984 -1.970703,-0.33789 z m 6.167969,0 h 2 v 7.15625 h -2 z m 6,0 h 1.96875 v 7.15625 h -1.96875 z M 13.5,48 C 14.328427,48 15,48.671573 15,49.5 15,50.328427 14.328427,51 13.5,51 12.671573,51 12,50.328427 12,49.5 12,48.671573 12.671573,48 13.5,48 Z m 4,0 C 18.328427,48 19,48.671573 19,49.5 19,50.328427 18.328427,51 17.5,51 16.671573,51 16,50.328427 16,49.5 16,48.671573 16.671573,48 17.5,48 Z m -2,4 C 16.328427,52 17,52.671573 17,53.5 17,54.328427 16.328427,55 15.5,55 14.671573,55 14,54.328427 14,53.5 14,52.671573 14.671573,52 15.5,52 Z" /><path
   id="rect1"
   style="fill:#ffffff;fill-opacity:1;stroke:#000000;stroke-width:0.3;stroke-linecap:round;stroke-linejoin:round;stroke-miterlimit:0;stroke-opacity:1;paint-order:markers stroke fill"
   d="m 103,31 v 1 h 1 v 3 h -9 v 1 h -1 v 1.017578 C 93.642984,37.005361 93.280004,37 92.912109,37 H 54 49 42.667969 V 35 H 42 V 34.867188 H 12.25 V 45.794922 H 42.667969 V 45 L 95,43.513672 104,45.8125 V 49 h -1 v 1 h 3 v -1 h -1 v -2.931641 l 1.27734,0.326172 L 108,46.484375 V 49 h -1 v 1 h 3 v -1 h -1 v -2.464844 l 3,0.154297 V 49 h -1 v 1 h 3 v -1 h -1 v -2.257812 l 4,0.207031 V 46 h 1 V 36 h -1 v -1 h -4 v -3 h 1 v -1 h -3 v 1 h 1 v 3 h -3 v -3 h 1 v -1 h -3 v 1 h 1 v 3 h -3 v -3 h 1 v -1 z m -86,6 h 6 v 7.064453 h -6 z m 8.642578,0 h 2.029297 l -1.236328,7.208984 -1.970703,-0.33789 z m 6.167969,0 h 2 v 7.15625 h -2 z m 6,0 h 2 v 7.15625 h -2 z M 102,37 c 1.65685,0 3,0.447715 3,1 0,-0.552285 1.34315,-1 3,-1 1.65685,0 3,0.447715 3,1 0,-0.552285 1.34315,-1 3,-1 1.65685,0 3,0.447715 3,1 0,0.552285 -1.34315,1 -3,1 -1.65685,0 -3,-0.447715 -3,-1 0,0.552285 -1.34315,1 -3,1 -1.65685,0 -3,-0.447715 -3,-1 0,0.552285 -1.34315,1 -3,1 -1.65685,0 -3,-0.447715 -3,-1 0,-0.552285 1.34315,-1 3,-1 z m 0,4 c 1.65685,0 3,0.447715 3,1 0,-0.552285 1.34315,-1 3,-1 1.65685,0 3,0.447715 3,1 0,-0.552285 1.34315,-1 3,-1 1.65685,0 3,0.447715 3,1 0,0.552285 -1.34315,1 -3,1 -1.65685,0 -3,-0.447715 -3,-1 0,0.552285 -1.34315,1 -3,1 -1.65685,0 -3,-0.447715 -3,-1 0,0.552285 -1.34315,1 -3,1 -1.65685,0 -3,-0.447715 -3,-1 0,-0.552285 1.34315,-1 3,-1 z" />
   <path
   style="fill:#402424;fill-opacity:{{ripple-even}};stroke-width:0.3;stroke-linecap:round;stroke-linejoin:round;stroke-miterlimit:0;paint-order:markers stroke fill"
   d="m 16,42 v 1 h 100 v -1 z"
   id="ripple-02-odd" />
   <path
   style="fill:#402424;fill-opacity:{{blink-even}};stroke-width:0.3;stroke-linecap:round;stroke-linejoin:round;stroke-miterlimit:0;paint-order:markers stroke fill"
   d="m 16,40 v 1 h 100 l -12,-1 z"
   id="ripple-01-even" />
   <path
   style="fill:#402424;fill-opacity:{{ripple-odd}};stroke-width:0.3;stroke-linecap:round;stroke-linejoin:round;stroke-miterlimit:0;paint-order:markers stroke fill"
   d="m 16,38 v 1 h 100 v -1 z"
   id="ripple-01-odd" />
   <circle
   style="fill:none;fill-opacity:1;stroke:#000000;stroke-width:0.5;stroke-linecap:round;stroke-linejoin:round;stroke-miterlimit:0;stroke-dasharray:none;stroke-opacity:1;paint-order:markers stroke fill"
   id="path30"
   cx="25.412769"
   cy="39.516533"
   r="10" />
<rect
   style="fill:#ffffff;stroke:#000000;stroke-width:0.500054;stroke-linecap:round;stroke-linejoin:round;stroke-miterlimit:0;paint-order:markers stroke fill"
   transform="translate({{progress-arc}}, 0)"
   id="progress-pct"
   width="3.0479462"
   height="9.4646749"
   x="48.250031"
   y="36.250027" /><path
   id="rect3"
   style="fill:#ff0000;fill-opacity:1;stroke:#ffffff;stroke-width:0.5;stroke-linecap:round;stroke-linejoin:round;stroke-miterlimit:0;stroke-opacity:1;paint-order:markers stroke fill"
   d="m 17,37 v 7.064453 h 6 V 37 Z m 8.642578,0 -1.177734,6.871094 1.970703,0.33789 L 27.671875,37 Z m 6.167969,0 v 7.15625 h 2 V 37 Z m 6,0 v 7.15625 h 1.96875 V 37 Z M 13.5,48 C 12.671573,48 12,48.671573 12,49.5 12,50.328427 12.671573,51 13.5,51 14.328427,51 15,50.328427 15,49.5 15,48.671573 14.328427,48 13.5,48 Z m 4,0 C 16.671573,48 16,48.671573 16,49.5 16,50.328427 16.671573,51 17.5,51 18.328427,51 19,50.328427 19,49.5 19,48.671573 18.328427,48 17.5,48 Z m -2,4 C 14.671573,52 14,52.671573 14,53.5 14,54.328427 14.671573,55 15.5,55 16.328427,55 17,54.328427 17,53.5 17,52.671573 16.328427,52 15.5,52 Z" /></svg>
