<?xml version="1.0" encoding="UTF-8" standalone="no"?>
<!-- Created with Inkscape (http://www.inkscape.org/) -->

<svg
   width="8.9958334mm"
   height="8.9958334mm"
   viewBox="0 0 8.9958335 8.9958335"
   version="1.1"
   id="svg1"
   xml:space="preserve"
   xmlns="http://www.w3.org/2000/svg"
   xmlns:svg="http://www.w3.org/2000/svg"><defs
     id="defs1" /><rect
     style="fill:#000000;fill-opacity:1;stroke-width:0.76729;stroke-linecap:round;stroke-linejoin:round;stroke-miterlimit:0"
     id="rect2"
     width="8.9958334"
     height="8.9958334"
     x="-1.110223e-16"
     y="1.110223e-16" /><path
     id="path84"
     style="baseline-shift:baseline;display:inline;overflow:visible;opacity:1;vector-effect:none;fill:#ffffff;stroke-width:1.45152;stroke-linecap:round;stroke-linejoin:round;stroke-miterlimit:0;enable-background:accumulate;stop-color:#000000;stop-opacity:1"
     d="m 3.7571374,2.2553358 a 0.10001,0.10001 0 0 0 -0.02739,0.0062 c -0.886212,0.342386 -1.472738,1.194518 -1.472779,2.1445719 3.5e-5,0.558696 0.20007,1.071785 0.532268,1.4707112 a 2.2,2.2 0 0 0 0.37517,0.3829225 l -0.04599,-0.059945 c 0.08507,0.068417 0.174887,0.1311172 0.269235,0.1870687 l 0.04237,0.054777 a 2.2,2.2 0 0 0 0.262,0.1302246 l -0.03876,-0.050126 c 0.05769,0.024751 0.116741,0.047129 0.176733,0.067179 l 0.03617,0.047025 h 5.17e-4 a 2.2,2.2 0 0 0 0.203605,0.054777 l -0.03307,-0.042891 c 0.0486,0.011277 0.09808,0.020804 0.147795,0.028939 l 0.03101,0.040308 a 2.2,2.2 0 0 0 0.185001,0.019637 l -0.02842,-0.037207 c 0.04013,0.00322 0.08025,0.00559 0.120923,0.00672 l 0.02687,0.034623 a 2.2,2.2 0 0 0 5.17e-4,0 2.2,2.2 0 0 0 0.01654,0 2.2,2.2 0 0 0 0.148828,-0.00517 l -0.02377,-0.031006 c 0.0374,-0.0017 0.07461,-0.00426 0.1116209,-0.00775 l 0.02222,0.028939 a 2.2,2.2 0 0 0 0.151412,-0.023771 l -0.01912,-0.024805 c 0.03676,-0.006 0.0728,-0.012928 0.109037,-0.020671 h 5.17e-4 l 0.01705,0.022221 a 2.2,2.2 0 0 0 0.130225,-0.035657 l -0.01499,-0.01912 c 0.02916,-0.00808 0.05809,-0.016644 0.08682,-0.025838 h 5.17e-4 l 0.01292,0.017053 a 2.2,2.2 0 0 0 0.132808,-0.051676 l -0.01085,-0.013953 c 0.0319,-0.012463 0.06384,-0.025429 0.09509,-0.039274 l 0.0083,0.010852 a 2.2,2.2 0 0 0 0.115239,-0.060461 l -0.0052,-0.00672 c 0.02963,-0.015203 0.05894,-0.031088 0.08785,-0.047542 l 0.0031,0.00413 a 2.2,2.2 0 0 0 0.10387,-0.069247 2.2,2.2 0 0 0 0.0031,-0.00207 C 6.2287953,6.0649697 6.5622652,5.6516813 6.733705,5.1502403 A 0.10001,0.10001 0 0 0 6.6029636,5.0251833 c -0.2412281,0.09318 -0.4974263,0.141012 -0.7560263,0.141076 -1.1610759,-7e-5 -2.0998139,-0.938538 -2.0996129,-2.0996129 -7.9e-5,-0.230894 0.03862,-0.461534 0.113171,-0.680062 a 0.10001,0.10001 0 0 0 -0.103353,-0.131258 z m -0.143144,0.335897 c 0.0032,0.00449 0.0066,0.00901 0.0098,0.013436 -0.0087,0.039417 -0.01846,0.078921 -0.02739,0.118339 l -0.06615,-0.085267 c 0.02751,-0.015905 0.05546,-0.03165 0.08371,-0.046508 z m -0.198437,0.117305 0.146244,0.189653 c -2.5e-5,1.66e-4 2.6e-5,3.5e-4 0,5.16e-4 -0.0068,0.04429 -0.01126,0.088439 -0.01292,0.133326 l -0.209289,-0.271302 c 0.02494,-0.017836 0.05024,-0.035288 0.07596,-0.052193 z m -0.183451,0.133842 0.324528,0.420646 c 0.0056,0.065645 0.01384,0.130344 0.0248,0.194304 l -0.425297,-0.550871 c 0.02477,-0.02188 0.05016,-0.043226 0.075969,-0.064079 z m -0.169499,0.151412 0.593245,0.769462 v 5.17e-4 c 0.03825,0.12027 0.08601,0.235959 0.142627,0.346749 l -0.805635,-1.044381 c 0.02271,-0.024677 0.04587,-0.048665 0.06976,-0.072347 z M 2.9075774,3.1643238 5.3523893,6.33519 c -0.03114,0.014031 -0.06265,0.027383 -0.09457,0.039791 L 2.8450464,3.245456 c 0.02029,-0.027547 0.04087,-0.054546 0.06253,-0.081132 z m -0.140044,0.193787 2.3548949,3.0638956 c -0.02912,0.00889 -0.05871,0.017275 -0.08837,0.024805 L 2.7179204,3.4402761 c 0.01598,-0.027798 0.03232,-0.055139 0.04961,-0.082165 z m -0.115238,0.205672 0.545186,0.7058999 c 0.02409,0.03803 0.05037,0.075991 0.077,0.110588 l 1.6174729,2.0970295 c -0.03497,0.00611 -0.07035,0.010793 -0.105937,0.014986 L 2.6063054,3.6661017 c 0.01444,-0.034675 0.02962,-0.068589 0.04599,-0.1023189 z m -0.100769,0.251148 2.074292,2.6897579 c -0.02251,7.778e-4 -0.04498,0.00103 -0.0677,0.00103 -0.01649,-1e-6 -0.03321,-1.391e-4 -0.04961,-5.168e-4 L 2.5189664,3.9255143 c 0.0097,-0.037412 0.02073,-0.074029 0.03256,-0.110587 z m -0.06873,0.283703 1.846916,2.3952028 c -0.04364,-0.0047 -0.08691,-0.010758 -0.129708,-0.018087 h -5.17e-4 L 2.4662604,4.2283414 c 1.6e-5,-1.71e-4 -1.6e-5,-3.46e-4 0,-5.17e-4 0.004,-0.043337 0.0097,-0.086723 0.01654,-0.1291909 z m -0.02429,0.3400309 1.535824,1.9910931 c -0.05655,-0.015685 -0.112406,-0.034077 -0.166915,-0.05426 h -5.17e-4 L 2.4683254,4.6138479 c -0.0057,-0.057786 -0.0089,-0.116107 -0.0098,-0.175183 z m 1.614372,0.089917 c 0.421734,0.510983 1.0601069,0.836598 1.7740519,0.836642 0.194358,-4.8e-5 0.380954,-0.056951 0.5684408,-0.10542 -0.010876,0.02333 -0.022009,0.046371 -0.03359,0.069246 a 2.2,2.2 0 0 1 -0.063562,0.015503 l 0.033073,0.042891 c -0.017657,0.032597 -0.036218,0.064563 -0.055294,0.096119 l -0.0894,-0.116272 a 2.2,2.2 0 0 1 -0.149862,0.021187 l 0.163815,0.21239 c -0.01838,0.026639 -0.03743,0.052821 -0.05684,0.078548 l -0.217558,-0.282153 a 2.2,2.2 0 0 1 -0.119373,0.0031 2.2,2.2 0 0 1 -0.04806,-5.17e-4 l 0.298173,0.3870562 c -0.02047,0.023912 -0.04113,0.04734 -0.06253,0.07028 L 5.6562453,5.3936447 a 2.2,2.2 0 0 1 -0.187069,-0.022738 l 0.449069,0.5829101 c -0.02244,0.021236 -0.04493,0.041817 -0.06821,0.062012 L 5.3317203,5.344035 A 2.2,2.2 0 0 1 5.1136453,5.281507 l 0.632003,0.8190712 c -0.02639,0.02009 -0.05333,0.039623 -0.08061,0.058394 L 4.9338173,5.2107097 a 2.2,2.2 0 0 1 -5.17e-4,-5.17e-4 2.2,2.2 0 0 1 -0.2733689,-0.144694 l 0.8965869,1.1632367 c -0.02849,0.01705 -0.05699,0.033476 -0.0863,0.049093 L 4.3633094,4.8427741 a 2.2,2.2 0 0 1 -5.17e-4,-5.17e-4 2.2,2.2 0 0 1 -0.289905,-0.313676 z m -1.561145,0.350883 1.068669,1.3859621 C 3.4979924,6.2220658 3.4186684,6.1732408 3.3432074,6.1196993 L 2.5918324,5.1455987 c -0.0323,-0.086031 -0.05918,-0.175135 -0.080099,-0.266134 z m 3.6798789,0.672827 0.03256,0.042375 c -9.4e-4,0.00137 -0.0016,0.00277 -0.0026,0.00413 -0.0099,-0.015506 -0.01972,-0.03075 -0.02997,-0.046509 z" /></svg>
