<?xml version="1.0" encoding="UTF-8" standalone="no"?>
<svg
   width="16"
   height="16"
   viewBox="0 0 4.2333334 4.2333334"
   version="1.1"
   xml:space="preserve"
   id="svg1"
   xmlns="http://www.w3.org/2000/svg"
   xmlns:svg="http://www.w3.org/2000/svg"><defs
   id="defs1" />
     <rect
   style="fill:#000000;fill-opacity:1;stroke-width:2.01427;stroke-linecap:round;stroke-linejoin:round;stroke-miterlimit:0"
   id="rect1"
   width="4.2333336"
   height="4.2333336"
   x="-9.3823239e-08"
   y="-9.3823239e-08" /><path
   id="path1"
   style="fill:#ffffff;fill-opacity:1;stroke-width:0.611772"
   d="m 3.517098,0.37878825 -0.1297079,0.091984 0.1219564,0.13745931 a 0.2,0.2 0 0 0 -0.042375,0.12350667 0.2,0.2 0 0 0 0.00103,0.0186035 l -0.1751831,0.061495 0.067696,0.13487549 0.1508952,-0.0888835 a 0.2,0.2 0 0 0 0.1012858,0.0661458 l -0.00413,0.19120278 0.162264,-0.021187 -0.035657,-0.1741496 a 0.2,0.2 0 0 0 0.089917,-0.0656291 l 0.160197,0.0878499 0.07028,-0.14262695 -0.188619,-0.0604614 a 0.2,0.2 0 0 0 0,-0.007235 0.2,0.2 0 0 0 -0.029456,-0.10438639 L 3.9790853,0.50901286 3.8746989,0.40049235 3.7527425,0.55087077 a 0.2,0.2 0 0 0 -0.085783,-0.0191203 0.2,0.2 0 0 0 -0.058911,0.008785 z M 0.73225505,0.38343913 0.631486,0.54570312 A 0.2,0.2 0 0 0 0.5860107,0.54053512 0.2,0.2 0 0 0 0.5012614,0.55965542 L 0.37827148,0.39067383 0.26820068,0.49402669 0.41806234,0.63251953 a 0.2,0.2 0 0 0 -0.0310059,0.0904338 l -0.20928955,0.0573608 0.0666626,0.14934489 0.16794841,-0.089917 a 0.2,0.2 0 0 0 0.0775147,0.0759644 L 0.451652,1.091923 0.60874835,1.117761 0.61236535,0.93896061 a 0.2,0.2 0 0 0 0.12143962,-0.063562 l 0.13125814,0.0868164 0.0738973,-0.1317749 -0.15451253,-0.063562 a 0.2,0.2 0 0 0 0.00155,-0.026355 A 0.2,0.2 0 0 0 0.7358724,0.60771484 L 0.85782878,0.48162435 Z M 1.7027384,0.76016032 a 0.06118321,0.06118321 0 0 0 -0.00878,5.1676e-4 v 5.1677e-4 a 0.06118321,0.06118321 0 0 0 -0.016536,0.004134 C 1.1352583,0.97478998 0.77620541,1.4961736 0.77618001,2.0773926 0.77620141,2.419187 0.89902697,2.733027 1.1022583,2.9770793 a 1.3458963,1.3458963 0 0 0 0.2294434,0.2340942 l -0.028422,-0.03669 c 0.052041,0.041872 0.1071295,0.080012 0.1648478,0.114205 l 0.025838,0.03359 a 1.3458963,1.3458963 0 0 0 0.1601969,0.079582 l -0.023771,-0.030489 c 0.035293,0.015045 0.071292,0.028609 0.1080038,0.040824 l 0.022221,0.028939 h 5.168e-4 a 1.3458963,1.3458963 0 0 0 0.1245402,0.03359 l -0.020671,-0.026355 c 0.029735,0.0064 0.060011,0.013067 0.090434,0.01757 l 0.01912,0.024805 a 1.3458963,1.3458963 0 0 0 0.1131714,0.011886 l -0.017053,-0.02274 c 0.024552,0.00175 0.049013,0.00348 0.073897,0.00413 l 0.01602,0.021187 a 1.3458963,1.3458963 0 0 0 5.168e-4,0 1.3458963,1.3458963 0 0 0 0.010335,0 1.3458963,1.3458963 0 0 0 0.09095,-0.0031 l -0.014469,-0.01912 c 0.022878,-9.973e-4 0.045565,-0.00223 0.068213,-0.00413 l 0.013953,0.01757 A 1.3458963,1.3458963 0 0 0 2.4225914,3.481959 L 2.4107064,3.466456 c 0.022488,-0.0035 0.0445,-0.0079 0.066663,-0.012402 h 5.167e-4 L 2.4882211,3.46749 A 1.3458963,1.3458963 0 0 0 2.5678031,3.445786 L 2.5585031,3.4339 c 0.017812,-0.0045 0.035651,-0.010884 0.053227,-0.01602 h 5.168e-4 l 0.00775,0.010852 a 1.3458963,1.3458963 0 0 0 0.081132,-0.031523 l -0.00672,-0.00879 C 2.7139269,3.380269 2.7336949,3.3726 2.7528029,3.364131 l 0.00517,0.0062 a 1.3458963,1.3458963 0 0 0 0.07028,-0.03669 l -0.0031,-0.00413 c 0.018082,-0.00975 0.036062,-0.018809 0.053743,-0.028939 l 0.00207,0.00207 a 1.3458963,1.3458963 0 0 0 0.063562,-0.042375 1.3458963,1.3458963 0 0 0 0.00207,-0.00103 C 3.2064007,3.0911837 3.4101481,2.8383953 3.5150309,2.5316284 A 0.06118321,0.06118321 0 0 0 3.4349325,2.4551473 C 3.2873572,2.5121563 3.1306329,2.5414349 2.9724284,2.5414469 2.2621098,2.5413727 1.6881462,1.9670778 1.688269,1.2567708 1.6882207,1.1155518 1.7119025,0.97446155 1.7575155,0.84077555 a 0.06118321,0.06118321 0 0 0 -0.054777,-0.0806152 z m -0.096635,0.20670573 h 5.168e-4 c 0.00197,0.0028 0.00357,0.005368 0.00568,0.008268 -0.00532,0.02409 -0.011136,0.0483272 -0.016536,0.072347 l -0.040824,-0.0521932 c 0.016774,-0.01027 0.033881,-0.019452 0.05116,-0.028422 z M 1.4846639,1.0386963 h 5.168e-4 l 0.0894,0.1157552 v 5.168e-4 c -0.00415,0.02707 -0.0068,0.054199 -0.00775,0.081649 L 1.4386719,1.0702189 c 0.015205,-0.01094 0.030252,-0.021143 0.045992,-0.031523 z m -0.1116211,0.082165 0.1984375,0.2568319 c 0.00344,0.04011 0.00831,0.079683 0.014986,0.1188558 L 1.3260173,1.1596191 c 0.01511,-0.01344 0.031237,-0.025977 0.047025,-0.038758 z m -0.1038696,0.092501 0.3627685,0.4702556 v 5.167e-4 c 0.023399,0.07356 0.052696,0.1446262 0.087333,0.2123902 L 1.2267985,1.2572876 c 0.013762,-0.014958 0.027857,-0.029492 0.042375,-0.043925 z m -0.094568,0.1038697 1.495516,1.9399332 c -0.01905,0.0091 -0.038337,0.016458 -0.057878,0.024288 L 1.1363647,1.3668416 c 0.012364,-0.01676 0.024994,-0.033359 0.038241,-0.04961 z m -0.0863,0.1188558 h 5.167e-4 l 1.440739,1.8743042 c -0.017796,0.00495 -0.036625,0.010836 -0.054777,0.014986 L 1.0578166,1.4856974 c 0.00976,-0.016634 0.02,-0.033217 0.030489,-0.04961 z m -0.07028,0.1255737 0.3338298,0.432015 c 0.014745,0.0233 0.03073,0.046556 0.047025,0.067696 l 0.9896037,1.2831258 c -0.021395,0.0035 -0.043343,0.00595 -0.065112,0.0093 L 0.99012044,1.6241903 c 0.00881,-0.02128 0.0178533,-0.041889 0.0279048,-0.062529 z M 0.95653076,1.7156576 2.2257039,3.3610352 c -0.013734,4.722e-4 -0.02796,5.167e-4 -0.041858,5.167e-4 -0.010109,0 -0.020454,2.321e-4 -0.030489,0 L 0.93637695,1.7828369 c 0.005849,-0.022759 0.0129887,-0.044966 0.0201538,-0.067179 z m -0.0418579,0.173116 1.12964684,1.4655436 c -0.026698,-0.0027 -0.052884,-0.00642 -0.079065,-0.011369 H 1.964738 L 0.90433757,1.9678385 c 0.00242,-0.0265 0.006165,-0.053085 0.0103353,-0.079065 z M 0.89968669,2.0970296 1.8391642,3.3150431 C 1.8045672,3.3052931 1.7707175,3.2943752 1.7373617,3.2819702 H 1.7368449 L 0.90588786,2.2039998 c -0.00346,-0.035218 -0.005635,-0.070946 -0.006201,-0.1069702 z m 0.99012041,0.057878 c 0.2580237,0.3109501 0.6471896,0.5089859 1.0826213,0.5090129 0.1188994,-2.94e-5 0.233082,-0.034992 0.3477824,-0.064596 -0.00669,0.014402 -0.013066,0.028351 -0.020154,0.042375 a 1.3458963,1.3458963 0 0 1 -0.039274,0.00982 l 0.020154,0.026355 c -0.010801,0.01998 -0.022451,0.039094 -0.034106,0.058394 L 3.19257,2.6654704 a 1.3458963,1.3458963 0 0 1 -0.091984,0.012919 l 0.100769,0.1302247 c -0.011226,0.016211 -0.023256,0.032314 -0.03514,0.048059 L 3.0334066,2.6835571 a 1.3458963,1.3458963 0 0 1 -0.072864,0.00207 1.3458963,1.3458963 0 0 1 -0.029456,-5.168e-4 L 3.113505,2.9217855 C 3.100946,2.9363445 3.088348,2.9506835 3.075264,2.9646765 L 2.8561564,2.6809733 A 1.3458963,1.3458963 0 0 1 2.7414347,2.6670207 l 0.2749187,0.3565674 c -0.013706,0.013148 -0.027581,0.025879 -0.041858,0.038241 L 2.6572021,2.6504842 A 1.3458963,1.3458963 0 0 1 2.523877,2.6122437 L 2.9109334,3.113505 C 2.8947974,3.125791 2.8780174,3.137758 2.8613244,3.149162 L 2.4138062,2.5693522 a 1.3458963,1.3458963 0 0 1 0,-5.168e-4 1.3458963,1.3458963 0 0 1 -0.1674317,-0.088367 l 0.5488037,0.7115845 c -0.01745,0.010703 -0.035296,0.020449 -0.053227,0.029972 L 2.0649902,2.344043 A 1.3458963,1.3458963 0 0 1 2.0644735,2.3435262 1.3458963,1.3458963 0 0 1 1.8898071,2.1549076 Z M 0.93224284,2.3667806 1.5859497,3.2147909 c -0.050414,-0.026636 -0.099048,-0.056704 -0.1452108,-0.0894 L 0.98133545,2.5290446 C 0.96161557,2.4765085 0.94503459,2.4223289 0.93224284,2.3667806 Z M 3.1832682,2.778125 3.203422,2.80448 C 3.202847,2.8052802 3.201982,2.80593 3.201352,2.80655 3.194952,2.79686 3.189553,2.787832 3.183265,2.778128 Z m -2.69337562,0.3462321 0.01757,0.1612305 A 0.2,0.2 0 0 0 0.38447266,3.3961751 L 0.21549072,3.348116 0.19223633,3.4974609 0.37103678,3.5119303 a 0.2,0.2 0 0 0 0.0501261,0.1002523 l -0.12298991,0.1663981 0.14417725,0.075964 0.0806152,-0.1834514 a 0.2,0.2 0 0 0 0.0449585,0.00517 0.2,0.2 0 0 0 0.0480591,-0.0062 L 0.7053833,3.8545451 0.84490967,3.7785807 0.71726888,3.609082 A 0.2,0.2 0 0 0 0.7648112,3.5124471 L 0.95084635,3.4974609 0.92759196,3.348116 0.75189209,3.3977254 A 0.2,0.2 0 0 0 0.631486,3.2866211 l 0.0170532,-0.162264 z" />
</svg>
