<?xml version="1.0" encoding="UTF-8" standalone="no"?>
<!-- Created with Inkscape (http://www.inkscape.org/) -->

<svg
   width="8.9958334mm"
   height="8.9958334mm"
   viewBox="0 0 8.9958335 8.9958335"
   version="1.1"
   id="svg1"
   xml:space="preserve"
   xmlns="http://www.w3.org/2000/svg"
   xmlns:svg="http://www.w3.org/2000/svg"><defs
     id="defs1" /><rect
     style="fill:#000000;fill-opacity:1;stroke-width:0.76729;stroke-linecap:round;stroke-linejoin:round;stroke-miterlimit:0"
     id="rect2"
     width="8.9958334"
     height="8.9958334"
     x="0"
     y="0" /><path
     style="baseline-shift:baseline;display:inline;overflow:visible;opacity:1;vector-effect:none;fill:#ffffff;stroke-linecap:round;stroke-linejoin:round;stroke-miterlimit:0;enable-background:accumulate;stop-color:#000000;stop-opacity:1"
     d="M 3.8320313,3.1127605 C 2.4310447,3.1129128 1.2931199,4.2508365 1.2929687,5.6518231 1.2938274,5.8793626 1.3294932,6.1046218 1.390625,6.323698 1.2354395,6.5262201 1.1259091,6.7643838 1.125,7.0209637 c 3.9e-6,0.1846121 0.045108,0.3667521 0.1289062,0.53125 a 0.110011,0.110011 0 0 0 0.097656,0.060547 h 6.1132815 a 0.110011,0.110011 0 0 0 0.087891,-0.042969 C 7.7584759,7.2976642 7.8710285,6.9656288 7.8710937,6.6244793 7.8711091,5.7599581 7.1672555,5.0561046 6.3027344,5.0561199 6.290469,5.0561095 6.2778858,5.0577957 6.265625,5.0580731 5.9855713,3.9317227 5.0020673,3.1125897 3.8320313,3.1127605 Z m 0,0.2207032 C 4.9359717,3.3333025 5.8858711,4.1090069 6.1054687,5.1908856 A 0.110011,0.110011 0 0 0 6.21875,5.2787762 c 0.027682,-0.00169 0.056251,-0.00198 0.083984,-0.00195 0.7456215,-1.32e-5 1.3476695,0.6020346 1.3476562,1.3476562 -5.25e-5,0.2770294 -0.099287,0.5413444 -0.2578121,0.767575 H 1.4355469 C 1.3849002,7.2739474 1.3457059,7.1499111 1.3457031,7.0209637 1.3465179,6.7910012 1.4300953,6.5705403 1.5820312,6.3979168 A 0.110011,0.110011 0 0 0 1.6054687,6.2944012 C 1.5444126,6.0856804 1.5125394,5.8692893 1.5117187,5.6518231 1.5118571,4.3697165 2.5499247,3.333603 3.8320313,3.3334637 Z"
     id="path9" /><path
     id="path87"
     style="baseline-shift:baseline;display:inline;overflow:visible;opacity:1;vector-effect:none;fill:#ffffff;stroke-width:0.870912;stroke-linecap:round;stroke-linejoin:round;stroke-miterlimit:0;enable-background:accumulate;stop-color:#000000;stop-opacity:1"
     d="m 6.0206672,0.90015271 a 0.060006,0.060006 0 0 0 -0.016433,0.00372 C 5.472507,1.1093043 5.1205914,1.6205835 5.1205668,2.1906159 c 2.1e-5,0.3352176 0.120042,0.643071 0.3193608,0.8824267 A 1.32,1.32 0 0 0 5.6650296,3.302796 L 5.6374346,3.266829 c 0.051043,0.04105 0.1049322,0.07867 0.161541,0.1122412 l 0.025424,0.032866 a 1.32,1.32 0 0 0 0.1572,0.078135 l -0.023254,-0.030076 c 0.034613,0.014851 0.070045,0.028277 0.1060398,0.040307 l 0.021704,0.028215 h 3.102e-4 a 1.32,1.32 0 0 0 0.122163,0.032866 l -0.019844,-0.025735 c 0.029161,0.00677 0.058846,0.012482 0.088677,0.017363 l 0.018604,0.024185 a 1.32,1.32 0 0 0 0.1110006,0.011782 l -0.017053,-0.022324 c 0.024076,0.00193 0.048149,0.00335 0.072554,0.00403 l 0.016123,0.020774 a 1.32,1.32 0 0 0 3.102e-4,0 1.32,1.32 0 0 0 0.00992,0 1.32,1.32 0 0 0 0.089297,-0.0031 l -0.014263,-0.018604 c 0.022441,-0.00102 0.044767,-0.00256 0.066973,-0.00465 l 0.013333,0.017363 a 1.32,1.32 0 0 0 0.090847,-0.014263 l -0.011472,-0.014883 c 0.022055,-0.0036 0.043682,-0.00776 0.065422,-0.012403 h 3.102e-4 l 0.010232,0.013333 a 1.32,1.32 0 0 0 0.078135,-0.021394 l -0.00899,-0.011472 c 0.017495,-0.00485 0.034851,-0.00999 0.05209,-0.015503 h 3.102e-4 l 0.00775,0.010232 a 1.32,1.32 0 0 0 0.079685,-0.031006 l -0.00651,-0.00837 c 0.019142,-0.00748 0.038303,-0.015257 0.057051,-0.023564 l 0.00496,0.00651 a 1.32,1.32 0 0 0 0.069143,-0.036277 l -0.0031,-0.00403 c 0.017778,-0.00912 0.035363,-0.018653 0.05271,-0.028525 l 0.00186,0.00248 a 1.32,1.32 0 0 0 0.062322,-0.041548 1.32,1.32 0 0 0 0.00186,-0.00124 C 7.5036592,3.1859373 7.7037411,2.9379642 7.806605,2.6370996 A 0.060006,0.060006 0 0 0 7.72816,2.5620656 C 7.5834231,2.6179736 7.4297042,2.6466726 7.2745442,2.6467116 6.5778986,2.6466696 6.0146558,2.0835888 6.0147764,1.3869438 6.014729,1.2484074 6.0379474,1.1100234 6.0826794,0.97890661 a 0.060006,0.060006 0 0 0 -0.062012,-0.078755 z M 5.9347812,1.1016909 c 0.00192,0.00269 0.00395,0.00541 0.00589,0.00806 -0.00524,0.02365 -0.011074,0.047353 -0.016433,0.071003 l -0.039687,-0.05116 c 0.016507,-0.00954 0.033278,-0.01899 0.050229,-0.027905 z M 5.815719,1.1720739 5.903465,1.2858657 c -1.5e-5,9.96e-5 1.56e-5,2.1e-4 0,3.096e-4 -0.00407,0.026574 -0.00676,0.053063 -0.00775,0.079996 L 5.7701402,1.2033897 c 0.014962,-0.010702 0.030143,-0.021173 0.045579,-0.031316 z m -0.1100706,0.080305 0.1947168,0.2523876 c 0.00333,0.039387 0.00831,0.078206 0.014882,0.1165824 L 5.660069,1.2908263 c 0.014865,-0.013128 0.030093,-0.025936 0.045579,-0.038447 z M 5.603949,1.3432259 5.959896,1.8049031 v 3.102e-4 c 0.022953,0.072162 0.051605,0.1415754 0.085576,0.2080494 L 5.562091,1.3866341 C 5.575717,1.3718281 5.58961,1.3574351 5.603949,1.3432259 Z M 5.510932,1.4455451 6.9778192,3.3480648 c -0.018685,0.00842 -0.037588,0.01643 -0.056741,0.023875 L 5.4734144,1.4942248 c 0.012175,-0.016528 0.024524,-0.032728 0.037518,-0.04868 z M 5.426906,1.5618173 6.839843,3.4001546 c -0.017471,0.00533 -0.035224,0.010365 -0.05302,0.014883 L 5.3971402,1.6111164 c 0.00959,-0.016679 0.019394,-0.033083 0.029766,-0.049299 z m -0.069143,0.1234032 0.3271116,0.42354 c 0.014454,0.022818 0.030221,0.045595 0.046199,0.066353 l 0.9704838,1.2582176 c -0.020983,0.00367 -0.042208,0.00648 -0.063562,0.00899 L 5.3301682,1.7466104 c 0.00866,-0.020805 0.017774,-0.041153 0.027595,-0.061391 z M 5.297302,1.8359093 6.5418772,3.449764 c -0.013508,4.667e-4 -0.026988,6.18e-4 -0.040618,6.18e-4 -0.00989,-6e-7 -0.019927,-8.35e-5 -0.029766,-3.101e-4 L 5.277768,1.9022594 c 0.0058,-0.022447 0.012439,-0.044417 0.019534,-0.066352 z M 5.256064,2.0061311 6.3642136,3.4432527 c -0.026185,-0.00282 -0.052149,-0.00645 -0.077825,-0.010852 H 6.2860784 L 5.2461422,2.0839559 c 9.6e-6,-1.026e-4 -9.6e-6,-2.076e-4 0,-3.102e-4 0.00241,-0.026002 0.00581,-0.052034 0.00992,-0.077514 z M 5.241491,2.2101497 6.1629854,3.4048055 c -0.033928,-0.00941 -0.067444,-0.020446 -0.100149,-0.032556 H 6.0625262 L 5.2473824,2.3152596 c -0.0034,-0.034672 -0.00536,-0.069664 -0.00589,-0.1051098 z m 0.9686232,0.05395 c 0.2530404,0.3065898 0.6360642,0.5019588 1.0644312,0.5019852 0.1166148,-2.88e-5 0.2285724,-0.034171 0.3410645,-0.063252 -0.00653,0.013998 -0.013205,0.027823 -0.020154,0.041548 a 1.32,1.32 0 0 1 -0.038137,0.0093 l 0.019844,0.025735 c -0.010594,0.019558 -0.021731,0.038738 -0.033176,0.057671 l -0.05364,-0.069763 a 1.32,1.32 0 0 1 -0.089917,0.012712 l 0.098289,0.127434 c -0.011029,0.015983 -0.022458,0.031693 -0.034106,0.047129 l -0.1305374,-0.16929 a 1.32,1.32 0 0 1 -0.071624,0.00186 1.32,1.32 0 0 1 -0.028835,-3.102e-4 l 0.1789038,0.2322337 c -0.012281,0.014347 -0.024681,0.028404 -0.037517,0.042168 L 7.1601325,2.7831381 A 1.32,1.32 0 0 1 7.0478911,2.7694951 l 0.2694414,0.349746 c -0.013466,0.012742 -0.02696,0.02509 -0.040928,0.037207 L 6.9654155,2.7533718 a 1.32,1.32 0 0 1 -0.130845,-0.037517 l 0.3792018,0.4914428 c -0.015833,0.012054 -0.031999,0.023774 -0.048369,0.035036 L 6.7266707,2.6733761 A 1.32,1.32 0 0 1 6.7263605,2.6730659 1.32,1.32 0 0 1 6.5623391,2.5862499 l 0.5379522,0.697942 c -0.017093,0.01023 -0.034195,0.020086 -0.05178,0.029456 L 6.3843661,2.4526157 A 1.32,1.32 0 0 1 6.3840559,2.4523055 1.32,1.32 0 0 1 6.210113,2.2641003 Z m -0.936687,0.2105298 0.6412014,0.8315772 c -0.049446,-0.026017 -0.09704,-0.055312 -0.142317,-0.087436 L 5.3214866,2.6343104 C 5.3021076,2.5826914 5.2859786,2.5292294 5.2734272,2.4746295 Z m 2.2079274,0.4036962 0.019534,0.025425 c -5.64e-4,8.22e-4 -9.84e-4,0.00166 -0.00155,0.00248 -0.00592,-0.0093 -0.011831,-0.01845 -0.017983,-0.027905 z" /></svg>
