<?xml version="1.0" encoding="UTF-8" standalone="no"?>
<!-- Created with Inkscape (http://www.inkscape.org/) -->

<svg
   width="8.9958334mm"
   height="8.9958334mm"
   viewBox="0 0 8.9958335 8.9958335"
   version="1.1"
   id="svg1"
   xml:space="preserve"
   xmlns="http://www.w3.org/2000/svg"
   xmlns:svg="http://www.w3.org/2000/svg"><defs
     id="defs1" />
<path
     id="path17"
     style="baseline-shift:baseline;display:inline;overflow:visible;vector-effect:none;fill:#ffffff;fill-opacity:1;stroke-linecap:round;stroke-linejoin:round;stroke-miterlimit:0;enable-background:accumulate;stop-color:#000000"
     d="m 5.3158092,2.2505598 a 1.15,1.15 0 0 0 -0.199471,0.029972 V 2.4453799 H 4.9737112 V 2.3249739 A 1.15,1.15 0 0 0 4.774757,2.4241926 v 0.021187 H 4.7422008 A 1.15,1.15 0 0 0 4.432659,2.7549218 v 0.029972 H 4.413022 A 1.15,1.15 0 0 0 4.3122529,2.9864322 H 4.432659 V 3.1269921 H 4.2683279 A 1.15,1.15 0 0 0 4.2378389,3.3280135 H 4.432659 V 3.4685733 H 4.2378389 a 1.15,1.15 0 0 0 0.029972,0.1994711 H 4.432659 V 3.8106713 H 4.3122529 a 1.15,1.15 0 0 0 0.099219,0.1989543 h 0.021187 v 0.032556 a 1.15,1.15 0 0 0 0.3095419,0.309542 h 0.032556 v 0.021187 a 1.15,1.15 0 0 0 0.1989542,0.099219 v -0.120406 h 0.142627 v 0.1648478 a 1.15,1.15 0 0 0 0.199471,0.029972 V 4.3517236 H 5.4563691 V 4.5465437 A 1.15,1.15 0 0 0 5.6573904,4.5160546 V 4.3517236 H 5.7979503 V 4.4721297 A 1.15,1.15 0 0 0 5.9994884,4.3713606 v -0.019637 h 0.029972 A 1.15,1.15 0 0 0 6.3390026,4.0421817 v -0.032556 h 0.021187 A 1.15,1.15 0 0 0 6.4594087,3.8106713 H 6.3390026 V 3.6680444 H 6.5038504 A 1.15,1.15 0 0 0 6.5338227,3.4685733 H 6.3390026 V 3.3280135 H 6.5338227 A 1.15,1.15 0 0 0 6.5033336,3.1269921 H 6.3390026 V 2.9864322 H 6.4594087 A 1.15,1.15 0 0 0 6.3586396,2.7848941 H 6.3390026 V 2.7549218 A 1.15,1.15 0 0 0 6.0294607,2.4453799 H 5.9994884 V 2.4257429 A 1.15,1.15 0 0 0 5.7979503,2.3249739 v 0.120406 H 5.6573904 V 2.2810489 A 1.15,1.15 0 0 0 5.4563691,2.2505598 V 2.4453799 H 5.3158092 Z M 4.6341971,2.6443342 H 4.774757 V 2.7848941 H 4.6341971 Z m 0.3395141,0 h 0.142627 v 0.1405599 h -0.142627 z m 0.342098,0 H 5.4563691 V 2.7848941 H 5.3158092 Z m 0.3415812,0 H 5.7979503 V 2.7848941 H 5.6573904 Z m 0.342098,0 H 6.1400483 V 2.7848941 H 5.9994884 Z M 4.6341971,2.9864322 H 4.774757 V 3.1269921 H 4.6341971 Z m 0.3395141,0 h 0.142627 v 0.1405599 h -0.142627 z m 0.342098,0 H 5.4563691 V 3.1269921 H 5.3158092 Z m 0.3415812,0 H 5.7979503 V 3.1269921 H 5.6573904 Z m 0.342098,0 H 6.1400483 V 3.1269921 H 5.9994884 Z M 4.6341971,3.3280135 H 4.774757 V 3.4685733 H 4.6341971 Z m 0.3395141,0 h 0.142627 v 0.1405598 h -0.142627 z m 0.342098,0 H 5.4563691 V 3.4685733 H 5.3158092 Z m 0.3415812,0 H 5.7979503 V 3.4685733 H 5.6573904 Z m 0.342098,0 H 6.1400483 V 3.4685733 H 5.9994884 Z M 4.6341971,3.6680444 H 4.774757 V 3.8106713 H 4.6341971 Z m 0.3395141,0 h 0.142627 v 0.1426269 h -0.142627 z m 0.342098,0 H 5.4563691 V 3.8106713 H 5.3158092 Z m 0.3415812,0 H 5.7979503 V 3.8106713 H 5.6573904 Z m 0.342098,0 H 6.1400483 V 3.8106713 H 5.9994884 Z M 4.6341971,4.0096256 H 4.774757 V 4.1501855 H 4.6341971 Z m 0.3395141,0 h 0.142627 v 0.1405599 h -0.142627 z m 0.342098,0 H 5.4563691 V 4.1501855 H 5.3158092 Z m 0.3415812,0 H 5.7979503 V 4.1501855 H 5.6573904 Z m 0.342098,0 H 6.1400483 V 4.1501855 H 5.9994884 Z" /><g
     id="g9"
     transform="matrix(0.7,0,0,0.7,15.32245,6.3260398)"><path
       style="baseline-shift:baseline;display:inline;overflow:visible;vector-effect:none;fill:#ffffff;stroke-width:0.5;stroke-linecap:round;stroke-linejoin:round;stroke-miterlimit:0;enable-background:accumulate;stop-color:#000000"
       d="m -14.195138,-6.2915057 c -1.163495,0 -2.109375,0.9458799 -2.109375,2.1093749 0,1.163495 0.94588,2.109375 2.109375,2.109375 1.163495,0 2.109375,-0.94588 2.109375,-2.109375 0,-1.163495 -0.94588,-2.1093749 -2.109375,-2.1093749 z m 0,0.25 c 1.028385,0 1.859375,0.8309899 1.859375,1.8593749 0,1.028385 -0.83099,1.859375 -1.859375,1.859375 -1.028385,0 -1.859375,-0.83099 -1.859375,-1.859375 0,-1.028385 0.83099,-1.8593749 1.859375,-1.8593749 z"
       id="path4" /><path
       id="path8"
       style="baseline-shift:baseline;display:inline;overflow:visible;vector-effect:none;fill:#ffffff;fill-opacity:1;stroke-width:0.5;stroke-linecap:round;stroke-linejoin:round;stroke-miterlimit:0;enable-background:accumulate;stop-color:#000000"
       d="m -12.014529,-6.5467728 a 0.116378,0.116378 0 0 0 -0.08165,0.03514 l -0.289388,0.298173 c 0.05796,0.051735 0.113784,0.1058467 0.167173,0.162264 l 0.289388,-0.2979147 a 0.116378,0.116378 0 0 0 -0.0028,-0.1648478 0.116378,0.116378 0 0 0 -0.08268,-0.032815 z m -4.43022,0.065629 a 0.116378,0.116378 0 0 0 -0.08165,0.03514 0.116378,0.116378 0 0 0 0.0018,0.1648478 l 0.298173,0.289388 c 0.05173,-0.05796 0.105853,-0.1137804 0.162263,-0.1671733 l -0.297915,-0.289388 a 0.116378,0.116378 0 0 0 -0.08268,-0.032814 z m 4.280876,4.1085352 c -0.05173,0.057962 -0.105856,0.1137785 -0.162264,0.167173 l 0.297914,0.289388 a 0.116378,0.116378 0 0 0 0.164848,-0.00285 0.116378,0.116378 0 0 0 -0.0023,-0.164331 z m -4.008025,0.05917 -0.289388,0.298173 a 0.116378,0.116378 0 0 0 0.0023,0.164331 0.116378,0.116378 0 0 0 0.165106,-0.0018 l 0.289388,-0.2979145 c -0.05815,-0.05189 -0.113879,-0.10618 -0.167431,-0.1627805 z" /><path
       id="path2"
       style="fill:none;stroke:#ffffff;stroke-width:0.19306;stroke-linecap:round;stroke-linejoin:round;stroke-miterlimit:0;stroke-opacity:1"
       d="m -14.180538,-7.8621399 -0.0098,0.22841 -0.127124,0.2180745 0.196628,0.01292 z m 0.05969,0.4594035 0.0072,0.054777 0.07956,-0.03955 z m 0.0072,0.054777 -0.202055,0.292747 0.239778,-0.00155 z m 3.152004,3.0434835 -0.01292,0.196629 0.459404,-0.059686 -0.22841,-0.00982 z m -0.01292,0.196629 -0.05478,0.00724 0.05194,0.111 z m -0.05478,0.00724 -0.292747,-0.202055 0.0015,0.239779 z m -6.399351,-0.2010215 -0.218075,0.126866 -0.22841,0.010075 0.459404,0.059686 z m 0.01292,0.196629 0.0029,0.116492 0.05193,-0.1092575 z m 0.05478,0.00724 0.291196,0.037725 0.0015,-0.2397785 z m 3.048134,2.7887191 0.202055,0.292747 0.03773,-0.291197 z m 0.202055,0.292747 -0.0072,0.054777 0.121769,0.0134 z m -0.0072,0.054777 -0.196629,0.01292 0.126865,0.2180745 0.01007,0.2284095 z" /></g><path
     id="path9"
     style="fill:#000000;fill-opacity:1;stroke:#ffffff;stroke-width:0.265034;stroke-linecap:round;stroke-linejoin:round;stroke-miterlimit:0;stroke-dasharray:none;stroke-opacity:1"
     d="m 3.8313783,3.1908365 a 2.4294571,2.4294571 0 0 0 -2.429193,2.4291949 2.4294571,2.4294571 0 0 0 0.0977,0.672925 1.0601267,1.0601267 0 0 0 -0.2643311,0.696664 1.0601267,1.0601267 0 0 0 0.1155051,0.481183 h 6.1143009 a 1.4576741,1.4576741 0 0 0 0.294919,-0.87882 1.4576741,1.4576741 0 0 0 -1.4576999,-1.4577 1.4576741,1.4576741 0 0 0 -0.08993,0.0027 2.4294571,2.4294571 0 0 0 -2.38126,-1.9461856 z" /></svg>
