<?xml version="1.0" encoding="UTF-8" standalone="no"?>
<!-- Created with Inkscape (http://www.inkscape.org/) -->

<svg
   width="8.9958334mm"
   height="8.9958334mm"
   viewBox="0 0 8.9958335 8.9958335"
   version="1.1"
   id="svg1"
   xml:space="preserve"
   xmlns="http://www.w3.org/2000/svg"
   xmlns:svg="http://www.w3.org/2000/svg"><defs
     id="defs1" /><rect
     style="fill:#000000;fill-opacity:1;stroke-width:0.76729;stroke-linecap:round;stroke-linejoin:round;stroke-miterlimit:0"
     id="rect2"
     width="8.9958334"
     height="8.9958334"
     x="0"
     y="0" /><path
     id="path45"
     style="baseline-shift:baseline;display:inline;overflow:visible;opacity:1;vector-effect:none;fill:#ffffff;stroke-linecap:round;stroke-linejoin:round;stroke-miterlimit:0;enable-background:accumulate;stop-color:#000000;stop-opacity:1"
     d="m 5.1519255,2.0062907 c -0.9327668,1.013e-4 -1.691269,0.7586028 -1.6913697,1.6913697 5.666e-4,0.1499508 0.024714,0.2989115 0.064596,0.4433837 -0.1009155,0.1349042 -0.1735489,0.2893265 -0.1741496,0.4588867 -8.2e-6,6.89e-4 -8.2e-6,0.00138 0,0.00207 2.5e-6,0.1241997 0.029924,0.2469334 0.0863,0.357601 0.015292,0.028852 0.045379,0.046785 0.078031,0.046509 h 4.0348959 c 0.027665,5.89e-5 0.053728,-0.012973 0.07028,-0.03514 C 7.7582601,4.7887719 7.8333724,4.5668627 7.833416,4.3384512 7.8334262,3.7597828 7.3615028,3.2894092 6.7828342,3.2894196 c -0.00523,-4.6e-6 -0.010272,-7.35e-5 -0.015503,0 C 6.5759145,2.5468966 5.9260758,2.0061778 5.1519255,2.0062907 Z m 0,0.1756998 c 0.047213,-6.8e-6 0.093797,0.00248 0.1400431,0.00672 h 5.168e-4 l 2.2220865,2.6070761 c -0.0074,0.011642 -0.014893,0.023254 -0.022738,0.034623 H 7.371945 L 5.1255705,2.1825073 c 0.00877,-1.497e-4 0.017552,-5.158e-4 0.026355,-5.168e-4 z M 4.9307503,2.1980105 5.38757,2.7333784 c 0.00718,0.01644 0.016546,0.031633 0.027389,0.044442 l 0.6934977,0.813387 c -0.00423,-0.00931 -0.00854,-0.018616 -0.012919,-0.027905 l 0.3813721,0.4485514 c -0.0067,-0.00387 -0.013423,-0.00766 -0.020154,-0.011369 l 0.6082316,0.7131349 c -0.00267,-0.00741 -0.00543,-0.014817 -0.00827,-0.022221 L 7.1652379,4.8304083 H 7.0024585 L 6.7947192,4.5864949 6.7942025,4.5859782 c -0.00714,-0.016607 -0.016504,-0.031982 -0.027388,-0.044958 L 4.7927742,2.224882 c 0.045223,-0.010951 0.091258,-0.020068 0.1379761,-0.026871 z m 0.6040975,0.032556 c 0.079,0.020505 0.1557336,0.047654 0.2294434,0.080099 h 5.167e-4 c 0.074747,0.026409 0.1426564,0.059005 0.2051555,0.097152 a 0.05,0.05 0 0 0 -0.046509,0.00879 0.05,0.05 0 0 0 -0.00775,0.07028 l 0.4139282,0.5214152 a 0.05,0.05 0 0 0 0.07028,0.00982 0.05,0.05 0 0 0 0.00775,-0.07028 L 5.9937345,2.424353 a 0.05,0.05 0 0 0 -0.0031,-0.00362 c 0.3114632,0.199912 0.4795783,0.5371565 0.6289021,0.8924519 v 5.168e-4 c 0.00698,0.026802 0.013038,0.053706 0.018604,0.081132 0.00856,0.043265 0.04799,0.073391 0.091984,0.07028 0.00604,-3.662e-4 0.011713,-7.446e-4 0.01757,-0.00103 l 0.8903849,1.043864 c -0.010885,0.047166 -0.0262,0.093695 -0.044958,0.1384928 z m -0.9064046,0.043925 0.2537313,0.2971394 c 0.00721,0.017008 0.016767,0.032753 0.027905,0.045992 L 6.7957526,4.8304078 H 6.6340055 L 6.2903573,4.4268148 c -0.00743,-0.016911 -0.01716,-0.032479 -0.028422,-0.045475 L 4.5090706,2.3241007 c 0.038868,-0.018182 0.078782,-0.034712 0.1193726,-0.049609 z m -0.1374593,0.058394 c -0.00389,0.00763 -0.00769,0.015452 -0.011369,0.023254 -0.011636,-1.481e-4 -0.023127,-2.364e-4 -0.034623,0 0.015196,-0.00801 0.030494,-0.015749 0.045992,-0.023254 z m -0.1193726,0.064596 c 0.00734,0.022058 0.018652,0.04329 0.033073,0.060461 L 6.4267831,4.8304076 H 6.2655526 L 5.7854785,4.2666179 c -0.00743,-0.016911 -0.01716,-0.032479 -0.028422,-0.045475 L 4.4026172,2.6310588 c -7.068e-4,0.00361 -0.0014,0.00722 -0.00207,0.010852 L 4.2568896,2.4734456 c 0.03688,-0.026983 0.075407,-0.052343 0.1147217,-0.075964 z M 4.1344165,2.5736979 6.0588468,4.8304078 H 5.8970996 L 4.0470833,2.6594809 c 0.027979,-0.029762 0.057046,-0.058365 0.087333,-0.085783 z M 3.9437305,2.7814372 5.6893604,4.8304078 H 5.5286466 c -0.00179,-0.00233 -0.00379,-0.0045 -0.00568,-0.00672 L 3.8713878,2.8853047 c 0.022638,-0.035655 0.046893,-0.070326 0.072347,-0.1038696 z M 3.7892179,3.0325846 5.3214242,4.8304078 H 5.1607105 L 3.7349577,3.1581584 c 0.016256,-0.042765 0.034349,-0.084773 0.05426,-0.1255738 z M 3.6796639,3.3369588 4.937985,4.8304078 H 3.5814787 c -0.02999,-0.073377 -0.054775,-0.1488156 -0.054777,-0.2284099 5.25e-4,-0.1481959 0.054533,-0.2913147 0.1524455,-0.4025593 0.01931,-0.022483 0.025922,-0.053213 0.01757,-0.081649 -0.03991,-0.1364308 -0.059924,-0.2779819 -0.060461,-0.4201294 1.34e-5,-0.1244308 0.015238,-0.2450524 0.043408,-0.3607014 z m 3.2917887,0.1467611 c 0.084991,0.018609 0.1655635,0.049672 0.2392619,0.09095 l 0.3942912,0.4630208 c 0.028641,0.078535 0.046164,0.1622898 0.05116,0.2495973 z m 0.3493327,1.3415203 c 2.708e-4,-6.84e-5 7.46e-4,3.54e-5 0.00103,0 0.00497,-6.294e-4 0.012013,0.00149 0.019637,0.00517 h -0.026872 v -5.168e-4 l 5.168e-4,-5.167e-4 h 5.168e-4 v -5.168e-4 l 5.167e-4,-5.168e-4 5.168e-4,-5.167e-4 5.168e-4,-5.168e-4 5.167e-4,-5.168e-4 h 5.168e-4 l 5.168e-4,-5.167e-4 c 4.72e-4,-2.23e-4 0.00155,-8.495e-4 0.00207,-0.00103 z" /><path
     id="path9"
     style="fill:#000000;fill-opacity:1;stroke:#ffffff;stroke-width:0.265034;stroke-linecap:round;stroke-linejoin:round;stroke-miterlimit:0;stroke-dasharray:none;stroke-opacity:1"
     d="m 3.8313783,2.6935342 a 2.4294571,2.4294571 0 0 0 -2.429193,2.4291949 2.4294571,2.4294571 0 0 0 0.0977,0.672925 1.0601267,1.0601267 0 0 0 -0.2643311,0.696664 1.0601267,1.0601267 0 0 0 0.1155051,0.481183 h 6.1143009 a 1.4576741,1.4576741 0 0 0 0.294919,-0.87882 1.4576741,1.4576741 0 0 0 -1.4576999,-1.4577 1.4576741,1.4576741 0 0 0 -0.08993,0.0027 2.4294571,2.4294571 0 0 0 -2.38126,-1.9461856 z" /></svg>
