<?xml version="1.0" encoding="UTF-8" standalone="no"?>
<!-- Created with Inkscape (http://www.inkscape.org/) -->

<svg
   version="1.1"
   id="svg1"
   width="128"
   height="64"
   viewBox="0 0 128 64"
   sodipodi:docname="compactcassettez.svg"
   inkscape:version="1.4.3 (1:1.4.3+202512261035+0d15f75042)"
   xmlns:inkscape="http://www.inkscape.org/namespaces/inkscape"
   xmlns:sodipodi="http://sodipodi.sourceforge.net/DTD/sodipodi-0.dtd"
   xmlns="http://www.w3.org/2000/svg"
   xmlns:svg="http://www.w3.org/2000/svg">
  <sodipodi:namedview
     id="namedview1"
     pagecolor="#ffffff"
     bordercolor="#666666"
     borderopacity="1.0"
     inkscape:showpageshadow="2"
     inkscape:pageopacity="0.0"
     inkscape:pagecheckerboard="0"
     inkscape:deskcolor="#d1d1d1"
     showguides="true"
     inkscape:zoom="10.520844"
     inkscape:cx="66.867261"
     inkscape:cy="33.314819"
     inkscape:current-layer="g3">
    <sodipodi:guide
       position="127.55193,35.621937"
       orientation="0,-1"
       id="guide1"
       inkscape:locked="false" />
    <sodipodi:guide
       position="43.313886,28.452742"
       orientation="1,0"
       id="guide2"
       inkscape:locked="false" />
    <sodipodi:guide
       position="84.527704,66.74659"
       orientation="1,0"
       id="guide3"
       inkscape:locked="false" />
  </sodipodi:namedview>
  <defs
     id="defs1" />
  <rect
     style="fill:#000000;fill-opacity:1;stroke-width:0.753032;stroke-linecap:square"
     id="rect1"
     width="128"
     height="64"
     x="-7.3292924e-08"
     y="0" />
  <rect
     style="fill:#003748;fill-opacity:1;stroke:none;stroke-linecap:square;stroke-opacity:1"
     id="rect2"
     width="94.401451"
     height="42.317894"
     x="16.508629"
     y="4.6503177" />
  <rect
     style="fill:#000000;fill-opacity:1;stroke:none;stroke-linecap:square;stroke-opacity:1"
     id="rect3"
     width="27.204359"
     height="13.950953"
     x="49.990917"
     y="20.693914" />
  <path
     id="progress-left"
     class="Progress"
     style="fill:#ffc377;fill-opacity:1"
     d="m 50.217118,22.352438 v 1.478516 h 1.5 v -1.478516 z m 1.5,1.478516 v 1.5 h 1.5 v -1.5 z m 1.5,0 h 1.5 v -1.478516 h -1.5 z m 1.5,0 v 1.5 h 1.5 v -1.5 z m 1.5,0 h 1.5 v -1.478516 h -1.5 z m 1.5,0 v 1.5 h 1.5 v -1.5 z m 1.5,0 h 1.5 v -1.478516 h -1.5 z m 1.5,0 v 1.5 h 1.5 v -1.5 z m 1.5,0 h 1.5 v -1.478516 h -1.5 z m 1.5,0 v 1.5 h 1.5 v -1.5 z m 1.5,0 h 1.5 v -1.478516 h -1.5 z m 0,1.5 v 1.5 h 1.5 v -1.5 z m 0,1.5 h -1.5 v 1.5 h 1.5 z m 0,1.5 v 1.5 h 1.5 v -1.5 z m 0,1.5 h -1.5 v 1.5 h 1.5 z m 0,1.5 v 1.5 h 1.5 v -1.5 z m 0,1.5 h -1.5 v 1.5 h 1.5 z m 0,1.5 v 0.02148 h 1.5 v -0.02148 z m -1.5,0 h -1.5 v 0.02148 h 1.5 z m -1.5,0 v -1.5 h -1.5 v 1.5 z m -1.5,0 h -1.5 v 0.02148 h 1.5 z m -1.5,0 v -1.5 h -1.5 v 1.5 z m -1.5,0 h -1.5 v 0.02148 h 1.5 z m -1.5,0 v -1.5 h -1.5 v 1.5 z m -1.5,0 h -1.5 v 0.02148 h 1.5 z m -1.5,0 v -1.5 h -1.5 v 1.5 z m -1.5,0 h -1.5 v 0.02148 h 1.5 z m -1.5,0 v -1.5 h -0.5 v 1.5 z m 0,-1.5 h 1.5 v -1.5 h -1.5 z m 0,-1.5 v -1.5 h -0.5 v 1.5 z m 0,-1.5 h 1.5 v -1.5 h -1.5 z m 0,-1.5 v -1.5 h -0.5 v 1.5 z m 0,-1.5 h 1.5 v -1.5 h -1.5 z m 0,-1.5 v -1.5 h -0.5 v 1.5 z m 1.5,1.5 v 1.5 h 1.5 v -1.5 z m 1.5,0 h 1.5 v -1.5 h -1.5 z m 1.5,0 v 1.5 h 1.5 v -1.5 z m 1.5,0 h 1.5 v -1.5 h -1.5 z m 1.5,0 v 1.5 h 1.5 v -1.5 z m 1.5,0 h 1.5 v -1.5 h -1.5 z m 1.5,0 v 1.5 h 1.5 v -1.5 z m 1.5,0 h 1.5 v -1.5 h -1.5 z m 0,1.5 v 1.5 h 1.5 v -1.5 z m 0,1.5 h -1.5 v 1.5 h 1.5 z m 0,1.5 v 1.5 h 1.5 v -1.5 z m -1.5,0 h -1.5 v 1.5 h 1.5 z m -1.5,0 v -1.5 h -1.5 v 1.5 z m -1.5,0 h -1.5 v 1.5 h 1.5 z m -1.5,0 v -1.5 h -1.5 v 1.5 z m -1.5,0 h -1.5 v 1.5 h 1.5 z m -1.5,0 v -1.5 h -1.5 v 1.5 z m 0,-1.5 h 1.5 v -1.5 h -1.5 z m 3,0 h 1.5 v -1.5 h -1.5 z m 3,0 h 1.5 v -1.5 h -1.5 z m 15,-7.478516 v 1.478516 h 1.5 v -1.478516 z m 1.5,1.478516 v 1.5 h 1.5 v -1.5 z m 1.5,0 h 1.5 v -1.478516 h -1.5 z m 1.5,0 v 1.5 h 1.5 v -1.5 z m 1.5,0 h 1.5 v -1.478516 h -1.5 z m 1.5,0 v 1.5 h 1.5 v -1.5 z m 1.5,0 h 1.5 v -1.478516 h -1.5 z m 1.5,0 v 1.5 h 1.5 v -1.5 z m 1.5,0 h 1.500003 v -1.478516 h -1.500003 z m 1.500003,0 v 1.5 h 1.5 v -1.5 z m 1.5,0 h 0.5 v -1.478516 h -0.5 z m 0,1.5 v 1.5 h 0.5 v -1.5 z m 0,1.5 h -1.5 v 1.5 h 1.5 z m 0,1.5 v 1.5 h 0.5 v -1.5 z m 0,1.5 h -1.5 v 1.5 h 1.5 z m 0,1.5 v 1.5 h 0.5 v -1.5 z m 0,1.5 h -1.5 v 1.5 h 1.5 z m 0,1.5 v 0.02148 h 0.5 v -0.02148 z m -1.5,0 h -1.500003 v 0.02148 h 1.500003 z m -1.500003,0 v -1.5 h -1.5 v 1.5 z m -1.5,0 h -1.5 v 0.02148 h 1.5 z m -1.5,0 v -1.5 h -1.5 v 1.5 z m -1.5,0 h -1.5 v 0.02148 h 1.5 z m -1.5,0 v -1.5 h -1.5 v 1.5 z m -1.5,0 h -1.5 v 0.02148 h 1.5 z m -1.5,0 v -1.5 h -1.5 v 1.5 z m -1.5,0 h -1.5 v 0.02148 h 1.5 z m -1.5,0 v -1.5 h -1.5 v 1.5 z m 0,-1.5 h 1.5 v -1.5 h -1.5 z m 0,-1.5 v -1.5 h -1.5 v 1.5 z m 0,-1.5 h 1.5 v -1.5 h -1.5 z m 0,-1.5 v -1.5 h -1.5 v 1.5 z m 0,-1.5 h 1.5 v -1.5 h -1.5 z m 0,-1.5 v -1.5 h -1.5 v 1.5 z m 1.5,1.5 v 1.5 h 1.5 v -1.5 z m 1.5,0 h 1.5 v -1.5 h -1.5 z m 1.5,0 v 1.5 h 1.5 v -1.5 z m 1.5,0 h 1.5 v -1.5 h -1.5 z m 1.5,0 v 1.5 h 1.5 v -1.5 z m 1.5,0 h 1.5 v -1.5 h -1.5 z m 1.5,0 v 1.5 h 1.5 v -1.5 z m 1.5,0 h 1.500003 v -1.5 h -1.500003 z m 0,1.5 v 1.5 h 1.500003 v -1.5 z m 0,1.5 h -1.5 v 1.5 h 1.5 z m 0,1.5 v 1.5 h 1.500003 v -1.5 z m -1.5,0 h -1.5 v 1.5 h 1.5 z m -1.5,0 v -1.5 h -1.5 v 1.5 z m -1.5,0 h -1.5 v 1.5 h 1.5 z m -1.5,0 v -1.5 h -1.5 v 1.5 z m -1.5,0 h -1.5 v 1.5 h 1.5 z m -1.5,0 v -1.5 h -1.5 v 1.5 z m 0,-1.5 h 1.5 v -1.5 h -1.5 z m 3,0 h 1.5 v -1.5 h -1.5 z m 3,0 h 1.5 v -1.5 h -1.5 z" />
  <g
     id="g3"
     inkscape:label="progress-scale">
    <path
       id="path2"
       style="fill:#dde5e8;fill-opacity:0.534392;stroke-width:9.82677;stroke-linecap:square"
       inkscape:label="right-tape"
       d="m 84.566406,15.744141 c -3.136794,0 -6.65477,1.457505 -8.871094,3.673828 -2.216319,2.216319 -3.673828,5.734306 -3.673828,8.871093 0,3.136791 1.457508,6.654774 3.673828,8.871094 2.216323,2.216323 5.734299,3.673828 8.871094,3.673828 3.136786,0 6.654766,-1.457502 8.871094,-3.673828 2.216322,-2.216326 3.673828,-5.73431 3.673828,-8.871094 0,-3.136778 -1.457507,-6.654768 -3.673828,-8.871093 -2.216329,-2.216326 -5.734309,-3.673828 -8.871094,-3.673828 z" />
    <path
       id="path1"
       style="fill:#dde5e8;stroke-width:9.82677;stroke-linecap:square;fill-opacity:0.51851851"
       d="m 42.566406,4 c -6.358852,0 -12.679393,2.6168935 -17.175781,7.113281 -4.496388,4.496388 -7.113281,10.816929 -7.113281,17.175781 0,6.358853 2.616893,12.679394 7.113281,17.175782 4.496388,4.496388 10.816929,7.113281 17.175781,7.113281 6.358853,0 12.679394,-2.616893 17.175781,-7.113281 4.496388,-4.496388 7.113282,-10.816929 7.113282,-17.175782 0,-6.358852 -2.616894,-12.679393 -7.113282,-17.175781 C 55.2458,6.6168935 48.925259,4 42.566406,4 Z"
       inkscape:label="left-tape" />
  </g>
  <path
     id="path67"
     style="fill:#000000;fill-opacity:1;stroke:none;stroke-width:1;stroke-linecap:round;stroke-linejoin:round;stroke-miterlimit:0;stroke-dasharray:none;stroke-opacity:1"
     d="m 43.347656,21.240234 c -3.804842,0 -6.90039,3.095548 -6.90039,6.900391 0,3.804843 3.095548,6.900391 6.90039,6.900391 3.804843,0 6.900391,-3.095548 6.900391,-6.900391 0,-3.804843 -3.095548,-6.900391 -6.900391,-6.900391 z m 40.939453,0 c -3.804842,0 -6.898437,3.095548 -6.898437,6.900391 0,3.804843 3.093595,6.900391 6.898437,6.900391 3.804843,0 6.900391,-3.095548 6.900391,-6.900391 0,-3.804843 -3.095548,-6.900391 -6.900391,-6.900391 z" />
  <path
     id="rect4"
     style="fill:#c2c2c2;fill-opacity:1;stroke-width:7.5715;stroke-linecap:round;stroke-linejoin:round;stroke-miterlimit:0"
     d="m 18.9375,1.0039062 c -2.849481,0 -5.142578,2.2950506 -5.142578,5.1445313 V 58.054688 c 0,2.849479 2.293097,5.142578 5.142578,5.142578 h 90.44531 c 2.84948,0 5.14258,-2.293099 5.14258,-5.142578 V 6.1484375 c 0,-2.8494807 -2.2931,-5.1445313 -5.14258,-5.1445313 z m -0.335938,3.96875 h 90.474608 c 0.8864,0 1.59961,0.7132094 1.59961,1.5996094 V 42.992188 c 0,0.8864 -0.71321,1.599609 -1.59961,1.599609 H 91.304688 l -0.01563,0.02734 4.69336,16.351562 -6.015625,-14.195312 0.03125,-0.05664 H 38.384766 L 37.75,45.699219 38.353516,46.775391 32.337891,60.970703 37.041016,44.591797 H 18.601562 c -0.8864,0 -1.599609,-0.713209 -1.599609,-1.599609 V 6.5722656 c 0,-0.8864 0.713209,-1.5996094 1.599609,-1.5996094 z" />
  <rect
     style="fill:none;fill-opacity:1;stroke:#c2c2c2;stroke-width:1;stroke-linecap:round;stroke-linejoin:round;stroke-miterlimit:0;stroke-dasharray:none;stroke-opacity:1"
     id="rect5"
     width="3.6892231"
     height="18.285715"
     x="12.190476"
     y="40.741856"
     ry="1.8446115" />
  <rect
     style="fill:none;fill-opacity:1;stroke:#c2c2c2;stroke-width:1;stroke-linecap:round;stroke-linejoin:round;stroke-miterlimit:0;stroke-dasharray:none;stroke-opacity:1"
     id="rect6"
     width="3.6892231"
     height="18.285715"
     x="112.19048"
     y="40.741856"
     ry="1.8446115" />
  <path
     id="path9"
     style="fill:#000000;fill-opacity:1;stroke:none;stroke-width:1;stroke-linecap:round;stroke-linejoin:round;stroke-miterlimit:0;stroke-dasharray:none;stroke-opacity:1"
     d="m 51.435547,53.039062 c -0.840443,10e-7 -1.515625,0.677135 -1.515625,1.517579 0,0.670088 0.428963,1.235604 1.029297,1.4375 v -0.636719 c 0,-0.333006 0.268556,-0.601563 0.601562,-0.601563 0.333006,0 0.601563,0.268557 0.601563,0.601563 v 0.716797 h 0.429687 c 0.840444,0 1.515625,-0.677135 1.515625,-1.517578 0,-0.840444 -0.675181,-1.517579 -1.515625,-1.517579 z m -8.115235,2.025391 a 2.4000001,2.4000001 0 0 0 -2.40039,2.398438 2.4000001,2.4000001 0 0 0 2.40039,2.40039 2.4000001,2.4000001 0 0 0 2.398438,-2.40039 2.4000001,2.4000001 0 0 0 -2.398438,-2.398438 z m -0.771484,2.640625 a 0.64402884,0.64399999 0 0 1 0.644531,0.644531 0.64402884,0.64399999 0 0 1 -0.644531,0.642579 0.64402884,0.64399999 0 0 1 -0.644531,-0.642579 0.64402884,0.64399999 0 0 1 0.644531,-0.644531 z" />
  <path
     id="path11"
     style="fill:#000000;fill-opacity:1;stroke:none;stroke-width:1;stroke-linecap:round;stroke-linejoin:round;stroke-miterlimit:0;stroke-dasharray:none;stroke-opacity:1"
     d="m 76.233297,53.039062 c 0.840443,10e-7 1.515625,0.677135 1.515625,1.517579 0,0.670088 -0.428963,1.235604 -1.029297,1.4375 v -0.636719 c 0,-0.333006 -0.268556,-0.601563 -0.601562,-0.601563 -0.333006,0 -0.601563,0.268557 -0.601563,0.601563 v 0.716797 h -0.429687 c -0.840444,0 -1.515625,-0.677135 -1.515625,-1.517578 0,-0.840444 0.675181,-1.517579 1.515625,-1.517579 z m 8.115235,2.025391 c 1.325026,-2.16e-4 2.399528,1.073412 2.40039,2.398438 2.15e-4,1.325788 -1.074602,2.400605 -2.40039,2.40039 -1.325026,-8.62e-4 -2.398654,-1.075364 -2.398438,-2.40039 8.62e-4,-1.324264 1.074174,-2.397576 2.398438,-2.398438 z m -0.563394,2.640625 c -0.356091,-2.78e-4 -0.644825,0.288456 -0.644531,0.644531 7.84e-4,0.355312 0.289202,0.642857 0.644531,0.642579 0.355329,2.78e-4 0.643747,-0.287267 0.644531,-0.642579 2.94e-4,-0.356075 -0.28844,-0.644809 -0.644531,-0.644531 z" />
  <path
     id="path12"
     style="fill:#ff0000;fill-opacity:1;stroke:#ffffff;stroke-linecap:round;stroke-linejoin:round;stroke-miterlimit:0;stroke-opacity:1;enable-background:accumulate;stop-color:#000000"
     d="m 25.96159,20.976963 a 0.50005,0.50005 0 0 0 -0.470703,0.330078 c -0.236473,0.655678 -0.610604,1.159709 -1.152344,1.552735 -0.543098,0.394012 -1.107819,0.578125 -1.748046,0.578125 a 0.50005,0.50005 0 0 0 -0.5,0.5 v 0.894531 a 0.50005,0.50005 0 0 0 0.5,0.5 c 0.63889,0 1.258055,-0.107864 1.847656,-0.322266 0.29631,-0.10562 0.535835,-0.30482 0.804687,-0.457031 v 9.64063 h -2.652343 a 0.50005,0.50005 0 0 0 -0.5,0.5 v 0.89257 a 0.50005,0.50005 0 0 0 0.5,0.5 h 7.40039 a 0.50005,0.50005 0 0 0 0.5,-0.5 v -0.89257 a 0.50005,0.50005 0 0 0 -0.5,-0.5 H 27.356122 V 21.476963 a 0.50005,0.50005 0 0 0 -0.5,-0.5 z" />
  <path
     id="path65"
     style="fill:#ffff00;fill-opacity:1"
     d="m 98.984375,19.367188 c -1.431751,0 -2.599609,1.167858 -2.599609,2.599609 v 5.800781 c 0,1.431751 1.167858,2.59961 2.599609,2.59961 h 5.800785 c 1.43175,0 2.59961,-1.167859 2.59961,-2.59961 v -5.800781 c 0,-1.431751 -1.16786,-2.599609 -2.59961,-2.599609 z m 0,1 h 5.800785 c 0.89504,0 1.59961,0.70456 1.59961,1.599609 v 5.800781 c 0,0.895049 -0.70457,1.59961 -1.59961,1.59961 h -5.800785 c -0.895049,0 -1.599609,-0.704561 -1.599609,-1.59961 v -5.800781 c 0,-0.895049 0.70456,-1.599609 1.599609,-1.599609 z m 2.464845,11.1875 c -0.74186,0.02037 -1.513791,0.485159 -1.632814,1.261718 -0.110438,0.559137 0.03679,1.272846 0.617184,1.513672 -0.17332,0.199345 -0.784424,0.523621 -0.789059,1.015625 -0.195454,0.747596 0.159651,1.620805 0.898439,1.914063 0.86326,0.346783 2.00707,0.297659 2.67383,-0.417969 0.54529,-0.62109 0.52848,-1.747047 -0.1543,-2.261719 -0.42443,-0.159885 -0.33136,-0.279446 0.0117,-0.464844 0.62489,-0.703545 0.35311,-1.974063 -0.51563,-2.355468 -0.29728,-0.14717 -0.63153,-0.202999 -0.96093,-0.203125 -0.049,-0.0026 -0.099,-0.0033 -0.14844,-0.002 z m 4.49219,0 c -0.74186,0.02037 -1.5138,0.485159 -1.63282,1.261718 -0.11043,0.559128 0.0368,1.27285 0.61719,1.513672 -0.17332,0.199347 -0.78442,0.523618 -0.78906,1.015625 -0.19545,0.7476 0.15965,1.62081 0.89844,1.914063 0.86342,0.347437 2.00913,0.296474 2.67578,-0.417969 0.52823,-0.605866 0.52343,-1.667155 -0.0898,-2.212891 -0.24963,-0.162243 -0.59466,-0.279681 -0.15234,-0.435547 0.53257,-0.425696 0.53776,-1.271477 0.23242,-1.833984 -0.31793,-0.566262 -0.9883,-0.815637 -1.61133,-0.802734 -0.049,-0.0026 -0.099,-0.0033 -0.14843,-0.002 z m -8.398441,0.002 c -0.888125,-0.02914 -1.655474,0.645811 -1.925781,1.460937 -0.329386,0.975994 -0.327834,2.077023 0.02344,3.046875 0.281021,0.789602 1.039143,1.426701 1.902344,1.398438 0.76315,0.01661 1.527099,-0.404199 1.888672,-1.080079 0.04082,-0.298132 -0.314565,-0.385919 -0.494141,-0.552734 -0.479273,-0.07329 -0.652496,0.711398 -1.216797,0.640625 -0.484306,0.09987 -0.92359,-0.248583 -1.083984,-0.6875 -0.302048,-0.776682 -0.302891,-1.676732 -0.03516,-2.462891 0.150477,-0.429 0.535161,-0.8452 1.029297,-0.777343 0.562287,-0.120471 0.796397,0.69748 1.273438,0.513672 0.169706,-0.153389 0.506049,-0.240103 0.447265,-0.525391 -0.362251,-0.626472 -1.093679,-0.98683 -1.808593,-0.974609 z m 4.136721,0.96289 c 0.4065,-0.0046 0.80774,0.339162 0.68945,0.773438 -0.19868,0.517877 -0.92357,0.687101 -1.33789,0.300781 -0.38518,-0.248461 -0.23605,-0.936012 0.21484,-1.021484 0.11336,-0.03534 0.23331,-0.04668 0.35157,-0.04687 0.027,-0.0035 0.0549,-0.0056 0.082,-0.0059 z m 4.49219,0 c 0.40649,-0.0046 0.80774,0.339166 0.68945,0.773438 -0.19868,0.517878 -0.92357,0.687099 -1.33789,0.300781 -0.38521,-0.248456 -0.23605,-0.936013 0.21484,-1.021484 0.11337,-0.03534 0.23328,-0.04668 0.35156,-0.04687 0.027,-0.0035 0.0549,-0.0056 0.082,-0.0059 z m -4.57618,2.367188 c 0.44897,0.145648 1.05992,0.411524 0.9668,0.992187 -0.0673,0.549249 -0.73934,0.668537 -1.19531,0.601563 -0.51807,0.0029 -0.93012,-0.543075 -0.66992,-1.025391 0.18313,-0.317742 0.57536,-0.446249 0.89843,-0.568359 z m 4.49219,0 c 0.44897,0.145649 1.05992,0.411525 0.9668,0.992187 -0.0673,0.549254 -0.73935,0.668531 -1.19531,0.601563 -0.51811,0.0029 -0.9301,-0.543059 -0.66993,-1.025391 0.18317,-0.317739 0.57541,-0.44627 0.89844,-0.568359 z" />
  <path
     id="rect16"
     style="fill:#c2c2c2;fill-opacity:1"
     d="m 43.5625,18.65625 c -5.3738,0 -9.699219,4.299287 -9.699219,9.640625 0,5.341338 4.325419,9.642578 9.699219,9.642578 h 40.486328 c 5.3738,0 9.699219,-4.30124 9.699219,-9.642578 0,-5.341338 -4.325419,-9.640625 -9.699219,-9.640625 z m -0.214844,2.583984 c 3.804843,0 6.900391,3.095548 6.900391,6.900391 0,3.804843 -3.095548,6.900391 -6.900391,6.900391 -3.804842,0 -6.90039,-3.095548 -6.90039,-6.900391 0,-3.804843 3.095548,-6.900391 6.90039,-6.900391 z m 40.939453,0 c 3.804843,0 6.900391,3.095548 6.900391,6.900391 0,3.804843 -3.095548,6.900391 -6.900391,6.900391 -3.804842,0 -6.898437,-3.095548 -6.898437,-6.900391 0,-3.804843 3.093595,-6.900391 6.898437,-6.900391 z m -29.783203,1.707032 h 18.992188 c 0.9418,0 1.699218,0.75937 1.699218,1.701172 v 5.947265 c 0,0.9418 -0.757418,1.699219 -1.699218,1.699219 h -0.103516 v -3.054688 a 0.15001501,0.15001501 0 0 0 -0.15039,-0.15039 h -0.484376 a 0.15001501,0.15001501 0 0 0 -0.15039,0.15039 v 3.054688 h -2.132813 v -1.152344 a 0.15001501,0.15001501 0 0 0 -0.15039,-0.15039 h -0.484375 a 0.15001501,0.15001501 0 0 0 -0.150391,0.15039 v 1.152344 h -2.296875 v -3.054688 a 0.15001501,0.15001501 0 0 0 -0.15039,-0.15039 h -0.484376 a 0.15001501,0.15001501 0 0 0 -0.15039,0.15039 v 3.054688 h -2.132813 v -1.152344 a 0.15001501,0.15001501 0 0 0 -0.15039,-0.15039 h -0.484375 a 0.15001501,0.15001501 0 0 0 -0.150391,0.15039 v 1.152344 h -2.296875 v -3.054688 a 0.15001501,0.15001501 0 0 0 -0.15039,-0.15039 h -0.484376 a 0.15001501,0.15001501 0 0 0 -0.15039,0.15039 v 3.054688 h -2.132813 v -1.152344 a 0.15001501,0.15001501 0 0 0 -0.15039,-0.15039 h -0.484375 a 0.15001501,0.15001501 0 0 0 -0.150391,0.15039 v 1.152344 h -2.296875 v -3.054688 a 0.15001501,0.15001501 0 0 0 -0.15039,-0.15039 h -0.484376 a 0.15001501,0.15001501 0 0 0 -0.15039,0.15039 v 3.054688 h -0.103516 c -0.9418,0 -1.699218,-0.757419 -1.699218,-1.699219 v -5.947265 c 0,-0.941801 0.757418,-1.701172 1.699218,-1.701172 z" />
  <circle
     style="fill:none;fill-opacity:1;stroke:#000000;stroke-width:0.6;stroke-linecap:round;stroke-linejoin:round;stroke-miterlimit:0;stroke-dasharray:none;stroke-opacity:1"
     id="path17"
     cx="111.62082"
     cy="59.57291"
     r="0.94062489" />
  <circle
     style="fill:none;fill-opacity:1;stroke:#000000;stroke-width:0.6;stroke-linecap:round;stroke-linejoin:round;stroke-miterlimit:0;stroke-dasharray:none;stroke-opacity:1"
     id="circle17"
     cx="111.62082"
     cy="3.5729103"
     r="0.94062489" />
  <circle
     style="fill:none;fill-opacity:1;stroke:#000000;stroke-width:0.6;stroke-linecap:round;stroke-linejoin:round;stroke-miterlimit:0;stroke-dasharray:none;stroke-opacity:1"
     id="circle18"
     cx="16.163788"
     cy="3.5729103"
     r="0.94062489" />
  <path
     id="path19"
     style="baseline-shift:baseline;display:inline;overflow:visible;opacity:1;vector-effect:none;stroke-width:1.34599;stroke-linecap:round;stroke-linejoin:round;stroke-miterlimit:0;enable-background:accumulate;stop-color:#000000;stop-opacity:1"
     d="m 54.954101,2.1616067 c -0.156492,-8.298e-4 -0.284545,0.2554419 -0.285156,0.5726636 -4.1e-4,0.3186839 0.127944,0.5772379 0.285156,0.5764062 h 2.677734 V 2.1616067 Z m 3.355469,0 v 1.1490698 h 0.396484 V 2.1616067 Z m 1.072265,0 v 1.1490698 h 5.705079 V 2.1616067 Z m 6.308594,0 v 1.1490698 h 7.355469 C 73.203112,3.3115063 73.331464,3.0529542 73.331054,2.7342703 73.330443,2.4170486 73.20239,2.1607788 73.045898,2.1616067 Z" />
  <path
     style="baseline-shift:baseline;display:inline;overflow:visible;opacity:1;vector-effect:none;fill:#ffffff;stroke-linecap:round;stroke-linejoin:round;stroke-miterlimit:0;stroke-dasharray:2.4, 1.2, 0.6, 1.2;enable-background:accumulate;stop-color:#000000;stop-opacity:1"
     d="m 39.116211,43.970703 a 0.30000001,0.30000001 0 0 0 -0.298828,0.300781 0.30000001,0.30000001 0 0 0 0.298828,0.298828 h 2.40039 a 0.30000001,0.30000001 0 0 0 0.300782,-0.298828 0.30000001,0.30000001 0 0 0 -0.300782,-0.300781 z m 3.601562,0 a 0.30000001,0.30000001 0 0 0 -0.300781,0.300781 0.30000001,0.30000001 0 0 0 0.300781,0.298828 h 0.59961 a 0.30000001,0.30000001 0 0 0 0.298828,-0.298828 0.30000001,0.30000001 0 0 0 -0.298828,-0.300781 z m 1.798828,0 a 0.30000001,0.30000001 0 0 0 -0.298828,0.300781 0.30000001,0.30000001 0 0 0 0.298828,0.298828 h 2.400391 a 0.30000001,0.30000001 0 0 0 0.300781,-0.298828 0.30000001,0.30000001 0 0 0 -0.300781,-0.300781 z m 3.59961,0 a 0.30000001,0.30000001 0 0 0 -0.298828,0.300781 0.30000001,0.30000001 0 0 0 0.298828,0.298828 h 0.601562 a 0.30000001,0.30000001 0 0 0 0.298828,-0.298828 0.30000001,0.30000001 0 0 0 -0.298828,-0.300781 z m 1.800781,0 a 0.30000001,0.30000001 0 0 0 -0.300781,0.300781 0.30000001,0.30000001 0 0 0 0.300781,0.298828 h 2.400391 a 0.30000001,0.30000001 0 0 0 0.298828,-0.298828 0.30000001,0.30000001 0 0 0 -0.298828,-0.300781 z m 3.599609,0 a 0.30000001,0.30000001 0 0 0 -0.298828,0.300781 0.30000001,0.30000001 0 0 0 0.298828,0.298828 h 0.59961 a 0.30000001,0.30000001 0 0 0 0.300781,-0.298828 0.30000001,0.30000001 0 0 0 -0.300781,-0.300781 z m 1.800782,0 a 0.30000001,0.30000001 0 0 0 -0.300782,0.300781 0.30000001,0.30000001 0 0 0 0.300782,0.298828 h 2.40039 a 0.30000001,0.30000001 0 0 0 0.298828,-0.298828 0.30000001,0.30000001 0 0 0 -0.298828,-0.300781 z m 3.599609,0 a 0.30000001,0.30000001 0 0 0 -0.300781,0.300781 0.30000001,0.30000001 0 0 0 0.300781,0.298828 h 0.599609 a 0.30000001,0.30000001 0 0 0 0.300782,-0.298828 0.30000001,0.30000001 0 0 0 -0.300782,-0.300781 z m 1.800781,0 a 0.30000001,0.30000001 0 0 0 -0.300781,0.300781 0.30000001,0.30000001 0 0 0 0.300781,0.298828 h 2.398438 a 0.30000001,0.30000001 0 0 0 0.300781,-0.298828 0.30000001,0.30000001 0 0 0 -0.300781,-0.300781 z m 3.59961,0 a 0.30000001,0.30000001 0 0 0 -0.300782,0.300781 0.30000001,0.30000001 0 0 0 0.300782,0.298828 h 0.599609 a 0.30000001,0.30000001 0 0 0 0.300781,-0.298828 0.30000001,0.30000001 0 0 0 -0.300781,-0.300781 z m 1.798828,0 a 0.30000001,0.30000001 0 0 0 -0.298828,0.300781 0.30000001,0.30000001 0 0 0 0.298828,0.298828 h 2.40039 a 0.30000001,0.30000001 0 0 0 0.300782,-0.298828 0.30000001,0.30000001 0 0 0 -0.300782,-0.300781 z m 3.601562,0 a 0.30000001,0.30000001 0 0 0 -0.300781,0.300781 0.30000001,0.30000001 0 0 0 0.300781,0.298828 h 0.59961 a 0.30000001,0.30000001 0 0 0 0.298828,-0.298828 0.30000001,0.30000001 0 0 0 -0.298828,-0.300781 z m 1.798828,0 a 0.30000001,0.30000001 0 0 0 -0.298828,0.300781 0.30000001,0.30000001 0 0 0 0.298828,0.298828 h 2.400391 a 0.30000001,0.30000001 0 0 0 0.300781,-0.298828 0.30000001,0.30000001 0 0 0 -0.300781,-0.300781 z m 3.59961,0 a 0.30000001,0.30000001 0 0 0 -0.298828,0.300781 0.30000001,0.30000001 0 0 0 0.298828,0.298828 h 0.601562 a 0.30000001,0.30000001 0 0 0 0.298828,-0.298828 0.30000001,0.30000001 0 0 0 -0.298828,-0.300781 z m 1.800781,0 a 0.30000001,0.30000001 0 0 0 -0.300781,0.300781 0.30000001,0.30000001 0 0 0 0.300781,0.298828 h 2.400391 a 0.30000001,0.30000001 0 0 0 0.298828,-0.298828 0.30000001,0.30000001 0 0 0 -0.298828,-0.300781 z m 3.599609,0 a 0.30000001,0.30000001 0 0 0 -0.298828,0.300781 0.30000001,0.30000001 0 0 0 0.298828,0.298828 h 0.59961 a 0.30000001,0.30000001 0 0 0 0.300781,-0.298828 0.30000001,0.30000001 0 0 0 -0.300781,-0.300781 z m 1.800782,0 a 0.30000001,0.30000001 0 0 0 -0.300782,0.300781 0.30000001,0.30000001 0 0 0 0.300782,0.298828 h 2.40039 a 0.30000001,0.30000001 0 0 0 0.298828,-0.298828 0.30000001,0.30000001 0 0 0 -0.298828,-0.300781 z m 3.599609,0 a 0.30000001,0.30000001 0 0 0 -0.300781,0.300781 0.30000001,0.30000001 0 0 0 0.300781,0.298828 h 0.599609 a 0.30000001,0.30000001 0 0 0 0.300782,-0.298828 0.30000001,0.30000001 0 0 0 -0.300782,-0.300781 z m 1.800781,0 a 0.30000001,0.30000001 0 0 0 -0.300781,0.300781 0.30000001,0.30000001 0 0 0 0.300781,0.298828 h 1.164063 a 0.30000001,0.30000001 0 0 0 0.300781,-0.298828 0.30000001,0.30000001 0 0 0 -0.300781,-0.300781 z"
     id="path20" />
  <path
     id="path31"
     style="fill:#000000;fill-opacity:1"
     d="m 52.595703,21.708984 a 0.75,0.75 0 0 0 -0.75,0.75 0.75,0.75 0 0 0 0.75,0.75 0.75,0.75 0 0 0 0.75,-0.75 0.75,0.75 0 0 0 -0.75,-0.75 z m 22.808594,0 a 0.75,0.75 0 0 0 -0.75,0.75 0.75,0.75 0 0 0 0.75,0.75 0.75,0.75 0 0 0 0.75,-0.75 0.75,0.75 0 0 0 -0.75,-0.75 z M 52.507812,31.912109 49.703125,37.095703 53.1875,32.677734 Z m 22.982422,0 -0.679687,0.765625 3.484375,4.417969 z" />
  <path
     id="animate-rotate-time-01"
     class="Hub"
     style="fill:#ffffff;fill-opacity:1"
     d="m 43.235841,22.28911 a 6,6 0 0 0 -6,6 6,6 0 0 0 6,6 6,6 0 0 0 6,-6 6,6 0 0 0 -6,-6 z m -0.76374,0.674835 v 1.664064 c 0.249098,-0.05842 0.504813,-0.0897 0.76374,-0.0897 0.258831,0 0.514739,0.03131 0.76374,0.0897 v -1.664064 a 5.3793103,5.3793103 0 0 1 3.46632,2.001889 l -1.481404,0.855061 c 0.345943,0.380755 0.620044,0.825593 0.79364,1.305235 l 1.451508,-0.837289 a 5.3793103,5.3793103 0 0 1 0.385503,2.000269 5.3793103,5.3793103 0 0 1 -0.386309,2.001074 L 46.778137,29.45209 c -0.173625,0.479755 -0.4476,0.925224 -0.79364,1.306041 l 1.480599,0.855061 a 5.3793103,5.3793103 0 0 1 -3.465515,2.001082 v -1.664063 c -0.249001,0.05838 -0.50491,0.0897 -0.76374,0.0897 -0.258927,0 -0.514642,-0.03126 -0.76374,-0.0897 v 1.664063 a 5.3793103,5.3793103 0 0 1 -3.465515,-2.001082 l 1.481413,-0.855061 C 40.142037,30.37748 39.867237,29.93245 39.693545,29.452905 l -1.450702,0.837279 a 5.3793103,5.3793103 0 0 1 -0.386309,-2.001074 5.3793103,5.3793103 0 0 1 0.385503,-2.000269 l 1.451508,0.837289 c 0.173569,-0.479754 0.448468,-0.924393 0.794454,-1.305235 l -1.481413,-0.855061 v -8.24e-4 a 5.3793103,5.3793103 0 0 1 3.465515,-2.00108 z" />
  <path
     id="animate-rotate-time-02"
     class="Hub"
     style="fill:#ffffff;fill-opacity:1"
     d="m 87.009604,22.933598 a 6,6 0 0 0 -8.060783,2.650241 6,6 0 0 0 2.650241,8.060783 6,6 0 0 0 8.060783,-2.650241 6,6 0 0 0 -2.650241,-8.060783 z m -0.985972,0.257994 -0.750291,1.485318 c 0.248684,0.06017 0.491032,0.147547 0.722147,0.264292 0.231028,0.116701 0.445331,0.260031 0.641259,0.424417 L 87.387038,23.8803 a 5.3793103,5.3793103 0 0 1 2.191378,3.349746 l -1.707808,0.09528 c 0.13711,0.495834 0.1812,1.016476 0.119889,1.522868 l 1.67311,-0.0929 a 5.3793103,5.3793103 0 0 1 -0.557784,1.959225 5.3793103,5.3793103 0 0 1 -1.247055,1.611952 l -0.916996,-1.40216 c -0.371287,0.349938 -0.816685,0.624027 -1.297258,0.807917 l 0.936033,1.430785 a 5.3793103,5.3793103 0 0 1 -3.995514,0.22361 l 0.750291,-1.485318 c -0.248576,-0.06017 -0.491118,-0.14759 -0.722145,-0.264291 -0.231115,-0.116745 -0.445266,-0.259947 -0.641261,-0.424417 l -0.750291,1.485318 a 5.3793103,5.3793103 0 0 1 -2.191022,-3.348663 l 1.707815,-0.09528 c -0.137172,-0.49575 -0.181801,-1.016879 -0.120618,-1.523228 l -1.672388,0.09325 a 5.3793103,5.3793103 0 0 1 0.557429,-1.960307 5.3793103,5.3793103 0 0 1 1.245972,-1.611597 l 0.91808,1.401805 C 82.03813,25.303933 82.48398,25.031 82.964515,24.847064 l -0.93676,-1.431152 3.72e-4,-7.35e-4 a 5.3793103,5.3793103 0 0 1 3.995512,-0.223608 z" />
  <rect
     id="level-01-onoff"
     class="LevelAnd"
     style="fill:#ffff00;fill-opacity:1"
     width="1.1009985"
     height="5.5049925"
     x="101.08168"
     y="22.138372" />
  <rect
     id="level-02-onoff"
     class="LevelAnd"
     style="fill:#ffff00;fill-opacity;1"
     width="1.1009985"
     height="5.5049925"
     x="98.511169"
     y="22.138372" />
  <rect
     id="level-03-onoff"
     class="LevelAnd"
     style="fill:#ffff00;;fill-opacity:1"
     width="1.1009985"
     height="5.5049925"
     x="103.65218"
     y="22.138372" />
</svg>
