<?xml version="1.0" encoding="UTF-8" standalone="no"?>
<!-- Created with Inkscape (http://www.inkscape.org/) -->

<svg
   width="8.9958334mm"
   height="8.9958334mm"
   viewBox="0 0 8.9958335 8.9958335"
   version="1.1"
   id="svg1"
   xml:space="preserve"
   xmlns="http://www.w3.org/2000/svg"
   xmlns:svg="http://www.w3.org/2000/svg"><defs
     id="defs1" /><rect
     style="fill:#000000;fill-opacity:1;stroke-width:0.76729;stroke-linecap:round;stroke-linejoin:round;stroke-miterlimit:0"
     id="rect2"
     width="8.9958334"
     height="8.9958334"
     x="-1.110223e-16"
     y="1.110223e-16" /><path
     style="baseline-shift:baseline;display:inline;overflow:visible;vector-effect:none;fill:#ffffff;stroke-linecap:round;stroke-linejoin:round;stroke-miterlimit:0;enable-background:accumulate;stop-color:#000000"
     d="M 3.8318953,0.60195182 C 2.430909,0.60210412 1.292984,1.7400278 1.292833,3.1410144 1.293691,3.3685539 1.329363,3.5938131 1.390493,3.8128893 1.235307,4.0154114 1.125777,4.2535751 1.124868,4.510155 c 4e-6,0.1846121 0.04511,0.3667521 0.128906,0.53125 a 0.110011,0.110011 0 0 0 0.09766,0.060547 H 7.4647153 A 0.110011,0.110011 0 0 0 7.5526063,5.058983 C 7.7583475,4.7868555 7.8709001,4.4548201 7.8709653,4.1136706 7.8709807,3.2491494 7.167127,2.5452959 6.3026059,2.5453112 c -0.012265,-1.04e-5 -0.024849,0.00168 -0.037109,0.00195 C 5.9854429,1.420914 5.0019389,0.60178102 3.8319032,0.60195182 Z m 0,0.22070317 C 4.935836,0.82249379 5.8857348,1.5981982 6.1053324,2.6800769 a 0.110011,0.110011 0 0 0 0.1132813,0.087891 c 0.027682,-0.00169 0.056251,-0.00198 0.083984,-0.00195 0.7456215,-1.32e-5 1.3476695,0.6020346 1.3476562,1.3476562 -5.25e-5,0.2770294 -0.099287,0.5413444 -0.2578121,0.767575 H 1.435411 C 1.384761,4.7631391 1.345571,4.6391028 1.345571,4.5101554 1.346386,4.2801929 1.429961,4.059732 1.581899,3.8871085 A 0.110011,0.110011 0 0 0 1.605339,3.7835929 C 1.544279,3.5748721 1.512409,3.358481 1.511589,3.1410148 1.511727,1.8589082 2.549795,0.82279469 3.8319023,0.82265499 Z"
     id="path9" /><path
     id="path90"
     style="baseline-shift:baseline;display:inline;overflow:visible;vector-effect:none;fill:#ffffff;stroke-linecap:round;stroke-linejoin:round;stroke-miterlimit:0;enable-background:accumulate;stop-color:#000000"
     d="m 6.8233541,5.5676653 v 5.2e-4 c -0.0083,0 -0.01657,3.1e-4 -0.0248,5.2e-4 v 0.0088 H 1.172541 v 0.19947 h 5.7422854 c 0.0071,9e-5 0.01422,-6.5e-4 0.02119,-0.0021 0.389509,0.0545 0.687813,0.3878903 0.687813,0.7927203 0,0.44301 -0.357456,0.79892 -0.8004683,0.79892 -0.322178,0 -0.598393,-0.18791 -0.72502,-0.46096 h -0.216524 c 0.138876,0.38567 0.508837,0.662497 0.941544,0.662497 0.5511003,0 0.9999393,-0.449357 0.9999393,-1.000457 0,-0.5511003 -0.448839,-0.9999403 -0.9999393,-0.9999403 z m -2.073775,0.6247703 v 5.2e-4 c -0.01817,-1.5e-4 -0.03604,0.005 -0.05168,0.01395 H 1.172533 v 0.39842 h 3.5868611 c 0.01723,-7e-5 0.03411,-0.0022 0.05013,-0.0072 0.347107,0.0428 0.6139163,0.33461 0.6139163,0.69401 0,0.389229 -0.3112803,0.699187 -0.7007333,0.699187 -0.363689,0 -0.6579143,-0.269105 -0.6955643,-0.621147 -0.0054,-0.051 -0.0485,-0.0896 -0.09974,-0.0894 h -0.201021 c -0.05796,2e-5 -0.10377,0.0491 -0.09974,0.10697 0.04866,0.56166 0.522811,1.006136 1.0960573,1.006136 0.6054573,0 1.0991583,-0.496329 1.0991583,-1.101746 0,-0.59607 -0.479474,-1.0848 -1.0722863,-1.09967 z" /></svg>
