<?xml version="1.0" encoding="UTF-8" standalone="no"?>
<!-- Created with Inkscape (http://www.inkscape.org/) -->

<svg
   width="8.9958334mm"
   height="8.9958334mm"
   viewBox="0 0 8.9958335 8.9958335"
   version="1.1"
   id="svg1"
   xml:space="preserve"
   xmlns="http://www.w3.org/2000/svg"
   xmlns:svg="http://www.w3.org/2000/svg"><defs
     id="defs1" /><rect
     style="fill:#000000;fill-opacity:1;stroke-width:0.76729;stroke-linecap:round;stroke-linejoin:round;stroke-miterlimit:0"
     id="rect2"
     width="8.9958334"
     height="8.9958334"
     x="-1.110223e-16"
     y="1.110223e-16" /><path
     id="path125"
     style="baseline-shift:baseline;display:inline;overflow:visible;opacity:1;vector-effect:none;fill:#ffffff;fill-opacity:1;stroke-linecap:round;stroke-linejoin:round;stroke-miterlimit:0;enable-background:accumulate;stop-color:#000000;stop-opacity:1"
     d="m 4.0408386,0.9198407 c -1.3955828,1.52e-4 -2.5288938,1.133461 -2.5290448,2.529044 -7e-6,6.89e-4 -7e-6,0.0014 0,0.0021 8.6e-4,0.227884 0.03612,0.452466 0.09767,0.671793 -0.150939,0.195054 -0.256095,0.317043 -0.26355,0.56379 0.0665,-0.02055 0.134466,-0.04098 0.203088,-0.06046 0.01914,-0.200828 0.101889,-0.284113 0.236162,-0.436666 0.02216,-0.02595 0.02956,-0.0614 0.01964,-0.09405 -0.06132,-0.209621 -0.09115,-0.428069 -0.09198,-0.646473 1.39e-4,-1.28751 1.040513,-2.327883 2.3280228,-2.328023 1.108636,-1.62e-4 2.062533,0.779038 2.283065,1.865519 0.0098,0.04885 0.05413,0.083 0.103869,0.0801 0.02789,-0.0017 0.05578,-0.0021 0.08372,-0.0021 0.751026,-1.4e-5 1.357553,0.605996 1.35754,1.357023 -2.8e-5,0.147236 0.0068,0.157521 -0.04186,0.294039 0.0686,0.02243 0.134258,0.0446 0.19637,0.06615 0.05268,-0.158188 0.04648,-0.190786 0.04651,-0.359668 1.5e-5,-0.859117 -0.699444,-1.557026 -1.558561,-1.557011 -0.01373,-1.2e-5 -0.02709,-3.52e-4 -0.04082,0 -0.275603,-1.126962 -1.261056,-1.945271 -2.429826,-1.945101 z m -1.5291058,3.679362 c -0.36824,0 -0.864862,0.136216 -1.279508,0.269751 -0.414646,0.133535 -0.744141,0.267684 -0.744141,0.267684 a 0.1,0.1 0 0 0 -0.05478,0.130741 0.1,0.1 0 0 0 0.131258,0.05478 c 0,0 0.321194,-0.13095 0.728121,-0.261999 0.406928,-0.131048 0.902309,-0.259416 1.219047,-0.259416 0.290988,0 0.604494,0.241329 0.929659,0.505912 0.325164,0.264584 0.6627918,0.552421 1.0567828,0.552421 0.393992,0 0.731102,-0.287837 1.056267,-0.552421 0.325164,-0.264583 0.638672,-0.505912 0.929659,-0.505912 0.316739,0 0.81212,0.128368 1.219047,0.259416 0.406928,0.131049 0.728637,0.261999 0.728637,0.261999 a 0.1,0.1 0 0 0 0.130742,-0.05478 0.1,0.1 0 0 0 -0.05478,-0.130741 c 0,0 -0.329495,-0.134149 -0.744141,-0.267684 -0.414646,-0.133535 -0.911267,-0.269751 -1.279508,-0.269751 -0.393991,0 -0.731103,0.288355 -1.056267,0.552938 -0.325165,0.264584 -0.638671,0.505912 -0.929659,0.505912 -0.290987,0 -0.6050118,-0.241328 -0.9301758,-0.505912 -0.325164,-0.264583 -0.662275,-0.552937 -1.056266,-0.552938 z m 0,1.009757 c -0.381116,0 -0.878435,0.137662 -1.295011,0.271818 -0.416576,0.134156 -0.746208,0.267684 -0.746208,0.267684 a 0.15000001,0.15000001 0 0 0 -0.08216,0.195337 0.15000001,0.15000001 0 0 0 0.195337,0.08372 c 0,0 0.320022,-0.131055 0.72502,-0.261483 0.404998,-0.130427 0.899164,-0.257865 1.203027,-0.257865 0.265237,0 0.572972,0.231511 0.898137,0.496094 0.325164,0.264584 0.6685628,0.562239 1.0883048,0.562239 0.419743,0 0.762624,-0.297655 1.087789,-0.562239 0.325164,-0.264583 0.632901,-0.496094 0.898137,-0.496094 0.303863,0 0.798546,0.127438 1.203544,0.257865 0.404998,0.130428 0.724503,0.261483 0.724503,0.261483 a 0.15000001,0.15000001 0 0 0 0.195337,-0.08372 0.15000001,0.15000001 0 0 0 -0.08217,-0.195337 c 0,0 -0.329632,-0.133528 -0.746208,-0.267684 -0.416576,-0.134156 -0.913895,-0.271818 -1.295011,-0.271818 -0.419742,0 -0.762625,0.298173 -1.087789,0.562757 -0.325165,0.264583 -0.6329,0.496093 -0.898137,0.496093 -0.265236,0 -0.573489,-0.23151 -0.8986528,-0.496093 -0.325165,-0.264584 -0.668046,-0.562758 -1.087789,-0.562757 z m 0,1.008208 c -0.393991,0 -0.892008,0.13859 -1.310514,0.273368 -0.418505,0.134777 -0.750342,0.271301 -0.750342,0.271301 a 0.2,0.2 0 0 0 -0.109037,0.259933 0.2,0.2 0 0 0 0.259415,0.109554 c 0,0 0.319886,-0.130127 0.722954,-0.259933 0.403068,-0.129806 0.896537,-0.253731 1.187524,-0.253731 0.239486,0 0.541966,0.219624 0.867131,0.484208 0.325164,0.264583 0.6738178,0.574125 1.1193108,0.574125 0.445494,0 0.79363,-0.309542 1.118795,-0.574125 0.325164,-0.264584 0.627646,-0.484208 0.867131,-0.484208 0.290988,0 0.784456,0.123925 1.187524,0.253731 0.403069,0.129806 0.722953,0.259933 0.722953,0.259933 a 0.2,0.2 0 0 0 0.259416,-0.109554 0.2,0.2 0 0 0 -0.109037,-0.259933 c 0,0 -0.331836,-0.136524 -0.750342,-0.271301 -0.418505,-0.134778 -0.916522,-0.273368 -1.310514,-0.273368 -0.445493,0 -0.793631,0.309541 -1.118795,0.574125 -0.325165,0.264583 -0.627645,0.484208 -0.867131,0.484208 -0.239485,0 -0.542483,-0.219625 -0.8676468,-0.484208 -0.325165,-0.264584 -0.673301,-0.574125 -1.118795,-0.574125 z" /></svg>
