<?xml version="1.0" encoding="UTF-8" standalone="no"?>
<!-- Created with Inkscape (http://www.inkscape.org/) -->

<svg
   width="8.9958334mm"
   height="8.9958334mm"
   viewBox="0 0 8.9958335 8.9958335"
   version="1.1"
   id="svg1"
   xml:space="preserve"
   xmlns="http://www.w3.org/2000/svg"
   xmlns:svg="http://www.w3.org/2000/svg"><defs
     id="defs1" /><rect
     style="fill:#000000;fill-opacity:1;stroke-width:0.76729;stroke-linecap:round;stroke-linejoin:round;stroke-miterlimit:0"
     id="rect2"
     width="8.9958334"
     height="8.9958334"
     x="0"
     y="0" /><path
     style="baseline-shift:baseline;display:inline;overflow:visible;opacity:1;vector-effect:none;fill:#ffffff;stroke-linecap:round;stroke-linejoin:round;stroke-miterlimit:0;enable-background:accumulate;stop-color:#000000;stop-opacity:1"
     d="M 3.8320313,0.99609375 C 2.4310447,0.99624604 1.2931199,2.1341697 1.2929687,3.5351563 1.2938274,3.7626958 1.3294932,3.987955 1.390625,4.2070312 1.2354395,4.4095533 1.1259091,4.647717 1.125,4.9042969 c 3.9e-6,0.1846121 0.045108,0.3667521 0.1289062,0.53125 a 0.110011,0.110011 0 0 0 0.097656,0.060547 H 7.4648437 A 0.110011,0.110011 0 0 0 7.5527344,5.453125 C 7.7584759,5.1809974 7.8710285,4.848962 7.8710937,4.5078125 7.8711091,3.6432913 7.1672555,2.9394378 6.3027344,2.9394531 6.290469,2.9394427 6.2778858,2.9411289 6.265625,2.9414063 5.9855713,1.8150559 5.0020673,0.99592297 3.8320313,0.99609375 Z m 0,0.22070315 C 4.9359717,1.2166357 5.8858711,1.9923401 6.1054687,3.0742188 A 0.110011,0.110011 0 0 0 6.21875,3.1621094 c 0.027682,-0.00169 0.056251,-0.00198 0.083984,-0.00195 C 7.0483555,3.1601462 7.6504035,3.762194 7.6503902,4.5078156 7.6503377,4.784845 7.5511035,5.04916 7.3925781,5.2753906 H 1.4355469 C 1.3849002,5.1572806 1.3457059,5.0332443 1.3457031,4.9042969 1.3465179,4.6743344 1.4300953,4.4538735 1.5820312,4.28125 A 0.110011,0.110011 0 0 0 1.6054687,4.1777344 C 1.5444126,3.9690136 1.5125394,3.7526225 1.5117187,3.5351563 1.5118571,2.2530497 2.5499247,1.2169362 3.8320313,1.2167969 Z"
     id="path9" /><path
     id="text67"
     style="font-size:2.66249px;line-height:1.1;font-family:System-ui;-inkscape-font-specification:System-ui;letter-spacing:3.22295px;baseline-shift:baseline;display:inline;overflow:visible;vector-effect:none;fill:#ffffff;stroke-linecap:round;stroke-linejoin:round;stroke-miterlimit:0;enable-background:accumulate;stop-color:#000000"
     d="M 1.775988,5.989448 A 0.1509596,0.1509596 0 0 0 1.62716,6.157397 L 1.65868,6.446785 1.367741,6.362555 A 0.1509596,0.1509596 0 0 0 1.178089,6.485545 L 1.140879,6.729974 A 0.1509596,0.1509596 0 0 0 1.277821,6.903607 L 1.490728,6.921177 1.34035,7.124266 a 0.1509596,0.1509596 0 0 0 0.05271,0.222725 l 0.236161,0.125057 a 0.1509596,0.1509596 0 0 0 0.20929,-0.07235 l 0.07183,-0.165881 0.08423,0.171565 a 0.1509596,0.1509596 0 0 0 0.208772,0.06666 L 2.431753,7.346985 A 0.1509596,0.1509596 0 0 0 2.480843,7.122193 L 2.328397,6.921171 2.545438,6.903601 A 0.1509596,0.1509596 0 0 0 2.681864,6.729968 L 2.644654,6.485539 A 0.1509596,0.1509596 0 0 0 2.455518,6.362549 L 2.158379,6.446269 2.187829,6.155331 A 0.1509596,0.1509596 0 0 0 2.037451,5.989449 Z m 0.132809,0.709001 a 0.1509596,0.1509596 0 0 0 0.07028,0.06046 0.1509596,0.1509596 0 0 0 -0.02377,0.05064 0.1509596,0.1509596 0 0 0 -0.09354,0 0.1509596,0.1509596 0 0 0 -0.02325,-0.05271 0.1509596,0.1509596 0 0 0 0.07028,-0.05839 z" /><path
     d="M 3.6744598,6.0400425 3.4881807,6.325069 3.8329114,6.3952729 3.7806415,6.5508736 3.4799235,6.4259518 3.5391073,6.769794 3.3662933,6.774129 3.3741554,6.4310535 3.1121868,6.6434272 3.0105027,6.4979017 3.3214998,6.3444652 3.0481248,6.1740974 3.1443065,6.041083 3.3987654,6.2790775 3.5207332,5.9609719 Z"
     id="text68"
     style="font-size:1.76389px;line-height:1.1;font-family:System-ui;-inkscape-font-specification:System-ui;letter-spacing:2.13519px;fill:#ffffff;stroke-width:0.2;stroke-linecap:round;stroke-linejoin:round;stroke-miterlimit:0"
     aria-label="*" /><path
     id="path68"
     style="font-size:2.66249px;line-height:1.1;font-family:System-ui;-inkscape-font-specification:System-ui;letter-spacing:3.22295px;baseline-shift:baseline;display:inline;overflow:visible;vector-effect:none;fill:#ffffff;stroke-linecap:round;stroke-linejoin:round;stroke-miterlimit:0;enable-background:accumulate;stop-color:#000000"
     d="M 7.067658,5.989448 C 6.978028,5.990144 6.90874,6.068328 6.91883,6.157397 L 6.95035,6.446785 6.659411,6.362555 c -0.08732,-0.02424 -0.176163,0.03338 -0.189652,0.12299 l -0.03721,0.244429 c -0.01346,0.08667 0.04952,0.166528 0.136942,0.173633 L 6.782398,6.921177 6.63202,7.124266 C 6.57776,7.199006 6.60273,7.304503 6.68473,7.346991 l 0.236161,0.125057 c 0.07752,0.0414 0.173889,0.0081 0.20929,-0.07235 l 0.07183,-0.165881 0.08423,0.171565 c 0.03761,0.07797 0.132941,0.108407 0.208772,0.06666 L 7.723423,7.346985 C 7.805613,7.303225 7.828975,7.196229 7.772513,7.122193 L 7.620067,6.921171 7.837108,6.903601 c 0.08721,-0.0074 0.149884,-0.08715 0.136426,-0.173633 L 7.936324,6.485539 C 7.922794,6.396199 7.834337,6.338679 7.747188,6.362549 l -0.297139,0.08372 0.02945,-0.290938 c 0.0088,-0.0889 -0.06104,-0.165975 -0.150378,-0.165882 z m 0.132809,0.709001 c 0.01651,0.02703 0.04109,0.04818 0.07028,0.06046 -0.01101,0.01525 -0.01907,0.03243 -0.02377,0.05064 -0.03039,-0.0099 -0.06315,-0.0099 -0.09354,0 -0.0043,-0.0189 -0.01219,-0.03679 -0.02325,-0.05271 0.0289,-0.01174 0.05345,-0.03213 0.07028,-0.05839 z" /><path
     d="m 6.066364,7.5706549 -0.03528,0.338667 0.338667,-0.09525 0.02469,0.162278 -0.324556,0.02646 0.209903,0.278695 -0.151694,0.0829 -0.149931,-0.30868 -0.135819,0.30868 -0.156987,-0.0829 0.206376,-0.278695 -0.321028,-0.02646 0.02469,-0.162278 0.335139,0.09525 -0.03704,-0.338667 z"
     id="path69"
     style="font-size:1.76389px;line-height:1.1;font-family:System-ui;-inkscape-font-specification:System-ui;letter-spacing:2.13519px;fill:#ffffff;stroke-width:0.2;stroke-linecap:round;stroke-linejoin:round;stroke-miterlimit:0"
     aria-label="*" /><path
     d="m 5.3657554,5.8088186 -0.053071,0.509441 0.5094405,-0.14328 0.037138,0.244106 -0.4882139,0.03979 0.3157476,0.419231 -0.2281851,0.124706 -0.2255339,-0.464333 -0.2043061,0.464333 -0.2361477,-0.124702 0.3104414,-0.419227 -0.4829071,-0.0398 0.037141,-0.244106 0.5041335,0.14328 -0.055717,-0.509441 z"
     id="path75"
     style="font-size:1.76389px;line-height:1.1;font-family:System-ui;-inkscape-font-specification:System-ui;letter-spacing:2.13519px;fill:#ffffff;stroke-width:0.300851;stroke-linecap:round;stroke-linejoin:round;stroke-miterlimit:0"
     aria-label="*" /><path
     id="path76"
     style="font-size:2.66249px;line-height:1.1;font-family:System-ui;-inkscape-font-specification:System-ui;letter-spacing:3.22295px;baseline-shift:baseline;display:inline;overflow:visible;vector-effect:none;fill:#ffffff;stroke-linecap:round;stroke-linejoin:round;stroke-miterlimit:0;enable-background:accumulate;stop-color:#000000"
     d="m 3.5921897,6.9824387 c -0.08963,6.96e-4 -0.158918,0.07888 -0.148828,0.167949 l 0.03152,0.289388 -0.290939,-0.08423 c -0.08732,-0.02424 -0.176163,0.03338 -0.189652,0.12299 l -0.03721,0.244429 c -0.01346,0.08667 0.04952,0.166528 0.136942,0.173633 l 0.212907,0.01757 -0.150378,0.203089 c -0.05426,0.07474 -0.02929,0.180237 0.05271,0.222725 l 0.236161,0.125057 c 0.07752,0.0414 0.173889,0.0081 0.20929,-0.07235 l 0.07183,-0.165881 0.08423,0.171565 c 0.03761,0.07797 0.132941,0.108407 0.208772,0.06666 l 0.22841,-0.125057 c 0.08219,-0.04376 0.105552,-0.150756 0.04909,-0.224792 l -0.152446,-0.201022 0.217041,-0.01757 c 0.08721,-0.0074 0.149884,-0.08715 0.136426,-0.173633 l -0.03721,-0.244429 c -0.01353,-0.08934 -0.101987,-0.14686 -0.189136,-0.12299 l -0.297139,0.08372 0.02945,-0.290938 c 0.0088,-0.0889 -0.06104,-0.165975 -0.150378,-0.165882 z m 0.132809,0.709001 c 0.01651,0.02703 0.04109,0.04818 0.07028,0.06046 -0.01101,0.01525 -0.01907,0.03243 -0.02377,0.05064 -0.03039,-0.0099 -0.06315,-0.0099 -0.09354,0 -0.0043,-0.0189 -0.01219,-0.03679 -0.02325,-0.05271 0.0289,-0.01174 0.05345,-0.03213 0.07028,-0.05839 z" /></svg>
