<?xml version="1.0" encoding="UTF-8" standalone="no"?>
<!-- Created with Inkscape (http://www.inkscape.org/) -->

<svg
   width="8.9958334mm"
   height="8.9958334mm"
   viewBox="0 0 8.9958335 8.9958335"
   version="1.1"
   id="svg1"
   xml:space="preserve"
   xmlns="http://www.w3.org/2000/svg"
   xmlns:svg="http://www.w3.org/2000/svg"><defs
     id="defs1" /><rect
     style="fill:#000000;fill-opacity:1;stroke-width:0.76729;stroke-linecap:round;stroke-linejoin:round;stroke-miterlimit:0"
     id="rect2"
     width="8.9958334"
     height="8.9958334"
     x="-1.110223e-16"
     y="1.110223e-16" /><path
     id="path152"
     style="fill:#ffffff;fill-opacity:1;stroke-width:0.0442949"
     d="m 7.0584839,0.9921875 -0.081649,0.007235 C 6.7080318,1.0234166 6.2289016,1.1127691 5.933488,1.1937256 4.8205705,1.4987357 3.9497698,2.0621261 3.2607829,2.9223022 3.103096,3.1191703 2.8283522,3.5322069 2.7626221,3.6716105 2.6927953,3.8197016 2.6422474,3.9704929 2.6086263,4.1315308 c -0.022007,0.1053309 -0.026089,0.1636686 -0.026355,0.3545003 -3.632e-4,0.2695648 0.016473,0.3813225 0.094051,0.6185669 0.094687,0.2895694 0.2469375,0.5375953 0.4625041,0.7524088 0.1556428,0.1551007 0.3015749,0.2597065 0.5033284,0.3601848 0.08702,0.043327 0.1627593,0.084215 0.1679485,0.090951 0.020151,0.026017 -1.367e-4,0.1985468 -0.033073,0.2821533 C 3.6247978,6.9766374 3.1033026,7.3923019 2.1306193,7.90236 l -0.1932699,0.1012858 0.081649,-0.00723 C 2.288238,7.9723195 2.7670144,7.883042 3.0623454,7.8021077 4.1772366,7.4965578 5.045917,6.9342326 5.738151,6.0699137 5.8741135,5.9001506 6.204554,5.409773 6.2657674,5.2870158 6.3655017,5.0869074 6.395437,4.9457257 6.404777,4.6250407 6.412853,4.3472895 6.3998572,4.2438553 6.3298462,4.023527 6.1575777,3.4814306 5.74322,2.9783842 5.2833984,2.7538371 5.2365778,2.7309697 5.19359,2.7069876 5.1862467,2.6995768 L 5.18573,2.6990601 C 5.18077,2.6900901 5.17883,2.6405211 5.1816,2.587439 5.1915238,2.3966794 5.2896871,2.2180904 5.5025065,2.0034953 5.791866,1.7117211 6.1765378,1.4556341 6.8770996,1.0877889 Z M 4.4979167,3.2266764 c 0.7011278,0 1.271757,0.5701124 1.271757,1.2712403 0,0.7011278 -0.5706292,1.271757 -1.271757,1.271757 -0.7011279,10e-8 -1.2712403,-0.5706292 -1.2712403,-1.271757 0,-0.7011279 0.5701124,-1.2712403 1.2712403,-1.2712403 z m 0,0.2304769 c -0.5761424,0 -1.0407634,0.464621 -1.0407634,1.0407634 -10e-8,0.5761424 0.464621,1.0412801 1.0407634,1.0412801 0.5761424,0 1.0412801,-0.4651377 1.0412801,-1.0412801 0,-0.5761424 -0.4651377,-1.0407634 -1.0412801,-1.0407634 z" /></svg>
