<?xml version="1.0" encoding="UTF-8" standalone="no"?>
<!-- Created with Inkscape (http://www.inkscape.org/) -->

<svg
   version="1.1"
   id="svg1"
   width="128"
   height="64"
   viewBox="0 0 128 64"
   xml:space="preserve"
   xmlns="http://www.w3.org/2000/svg"
   xmlns:svg="http://www.w3.org/2000/svg"><defs
     id="defs1" /><rect
     style="fill:#ff0000;fill-opacity:1;stroke-width:3;stroke-linecap:round;stroke-linejoin:round;stroke-miterlimit:0;paint-order:markers stroke fill"
     id="rect1"
     width="128"
     height="64"
     x="0"
     y="0" /><path
     id="animate-rotate-time-01"
     transform="rotate({{seconds-angle}} 33.8 22.62)"
     style="fill:#ffffff;fill-opacity:{{blink-odd}};stroke-width:7.94353;stroke-linecap:round;stroke-linejoin:round;stroke-miterlimit:0;paint-order:markers stroke fill"
     d="m 48.423912,6.689688 c -0.642383,-0.5714523 -2.785513,2.0988656 -5.22619,5.393802 0.160302,0.14283 0.320154,0.285408 0.478915,0.427653 2.98872,-2.8082452 5.389736,-5.2499347 4.747275,-5.821455 z m 5.958557,9.057882 c -0.508283,-0.431349 -2.71684,0.333212 -5.490503,1.49206 0.288426,0.259536 0.569112,0.510262 0.841505,0.753263 2.884192,-0.74053 4.95816,-1.455536 4.741486,-2.109002 -0.01797,-0.05421 -0.04941,-0.09977 -0.09249,-0.136321 z M 38.747365,1.8412116 c -0.04388,-0.045207 -0.0964,-0.075981 -0.157901,-0.088668 -0.520687,-0.1074086 -0.918937,1.1466623 -1.257398,3.0819569 0.261357,0.6151185 0.519982,1.2298358 0.777555,1.846457 C 38.796857,4.1872359 39.17154,2.278229 38.747365,1.8412116 Z M 49.081213,18.158694 c -0.253426,-0.224063 -0.507543,-0.451024 -0.762188,-0.677848 -1.324352,0.562624 -2.754477,1.199856 -4.176426,1.82903 1.698021,-0.38642 3.409672,-0.771488 4.938614,-1.151182 z m -4.938614,1.151182 c -0.252188,0.05739 -0.504965,0.114206 -0.755905,0.171621 0.0179,0.04578 0.03583,0.0927 0.05379,0.138676 0.23317,-0.102854 0.46798,-0.206702 0.702113,-0.3103 z M 37.144384,6.005123 c -0.04188,0.2858183 -0.08218,0.5819357 -0.12254,0.885409 0.245555,0.1906916 0.490565,0.3834728 0.735611,0.5781269 C 37.555752,6.989131 37.350571,6.4993563 37.144384,6.005123 Z m 6.010578,6.994998 c -0.12824,-0.111467 -0.256792,-0.223753 -0.385965,-0.335522 -0.456969,0.621136 -0.922383,1.257256 -1.387197,1.894192 0.0087,0.02029 0.01688,0.04204 0.02559,0.06242 0.587011,-0.543769 1.175633,-1.087156 1.747573,-1.621093 z M 37.616456,8.4022155 C 37.377694,8.2162928 37.139212,8.0313707 36.899917,7.8491484 36.72345,9.2865053 36.556751,10.85589 36.38936,12.413999 36.810205,11.052742 37.236865,9.6842044 37.616456,8.4022155 Z M 36.38936,12.413999 c -0.287175,0.928887 -0.572088,1.85348 -0.838142,2.745211 0.152495,0.200621 0.306619,0.402348 0.461856,0.605641 0.130012,-1.073973 0.253614,-2.209 0.376286,-3.350852 z m 18.57767,14.100193 c -0.858046,-0.784847 -5.122287,-1.264095 -9.536526,-1.738052 0.02844,0.07443 0.05621,0.148705 0.08467,0.22325 4.802852,1.484593 9.394792,2.864984 9.600056,1.869928 0.02587,-0.125452 -0.02562,-0.243007 -0.1482,-0.355128 z M 40.834164,15.152464 c -1.074636,0.997058 -2.129195,1.982589 -3.063364,2.895897 0.171356,0.220953 0.34468,0.44286 0.519222,0.66701 0.81587,-1.052594 1.695339,-2.244146 2.584501,-3.460282 -0.01323,-0.03426 -0.02716,-0.06847 -0.04036,-0.102629 z M 28.042762,2.5700616 C 27.892943,2.4109213 27.746792,2.3463861 27.60264,2.3941843 27.280863,2.5008775 27.278377,3.0621568 27.493964,3.9330204 28.200733,4.9947926 28.944891,6.0840986 29.731588,7.2090815 29.147842,4.9261256 28.577717,3.1385296 28.042762,2.5700616 Z M 42.546304,19.675712 c -1.027242,0.237765 -2.026414,0.474588 -2.950672,0.710728 0.173014,0.220146 0.348726,0.441061 0.524776,0.664307 0.807622,-0.335399 1.662073,-0.702915 2.534732,-1.085238 -0.03586,-0.09672 -0.07292,-0.193071 -0.108833,-0.2898 z M 28.118683,5.8662677 c 0.712859,1.9178812 1.821975,4.4014453 2.909941,6.8602753 C 30.726519,11.399017 30.425,10.062969 30.126352,8.8125864 29.424689,7.8017865 28.757551,6.8225748 28.118683,5.8662677 Z m 2.909941,6.8602753 c 0.739144,3.247974 1.481239,6.446135 2.192693,8.218703 -1.346328,-1.354828 -3.988901,-3.301795 -6.679231,-5.265913 2.2641,2.443259 4.505939,4.841909 6.008361,6.021268 -0.873286,-0.236947 -2.066346,-0.444357 -3.431017,-0.634019 0.155999,0.170597 0.314731,0.343042 0.473829,0.517375 0.200237,0.219403 0.400712,0.438921 0.6008,0.658201 0.818633,0.204486 1.547924,0.36037 2.151282,0.446574 -0.400901,0.106068 -0.854943,0.250505 -1.353848,0.426385 0.260562,0.28561 0.520336,0.570515 0.779665,0.854822 0.326979,-0.108458 0.625832,-0.214945 0.892834,-0.322111 -0.190233,0.189083 -0.391334,0.403309 -0.603364,0.64005 0.240541,0.263705 0.479319,0.527355 0.718206,0.789257 0.240067,-0.268898 0.455765,-0.523073 0.640519,-0.758436 -0.09305,0.342937 -0.18325,0.734668 -0.267751,1.167021 0.29069,0.318707 0.581214,0.636171 0.868434,0.951047 0.175623,-0.722265 0.311109,-1.370253 0.388843,-1.914331 0.267211,1.009957 0.780283,2.366442 1.412191,3.887538 0.366442,0.401523 0.728084,0.798145 1.084169,1.188105 -0.520512,-2.185288 -1.036956,-4.142944 -1.538662,-5.392931 1.342359,1.350848 3.973811,3.289477 6.655941,5.247715 0.0014,-0.0013 0.0014,-0.0014 0.0028,-0.0027 -2.257432,-2.435935 -4.489777,-4.824381 -5.987862,-6.000335 1.32029,0.35823 3.368995,0.646887 5.642068,0.912719 -0.182873,-0.235102 -0.3655,-0.46748 -0.545126,-0.699051 -1.935126,-0.568257 -3.673734,-1.028965 -4.893204,-1.203193 0.836117,-0.221217 1.910956,-0.610562 3.119079,-1.097064 -0.196542,-0.256021 -0.392054,-0.509934 -0.584523,-0.761616 -1.131569,0.304202 -2.114521,0.605042 -2.851843,0.900983 0.544844,-0.541373 1.18417,-1.292609 1.883182,-2.172126 -0.192537,-0.253503 -0.382396,-0.504015 -0.570801,-0.753185 -0.848614,0.84806 -1.567773,1.617528 -2.067737,2.254439 0.272269,-1.003466 0.505397,-2.428042 0.717872,-4.051653 -0.196253,-0.262559 -0.389891,-0.52306 -0.581559,-0.780921 -0.532143,1.828067 -0.958243,3.464203 -1.124441,4.62747 -0.488539,-1.846484 -1.803948,-4.853904 -3.151787,-7.900051 z m -4.486538,2.95279 c -1.247375,-1.346081 -2.500508,-2.706123 -3.641402,-3.883293 -0.07944,0.338747 -0.163807,0.677477 -0.249586,1.015284 1.206421,0.913187 2.554914,1.892588 3.890988,2.868009 z m 17.831825,8.966947 c -0.621519,-0.192094 -1.241757,-0.384475 -1.850289,-0.569101 0.05124,0.06405 0.10259,0.129277 0.154039,0.193595 0.06038,0.07552 0.120926,0.151516 0.181309,0.227029 0.502144,0.05577 1.0103,0.110283 1.520289,0.165109 -0.0021,-0.0058 -0.0033,-0.0109 -0.0054,-0.01662 z m 4.970986,10.511536 c 0.213246,0.571885 0.417805,1.123994 0.613864,1.651381 0.09012,-0.0069 0.164863,-0.04127 0.220694,-0.104032 0.243691,-0.273945 -0.102242,-0.820619 -0.834556,-1.547347 z m -1.732636,-1.515331 c -1.300456,-1.049559 -2.949449,-2.260441 -4.635789,-3.49181 -0.05494,0.04904 -0.110875,0.09696 -0.165888,0.146042 2.12981,2.298047 4.208256,4.519571 5.6335,5.680339 -0.266637,-0.747233 -0.543693,-1.527615 -0.831825,-2.33457 z M 34.528983,22.420211 c -0.01045,0.02796 -0.01816,0.05622 -0.0216,0.08402 0.01936,0.02024 0.04205,0.03836 0.06713,0.05455 -0.023,0.01902 -0.04315,0.03918 -0.06,0.06156 0.0066,0.02721 0.01728,0.05526 0.03091,0.08182 -0.02943,0.0049 -0.05593,0.0117 -0.08173,0.02262 -0.0078,0.02689 -0.01323,0.05566 -0.01471,0.08547 -0.02796,-0.01045 -0.05622,-0.01816 -0.08402,-0.0216 -0.02024,0.01936 -0.03836,0.04205 -0.05455,0.06713 -0.01902,-0.023 -0.03918,-0.04315 -0.06156,-0.06 -0.02721,0.0066 -0.05526,0.01728 -0.08182,0.03091 -0.0049,-0.02943 -0.01307,-0.05732 -0.02399,-0.08311 -0.02689,-0.0078 -0.0543,-0.01184 -0.08411,-0.01331 0.01045,-0.02796 0.01816,-0.05622 0.0216,-0.08402 -0.01937,-0.02024 -0.04205,-0.03837 -0.06713,-0.05455 0.023,-0.01902 0.04315,-0.03918 0.06,-0.06156 -0.0066,-0.02721 -0.01728,-0.05526 -0.03091,-0.08182 0.02943,-0.0049 0.05732,-0.01307 0.08312,-0.02398 0.0078,-0.02689 0.01184,-0.0543 0.01331,-0.08411 0.02797,0.01045 0.05622,0.01816 0.08402,0.0216 0.02024,-0.01937 0.03836,-0.04205 0.05455,-0.06713 0.01902,0.023 0.03918,0.04315 0.06156,0.06 0.02721,-0.0066 0.05526,-0.01728 0.08182,-0.03091 0.0049,0.02943 0.01169,0.05593 0.02262,0.08173 0.02689,0.0078 0.05566,0.01323 0.08547,0.01471 z m -0.08547,-0.01471 c -0.01896,-0.0055 -0.03619,-0.01251 -0.05364,-0.02127 -0.01742,-0.0088 -0.03504,-0.01765 -0.0508,-0.02953 -0.01916,0.0047 -0.03859,0.0065 -0.05809,0.0077 -0.01949,0.0011 -0.03842,0.0018 -0.05801,-6.08e-4 -0.01426,0.01364 -0.02963,0.02608 -0.04599,0.03678 -0.01629,0.01077 -0.03321,0.018 -0.05138,0.0257 -0.0055,0.01896 -0.01391,0.03756 -0.02267,0.05501 -0.0088,0.01742 -0.01765,0.03505 -0.02953,0.0508 0.0047,0.01916 0.0065,0.03859 0.0077,0.05809 0.0011,0.0195 0.0018,0.03842 -6.01e-4,0.058 0.01364,0.01426 0.02609,0.02964 0.03678,0.04599 0.01077,0.01629 0.01801,0.03321 0.0257,0.05138 0.01897,0.0055 0.03895,0.01255 0.05641,0.02131 0.01742,0.0088 0.03366,0.01902 0.04939,0.0309 0.01916,-0.0047 0.03723,-0.0079 0.05672,-0.0091 0.0195,-0.0011 0.03979,-4.17e-4 0.05936,0.002 0.01426,-0.01364 0.02964,-0.02609 0.04599,-0.03678 0.01629,-0.01077 0.03461,-0.01937 0.05277,-0.02707 0.0055,-0.01896 0.01115,-0.03758 0.01991,-0.05503 0.0088,-0.01742 0.01901,-0.03365 0.0309,-0.0494 -0.0047,-0.01916 -0.0065,-0.03859 -0.0077,-0.05809 -0.0011,-0.0195 -0.0018,-0.03842 6.09e-4,-0.05801 -0.01364,-0.01426 -0.02608,-0.02963 -0.03678,-0.04599 -0.01077,-0.01629 -0.01937,-0.03461 -0.02707,-0.05277 z M 22.399177,11.283901 C 20.41418,9.2738346 18.852068,7.946736 18.409834,8.4438638 c -0.470589,0.5289956 1.256096,2.0769572 3.720603,3.9697562 0.0508,-0.199256 0.100515,-0.397077 0.148484,-0.593716 0.04023,-0.179219 0.0809,-0.357566 0.120256,-0.536003 z m 5.472034,9.619048 c -1.185856,-0.147472 -2.458855,-0.285696 -3.738462,-0.423166 1.581564,0.488956 3.152898,0.971087 4.565553,1.365493 -0.279794,-0.31877 -0.554985,-0.633297 -0.827091,-0.942327 z m -3.738462,-0.423166 c -1.180257,-0.364888 -2.366738,-0.733512 -3.496857,-1.072532 -0.07696,0.219411 -0.155418,0.43802 -0.236196,0.660472 1.200922,0.139948 2.470628,0.276435 3.733053,0.41206 z m 5.967219,2.964366 c -1.653525,0.632755 -3.645689,1.507447 -5.654675,2.396369 2.31707,-0.527297 4.609907,-1.057088 6.376689,-1.575303 -0.239707,-0.273431 -0.481437,-0.546642 -0.722017,-0.821064 z m -5.654675,2.396369 c -1.934304,0.440191 -3.886515,0.878383 -5.565926,1.308959 0.701242,0.03836 1.424275,0.09622 2.181712,0.17895 1.093995,-0.472812 2.241706,-0.98238 3.384214,-1.487909 z m 7.009938,-0.850468 c -0.871672,1.043278 -1.868743,2.359444 -2.902553,3.760799 0.138977,0.0356 0.279991,0.07233 0.421482,0.109388 1.177339,-1.103956 2.280232,-2.163242 3.16488,-3.090927 -0.227094,-0.258935 -0.455185,-0.518517 -0.683781,-0.77923 z m 1.487669,1.695073 c -0.151261,0.954715 -0.290548,2.030546 -0.42406,3.165278 0.171912,0.05001 0.34284,0.100331 0.513589,0.150407 0.252643,-0.846561 0.488873,-1.662966 0.693891,-2.423536 -0.259461,-0.295505 -0.520795,-0.592837 -0.783422,-0.892146 z m 4.664982,5.844205 c -0.009,-0.0031 -0.01844,-0.0055 -0.02753,-0.0086 0.06608,0.290479 0.133422,0.580754 0.199419,0.870831 0.04923,-0.04596 0.09868,-0.09061 0.147862,-0.136535 -0.106647,-0.240945 -0.212973,-0.484499 -0.319721,-0.725691 z m 0.754116,1.71086 c -0.108109,0.09607 -0.214326,0.192088 -0.322064,0.288044 1.035092,4.507026 2.046975,8.524001 2.943952,8.226583 0.908106,-0.301103 -0.729437,-4.219828 -2.621888,-8.514627 z M 32.76054,30.903987 c -0.116295,-0.03834 -0.232795,-0.07582 -0.349614,-0.114159 -0.072,0.640059 -0.142081,1.292081 -0.212393,1.946567 0.190183,-0.615161 0.378664,-1.229092 0.562007,-1.832408 z m -0.562007,1.832408 c -0.954222,3.0865 -1.935513,6.211792 -2.342192,8.27473 0.488697,-0.490869 0.9994,-0.997914 1.535252,-1.52526 0.295685,-1.929397 0.549445,-4.352691 0.806936,-6.749473 z M 19.958499,19.204024 c -3.5076,-1.033682 -6.327378,-1.699147 -6.487207,-0.924346 -0.158065,0.766257 2.631156,1.266361 6.204206,1.701724 0.01949,-0.04957 0.03886,-0.09773 0.05817,-0.14717 0.07845,-0.203444 0.142682,-0.409752 0.219132,-0.613693 0.002,-0.0053 0.0037,-0.0112 0.0057,-0.01651 z m 8.33359,10.294053 c -0.07945,-0.02297 -0.158174,-0.04634 -0.236835,-0.06878 -0.218181,0.2976 -0.437771,0.597232 -0.657173,0.897756 0.299374,-0.277427 0.598146,-0.553539 0.894006,-0.828981 z m -0.894005,0.828981 c -3.96538,3.674618 -8.050375,7.407332 -7.23547,8.132255 0.814907,0.724928 4.047723,-3.765869 7.23547,-8.132255 z m -7.402502,-2.542977 c -0.815119,-0.09485 -1.635601,-0.166552 -2.470296,-0.18612 l 0.0023,-0.08423 c -0.136268,0.03857 -0.268764,0.0762 -0.398971,0.114594 -0.261436,0.523658 -0.527137,1.043072 -0.795275,1.555115 0.998964,-0.310496 2.265281,-0.810267 3.662277,-1.399362 z m 11.167956,13.034965 c -0.497769,0.466848 -0.993359,0.935901 -1.487058,1.406979 -0.05377,0.688518 0.03641,1.111269 0.323342,1.170458 0.474071,0.09779 0.84533,-0.931577 1.163713,-2.57744 z M 15.946494,28.006796 c -1.240709,0.437289 -1.964595,0.858939 -1.832164,1.258342 0.08393,0.253133 0.44804,0.309405 1.02392,0.216529 0.271271,-0.485662 0.542185,-0.977459 0.808244,-1.474871 z" /><path
     id="blink-01"
     style="fill:#ffffff;fill-opacity:{{blink-even}}"
     d="M 7.7148438 1.5175781 A 0.25 0.25 0 0 0 7.4648438 1.7675781 L 7.4648438 12.615234 L 7.9648438 11.955078 L 7.9648438 1.7675781 A 0.25 0.25 0 0 0 7.7148438 1.5175781 z M 9.7148438 1.5175781 A 0.25 0.25 0 0 0 9.4648438 1.7675781 L 9.4648438 9.9746094 L 9.9648438 9.3144531 L 9.9648438 1.7675781 A 0.25 0.25 0 0 0 9.7148438 1.5175781 z M 11.714844 1.5175781 A 0.25 0.25 0 0 0 11.464844 1.7675781 L 11.464844 7.3339844 L 11.964844 6.671875 L 11.964844 1.7675781 A 0.25 0.25 0 0 0 11.714844 1.5175781 z M 13.714844 1.5175781 A 0.25 0.25 0 0 0 13.464844 1.7675781 L 13.464844 4.6914062 L 13.964844 4.03125 L 13.964844 1.7675781 A 0.25 0.25 0 0 0 13.714844 1.5175781 z M 15.714844 1.5175781 A 0.25 0.25 0 0 0 15.464844 1.7675781 L 15.464844 2.0507812 L 15.841797 1.5527344 A 0.25 0.25 0 0 0 15.714844 1.5175781 z M 17.714844 1.5175781 A 0.25 0.25 0 0 0 17.464844 1.7675781 L 17.464844 2.7226562 L 17.964844 2.0625 L 17.964844 1.7675781 A 0.25 0.25 0 0 0 17.714844 1.5175781 z M 19.714844 1.5175781 A 0.25 0.25 0 0 0 19.464844 1.7675781 L 19.464844 3.3945312 L 19.964844 2.734375 L 19.964844 1.7675781 A 0.25 0.25 0 0 0 19.714844 1.5175781 z M 21.714844 1.5175781 A 0.25 0.25 0 0 0 21.464844 1.7675781 L 21.464844 4.0644531 L 21.964844 3.4042969 L 21.964844 1.7675781 A 0.25 0.25 0 0 0 21.714844 1.5175781 z M 25.714844 1.5175781 A 0.25 0.25 0 0 0 25.464844 1.7675781 L 25.464844 2.0976562 L 25.865234 1.5683594 A 0.25 0.25 0 0 0 25.714844 1.5175781 z M 27.714844 1.5175781 A 0.25 0.25 0 0 0 27.464844 1.7675781 L 27.464844 2.7695312 L 27.964844 2.109375 L 27.964844 1.7675781 A 0.25 0.25 0 0 0 27.714844 1.5175781 z M 29.714844 1.5175781 A 0.25 0.25 0 0 0 29.464844 1.7675781 L 29.464844 3.4414062 L 29.964844 2.78125 L 29.964844 1.7675781 A 0.25 0.25 0 0 0 29.714844 1.5175781 z M 31.714844 1.5175781 A 0.25 0.25 0 0 0 31.464844 1.7675781 L 31.464844 4.1132812 L 31.964844 3.453125 L 31.964844 1.7675781 A 0.25 0.25 0 0 0 31.714844 1.5175781 z M 35.714844 1.5175781 A 0.25 0.25 0 0 0 35.464844 1.7675781 L 35.464844 2.1425781 L 35.886719 1.5859375 A 0.25 0.25 0 0 0 35.714844 1.5175781 z M 37.714844 1.5175781 A 0.25 0.25 0 0 0 37.464844 1.7675781 L 37.464844 2.8144531 L 37.964844 2.1542969 L 37.964844 1.7675781 A 0.25 0.25 0 0 0 37.714844 1.5175781 z M 39.714844 1.5175781 A 0.25 0.25 0 0 0 39.464844 1.7675781 L 39.464844 3.4882812 L 39.964844 2.828125 L 39.964844 1.7675781 A 0.25 0.25 0 0 0 39.714844 1.5175781 z M 41.714844 1.5175781 A 0.25 0.25 0 0 0 41.464844 1.7675781 L 41.464844 4.1601562 L 41.964844 3.5 L 41.964844 1.7675781 A 0.25 0.25 0 0 0 41.714844 1.5175781 z M 45.714844 1.5175781 A 0.25 0.25 0 0 0 45.464844 1.7675781 L 45.464844 2.1894531 L 45.90625 1.6074219 A 0.25 0.25 0 0 0 45.714844 1.5175781 z M 47.714844 1.5175781 A 0.25 0.25 0 0 0 47.464844 1.7675781 L 47.464844 2.8613281 L 47.964844 2.2011719 L 47.964844 1.7675781 A 0.25 0.25 0 0 0 47.714844 1.5175781 z M 49.714844 1.5175781 A 0.25 0.25 0 0 0 49.464844 1.7675781 L 49.464844 3.5351562 L 49.964844 2.875 L 49.964844 1.7675781 A 0.25 0.25 0 0 0 49.714844 1.5175781 z M 51.714844 1.5175781 A 0.25 0.25 0 0 0 51.597656 1.546875 L 51.595703 1.546875 L 51.470703 1.7128906 A 0.25 0.25 0 0 0 51.464844 1.7675781 L 51.464844 4.2050781 L 51.964844 3.5449219 L 51.964844 1.7675781 A 0.25 0.25 0 0 0 51.714844 1.5175781 z M 55.714844 1.5175781 A 0.25 0.25 0 0 0 55.464844 1.7675781 L 55.464844 2.2363281 L 55.923828 1.6308594 A 0.25 0.25 0 0 0 55.714844 1.5175781 z M 57.714844 1.5175781 A 0.25 0.25 0 0 0 57.464844 1.7675781 L 57.464844 2.9082031 L 57.964844 2.2480469 L 57.964844 1.7675781 A 0.25 0.25 0 0 0 57.714844 1.5175781 z M 59.714844 1.5175781 A 0.25 0.25 0 0 0 59.464844 1.7675781 L 59.464844 3.578125 L 59.964844 2.9179688 L 59.964844 1.7675781 A 0.25 0.25 0 0 0 59.714844 1.5175781 z M 61.714844 1.5175781 A 0.25 0.25 0 0 0 61.646484 1.5273438 L 61.464844 1.765625 A 0.25 0.25 0 0 0 61.464844 1.7675781 L 61.464844 4.2539062 L 61.964844 3.59375 L 61.964844 1.7675781 A 0.25 0.25 0 0 0 61.714844 1.5175781 z M 23.929688 1.640625 L 23.464844 2.2539062 L 23.464844 4.7382812 L 23.964844 4.078125 L 23.964844 1.7675781 A 0.25 0.25 0 0 0 23.929688 1.640625 z M 33.943359 1.6679688 L 33.464844 2.3007812 L 33.464844 4.7851562 L 33.964844 4.125 L 33.964844 1.7675781 A 0.25 0.25 0 0 0 33.943359 1.6679688 z M 43.955078 1.6992188 L 43.464844 2.3457031 L 43.464844 4.8300781 L 43.964844 4.1699219 L 43.964844 1.7675781 A 0.25 0.25 0 0 0 43.955078 1.6992188 z M 53.962891 1.734375 L 53.464844 2.390625 L 53.464844 4.8769531 L 53.964844 4.2167969 L 53.964844 1.7675781 A 0.25 0.25 0 0 0 53.962891 1.734375 z M 15.964844 2.2167969 L 15.464844 2.8789062 L 15.464844 5.3632812 L 15.964844 4.703125 L 15.964844 2.2167969 z M 25.964844 2.265625 L 25.464844 2.9257812 L 25.464844 5.4101562 L 25.964844 4.75 L 25.964844 2.265625 z M 35.964844 2.3125 L 35.464844 2.9726562 L 35.464844 5.4550781 L 35.964844 4.7949219 L 35.964844 2.3125 z M 45.964844 2.3574219 L 45.464844 3.0175781 L 45.464844 5.5019531 L 45.964844 4.8417969 L 45.964844 2.3574219 z M 55.964844 2.4042969 L 55.464844 3.0644531 L 55.464844 5.5488281 L 55.964844 4.8886719 L 55.964844 2.4042969 z M 17.964844 2.8886719 L 17.464844 3.5488281 L 17.464844 6.0351562 L 17.964844 5.375 L 17.964844 2.8886719 z M 27.964844 2.9375 L 27.464844 3.5976562 L 27.464844 6.0820312 L 27.964844 5.421875 L 27.964844 2.9375 z M 37.964844 2.9824219 L 37.464844 3.6425781 L 37.464844 6.1289062 L 37.964844 5.46875 L 37.964844 2.9824219 z M 47.964844 3.0292969 L 47.464844 3.6894531 L 47.464844 6.1757812 L 47.964844 5.515625 L 47.964844 3.0292969 z M 57.964844 3.0761719 L 57.464844 3.7363281 L 57.464844 6.2207031 L 57.964844 5.5585938 L 57.964844 3.0761719 z M 19.964844 3.5625 L 19.464844 4.2226562 L 19.464844 6.7070312 L 19.964844 6.046875 L 19.964844 3.5625 z M 29.964844 3.6074219 L 29.464844 4.2675781 L 29.464844 6.7539062 L 29.964844 6.09375 L 29.964844 3.6074219 z M 39.964844 3.6542969 L 39.464844 4.3144531 L 39.464844 6.8007812 L 39.964844 6.140625 L 39.964844 3.6542969 z M 49.964844 3.7011719 L 49.464844 4.3613281 L 49.464844 6.8457031 L 49.964844 6.1855469 L 49.964844 3.7011719 z M 59.964844 3.7480469 L 59.464844 4.4082031 L 59.464844 6.8945312 L 59.964844 6.234375 L 59.964844 3.7480469 z M 21.964844 4.234375 L 21.464844 4.8945312 L 21.464844 7.3789062 L 21.964844 6.71875 L 21.964844 4.234375 z M 31.964844 4.28125 L 31.464844 4.9414062 L 31.464844 7.4257812 L 31.964844 6.765625 L 31.964844 4.28125 z M 41.964844 4.3261719 L 41.464844 4.9863281 L 41.464844 7.4707031 L 41.964844 6.8105469 L 41.964844 4.3261719 z M 51.964844 4.3730469 L 51.464844 5.0332031 L 51.464844 7.5195312 L 51.964844 6.859375 L 51.964844 4.3730469 z M 61.964844 4.4199219 L 61.464844 5.0800781 L 61.464844 7.5664062 L 61.964844 6.9042969 L 61.964844 4.4199219 z M 13.964844 4.859375 L 13.464844 5.5195312 L 13.464844 8.0039062 L 13.964844 7.34375 L 13.964844 4.859375 z M 23.964844 4.90625 L 23.464844 5.5664062 L 23.464844 8.0527344 L 23.964844 7.3925781 L 23.964844 4.90625 z M 33.964844 4.953125 L 33.464844 5.6132812 L 33.464844 8.0976562 L 33.964844 7.4375 L 33.964844 4.953125 z M 43.964844 4.9980469 L 43.464844 5.6582031 L 43.464844 8.1425781 L 43.964844 7.4824219 L 43.964844 4.9980469 z M 53.964844 5.0449219 L 53.464844 5.7050781 L 53.464844 8.1894531 L 53.964844 7.5292969 L 53.964844 5.0449219 z M 15.964844 5.53125 L 15.464844 6.1914062 L 15.464844 8.6757812 L 15.964844 8.015625 L 15.964844 5.53125 z M 25.964844 5.578125 L 25.464844 6.2382812 L 25.464844 8.5761719 L 25.576172 8.5761719 L 25.964844 8.0625 L 25.964844 5.578125 z M 35.964844 5.6230469 L 35.464844 6.2832031 L 35.464844 8.5761719 L 35.611328 8.5761719 L 35.964844 8.109375 L 35.964844 5.6230469 z M 45.964844 5.671875 L 45.464844 6.3320312 L 45.464844 8.5761719 L 45.646484 8.5761719 L 45.964844 8.15625 L 45.964844 5.671875 z M 55.964844 5.71875 L 55.464844 6.3789062 L 55.464844 8.8613281 L 55.964844 8.2011719 L 55.964844 5.71875 z M 17.964844 6.2050781 L 17.464844 6.8652344 L 17.464844 8.5761719 L 17.964844 8.5761719 L 17.964844 6.2050781 z M 27.964844 6.2480469 L 27.464844 6.9082031 L 27.464844 8.5761719 L 27.964844 8.5761719 L 27.964844 6.2480469 z M 37.964844 6.2949219 L 37.464844 6.9550781 L 37.464844 8.5761719 L 37.964844 8.5761719 L 37.964844 6.2949219 z M 47.964844 6.3417969 L 47.464844 7.0019531 L 47.464844 8.5761719 L 47.964844 8.5761719 L 47.964844 6.3417969 z M 57.964844 6.3886719 L 57.464844 7.0488281 L 57.464844 9.5351562 L 57.964844 8.875 L 57.964844 6.3886719 z M 19.964844 6.875 L 19.464844 7.5351562 L 19.464844 8.5761719 L 19.964844 8.5761719 L 19.964844 6.875 z M 29.964844 6.921875 L 29.464844 7.5820312 L 29.464844 8.5761719 L 29.964844 8.5761719 L 29.964844 6.921875 z M 39.964844 6.96875 L 39.464844 7.6289062 L 39.464844 8.5761719 L 39.964844 8.5761719 L 39.964844 6.96875 z M 49.964844 7.0136719 L 49.464844 7.6738281 L 49.464844 8.5761719 L 49.964844 8.5761719 L 49.964844 7.0136719 z M 59.964844 7.0605469 L 59.464844 7.7207031 L 59.464844 10.207031 L 59.964844 9.546875 L 59.964844 7.0605469 z M 11.964844 7.5 L 11.464844 8.1601562 L 11.464844 10.646484 L 11.964844 9.984375 L 11.964844 7.5 z M 21.964844 7.546875 L 21.464844 8.2070312 L 21.464844 8.5761719 L 21.964844 8.5761719 L 21.964844 7.546875 z M 31.964844 7.59375 L 31.464844 8.2539062 L 31.464844 8.5761719 L 31.964844 8.5761719 L 31.964844 7.59375 z M 41.964844 7.640625 L 41.464844 8.3007812 L 41.464844 8.5761719 L 41.964844 8.5761719 L 41.964844 7.640625 z M 51.964844 7.6855469 L 51.464844 8.3457031 L 51.464844 10.832031 L 51.964844 10.171875 L 51.964844 7.6855469 z M 61.964844 7.7324219 L 61.464844 8.3925781 L 61.464844 10.876953 L 61.964844 10.216797 L 61.964844 7.7324219 z M 13.964844 8.171875 L 13.464844 8.8320312 L 13.464844 11.318359 L 13.964844 10.658203 L 13.964844 8.171875 z M 23.964844 8.21875 L 23.693359 8.5761719 L 23.964844 8.5761719 L 23.964844 8.21875 z M 33.964844 8.2636719 L 33.728516 8.5761719 L 33.964844 8.5761719 L 33.964844 8.2636719 z M 43.964844 8.3125 L 43.765625 8.5761719 L 43.964844 8.5761719 L 43.964844 8.3125 z M 53.964844 8.359375 L 53.464844 9.0195312 L 53.464844 11.501953 L 53.964844 10.841797 L 53.964844 8.359375 z M 55.964844 9.0292969 L 55.464844 9.6894531 L 55.464844 12.175781 L 55.964844 11.515625 L 55.964844 9.0292969 z M 15.644531 9.2695312 L 15.464844 9.5058594 L 15.464844 11.988281 L 15.644531 11.751953 L 15.644531 9.2695312 z M 57.964844 9.7011719 L 57.464844 10.361328 L 57.464844 12.847656 L 57.964844 12.1875 L 57.964844 9.7011719 z M 9.9648438 10.140625 L 9.4648438 10.800781 L 9.4648438 13.287109 L 9.9648438 12.626953 L 9.9648438 10.140625 z M 59.964844 10.373047 L 59.464844 11.033203 L 59.464844 13.517578 L 59.964844 12.857422 L 59.964844 10.373047 z M 11.964844 10.8125 L 11.464844 11.472656 L 11.464844 13.958984 L 11.964844 13.298828 L 11.964844 10.8125 z M 51.964844 11 L 51.464844 11.660156 L 51.464844 14.142578 L 51.964844 13.482422 L 51.964844 11 z M 61.964844 11.044922 L 61.464844 11.705078 L 61.464844 14.189453 L 61.964844 13.529297 L 61.964844 11.044922 z M 13.964844 11.486328 L 13.464844 12.146484 L 13.464844 14.628906 L 13.964844 13.96875 L 13.964844 11.486328 z M 53.964844 11.669922 L 53.464844 12.330078 L 53.464844 14.816406 L 53.964844 14.15625 L 53.964844 11.669922 z M 55.964844 12.341797 L 55.464844 13.001953 L 55.464844 15.488281 L 55.964844 14.828125 L 55.964844 12.341797 z M 15.644531 12.580078 L 15.464844 12.816406 L 15.464844 15.302734 L 15.644531 15.066406 L 15.644531 12.580078 z M 7.9648438 12.78125 L 7.4648438 13.441406 L 7.4648438 15.927734 L 7.9648438 15.267578 L 7.9648438 12.78125 z M 57.964844 13.013672 L 57.464844 13.673828 L 57.464844 16.158203 L 57.964844 15.498047 L 57.964844 13.013672 z M 9.9648438 13.453125 L 9.4648438 14.113281 L 9.4648438 16.599609 L 9.9648438 15.939453 L 9.9648438 13.453125 z M 59.964844 13.685547 L 59.464844 14.345703 L 59.464844 16.832031 L 59.964844 16.171875 L 59.964844 13.685547 z M 11.964844 14.126953 L 11.464844 14.787109 L 11.464844 17.269531 L 11.964844 16.609375 L 11.964844 14.126953 z M 51.964844 14.310547 L 51.464844 14.970703 L 51.464844 17.457031 L 51.964844 16.796875 L 51.964844 14.310547 z M 61.964844 14.359375 L 61.464844 15.019531 L 61.464844 17.501953 L 61.964844 16.841797 L 61.964844 14.359375 z M 13.964844 14.798828 L 13.464844 15.458984 L 13.464844 17.943359 L 13.964844 17.283203 L 13.964844 14.798828 z M 53.964844 14.984375 L 53.464844 15.644531 L 53.464844 18.128906 L 53.964844 17.46875 L 53.964844 14.984375 z M 55.964844 15.654297 L 55.464844 16.314453 L 55.464844 18.800781 L 55.964844 18.140625 L 55.964844 15.654297 z M 15.644531 15.892578 L 15.464844 16.128906 L 15.464844 18.615234 L 15.644531 18.378906 L 15.644531 15.892578 z M 7.9648438 16.09375 L 7.4648438 16.753906 L 7.4648438 19.240234 L 7.9648438 18.580078 L 7.9648438 16.09375 z M 57.964844 16.326172 L 57.464844 16.986328 L 57.464844 19.472656 L 57.964844 18.8125 L 57.964844 16.326172 z M 9.9648438 16.767578 L 9.4648438 17.427734 L 9.4648438 19.912109 L 9.9648438 19.251953 L 9.9648438 16.767578 z M 59.964844 17 L 59.464844 17.660156 L 59.464844 20.144531 L 59.964844 19.484375 L 59.964844 17 z M 11.964844 17.439453 L 11.464844 18.099609 L 11.464844 20.583984 L 11.964844 19.923828 L 11.964844 17.439453 z M 51.964844 17.625 L 51.464844 18.285156 L 51.464844 20.769531 L 51.964844 20.109375 L 51.964844 17.625 z M 61.964844 17.671875 L 61.464844 18.332031 L 61.464844 20.816406 L 61.964844 20.15625 L 61.964844 17.671875 z M 13.964844 18.109375 L 13.464844 18.771484 L 13.464844 21.257812 L 13.964844 20.597656 L 13.964844 18.109375 z M 53.964844 18.296875 L 53.464844 18.957031 L 53.464844 21.441406 L 53.964844 20.78125 L 53.964844 18.296875 z M 55.964844 18.966797 L 55.464844 19.626953 L 55.464844 22.113281 L 55.964844 21.453125 L 55.964844 18.966797 z M 15.644531 19.207031 L 15.464844 19.443359 L 15.464844 21.927734 L 15.644531 21.691406 L 15.644531 19.207031 z M 7.9648438 19.410156 L 7.4648438 20.070312 L 7.4648438 22.552734 L 7.9648438 21.892578 L 7.9648438 19.410156 z M 57.964844 19.640625 L 57.464844 20.300781 L 57.464844 22.785156 L 57.964844 22.125 L 57.964844 19.640625 z M 9.9648438 20.080078 L 9.4648438 20.740234 L 9.4648438 23.224609 L 9.9648438 22.564453 L 9.9648438 20.080078 z M 59.964844 20.3125 L 59.464844 20.972656 L 59.464844 23.457031 L 59.964844 22.796875 L 59.964844 20.3125 z M 11.964844 20.751953 L 11.464844 21.412109 L 11.464844 23.898438 L 11.964844 23.238281 L 11.964844 20.751953 z M 51.964844 20.9375 L 51.464844 21.597656 L 51.464844 24.082031 L 51.964844 23.421875 L 51.964844 20.9375 z M 61.964844 20.982422 L 61.464844 21.642578 L 61.464844 24.128906 L 61.964844 23.46875 L 61.964844 20.982422 z M 13.964844 21.423828 L 13.464844 22.083984 L 13.464844 24.568359 L 13.964844 23.908203 L 13.964844 21.423828 z M 53.964844 21.609375 L 53.464844 22.269531 L 53.464844 24.753906 L 53.964844 24.09375 L 53.964844 21.609375 z M 55.964844 22.28125 L 55.464844 22.941406 L 55.464844 25.425781 L 55.964844 24.765625 L 55.964844 22.28125 z M 15.644531 22.517578 L 15.464844 22.753906 L 15.464844 25.240234 L 15.644531 25.003906 L 15.644531 22.517578 z M 7.9648438 22.720703 L 7.4648438 23.380859 L 7.4648438 25.865234 L 7.9648438 25.205078 L 7.9648438 22.720703 z M 57.964844 22.953125 L 57.464844 23.613281 L 57.464844 26.097656 L 57.964844 25.4375 L 57.964844 22.953125 z M 9.9648438 23.392578 L 9.4648438 24.052734 L 9.4648438 26.539062 L 9.9648438 25.878906 L 9.9648438 23.392578 z M 59.964844 23.623047 L 59.464844 24.285156 L 59.464844 26.769531 L 59.964844 26.109375 L 59.964844 23.623047 z M 11.964844 24.064453 L 11.464844 24.724609 L 11.464844 27.208984 L 11.964844 26.548828 L 11.964844 24.064453 z M 51.964844 24.25 L 51.464844 24.910156 L 51.464844 27.394531 L 51.964844 26.734375 L 51.964844 24.25 z M 61.964844 24.296875 L 61.464844 24.957031 L 61.464844 27.441406 L 61.964844 26.78125 L 61.964844 24.296875 z M 13.964844 24.734375 L 13.464844 25.396484 L 13.464844 27.880859 L 13.964844 27.220703 L 13.964844 24.734375 z M 53.964844 24.921875 L 53.464844 25.582031 L 53.464844 28.066406 L 53.964844 27.40625 L 53.964844 24.921875 z M 55.964844 25.59375 L 55.464844 26.253906 L 55.464844 28.740234 L 55.964844 28.078125 L 55.964844 25.59375 z M 15.644531 25.832031 L 15.464844 26.068359 L 15.464844 28.552734 L 15.644531 28.316406 L 15.644531 25.832031 z M 7.9648438 26.033203 L 7.4648438 26.693359 L 7.4648438 29.179688 L 7.9648438 28.519531 L 7.9648438 26.033203 z M 57.964844 26.265625 L 57.464844 26.925781 L 57.464844 29.412109 L 57.964844 28.75 L 57.964844 26.265625 z M 9.9648438 26.705078 L 9.4648438 27.365234 L 9.4648438 29.851562 L 9.9648438 29.189453 L 9.9648438 26.705078 z M 59.964844 26.9375 L 59.464844 27.597656 L 59.464844 30.083984 L 59.964844 29.421875 L 59.964844 26.9375 z M 11.964844 27.376953 L 11.464844 28.037109 L 11.464844 30.521484 L 11.964844 29.861328 L 11.964844 27.376953 z M 51.964844 27.564453 L 51.464844 28.224609 L 51.464844 30.707031 L 51.964844 30.046875 L 51.964844 27.564453 z M 61.964844 27.611328 L 61.464844 28.271484 L 61.464844 30.753906 L 61.964844 30.09375 L 61.964844 27.611328 z M 13.964844 28.048828 L 13.464844 28.708984 L 13.464844 31.193359 L 13.964844 30.533203 L 13.964844 28.048828 z M 53.964844 28.236328 L 53.464844 28.896484 L 53.464844 31.380859 L 53.964844 30.720703 L 53.964844 28.236328 z M 55.964844 28.90625 L 55.464844 29.566406 L 55.464844 32.052734 L 55.964844 31.392578 L 55.964844 28.90625 z M 15.644531 29.146484 L 15.464844 29.382812 L 15.464844 31.867188 L 15.644531 31.630859 L 15.644531 29.146484 z M 7.9648438 29.347656 L 7.4648438 30.007812 L 7.4648438 32.492188 L 7.9648438 31.832031 L 7.9648438 29.347656 z M 57.964844 29.578125 L 57.464844 30.238281 L 57.464844 32.724609 L 57.964844 32.064453 L 57.964844 29.578125 z M 9.9648438 30.017578 L 9.4648438 30.677734 L 9.4648438 33.162109 L 9.9648438 32.501953 L 9.9648438 30.017578 z M 59.964844 30.251953 L 59.464844 30.912109 L 59.464844 33.394531 L 59.964844 32.734375 L 59.964844 30.251953 z M 11.964844 30.689453 L 11.464844 31.349609 L 11.464844 33.835938 L 11.964844 33.175781 L 11.964844 30.689453 z M 51.964844 30.876953 L 51.464844 31.537109 L 51.464844 34.021484 L 51.964844 33.361328 L 51.964844 30.876953 z M 61.964844 30.921875 L 61.464844 31.582031 L 61.464844 44.541016 A 0.25 0.25 0 0 0 61.714844 44.791016 A 0.25 0.25 0 0 0 61.964844 44.541016 L 61.964844 30.921875 z M 13.964844 31.363281 L 13.464844 32.023438 L 13.464844 34.507812 L 13.964844 33.847656 L 13.964844 31.363281 z M 53.964844 31.546875 L 53.464844 32.207031 L 53.464844 34.693359 L 53.964844 34.033203 L 53.964844 31.546875 z M 55.964844 32.21875 L 55.464844 32.878906 L 55.464844 35.365234 L 55.964844 34.705078 L 55.964844 32.21875 z M 15.644531 32.457031 L 15.464844 32.693359 L 15.464844 35.179688 L 15.644531 34.943359 L 15.644531 32.457031 z M 7.9648438 32.658203 L 7.4648438 33.318359 L 7.4648438 35.802734 L 7.9648438 35.142578 L 7.9648438 32.658203 z M 57.964844 32.892578 L 57.464844 33.552734 L 57.464844 36.035156 L 57.964844 35.375 L 57.964844 32.892578 z M 9.9648438 33.332031 L 9.4648438 33.992188 L 9.4648438 36.476562 L 9.9648438 35.816406 L 9.9648438 33.332031 z M 59.964844 33.5625 L 59.464844 34.222656 L 59.464844 44.541016 A 0.25 0.25 0 0 0 59.714844 44.791016 A 0.25 0.25 0 0 0 59.964844 44.541016 L 59.964844 33.5625 z M 11.964844 34.003906 L 11.464844 34.664062 L 11.464844 37.148438 L 11.964844 36.488281 L 11.964844 34.003906 z M 51.964844 34.1875 L 51.464844 34.847656 L 51.464844 37.333984 L 51.964844 36.673828 L 51.964844 34.1875 z M 13.964844 34.673828 L 13.464844 35.333984 L 13.464844 37.820312 L 13.964844 37.160156 L 13.964844 34.673828 z M 53.964844 34.859375 L 53.464844 35.519531 L 53.464844 38.005859 L 53.964844 37.345703 L 53.964844 34.859375 z M 55.964844 35.533203 L 55.464844 36.193359 L 55.464844 38.675781 L 55.964844 38.015625 L 55.964844 35.533203 z M 15.644531 35.769531 L 15.464844 36.005859 L 15.464844 38.492188 L 15.964844 37.832031 L 15.964844 36.341797 L 15.644531 36.341797 L 15.644531 35.769531 z M 7.9648438 35.972656 L 7.4648438 36.632812 L 7.4648438 39.117188 L 7.9648438 38.457031 L 7.9648438 35.972656 z M 57.964844 36.205078 L 57.464844 36.865234 L 57.464844 44.541016 A 0.25 0.25 0 0 0 57.714844 44.791016 A 0.25 0.25 0 0 0 57.964844 44.541016 L 57.964844 36.205078 z M 17.720703 36.341797 L 17.464844 36.679688 L 17.464844 39.164062 L 17.964844 38.501953 L 17.964844 36.341797 L 17.720703 36.341797 z M 19.464844 36.341797 L 19.464844 36.521484 L 19.601562 36.341797 L 19.464844 36.341797 z M 21.464844 36.341797 L 21.464844 37.193359 L 21.964844 36.533203 L 21.964844 36.341797 L 21.464844 36.341797 z M 23.464844 36.341797 L 23.464844 37.867188 L 23.964844 37.207031 L 23.964844 36.341797 L 23.464844 36.341797 z M 25.464844 36.341797 L 25.464844 38.539062 L 25.964844 37.878906 L 25.964844 36.341797 L 25.464844 36.341797 z M 27.753906 36.341797 L 27.464844 36.724609 L 27.464844 39.208984 L 27.964844 38.548828 L 27.964844 36.341797 L 27.753906 36.341797 z M 29.464844 36.341797 L 29.464844 36.568359 L 29.636719 36.341797 L 29.464844 36.341797 z M 31.464844 36.341797 L 31.464844 37.240234 L 31.964844 36.580078 L 31.964844 36.341797 L 31.464844 36.341797 z M 33.464844 36.341797 L 33.464844 37.912109 L 33.964844 37.251953 L 33.964844 36.341797 L 33.464844 36.341797 z M 35.464844 36.341797 L 35.464844 38.585938 L 35.964844 37.923828 L 35.964844 36.341797 L 35.464844 36.341797 z M 37.791016 36.341797 L 37.464844 36.771484 L 37.464844 39.257812 L 37.964844 38.597656 L 37.964844 36.341797 L 37.791016 36.341797 z M 39.464844 36.341797 L 39.464844 36.617188 L 39.673828 36.341797 L 39.464844 36.341797 z M 41.464844 36.341797 L 41.464844 37.287109 L 41.964844 36.626953 L 41.964844 36.341797 L 41.464844 36.341797 z M 43.464844 36.341797 L 43.464844 37.958984 L 43.964844 37.298828 L 43.964844 36.341797 L 43.464844 36.341797 z M 45.464844 36.341797 L 45.464844 38.630859 L 45.964844 37.970703 L 45.964844 36.341797 L 45.464844 36.341797 z M 47.826172 36.341797 L 47.464844 36.818359 L 47.464844 39.302734 L 47.964844 38.642578 L 47.964844 36.341797 L 47.826172 36.341797 z M 49.464844 36.341797 L 49.464844 36.662109 L 49.707031 36.341797 L 49.464844 36.341797 z M 9.9648438 36.644531 L 9.4648438 37.304688 L 9.4648438 39.789062 L 9.9648438 39.128906 L 9.9648438 36.644531 z M 19.964844 36.691406 L 19.464844 37.351562 L 19.464844 39.833984 L 19.964844 39.173828 L 19.964844 36.691406 z M 29.964844 36.736328 L 29.464844 37.396484 L 29.464844 39.882812 L 29.964844 39.222656 L 29.964844 36.736328 z M 39.964844 36.783203 L 39.464844 37.443359 L 39.464844 39.927734 L 39.964844 39.267578 L 39.964844 36.783203 z M 49.964844 36.828125 L 49.464844 37.488281 L 49.464844 39.974609 L 49.964844 39.314453 L 49.964844 36.828125 z M 11.964844 37.316406 L 11.464844 37.976562 L 11.464844 40.460938 L 11.964844 39.800781 L 11.964844 37.316406 z M 21.964844 37.361328 L 21.464844 38.021484 L 21.464844 40.509766 L 21.964844 39.847656 L 21.964844 37.361328 z M 31.964844 37.410156 L 31.464844 38.070312 L 31.464844 40.552734 L 31.964844 39.892578 L 31.964844 37.410156 z M 41.964844 37.455078 L 41.464844 38.115234 L 41.464844 40.599609 L 41.964844 39.939453 L 41.964844 37.455078 z M 51.964844 37.5 L 51.464844 38.160156 L 51.464844 40.646484 L 51.964844 39.986328 L 51.964844 37.5 z M 13.964844 37.986328 L 13.464844 38.646484 L 13.464844 41.132812 L 13.964844 40.472656 L 13.964844 37.986328 z M 23.964844 38.035156 L 23.464844 38.695312 L 23.464844 41.179688 L 23.964844 40.519531 L 23.964844 38.035156 z M 33.964844 38.080078 L 33.464844 38.740234 L 33.464844 41.226562 L 33.964844 40.566406 L 33.964844 38.080078 z M 43.964844 38.126953 L 43.464844 38.787109 L 43.464844 41.271484 L 43.964844 40.611328 L 43.964844 38.126953 z M 53.964844 38.173828 L 53.464844 38.833984 L 53.464844 41.318359 L 53.964844 40.658203 L 53.964844 38.173828 z M 15.964844 38.660156 L 15.464844 39.320312 L 15.464844 41.804688 L 15.964844 41.144531 L 15.964844 38.660156 z M 25.964844 38.705078 L 25.464844 39.365234 L 25.464844 41.849609 L 25.964844 41.189453 L 25.964844 38.705078 z M 35.964844 38.751953 L 35.464844 39.412109 L 35.464844 41.898438 L 35.964844 41.238281 L 35.964844 38.751953 z M 45.964844 38.798828 L 45.464844 39.458984 L 45.464844 41.943359 L 45.964844 41.283203 L 45.964844 38.798828 z M 55.964844 38.845703 L 55.464844 39.505859 L 55.464844 44.541016 A 0.25 0.25 0 0 0 55.714844 44.791016 A 0.25 0.25 0 0 0 55.964844 44.541016 L 55.964844 38.845703 z M 7.9648438 39.285156 L 7.4648438 39.945312 L 7.4648438 42.431641 L 7.9648438 41.769531 L 7.9648438 39.285156 z M 17.964844 39.332031 L 17.464844 39.992188 L 17.464844 42.474609 L 17.964844 41.814453 L 17.964844 39.332031 z M 27.964844 39.376953 L 27.464844 40.037109 L 27.464844 42.523438 L 27.964844 41.863281 L 27.964844 39.376953 z M 37.964844 39.423828 L 37.464844 40.083984 L 37.464844 42.568359 L 37.964844 41.908203 L 37.964844 39.423828 z M 47.964844 39.470703 L 47.464844 40.130859 L 47.464844 42.615234 L 47.964844 41.955078 L 47.964844 39.470703 z M 9.9648438 39.957031 L 9.4648438 40.617188 L 9.4648438 43.101562 L 9.9648438 42.441406 L 9.9648438 39.957031 z M 19.964844 40.001953 L 19.464844 40.662109 L 19.464844 43.150391 L 19.964844 42.490234 L 19.964844 40.001953 z M 29.964844 40.050781 L 29.464844 40.710938 L 29.464844 43.193359 L 29.964844 42.533203 L 29.964844 40.050781 z M 39.964844 40.095703 L 39.464844 40.755859 L 39.464844 43.240234 L 39.964844 42.580078 L 39.964844 40.095703 z M 49.964844 40.140625 L 49.464844 40.800781 L 49.464844 43.287109 L 49.964844 42.626953 L 49.964844 40.140625 z M 11.964844 40.626953 L 11.464844 41.287109 L 11.464844 43.775391 L 11.964844 43.115234 L 11.964844 40.626953 z M 21.964844 40.675781 L 21.464844 41.335938 L 21.464844 43.820312 L 21.964844 43.160156 L 21.964844 40.675781 z M 31.964844 40.720703 L 31.464844 41.380859 L 31.464844 43.867188 L 31.964844 43.207031 L 31.964844 40.720703 z M 41.964844 40.767578 L 41.464844 41.427734 L 41.464844 43.912109 L 41.964844 43.251953 L 41.964844 40.767578 z M 51.964844 40.816406 L 51.464844 41.476562 L 51.464844 43.958984 L 51.964844 43.298828 L 51.964844 40.816406 z M 13.964844 41.302734 L 13.464844 41.962891 L 13.464844 44.445312 L 13.964844 43.785156 L 13.964844 41.302734 z M 23.964844 41.345703 L 23.464844 42.005859 L 23.464844 44.492188 L 23.964844 43.832031 L 23.964844 41.345703 z M 33.964844 41.392578 L 33.464844 42.052734 L 33.464844 44.539062 L 33.964844 43.878906 L 33.964844 41.392578 z M 43.964844 41.439453 L 43.464844 42.101562 L 43.464844 44.541016 A 0.25 0.25 0 0 0 43.46875 44.580078 L 43.964844 43.925781 L 43.964844 41.439453 z M 53.964844 41.486328 L 53.464844 42.146484 L 53.464844 44.541016 A 0.25 0.25 0 0 0 53.714844 44.791016 A 0.25 0.25 0 0 0 53.964844 44.541016 L 53.964844 41.486328 z M 15.964844 41.972656 L 15.464844 42.632812 L 15.464844 44.541016 A 0.25 0.25 0 0 0 15.710938 44.791016 L 15.964844 44.455078 L 15.964844 41.972656 z M 25.964844 42.019531 L 25.464844 42.679688 L 25.464844 44.541016 A 0.25 0.25 0 0 0 25.714844 44.791016 A 0.25 0.25 0 0 0 25.748047 44.789062 L 25.75 44.789062 L 25.964844 44.503906 L 25.964844 42.019531 z M 35.964844 42.064453 L 35.464844 42.724609 L 35.464844 44.541016 A 0.25 0.25 0 0 0 35.714844 44.791016 A 0.25 0.25 0 0 0 35.791016 44.779297 L 35.964844 44.550781 A 0.25 0.25 0 0 0 35.964844 44.548828 A 0.25 0.25 0 0 0 35.964844 44.541016 L 35.964844 42.064453 z M 45.964844 42.111328 L 45.464844 42.771484 L 45.464844 44.541016 A 0.25 0.25 0 0 0 45.714844 44.791016 A 0.25 0.25 0 0 0 45.845703 44.753906 L 45.955078 44.609375 A 0.25 0.25 0 0 0 45.964844 44.541016 L 45.964844 42.111328 z M 7.9648438 42.597656 L 7.4648438 43.257812 L 7.4648438 44.541016 A 0.25 0.25 0 0 0 7.7148438 44.791016 A 0.25 0.25 0 0 0 7.9648438 44.541016 L 7.9648438 42.597656 z M 17.964844 42.644531 L 17.464844 43.304688 L 17.464844 44.541016 A 0.25 0.25 0 0 0 17.714844 44.791016 A 0.25 0.25 0 0 0 17.964844 44.541016 L 17.964844 42.644531 z M 27.964844 42.691406 L 27.464844 43.351562 L 27.464844 44.541016 A 0.25 0.25 0 0 0 27.714844 44.791016 A 0.25 0.25 0 0 0 27.964844 44.541016 L 27.964844 42.691406 z M 37.964844 42.736328 L 37.464844 43.396484 L 37.464844 44.541016 A 0.25 0.25 0 0 0 37.714844 44.791016 A 0.25 0.25 0 0 0 37.964844 44.541016 L 37.964844 42.736328 z M 47.964844 42.783203 L 47.464844 43.443359 L 47.464844 44.541016 A 0.25 0.25 0 0 0 47.714844 44.791016 A 0.25 0.25 0 0 0 47.964844 44.541016 L 47.964844 42.783203 z M 9.9648438 43.267578 L 9.4648438 43.927734 L 9.4648438 44.541016 A 0.25 0.25 0 0 0 9.7148438 44.791016 A 0.25 0.25 0 0 0 9.9648438 44.541016 L 9.9648438 43.267578 z M 19.964844 43.316406 L 19.464844 43.976562 L 19.464844 44.541016 A 0.25 0.25 0 0 0 19.714844 44.791016 A 0.25 0.25 0 0 0 19.964844 44.541016 L 19.964844 43.316406 z M 29.964844 43.363281 L 29.464844 44.023438 L 29.464844 44.541016 A 0.25 0.25 0 0 0 29.714844 44.791016 A 0.25 0.25 0 0 0 29.964844 44.541016 L 29.964844 43.363281 z M 39.964844 43.408203 L 39.464844 44.068359 L 39.464844 44.541016 A 0.25 0.25 0 0 0 39.714844 44.791016 A 0.25 0.25 0 0 0 39.964844 44.541016 L 39.964844 43.408203 z M 49.964844 43.457031 L 49.464844 44.117188 L 49.464844 44.541016 A 0.25 0.25 0 0 0 49.714844 44.791016 A 0.25 0.25 0 0 0 49.964844 44.541016 L 49.964844 43.457031 z M 11.964844 43.943359 L 11.470703 44.59375 A 0.25 0.25 0 0 0 11.470703 44.595703 A 0.25 0.25 0 0 0 11.714844 44.791016 A 0.25 0.25 0 0 0 11.964844 44.541016 L 11.964844 43.943359 z M 21.964844 43.986328 L 21.480469 44.626953 A 0.25 0.25 0 0 0 21.714844 44.791016 A 0.25 0.25 0 0 0 21.964844 44.541016 L 21.964844 43.986328 z M 31.964844 44.033203 L 31.494141 44.65625 A 0.25 0.25 0 0 0 31.714844 44.791016 A 0.25 0.25 0 0 0 31.964844 44.541016 L 31.964844 44.033203 z M 41.964844 44.082031 L 41.509766 44.683594 A 0.25 0.25 0 0 0 41.714844 44.791016 A 0.25 0.25 0 0 0 41.964844 44.541016 L 41.964844 44.082031 z M 51.964844 44.126953 L 51.527344 44.705078 A 0.25 0.25 0 0 0 51.714844 44.791016 A 0.25 0.25 0 0 0 51.964844 44.541016 L 51.964844 44.126953 z M 13.941406 44.644531 L 13.875 44.732422 A 0.25 0.25 0 0 0 13.941406 44.644531 z " /><path
     id="rect16"
     style="fill:#ff0000;fill-opacity:1;stroke-width:3;stroke-linecap:round;stroke-linejoin:round;stroke-miterlimit:0;paint-order:markers stroke fill"
     d="M 0,0 V 64 H 128 V 0 Z M 13.132812,6.296875 H 53.859375 V 37.648438 H 13.132812 Z" /><path
     id="rect2"
     style="fill:#f2fbba;fill-opacity:1;stroke:none;stroke-width:1.88976;stroke-linecap:square;stroke-linejoin:round;stroke-miterlimit:0;paint-order:markers stroke fill"
     d="M 10,2 V 3 H 9 v 39 h 1 v 1 h 48 v -1 h 1 V 3 H 58 V 2 Z m 3,2 H 27 V 5 H 13 V 6 H 12 V 17 H 11 V 6 h 1 V 5 h 1 z m 1,2 h 40 v 1 h 1 v 30 h -1 v 1 H 14 V 37 H 13 V 7 h 1 z m 37,33 h 3 v 2 h -3 z m -32,5 v 1 h -2 v 1 H 2 v 1 H 1 v 14 h 32 v 1 H 2 v 1 h 63 v -1 -1 h 1 V 47 H 65 V 46 H 51 V 45 H 49 V 44 Z M 7,47 h 1 v 4 h 1 v -4 h 1 v 4 h 1 v -4 h 1 v 4 h 1 v -4 h 1 v 4 h 1 v -4 h 1 v 4 h 1 v 1 h -1 v -1 h -1 v 1 h -1 v -1 h -1 v 1 h -1 v -1 h -1 v 1 H 10 V 51 H 9 v 1 H 8 V 51 H 7 Z m 11,0 h 1 v 1 h -1 z m 2,0 h 1 v 4 h 1 v -4 h 1 v 4 h 1 v -4 h 1 v 4 h 1 v 1 h -1 v -1 h -1 v 1 h -1 v -1 h -1 v 1 h -1 v -1 h -1 z m 7,0 h 1 v 4 h 1 v 1 h -1 v -1 h -1 z m 2,0 h 1 v 1 h -1 z m 2,0 h 1 v 4 h 1 v -4 h 1 v 4 h 1 v -4 h 1 v 4 h 1 v 1 h -1 v -1 h -1 v 1 h -1 v -1 h -1 v 1 h -1 v -1 h -1 z m 7,0 h 1 v 4 h 1 v -2 h 1 v 2 h -1 v 1 h -1 v -1 h -1 z m 2,0 h 1 v 1 h -1 z m 2,0 h 1 v 4 h 1 v -4 h 1 v 4 h 1 v -4 h 1 v 4 h 1 v -1 h 1 v 1 h 1 v 1 h -1 v -1 h -1 v 1 h -1 v -1 h -1 v 1 h -1 v -1 h -1 v 1 h -1 v -1 h -1 z m 6,0 h 1 v 1 h -1 z m 3,0 h 1 v 4 h 1 v -4 h 1 v 4 h 1 v -4 h 1 v 4 h 1 v -4 h 1 v 4 h 1 v 1 h -1 v -1 h -1 v 1 h -1 v -1 h -1 v 1 h -1 v -1 h -1 v 1 h -1 v -1 h -1 z m 11,1 h 2 v 1 h 1 v 2 h -1 v 1 h -2 v -1 h -1 v -2 h 1 z m 0,1 v 1 1 H 62.476562 64 v -1 h -1.523438 v -1 z m -44,0 h 1 v 1 h -1 z m 11,0 h 1 v 1 H 29 Z M 5,55 h 15 v 2 H 5 Z m 17,0 h 1 v 1 h 1 v 1 h -2 z m 16,6 h 7 v 1 h -7 z m 8,0 h 1 v 1 h -1 z m 2,0 h 1 v 1 h -1 z m 3,0 h 13 v 1 H 51 Z" /></svg>
