<?xml version="1.0" encoding="UTF-8" standalone="no"?>
<!-- Created with Inkscape (http://www.inkscape.org/) -->

<svg
   version="1.1"
   id="svg1"
   width="128"
   height="64"
   viewBox="0 0 128 64"
   xml:space="preserve"
   xmlns="http://www.w3.org/2000/svg"
   xmlns:svg="http://www.w3.org/2000/svg"><defs
     id="defs1" /><rect
     style="fill:#00644f;fill-opacity:1;stroke-width:3;stroke-linecap:round;stroke-linejoin:round;stroke-miterlimit:0;paint-order:markers stroke fill"
     id="rect1"
     width="128"
     height="64"
     x="0"
     y="0" /><path
     id="animate-rotate-time-01"
     transform="rotate({{seconds-angle}} 33.8 22.62)"
     style="fill:#ffffff;fill-opacity:{{blink-odd}};stroke-width:7.94353;stroke-linecap:round;stroke-linejoin:round;stroke-miterlimit:0;paint-order:markers stroke fill"
     d="m 48.423912,6.689688 c -0.642383,-0.5714523 -2.785513,2.0988656 -5.22619,5.393802 0.160302,0.14283 0.320154,0.285408 0.478915,0.427653 2.98872,-2.8082452 5.389736,-5.2499347 4.747275,-5.821455 z m 5.958557,9.057882 c -0.508283,-0.431349 -2.71684,0.333212 -5.490503,1.49206 0.288426,0.259536 0.569112,0.510262 0.841505,0.753263 2.884192,-0.74053 4.95816,-1.455536 4.741486,-2.109002 -0.01797,-0.05421 -0.04941,-0.09977 -0.09249,-0.136321 z M 38.747365,1.8412116 c -0.04388,-0.045207 -0.0964,-0.075981 -0.157901,-0.088668 -0.520687,-0.1074086 -0.918937,1.1466623 -1.257398,3.0819569 0.261357,0.6151185 0.519982,1.2298358 0.777555,1.846457 C 38.796857,4.1872359 39.17154,2.278229 38.747365,1.8412116 Z M 49.081213,18.158694 c -0.253426,-0.224063 -0.507543,-0.451024 -0.762188,-0.677848 -1.324352,0.562624 -2.754477,1.199856 -4.176426,1.82903 1.698021,-0.38642 3.409672,-0.771488 4.938614,-1.151182 z m -4.938614,1.151182 c -0.252188,0.05739 -0.504965,0.114206 -0.755905,0.171621 0.0179,0.04578 0.03583,0.0927 0.05379,0.138676 0.23317,-0.102854 0.46798,-0.206702 0.702113,-0.3103 z M 37.144384,6.005123 c -0.04188,0.2858183 -0.08218,0.5819357 -0.12254,0.885409 0.245555,0.1906916 0.490565,0.3834728 0.735611,0.5781269 C 37.555752,6.989131 37.350571,6.4993563 37.144384,6.005123 Z m 6.010578,6.994998 c -0.12824,-0.111467 -0.256792,-0.223753 -0.385965,-0.335522 -0.456969,0.621136 -0.922383,1.257256 -1.387197,1.894192 0.0087,0.02029 0.01688,0.04204 0.02559,0.06242 0.587011,-0.543769 1.175633,-1.087156 1.747573,-1.621093 z M 37.616456,8.4022155 C 37.377694,8.2162928 37.139212,8.0313707 36.899917,7.8491484 36.72345,9.2865053 36.556751,10.85589 36.38936,12.413999 36.810205,11.052742 37.236865,9.6842044 37.616456,8.4022155 Z M 36.38936,12.413999 c -0.287175,0.928887 -0.572088,1.85348 -0.838142,2.745211 0.152495,0.200621 0.306619,0.402348 0.461856,0.605641 0.130012,-1.073973 0.253614,-2.209 0.376286,-3.350852 z m 18.57767,14.100193 c -0.858046,-0.784847 -5.122287,-1.264095 -9.536526,-1.738052 0.02844,0.07443 0.05621,0.148705 0.08467,0.22325 4.802852,1.484593 9.394792,2.864984 9.600056,1.869928 0.02587,-0.125452 -0.02562,-0.243007 -0.1482,-0.355128 z M 40.834164,15.152464 c -1.074636,0.997058 -2.129195,1.982589 -3.063364,2.895897 0.171356,0.220953 0.34468,0.44286 0.519222,0.66701 0.81587,-1.052594 1.695339,-2.244146 2.584501,-3.460282 -0.01323,-0.03426 -0.02716,-0.06847 -0.04036,-0.102629 z M 28.042762,2.5700616 C 27.892943,2.4109213 27.746792,2.3463861 27.60264,2.3941843 27.280863,2.5008775 27.278377,3.0621568 27.493964,3.9330204 28.200733,4.9947926 28.944891,6.0840986 29.731588,7.2090815 29.147842,4.9261256 28.577717,3.1385296 28.042762,2.5700616 Z M 42.546304,19.675712 c -1.027242,0.237765 -2.026414,0.474588 -2.950672,0.710728 0.173014,0.220146 0.348726,0.441061 0.524776,0.664307 0.807622,-0.335399 1.662073,-0.702915 2.534732,-1.085238 -0.03586,-0.09672 -0.07292,-0.193071 -0.108833,-0.2898 z M 28.118683,5.8662677 c 0.712859,1.9178812 1.821975,4.4014453 2.909941,6.8602753 C 30.726519,11.399017 30.425,10.062969 30.126352,8.8125864 29.424689,7.8017865 28.757551,6.8225748 28.118683,5.8662677 Z m 2.909941,6.8602753 c 0.739144,3.247974 1.481239,6.446135 2.192693,8.218703 -1.346328,-1.354828 -3.988901,-3.301795 -6.679231,-5.265913 2.2641,2.443259 4.505939,4.841909 6.008361,6.021268 -0.873286,-0.236947 -2.066346,-0.444357 -3.431017,-0.634019 0.155999,0.170597 0.314731,0.343042 0.473829,0.517375 0.200237,0.219403 0.400712,0.438921 0.6008,0.658201 0.818633,0.204486 1.547924,0.36037 2.151282,0.446574 -0.400901,0.106068 -0.854943,0.250505 -1.353848,0.426385 0.260562,0.28561 0.520336,0.570515 0.779665,0.854822 0.326979,-0.108458 0.625832,-0.214945 0.892834,-0.322111 -0.190233,0.189083 -0.391334,0.403309 -0.603364,0.64005 0.240541,0.263705 0.479319,0.527355 0.718206,0.789257 0.240067,-0.268898 0.455765,-0.523073 0.640519,-0.758436 -0.09305,0.342937 -0.18325,0.734668 -0.267751,1.167021 0.29069,0.318707 0.581214,0.636171 0.868434,0.951047 0.175623,-0.722265 0.311109,-1.370253 0.388843,-1.914331 0.267211,1.009957 0.780283,2.366442 1.412191,3.887538 0.366442,0.401523 0.728084,0.798145 1.084169,1.188105 -0.520512,-2.185288 -1.036956,-4.142944 -1.538662,-5.392931 1.342359,1.350848 3.973811,3.289477 6.655941,5.247715 0.0014,-0.0013 0.0014,-0.0014 0.0028,-0.0027 -2.257432,-2.435935 -4.489777,-4.824381 -5.987862,-6.000335 1.32029,0.35823 3.368995,0.646887 5.642068,0.912719 -0.182873,-0.235102 -0.3655,-0.46748 -0.545126,-0.699051 -1.935126,-0.568257 -3.673734,-1.028965 -4.893204,-1.203193 0.836117,-0.221217 1.910956,-0.610562 3.119079,-1.097064 -0.196542,-0.256021 -0.392054,-0.509934 -0.584523,-0.761616 -1.131569,0.304202 -2.114521,0.605042 -2.851843,0.900983 0.544844,-0.541373 1.18417,-1.292609 1.883182,-2.172126 -0.192537,-0.253503 -0.382396,-0.504015 -0.570801,-0.753185 -0.848614,0.84806 -1.567773,1.617528 -2.067737,2.254439 0.272269,-1.003466 0.505397,-2.428042 0.717872,-4.051653 -0.196253,-0.262559 -0.389891,-0.52306 -0.581559,-0.780921 -0.532143,1.828067 -0.958243,3.464203 -1.124441,4.62747 -0.488539,-1.846484 -1.803948,-4.853904 -3.151787,-7.900051 z m -4.486538,2.95279 c -1.247375,-1.346081 -2.500508,-2.706123 -3.641402,-3.883293 -0.07944,0.338747 -0.163807,0.677477 -0.249586,1.015284 1.206421,0.913187 2.554914,1.892588 3.890988,2.868009 z m 17.831825,8.966947 c -0.621519,-0.192094 -1.241757,-0.384475 -1.850289,-0.569101 0.05124,0.06405 0.10259,0.129277 0.154039,0.193595 0.06038,0.07552 0.120926,0.151516 0.181309,0.227029 0.502144,0.05577 1.0103,0.110283 1.520289,0.165109 -0.0021,-0.0058 -0.0033,-0.0109 -0.0054,-0.01662 z m 4.970986,10.511536 c 0.213246,0.571885 0.417805,1.123994 0.613864,1.651381 0.09012,-0.0069 0.164863,-0.04127 0.220694,-0.104032 0.243691,-0.273945 -0.102242,-0.820619 -0.834556,-1.547347 z m -1.732636,-1.515331 c -1.300456,-1.049559 -2.949449,-2.260441 -4.635789,-3.49181 -0.05494,0.04904 -0.110875,0.09696 -0.165888,0.146042 2.12981,2.298047 4.208256,4.519571 5.6335,5.680339 -0.266637,-0.747233 -0.543693,-1.527615 -0.831825,-2.33457 z M 34.528983,22.420211 c -0.01045,0.02796 -0.01816,0.05622 -0.0216,0.08402 0.01936,0.02024 0.04205,0.03836 0.06713,0.05455 -0.023,0.01902 -0.04315,0.03918 -0.06,0.06156 0.0066,0.02721 0.01728,0.05526 0.03091,0.08182 -0.02943,0.0049 -0.05593,0.0117 -0.08173,0.02262 -0.0078,0.02689 -0.01323,0.05566 -0.01471,0.08547 -0.02796,-0.01045 -0.05622,-0.01816 -0.08402,-0.0216 -0.02024,0.01936 -0.03836,0.04205 -0.05455,0.06713 -0.01902,-0.023 -0.03918,-0.04315 -0.06156,-0.06 -0.02721,0.0066 -0.05526,0.01728 -0.08182,0.03091 -0.0049,-0.02943 -0.01307,-0.05732 -0.02399,-0.08311 -0.02689,-0.0078 -0.0543,-0.01184 -0.08411,-0.01331 0.01045,-0.02796 0.01816,-0.05622 0.0216,-0.08402 -0.01937,-0.02024 -0.04205,-0.03837 -0.06713,-0.05455 0.023,-0.01902 0.04315,-0.03918 0.06,-0.06156 -0.0066,-0.02721 -0.01728,-0.05526 -0.03091,-0.08182 0.02943,-0.0049 0.05732,-0.01307 0.08312,-0.02398 0.0078,-0.02689 0.01184,-0.0543 0.01331,-0.08411 0.02797,0.01045 0.05622,0.01816 0.08402,0.0216 0.02024,-0.01937 0.03836,-0.04205 0.05455,-0.06713 0.01902,0.023 0.03918,0.04315 0.06156,0.06 0.02721,-0.0066 0.05526,-0.01728 0.08182,-0.03091 0.0049,0.02943 0.01169,0.05593 0.02262,0.08173 0.02689,0.0078 0.05566,0.01323 0.08547,0.01471 z m -0.08547,-0.01471 c -0.01896,-0.0055 -0.03619,-0.01251 -0.05364,-0.02127 -0.01742,-0.0088 -0.03504,-0.01765 -0.0508,-0.02953 -0.01916,0.0047 -0.03859,0.0065 -0.05809,0.0077 -0.01949,0.0011 -0.03842,0.0018 -0.05801,-6.08e-4 -0.01426,0.01364 -0.02963,0.02608 -0.04599,0.03678 -0.01629,0.01077 -0.03321,0.018 -0.05138,0.0257 -0.0055,0.01896 -0.01391,0.03756 -0.02267,0.05501 -0.0088,0.01742 -0.01765,0.03505 -0.02953,0.0508 0.0047,0.01916 0.0065,0.03859 0.0077,0.05809 0.0011,0.0195 0.0018,0.03842 -6.01e-4,0.058 0.01364,0.01426 0.02609,0.02964 0.03678,0.04599 0.01077,0.01629 0.01801,0.03321 0.0257,0.05138 0.01897,0.0055 0.03895,0.01255 0.05641,0.02131 0.01742,0.0088 0.03366,0.01902 0.04939,0.0309 0.01916,-0.0047 0.03723,-0.0079 0.05672,-0.0091 0.0195,-0.0011 0.03979,-4.17e-4 0.05936,0.002 0.01426,-0.01364 0.02964,-0.02609 0.04599,-0.03678 0.01629,-0.01077 0.03461,-0.01937 0.05277,-0.02707 0.0055,-0.01896 0.01115,-0.03758 0.01991,-0.05503 0.0088,-0.01742 0.01901,-0.03365 0.0309,-0.0494 -0.0047,-0.01916 -0.0065,-0.03859 -0.0077,-0.05809 -0.0011,-0.0195 -0.0018,-0.03842 6.09e-4,-0.05801 -0.01364,-0.01426 -0.02608,-0.02963 -0.03678,-0.04599 -0.01077,-0.01629 -0.01937,-0.03461 -0.02707,-0.05277 z M 22.399177,11.283901 C 20.41418,9.2738346 18.852068,7.946736 18.409834,8.4438638 c -0.470589,0.5289956 1.256096,2.0769572 3.720603,3.9697562 0.0508,-0.199256 0.100515,-0.397077 0.148484,-0.593716 0.04023,-0.179219 0.0809,-0.357566 0.120256,-0.536003 z m 5.472034,9.619048 c -1.185856,-0.147472 -2.458855,-0.285696 -3.738462,-0.423166 1.581564,0.488956 3.152898,0.971087 4.565553,1.365493 -0.279794,-0.31877 -0.554985,-0.633297 -0.827091,-0.942327 z m -3.738462,-0.423166 c -1.180257,-0.364888 -2.366738,-0.733512 -3.496857,-1.072532 -0.07696,0.219411 -0.155418,0.43802 -0.236196,0.660472 1.200922,0.139948 2.470628,0.276435 3.733053,0.41206 z m 5.967219,2.964366 c -1.653525,0.632755 -3.645689,1.507447 -5.654675,2.396369 2.31707,-0.527297 4.609907,-1.057088 6.376689,-1.575303 -0.239707,-0.273431 -0.481437,-0.546642 -0.722017,-0.821064 z m -5.654675,2.396369 c -1.934304,0.440191 -3.886515,0.878383 -5.565926,1.308959 0.701242,0.03836 1.424275,0.09622 2.181712,0.17895 1.093995,-0.472812 2.241706,-0.98238 3.384214,-1.487909 z m 7.009938,-0.850468 c -0.871672,1.043278 -1.868743,2.359444 -2.902553,3.760799 0.138977,0.0356 0.279991,0.07233 0.421482,0.109388 1.177339,-1.103956 2.280232,-2.163242 3.16488,-3.090927 -0.227094,-0.258935 -0.455185,-0.518517 -0.683781,-0.77923 z m 1.487669,1.695073 c -0.151261,0.954715 -0.290548,2.030546 -0.42406,3.165278 0.171912,0.05001 0.34284,0.100331 0.513589,0.150407 0.252643,-0.846561 0.488873,-1.662966 0.693891,-2.423536 -0.259461,-0.295505 -0.520795,-0.592837 -0.783422,-0.892146 z m 4.664982,5.844205 c -0.009,-0.0031 -0.01844,-0.0055 -0.02753,-0.0086 0.06608,0.290479 0.133422,0.580754 0.199419,0.870831 0.04923,-0.04596 0.09868,-0.09061 0.147862,-0.136535 -0.106647,-0.240945 -0.212973,-0.484499 -0.319721,-0.725691 z m 0.754116,1.71086 c -0.108109,0.09607 -0.214326,0.192088 -0.322064,0.288044 1.035092,4.507026 2.046975,8.524001 2.943952,8.226583 0.908106,-0.301103 -0.729437,-4.219828 -2.621888,-8.514627 z M 32.76054,30.903987 c -0.116295,-0.03834 -0.232795,-0.07582 -0.349614,-0.114159 -0.072,0.640059 -0.142081,1.292081 -0.212393,1.946567 0.190183,-0.615161 0.378664,-1.229092 0.562007,-1.832408 z m -0.562007,1.832408 c -0.954222,3.0865 -1.935513,6.211792 -2.342192,8.27473 0.488697,-0.490869 0.9994,-0.997914 1.535252,-1.52526 0.295685,-1.929397 0.549445,-4.352691 0.806936,-6.749473 z M 19.958499,19.204024 c -3.5076,-1.033682 -6.327378,-1.699147 -6.487207,-0.924346 -0.158065,0.766257 2.631156,1.266361 6.204206,1.701724 0.01949,-0.04957 0.03886,-0.09773 0.05817,-0.14717 0.07845,-0.203444 0.142682,-0.409752 0.219132,-0.613693 0.002,-0.0053 0.0037,-0.0112 0.0057,-0.01651 z m 8.33359,10.294053 c -0.07945,-0.02297 -0.158174,-0.04634 -0.236835,-0.06878 -0.218181,0.2976 -0.437771,0.597232 -0.657173,0.897756 0.299374,-0.277427 0.598146,-0.553539 0.894006,-0.828981 z m -0.894005,0.828981 c -3.96538,3.674618 -8.050375,7.407332 -7.23547,8.132255 0.814907,0.724928 4.047723,-3.765869 7.23547,-8.132255 z m -7.402502,-2.542977 c -0.815119,-0.09485 -1.635601,-0.166552 -2.470296,-0.18612 l 0.0023,-0.08423 c -0.136268,0.03857 -0.268764,0.0762 -0.398971,0.114594 -0.261436,0.523658 -0.527137,1.043072 -0.795275,1.555115 0.998964,-0.310496 2.265281,-0.810267 3.662277,-1.399362 z m 11.167956,13.034965 c -0.497769,0.466848 -0.993359,0.935901 -1.487058,1.406979 -0.05377,0.688518 0.03641,1.111269 0.323342,1.170458 0.474071,0.09779 0.84533,-0.931577 1.163713,-2.57744 z M 15.946494,28.006796 c -1.240709,0.437289 -1.964595,0.858939 -1.832164,1.258342 0.08393,0.253133 0.44804,0.309405 1.02392,0.216529 0.271271,-0.485662 0.542185,-0.977459 0.808244,-1.474871 z" /><path
     id="blink-01"
     style="fill:#ffffff;fill-opacity:{{blink-even}}"
     d="m 7.7148438,1.5175781 a 0.25,0.25 0 0 0 -0.25,0.25 V 12.615234 l 0.5,-0.660156 V 1.7675781 a 0.25,0.25 0 0 0 -0.25,-0.25 z m 2,0 a 0.25,0.25 0 0 0 -0.25,0.25 v 8.2070313 l 0.5,-0.6601563 v -7.546875 a 0.25,0.25 0 0 0 -0.25,-0.25 z m 2.0000002,0 a 0.25,0.25 0 0 0 -0.25,0.25 v 5.5664063 l 0.5,-0.6621094 V 1.7675781 a 0.25,0.25 0 0 0 -0.25,-0.25 z m 2,0 a 0.25,0.25 0 0 0 -0.25,0.25 v 2.9238281 l 0.5,-0.6601562 V 1.7675781 a 0.25,0.25 0 0 0 -0.25,-0.25 z m 2,0 a 0.25,0.25 0 0 0 -0.25,0.25 v 0.2832031 l 0.376953,-0.4980468 a 0.25,0.25 0 0 0 -0.126953,-0.035156 z m 2,0 a 0.25,0.25 0 0 0 -0.25,0.25 v 0.9550781 l 0.5,-0.6601562 V 1.7675781 a 0.25,0.25 0 0 0 -0.25,-0.25 z m 2,0 a 0.25,0.25 0 0 0 -0.25,0.25 v 1.6269531 l 0.5,-0.6601562 V 1.7675781 a 0.25,0.25 0 0 0 -0.25,-0.25 z m 2,0 a 0.25,0.25 0 0 0 -0.25,0.25 v 2.296875 l 0.5,-0.6601562 V 1.7675781 a 0.25,0.25 0 0 0 -0.25,-0.25 z m 4,0 a 0.25,0.25 0 0 0 -0.25,0.25 v 0.3300781 l 0.40039,-0.5292968 a 0.25,0.25 0 0 0 -0.15039,-0.050781 z m 2,0 a 0.25,0.25 0 0 0 -0.25,0.25 v 1.0019531 l 0.5,-0.6601562 V 1.7675781 a 0.25,0.25 0 0 0 -0.25,-0.25 z m 2,0 a 0.25,0.25 0 0 0 -0.25,0.25 v 1.6738281 l 0.5,-0.6601562 V 1.7675781 a 0.25,0.25 0 0 0 -0.25,-0.25 z m 2,0 a 0.25,0.25 0 0 0 -0.25,0.25 v 2.3457031 l 0.5,-0.6601562 V 1.7675781 a 0.25,0.25 0 0 0 -0.25,-0.25 z m 4,0 a 0.25,0.25 0 0 0 -0.25,0.25 v 0.375 l 0.421875,-0.5566406 a 0.25,0.25 0 0 0 -0.171875,-0.068359 z m 2,0 a 0.25,0.25 0 0 0 -0.25,0.25 v 1.046875 l 0.5,-0.6601562 V 1.7675781 a 0.25,0.25 0 0 0 -0.25,-0.25 z m 2,0 a 0.25,0.25 0 0 0 -0.25,0.25 v 1.7207031 l 0.5,-0.6601562 V 1.7675781 a 0.25,0.25 0 0 0 -0.25,-0.25 z m 2,0 a 0.25,0.25 0 0 0 -0.25,0.25 V 4.1601562 L 41.964844,3.5 V 1.7675781 a 0.25,0.25 0 0 0 -0.25,-0.25 z m 4,0 a 0.25,0.25 0 0 0 -0.25,0.25 v 0.421875 L 45.90625,1.6074219 a 0.25,0.25 0 0 0 -0.191406,-0.089844 z m 2,0 a 0.25,0.25 0 0 0 -0.25,0.25 v 1.09375 l 0.5,-0.6601562 V 1.7675781 a 0.25,0.25 0 0 0 -0.25,-0.25 z m 2,0 a 0.25,0.25 0 0 0 -0.25,0.25 v 1.7675781 l 0.5,-0.6601562 V 1.7675781 a 0.25,0.25 0 0 0 -0.25,-0.25 z m 2,0 a 0.25,0.25 0 0 0 -0.117188,0.029297 h -0.002 l -0.125,0.1660156 a 0.25,0.25 0 0 0 -0.0059,0.054687 v 2.4375 l 0.5,-0.6601562 V 1.7675781 a 0.25,0.25 0 0 0 -0.25,-0.25 z m 4,0 a 0.25,0.25 0 0 0 -0.25,0.25 v 0.46875 L 55.923828,1.6308594 A 0.25,0.25 0 0 0 55.714844,1.5175781 Z m 2,0 a 0.25,0.25 0 0 0 -0.25,0.25 v 1.140625 l 0.5,-0.6601562 V 1.7675781 a 0.25,0.25 0 0 0 -0.25,-0.25 z m 2,0 a 0.25,0.25 0 0 0 -0.25,0.25 V 3.578125 l 0.5,-0.6601562 V 1.7675781 a 0.25,0.25 0 0 0 -0.25,-0.25 z m 2,0 a 0.25,0.25 0 0 0 -0.06836,0.00977 l -0.18164,0.2382812 a 0.25,0.25 0 0 0 0,0.00195 v 2.4863281 l 0.5,-0.6601562 V 1.7675781 a 0.25,0.25 0 0 0 -0.25,-0.25 z M 23.929688,1.640625 23.464844,2.2539062 v 2.484375 l 0.5,-0.6601562 V 1.7675781 A 0.25,0.25 0 0 0 23.929688,1.640625 Z m 10.013671,0.027344 -0.478515,0.6328124 v 2.484375 l 0.5,-0.6601562 V 1.7675781 a 0.25,0.25 0 0 0 -0.02148,-0.099609 z m 10.011719,0.03125 -0.490234,0.6464843 v 2.484375 l 0.5,-0.6601562 v -2.402344 a 0.25,0.25 0 0 0 -0.0098,-0.068359 z m 10.007813,0.035156 -0.498047,0.65625 v 2.4863281 l 0.5,-0.6601562 V 1.7675781 a 0.25,0.25 0 0 0 -0.002,-0.033203 z m -37.998047,0.4824219 -0.5,0.6621093 v 2.484375 l 0.5,-0.6601562 z m 10,0.048828 -0.5,0.6601562 v 2.484375 l 0.5,-0.6601562 z m 10,0.046875 -0.5,0.6601562 V 5.455078 l 0.5,-0.6601562 z m 10,0.044922 -0.5,0.6601562 v 2.484375 l 0.5,-0.6601562 z m 10,0.046875 -0.5,0.6601562 v 2.484375 l 0.5,-0.6601562 z m -38,0.484375 -0.5,0.6601562 v 2.4863281 l 0.5,-0.6601562 z m 10,0.048828 -0.5,0.6601562 v 2.484375 l 0.5,-0.6601562 z m 10,0.044922 -0.5,0.6601562 v 2.4863281 l 0.5,-0.6601562 z m 10,0.046875 -0.5,0.6601562 v 2.4863281 l 0.5,-0.6601562 z m 10,0.046875 -0.5,0.6601562 v 2.484375 l 0.5,-0.6621093 z m -38,0.4863281 -0.5,0.6601562 v 2.484375 l 0.5,-0.6601562 z m 10,0.044922 -0.5,0.6601562 v 2.4863281 l 0.5,-0.6601562 z m 10,0.046875 -0.5,0.6601562 v 2.4863281 l 0.5,-0.6601562 z m 10,0.046875 -0.5,0.6601562 v 2.484375 l 0.5,-0.6601562 z m 10,0.046875 -0.5,0.6601562 v 2.4863281 l 0.5,-0.6601562 z m -38,0.4863281 -0.5,0.6601562 v 2.484375 l 0.5,-0.6601562 z m 10,0.046875 -0.5,0.6601562 v 2.484375 l 0.5,-0.6601562 z m 10,0.044922 -0.5,0.6601562 v 2.484375 l 0.5,-0.6601562 z m 10,0.046875 -0.5,0.6601562 v 2.4863281 l 0.5,-0.6601562 z m 10,0.046875 -0.5,0.6601562 v 2.4863281 l 0.5,-0.6621093 z m -48,0.4394531 -0.5,0.6601562 v 2.484375 l 0.5,-0.6601562 z m 10,0.046875 -0.5,0.6601562 v 2.4863282 l 0.5,-0.6601563 z m 10,0.046875 -0.5,0.6601562 v 2.484375 l 0.5,-0.6601562 z m 10,0.044922 -0.5,0.6601562 v 2.484375 l 0.5,-0.6601562 z m 10,0.046875 -0.5,0.6601562 v 2.484375 l 0.5,-0.6601562 z m -38,0.4863281 -0.5,0.6601562 v 2.484375 l 0.5,-0.6601562 z m 10,0.046875 -0.5,0.6601562 v 2.3378907 h 0.111328 L 25.964844,8.0625 Z m 10,0.044922 -0.5,0.6601562 v 2.2929688 h 0.146484 L 35.964844,8.109375 Z m 10,0.048828 -0.5,0.6601562 v 2.2441407 h 0.18164 L 45.964844,8.15625 Z m 10,0.046875 -0.5,0.6601562 v 2.4824219 l 0.5,-0.6601562 z m -38,0.4863281 -0.5,0.6601563 v 1.7109375 h 0.5 z m 10,0.042969 -0.5,0.6601562 v 1.6679688 h 0.5 z m 10,0.046875 -0.5,0.6601562 v 1.6210938 h 0.5 z m 10,0.046875 -0.5,0.6601562 v 1.5742188 h 0.5 z m 10,0.046875 -0.5,0.6601562 v 2.4863281 l 0.5,-0.6601562 z m -38,0.4863281 -0.5,0.6601562 v 1.0410157 h 0.5 z m 10,0.046875 -0.5,0.6601562 v 0.9941407 h 0.5 z m 10,0.046875 -0.5,0.6601562 v 0.9472657 h 0.5 z m 10,0.044922 -0.5,0.6601562 v 0.9023438 h 0.5 z m 10,0.046875 -0.5,0.6601562 v 2.4863283 l 0.5,-0.6601564 z m -48,0.4394531 -0.5,0.6601562 v 2.4863282 l 0.5,-0.6621094 z m 10,0.046875 -0.5,0.6601562 v 0.3691407 h 0.5 z m 10,0.046875 -0.5,0.6601562 v 0.3222657 h 0.5 z m 10,0.046875 -0.5,0.6601562 v 0.2753907 h 0.5 z m 10,0.044922 -0.5,0.6601562 v 2.4863282 l 0.5,-0.660156 z m 10,0.046875 -0.5,0.6601562 v 2.4843752 l 0.5,-0.660156 z m -48,0.4394531 -0.5,0.6601562 V 11.31836 l 0.5,-0.660156 z m 10,0.046875 -0.271485,0.3574219 h 0.271485 z m 10,0.044922 -0.236328,0.3125 h 0.236328 z m 10,0.048828 -0.199219,0.2636719 h 0.199219 z m 10,0.046875 -0.5,0.6601562 v 2.4824221 l 0.5,-0.660156 z m 2,0.6699219 -0.5,0.6601562 v 2.4863282 l 0.5,-0.660156 z M 15.644531,9.2695312 15.464844,9.5058594 v 2.4824216 l 0.179687,-0.236328 z m 42.320313,0.4316407 -0.5,0.6601561 v 2.486328 l 0.5,-0.660156 z m -48.0000002,0.4394531 -0.5,0.660156 v 2.486328 l 0.5,-0.660156 z m 50.0000002,0.232422 -0.5,0.660156 v 2.484375 l 0.5,-0.660156 z m -48,0.439453 -0.5,0.660156 v 2.486328 l 0.5,-0.660156 z m 40,0.1875 -0.5,0.660156 v 2.482422 l 0.5,-0.660156 z m 10,0.04492 -0.5,0.660156 v 2.484375 l 0.5,-0.660156 z m -48,0.441406 -0.5,0.660156 v 2.482422 l 0.5,-0.660156 z m 40,0.183594 -0.5,0.660156 v 2.486328 l 0.5,-0.660156 z m 2,0.671875 -0.5,0.660156 v 2.486328 l 0.5,-0.660156 z m -40.320313,0.238281 -0.179687,0.236328 v 2.486328 l 0.179687,-0.236328 z m -7.6796872,0.201172 -0.5,0.660156 v 2.486328 l 0.5,-0.660156 z m 50.0000002,0.232422 -0.5,0.660156 v 2.484375 l 0.5,-0.660156 z m -48.0000002,0.439453 -0.5,0.660156 v 2.486328 l 0.5,-0.660156 z m 50.0000002,0.232422 -0.5,0.660156 v 2.486328 l 0.5,-0.660156 z m -48,0.441406 -0.5,0.660156 v 2.482422 l 0.5,-0.660156 z m 40,0.183594 -0.5,0.660156 v 2.486328 l 0.5,-0.660156 z m 10,0.04883 -0.5,0.660156 v 2.482422 l 0.5,-0.660156 z m -48,0.439453 -0.5,0.660156 v 2.484375 l 0.5,-0.660156 z m 40,0.185547 -0.5,0.660156 v 2.484375 l 0.5,-0.660156 z m 2,0.669922 -0.5,0.660156 v 2.486328 l 0.5,-0.660156 z m -40.320313,0.238281 -0.179687,0.236328 v 2.486328 l 0.179687,-0.236328 z m -7.6796872,0.201172 -0.5,0.660156 v 2.486328 l 0.5,-0.660156 z m 50.0000002,0.232422 -0.5,0.660156 v 2.486328 l 0.5,-0.660156 z m -48.0000002,0.441406 -0.5,0.660156 v 2.484375 l 0.5,-0.660156 z M 59.964844,17 l -0.5,0.660156 v 2.484375 l 0.5,-0.660156 z m -48,0.439453 -0.5,0.660156 v 2.484375 l 0.5,-0.660156 z m 40,0.185547 -0.5,0.660156 v 2.484375 l 0.5,-0.660156 z m 10,0.04687 -0.5,0.660156 v 2.484375 l 0.5,-0.660156 z m -48,0.4375 -0.5,0.662109 v 2.486328 l 0.5,-0.660156 z m 40,0.1875 -0.5,0.660156 v 2.484375 l 0.5,-0.660156 z m 2,0.669922 -0.5,0.660156 v 2.486328 l 0.5,-0.660156 z m -40.320313,0.240234 -0.179687,0.236328 v 2.484375 l 0.179687,-0.236328 z m -7.6796872,0.203125 -0.5,0.660156 v 2.482422 l 0.5,-0.660156 z m 50.0000002,0.230469 -0.5,0.660156 v 2.484375 l 0.5,-0.660156 z m -48.0000002,0.439453 -0.5,0.660156 v 2.484375 l 0.5,-0.660156 z m 50.0000002,0.232422 -0.5,0.660156 v 2.484375 l 0.5,-0.660156 z m -48,0.439453 -0.5,0.660156 v 2.486329 l 0.5,-0.660157 z m 40,0.185547 -0.5,0.660156 v 2.484375 l 0.5,-0.660156 z m 10,0.04492 -0.5,0.660156 v 2.486328 l 0.5,-0.660156 z m -48,0.441406 -0.5,0.660156 v 2.484375 l 0.5,-0.660156 z m 40,0.185547 -0.5,0.660156 v 2.484375 l 0.5,-0.660156 z m 2,0.671875 -0.5,0.660156 v 2.484375 l 0.5,-0.660156 z m -40.320313,0.236328 -0.179687,0.236328 v 2.486328 l 0.179687,-0.236328 z m -7.6796872,0.203125 -0.5,0.660156 v 2.484375 l 0.5,-0.660156 z m 50.0000002,0.232422 -0.5,0.660156 v 2.484375 l 0.5,-0.660156 z m -48.0000002,0.439453 -0.5,0.660156 v 2.486328 l 0.5,-0.660156 z m 50.0000002,0.230469 -0.5,0.662109 v 2.484375 l 0.5,-0.660156 z m -48,0.441406 -0.5,0.660156 v 2.484375 l 0.5,-0.660156 z m 40,0.185547 -0.5,0.660156 v 2.484375 l 0.5,-0.660156 z m 10,0.04687 -0.5,0.660156 v 2.484375 l 0.5,-0.660156 z m -48,0.4375 -0.5,0.662109 v 2.484375 l 0.5,-0.660156 z m 40,0.1875 -0.5,0.660156 v 2.484375 l 0.5,-0.660156 z m 2,0.671875 -0.5,0.660156 v 2.486328 l 0.5,-0.662109 z m -40.320313,0.238281 -0.179687,0.236328 v 2.484375 l 0.179687,-0.236328 z m -7.6796872,0.201172 -0.5,0.660156 v 2.486329 l 0.5,-0.660157 z m 50.0000002,0.232422 -0.5,0.660156 v 2.486328 l 0.5,-0.662109 z m -48.0000002,0.439453 -0.5,0.660156 v 2.486328 l 0.5,-0.662109 z m 50.0000002,0.232422 -0.5,0.660156 v 2.486328 l 0.5,-0.662109 z m -48,0.439453 -0.5,0.660156 v 2.484375 l 0.5,-0.660156 z m 40,0.1875 -0.5,0.660156 v 2.482422 l 0.5,-0.660156 z m 10,0.04687 -0.5,0.660156 v 2.482422 l 0.5,-0.660156 z m -48,0.4375 -0.5,0.660156 v 2.484375 l 0.5,-0.660156 z m 40,0.1875 -0.5,0.660156 v 2.484375 l 0.5,-0.660156 z m 2,0.669922 -0.5,0.660156 v 2.486328 l 0.5,-0.660156 z m -40.320313,0.240234 -0.179687,0.236328 v 2.484376 l 0.179687,-0.236329 z m -7.6796872,0.201172 -0.5,0.660156 v 2.484376 l 0.5,-0.660157 z m 50.0000002,0.230469 -0.5,0.660156 v 2.486328 l 0.5,-0.660156 z m -48.0000002,0.439453 -0.5,0.660156 v 2.484375 l 0.5,-0.660156 z m 50.0000002,0.234375 -0.5,0.660156 v 2.482422 l 0.5,-0.660156 z m -48,0.4375 -0.5,0.660156 v 2.486329 l 0.5,-0.660157 z m 40,0.1875 -0.5,0.660156 v 2.484375 l 0.5,-0.660156 z m 10,0.04492 -0.5,0.660156 v 12.958985 a 0.25,0.25 0 0 0 0.25,0.25 0.25,0.25 0 0 0 0.25,-0.25 z m -48,0.441406 -0.5,0.660157 v 2.484374 l 0.5,-0.660156 z m 40,0.183594 -0.5,0.660156 v 2.486328 l 0.5,-0.660156 z m 2,0.671875 -0.5,0.660156 v 2.486328 l 0.5,-0.660156 z m -40.320313,0.238281 -0.179687,0.236328 v 2.486329 l 0.179687,-0.236329 z m -7.6796872,0.201172 -0.5,0.660156 v 2.484375 l 0.5,-0.660156 z m 50.0000002,0.234375 -0.5,0.660156 v 2.482422 l 0.5,-0.660156 z m -48.0000002,0.439453 -0.5,0.660157 v 2.484374 l 0.5,-0.660156 z m 50.0000002,0.230469 -0.5,0.660156 v 10.31836 a 0.25,0.25 0 0 0 0.25,0.25 0.25,0.25 0 0 0 0.25,-0.25 z m -48,0.441406 -0.5,0.660156 v 2.484376 l 0.5,-0.660157 z m 40,0.183594 -0.5,0.660156 v 2.486328 l 0.5,-0.660156 z m -38,0.486328 -0.5,0.660156 v 2.486328 l 0.5,-0.660156 z m 40,0.185547 -0.5,0.660156 v 2.486328 l 0.5,-0.660156 z m 2,0.673828 -0.5,0.660156 v 2.482422 l 0.5,-0.660156 z m -40.320313,0.236328 -0.179687,0.236328 v 2.486329 l 0.5,-0.660157 v -1.490234 h -0.320313 z m -7.6796872,0.203125 -0.5,0.660156 v 2.484376 l 0.5,-0.660157 z m 50.0000002,0.232422 -0.5,0.660156 v 7.675782 a 0.25,0.25 0 0 0 0.25,0.25 0.25,0.25 0 0 0 0.25,-0.25 z m -40.244141,0.136719 -0.255859,0.337891 v 2.484374 l 0.5,-0.662109 v -2.160156 z m 1.744141,0 v 0.179687 l 0.136718,-0.179687 z m 2,0 v 0.851562 l 0.5,-0.660156 v -0.191406 z m 2,0 v 1.525391 l 0.5,-0.660157 v -0.865234 z m 2,0 v 2.197265 l 0.5,-0.660156 v -1.537109 z m 2.289062,0 -0.289062,0.382812 v 2.484375 l 0.5,-0.660156 v -2.207031 z m 1.710938,0 v 0.226562 l 0.171875,-0.226562 z m 2,0 v 0.898437 l 0.5,-0.660156 v -0.238281 z m 2,0 v 1.570312 l 0.5,-0.660156 v -0.910156 z m 2,0 v 2.244141 l 0.5,-0.66211 v -1.582031 z m 2.326172,0 -0.326172,0.429687 v 2.486328 l 0.5,-0.660156 v -2.255859 z m 1.673828,0 v 0.275391 l 0.208984,-0.275391 z m 2,0 v 0.945312 l 0.5,-0.660156 v -0.285156 z m 2,0 v 1.617187 l 0.5,-0.660156 v -0.957031 z m 2,0 v 2.289062 l 0.5,-0.660156 v -1.628906 z m 2.361328,0 -0.361328,0.476562 v 2.484375 l 0.5,-0.660156 v -2.300781 z m 1.638672,0 v 0.320312 l 0.242187,-0.320312 z m -39.5000002,0.302734 -0.5,0.660157 v 2.484374 l 0.5,-0.660156 z m 10.0000002,0.04687 -0.5,0.660156 v 2.482422 l 0.5,-0.660156 z m 10,0.04492 -0.5,0.660156 v 2.486328 l 0.5,-0.660156 z m 10,0.04687 -0.5,0.660156 v 2.484375 l 0.5,-0.660156 z m 10,0.04492 -0.5,0.660156 v 2.486328 l 0.5,-0.660156 z m -38,0.488281 -0.5,0.660156 v 2.484376 l 0.5,-0.660157 z m 10,0.04492 -0.5,0.660156 v 2.488282 l 0.5,-0.66211 z m 10,0.04883 -0.5,0.660156 v 2.482422 l 0.5,-0.660156 z m 10,0.04492 -0.5,0.660156 v 2.484375 l 0.5,-0.660156 z m 10,0.04492 -0.5,0.660156 v 2.486328 l 0.5,-0.660156 z m -38,0.486328 -0.5,0.660156 v 2.486328 l 0.5,-0.660156 z m 10,0.04883 -0.5,0.660156 v 2.484376 l 0.5,-0.660157 z m 10,0.04492 -0.5,0.660156 v 2.486328 l 0.5,-0.660156 z m 10,0.04687 -0.5,0.660156 v 2.484375 l 0.5,-0.660156 z m 10,0.04687 -0.5,0.660156 v 2.484375 l 0.5,-0.660156 z m -38,0.486328 -0.5,0.660156 v 2.484376 l 0.5,-0.660157 z m 10,0.04492 -0.5,0.660156 v 2.484375 l 0.5,-0.660156 z m 10,0.04687 -0.5,0.660156 v 2.486329 l 0.5,-0.660157 z m 10,0.04687 -0.5,0.660156 V 41.9433 l 0.5,-0.660156 z m 10,0.04687 -0.5,0.660156 v 5.035157 a 0.25,0.25 0 0 0 0.25,0.25 0.25,0.25 0 0 0 0.25,-0.25 z m -48.0000002,0.439453 -0.5,0.660156 v 2.486329 l 0.5,-0.66211 z m 10.0000002,0.04687 -0.5,0.660157 v 2.482421 l 0.5,-0.660156 z m 10,0.04492 -0.5,0.660156 v 2.486329 l 0.5,-0.660157 z m 10,0.04687 -0.5,0.660156 v 2.484375 l 0.5,-0.660156 z m 10,0.04687 -0.5,0.660156 v 2.484375 l 0.5,-0.660156 z m -38.0000002,0.486328 -0.5,0.660157 v 2.484374 l 0.5,-0.660156 z m 10.0000002,0.04492 -0.5,0.660156 v 2.488282 l 0.5,-0.660157 z m 10,0.04883 -0.5,0.660157 v 2.482421 l 0.5,-0.660156 z m 10,0.04492 -0.5,0.660156 v 2.484375 l 0.5,-0.660156 z m 10,0.04492 -0.5,0.660156 v 2.486328 l 0.5,-0.660156 z m -38,0.486328 -0.5,0.660156 v 2.488282 l 0.5,-0.660157 z m 10,0.04883 -0.5,0.660157 v 2.484374 l 0.5,-0.660156 z m 10,0.04492 -0.5,0.660156 v 2.486329 l 0.5,-0.660157 z m 10,0.04687 -0.5,0.660156 v 2.484375 l 0.5,-0.660156 z m 10,0.04883 -0.5,0.660156 v 2.482422 l 0.5,-0.660156 z m -38,0.486328 -0.5,0.660157 v 2.482421 l 0.5,-0.660156 z m 10,0.04297 -0.5,0.660156 v 2.486329 l 0.5,-0.660157 z m 10,0.04687 -0.5,0.660156 v 2.486328 l 0.5,-0.660156 z m 10,0.04687 -0.5,0.662109 v 2.439454 a 0.25,0.25 0 0 0 0.0039,0.03906 l 0.496094,-0.654297 z m 10,0.04687 -0.5,0.660156 v 2.394532 a 0.25,0.25 0 0 0 0.25,0.25 0.25,0.25 0 0 0 0.25,-0.25 z m -38,0.486328 -0.5,0.660156 v 1.908204 a 0.25,0.25 0 0 0 0.246094,0.25 l 0.253906,-0.335938 z m 10,0.04687 -0.5,0.660157 v 1.861328 a 0.25,0.25 0 0 0 0.25,0.25 0.25,0.25 0 0 0 0.0332,-0.002 h 0.002 l 0.214844,-0.285156 z m 10,0.04492 -0.5,0.660156 v 1.816407 a 0.25,0.25 0 0 0 0.25,0.25 0.25,0.25 0 0 0 0.07617,-0.01172 l 0.173828,-0.228516 a 0.25,0.25 0 0 0 0,-0.002 0.25,0.25 0 0 0 0,-0.0078 z m 10,0.04687 -0.5,0.660156 v 1.769532 a 0.25,0.25 0 0 0 0.25,0.25 0.25,0.25 0 0 0 0.130859,-0.03711 l 0.109375,-0.144531 a 0.25,0.25 0 0 0 0.0098,-0.06836 z m -38.0000002,0.486328 -0.5,0.660156 v 1.283204 a 0.25,0.25 0 0 0 0.25,0.25 0.25,0.25 0 0 0 0.25,-0.25 z m 10.0000002,0.04687 -0.5,0.660157 v 1.236328 a 0.25,0.25 0 0 0 0.25,0.25 0.25,0.25 0 0 0 0.25,-0.25 z m 10,0.04687 -0.5,0.660156 v 1.189454 a 0.25,0.25 0 0 0 0.25,0.25 0.25,0.25 0 0 0 0.25,-0.25 z m 10,0.04492 -0.5,0.660156 v 1.144532 a 0.25,0.25 0 0 0 0.25,0.25 0.25,0.25 0 0 0 0.25,-0.25 z m 10,0.04687 -0.5,0.660156 v 1.097657 a 0.25,0.25 0 0 0 0.25,0.25 0.25,0.25 0 0 0 0.25,-0.25 z m -38.0000002,0.484375 -0.5,0.660156 v 0.613282 a 0.25,0.25 0 0 0 0.25,0.25 0.25,0.25 0 0 0 0.25,-0.25 z m 10.0000002,0.04883 -0.5,0.660156 v 0.564454 a 0.25,0.25 0 0 0 0.25,0.25 0.25,0.25 0 0 0 0.25,-0.25 z m 10,0.04687 -0.5,0.660157 v 0.517578 a 0.25,0.25 0 0 0 0.25,0.25 0.25,0.25 0 0 0 0.25,-0.25 z m 10,0.04492 -0.5,0.660156 v 0.472657 a 0.25,0.25 0 0 0 0.25,0.25 0.25,0.25 0 0 0 0.25,-0.25 z m 10,0.04883 -0.5,0.660157 v 0.423828 a 0.25,0.25 0 0 0 0.25,0.25 0.25,0.25 0 0 0 0.25,-0.25 z m -38,0.486328 -0.494141,0.650391 a 0.25,0.25 0 0 0 0,0.002 0.25,0.25 0 0 0 0.244141,0.195313 0.25,0.25 0 0 0 0.25,-0.25 z m 10,0.04297 -0.484375,0.640625 a 0.25,0.25 0 0 0 0.234375,0.164063 0.25,0.25 0 0 0 0.25,-0.25 z m 10,0.04687 -0.470703,0.623047 a 0.25,0.25 0 0 0 0.220703,0.134766 0.25,0.25 0 0 0 0.25,-0.25 z m 10,0.04883 -0.455078,0.601563 a 0.25,0.25 0 0 0 0.205078,0.107422 0.25,0.25 0 0 0 0.25,-0.25 z m 10,0.04492 -0.4375,0.578125 a 0.25,0.25 0 0 0 0.1875,0.08594 0.25,0.25 0 0 0 0.25,-0.25 z m -38.023438,0.517578 -0.06641,0.08789 a 0.25,0.25 0 0 0 0.06641,-0.08789 z" /><path
     id="rect16"
     style="fill:#000000;fill-opacity:1;stroke-width:3;stroke-linecap:round;stroke-linejoin:round;stroke-miterlimit:0;paint-order:markers stroke fill"
     d="M 0,0 V 64 H 128 V 0 Z M 13.132812,6.296875 H 55.859375 V 37.648438 H 13.132812 Z" /><path
     id="rect2"
     style="fill:#f2fbba;fill-opacity:1;stroke:none;stroke-width:1.88976;stroke-linecap:square;stroke-linejoin:round;stroke-miterlimit:0;paint-order:markers stroke fill"
     d="M 10,2 V 3 H 9 v 39 h 1 v 1 h 48 v -1 h 1 V 3 H 58 V 2 Z m 3,2 H 27 V 5 H 13 V 6 H 12 V 17 H 11 V 6 h 1 V 5 h 1 z m 1,2 h 40 v 1 h 1 v 30 h -1 v 1 H 14 V 37 H 13 V 7 h 1 z m 37,33 h 3 v 2 h -3 z m -32,5 v 1 h -2 v 1 H 2 v 1 H 1 v 14 h 32 v 1 H 2 v 1 h 63 v -1 -1 h 1 V 47 H 65 V 46 H 51 V 45 H 49 V 44 Z M 7,47 h 1 v 4 h 1 v -4 h 1 v 4 h 1 v -4 h 1 v 4 h 1 v -4 h 1 v 4 h 1 v -4 h 1 v 4 h 1 v 1 h -1 v -1 h -1 v 1 h -1 v -1 h -1 v 1 h -1 v -1 h -1 v 1 H 10 V 51 H 9 v 1 H 8 V 51 H 7 Z m 11,0 h 1 v 1 h -1 z m 2,0 h 1 v 4 h 1 v -4 h 1 v 4 h 1 v -4 h 1 v 4 h 1 v 1 h -1 v -1 h -1 v 1 h -1 v -1 h -1 v 1 h -1 v -1 h -1 z m 7,0 h 1 v 4 h 1 v 1 h -1 v -1 h -1 z m 2,0 h 1 v 1 h -1 z m 2,0 h 1 v 4 h 1 v -4 h 1 v 4 h 1 v -4 h 1 v 4 h 1 v 1 h -1 v -1 h -1 v 1 h -1 v -1 h -1 v 1 h -1 v -1 h -1 z m 7,0 h 1 v 4 h 1 v -2 h 1 v 2 h -1 v 1 h -1 v -1 h -1 z m 2,0 h 1 v 1 h -1 z m 2,0 h 1 v 4 h 1 v -4 h 1 v 4 h 1 v -4 h 1 v 4 h 1 v -1 h 1 v 1 h 1 v 1 h -1 v -1 h -1 v 1 h -1 v -1 h -1 v 1 h -1 v -1 h -1 v 1 h -1 v -1 h -1 z m 6,0 h 1 v 1 h -1 z m 3,0 h 1 v 4 h 1 v -4 h 1 v 4 h 1 v -4 h 1 v 4 h 1 v -4 h 1 v 4 h 1 v 1 h -1 v -1 h -1 v 1 h -1 v -1 h -1 v 1 h -1 v -1 h -1 v 1 h -1 v -1 h -1 z m 11,1 h 2 v 1 h 1 v 2 h -1 v 1 h -2 v -1 h -1 v -2 h 1 z m 0,1 v 1 1 H 62.476562 64 v -1 h -1.523438 v -1 z m -44,0 h 1 v 1 h -1 z m 11,0 h 1 v 1 H 29 Z M 5,55 h 15 v 2 H 5 Z m 17,0 h 1 v 1 h 1 v 1 h -2 z m 16,6 h 7 v 1 h -7 z m 8,0 h 1 v 1 h -1 z m 2,0 h 1 v 1 h -1 z m 3,0 h 13 v 1 H 51 Z" /></svg>
