<?xml version="1.0" encoding="UTF-8" standalone="no"?>
<!-- Created with Inkscape (http://www.inkscape.org/) -->

<svg
   version="1.1"
   id="svg1"
   width="128"
   height="64"
   viewBox="0 0 128 64"
   xml:space="preserve"
   xmlns="http://www.w3.org/2000/svg"
   xmlns:svg="http://www.w3.org/2000/svg"><defs
     id="defs1" /><path
     id="rect2"
     style="fill:#f2fbba;fill-opacity:1;stroke:none;stroke-width:1.88976;stroke-linecap:square;stroke-linejoin:round;stroke-miterlimit:0;paint-order:markers stroke fill"
     d="M 10,2 V 3 H 9 v 39 h 1 v 1 h 48 v -1 h 1 V 3 H 58 V 2 Z m 3,2 H 27 V 5 H 13 V 6 H 12 V 17 H 11 V 6 h 1 V 5 h 1 z m 1,2 h 40 v 1 h 1 v 30 h -1 v 1 H 14 V 37 H 13 V 7 h 1 z m 37,33 h 3 v 2 h -3 z m -32,5 v 1 h -2 v 1 H 2 v 1 H 1 v 14 h 32 v 1 H 2 v 1 h 63 v -1 -1 h 1 V 47 H 65 V 46 H 51 V 45 H 49 V 44 Z M 7,47 h 1 v 4 h 1 v -4 h 1 v 4 h 1 v -4 h 1 v 4 h 1 v -4 h 1 v 4 h 1 v -4 h 1 v 4 h 1 v 1 h -1 v -1 h -1 v 1 h -1 v -1 h -1 v 1 h -1 v -1 h -1 v 1 H 10 V 51 H 9 v 1 H 8 V 51 H 7 Z m 11,0 h 1 v 1 h -1 z m 2,0 h 1 v 4 h 1 v -4 h 1 v 4 h 1 v -4 h 1 v 4 h 1 v 1 h -1 v -1 h -1 v 1 h -1 v -1 h -1 v 1 h -1 v -1 h -1 z m 7,0 h 1 v 4 h 1 v 1 h -1 v -1 h -1 z m 2,0 h 1 v 1 h -1 z m 2,0 h 1 v 4 h 1 v -4 h 1 v 4 h 1 v -4 h 1 v 4 h 1 v 1 h -1 v -1 h -1 v 1 h -1 v -1 h -1 v 1 h -1 v -1 h -1 z m 7,0 h 1 v 4 h 1 v -2 h 1 v 2 h -1 v 1 h -1 v -1 h -1 z m 2,0 h 1 v 1 h -1 z m 2,0 h 1 v 4 h 1 v -4 h 1 v 4 h 1 v -4 h 1 v 4 h 1 v -1 h 1 v 1 h 1 v 1 h -1 v -1 h -1 v 1 h -1 v -1 h -1 v 1 h -1 v -1 h -1 v 1 h -1 v -1 h -1 z m 6,0 h 1 v 1 h -1 z m 3,0 h 1 v 4 h 1 v -4 h 1 v 4 h 1 v -4 h 1 v 4 h 1 v -4 h 1 v 4 h 1 v 1 h -1 v -1 h -1 v 1 h -1 v -1 h -1 v 1 h -1 v -1 h -1 v 1 h -1 v -1 h -1 z m 11,1 h 2 v 1 h 1 v 2 h -1 v 1 h -2 v -1 h -1 v -2 h 1 z m 0,1 v 1 1 H 62.476562 64 v -1 h -1.523438 v -1 z m -44,0 h 1 v 1 h -1 z m 11,0 h 1 v 1 H 29 Z M 5,55 h 15 v 2 H 5 Z m 17,0 h 1 v 1 h 1 v 1 h -2 z m 16,6 h 7 v 1 h -7 z m 8,0 h 1 v 1 h -1 z m 2,0 h 1 v 1 h -1 z m 3,0 h 13 v 1 H 51 Z" /></svg>
