<?xml version="1.0" encoding="UTF-8" standalone="no"?>
<!-- Generator: Adobe Illustrator 24.1.2, SVG Export Plug-In . SVG Version: 6.00 Build 0)  -->

<svg
   version="1.1"
   id="ice_x5F_pellets"
   x="0px"
   y="0px"
   viewBox="0 0 576 576"
   enable-background="new 0 0 24 24"
   xml:space="preserve"
   width="576"
   height="576"
   xmlns="http://www.w3.org/2000/svg"
   xmlns:svg="http://www.w3.org/2000/svg"><defs
   id="defs2" />
<rect
   style="fill:#050000;fill-opacity:1;stroke:none;stroke-width:0.379916;stroke-linecap:round;stroke-linejoin:round;stroke-miterlimit:0"
   id="rect2"
   width="24"
   height="24"
   x="0"
   y="0" /><rect
   fill="none"
   width="24"
   height="24"
   id="rect1"
   x="0"
   y="0" />
<path
   fill-rule="evenodd"
   clip-rule="evenodd"
   d="m 13.5059,20.9617 -1.531,-3.696 -3.695,1.531 1.531,3.696 z m -3.998,-7.3751 -1.848,0.765 0.766,1.848 1.847,-0.7659 z m -4.71,1.734 -1.848,0.7661 0.766,1.847 1.847,-0.764 z m 12.692,-1.8309 -1.848,0.765 0.765,1.848 1.848,-0.765 z"
   id="path1"
   style="fill:#ffffff;fill-opacity:1" />
<path
   fill-rule="evenodd"
   clip-rule="evenodd"
   d="m 20.4719,4.9827 c 0.106,-0.255 0.4,-0.3769 0.654,-0.27 0.255,0.105 0.376,0.3981 0.27,0.6531 l -2.679,6.468 c -0.08,0.192 -0.266,0.3079 -0.462,0.3079 -0.064,0 -0.129,-0.0109 -0.191,-0.038 -0.255,-0.105 -0.376,-0.3981 -0.271,-0.6531 z m -6.18,-2.9439 c 0.255,0.105 0.376,0.398 0.27,0.6529 l -3.827,9.2381 c -0.079,0.1929 -0.266,0.309 -0.462,0.309 -0.064,0 -0.129,-0.012 -0.191,-0.0381 -0.255,-0.1059 -0.376,-0.3979 -0.271,-0.6529 l 3.827,-9.2389 c 0.106,-0.2562 0.4,-0.3781 0.654,-0.2701 z m -6.129,3.852 c 0.106,-0.255 0.4,-0.3772 0.653,-0.27 0.255,0.105 0.376,0.3979 0.271,0.6529 l -3.062,7.391 c -0.079,0.192 -0.266,0.3081 -0.462,0.3081 -0.064,0 -0.129,-0.0111 -0.191,-0.0381 -0.255,-0.105 -0.376,-0.3979 -0.271,-0.6529 z m 7.943,0.0968 c 0.105,-0.255 0.399,-0.3769 0.653,-0.27 0.255,0.105 0.376,0.3981 0.271,0.6531 l -3.827,9.2389 c -0.08,0.1931 -0.266,0.309 -0.462,0.309 -0.064,0 -0.129,-0.012 -0.191,-0.038 -0.255,-0.1061 -0.376,-0.399 -0.271,-0.654 z"
   id="path2"
   style="fill:#ffffff;fill-opacity:1" />
</svg>
