<?xml version="1.0" encoding="UTF-8" standalone="no"?>
<!-- Created with Inkscape (http://www.inkscape.org/) -->

<svg
   width="8.9958334mm"
   height="8.9958334mm"
   viewBox="0 0 8.9958335 8.9958335"
   version="1.1"
   id="svg1"
   xml:space="preserve"
   xmlns="http://www.w3.org/2000/svg"
   xmlns:svg="http://www.w3.org/2000/svg"><defs
     id="defs1" /><rect
     style="fill:#000000;fill-opacity:1;stroke-width:0.76729;stroke-linecap:round;stroke-linejoin:round;stroke-miterlimit:0"
     id="rect2"
     width="8.9958334"
     height="8.9958334"
     x="-1.110223e-16"
     y="1.110223e-16" /><g
     id="g124"
     transform="translate(-55.115007,20.522719)"><path
       d="m 60.722317,-14.366955 -0.05307,0.509441 0.50944,-0.14328 0.03714,0.244106 -0.488214,0.03979 0.315748,0.419231 -0.228185,0.124706 -0.225534,-0.464333 -0.204306,0.464333 -0.236148,-0.124702 0.310442,-0.419227 -0.482907,-0.0398 0.03714,-0.244106 0.504133,0.14328 -0.05572,-0.509441 z"
       id="path119"
       style="font-size:1.76389px;line-height:1.1;font-family:System-ui;-inkscape-font-specification:System-ui;letter-spacing:2.13519px;fill:#ffffff;stroke-width:0.300851;stroke-linecap:round;stroke-linejoin:round;stroke-miterlimit:0"
       aria-label="*" /><path
       d="m 58.076485,-14.366955 -0.05307,0.509441 0.50944,-0.14328 0.03714,0.244106 -0.488214,0.03979 0.315748,0.419231 -0.228185,0.124706 -0.225534,-0.464333 -0.204306,0.464333 -0.236148,-0.124702 0.310442,-0.419227 -0.482907,-0.0398 0.03714,-0.244106 0.504133,0.14328 -0.05572,-0.509441 z"
       id="path120"
       style="font-size:1.76389px;line-height:1.1;font-family:System-ui;-inkscape-font-specification:System-ui;letter-spacing:2.13519px;fill:#ffffff;stroke-width:0.300851;stroke-linecap:round;stroke-linejoin:round;stroke-miterlimit:0"
       aria-label="*" /><path
       style="fill:none;fill-opacity:1;stroke:#ffffff;stroke-width:0.2;stroke-linecap:round;stroke-linejoin:round;stroke-miterlimit:0;stroke-dasharray:none;stroke-opacity:1"
       d="m 56.563889,-13.233045 1.549257,-3.96396"
       id="path121" /><path
       style="fill:none;fill-opacity:1;stroke:#ffffff;stroke-width:0.2;stroke-linecap:round;stroke-linejoin:round;stroke-miterlimit:0;stroke-dasharray:none;stroke-opacity:1"
       d="m 59.209724,-13.233045 1.549257,-3.96396"
       id="path122" /><path
       style="fill:none;fill-opacity:1;stroke:#ffffff;stroke-width:0.2;stroke-linecap:round;stroke-linejoin:round;stroke-miterlimit:0;stroke-dasharray:none;stroke-opacity:1"
       d="m 58.466866,-14.8526 1.549257,-3.96396"
       id="path123" /><path
       style="fill:none;fill-opacity:1;stroke:#ffffff;stroke-width:0.2;stroke-linecap:round;stroke-linejoin:round;stroke-miterlimit:0;stroke-dasharray:none;stroke-opacity:1"
       d="m 61.112701,-14.8526 1.549257,-3.96396"
       id="path124" /></g></svg>
