<?xml version="1.0" encoding="UTF-8" standalone="no"?>
<!-- Created with Inkscape (http://www.inkscape.org/) -->

<svg
   width="8.9958334mm"
   height="8.9958334mm"
   viewBox="0 0 8.9958335 8.9958335"
   version="1.1"
   id="svg1"
   xml:space="preserve"
   xmlns="http://www.w3.org/2000/svg"
   xmlns:svg="http://www.w3.org/2000/svg"><defs
     id="defs1" /><rect
     style="fill:#000000;fill-opacity:1;stroke-width:0.76729;stroke-linecap:round;stroke-linejoin:round;stroke-miterlimit:0"
     id="rect2"
     width="8.9958334"
     height="8.9958334"
     x="0"
     y="0" /><path
     style="baseline-shift:baseline;display:inline;overflow:visible;opacity:1;vector-effect:none;fill:#ffffff;stroke-linecap:round;stroke-linejoin:round;stroke-miterlimit:0;enable-background:accumulate;stop-color:#000000;stop-opacity:1"
     d="M 3.8320313,0.99609375 C 2.4310447,0.99624604 1.2931199,2.1341697 1.2929687,3.5351563 1.2938274,3.7626958 1.3294932,3.987955 1.390625,4.2070312 1.2354395,4.4095533 1.1259091,4.647717 1.125,4.9042969 c 3.9e-6,0.1846121 0.045108,0.3667521 0.1289062,0.53125 a 0.110011,0.110011 0 0 0 0.097656,0.060547 H 7.4648437 A 0.110011,0.110011 0 0 0 7.5527344,5.453125 C 7.7584759,5.1809974 7.8710285,4.848962 7.8710937,4.5078125 7.8711091,3.6432913 7.1672555,2.9394378 6.3027344,2.9394531 6.290469,2.9394427 6.2778858,2.9411289 6.265625,2.9414063 5.9855713,1.8150559 5.0020673,0.99592297 3.8320313,0.99609375 Z m 0,0.22070315 C 4.9359717,1.2166357 5.8858711,1.9923401 6.1054687,3.0742188 A 0.110011,0.110011 0 0 0 6.21875,3.1621094 c 0.027682,-0.00169 0.056251,-0.00198 0.083984,-0.00195 C 7.0483555,3.1601462 7.6504035,3.762194 7.6503902,4.5078156 7.6503377,4.784845 7.5511035,5.04916 7.3925781,5.2753906 H 1.4355469 C 1.3849002,5.1572806 1.3457059,5.0332443 1.3457031,4.9042969 1.3465179,4.6743344 1.4300953,4.4538735 1.5820312,4.28125 A 0.110011,0.110011 0 0 0 1.6054687,4.1777344 C 1.5444126,3.9690136 1.5125394,3.7526225 1.5117187,3.5351563 1.5118571,2.2530497 2.5499247,1.2169362 3.8320313,1.2167969 Z"
     id="path9" /><path
     id="path76"
     style="font-size:2.66249px;line-height:1.1;font-family:System-ui;-inkscape-font-specification:System-ui;letter-spacing:3.22295px;baseline-shift:baseline;display:inline;overflow:visible;vector-effect:none;fill:#ffffff;stroke-linecap:round;stroke-linejoin:round;stroke-miterlimit:0;enable-background:accumulate;stop-color:#000000"
     d="m 4.3625298,6.0283073 c -0.08963,6.96e-4 -0.158918,0.07888 -0.148828,0.167949 l 0.03152,0.289388 -0.290939,-0.08423 c -0.08732,-0.02424 -0.176163,0.03338 -0.189652,0.12299 l -0.03721,0.244429 c -0.01346,0.08667 0.04952,0.166528 0.136942,0.173633 l 0.212907,0.01757 -0.150378,0.203089 c -0.05426,0.07474 -0.02929,0.180237 0.05271,0.222725 l 0.236161,0.125057 c 0.07752,0.0414 0.173889,0.0081 0.20929,-0.07235 l 0.07183,-0.165881 0.08423,0.171565 c 0.03761,0.07797 0.132941,0.108407 0.208772,0.06666 l 0.22841,-0.125057 c 0.08219,-0.04376 0.105552,-0.150756 0.04909,-0.224792 l -0.152446,-0.201022 0.217041,-0.01757 c 0.08721,-0.0074 0.149884,-0.08715 0.136426,-0.173633 l -0.03721,-0.244429 c -0.01353,-0.08934 -0.101987,-0.14686 -0.189136,-0.12299 l -0.297139,0.08372 0.02945,-0.290938 c 0.0088,-0.0889 -0.06104,-0.165975 -0.150378,-0.165882 z m 0.132809,0.709001 c 0.01651,0.02703 0.04109,0.04818 0.07028,0.06046 -0.01101,0.01525 -0.01907,0.03243 -0.02377,0.05064 -0.03039,-0.0099 -0.06315,-0.0099 -0.09354,0 -0.0043,-0.0189 -0.01219,-0.03679 -0.02325,-0.05271 0.0289,-0.01174 0.05345,-0.03213 0.07028,-0.05839 z" /></svg>
