<?xml version="1.0" encoding="UTF-8" standalone="no"?>
<!-- Created with Inkscape (http://www.inkscape.org/) -->

<svg
   width="8.9958334mm"
   height="8.9958334mm"
   viewBox="0 0 8.9958335 8.9958335"
   version="1.1"
   id="svg1"
   xml:space="preserve"
   xmlns="http://www.w3.org/2000/svg"
   xmlns:svg="http://www.w3.org/2000/svg"><defs
     id="defs1" /><rect
     style="fill:#000000;fill-opacity:1;stroke-width:0.76729;stroke-linecap:round;stroke-linejoin:round;stroke-miterlimit:0"
     id="rect2"
     width="8.9958334"
     height="8.9958334"
     x="0"
     y="0" /><path
     style="baseline-shift:baseline;display:inline;overflow:visible;opacity:1;vector-effect:none;fill:#ffffff;stroke-linecap:round;stroke-linejoin:round;stroke-miterlimit:0;enable-background:accumulate;stop-color:#000000;stop-opacity:1"
     d="M 3.8320313,0.99609375 C 2.4310447,0.99624604 1.2931199,2.1341697 1.2929687,3.5351563 1.2938274,3.7626958 1.3294932,3.987955 1.390625,4.2070312 1.2354395,4.4095533 1.1259091,4.647717 1.125,4.9042969 c 3.9e-6,0.1846121 0.045108,0.3667521 0.1289062,0.53125 a 0.110011,0.110011 0 0 0 0.097656,0.060547 H 7.4648437 A 0.110011,0.110011 0 0 0 7.5527344,5.453125 C 7.7584759,5.1809974 7.8710285,4.848962 7.8710937,4.5078125 7.8711091,3.6432913 7.1672555,2.9394378 6.3027344,2.9394531 6.290469,2.9394427 6.2778858,2.9411289 6.265625,2.9414063 5.9855713,1.8150559 5.0020673,0.99592297 3.8320313,0.99609375 Z m 0,0.22070315 C 4.9359717,1.2166357 5.8858711,1.9923401 6.1054687,3.0742188 A 0.110011,0.110011 0 0 0 6.21875,3.1621094 c 0.027682,-0.00169 0.056251,-0.00198 0.083984,-0.00195 C 7.0483555,3.1601462 7.6504035,3.762194 7.6503902,4.5078156 7.6503377,4.784845 7.5511035,5.04916 7.3925781,5.2753906 H 1.4355469 C 1.3849002,5.1572806 1.3457059,5.0332443 1.3457031,4.9042969 1.3465179,4.6743344 1.4300953,4.4538735 1.5820312,4.28125 A 0.110011,0.110011 0 0 0 1.6054687,4.1777344 C 1.5444126,3.9690136 1.5125394,3.7526225 1.5117187,3.5351563 1.5118571,2.2530497 2.5499247,1.2169362 3.8320313,1.2167969 Z"
     id="path9" /><path
     id="path52"
     style="baseline-shift:baseline;display:inline;overflow:visible;vector-effect:none;fill:#ffffff;stroke-linecap:round;stroke-linejoin:round;stroke-miterlimit:0;enable-background:accumulate;stop-color:#000000"
     d="m 2.040794,5.918954 a 0.05,0.05 0 0 0 -0.03979,0.02015 L 1.624283,6.423312 a 0.05,0.05 0 0 0 0.0078,0.07028 0.05,0.05 0 0 0 0.07028,-0.0078 L 2.079084,5.999516 a 0.05,0.05 0 0 0 -0.0078,-0.07028 0.05,0.05 0 0 0 -0.03049,-0.01034 z m 5.29115,0 a 0.05,0.05 0 0 0 -0.03979,0.02015 L 6.914916,6.423312 a 0.05,0.05 0 0 0 0.0078,0.07028 0.05,0.05 0 0 0 0.0708,-0.0078 L 7.372304,5.999516 a 0.05,0.05 0 0 0 -0.0098,-0.07028 0.05,0.05 0 0 0 -0.03049,-0.01034 z m -4.008541,0.02015 -0.377238,0.484208 0.07855,0.06253 0.378788,-0.486276 z m 1.32395,0 -0.378788,0.484208 0.0801,0.06253 0.377238,-0.486276 z m 1.3224,0 -0.376721,0.484208 0.07803,0.06253 0.376721,-0.486276 z" /></svg>
