<?xml version="1.0" encoding="UTF-8" standalone="no"?>
<!-- Created with Inkscape (http://www.inkscape.org/) -->

<svg
   width="8.9958334mm"
   height="8.9958334mm"
   viewBox="0 0 8.9958335 8.9958335"
   version="1.1"
   id="svg1"
   xml:space="preserve"
   xmlns="http://www.w3.org/2000/svg"
   xmlns:svg="http://www.w3.org/2000/svg"><defs
     id="defs1" /><rect
     style="fill:#000000;fill-opacity:1;stroke-width:0.76729;stroke-linecap:round;stroke-linejoin:round;stroke-miterlimit:0"
     id="rect2"
     width="8.9958334"
     height="8.9958334"
     x="-1.110223e-16"
     y="1.110223e-16" /><path
     id="path128"
     style="baseline-shift:baseline;display:inline;overflow:visible;opacity:1;vector-effect:none;fill:#ffffff;fill-opacity:1;stroke-linecap:round;stroke-linejoin:round;stroke-miterlimit:0;enable-background:accumulate;stop-color:#000000;stop-opacity:1"
     d="m 4.04704,0.92033871 c -1.395583,1.5e-4 -2.528894,1.13345999 -2.529045,2.52903999 -7e-6,6.9e-4 -7e-6,10e-4 0,0.002 8.6e-4,0.22788 0.03612,0.45247 0.09767,0.67179 -0.155989,0.20158 -0.263159,0.43933 -0.264067,0.69557 -7e-6,6.9e-4 -7e-6,0.001 0,0.002 10e-7,0.0408 0.0024,0.0812 0.0067,0.12144 0.06425,-0.0196 0.129851,-0.0388 0.195854,-0.0574 -0.002,-0.0213 -0.0031,-0.043 -0.0031,-0.0646 8.24e-4,-0.23238 0.08676,-0.45602 0.240296,-0.63045 0.02216,-0.026 0.02956,-0.0614 0.01964,-0.0941 -0.06132,-0.20962 -0.09115,-0.42806 -0.09198,-0.64647 1.39e-4,-1.28751 1.040513,-2.32788 2.328023,-2.32802 1.108636,-1.6e-4 2.062533,0.77904 2.283065,1.86552 0.0098,0.0489 0.05413,0.083 0.103869,0.0801 0.02789,-0.002 0.05578,-0.002 0.08372,-0.002 0.751026,-1e-5 1.357553,0.606 1.35754,1.35702 -3.9e-5,0.20101 -0.04986,0.39579 -0.137459,0.57413 0.06993,0.0226 0.137261,0.0453 0.201021,0.0672 0.09018,-0.2003 0.137417,-0.41853 0.137459,-0.64079 1.5e-5,-0.85912 -0.699444,-1.55703 -1.558561,-1.55701 -0.01373,-1e-5 -0.02709,-3.5e-4 -0.04082,0 C 6.201262,1.7383487 5.215809,0.92003871 4.047039,0.92020871 Z M 6.4841,5.6569987 c -0.393991,0 -0.731102,0.28835 -1.056266,0.552938 -0.249675,0.203158 -0.492459,0.392724 -0.72347,0.469738 l -0.0894,0.228927 c 0.344727,-0.04904 0.64685,-0.306046 0.939477,-0.544153 0.325164,-0.264584 0.638672,-0.50591 0.929659,-0.50591 0.0094,0 0.0192,2.9e-4 0.02894,5.1e-4 l 0.07751,-0.19843 c -0.03646,-0.002 -0.07206,-0.004 -0.106454,-0.004 z m -4.158919,0.01 c -0.339136,0.0337 -0.744942,0.14786 -1.092956,0.25993 -0.41464601,0.13354 -0.74414101,0.267687 -0.74414101,0.267687 a 0.1,0.1 0 0 0 -0.05478,0.130741 0.1,0.1 0 0 0 0.131258,0.05478 c 0,0 0.321194,-0.130951 0.72812101,-0.262 0.303982,-0.0979 0.65742,-0.194168 0.948779,-0.236678 z m 0.607198,0.0951 -0.07493,0.19172 c 0.188629,0.0944 0.38397,0.248109 0.583944,0.410827 0.185973,0.151324 0.37592,0.310242 0.578259,0.418579 l 0.07545,-0.192236 C 3.924168,6.4957787 3.747755,6.3563967 3.568002,6.2101337 3.364435,6.0444887 3.15634,5.8697887 2.932382,5.7620987 Z m 4.262272,10e-4 -0.07441,0.19017 c 0.195929,0.0466 0.398453,0.10544 0.58291,0.164847 0.406928,0.131049 0.728638,0.262 0.728638,0.262 a 0.1,0.1 0 0 0 0.1307406,-0.05478 0.1,0.1 0 0 0 -0.05478,-0.130741 c 0,0 -0.329494,-0.134146 -0.74414,-0.267686 -0.179963,-0.058 -0.375309,-0.1162 -0.5689586,-0.16381 z M 2.596482,6.6198947 2.44042,7.0188367 c 0.02486,-0.0014 0.04875,-0.0021 0.07131,-0.0021 0.239486,0 0.541966,0.219625 0.867131,0.484208 0.08906,0.07247 0.179793,0.148155 0.273885,0.220141 l 0.153479,-0.39119 C 3.748635,7.2856557 3.68984,7.2386357 3.630525,7.1903687 3.326287,6.9428127 3.001864,6.6557667 2.596479,6.6198617 Z m 4.251937,0.02791 -0.150378,0.384989 c 0.286024,0.03764 0.657509,0.135921 0.973584,0.237712 0.403069,0.129806 0.722953,0.259932 0.722953,0.259932 a 0.2,0.2 0 0 0 0.2594156,-0.109554 0.2,0.2 0 0 0 -0.109038,-0.261482 c 0,0 -0.3318346,-0.134973 -0.7503406,-0.269751 -0.297183,-0.09571 -0.634544,-0.193285 -0.946196,-0.241846 z m -0.648022,0.01033 c -0.315485,0.09348 -0.582316,0.326586 -0.835091,0.532267 -0.325165,0.264583 -0.627645,0.484724 -0.867131,0.484725 -0.05389,0 -0.111194,-0.01123 -0.171049,-0.03152 l -0.147795,0.378788 c 0.100979,0.03358 0.206776,0.05323 0.318844,0.05323 0.445494,0 0.79363,-0.310058 1.118795,-0.574642 0.124372,-0.1012 0.245222,-0.195613 0.360701,-0.273885 z m -4.275191,0.03101 c -0.245218,0.05265 -0.496283,0.127175 -0.723987,0.200505 -0.41850501,0.134778 -0.75034201,0.26975 -0.75034201,0.269751 a 0.2,0.2 0 0 0 -0.109037,0.261482 0.2,0.2 0 0 0 0.259415,0.109554 c 0,0 0.319886,-0.130126 0.72295401,-0.259932 0.134271,-0.04324 0.278689,-0.08594 0.422196,-0.123507 z" /></svg>
