<?xml version="1.0" encoding="UTF-8" standalone="no"?>
<!-- Created with Inkscape (http://www.inkscape.org/) -->

<svg
   width="127.99999"
   height="63.999996"
   viewBox="0 0 33.866664 16.933332"
   version="1.1"
   id="svg1"
   sodipodi:docname="lymonslogo.svg"
   inkscape:version="1.4.2 (1:1.4.2+202505120737+ebf0e940d0)"
   xmlns:inkscape="http://www.inkscape.org/namespaces/inkscape"
   xmlns:sodipodi="http://sodipodi.sourceforge.net/DTD/sodipodi-0.dtd"
   xmlns:xlink="http://www.w3.org/1999/xlink"
   xmlns="http://www.w3.org/2000/svg"
   xmlns:svg="http://www.w3.org/2000/svg">
  <sodipodi:namedview
     id="namedview1"
     pagecolor="#ffffff"
     bordercolor="#666666"
     borderopacity="1.0"
     inkscape:showpageshadow="2"
     inkscape:pageopacity="0.0"
     inkscape:pagecheckerboard="0"
     inkscape:deskcolor="#d1d1d1"
     inkscape:zoom="6.4062504"
     inkscape:cx="63.999996"
     inkscape:cy="31.921949"
     inkscape:window-width="1920"
     inkscape:window-height="1011"
     inkscape:window-x="0"
     inkscape:window-y="32"
     inkscape:window-maximized="1"
     inkscape:current-layer="svg1" />
  <defs
     id="defs1">
    <pattern
       inkscape:collect="always"
       xlink:href="#Wave"
       preserveAspectRatio="xMidYMid"
       id="pattern11"
       patternTransform="scale(0.1)"
       x="0"
       y="0" />
    <pattern
       patternUnits="userSpaceOnUse"
       width="24"
       height="10"
       preserveAspectRatio="xMidYMid"
       id="Wave"
       style="fill:#000000"
       x="0"
       y="0"
       inkscape:collect="always"
       inkscape:isstock="true"
       inkscape:label="Wave">
      <g
         id="wave_g"
         style="display:inline">
        <path
           d="M 12,-2 C 9.1666695,-2 7.1679672,-0.56445187 5.4179687,0.68554687 3.6679703,1.9355456 2.1666645,3 0,3 V 5 C 2.8333305,5 4.8320328,3.5644519 6.5820312,2.3144531 8.3320297,1.0644544 9.8333355,0 12,0 14.166665,0 15.667971,1.0644544 17.417969,2.3144531 19.167967,3.5644519 21.166669,5 24,5 V 3 C 21.833335,3 20.332029,1.9355456 18.582031,0.68554687 16.832033,-0.56445189 14.833331,-2 12,-2 Z"
           id="path3" />
        <path
           d="M 12,3 C 9.1666695,3 7.1679672,4.4355481 5.4179687,5.6855469 3.6679703,6.9355456 2.1666645,8 0,8 v 2 C 2.8333305,10 4.8320328,8.5644519 6.5820312,7.3144531 8.3320297,6.0644544 9.8333355,5 12,5 14.166665,5 15.667971,6.0644544 17.417969,7.3144531 19.167967,8.5644519 21.166669,10 24,10 V 8 C 21.833335,8 20.332029,6.9355456 18.582031,5.6855469 16.832033,4.4355481 14.833331,3 12,3 Z"
           id="path4" />
        <path
           d="M 12,8 C 9.1666695,8 7.1679672,9.4355481 5.4179687,10.685547 3.6679703,11.935546 2.1666645,13 0,13 v 2 C 2.8333305,15 4.8320328,13.564452 6.5820312,12.314453 8.3320297,11.064454 9.8333355,10 12,10 c 2.166665,0 3.667971,1.064454 5.417969,2.314453 C 19.167967,13.564452 21.166669,15 24,15 V 13 C 21.833335,13 20.332029,11.935546 18.582031,10.685547 16.832033,9.4355481 14.833331,8 12,8 Z"
           id="path5" />
      </g>
    </pattern>
    <pattern
       inkscape:collect="always"
       xlink:href="#Wavy"
       id="pattern8"
       patternTransform="matrix(0.01,0,0,0.01,0,-26.458334)"
       x="0"
       y="0"
       preserveAspectRatio="none" />
    <pattern
       inkscape:collect="always"
       patternUnits="userSpaceOnUse"
       width="30.066020"
       height="5.1805778"
       id="Wavy"
       inkscape:stockid="Wavy"
       inkscape:isstock="true"
       inkscape:label="Wavy">
      <path
   style="stroke:none;"
   d="M 7.597,0.061 C 5.079,-0.187 2.656,0.302 -0.01,1.788 L -0.01,3.061 C 2.773,1.431 5.173,1.052 7.472,1.280 C 9.770,1.508 11.969,2.361 14.253,3.218 C 18.820,4.931 23.804,6.676 30.066,3.061 L 30.062,1.788 C 23.622,5.497 19.246,3.770 14.691,2.061 C 12.413,1.207 10.115,0.311 7.597,0.061 z "
   id="path786" />

    </pattern>
  </defs>
  <rect
     style="fill:url(#pattern11);fill-opacity:1;stroke:none;stroke-width:0.264583;stroke-linejoin:round;stroke-miterlimit:0"
     id="rect1"
     width="33.57756"
     height="16.644226"
     x="0.082601614"
     y="-5.7686961e-08" />
  <rect
     style="fill:url(#pattern8);fill-opacity:1;stroke:none;stroke-width:0.149754;stroke-linejoin:round;stroke-miterlimit:0;stroke-dasharray:none;stroke-opacity:1"
     id="rect25"
     width="33.866665"
     height="16.933332"
     x="-4.432373e-07"
     y="-26.458334" />
  <path
     id="path25"
     style="fill:#000000;fill-opacity:1;stroke:none;stroke-width:0.286929;stroke-linejoin:round;stroke-miterlimit:0;stroke-dasharray:none;stroke-opacity:1"
     d="M -3.5718773,-19.314586 H 36.612089 v -0.383722 H -3.5718773 Z m 0,-0.767443 H 36.612089 v -0.383722 H -3.5718773 Z m 0,-0.767445 H 36.612089 v -0.383721 H -3.5718773 Z m 0,-0.767443 H 36.612089 v -0.383722 H -3.5718773 Z m 0,-0.767444 H 36.612089 v -0.383721 H -3.5718773 Z m 0,-0.767445 H 36.612089 v -0.383722 H -3.5718773 Z m 0,-0.767443 H 36.612089 v -0.383723 H -3.5718773 Z m 0,-0.767444 H 36.612089 v -0.383722 H -3.5718773 Z m 0,-0.767445 H 36.612089 V -25.83786 H -3.5718773 Z m 0,-0.767444 H 36.612089 v -0.383723 H -3.5718773 Z m 0,-0.767444 H 36.612089 v -0.383721 H -3.5718773 Z m 0,-0.767443 H 36.612089 v -0.383723 H -3.5718773 Z m 0,-0.767444 H 36.612089 v -0.383722 H -3.5718773 Z m 0,-0.767445 H 36.612089 v -0.383721 H -3.5718773 Z m 0,-0.767444 H 36.612089 v -0.383722 H -3.5718773 Z m 0,-0.767444 H 36.612089 v -0.383722 H -3.5718773 Z m 0,-0.767445 H 36.612089 v -0.383721 H -3.5718773 Z m 0,-0.767443 H 36.612089 v -0.383723 H -3.5718773 Z m 0,-0.767445 H 36.612089 V -33.5123 H -3.5718773 Z m 0,-0.767444 H 36.612089 v -0.383722 H -3.5718773 Z m 0,-0.767443 H 36.612089 V -35.04719 H -3.5718773 Z m 0,-0.767445 H 36.612089 v -0.383722 H -3.5718773 Z" />
  <path
     id="rect3"
     style="fill:#000000;stroke:none;stroke-width:0.149754;stroke-linejoin:round;stroke-miterlimit:0;stroke-dasharray:none;stroke-opacity:1"
     d="M 0,0 V 16.933333 H 33.866666 V 0 Z m 28.669567,1.2645223 0.307475,0.8826334 c -0.809445,0.2893198 -1.386577,0.5702935 -1.73116,0.8433594 -0.312076,0.2503104 -0.460155,0.4584613 -0.443901,0.6242513 0.013,0.2145518 0.12703,0.3986006 0.341581,0.5513875 0.214552,0.1527869 0.46479,0.2956322 0.750859,0.4289144 0.29257,0.1397837 0.570227,0.29398 0.833541,0.4630208 0.266564,0.1690408 0.482749,0.3805086 0.648539,0.6340698 0.16579,0.2503104 0.24908,0.5705707 0.24908,0.9606649 0,0.2600627 -0.07002,0.5022665 -0.209806,0.7265706 -0.136533,0.2243041 -0.362669,0.440489 -0.677995,0.6485392 -0.500621,0.3348308 -1.36676,0.697178 -2.598808,1.0872721 L 25.860953,8.2279214 C 27.00848,7.8638335 27.796563,7.5388562 28.225667,7.2527871 28.547494,7.0382354 28.703608,6.8334014 28.693855,6.6383544 28.684103,6.3457838 28.557326,6.1082971 28.313517,5.9262531 28.072959,5.7409584 27.795302,5.5748944 27.479976,5.4286091 27.20691,5.2985777 26.950038,5.1576492 26.70948,5.0048624 26.468922,4.8520755 26.270722,4.6680266 26.114685,4.4534748 25.961898,4.2356723 25.880524,3.9613326 25.870772,3.6297525 c -0.0098,-0.2243041 0.04892,-0.4518399 0.1757,-0.6826456 0.12678,-0.2340565 0.336331,-0.4649093 0.628902,-0.6924642 0.419351,-0.3348308 1.083974,-0.665042 1.994193,-0.9901204 z M 4.396114,1.6205729 5.3273233,1.6402099 5.181079,7.8765217 h 2.0965128 v 0.9363769 h -3.05201 z m 7.860502,0.1415934 1.389579,4.5883503 1.477429,-4.398181 0.906922,0.1266072 0.321944,6.6703938 -0.931209,0.043925 L 15.216125,4.6048868 14.070459,8.0325845 13.178007,8.0181155 12.13466,4.5707807 11.905216,8.856824 10.969356,8.808248 11.344527,1.8743045 Z m -1.975073,1.56993 c 0.04226,1.2808091 0.02619,2.3891524 -0.04858,3.3253783 C 10.158199,7.5904498 10.00872,8.3771327 9.7844155,9.0175373 9.5438574,9.7067036 9.2008952,10.251183 8.7555378,10.651029 8.3134311,11.054127 7.7523671,11.335617 7.0729532,11.494905 L 6.8538451,10.582816 C 7.8388328,10.368265 8.5114894,9.7736646 8.8723265,8.7984292 8.4432229,8.7009057 8.0903099,8.5027056 7.8139932,8.2036335 7.5246734,7.8980597 7.3037714,7.5205279 7.1509846,7.0719196 7.0144516,6.6655716 6.9250441,6.2351187 6.8827839,5.7800088 6.8437745,5.3216482 6.8423744,4.8732105 6.878133,4.4343546 6.9008885,4.1807934 6.9349414,3.9319557 6.9804523,3.6881469 l 0.9167399,0.1756999 c -0.039009,0.1982978 -0.068345,0.4125658 -0.08785,0.6433715 -0.032508,0.3835926 -0.032508,0.7719586 0,1.1653036 0.035759,0.3900941 0.1104983,0.7543581 0.2242757,1.0924397 0.1007743,0.2958214 0.2375025,0.544659 0.4097941,0.7462077 0.1755424,0.1982978 0.3898104,0.3231583 0.6433716,0.3751709 0.013003,0.00325 0.026271,0.00517 0.039274,0.00517 0.08452,-0.406348 0.1459922,-0.8666535 0.1850016,-1.3802775 0.065016,-0.8809626 0.078284,-1.9325511 0.039274,-3.1548461 z m 8.587072,0.08785 c 0.302323,0 0.583297,0.07614 0.84336,0.2289266 0.260062,0.1527869 0.486198,0.3628546 0.677994,0.6294189 0.175543,0.2470597 0.311754,0.5313503 0.409278,0.8531779 0.100774,0.3185769 0.151412,0.6582222 0.151412,1.0190593 0,0.360837 -0.05064,0.7023992 -0.151412,1.0242268 -0.09752,0.3185769 -0.233735,0.5995505 -0.409278,0.8433594 -0.191796,0.2698151 -0.417932,0.4812829 -0.677994,0.6340698 -0.260063,0.1527869 -0.541037,0.2289266 -0.84336,0.2289266 -0.305573,0 -0.588464,-0.07614 -0.848527,-0.2289266 C 17.760026,8.499398 17.53389,8.2879302 17.342094,8.0181151 17.166551,7.7743062 17.028423,7.4933326 16.927649,7.1747557 16.830125,6.8529281 16.781404,6.5113659 16.781404,6.1505289 c 0,-0.3608371 0.04872,-0.7004824 0.146245,-1.0190593 0.100774,-0.3218276 0.238902,-0.6061182 0.414445,-0.8531779 0.191796,-0.2665643 0.417932,-0.476632 0.677994,-0.6294189 0.260063,-0.1527869 0.542954,-0.2289266 0.848527,-0.2289265 z m 4.796607,0.038241 c 0.122158,-0.00419 0.246102,0.023779 0.37207,0.083716 0.299072,0.1430345 0.54791,0.441993 0.746208,0.8971028 0.237307,0.5656366 0.417522,1.2903309 0.541052,2.1745443 0.12353,0.8842134 0.164217,1.7603038 0.121956,2.6282633 L 24.515299,9.1932371 C 24.551058,8.3935441 24.515088,7.5907932 24.407812,6.7845987 24.300536,5.9751533 24.139706,5.3185647 23.925154,4.8146931 23.821129,4.574135 23.699069,4.5234974 23.559285,4.6632812 23.419501,4.7998141 23.24872,5.2094819 23.047172,5.8921467 22.848874,6.5715607 22.645957,7.5209906 22.437906,8.7400348 l -0.926558,-0.073381 -0.05839,-4.7247761 0.931209,-0.014986 0.01447,0.9901204 c 0.16254,-0.4323543 0.325287,-0.7545315 0.487826,-0.9658325 0.25031,-0.3195927 0.510015,-0.4837741 0.778764,-0.4929931 z m -4.796607,0.8981364 c -0.289319,0 -0.544791,0.1541963 -0.765844,0.4630208 -0.256812,0.3608371 -0.38499,0.8045578 -0.38499,1.3311849 0,0.5266271 0.128178,0.9689476 0.38499,1.3265339 0.221053,0.3120754 0.476525,0.4676717 0.765844,0.4676717 0.286069,0 0.539624,-0.1555963 0.760677,-0.4676717 0.256812,-0.3575863 0.38499,-0.7999068 0.38499,-1.3265339 0,-0.5266271 -0.128178,-0.9703478 -0.38499,-1.3311849 -0.221053,-0.308825 -0.474608,-0.4630213 -0.760677,-0.4630208 z" />
  <path
     style="font-size:9.98641px;line-height:7.8;font-family:Moomycraft;-inkscape-font-specification:'Moomycraft, Normal';letter-spacing:0px;baseline-shift:baseline;display:inline;overflow:visible;opacity:1;vector-effect:none;fill:#ffffff;stroke-linejoin:round;stroke-miterlimit:0;enable-background:accumulate;stop-color:#000000;stop-opacity:1"
     d="m 28.652344,1.1640625 c -0.914459,0.3265922 -1.584865,0.6580126 -2.015625,1.0019531 -0.298254,0.2319752 -0.515009,0.4685131 -0.648438,0.7148438 -0.132098,0.2404869 -0.194006,0.4831713 -0.183594,0.7226562 0.01037,0.3416572 0.09358,0.6319485 0.25586,0.8632813 a 0.07488449,0.07488449 0 0 0 0.002,0.00195 c 0.161831,0.2225167 0.367472,0.4129497 0.615234,0.5703125 0.243267,0.1545072 0.501706,0.2964782 0.777344,0.4277344 a 0.07488449,0.07488449 0 0 0 0.002,0 c 0.310972,0.1442652 0.582785,0.3068251 0.81836,0.4882812 a 0.07488449,0.07488449 0 0 0 0.002,0.00195 c 0.228783,0.1708253 0.340531,0.381974 0.349609,0.6542969 0.0076,0.1526512 -0.122723,0.340279 -0.435547,0.5488281 -0.41567,0.2771135 -1.200999,0.603605 -2.345703,0.9667969 a 0.07488449,0.07488449 0 0 0 -0.04883,0.09375 l 0.279297,0.8867188 a 0.07488449,0.07488449 0 0 0 0.09375,0.048828 c 1.235142,-0.3910741 2.104142,-0.7525622 2.617187,-1.0957031 0.321038,-0.2118186 0.55467,-0.4348724 0.699219,-0.671875 0.146654,-0.235328 0.222656,-0.4921468 0.222656,-0.765625 0,-0.4007017 -0.08604,-0.7367132 -0.261718,-1.0019532 -0.171423,-0.262176 -0.395546,-0.4820271 -0.669922,-0.65625 h -0.002 C 28.509784,4.7944166 28.230303,4.6388748 27.935547,4.4980469 a 0.07488449,0.07488449 0 0 0 -0.002,0 C 27.650957,4.366364 27.405435,4.2258051 27.195312,4.0761719 26.993671,3.9325768 26.896333,3.7708798 26.884766,3.5800781 a 0.07488449,0.07488449 0 0 0 0,-0.00195 c -0.0057,-0.057918 0.01817,-0.1351545 0.08594,-0.2304687 0.06776,-0.095314 0.177435,-0.2056926 0.330078,-0.328125 C 27.633086,2.7561958 28.20418,2.4754404 29.009766,2.1875 a 0.07488449,0.07488449 0 0 0 0.04492,-0.09375 l -0.30664,-0.8828125 a 0.07488449,0.07488449 0 0 0 -0.0957,-0.046875 z m -0.01758,0.1738281 0.257812,0.7421875 c -0.765411,0.2789992 -1.342274,0.550238 -1.685547,0.8222657 -0.159432,0.1278779 -0.279227,0.246639 -0.359375,0.359375 -0.08015,0.1127359 -0.121904,0.222206 -0.111328,0.3300781 0.01526,0.2371699 0.144495,0.4441005 0.371094,0.6054687 0.218557,0.1556396 0.472911,0.3008861 0.761719,0.4355469 0.289861,0.1384892 0.565572,0.2916856 0.826171,0.4589844 0.258195,0.1637327 0.467052,0.3667723 0.626954,0.6113281 0.155901,0.2353809 0.236328,0.5404353 0.236328,0.9199219 0,0.2466472 -0.0663,0.4742197 -0.199219,0.6875 -0.128567,0.211218 -0.345148,0.421026 -0.654297,0.625 -0.475212,0.3178365 -1.334414,0.6714419 -2.511719,1.0488281 L 25.960937,8.2402344 C 27.056739,7.8883485 27.84592,7.5714703 28.275391,7.2851562 28.606222,7.0646018 28.789215,6.8429117 28.777344,6.6054687 28.766937,6.2932687 28.625045,6.0310477 28.367187,5.8378906 28.121646,5.6487572 27.839212,5.4803367 27.519531,5.3320312 27.249037,5.2032247 26.995662,5.0631759 26.757812,4.9121094 26.524459,4.7638985 26.333839,4.585493 26.183594,4.3789062 26.041262,4.1753303 25.962532,3.9174963 25.953125,3.5976563 a 0.07488449,0.07488449 0 0 0 0,-0.00195 c -0.0091,-0.2091233 0.04455,-0.4214535 0.166016,-0.6425781 0.120132,-0.2217823 0.322487,-0.4467871 0.609375,-0.6699219 a 0.07488449,0.07488449 0 0 0 0.002,0 C 27.124332,1.968723 27.776521,1.6506138 28.634766,1.3378906 Z M 4.40625,1.515625 A 0.07488449,0.07488449 0 0 0 4.330078,1.589844 L 4.1582031,8.78125 a 0.07488449,0.07488449 0 0 0 0.074219,0.076172 H 7.2851564 A 0.07488449,0.07488449 0 0 0 7.3613284,8.783203 V 7.8476562 A 0.07488449,0.07488449 0 0 0 7.2851562,7.7714844 H 5.265625 L 5.4101562,1.6113281 a 0.07488449,0.07488449 0 0 0 -0.074219,-0.076172 z m 7.849609,0.1425781 -0.912109,0.1113281 a 0.07488449,0.07488449 0 0 0 -0.06641,0.070312 l -0.375,6.9335938 a 0.07488449,0.07488449 0 0 0 0.07031,0.080078 l 0.9375,0.048828 a 0.07488449,0.07488449 0 0 0 0.07813,-0.070312 l 0.205078,-3.8613282 0.921875,3.0390625 a 0.07488449,0.07488449 0 0 0 0.07031,0.052734 l 0.890625,0.015625 a 0.07488449,0.07488449 0 0 0 0.07227,-0.050781 l 1.021484,-3.0527344 0.183594,3.7929687 a 0.07488449,0.07488449 0 0 0 0.07813,0.070312 l 0.93164,-0.042969 a 0.07488449,0.07488449 0 0 0 0.07227,-0.078125 L 16.11329,2.0449206 A 0.07488449,0.07488449 0 0 0 16.04884,1.9746086 L 15.14259,1.8476554 a 0.07488449,0.07488449 0 0 0 -0.08203,0.050781 L 13.658203,6.0742187 12.335938,1.7109375 a 0.07488449,0.07488449 0 0 0 -0.08008,-0.052734 z m -7.7792965,0.00977 0.78125,0.015625 -0.1445313,6.1621094 a 0.07488449,0.07488449 0 0 0 0.076172,0.076172 H 7.2109375 V 8.7089844 H 4.3105469 Z m 7.7343755,0.1464844 1.371093,4.5273438 a 0.07488449,0.07488449 0 0 0 0.142578,0.00195 L 15.183594,2.0058594 15.966797,2.1152344 16.28125,8.6484375 15.5,8.6855469 15.298828,4.5722656 A 0.07488449,0.07488449 0 0 0 15.152344,4.5507812 L 14.025391,7.9277344 13.242188,7.9140625 12.214844,4.5195312 a 0.07488449,0.07488449 0 0 0 -0.146485,0.017578 l -0.226562,4.2109375 -0.785156,-0.041016 0.367187,-6.7968751 z m -1.923829,1.4121094 -0.9316402,0.025391 a 0.07488449,0.07488449 0 0 0 -0.072266,0.078125 c 0.038949,1.2203962 0.025685,2.269153 -0.039063,3.1464844 -0.03643,0.4796688 -0.095875,0.9011464 -0.171875,1.2851562 C 8.8530274,7.7080921 8.6634427,7.6074451 8.5078125,7.4316406 8.343074,7.2385734 8.2113247,6.9987425 8.1132813,6.7109375 8.0015243,6.3788596 7.9278573,6.0215821 7.8925781,5.6367187 c -0.032175,-0.3893119 -0.032149,-0.7729895 0,-1.1523437 0.019304,-0.228425 0.047534,-0.4415004 0.085937,-0.6367187 A 0.07488449,0.07488449 0 0 0 7.9199219,3.7597656 L 7.0019531,3.5839844 a 0.07488449,0.07488449 0 0 0 -0.087891,0.060547 C 6.8681054,3.89073 6.8335086,4.1425781 6.8105469,4.3984375 c -0.036109,0.4431557 -0.033485,0.8951232 0.00586,1.3574219 a 0.07488449,0.07488449 0 0 0 0,0.00195 c 0.042756,0.460462 0.1330056,0.8964595 0.2714837,1.3085968 0.1557643,0.4573505 0.3823146,0.8441239 0.6796875,1.1582032 0.2641428,0.2858957 0.613383,0.4604951 1.0097657,0.5683594 C 8.4187213,9.7113689 7.788214,10.275169 6.8457031,10.480469 a 0.07488449,0.07488449 0 0 0 -0.056641,0.08984 l 0.21875,0.912109 a 0.07488449,0.07488449 0 0 0 0.089844,0.05469 C 7.7865949,11.375588 8.3601024,11.089786 8.8125,10.677734 9.2684006,10.268422 9.6194973,9.7113346 9.8632813,9.0136719 v -0.00195 C 10.090176,8.3633435 10.239377,7.5715812 10.314453,6.6347656 c 0.07507,-0.9400428 0.09311,-2.0511196 0.05078,-3.3339843 a 0.07488449,0.07488449 0 0 0 -0.07813,-0.074219 z m 8.589844,0.087891 c -0.318053,0 -0.615612,0.080959 -0.886719,0.2402344 -0.269529,0.1583484 -0.503965,0.3763081 -0.701172,0.6503906 -0.180514,0.2540585 -0.320981,0.5465549 -0.423828,0.875 a 0.07488449,0.07488449 0 0 0 -0.002,0 c -0.09984,0.3261429 -0.148437,0.6734329 -0.148437,1.0410156 0,0.3675828 0.04866,0.7156612 0.148437,1.0449219 a 0.07488449,0.07488449 0 0 0 0.002,0.00195 c 0.102889,0.3252598 0.24322,0.6124362 0.423828,0.8632813 0.19719,0.2774011 0.431443,0.4977842 0.701172,0.65625 0.271107,0.159275 0.568666,0.2382812 0.886719,0.2382813 0.314936,0 0.609871,-0.079075 0.880859,-0.2382813 0.269729,-0.1584658 0.503983,-0.3788489 0.701172,-0.65625 0.180406,-0.2505643 0.320317,-0.5385209 0.419922,-0.8632813 v -0.00195 c 0.102782,-0.3289134 0.154297,-0.6777859 0.154297,-1.0449219 0,-0.3678075 -0.05107,-0.7146881 -0.154297,-1.0410156 -0.0996,-0.3286714 -0.23928,-0.6207636 -0.419922,-0.875 C 20.261778,3.9309956 20.027342,3.7130359 19.757812,3.5546875 19.486824,3.3954815 19.191889,3.3144531 18.876953,3.3144531 Z m -8.664062,0.064453 c 0.03869,1.2425685 0.02592,2.3306486 -0.04687,3.2421874 C 10.091615,7.5494855 9.9421155,8.3307428 9.7207031,8.9628906 9.4833984,9.6427368 9.1473222,10.176369 8.7128906,10.566406 8.2992598,10.94354 7.7644975,11.197576 7.1328125,11.357422 L 6.9472656,10.591797 C 7.9091049,10.357248 8.5934294,9.7617931 8.9511719,8.7949219 A 0.07488449,0.07488449 0 0 0 8.8964844,8.6953125 C 8.4801238,8.6006851 8.1429124,8.4109087 7.8769531,8.1230469 7.5960568,7.8263698 7.3802539,7.4586266 7.2304687,7.0195312 v -0.00195 C 7.0962143,6.6175358 7.006546,6.1932413 6.9648437,5.7441406 6.9261694,5.2897181 6.9255292,4.8447124 6.9609375,4.4101562 6.9811631,4.1847845 7.0143931,3.9654964 7.0527344,3.7480469 l 0.7695312,0.1464844 c -0.033075,0.1816232 -0.062619,0.3695716 -0.080078,0.5761718 -0.032867,0.387831 -0.032841,0.7803565 0,1.1777344 a 0.07488449,0.07488449 0 0 0 0,0.00195 c 0.036238,0.3953249 0.1127177,0.7652897 0.2285156,1.109375 0.1033007,0.3032374 0.2444649,0.5597101 0.4238282,0.7695313 a 0.07488449,0.07488449 0 0 0 0,0.00195 C 8.5797802,7.7405063 8.8115,7.8745884 9.0800782,7.9296813 c 0.017532,0.00409 0.03671,0.00586 0.054687,0.00586 a 0.07488449,0.07488449 0 0 0 0.072266,-0.058594 c 0.085333,-0.4102576 0.1482942,-0.8724628 0.1875,-1.3886719 a 0.07488449,0.07488449 0 0 0 0,-0.00195 C 9.4582426,5.62304 9.4692767,4.5870989 9.4335938,3.4003906 Z m 13.216796,0.021484 C 23.21965,3.4751496 23.023658,3.6353209 22.835937,3.875 a 0.07488449,0.07488449 0 0 0 0,0.00195 c -0.121883,0.158451 -0.239604,0.4368924 -0.357421,0.7050812 l -0.01172,-0.6855468 a 0.07488449,0.07488449 0 0 0 -0.07617,-0.074219 l -0.931641,0.015625 a 0.07488449,0.07488449 0 0 0 -0.07227,0.074219 l 0.05859,4.7265625 a 0.07488449,0.07488449 0 0 0 0.06836,0.072266 l 0.925781,0.074219 a 0.07488449,0.07488449 0 0 0 0.08008,-0.0625 c 0.20778,-1.21743 0.41053,-2.1652317 0.607427,-2.8398444 0.100301,-0.3397282 0.193666,-0.6097204 0.277344,-0.8105469 0.08368,-0.2008265 0.16083,-0.3320082 0.214844,-0.3847656 a 0.07488449,0.07488449 0 0 0 0.002,0 c 0.02951,-0.029508 0.05443,-0.046642 0.07227,-0.052734 0.01783,-0.00609 0.0265,-0.006 0.04102,0 0.02903,0.011997 0.08232,0.067441 0.130859,0.1796875 h -0.002 c 0.210652,0.4947131 0.371829,1.1442125 0.478516,1.9492188 0.106705,0.8019074 0.142981,1.6012513 0.107422,2.3964844 a 0.07488449,0.07488449 0 0 0 0.07031,0.078125 l 0.931641,0.048828 a 0.07488449,0.07488449 0 0 0 0.07813,-0.070312 C 25.571789,8.3440642 25.530406,7.4629159 25.40625,6.5742187 25.282114,5.6856651 25.100274,4.955057 24.859375,4.3808594 a 0.07488449,0.07488449 0 0 0 0,-0.00195 C 24.656718,3.9137927 24.399272,3.5989045 24.078125,3.4453125 23.862031,3.3424935 23.639725,3.3256316 23.429687,3.4003906 Z m -4.552734,0.064453 c 0.289709,0 0.555551,0.072382 0.804688,0.21875 0.250596,0.1472253 0.469862,0.3503288 0.65625,0.6093749 0.169751,0.2394135 0.303256,0.5159835 0.398437,0.8300782 a 0.07488449,0.07488449 0 0 0 0,0.00195 c 0.09832,0.3108264 0.146485,0.6422272 0.146484,0.9960937 10e-7,0.3538666 -0.04809,0.6877412 -0.146484,1.0019532 -0.09541,0.3116653 -0.22809,0.5856708 -0.398437,0.8222656 a 0.07488449,0.07488449 0 0 0 -0.002,0 c -0.186404,0.2622292 -0.4039,0.4661734 -0.654296,0.6132813 -0.249137,0.1463677 -0.514979,0.21875 -0.804688,0.21875 -0.293094,0 -0.561528,-0.072451 -0.810547,-0.21875 C 17.81601,8.4114859 17.598514,8.2075417 17.412109,7.9453125 a 0.07488449,0.07488449 0 0 0 -0.002,0 C 17.23968,7.7085399 17.106473,7.4349409 17.007812,7.1230469 16.912542,6.8086523 16.865234,6.4751852 16.865234,6.1210937 c 0,-0.3534123 0.04773,-0.6855985 0.142578,-0.9960937 V 5.12305 c 0.09837,-0.313581 0.232779,-0.5909412 0.402344,-0.8300782 l 0.002,-0.00195 C 17.598163,4.0331251 17.816629,3.8303716 18.066453,3.6836 18.315472,3.5373013 18.583906,3.46485 18.877,3.46485 Z m 4.603516,0.076172 c 0.173555,-0.061774 0.3462,-0.049915 0.533203,0.039063 0.276997,0.1324771 0.515045,0.414269 0.708984,0.859375 0.233424,0.5568766 0.412338,1.2751745 0.535156,2.1542969 0.119323,0.8541005 0.153329,1.7005618 0.117188,2.5390625 L 24.59375,9.0918013 C 24.62433,8.3121069 24.59475,7.5297802 24.490234,6.744145 24.382371,5.9302561 24.220405,5.2688895 24.001953,4.7558594 23.946467,4.6275482 23.885848,4.536437 23.792969,4.4980469 c -0.04644,-0.019195 -0.10085,-0.020163 -0.148438,-0.00391 -0.04709,0.016087 -0.0889,0.04618 -0.128906,0.085937 -0.08577,0.083776 -0.163011,0.2248214 -0.25,0.4335938 -0.08699,0.2087723 -0.180002,0.4851884 -0.28125,0.828125 -0.194933,0.667885 -0.396483,1.6081383 -0.599609,2.7871094 l -0.791016,-0.060547 -0.05664,-4.5820313 0.78125,-0.011719 0.01367,0.9140625 a 0.07488449,0.07488449 0 0 0 0.144531,0.025391 C 22.637357,4.4863475 22.798514,4.1700962 22.953125,3.96875 23.129492,3.743567 23.306913,3.6027895 23.480469,3.5410156 Z m -4.603516,0.7109375 c -0.315961,0 -0.596119,0.1727439 -0.826172,0.4941406 -0.26679,0.3748573 -0.40039,0.8362016 -0.40039,1.375 0,0.5387985 0.133419,0.9974085 0.40039,1.3691407 0.22996,0.3246488 0.50993,0.5 0.826172,0.5 0.312754,0 0.590683,-0.1765722 0.820313,-0.5 0.266971,-0.3717322 0.40039,-0.8303422 0.40039,-1.3691407 0,-0.5387984 -0.1336,-1.0001427 -0.40039,-1.375 -0.229952,-0.3212555 -0.5073,-0.4941406 -0.820313,-0.4941406 z m 0,0.1484375 c 0.259124,0 0.487064,0.1372002 0.699219,0.4335938 0.246834,0.3468168 0.371094,0.7726536 0.371094,1.2871093 0,0.5144558 -0.124441,0.9397626 -0.371094,1.2832032 -0.212247,0.2996431 -0.440378,0.4355468 -0.699219,0.4355468 -0.262398,0 -0.492931,-0.136045 -0.705078,-0.4355468 -0.246653,-0.3434406 -0.371094,-0.7687474 -0.371094,-1.2832032 0,-0.5144557 0.12426,-0.9402925 0.371094,-1.2871093 0.212054,-0.2962523 0.4424,-0.4335938 0.705078,-0.4335938 z"
     id="text1" />
  <path
     d="M 5.327364,1.6400714 5.1810787,7.8767016 h 2.096756 V 8.8129275 H 4.225348 L 4.3960142,1.6205667 Z M 15.42105,8.7934228 15.21625,4.6047869 14.070349,8.0327392 13.178009,8.0181102 12.134507,4.5706532 11.905326,8.8568126 10.9691,8.8080506 11.344566,1.8741272 12.256411,1.7619751 13.646122,6.3504575 15.123603,1.952146 16.030572,2.0789266 16.3524,8.7495365 Z m 13.555771,-6.646229 c -0.809445,0.2893198 -1.386459,0.5705127 -1.731042,0.8435786 -0.312075,0.2503104 -0.459986,0.4583606 -0.443733,0.6241506 0.013,0.2145518 0.126778,0.3982211 0.341333,0.551008 0.214551,0.1527869 0.464862,0.2958214 0.750931,0.4291036 0.292571,0.1397837 0.570513,0.294196 0.833826,0.4632368 0.266565,0.1690408 0.482742,0.3803418 0.648532,0.6339029 0.16579,0.2503105 0.248685,0.5705128 0.248685,0.9606069 0,0.2600627 -0.06989,0.5022462 -0.209676,0.7265503 -0.136533,0.2243041 -0.362462,0.4404813 -0.677788,0.6485315 -0.500621,0.3348309 -1.366956,0.6972934 -2.599003,1.0873875 L 25.860944,8.2277863 C 27.008471,7.8636984 27.796787,7.53862 28.22589,7.2525509 28.547718,7.0379992 28.703756,6.8331998 28.694003,6.6381527 28.684203,6.345582 28.55747,6.1082747 28.313661,5.9262308 28.073103,5.7409361 27.795161,5.5751461 27.479835,5.4288608 27.206769,5.2988294 26.949957,5.1574203 26.709399,5.0046334 26.468841,4.8518465 26.270543,4.6681772 26.114506,4.4536254 25.961719,4.2358229 25.880449,3.9611316 25.870697,3.6295516 25.860897,3.4052475 25.919457,3.1776925 26.046239,2.9468868 26.17302,2.7128303 26.382695,2.4820246 26.675266,2.2544697 27.094617,1.9196389 27.759403,1.5896843 28.669622,1.2646058 Z"
     id="text4"
     style="font-size:9.98641px;line-height:7.8;font-family:Moomycraft;-inkscape-font-specification:'Moomycraft, Normal';letter-spacing:0px;fill:#fba3a3;fill-opacity:1;stroke-width:0.0211961;stroke-linejoin:round;stroke-miterlimit:0"
     aria-label="LyMonS" />
</svg>
