<?xml version="1.0" encoding="UTF-8" standalone="no"?>
<!-- Created with Inkscape (http://www.inkscape.org/) -->

<svg
   version="1.1"
   id="svg1"
   width="128"
   height="64"
   viewBox="0 0 128 64"
   xmlns="http://www.w3.org/2000/svg"
   xmlns:svg="http://www.w3.org/2000/svg">
  <defs
     id="defs1" />
  <g
     id="g1">
    <path
       style="fill:#000000"
       d="M 9.9999999e-7,32 V 0 H 63.999999 128 V 32 64 H 63.999999 1e-6 Z"
       id="path2" />
    <path
       style="fill:#dbf495;fill-opacity:1"
       d="M 14,58.5 V 58 H 14.5 15 V 58.5 59 H 14.5 14 Z m 2.5,-0.5 0.618034,-1 h 0.5 0.5 L 17.5,58 16.881966,59 h -0.5 -0.5 z M 19,58.5 V 58 H 19.5 20 V 58.5 59 H 19.5 19 Z m 2.5,-0.5 0.618034,-1 h 0.5 0.5 L 22.5,58 21.881966,59 h -0.5 -0.5 z M 24,58.5 V 58 H 24.5 25 V 58.5 59 H 24.5 24 Z m 2.5,-0.5 0.618034,-1 h 0.5 0.5 L 27.5,58 26.881966,59 h -0.5 -0.5 z M 29,58.5 V 58 H 29.5 30 V 58.5 59 H 29.5 29 Z m 2.5,-0.5 0.618034,-1 h 0.5 0.5 L 32.5,58 31.881966,59 h -0.5 -0.5 z M 34,58.5 V 58 H 34.5 35 V 58.5 59 H 34.5 34 Z m 2.5,-0.5 0.618034,-1 h 0.5 0.5 L 37.5,58 36.881966,59 h -0.5 -0.5 z M 39,58.5 V 58 H 39.5 40 V 58.5 59 H 39.5 39 Z m 2.5,-0.5 0.618034,-1 h 0.5 0.5 L 42.5,58 41.881966,59 h -0.5 -0.5 z M 44,58.5 V 58 H 44.5 45 V 58.5 59 H 44.5 44 Z m 2.5,-0.5 0.618034,-1 h 0.5 0.5 L 47.5,58 46.881966,59 h -0.5 -0.5 z M 49,58.5 V 58 H 49.5 50 V 58.5 59 H 49.5 49 Z m 2.5,-0.5 0.618034,-1 h 0.5 0.5 L 52.5,58 51.881966,59 h -0.5 -0.5 z M 54,58.5 V 58 H 54.5 55 V 58.5 59 H 54.5 54 Z m 2.5,-0.5 0.618034,-1 h 0.5 0.5 L 57.5,58 56.881966,59 h -0.5 -0.5 z M 59,58.5 V 58 H 59.5 60 V 58.5 59 H 59.5 59 Z m 2.5,-0.5 0.618034,-1 h 0.5 0.5 L 62.5,58 61.881966,59 h -0.5 -0.5 z M 64,58.5 V 58 H 64.5 65 V 58.5 59 H 64.5 64 Z m 2.5,-0.5 0.618034,-1 h 0.5 0.5 L 67.5,58 66.881966,59 h -0.5 -0.5 z M 69,58.5 V 58 H 69.5 70 V 58.5 59 H 69.5 69 Z m 2.5,-0.5 0.618034,-1 h 0.5 0.5 L 72.5,58 71.881966,59 h -0.5 -0.5 z M 74,58.5 V 58 H 74.5 75 V 58.5 59 H 74.5 74 Z m 2.5,-0.5 0.618034,-1 h 0.5 0.5 L 77.5,58 76.881966,59 h -0.5 -0.5 z M 79,58.5 V 58 H 79.5 80 V 58.5 59 H 79.5 79 Z m 2.5,-0.5 0.618034,-1 h 0.5 0.5 L 82.5,58 81.881966,59 h -0.5 -0.5 z M 84,58.5 V 58 H 84.5 85 V 58.5 59 H 84.5 84 Z m 2,0 V 58 H 86.5 87 V 58.5 59 H 86.5 86 Z m 2.5,-0.5 0.618034,-1 h 0.5 0.5 L 89.5,58 88.881966,59 h -0.5 -0.5 z M 91,58.5 V 58 H 91.5 92 V 58.5 59 H 91.5 91 Z m 2,0 V 58 H 93.5 94 V 58.5 59 H 93.5 93 Z m 2.5,-0.5 0.618034,-1 h 0.5 0.5 L 96.5,58 95.881966,59 h -0.5 -0.5 z M 98,58.5 V 58 H 98.5 99 V 58.5 59 H 98.5 98 Z m 2,0 V 58 h 0.5 0.5 v 0.5 0.5 h -0.5 -0.5 z m 2.5,-0.5 0.61803,-1 h 0.5 0.5 l -0.61803,1 -0.61803,1 h -0.5 -0.5 z m 2.5,0.5 V 58 h 0.5 0.5 v 0.5 0.5 h -0.5 -0.5 z m 2,0 V 58 h 0.5 0.5 v 0.5 0.5 h -0.5 -0.5 z m 2.5,-0.5 0.61803,-1 h 0.5 0.5 l -0.61803,1 -0.61803,1 h -0.5 -0.5 z m 2.5,0.5 V 58 h 0.5 0.5 v 0.5 0.5 h -0.5 -0.5 z m 2,0 V 58 h 0.5 0.5 v 0.5 0.5 h -0.5 -0.5 z m 2.5,-0.5 0.61803,-1 h 0.5 0.5 l -0.61803,1 -0.61803,1 h -0.5 -0.5 z m 2.5,0.5 V 58 h 0.5 0.5 v 0.5 0.5 h -0.5 -0.5 z m 2,0 V 58 h 0.5 0.5 v 0.5 0.5 h -0.5 -0.5 z m 2.5,-0.5 0.61803,-1 h 0.5 0.5 l -0.61803,1 -0.61803,1 h -0.5 -0.5 z M 14,56.5 V 56 H 14.5 15 V 56.5 57 H 14.5 14 Z m 5,0 V 56 H 19.5 20 V 56.5 57 H 19.5 19 Z m 5,0 V 56 H 24.5 25 V 56.5 57 H 24.5 24 Z m 5,0 V 56 H 29.5 30 V 56.5 57 H 29.5 29 Z m 5,0 V 56 H 34.5 35 V 56.5 57 H 34.5 34 Z m 5,0 V 56 H 39.5 40 V 56.5 57 H 39.5 39 Z m 5,0 V 56 H 44.5 45 V 56.5 57 H 44.5 44 Z m 5,0 V 56 H 49.5 50 V 56.5 57 H 49.5 49 Z m 5,0 V 56 H 54.5 55 V 56.5 57 H 54.5 54 Z m 5,0 V 56 H 59.5 60 V 56.5 57 H 59.5 59 Z m 5,0 V 56 H 64.5 65 V 56.5 57 H 64.5 64 Z m 5,0 V 56 H 69.5 70 V 56.5 57 H 69.5 69 Z m 5,0 V 56 H 74.5 75 V 56.5 57 H 74.5 74 Z m 5,0 V 56 H 79.5 80 V 56.5 57 H 79.5 79 Z m 5,0 V 56 H 84.5 85 V 56.5 57 H 84.5 84 Z m 7,0 V 56 H 91.5 92 V 56.5 57 H 91.5 91 Z m 7,0 V 56 H 98.5 99 V 56.5 57 H 98.5 98 Z m 7,0 V 56 h 0.5 0.5 v 0.5 0.5 h -0.5 -0.5 z m 7,0 V 56 h 0.5 0.5 v 0.5 0.5 h -0.5 -0.5 z m 7,0 V 56 h 0.5 0.5 V 56.5 57 H 119.5 119 Z M 17,55.5 V 55 H 17.5 18 V 55.5 56 H 17.5 17 Z m 5,0 V 55 H 22.5 23 V 55.5 56 H 22.5 22 Z m 5,0 V 55 H 27.5 28 V 55.5 56 H 27.5 27 Z m 5,0 V 55 H 32.5 33 V 55.5 56 H 32.5 32 Z m 5,0 V 55 H 37.5 38 V 55.5 56 H 37.5 37 Z m 5,0 V 55 H 42.5 43 V 55.5 56 H 42.5 42 Z m 5,0 V 55 H 47.5 48 V 55.5 56 H 47.5 47 Z m 5,0 V 55 H 52.5 53 V 55.5 56 H 52.5 52 Z m 5,0 V 55 H 57.5 58 V 55.5 56 H 57.5 57 Z m 5,0 V 55 H 62.5 63 V 55.5 56 H 62.5 62 Z m 5,0 V 55 H 67.5 68 V 55.5 56 H 67.5 67 Z m 5,0 V 55 H 72.5 73 V 55.5 56 H 72.5 72 Z m 5,0 V 55 H 77.5 78 V 55.5 56 H 77.5 77 Z m 5,0 V 55 H 82.5 83 V 55.5 56 H 82.5 82 Z m 7,0 V 55 H 89.5 90 V 55.5 56 H 89.5 89 Z m 7,0 V 55 H 96.5 97 V 55.5 56 H 96.5 96 Z m 7,0 V 55 h 0.5 0.5 v 0.5 0.5 h -0.5 -0.5 z m 7,0 V 55 h 0.5 0.5 v 0.5 0.5 h -0.5 -0.5 z m 7,0 V 55 h 0.5 0.5 v 0.5 0.5 h -0.5 -0.5 z m 7,0 V 55 h 0.5 0.5 V 55.5 56 H 124.5 124 Z M 3,48.5 V 42 h 2.8775553 2.8775553 l 1.3122804,1.5812 1.312281,1.5812 -1.19831,1.9188 L 8.9830522,49 H 9.9915261 11 v 3 3 H 9.5 8 V 52 49 H 7 6 v 3 3 H 4.5 3 Z M 4.7247313,45.76791 4.3200741,42.5 l -0.010205,6 -0.010205,6 0.4148621,-2.73209 0.4148621,-2.73209 z M 9.6622807,50.75 9.1578947,49.5 V 52 54.5 L 9.6622807,53.25 10.166667,52 Z M 8.15,45.5 V 44.55 L 7.075,44.19167 6,43.83333 V 45.5 47.16667 L 7.075,46.80833 8.15,46.45 Z m 5.85,9 V 54 H 14.5 15 V 54.5 55 H 14.5 14 Z m 5,0 V 54 H 19.5 20 V 54.5 55 H 19.5 19 Z m 5,0 V 54 H 24.5 25 V 54.5 55 H 24.5 24 Z m 5,0 V 54 H 29.5 30 V 54.5 55 H 29.5 29 Z m 5,0 V 54 H 34.5 35 V 54.5 55 H 34.5 34 Z m 5,0 V 54 H 39.5 40 V 54.5 55 H 39.5 39 Z m 5,0 V 54 H 44.5 45 V 54.5 55 H 44.5 44 Z m 5,0 V 54 H 49.5 50 V 54.5 55 H 49.5 49 Z m 5,0 V 54 H 54.5 55 V 54.5 55 H 54.5 54 Z m 5,0 V 54 H 59.5 60 V 54.5 55 H 59.5 59 Z m 5,0 V 54 H 64.5 65 V 54.5 55 H 64.5 64 Z m 5,0 V 54 H 69.5 70 V 54.5 55 H 69.5 69 Z m 5,0 V 54 H 74.5 75 V 54.5 55 H 74.5 74 Z m 5,0 V 54 H 79.5 80 V 54.5 55 H 79.5 79 Z m 5,0 V 54 H 84.5 85 V 54.5 55 H 84.5 84 Z m 7,0 V 54 H 91.5 92 V 54.5 55 H 91.5 91 Z m 7,0 V 54 H 98.5 99 V 54.5 55 H 98.5 98 Z m 7,0 V 54 h 0.5 0.5 v 0.5 0.5 h -0.5 -0.5 z m 7,0 V 54 h 0.5 0.5 v 0.5 0.5 h -0.5 -0.5 z m 7,0 V 54 h 0.5 0.5 V 54.5 55 H 119.5 119 Z M 17,53.5 V 53 H 17.5 18 V 53.5 54 H 17.5 17 Z m 5,0 V 53 H 22.5 23 V 53.5 54 H 22.5 22 Z m 5,0 V 53 H 27.5 28 V 53.5 54 H 27.5 27 Z m 5,0 V 53 H 32.5 33 V 53.5 54 H 32.5 32 Z m 5,0 V 53 H 37.5 38 V 53.5 54 H 37.5 37 Z m 5,0 V 53 H 42.5 43 V 53.5 54 H 42.5 42 Z m 5,0 V 53 H 47.5 48 V 53.5 54 H 47.5 47 Z m 5,0 V 53 H 52.5 53 V 53.5 54 H 52.5 52 Z m 5,0 V 53 H 57.5 58 V 53.5 54 H 57.5 57 Z m 5,0 V 53 H 62.5 63 V 53.5 54 H 62.5 62 Z m 5,0 V 53 H 67.5 68 V 53.5 54 H 67.5 67 Z m 5,0 V 53 H 72.5 73 V 53.5 54 H 72.5 72 Z m 5,0 V 53 H 77.5 78 V 53.5 54 H 77.5 77 Z m 5,0 V 53 H 82.5 83 V 53.5 54 H 82.5 82 Z m 7,0 V 53 H 89.5 90 V 53.5 54 H 89.5 89 Z m 7,0 V 53 H 96.5 97 V 53.5 54 H 96.5 96 Z m 7,0 V 53 h 0.5 0.5 v 0.5 0.5 h -0.5 -0.5 z m 7,0 V 53 h 0.5 0.5 v 0.5 0.5 h -0.5 -0.5 z m 7,0 V 53 h 0.5 0.5 v 0.5 0.5 h -0.5 -0.5 z m 7,0 V 53 h 0.5 0.5 V 53.5 54 H 124.5 124 Z M 14,52.5 V 52 H 14.5 15 V 52.5 53 H 14.5 14 Z m 5,0 V 52 H 19.5 20 V 52.5 53 H 19.5 19 Z m 5,0 V 52 H 24.5 25 V 52.5 53 H 24.5 24 Z m 5,0 V 52 H 29.5 30 V 52.5 53 H 29.5 29 Z m 5,0 V 52 H 34.5 35 V 52.5 53 H 34.5 34 Z m 5,0 V 52 H 39.5 40 V 52.5 53 H 39.5 39 Z m 5,0 V 52 H 44.5 45 V 52.5 53 H 44.5 44 Z m 5,0 V 52 H 49.5 50 V 52.5 53 H 49.5 49 Z m 5,0 V 52 H 54.5 55 V 52.5 53 H 54.5 54 Z m 5,0 V 52 H 59.5 60 V 52.5 53 H 59.5 59 Z m 5,0 V 52 H 64.5 65 V 52.5 53 H 64.5 64 Z m 5,0 V 52 H 69.5 70 V 52.5 53 H 69.5 69 Z m 5,0 V 52 H 74.5 75 V 52.5 53 H 74.5 74 Z m 5,0 V 52 H 79.5 80 V 52.5 53 H 79.5 79 Z m 5,0 V 52 H 84.5 85 V 52.5 53 H 84.5 84 Z m 7,0 V 52 H 91.5 92 V 52.5 53 H 91.5 91 Z m 7,0 V 52 H 98.5 99 V 52.5 53 H 98.5 98 Z m 7,0 V 52 h 0.5 0.5 v 0.5 0.5 h -0.5 -0.5 z m 7,0 V 52 h 0.5 0.5 v 0.5 0.5 h -0.5 -0.5 z m 7,0 V 52 h 0.5 0.5 V 52.5 53 H 119.5 119 Z M 17,51.5 V 51 H 17.5 18 V 51.5 52 H 17.5 17 Z m 5,0 V 51 H 22.5 23 V 51.5 52 H 22.5 22 Z m 5,0 V 51 H 27.5 28 V 51.5 52 H 27.5 27 Z m 5,0 V 51 H 32.5 33 V 51.5 52 H 32.5 32 Z m 5,0 V 51 H 37.5 38 V 51.5 52 H 37.5 37 Z m 5,0 V 51 H 42.5 43 V 51.5 52 H 42.5 42 Z m 5,0 V 51 H 47.5 48 V 51.5 52 H 47.5 47 Z m 5,0 V 51 H 52.5 53 V 51.5 52 H 52.5 52 Z m 5,0 V 51 H 57.5 58 V 51.5 52 H 57.5 57 Z m 5,0 V 51 H 62.5 63 V 51.5 52 H 62.5 62 Z m 5,0 V 51 H 67.5 68 V 51.5 52 H 67.5 67 Z m 5,0 V 51 H 72.5 73 V 51.5 52 H 72.5 72 Z m 5,0 V 51 H 77.5 78 V 51.5 52 H 77.5 77 Z m 5,0 V 51 H 82.5 83 V 51.5 52 H 82.5 82 Z m 7,0 V 51 H 89.5 90 V 51.5 52 H 89.5 89 Z m 7,0 V 51 H 96.5 97 V 51.5 52 H 96.5 96 Z m 7,0 V 51 h 0.5 0.5 v 0.5 0.5 h -0.5 -0.5 z m 7,0 V 51 h 0.5 0.5 v 0.5 0.5 h -0.5 -0.5 z m 7,0 V 51 h 0.5 0.5 v 0.5 0.5 h -0.5 -0.5 z m 7,0 V 51 h 0.5 0.5 V 51.5 52 H 124.5 124 Z M 14,50.5 V 50 H 14.5 15 V 50.5 51 H 14.5 14 Z m 5,0 V 50 H 19.5 20 V 50.5 51 H 19.5 19 Z m 5,0 V 50 H 24.5 25 V 50.5 51 H 24.5 24 Z m 5,0 V 50 H 29.5 30 V 50.5 51 H 29.5 29 Z m 5,0 V 50 H 34.5 35 V 50.5 51 H 34.5 34 Z m 5,0 V 50 H 39.5 40 V 50.5 51 H 39.5 39 Z m 5,0 V 50 H 44.5 45 V 50.5 51 H 44.5 44 Z m 5,0 V 50 H 49.5 50 V 50.5 51 H 49.5 49 Z m 5,0 V 50 H 54.5 55 V 50.5 51 H 54.5 54 Z m 5,0 V 50 H 59.5 60 V 50.5 51 H 59.5 59 Z m 5,0 V 50 H 64.5 65 V 50.5 51 H 64.5 64 Z m 5,0 V 50 H 69.5 70 V 50.5 51 H 69.5 69 Z m 5,0 V 50 H 74.5 75 V 50.5 51 H 74.5 74 Z m 5,0 V 50 H 79.5 80 V 50.5 51 H 79.5 79 Z m 5,0 V 50 H 84.5 85 V 50.5 51 H 84.5 84 Z m 7,0 V 50 H 91.5 92 V 50.5 51 H 91.5 91 Z m 7,0 V 50 H 98.5 99 V 50.5 51 H 98.5 98 Z m 7,0 V 50 h 0.5 0.5 v 0.5 0.5 h -0.5 -0.5 z m 7,0 V 50 h 0.5 0.5 v 0.5 0.5 h -0.5 -0.5 z m 7,0 V 50 h 0.5 0.5 V 50.5 51 H 119.5 119 Z M 17,49.5 V 49 H 17.5 18 V 49.5 50 H 17.5 17 Z m 5,0 V 49 H 22.5 23 V 49.5 50 H 22.5 22 Z m 5,0 V 49 H 27.5 28 V 49.5 50 H 27.5 27 Z m 5,0 V 49 H 32.5 33 V 49.5 50 H 32.5 32 Z m 5,0 V 49 H 37.5 38 V 49.5 50 H 37.5 37 Z m 5,0 V 49 H 42.5 43 V 49.5 50 H 42.5 42 Z m 5,0 V 49 H 47.5 48 V 49.5 50 H 47.5 47 Z m 5,0 V 49 H 52.5 53 V 49.5 50 H 52.5 52 Z m 5,0 V 49 H 57.5 58 V 49.5 50 H 57.5 57 Z m 5,0 V 49 H 62.5 63 V 49.5 50 H 62.5 62 Z m 5,0 V 49 H 67.5 68 V 49.5 50 H 67.5 67 Z m 5,0 V 49 H 72.5 73 V 49.5 50 H 72.5 72 Z m 5,0 V 49 H 77.5 78 V 49.5 50 H 77.5 77 Z m 5,0 V 49 H 82.5 83 V 49.5 50 H 82.5 82 Z m 7,0 V 49 H 89.5 90 V 49.5 50 H 89.5 89 Z m 7,0 V 49 H 96.5 97 V 49.5 50 H 96.5 96 Z m 7,0 V 49 h 0.5 0.5 v 0.5 0.5 h -0.5 -0.5 z m 7,0 V 49 h 0.5 0.5 v 0.5 0.5 h -0.5 -0.5 z m 7,0 V 49 h 0.5 0.5 v 0.5 0.5 h -0.5 -0.5 z m 7,0 V 49 h 0.5 0.5 V 49.5 50 H 124.5 124 Z M 14,48.5 V 48 H 14.5 15 V 48.5 49 H 14.5 14 Z m 5,0 V 48 H 19.5 20 V 48.5 49 H 19.5 19 Z m 5,0 V 48 H 24.5 25 V 48.5 49 H 24.5 24 Z m 5,0 V 48 H 29.5 30 V 48.5 49 H 29.5 29 Z m 5,0 V 48 H 34.5 35 V 48.5 49 H 34.5 34 Z m 5,0 V 48 H 39.5 40 V 48.5 49 H 39.5 39 Z m 5,0 V 48 H 44.5 45 V 48.5 49 H 44.5 44 Z m 5,0 V 48 H 49.5 50 V 48.5 49 H 49.5 49 Z m 5,0 V 48 H 54.5 55 V 48.5 49 H 54.5 54 Z m 5,0 V 48 H 59.5 60 V 48.5 49 H 59.5 59 Z m 5,0 V 48 H 64.5 65 V 48.5 49 H 64.5 64 Z m 5,0 V 48 H 69.5 70 V 48.5 49 H 69.5 69 Z m 5,0 V 48 H 74.5 75 V 48.5 49 H 74.5 74 Z m 5,0 V 48 H 79.5 80 V 48.5 49 H 79.5 79 Z m 5,0 V 48 H 84.5 85 V 48.5 49 H 84.5 84 Z m 7,0 V 48 H 91.5 92 V 48.5 49 H 91.5 91 Z m 7,0 V 48 H 98.5 99 V 48.5 49 H 98.5 98 Z m 7,0 V 48 h 0.5 0.5 v 0.5 0.5 h -0.5 -0.5 z m 7,0 V 48 h 0.5 0.5 v 0.5 0.5 h -0.5 -0.5 z m 7,0 V 48 h 0.5 0.5 V 48.5 49 H 119.5 119 Z M 17,47.5 V 47 H 17.5 18 V 47.5 48 H 17.5 17 Z m 5,0 V 47 H 22.5 23 V 47.5 48 H 22.5 22 Z m 5,0 V 47 H 27.5 28 V 47.5 48 H 27.5 27 Z m 5,0 V 47 H 32.5 33 V 47.5 48 H 32.5 32 Z m 5,0 V 47 H 37.5 38 V 47.5 48 H 37.5 37 Z m 5,0 V 47 H 42.5 43 V 47.5 48 H 42.5 42 Z m 5,0 V 47 H 47.5 48 V 47.5 48 H 47.5 47 Z m 5,0 V 47 H 52.5 53 V 47.5 48 H 52.5 52 Z m 5,0 V 47 H 57.5 58 V 47.5 48 H 57.5 57 Z m 5,0 V 47 H 62.5 63 V 47.5 48 H 62.5 62 Z m 5,0 V 47 H 67.5 68 V 47.5 48 H 67.5 67 Z m 5,0 V 47 H 72.5 73 V 47.5 48 H 72.5 72 Z m 5,0 V 47 H 77.5 78 V 47.5 48 H 77.5 77 Z m 5,0 V 47 H 82.5 83 V 47.5 48 H 82.5 82 Z m 7,0 V 47 H 89.5 90 V 47.5 48 H 89.5 89 Z m 7,0 V 47 H 96.5 97 V 47.5 48 H 96.5 96 Z m 7,0 V 47 h 0.5 0.5 v 0.5 0.5 h -0.5 -0.5 z m 7,0 V 47 h 0.5 0.5 v 0.5 0.5 h -0.5 -0.5 z m 7,0 V 47 h 0.5 0.5 v 0.5 0.5 h -0.5 -0.5 z m 7,0 V 47 h 0.5 0.5 V 47.5 48 H 124.5 124 Z M 14,46.5 V 46 H 14.5 15 V 46.5 47 H 14.5 14 Z m 5,0 V 46 H 19.5 20 V 46.5 47 H 19.5 19 Z m 5,0 V 46 H 24.5 25 V 46.5 47 H 24.5 24 Z m 5,0 V 46 H 29.5 30 V 46.5 47 H 29.5 29 Z m 5,0 V 46 H 34.5 35 V 46.5 47 H 34.5 34 Z m 5,0 V 46 H 39.5 40 V 46.5 47 H 39.5 39 Z m 5,0 V 46 H 44.5 45 V 46.5 47 H 44.5 44 Z m 5,0 V 46 H 49.5 50 V 46.5 47 H 49.5 49 Z m 5,0 V 46 H 54.5 55 V 46.5 47 H 54.5 54 Z m 5,0 V 46 H 59.5 60 V 46.5 47 H 59.5 59 Z m 5,0 V 46 H 64.5 65 V 46.5 47 H 64.5 64 Z m 5,0 V 46 H 69.5 70 V 46.5 47 H 69.5 69 Z m 5,0 V 46 H 74.5 75 V 46.5 47 H 74.5 74 Z m 5,0 V 46 H 79.5 80 V 46.5 47 H 79.5 79 Z m 5,0 V 46 H 84.5 85 V 46.5 47 H 84.5 84 Z m 7,0 V 46 H 91.5 92 V 46.5 47 H 91.5 91 Z m 7,0 V 46 H 98.5 99 V 46.5 47 H 98.5 98 Z m 7,0 V 46 h 0.5 0.5 v 0.5 0.5 h -0.5 -0.5 z m 7,0 V 46 h 0.5 0.5 v 0.5 0.5 h -0.5 -0.5 z m 7,0 V 46 h 0.5 0.5 V 46.5 47 H 119.5 119 Z M 17,45.5 V 45 H 17.5 18 V 45.5 46 H 17.5 17 Z m 5,0 V 45 H 22.5 23 V 45.5 46 H 22.5 22 Z m 5,0 V 45 H 27.5 28 V 45.5 46 H 27.5 27 Z m 5,0 V 45 H 32.5 33 V 45.5 46 H 32.5 32 Z m 5,0 V 45 H 37.5 38 V 45.5 46 H 37.5 37 Z m 5,0 V 45 H 42.5 43 V 45.5 46 H 42.5 42 Z m 5,0 V 45 H 47.5 48 V 45.5 46 H 47.5 47 Z m 5,0 V 45 H 52.5 53 V 45.5 46 H 52.5 52 Z m 5,0 V 45 H 57.5 58 V 45.5 46 H 57.5 57 Z m 5,0 V 45 H 62.5 63 V 45.5 46 H 62.5 62 Z m 5,0 V 45 H 67.5 68 V 45.5 46 H 67.5 67 Z m 5,0 V 45 H 72.5 73 V 45.5 46 H 72.5 72 Z m 5,0 V 45 H 77.5 78 V 45.5 46 H 77.5 77 Z m 5,0 V 45 H 82.5 83 V 45.5 46 H 82.5 82 Z m 7,0 V 45 H 89.5 90 V 45.5 46 H 89.5 89 Z m 7,0 V 45 H 96.5 97 V 45.5 46 H 96.5 96 Z m 7,0 V 45 h 0.5 0.5 v 0.5 0.5 h -0.5 -0.5 z m 7,0 V 45 h 0.5 0.5 v 0.5 0.5 h -0.5 -0.5 z m 7,0 V 45 h 0.5 0.5 v 0.5 0.5 h -0.5 -0.5 z m 7,0 V 45 h 0.5 0.5 V 45.5 46 H 124.5 124 Z M 14,44.5 V 44 H 14.5 15 V 44.5 45 H 14.5 14 Z m 5,0 V 44 H 19.5 20 V 44.5 45 H 19.5 19 Z m 5,0 V 44 H 24.5 25 V 44.5 45 H 24.5 24 Z m 5,0 V 44 H 29.5 30 V 44.5 45 H 29.5 29 Z m 5,0 V 44 H 34.5 35 V 44.5 45 H 34.5 34 Z m 5,0 V 44 H 39.5 40 V 44.5 45 H 39.5 39 Z m 5,0 V 44 H 44.5 45 V 44.5 45 H 44.5 44 Z m 5,0 V 44 H 49.5 50 V 44.5 45 H 49.5 49 Z m 5,0 V 44 H 54.5 55 V 44.5 45 H 54.5 54 Z m 5,0 V 44 H 59.5 60 V 44.5 45 H 59.5 59 Z m 5,0 V 44 H 64.5 65 V 44.5 45 H 64.5 64 Z m 5,0 V 44 H 69.5 70 V 44.5 45 H 69.5 69 Z m 5,0 V 44 H 74.5 75 V 44.5 45 H 74.5 74 Z m 5,0 V 44 H 79.5 80 V 44.5 45 H 79.5 79 Z m 5,0 V 44 H 84.5 85 V 44.5 45 H 84.5 84 Z m 7,0 V 44 H 91.5 92 V 44.5 45 H 91.5 91 Z m 7,0 V 44 H 98.5 99 V 44.5 45 H 98.5 98 Z m 7,0 V 44 h 0.5 0.5 v 0.5 0.5 h -0.5 -0.5 z m 7,0 V 44 h 0.5 0.5 v 0.5 0.5 h -0.5 -0.5 z m 7,0 V 44 h 0.5 0.5 V 44.5 45 H 119.5 119 Z M 17,43.5 V 43 H 17.5 18 V 43.5 44 H 17.5 17 Z m 5,0 V 43 H 22.5 23 V 43.5 44 H 22.5 22 Z m 5,0 V 43 H 27.5 28 V 43.5 44 H 27.5 27 Z m 5,0 V 43 H 32.5 33 V 43.5 44 H 32.5 32 Z m 5,0 V 43 H 37.5 38 V 43.5 44 H 37.5 37 Z m 5,0 V 43 H 42.5 43 V 43.5 44 H 42.5 42 Z m 5,0 V 43 H 47.5 48 V 43.5 44 H 47.5 47 Z m 5,0 V 43 H 52.5 53 V 43.5 44 H 52.5 52 Z m 5,0 V 43 H 57.5 58 V 43.5 44 H 57.5 57 Z m 5,0 V 43 H 62.5 63 V 43.5 44 H 62.5 62 Z m 5,0 V 43 H 67.5 68 V 43.5 44 H 67.5 67 Z m 5,0 V 43 H 72.5 73 V 43.5 44 H 72.5 72 Z m 5,0 V 43 H 77.5 78 V 43.5 44 H 77.5 77 Z m 5,0 V 43 H 82.5 83 V 43.5 44 H 82.5 82 Z m 7,0 V 43 H 89.5 90 V 43.5 44 H 89.5 89 Z m 7,0 V 43 H 96.5 97 V 43.5 44 H 96.5 96 Z m 7,0 V 43 h 0.5 0.5 v 0.5 0.5 h -0.5 -0.5 z m 7,0 V 43 h 0.5 0.5 v 0.5 0.5 h -0.5 -0.5 z m 7,0 V 43 h 0.5 0.5 v 0.5 0.5 h -0.5 -0.5 z m 7,0 V 43 h 0.5 0.5 V 43.5 44 H 124.5 124 Z M 14,42.5 V 42 H 14.5 15 V 42.5 43 H 14.5 14 Z m 5,0 V 42 H 19.5 20 V 42.5 43 H 19.5 19 Z m 5,0 V 42 H 24.5 25 V 42.5 43 H 24.5 24 Z m 5,0 V 42 H 29.5 30 V 42.5 43 H 29.5 29 Z m 5,0 V 42 H 34.5 35 V 42.5 43 H 34.5 34 Z m 5,0 V 42 H 39.5 40 V 42.5 43 H 39.5 39 Z m 5,0 V 42 H 44.5 45 V 42.5 43 H 44.5 44 Z m 5,0 V 42 H 49.5 50 V 42.5 43 H 49.5 49 Z m 5,0 V 42 H 54.5 55 V 42.5 43 H 54.5 54 Z m 5,0 V 42 H 59.5 60 V 42.5 43 H 59.5 59 Z m 5,0 V 42 H 64.5 65 V 42.5 43 H 64.5 64 Z m 5,0 V 42 H 69.5 70 V 42.5 43 H 69.5 69 Z m 5,0 V 42 H 74.5 75 V 42.5 43 H 74.5 74 Z m 5,0 V 42 H 79.5 80 V 42.5 43 H 79.5 79 Z m 5,0 V 42 H 84.5 85 V 42.5 43 H 84.5 84 Z m 7,0 V 42 H 91.5 92 V 42.5 43 H 91.5 91 Z m 7,0 V 42 H 98.5 99 V 42.5 43 H 98.5 98 Z m 7,0 V 42 h 0.5 0.5 v 0.5 0.5 h -0.5 -0.5 z m 7,0 V 42 h 0.5 0.5 v 0.5 0.5 h -0.5 -0.5 z m 7,0 V 42 h 0.5 0.5 V 42.5 43 H 119.5 119 Z M 17,41.5 V 41 H 17.5 18 V 41.5 42 H 17.5 17 Z m 5,0 V 41 H 22.5 23 V 41.5 42 H 22.5 22 Z m 5,0 V 41 H 27.5 28 V 41.5 42 H 27.5 27 Z m 5,0 V 41 H 32.5 33 V 41.5 42 H 32.5 32 Z m 5,0 V 41 H 37.5 38 V 41.5 42 H 37.5 37 Z m 5,0 V 41 H 42.5 43 V 41.5 42 H 42.5 42 Z m 5,0 V 41 H 47.5 48 V 41.5 42 H 47.5 47 Z m 5,0 V 41 H 52.5 53 V 41.5 42 H 52.5 52 Z m 5,0 V 41 H 57.5 58 V 41.5 42 H 57.5 57 Z m 5,0 V 41 H 62.5 63 V 41.5 42 H 62.5 62 Z m 5,0 V 41 H 67.5 68 V 41.5 42 H 67.5 67 Z m 5,0 V 41 H 72.5 73 V 41.5 42 H 72.5 72 Z m 5,0 V 41 H 77.5 78 V 41.5 42 H 77.5 77 Z m 5,0 V 41 H 82.5 83 V 41.5 42 H 82.5 82 Z m 7,0 V 41 H 89.5 90 V 41.5 42 H 89.5 89 Z m 7,0 V 41 H 96.5 97 V 41.5 42 H 96.5 96 Z m 7,0 V 41 h 0.5 0.5 v 0.5 0.5 h -0.5 -0.5 z m 7,0 V 41 h 0.5 0.5 v 0.5 0.5 h -0.5 -0.5 z m 7,0 V 41 h 0.5 0.5 v 0.5 0.5 h -0.5 -0.5 z m 7,0 V 41 h 0.5 0.5 V 41.5 42 H 124.5 124 Z M 14,40.5 V 40 H 14.5 15 V 40.5 41 H 14.5 14 Z m 5,0 V 40 H 19.5 20 V 40.5 41 H 19.5 19 Z m 5,0 V 40 H 24.5 25 V 40.5 41 H 24.5 24 Z m 5,0 V 40 H 29.5 30 V 40.5 41 H 29.5 29 Z m 5,0 V 40 H 34.5 35 V 40.5 41 H 34.5 34 Z m 5,0 V 40 H 39.5 40 V 40.5 41 H 39.5 39 Z m 5,0 V 40 H 44.5 45 V 40.5 41 H 44.5 44 Z m 5,0 V 40 H 49.5 50 V 40.5 41 H 49.5 49 Z m 5,0 V 40 H 54.5 55 V 40.5 41 H 54.5 54 Z m 5,0 V 40 H 59.5 60 V 40.5 41 H 59.5 59 Z m 5,0 V 40 H 64.5 65 V 40.5 41 H 64.5 64 Z m 5,0 V 40 H 69.5 70 V 40.5 41 H 69.5 69 Z m 5,0 V 40 H 74.5 75 V 40.5 41 H 74.5 74 Z m 5,0 V 40 H 79.5 80 V 40.5 41 H 79.5 79 Z m 5,0 V 40 H 84.5 85 V 40.5 41 H 84.5 84 Z m 7,0 V 40 H 91.5 92 V 40.5 41 H 91.5 91 Z m 7,0 V 40 H 98.5 99 V 40.5 41 H 98.5 98 Z m 7,0 V 40 h 0.5 0.5 v 0.5 0.5 h -0.5 -0.5 z m 7,0 V 40 h 0.5 0.5 v 0.5 0.5 h -0.5 -0.5 z m 7,0 V 40 h 0.5 0.5 V 40.5 41 H 119.5 119 Z M 16.404508,38.84549 15.690983,37.69098 16.845492,38.40451 18,39.11803 V 39.55902 40 h -0.440983 -0.440983 z m 5,0 -0.713525,-1.15451 1.154509,0.71353 L 23,39.11803 V 39.55902 40 h -0.440983 -0.440983 z m 5,0 -0.713525,-1.15451 1.154509,0.71353 L 28,39.11803 V 39.55902 40 h -0.440983 -0.440983 z m 5,0 -0.713525,-1.15451 1.154509,0.71353 L 33,39.11803 V 39.55902 40 h -0.440983 -0.440983 z m 5,0 -0.713525,-1.15451 1.154509,0.71353 L 38,39.11803 V 39.55902 40 h -0.440983 -0.440983 z m 5,0 -0.713525,-1.15451 1.154509,0.71353 L 43,39.11803 V 39.55902 40 h -0.440983 -0.440983 z m 5,0 -0.713525,-1.15451 1.154509,0.71353 L 48,39.11803 V 39.55902 40 h -0.440983 -0.440983 z m 5,0 -0.713525,-1.15451 1.154509,0.71353 L 53,39.11803 V 39.55902 40 h -0.440983 -0.440983 z m 5,0 -0.713525,-1.15451 1.154509,0.71353 L 58,39.11803 V 39.55902 40 h -0.440983 -0.440983 z m 5,0 -0.713525,-1.15451 1.154509,0.71353 L 63,39.11803 V 39.55902 40 h -0.440983 -0.440983 z m 5,0 -0.713525,-1.15451 1.154509,0.71353 L 68,39.11803 V 39.55902 40 h -0.440983 -0.440983 z m 5,0 -0.713525,-1.15451 1.154509,0.71353 L 73,39.11803 V 39.55902 40 h -0.440983 -0.440983 z m 5,0 -0.713525,-1.15451 1.154509,0.71353 L 78,39.11803 V 39.55902 40 h -0.440983 -0.440983 z m 5,0 -0.713525,-1.15451 1.154509,0.71353 L 83,39.11803 V 39.55902 40 h -0.440983 -0.440983 z m 7,0 -0.713525,-1.15451 1.154509,0.71353 L 90,39.11803 V 39.55902 40 h -0.440983 -0.440983 z m 7,0 -0.713525,-1.15451 1.154509,0.71353 L 97,39.11803 V 39.55902 40 h -0.440983 -0.440983 z m 7.000002,0 -0.71353,-1.15451 1.15451,0.71353 L 104,39.11803 V 39.55902 40 h -0.44098 -0.44099 z m 7,0 -0.71353,-1.15451 1.15451,0.71353 L 111,39.11803 V 39.55902 40 h -0.44098 -0.44099 z m 7,0 -0.71353,-1.15451 1.15451,0.71353 L 118,39.11803 V 39.55902 40 h -0.44098 -0.44099 z m 7,0 -0.71353,-1.15451 1.15451,0.71353 L 125,39.11803 V 39.55902 40 h -0.44098 -0.44099 z M 14,38.5 V 38 H 14.5 15 V 38.5 39 H 14.5 14 Z m 5,0 V 38 H 19.5 20 V 38.5 39 H 19.5 19 Z m 5,0 V 38 H 24.5 25 V 38.5 39 H 24.5 24 Z m 5,0 V 38 H 29.5 30 V 38.5 39 H 29.5 29 Z m 5,0 V 38 H 34.5 35 V 38.5 39 H 34.5 34 Z m 5,0 V 38 H 39.5 40 V 38.5 39 H 39.5 39 Z m 5,0 V 38 H 44.5 45 V 38.5 39 H 44.5 44 Z m 5,0 V 38 H 49.5 50 V 38.5 39 H 49.5 49 Z m 5,0 V 38 H 54.5 55 V 38.5 39 H 54.5 54 Z m 5,0 V 38 H 59.5 60 V 38.5 39 H 59.5 59 Z m 5,0 V 38 H 64.5 65 V 38.5 39 H 64.5 64 Z m 5,0 V 38 H 69.5 70 V 38.5 39 H 69.5 69 Z m 5,0 V 38 H 74.5 75 V 38.5 39 H 74.5 74 Z m 5,0 V 38 H 79.5 80 V 38.5 39 H 79.5 79 Z m 5,0 V 38 H 84.5 85 V 38.5 39 H 84.5 84 Z m 2,0 V 38 H 86.5 87 V 38.5 39 H 86.5 86 Z m 5,0 V 38 H 91.5 92 V 38.5 39 H 91.5 91 Z m 2,0 V 38 H 93.5 94 V 38.5 39 H 93.5 93 Z m 5,0 V 38 H 98.5 99 V 38.5 39 H 98.5 98 Z m 2,0 V 38 h 0.5 0.5 v 0.5 0.5 h -0.5 -0.5 z m 5,0 V 38 h 0.5 0.5 v 0.5 0.5 h -0.5 -0.5 z m 2,0 V 38 h 0.5 0.5 v 0.5 0.5 h -0.5 -0.5 z m 5,0 V 38 h 0.5 0.5 v 0.5 0.5 h -0.5 -0.5 z m 2,0 V 38 h 0.5 0.5 v 0.5 0.5 h -0.5 -0.5 z m 5,0 V 38 h 0.5 0.5 v 0.5 0.5 h -0.5 -0.5 z m 2,0 V 38 h 0.5 0.5 v 0.5 0.5 h -0.5 -0.5 z m -99,-3 V 35 H 22.5 23 V 35.5 36 H 22.5 22 Z m 18,0 V 35 H 40.5 41 V 35.5 36 H 40.5 40 Z m 11,0 V 35 H 51.5 52 V 35.5 36 H 51.5 51 Z m 9,0 V 35 H 60.5 61 V 35.5 36 H 60.5 60 Z m 10,0 V 35 H 70.5 71 V 35.5 36 H 70.5 70 Z m 16,0 V 35 H 86.5 87 V 35.5 36 H 86.5 86 Z m 14,0 V 35 h 0.5 0.5 v 0.5 0.5 h -0.5 -0.5 z m 7,0 V 35 h 0.5 0.5 v 0.5 0.5 h -0.5 -0.5 z m 8,0 V 35 h 0.5 0.5 V 35.5 36 H 115.5 115 Z M 1.6102442,33.17838 1.1024543,32.35676 3.0512272,30.68817 5,29.01958 V 31.50979 34 H 3.559017 2.118034 Z M 3.6666667,32.33333 3,31.66667 2.3333333,32.33333 1.6666667,33 H 3 4.3333333 Z M 6,31.5 V 28.8609 L 8.25,29.18045 10.5,29.5 v 2 2 L 8.25,33.81955 6,34.1391 Z M 9.7291667,32.39583 9.125,31.79167 7.8125,32.31689 6.5,32.84211 l 1.9166667,0.0789 1.9166663,0.079 z m 0,-2 L 9.125,29.79167 7.8125,30.31689 6.5,30.84211 l 1.9166667,0.0789 1.9166663,0.079 z m 10.1901263,2.20142 1.164183,-1.40276 -1.291738,-0.5183 -1.291738,-0.5183 1.687851,-0.0789 1.687851,-0.079 -0.150655,2 -0.150656,2 h -1.40964 -1.40964 z m 3.526856,0.31562 -0.671884,-1.08713 1.112867,-1.11287 L 25,29.6 l 1.112868,1.11287 1.112867,1.11286 -0.671884,1.08714 L 25.881966,34 H 25 24.118034 Z M 26,32 v -1 h -1 -1 v 1 1 h 1 1 z m 11.710251,0 -0.523012,-2 H 38.09362 39 v 2 2 h -0.383369 -0.383368 z m 2.735898,0.91287 -0.671884,-1.08713 1.112867,-1.11287 L 42,29.6 l 1.112868,1.11287 1.112867,1.11286 -0.671884,1.08714 L 42.881966,34 H 42 41.118034 Z M 43,32 v -1 h -1 -1 v 1 1 h 1 1 z m 7.791738,0.84725 1.291738,-1.65276 -1.291738,-0.5183 L 49.5,30.15789 51.25,30.07899 53,30 v 0.87755 0.87756 L 51.25,33.12755 49.5,34.5 Z M 60,33.09144 61.5,32.03063 60.25,32.01533 59,32 v -1 -1 h 1.411516 1.411516 l -0.248889,1.69579 -0.248889,1.69579 -1.412627,0.38034 L 58.5,34.15226 Z M 70.016738,33.32775 71.083476,32.80551 69.791738,31.24013 68.5,29.67476 70,30.17071 71.5,30.66667 V 32 33.33333 L 70.225,33.59167 68.95,33.85 Z M 84.446149,32.91287 83.774265,31.82574 84.887132,30.71287 86,29.6 l 1.112868,1.11287 1.112867,1.11286 -0.671884,1.08714 L 86.881966,34 H 86 85.118034 Z M 87,32 v -1 h -1 -1 v 1 1 h 1 1 z m 13.01674,1.32775 1.06674,-0.52224 L 99.791738,31.24013 98.5,29.67476 l 1.5,0.49595 1.5,0.49596 V 32 33.33333 L 100.225,33.59167 98.95,33.85 Z M 108,33.09144 109.5,32.03063 108.25,32.01533 107,32 v -1 -1 h 1.41152 1.41151 l -0.24889,1.69579 -0.24889,1.69579 -1.41262,0.38034 -1.41263,0.38034 z m 7.45827,-1.00811 0.23239,-1.58333 0.842,0.22251 0.842,0.2225 0.19972,1.36083 0.19973,1.36083 H 116.5 115.22589 Z M 117,31.5 V 31 h -0.5 -0.5 v 0.5 0.5 h 0.5 0.5 z m -21.447214,0.58541 -0.58541,-0.94721 0.947214,-0.58541 0.947213,-0.58541 0.585411,0.94721 0.58541,0.94721 -0.947214,0.58541 -0.947213,0.58541 z m 8.000004,0 -0.58541,-0.94721 0.94721,-0.58541 0.94721,-0.58541 0.58541,0.94721 0.58541,0.94721 -0.94721,0.58541 -0.94721,0.58541 z m 8,0 -0.58541,-0.94721 0.94721,-0.58541 0.94721,-0.58541 0.58541,0.94721 0.58541,0.94721 -0.94721,0.58541 -0.94721,0.58541 z M 15.8125,31.31689 17.125,30.79167 17.729167,31.39583 18.333333,32 16.416667,31.921 14.5,31.8421 Z m 18,0 1.3125,-0.52522 0.604167,0.60416 L 36.333333,32 34.416667,31.921 32.5,31.8421 Z m 13,0 1.3125,-0.52522 0.604167,0.60416 L 49.333333,32 47.416667,31.921 45.5,31.8421 Z m 9,0 1.3125,-0.52522 0.604167,0.60416 L 58.333333,32 56.416667,31.921 54.5,31.8421 Z m 10,0 1.3125,-0.52522 0.604167,0.60416 L 68.333333,32 66.416667,31.921 64.5,31.84211 Z M 22,28.5 V 28 H 22.5 23 V 28.5 29 H 22.5 22 Z m 18,0 V 28 H 40.5 41 V 28.5 29 H 40.5 40 Z m 11,0 V 28 H 51.5 52 V 28.5 29 H 51.5 51 Z m 9,0 V 28 H 60.5 61 V 28.5 29 H 60.5 60 Z m 10,0 V 28 H 70.5 71 V 28.5 29 H 70.5 70 Z m 16,0 V 28 H 86.5 87 V 28.5 29 H 86.5 86 Z m 14,0 V 28 h 0.5 0.5 v 0.5 0.5 h -0.5 -0.5 z m 7,0 V 28 h 0.5 0.5 v 0.5 0.5 h -0.5 -0.5 z m 8,0 V 28 h 0.5 0.5 V 28.5 29 H 115.5 115 Z M 14,25.5 V 25 H 14.5 15 V 25.5 26 H 14.5 14 Z m 2.5,-0.5 0.618034,-1 h 0.5 0.5 L 17.5,25 16.881966,26 h -0.5 -0.5 z M 19,25.5 V 25 H 19.5 20 V 25.5 26 H 19.5 19 Z m 2.5,-0.5 0.618034,-1 h 0.5 0.5 L 22.5,25 21.881966,26 h -0.5 -0.5 z M 24,25.5 V 25 H 24.5 25 V 25.5 26 H 24.5 24 Z m 2.5,-0.5 0.618034,-1 h 0.5 0.5 L 27.5,25 26.881966,26 h -0.5 -0.5 z M 29,25.5 V 25 H 29.5 30 V 25.5 26 H 29.5 29 Z m 2.5,-0.5 0.618034,-1 h 0.5 0.5 L 32.5,25 31.881966,26 h -0.5 -0.5 z M 34,25.5 V 25 H 34.5 35 V 25.5 26 H 34.5 34 Z m 2.5,-0.5 0.618034,-1 h 0.5 0.5 L 37.5,25 36.881966,26 h -0.5 -0.5 z M 39,25.5 V 25 H 39.5 40 V 25.5 26 H 39.5 39 Z m 2.5,-0.5 0.618034,-1 h 0.5 0.5 L 42.5,25 41.881966,26 h -0.5 -0.5 z M 44,25.5 V 25 H 44.5 45 V 25.5 26 H 44.5 44 Z m 2.5,-0.5 0.618034,-1 h 0.5 0.5 L 47.5,25 46.881966,26 h -0.5 -0.5 z M 49,25.5 V 25 H 49.5 50 V 25.5 26 H 49.5 49 Z m 2.5,-0.5 0.618034,-1 h 0.5 0.5 L 52.5,25 51.881966,26 h -0.5 -0.5 z M 54,25.5 V 25 H 54.5 55 V 25.5 26 H 54.5 54 Z m 2.5,-0.5 0.618034,-1 h 0.5 0.5 L 57.5,25 56.881966,26 h -0.5 -0.5 z M 59,25.5 V 25 H 59.5 60 V 25.5 26 H 59.5 59 Z m 2.5,-0.5 0.618034,-1 h 0.5 0.5 L 62.5,25 61.881966,26 h -0.5 -0.5 z M 64,25.5 V 25 H 64.5 65 V 25.5 26 H 64.5 64 Z m 2.5,-0.5 0.618034,-1 h 0.5 0.5 L 67.5,25 66.881966,26 h -0.5 -0.5 z M 69,25.5 V 25 H 69.5 70 V 25.5 26 H 69.5 69 Z m 2.5,-0.5 0.618034,-1 h 0.5 0.5 L 72.5,25 71.881966,26 h -0.5 -0.5 z M 74,25.5 V 25 H 74.5 75 V 25.5 26 H 74.5 74 Z m 2.5,-0.5 0.618034,-1 h 0.5 0.5 L 77.5,25 76.881966,26 h -0.5 -0.5 z M 79,25.5 V 25 H 79.5 80 V 25.5 26 H 79.5 79 Z m 2.5,-0.5 0.618034,-1 h 0.5 0.5 L 82.5,25 81.881966,26 h -0.5 -0.5 z M 84,25.5 V 25 H 84.5 85 V 25.5 26 H 84.5 84 Z m 2,0 V 25 H 86.5 87 V 25.5 26 H 86.5 86 Z m 2.5,-0.5 0.618034,-1 h 0.5 0.5 L 89.5,25 88.881966,26 h -0.5 -0.5 z M 91,25.5 V 25 H 91.5 92 V 25.5 26 H 91.5 91 Z m 2,0 V 25 H 93.5 94 V 25.5 26 H 93.5 93 Z m 2.5,-0.5 0.618034,-1 h 0.5 0.5 L 96.5,25 95.881966,26 h -0.5 -0.5 z M 98,25.5 V 25 H 98.5 99 V 25.5 26 H 98.5 98 Z m 2,0 V 25 h 0.5 0.5 v 0.5 0.5 h -0.5 -0.5 z m 2.5,-0.5 0.61803,-1 h 0.5 0.5 l -0.61803,1 -0.61803,1 h -0.5 -0.5 z m 2.5,0.5 V 25 h 0.5 0.5 v 0.5 0.5 h -0.5 -0.5 z m 2,0 V 25 h 0.5 0.5 v 0.5 0.5 h -0.5 -0.5 z m 2.5,-0.5 0.61803,-1 h 0.5 0.5 l -0.61803,1 -0.61803,1 h -0.5 -0.5 z m 2.5,0.5 V 25 h 0.5 0.5 v 0.5 0.5 h -0.5 -0.5 z m 2,0 V 25 h 0.5 0.5 v 0.5 0.5 h -0.5 -0.5 z m 2.5,-0.5 0.61803,-1 h 0.5 0.5 l -0.61803,1 -0.61803,1 h -0.5 -0.5 z m 2.5,0.5 V 25 h 0.5 0.5 v 0.5 0.5 h -0.5 -0.5 z m 2,0 V 25 h 0.5 0.5 v 0.5 0.5 h -0.5 -0.5 z m 2.5,-0.5 0.61803,-1 h 0.5 0.5 l -0.61803,1 -0.61803,1 h -0.5 -0.5 z M 14,23.5 V 23 H 14.5 15 V 23.5 24 H 14.5 14 Z m 5,0 V 23 H 19.5 20 V 23.5 24 H 19.5 19 Z m 5,0 V 23 H 24.5 25 V 23.5 24 H 24.5 24 Z m 5,0 V 23 H 29.5 30 V 23.5 24 H 29.5 29 Z m 5,0 V 23 H 34.5 35 V 23.5 24 H 34.5 34 Z m 5,0 V 23 H 39.5 40 V 23.5 24 H 39.5 39 Z m 5,0 V 23 H 44.5 45 V 23.5 24 H 44.5 44 Z m 5,0 V 23 H 49.5 50 V 23.5 24 H 49.5 49 Z m 5,0 V 23 H 54.5 55 V 23.5 24 H 54.5 54 Z m 5,0 V 23 H 59.5 60 V 23.5 24 H 59.5 59 Z m 5,0 V 23 H 64.5 65 V 23.5 24 H 64.5 64 Z m 5,0 V 23 H 69.5 70 V 23.5 24 H 69.5 69 Z m 5,0 V 23 H 74.5 75 V 23.5 24 H 74.5 74 Z m 5,0 V 23 H 79.5 80 V 23.5 24 H 79.5 79 Z m 5,0 V 23 H 84.5 85 V 23.5 24 H 84.5 84 Z m 7,0 V 23 H 91.5 92 V 23.5 24 H 91.5 91 Z m 7,0 V 23 H 98.5 99 V 23.5 24 H 98.5 98 Z m 7,0 V 23 h 0.5 0.5 v 0.5 0.5 h -0.5 -0.5 z m 7,0 V 23 h 0.5 0.5 v 0.5 0.5 h -0.5 -0.5 z m 7,0 V 23 h 0.5 0.5 V 23.5 24 H 119.5 119 Z M 17,22.5 V 22 H 17.5 18 V 22.5 23 H 17.5 17 Z m 5,0 V 22 H 22.5 23 V 22.5 23 H 22.5 22 Z m 5,0 V 22 H 27.5 28 V 22.5 23 H 27.5 27 Z m 5,0 V 22 H 32.5 33 V 22.5 23 H 32.5 32 Z m 5,0 V 22 H 37.5 38 V 22.5 23 H 37.5 37 Z m 5,0 V 22 H 42.5 43 V 22.5 23 H 42.5 42 Z m 5,0 V 22 H 47.5 48 V 22.5 23 H 47.5 47 Z m 5,0 V 22 H 52.5 53 V 22.5 23 H 52.5 52 Z m 5,0 V 22 H 57.5 58 V 22.5 23 H 57.5 57 Z m 5,0 V 22 H 62.5 63 V 22.5 23 H 62.5 62 Z m 5,0 V 22 H 67.5 68 V 22.5 23 H 67.5 67 Z m 5,0 V 22 H 72.5 73 V 22.5 23 H 72.5 72 Z m 5,0 V 22 H 77.5 78 V 22.5 23 H 77.5 77 Z m 5,0 V 22 H 82.5 83 V 22.5 23 H 82.5 82 Z m 7,0 V 22 H 89.5 90 V 22.5 23 H 89.5 89 Z m 7,0 V 22 H 96.5 97 V 22.5 23 H 96.5 96 Z m 7,0 V 22 h 0.5 0.5 v 0.5 0.5 h -0.5 -0.5 z m 7,0 V 22 h 0.5 0.5 v 0.5 0.5 h -0.5 -0.5 z m 7,0 V 22 h 0.5 0.5 v 0.5 0.5 h -0.5 -0.5 z m 7,0 V 22 h 0.5 0.5 V 22.5 23 H 124.5 124 Z M 3,15.5 V 9 H 4.5 6 v 5 5 H 8.5 11 V 20.5 22 H 7 3 Z M 7.8001238,20.28858 5.1002475,19.87683 4.7351061,14.68841 4.3699647,9.5 4.1849823,15.25 4,21 7.25,20.85017 10.5,20.70034 Z M 14,21.5 V 21 H 14.5 15 V 21.5 22 H 14.5 14 Z m 5,0 V 21 H 19.5 20 V 21.5 22 H 19.5 19 Z m 5,0 V 21 H 24.5 25 V 21.5 22 H 24.5 24 Z m 5,0 V 21 H 29.5 30 V 21.5 22 H 29.5 29 Z m 5,0 V 21 H 34.5 35 V 21.5 22 H 34.5 34 Z m 5,0 V 21 H 39.5 40 V 21.5 22 H 39.5 39 Z m 5,0 V 21 H 44.5 45 V 21.5 22 H 44.5 44 Z m 5,0 V 21 H 49.5 50 V 21.5 22 H 49.5 49 Z m 5,0 V 21 H 54.5 55 V 21.5 22 H 54.5 54 Z m 5,0 V 21 H 59.5 60 V 21.5 22 H 59.5 59 Z m 5,0 V 21 H 64.5 65 V 21.5 22 H 64.5 64 Z m 5,0 V 21 H 69.5 70 V 21.5 22 H 69.5 69 Z m 5,0 V 21 H 74.5 75 V 21.5 22 H 74.5 74 Z m 5,0 V 21 H 79.5 80 V 21.5 22 H 79.5 79 Z m 5,0 V 21 H 84.5 85 V 21.5 22 H 84.5 84 Z m 7,0 V 21 H 91.5 92 V 21.5 22 H 91.5 91 Z m 7,0 V 21 H 98.5 99 V 21.5 22 H 98.5 98 Z m 7,0 V 21 h 0.5 0.5 v 0.5 0.5 h -0.5 -0.5 z m 7,0 V 21 h 0.5 0.5 v 0.5 0.5 h -0.5 -0.5 z m 7,0 V 21 h 0.5 0.5 V 21.5 22 H 119.5 119 Z M 17,20.5 V 20 H 17.5 18 V 20.5 21 H 17.5 17 Z m 5,0 V 20 H 22.5 23 V 20.5 21 H 22.5 22 Z m 5,0 V 20 H 27.5 28 V 20.5 21 H 27.5 27 Z m 5,0 V 20 H 32.5 33 V 20.5 21 H 32.5 32 Z m 5,0 V 20 H 37.5 38 V 20.5 21 H 37.5 37 Z m 5,0 V 20 H 42.5 43 V 20.5 21 H 42.5 42 Z m 5,0 V 20 H 47.5 48 V 20.5 21 H 47.5 47 Z m 5,0 V 20 H 52.5 53 V 20.5 21 H 52.5 52 Z m 5,0 V 20 H 57.5 58 V 20.5 21 H 57.5 57 Z m 5,0 V 20 H 62.5 63 V 20.5 21 H 62.5 62 Z m 5,0 V 20 H 67.5 68 V 20.5 21 H 67.5 67 Z m 5,0 V 20 H 72.5 73 V 20.5 21 H 72.5 72 Z m 5,0 V 20 H 77.5 78 V 20.5 21 H 77.5 77 Z m 5,0 V 20 H 82.5 83 V 20.5 21 H 82.5 82 Z m 7,0 V 20 H 89.5 90 V 20.5 21 H 89.5 89 Z m 7,0 V 20 H 96.5 97 V 20.5 21 H 96.5 96 Z m 7,0 V 20 h 0.5 0.5 v 0.5 0.5 h -0.5 -0.5 z m 7,0 V 20 h 0.5 0.5 v 0.5 0.5 h -0.5 -0.5 z m 7,0 V 20 h 0.5 0.5 v 0.5 0.5 h -0.5 -0.5 z m 7,0 V 20 h 0.5 0.5 V 20.5 21 H 124.5 124 Z M 14,19.5 V 19 H 14.5 15 V 19.5 20 H 14.5 14 Z m 5,0 V 19 H 19.5 20 V 19.5 20 H 19.5 19 Z m 5,0 V 19 H 24.5 25 V 19.5 20 H 24.5 24 Z m 5,0 V 19 H 29.5 30 V 19.5 20 H 29.5 29 Z m 5,0 V 19 H 34.5 35 V 19.5 20 H 34.5 34 Z m 5,0 V 19 H 39.5 40 V 19.5 20 H 39.5 39 Z m 5,0 V 19 H 44.5 45 V 19.5 20 H 44.5 44 Z m 5,0 V 19 H 49.5 50 V 19.5 20 H 49.5 49 Z m 5,0 V 19 H 54.5 55 V 19.5 20 H 54.5 54 Z m 5,0 V 19 H 59.5 60 V 19.5 20 H 59.5 59 Z m 5,0 V 19 H 64.5 65 V 19.5 20 H 64.5 64 Z m 5,0 V 19 H 69.5 70 V 19.5 20 H 69.5 69 Z m 5,0 V 19 H 74.5 75 V 19.5 20 H 74.5 74 Z m 5,0 V 19 H 79.5 80 V 19.5 20 H 79.5 79 Z m 5,0 V 19 H 84.5 85 V 19.5 20 H 84.5 84 Z m 7,0 V 19 H 91.5 92 V 19.5 20 H 91.5 91 Z m 7,0 V 19 H 98.5 99 V 19.5 20 H 98.5 98 Z m 7,0 V 19 h 0.5 0.5 v 0.5 0.5 h -0.5 -0.5 z m 7,0 V 19 h 0.5 0.5 v 0.5 0.5 h -0.5 -0.5 z m 7,0 V 19 h 0.5 0.5 V 19.5 20 H 119.5 119 Z M 17,18.5 V 18 H 17.5 18 V 18.5 19 H 17.5 17 Z m 5,0 V 18 H 22.5 23 V 18.5 19 H 22.5 22 Z m 5,0 V 18 H 27.5 28 V 18.5 19 H 27.5 27 Z m 5,0 V 18 H 32.5 33 V 18.5 19 H 32.5 32 Z m 5,0 V 18 H 37.5 38 V 18.5 19 H 37.5 37 Z m 5,0 V 18 H 42.5 43 V 18.5 19 H 42.5 42 Z m 5,0 V 18 H 47.5 48 V 18.5 19 H 47.5 47 Z m 5,0 V 18 H 52.5 53 V 18.5 19 H 52.5 52 Z m 5,0 V 18 H 57.5 58 V 18.5 19 H 57.5 57 Z m 5,0 V 18 H 62.5 63 V 18.5 19 H 62.5 62 Z m 5,0 V 18 H 67.5 68 V 18.5 19 H 67.5 67 Z m 5,0 V 18 H 72.5 73 V 18.5 19 H 72.5 72 Z m 5,0 V 18 H 77.5 78 V 18.5 19 H 77.5 77 Z m 5,0 V 18 H 82.5 83 V 18.5 19 H 82.5 82 Z m 7,0 V 18 H 89.5 90 V 18.5 19 H 89.5 89 Z m 7,0 V 18 H 96.5 97 V 18.5 19 H 96.5 96 Z m 7,0 V 18 h 0.5 0.5 v 0.5 0.5 h -0.5 -0.5 z m 7,0 V 18 h 0.5 0.5 v 0.5 0.5 h -0.5 -0.5 z m 7,0 V 18 h 0.5 0.5 v 0.5 0.5 h -0.5 -0.5 z m 7,0 V 18 h 0.5 0.5 V 18.5 19 H 124.5 124 Z M 14,17.5 V 17 H 14.5 15 V 17.5 18 H 14.5 14 Z m 5,0 V 17 H 19.5 20 V 17.5 18 H 19.5 19 Z m 5,0 V 17 H 24.5 25 V 17.5 18 H 24.5 24 Z m 5,0 V 17 H 29.5 30 V 17.5 18 H 29.5 29 Z m 5,0 V 17 H 34.5 35 V 17.5 18 H 34.5 34 Z m 5,0 V 17 H 39.5 40 V 17.5 18 H 39.5 39 Z m 5,0 V 17 H 44.5 45 V 17.5 18 H 44.5 44 Z m 5,0 V 17 H 49.5 50 V 17.5 18 H 49.5 49 Z m 5,0 V 17 H 54.5 55 V 17.5 18 H 54.5 54 Z m 5,0 V 17 H 59.5 60 V 17.5 18 H 59.5 59 Z m 5,0 V 17 H 64.5 65 V 17.5 18 H 64.5 64 Z m 5,0 V 17 H 69.5 70 V 17.5 18 H 69.5 69 Z m 5,0 V 17 H 74.5 75 V 17.5 18 H 74.5 74 Z m 5,0 V 17 H 79.5 80 V 17.5 18 H 79.5 79 Z m 5,0 V 17 H 84.5 85 V 17.5 18 H 84.5 84 Z m 7,0 V 17 H 91.5 92 V 17.5 18 H 91.5 91 Z m 7,0 V 17 H 98.5 99 V 17.5 18 H 98.5 98 Z m 7,0 V 17 h 0.5 0.5 v 0.5 0.5 h -0.5 -0.5 z m 7,0 V 17 h 0.5 0.5 v 0.5 0.5 h -0.5 -0.5 z m 7,0 V 17 h 0.5 0.5 V 17.5 18 H 119.5 119 Z M 17,16.5 V 16 H 17.5 18 V 16.5 17 H 17.5 17 Z m 5,0 V 16 H 22.5 23 V 16.5 17 H 22.5 22 Z m 5,0 V 16 H 27.5 28 V 16.5 17 H 27.5 27 Z m 5,0 V 16 H 32.5 33 V 16.5 17 H 32.5 32 Z m 5,0 V 16 H 37.5 38 V 16.5 17 H 37.5 37 Z m 5,0 V 16 H 42.5 43 V 16.5 17 H 42.5 42 Z m 5,0 V 16 H 47.5 48 V 16.5 17 H 47.5 47 Z m 5,0 V 16 H 52.5 53 V 16.5 17 H 52.5 52 Z m 5,0 V 16 H 57.5 58 V 16.5 17 H 57.5 57 Z m 5,0 V 16 H 62.5 63 V 16.5 17 H 62.5 62 Z m 5,0 V 16 H 67.5 68 V 16.5 17 H 67.5 67 Z m 5,0 V 16 H 72.5 73 V 16.5 17 H 72.5 72 Z m 5,0 V 16 H 77.5 78 V 16.5 17 H 77.5 77 Z m 5,0 V 16 H 82.5 83 V 16.5 17 H 82.5 82 Z m 7,0 V 16 H 89.5 90 V 16.5 17 H 89.5 89 Z m 7,0 V 16 H 96.5 97 V 16.5 17 H 96.5 96 Z m 7,0 V 16 h 0.5 0.5 v 0.5 0.5 h -0.5 -0.5 z m 7,0 V 16 h 0.5 0.5 v 0.5 0.5 h -0.5 -0.5 z m 7,0 V 16 h 0.5 0.5 v 0.5 0.5 h -0.5 -0.5 z m 7,0 V 16 h 0.5 0.5 V 16.5 17 H 124.5 124 Z M 14,15.5 V 15 H 14.5 15 V 15.5 16 H 14.5 14 Z m 5,0 V 15 H 19.5 20 V 15.5 16 H 19.5 19 Z m 5,0 V 15 H 24.5 25 V 15.5 16 H 24.5 24 Z m 5,0 V 15 H 29.5 30 V 15.5 16 H 29.5 29 Z m 5,0 V 15 H 34.5 35 V 15.5 16 H 34.5 34 Z m 5,0 V 15 H 39.5 40 V 15.5 16 H 39.5 39 Z m 5,0 V 15 H 44.5 45 V 15.5 16 H 44.5 44 Z m 5,0 V 15 H 49.5 50 V 15.5 16 H 49.5 49 Z m 5,0 V 15 H 54.5 55 V 15.5 16 H 54.5 54 Z m 5,0 V 15 H 59.5 60 V 15.5 16 H 59.5 59 Z m 5,0 V 15 H 64.5 65 V 15.5 16 H 64.5 64 Z m 5,0 V 15 H 69.5 70 V 15.5 16 H 69.5 69 Z m 5,0 V 15 H 74.5 75 V 15.5 16 H 74.5 74 Z m 5,0 V 15 H 79.5 80 V 15.5 16 H 79.5 79 Z m 5,0 V 15 H 84.5 85 V 15.5 16 H 84.5 84 Z m 7,0 V 15 H 91.5 92 V 15.5 16 H 91.5 91 Z m 7,0 V 15 H 98.5 99 V 15.5 16 H 98.5 98 Z m 7,0 V 15 h 0.5 0.5 v 0.5 0.5 h -0.5 -0.5 z m 7,0 V 15 h 0.5 0.5 v 0.5 0.5 h -0.5 -0.5 z m 7,0 V 15 h 0.5 0.5 V 15.5 16 H 119.5 119 Z M 17,14.5 V 14 H 17.5 18 V 14.5 15 H 17.5 17 Z m 5,0 V 14 H 22.5 23 V 14.5 15 H 22.5 22 Z m 5,0 V 14 H 27.5 28 V 14.5 15 H 27.5 27 Z m 5,0 V 14 H 32.5 33 V 14.5 15 H 32.5 32 Z m 5,0 V 14 H 37.5 38 V 14.5 15 H 37.5 37 Z m 5,0 V 14 H 42.5 43 V 14.5 15 H 42.5 42 Z m 5,0 V 14 H 47.5 48 V 14.5 15 H 47.5 47 Z m 5,0 V 14 H 52.5 53 V 14.5 15 H 52.5 52 Z m 5,0 V 14 H 57.5 58 V 14.5 15 H 57.5 57 Z m 5,0 V 14 H 62.5 63 V 14.5 15 H 62.5 62 Z m 5,0 V 14 H 67.5 68 V 14.5 15 H 67.5 67 Z m 5,0 V 14 H 72.5 73 V 14.5 15 H 72.5 72 Z m 5,0 V 14 H 77.5 78 V 14.5 15 H 77.5 77 Z m 5,0 V 14 H 82.5 83 V 14.5 15 H 82.5 82 Z m 7,0 V 14 H 89.5 90 V 14.5 15 H 89.5 89 Z m 7,0 V 14 H 96.5 97 V 14.5 15 H 96.5 96 Z m 7,0 V 14 h 0.5 0.5 v 0.5 0.5 h -0.5 -0.5 z m 7,0 V 14 h 0.5 0.5 v 0.5 0.5 h -0.5 -0.5 z m 7,0 V 14 h 0.5 0.5 v 0.5 0.5 h -0.5 -0.5 z m 7,0 V 14 h 0.5 0.5 V 14.5 15 H 124.5 124 Z M 14,13.5 V 13 H 14.5 15 V 13.5 14 H 14.5 14 Z m 5,0 V 13 H 19.5 20 V 13.5 14 H 19.5 19 Z m 5,0 V 13 H 24.5 25 V 13.5 14 H 24.5 24 Z m 5,0 V 13 H 29.5 30 V 13.5 14 H 29.5 29 Z m 5,0 V 13 H 34.5 35 V 13.5 14 H 34.5 34 Z m 5,0 V 13 H 39.5 40 V 13.5 14 H 39.5 39 Z m 5,0 V 13 H 44.5 45 V 13.5 14 H 44.5 44 Z m 5,0 V 13 H 49.5 50 V 13.5 14 H 49.5 49 Z m 5,0 V 13 H 54.5 55 V 13.5 14 H 54.5 54 Z m 5,0 V 13 H 59.5 60 V 13.5 14 H 59.5 59 Z m 5,0 V 13 H 64.5 65 V 13.5 14 H 64.5 64 Z m 5,0 V 13 H 69.5 70 V 13.5 14 H 69.5 69 Z m 5,0 V 13 H 74.5 75 V 13.5 14 H 74.5 74 Z m 5,0 V 13 H 79.5 80 V 13.5 14 H 79.5 79 Z m 5,0 V 13 H 84.5 85 V 13.5 14 H 84.5 84 Z m 7,0 V 13 H 91.5 92 V 13.5 14 H 91.5 91 Z m 7,0 V 13 H 98.5 99 V 13.5 14 H 98.5 98 Z m 7,0 V 13 h 0.5 0.5 v 0.5 0.5 h -0.5 -0.5 z m 7,0 V 13 h 0.5 0.5 v 0.5 0.5 h -0.5 -0.5 z m 7,0 V 13 h 0.5 0.5 V 13.5 14 H 119.5 119 Z M 17,12.5 V 12 H 17.5 18 V 12.5 13 H 17.5 17 Z m 5,0 V 12 H 22.5 23 V 12.5 13 H 22.5 22 Z m 5,0 V 12 H 27.5 28 V 12.5 13 H 27.5 27 Z m 5,0 V 12 H 32.5 33 V 12.5 13 H 32.5 32 Z m 5,0 V 12 H 37.5 38 V 12.5 13 H 37.5 37 Z m 5,0 V 12 H 42.5 43 V 12.5 13 H 42.5 42 Z m 5,0 V 12 H 47.5 48 V 12.5 13 H 47.5 47 Z m 5,0 V 12 H 52.5 53 V 12.5 13 H 52.5 52 Z m 5,0 V 12 H 57.5 58 V 12.5 13 H 57.5 57 Z m 5,0 V 12 H 62.5 63 V 12.5 13 H 62.5 62 Z m 5,0 V 12 H 67.5 68 V 12.5 13 H 67.5 67 Z m 5,0 V 12 H 72.5 73 V 12.5 13 H 72.5 72 Z m 5,0 V 12 H 77.5 78 V 12.5 13 H 77.5 77 Z m 5,0 V 12 H 82.5 83 V 12.5 13 H 82.5 82 Z m 7,0 V 12 H 89.5 90 V 12.5 13 H 89.5 89 Z m 7,0 V 12 H 96.5 97 V 12.5 13 H 96.5 96 Z m 7,0 V 12 h 0.5 0.5 v 0.5 0.5 h -0.5 -0.5 z m 7,0 V 12 h 0.5 0.5 v 0.5 0.5 h -0.5 -0.5 z m 7,0 V 12 h 0.5 0.5 v 0.5 0.5 h -0.5 -0.5 z m 7,0 V 12 h 0.5 0.5 V 12.5 13 H 124.5 124 Z M 14,11.5 V 11 H 14.5 15 V 11.5 12 H 14.5 14 Z m 5,0 V 11 H 19.5 20 V 11.5 12 H 19.5 19 Z m 5,0 V 11 H 24.5 25 V 11.5 12 H 24.5 24 Z m 5,0 V 11 H 29.5 30 V 11.5 12 H 29.5 29 Z m 5,0 V 11 H 34.5 35 V 11.5 12 H 34.5 34 Z m 5,0 V 11 H 39.5 40 V 11.5 12 H 39.5 39 Z m 5,0 V 11 H 44.5 45 V 11.5 12 H 44.5 44 Z m 5,0 V 11 H 49.5 50 V 11.5 12 H 49.5 49 Z m 5,0 V 11 H 54.5 55 V 11.5 12 H 54.5 54 Z m 5,0 V 11 H 59.5 60 V 11.5 12 H 59.5 59 Z m 5,0 V 11 H 64.5 65 V 11.5 12 H 64.5 64 Z m 5,0 V 11 H 69.5 70 V 11.5 12 H 69.5 69 Z m 5,0 V 11 H 74.5 75 V 11.5 12 H 74.5 74 Z m 5,0 V 11 H 79.5 80 V 11.5 12 H 79.5 79 Z m 5,0 V 11 H 84.5 85 V 11.5 12 H 84.5 84 Z m 7,0 V 11 H 91.5 92 V 11.5 12 H 91.5 91 Z m 7,0 V 11 H 98.5 99 V 11.5 12 H 98.5 98 Z m 7,0 V 11 h 0.5 0.5 v 0.5 0.5 h -0.5 -0.5 z m 7,0 V 11 h 0.5 0.5 v 0.5 0.5 h -0.5 -0.5 z m 7,0 V 11 h 0.5 0.5 V 11.5 12 H 119.5 119 Z M 17,10.5 V 10 H 17.5 18 V 10.5 11 H 17.5 17 Z m 5,0 V 10 H 22.5 23 V 10.5 11 H 22.5 22 Z m 5,0 V 10 H 27.5 28 V 10.5 11 H 27.5 27 Z m 5,0 V 10 H 32.5 33 V 10.5 11 H 32.5 32 Z m 5,0 V 10 H 37.5 38 V 10.5 11 H 37.5 37 Z m 5,0 V 10 H 42.5 43 V 10.5 11 H 42.5 42 Z m 5,0 V 10 H 47.5 48 V 10.5 11 H 47.5 47 Z m 5,0 V 10 H 52.5 53 V 10.5 11 H 52.5 52 Z m 5,0 V 10 H 57.5 58 V 10.5 11 H 57.5 57 Z m 5,0 V 10 H 62.5 63 V 10.5 11 H 62.5 62 Z m 5,0 V 10 H 67.5 68 V 10.5 11 H 67.5 67 Z m 5,0 V 10 H 72.5 73 V 10.5 11 H 72.5 72 Z m 5,0 V 10 H 77.5 78 V 10.5 11 H 77.5 77 Z m 5,0 V 10 H 82.5 83 V 10.5 11 H 82.5 82 Z m 7,0 V 10 H 89.5 90 V 10.5 11 H 89.5 89 Z m 7,0 V 10 H 96.5 97 V 10.5 11 H 96.5 96 Z m 7,0 V 10 h 0.5 0.5 v 0.5 0.5 h -0.5 -0.5 z m 7,0 V 10 h 0.5 0.5 v 0.5 0.5 h -0.5 -0.5 z m 7,0 V 10 h 0.5 0.5 v 0.5 0.5 h -0.5 -0.5 z m 7,0 V 10 h 0.5 0.5 V 10.5 11 H 124.5 124 Z M 14,9.5 V 9 H 14.5 15 V 9.5 10 H 14.5 14 Z m 5,0 V 9 H 19.5 20 V 9.5 10 H 19.5 19 Z m 5,0 V 9 H 24.5 25 V 9.5 10 H 24.5 24 Z m 5,0 V 9 H 29.5 30 V 9.5 10 H 29.5 29 Z m 5,0 V 9 H 34.5 35 V 9.5 10 H 34.5 34 Z m 5,0 V 9 H 39.5 40 V 9.5 10 H 39.5 39 Z m 5,0 V 9 H 44.5 45 V 9.5 10 H 44.5 44 Z m 5,0 V 9 H 49.5 50 V 9.5 10 H 49.5 49 Z m 5,0 V 9 H 54.5 55 V 9.5 10 H 54.5 54 Z m 5,0 V 9 H 59.5 60 V 9.5 10 H 59.5 59 Z m 5,0 V 9 H 64.5 65 V 9.5 10 H 64.5 64 Z m 5,0 V 9 H 69.5 70 V 9.5 10 H 69.5 69 Z m 5,0 V 9 H 74.5 75 V 9.5 10 H 74.5 74 Z m 5,0 V 9 H 79.5 80 V 9.5 10 H 79.5 79 Z m 5,0 V 9 H 84.5 85 V 9.5 10 H 84.5 84 Z m 7,0 V 9 H 91.5 92 V 9.5 10 H 91.5 91 Z m 7,0 V 9 H 98.5 99 V 9.5 10 H 98.5 98 Z m 7,0 V 9 h 0.5 0.5 V 9.5 10 h -0.5 -0.5 z m 7,0 V 9 h 0.5 0.5 V 9.5 10 h -0.5 -0.5 z m 7,0 V 9 h 0.5 0.5 V 9.5 10 H 119.5 119 Z M 17,8.5 V 8 H 17.5 18 V 8.5 9 H 17.5 17 Z m 5,0 V 8 H 22.5 23 V 8.5 9 H 22.5 22 Z m 5,0 V 8 H 27.5 28 V 8.5 9 H 27.5 27 Z m 5,0 V 8 H 32.5 33 V 8.5 9 H 32.5 32 Z m 5,0 V 8 H 37.5 38 V 8.5 9 H 37.5 37 Z m 5,0 V 8 H 42.5 43 V 8.5 9 H 42.5 42 Z m 5,0 V 8 H 47.5 48 V 8.5 9 H 47.5 47 Z m 5,0 V 8 H 52.5 53 V 8.5 9 H 52.5 52 Z m 5,0 V 8 H 57.5 58 V 8.5 9 H 57.5 57 Z m 5,0 V 8 H 62.5 63 V 8.5 9 H 62.5 62 Z m 5,0 V 8 H 67.5 68 V 8.5 9 H 67.5 67 Z m 5,0 V 8 H 72.5 73 V 8.5 9 H 72.5 72 Z m 5,0 V 8 H 77.5 78 V 8.5 9 H 77.5 77 Z m 5,0 V 8 H 82.5 83 V 8.5 9 H 82.5 82 Z m 7,0 V 8 H 89.5 90 V 8.5 9 H 89.5 89 Z m 7,0 V 8 H 96.5 97 V 8.5 9 H 96.5 96 Z m 7,0 V 8 h 0.5 0.5 V 8.5 9 h -0.5 -0.5 z m 7,0 V 8 h 0.5 0.5 V 8.5 9 h -0.5 -0.5 z m 7,0 V 8 h 0.5 0.5 V 8.5 9 h -0.5 -0.5 z m 7,0 V 8 h 0.5 0.5 V 8.5 9 H 124.5 124 Z M 14,7.5 V 7 H 14.5 15 V 7.5 8 H 14.5 14 Z m 5,0 V 7 H 19.5 20 V 7.5 8 H 19.5 19 Z m 5,0 V 7 H 24.5 25 V 7.5 8 H 24.5 24 Z m 5,0 V 7 H 29.5 30 V 7.5 8 H 29.5 29 Z m 5,0 V 7 H 34.5 35 V 7.5 8 H 34.5 34 Z m 5,0 V 7 H 39.5 40 V 7.5 8 H 39.5 39 Z m 5,0 V 7 H 44.5 45 V 7.5 8 H 44.5 44 Z m 5,0 V 7 H 49.5 50 V 7.5 8 H 49.5 49 Z m 5,0 V 7 H 54.5 55 V 7.5 8 H 54.5 54 Z m 5,0 V 7 H 59.5 60 V 7.5 8 H 59.5 59 Z m 5,0 V 7 H 64.5 65 V 7.5 8 H 64.5 64 Z m 5,0 V 7 H 69.5 70 V 7.5 8 H 69.5 69 Z m 5,0 V 7 H 74.5 75 V 7.5 8 H 74.5 74 Z m 5,0 V 7 H 79.5 80 V 7.5 8 H 79.5 79 Z m 5,0 V 7 H 84.5 85 V 7.5 8 H 84.5 84 Z m 7,0 V 7 H 91.5 92 V 7.5 8 H 91.5 91 Z m 7,0 V 7 H 98.5 99 V 7.5 8 H 98.5 98 Z m 7,0 V 7 h 0.5 0.5 V 7.5 8 h -0.5 -0.5 z m 7,0 V 7 h 0.5 0.5 V 7.5 8 h -0.5 -0.5 z m 7,0 V 7 h 0.5 0.5 V 7.5 8 H 119.5 119 Z M 16.404508,5.84549 15.690983,4.69098 16.845492,5.40451 18,6.11803 V 6.55902 7 h -0.440983 -0.440983 z m 5,0 L 20.690983,4.69098 21.845492,5.40451 23,6.11803 V 6.55902 7 h -0.440983 -0.440983 z m 5,0 L 25.690983,4.69098 26.845492,5.40451 28,6.11803 V 6.55902 7 h -0.440983 -0.440983 z m 5,0 L 30.690983,4.69098 31.845492,5.40451 33,6.11803 V 6.55902 7 h -0.440983 -0.440983 z m 5,0 L 35.690983,4.69098 36.845492,5.40451 38,6.11803 V 6.55902 7 h -0.440983 -0.440983 z m 5,0 L 40.690983,4.69098 41.845492,5.40451 43,6.11803 V 6.55902 7 h -0.440983 -0.440983 z m 5,0 L 45.690983,4.69098 46.845492,5.40451 48,6.11803 V 6.55902 7 h -0.440983 -0.440983 z m 5,0 L 50.690983,4.69098 51.845492,5.40451 53,6.11803 V 6.55902 7 h -0.440983 -0.440983 z m 5,0 L 55.690983,4.69098 56.845492,5.40451 58,6.11803 V 6.55902 7 h -0.440983 -0.440983 z m 5,0 L 60.690983,4.69098 61.845492,5.40451 63,6.11803 V 6.55902 7 h -0.440983 -0.440983 z m 5,0 L 65.690983,4.69098 66.845492,5.40451 68,6.11803 V 6.55902 7 h -0.440983 -0.440983 z m 5,0 L 70.690983,4.69098 71.845492,5.40451 73,6.11803 V 6.55902 7 h -0.440983 -0.440983 z m 5,0 L 75.690983,4.69098 76.845492,5.40451 78,6.11803 V 6.55902 7 h -0.440983 -0.440983 z m 5,0 L 80.690983,4.69098 81.845492,5.40451 83,6.11803 V 6.55902 7 h -0.440983 -0.440983 z m 7,0 L 87.690983,4.69098 88.845492,5.40451 90,6.11803 V 6.55902 7 h -0.440983 -0.440983 z m 7,0 L 94.690983,4.69098 95.845492,5.40451 97,6.11803 V 6.55902 7 h -0.440983 -0.440983 z m 7.000002,0 -0.71353,-1.15451 1.15451,0.71353 L 104,6.11803 V 6.55902 7 h -0.44098 -0.44099 z m 7,0 -0.71353,-1.15451 1.15451,0.71353 L 111,6.11803 V 6.55902 7 h -0.44098 -0.44099 z m 7,0 -0.71353,-1.15451 1.15451,0.71353 L 118,6.11803 V 6.55902 7 h -0.44098 -0.44099 z m 7,0 -0.71353,-1.15451 1.15451,0.71353 L 125,6.11803 V 6.55902 7 h -0.44098 -0.44099 z M 14,5.5 V 5 H 14.5 15 V 5.5 6 H 14.5 14 Z m 5,0 V 5 H 19.5 20 V 5.5 6 H 19.5 19 Z m 5,0 V 5 H 24.5 25 V 5.5 6 H 24.5 24 Z m 5,0 V 5 H 29.5 30 V 5.5 6 H 29.5 29 Z m 5,0 V 5 H 34.5 35 V 5.5 6 H 34.5 34 Z m 5,0 V 5 H 39.5 40 V 5.5 6 H 39.5 39 Z m 5,0 V 5 H 44.5 45 V 5.5 6 H 44.5 44 Z m 5,0 V 5 H 49.5 50 V 5.5 6 H 49.5 49 Z m 5,0 V 5 H 54.5 55 V 5.5 6 H 54.5 54 Z m 5,0 V 5 H 59.5 60 V 5.5 6 H 59.5 59 Z m 5,0 V 5 H 64.5 65 V 5.5 6 H 64.5 64 Z m 5,0 V 5 H 69.5 70 V 5.5 6 H 69.5 69 Z m 5,0 V 5 H 74.5 75 V 5.5 6 H 74.5 74 Z m 5,0 V 5 H 79.5 80 V 5.5 6 H 79.5 79 Z m 5,0 V 5 H 84.5 85 V 5.5 6 H 84.5 84 Z m 2,0 V 5 H 86.5 87 V 5.5 6 H 86.5 86 Z m 5,0 V 5 H 91.5 92 V 5.5 6 H 91.5 91 Z m 2,0 V 5 H 93.5 94 V 5.5 6 H 93.5 93 Z m 5,0 V 5 H 98.5 99 V 5.5 6 H 98.5 98 Z m 2,0 V 5 h 0.5 0.5 V 5.5 6 h -0.5 -0.5 z m 5,0 V 5 h 0.5 0.5 V 5.5 6 h -0.5 -0.5 z m 2,0 V 5 h 0.5 0.5 V 5.5 6 h -0.5 -0.5 z m 5,0 V 5 h 0.5 0.5 V 5.5 6 h -0.5 -0.5 z m 2,0 V 5 h 0.5 0.5 V 5.5 6 h -0.5 -0.5 z m 5,0 V 5 h 0.5 0.5 V 5.5 6 h -0.5 -0.5 z m 2,0 V 5 h 0.5 0.5 V 5.5 6 h -0.5 -0.5 z"
       id="path3" />
  </g>
</svg>
