<?xml version="1.0" encoding="UTF-8" standalone="no"?>
<!-- Created with Inkscape (http://www.inkscape.org/) -->

<svg
   width="127.99999"
   height="63.999996"
   viewBox="0 0 33.866664 16.933332"
   version="1.1"
   id="svg1"
   xml:space="preserve"
   xmlns="http://www.w3.org/2000/svg"
   xmlns:svg="http://www.w3.org/2000/svg"><defs
     id="defs1" /><g
     id="layer1">
     <rect
       style="fill:#000000;fill-opacity:1;stroke:none;stroke-width:0.105834;stroke-linecap:square"
       id="rect4"
       width="33.866665"
       height="16.933332"
       x="-6.9388939e-18"
       y="0" />
       <path
       id="rect3"
       style="fill:#6dff67;fill-opacity:1;stroke:none;stroke-width:0.0051094;stroke-linecap:square"
       d="m 26.737442,1.7426725 -2.6e-5,1.87e-4 c -0.10347,0.00477 -0.200307,0.06078 -0.339306,0.1840604 -0.156221,0.1385573 -0.185186,0.1449939 -0.282201,0.062634 -0.08003,-0.067953 -0.277088,-0.044029 -0.354065,0.042988 -0.02593,0.029305 -0.06954,0.053258 -0.09698,0.053258 -0.02744,0 -0.05819,0.029248 -0.06831,0.064978 -0.01029,0.036319 -0.100931,0.09327 -0.205546,0.1291827 -0.180097,0.061851 -0.192613,0.061623 -0.336446,-0.0073 -0.112295,-0.053742 -0.160735,-0.060978 -0.194806,-0.029021 -0.07552,0.070857 -0.05368,0.3587948 0.03771,0.4975204 0.0766,0.1162804 0.09417,0.1241344 0.227491,0.1015629 0.07946,-0.013467 0.174594,-0.029454 0.211419,-0.03557 0.0443,-0.00729 0.05958,0.00685 0.0452,0.042022 -0.01195,0.029221 -0.06931,0.053161 -0.127423,0.053161 -0.125978,0 -0.205476,0.079717 -0.320606,0.3214103 -0.163463,0.3431598 -0.208244,0.5153855 -0.213119,0.8198973 -0.0038,0.2353805 0.0075,0.3062252 0.04876,0.3062111 0.03146,0 0.04425,0.023059 0.03091,0.055675 -0.01252,0.030624 0.02569,0.1733395 0.08485,0.3171574 0.108552,0.2639281 0.311808,0.5040777 0.595466,0.7035458 l 0.131905,0.092791 h -0.25446 c -0.08865,0 -0.184265,0.00771 -0.255722,0.019307 L 24.58969,6.8969769 c 0.01734,-0.00843 0.03462,-0.017097 0.05167,-0.025928 0.248825,-0.1288498 0.291575,-0.1411264 0.290778,-0.083512 -4.48e-4,0.037161 -0.07176,0.1167274 -0.158332,0.1768105 -0.152039,0.1055207 -0.156623,0.1150006 -0.134919,0.2783739 0.01235,0.093021 0.03071,0.1963693 0.0408,0.2296584 0.01009,0.033303 0.02593,0.167933 0.03516,0.2992517 0.02075,0.2952111 0.0708,0.4246168 0.176414,0.4560542 0.116139,0.034594 0.103236,0.1306327 -0.01754,0.1306327 h -0.09891 v 0.4037143 c 0,0.2924755 0.01463,0.415085 0.05309,0.4450354 0.0292,0.02274 0.0634,0.031719 0.07596,0.019936 0.01256,-0.011784 0.04271,0.013475 0.067,0.056037 0.02598,0.045536 0.08333,0.077423 0.139323,0.077423 0.05235,0 0.106953,0.01784 0.121319,0.039654 0.01437,0.0218 0.05232,0.030176 0.08438,0.018631 0.03205,-0.011503 0.08252,0.00167 0.112123,0.029505 0.07496,0.070324 0.834472,0.1429004 1.2519,0.1196135 0.449902,-0.025111 1.260014,-0.2119986 1.260014,-0.2906973 0,-0.015431 0.02371,-0.028055 0.05262,-0.028055 0.05739,0 0.433812,-0.2219058 0.455138,-0.2682973 0.01352,-0.029403 0.125259,-0.041142 0.125259,-0.013169 0,0.00856 0.01082,0.04194 0.02403,0.074233 0.01825,0.044596 -0.0017,0.058719 -0.08284,0.058719 -0.07357,0 -0.113251,0.023114 -0.1275,0.074233 -0.01138,0.040822 -0.05209,0.074233 -0.09041,0.074233 -0.03832,0 -0.09265,0.026048 -0.120778,0.05785 -0.07564,0.085502 -0.69089,0.3040415 -0.868549,0.3085305 -0.03264,0.0014 -0.148364,0.019816 -0.257164,0.042191 -0.343392,0.070646 -1.110269,0.051561 -1.397096,-0.034797 -0.137388,-0.041369 -0.262014,-0.07228 -0.276947,-0.068675 -0.05879,0.014225 -0.199083,-0.051021 -0.220073,-0.1023363 -0.0122,-0.029852 -0.06631,-0.054297 -0.12016,-0.054297 -0.05474,0 -0.123659,-0.03449 -0.156323,-0.078244 -0.08554,-0.1145689 -0.124918,-0.066597 -0.177187,0.2157639 -0.02568,0.1387256 -0.06523,0.3440617 -0.08794,0.4563441 -0.02271,0.1122819 -0.08451,0.4212439 -0.137314,0.6866309 -0.0528,0.265387 -0.13314,0.607807 -0.1785,0.760912 -0.04536,0.153105 -0.09045,0.315548 -0.100223,0.360943 -0.0098,0.0454 -0.03317,0.120563 -0.05201,0.167025 -0.01883,0.04648 -0.03472,0.0928 -0.03531,0.103012 -5.98e-4,0.01024 -0.01803,0.06032 -0.03879,0.11135 -0.106787,0.262539 -0.134683,0.376055 -0.155087,0.631174 l -0.02233,0.278615 0.232515,0.100548 c 0.312042,0.134896 0.330318,0.137769 0.796839,0.125775 0.404573,-0.01038 0.406573,-0.01096 0.523602,-0.133918 0.06461,-0.0679 0.127867,-0.154137 0.140559,-0.191648 0.0127,-0.03751 0.03608,-0.06824 0.05201,-0.06824 0.01592,0 0.05248,-0.06264 0.08129,-0.139187 0.02881,-0.07655 0.07864,-0.167358 0.110732,-0.201797 0.0321,-0.03444 0.04668,-0.08037 0.03238,-0.102071 -0.0143,-0.0217 -0.0103,-0.03944 0.0088,-0.03944 0.01911,0 0.05893,-0.08354 0.08855,-0.185606 0.02963,-0.10207 0.06849,-0.185559 0.08631,-0.185559 0.01783,0 0.03238,-0.0364 0.03238,-0.0809 0,-0.09606 0.117909,-0.444802 0.301983,-0.893188 0.07328,-0.178482 0.133219,-0.341348 0.133219,-0.361886 0,-0.06295 0.08031,-0.04141 0.103082,0.02762 0.01178,0.03573 0.03499,0.09 0.05162,0.120629 0.01663,0.03062 0.03291,0.122482 0.03609,0.204141 0.0032,0.08166 0.02266,0.231978 0.04335,0.334048 0.02078,0.102519 0.02759,0.484599 0.01515,0.853655 -0.02618,0.776886 -0.03166,0.764295 0.361406,0.831883 0.460871,0.07926 0.936031,0.0393 1.12525,-0.0946 0.02071,-0.01465 0.271425,-1.073916 0.350201,-1.479586 0.04631,-0.238466 0.06567,-0.562367 0.06754,-1.132125 l 0.0025,-0.7981493 0.189319,-0.00773 c 0.104113,-0.00435 0.206484,-0.017739 0.227491,-0.029915 0.06547,-0.037961 0.04187,-0.1230313 -0.04095,-0.147693 -0.09311,-0.02772 -0.107736,-0.167024 -0.01754,-0.167024 0.03387,0 0.113983,-0.053821 0.178037,-0.1196135 0.09012,-0.092559 0.11645,-0.1548441 0.11645,-0.275305 0,-0.089795 -0.02093,-0.163558 -0.04946,-0.1743458 -0.0272,-0.010241 -0.0094,-0.020087 0.03956,-0.0217 0.04896,-0.00168 0.08902,-0.017616 0.08902,-0.035643 0,-0.01804 0.03423,-0.041215 0.07604,-0.05147 0.04181,-0.010241 0.113404,-0.083238 0.159028,-0.1621192 0.04562,-0.078881 0.145059,-0.2227069 0.221001,-0.3196703 0.07238,-0.092418 0.125094,-0.1689346 0.121628,-0.1758927 l -7.8e-5,-2.43e-5 -7.7e-5,-9.35e-5 v -9.35e-5 l -7.7e-5,-4.68e-5 h -5.2e-5 l -7.7e-5,-9.35e-5 h -7.7e-5 -2.6e-5 l -2.6e-5,-2.43e-5 c -6e-5,-1.5e-5 -1.72e-4,-2.39e-5 -2.05e-4,-2.39e-5 h -2.6e-5 -2.6e-5 c -5.8e-5,-2.3e-6 -1.1e-4,0 -1.54e-4,0 h -7.8e-5 -7.7e-5 -2.6e-5 -2.6e-5 c -3e-5,-7.9e-6 -9.4e-5,-3.36e-5 -1.28e-4,-4.67e-5 l -2.6e-5,-2.39e-5 -2.6e-5,-2.43e-5 -7.7e-5,-9.35e-5 h -7.7e-5 l -5.1e-5,-4.68e-5 -7.8e-5,-9.35e-5 -7.7e-5,-9.35e-5 C 29.97377,7.9055042 30.01054,7.803997 30.064,7.6808989 30.166881,7.4439753 30.195474,7.1273364 30.11624,7.1025485 30.09325,7.0953985 30.05094,7.0367525 30.0222,6.9722781 29.94597,6.8012594 29.268492,6.1733162 29.020278,6.0435686 c -0.03931,-0.020551 -0.09496,-0.059358 -0.123714,-0.086194 -0.02875,-0.026836 -0.07357,-0.048788 -0.09961,-0.048788 -0.02603,0 -0.112893,-0.04178 -0.192951,-0.092815 -0.08006,-0.051035 -0.16424,-0.092767 -0.187155,-0.092767 -0.02291,0 -0.07733,-0.033411 -0.120855,-0.074233 -0.04352,-0.040836 -0.128931,-0.074233 -0.18986,-0.074233 -0.06093,0 -0.129557,-0.017583 -0.152459,-0.039074 -0.0229,-0.021477 -0.08686,-0.043633 -0.142182,-0.049174 -0.05533,-0.00547 -0.128191,-0.035885 -0.161887,-0.067491 -0.06131,-0.057516 -0.260919,-0.050614 -0.303915,0.010536 -0.09515,0.1352606 -0.254578,0.2936694 -0.295492,0.2936694 -0.02758,0 -0.07454,0.033408 -0.104396,0.074161 -0.04446,0.060686 -0.116571,0.078402 -0.398497,0.098083 -0.440585,0.03075 -0.653352,-0.020423 -0.774507,-0.1863073 -0.04838,-0.066228 -0.08801,-0.1318723 -0.08801,-0.1459287 0,-0.053153 0.153261,-0.022201 0.332506,0.067201 0.102313,0.051035 0.205387,0.092791 0.229037,0.092791 0.02365,0 0.06461,0.027799 0.09103,0.061692 0.04434,0.056885 0.07062,0.054733 0.340697,-0.027837 0.346203,-0.1058574 0.612359,-0.3307863 0.391465,-0.3307863 -0.108466,0 -0.09921,-0.057514 0.0221,-0.1374468 0.166649,-0.1098133 0.39332,-0.3130494 0.39332,-0.3526793 0,-0.04576 0.330801,-0.2150872 0.42021,-0.2150872 0.121288,0 0.205045,-0.1777425 0.179428,-0.3806616 -0.01277,-0.1011579 -0.04383,-0.2072117 -0.06901,-0.2356751 -0.02518,-0.028463 -0.03155,-0.05176 -0.01422,-0.05176 0.01734,0 -0.0077,-0.039127 -0.05564,-0.086992 -0.0961,-0.095967 -0.07973,-0.2099402 0.03014,-0.2099402 0.03684,0 0.08905,-0.020698 0.116064,-0.046033 0.03912,-0.036712 0.05557,-0.036293 0.08083,0.0021 0.02144,0.032546 0.05509,-0.00926 0.103855,-0.1290382 0.07093,-0.1742312 0.10521,-0.4579392 0.05533,-0.4579392 -0.01401,0 -0.03521,-0.068288 -0.04714,-0.1517279 -0.02471,-0.1728004 -0.275797,-0.5534853 -0.365038,-0.5534853 -0.03242,0 -0.05896,-0.015587 -0.05896,-0.034652 0,-0.019051 -0.08956,-0.1209313 -0.199056,-0.2263959 -0.162135,-0.1561628 -0.230052,-0.1952994 -0.365965,-0.2109549 -0.09178,-0.010521 -0.188883,-0.045186 -0.215823,-0.076988 -0.02694,-0.031802 -0.113675,-0.078669 -0.192719,-0.1041726 -0.05436,-0.017521 -0.1028,-0.02601 -0.149832,-0.02385 z m -0.05806,0.6549995 c 0.109455,0.00238 0.192333,0.029535 0.192333,0.080177 0,0.026906 0.03116,0.070749 0.06924,0.097431 0.06867,0.048103 0.191416,0.1805785 0.163123,0.1760614 -0.0081,-0.0014 -0.05482,-0.017471 -0.103777,-0.035932 -0.04896,-0.018461 -0.08902,-0.046747 -0.08902,-0.062851 0,-0.058372 -0.313689,-0.1205058 -0.492383,-0.097527 -0.193983,0.024942 -0.240975,-0.020945 -0.09118,-0.089094 0.106184,-0.048313 0.242214,-0.070677 0.351669,-0.068264 z M 25.781006,2.42998 v 2.43e-5 c 0.05699,-0.00168 0.146723,0.017628 0.220305,0.052993 l 0.09891,0.047555 -0.09891,-0.00478 c -0.0544,-0.00267 -0.138968,-0.012055 -0.187928,-0.020878 v -9.35e-5 c -0.04896,-0.00884 -0.08902,-0.030597 -0.08902,-0.048329 0,-0.017002 0.02245,-0.025502 0.05664,-0.026484 z m 1.837166,0.2227714 c 0.08752,0.00196 0.191375,0.047589 0.292092,0.1300047 0.08201,0.067111 0.09187,0.2516758 0.01569,0.2938869 -0.07204,0.03991 -0.144269,0.1742462 -0.144269,0.268418 0,0.1080879 -0.06549,0.09549 -0.09597,-0.018462 -0.01892,-0.070717 2.99e-4,-0.1238697 0.07472,-0.206847 0.07776,-0.086695 0.09137,-0.1269727 0.06097,-0.1802662 -0.0682,-0.119549 -0.160929,-0.1857998 -0.260101,-0.1857998 -0.123968,0 -0.124585,-0.066134 -8.76e-4,-0.095256 0.01821,-0.00435 0.03753,-0.00617 0.05772,-0.00561 z m -2.741106,0.21226 c -0.111403,0 -0.147229,0.065478 -0.08639,0.1577695 0.05061,0.076763 0.07113,0.079899 0.134533,0.020419 0.08383,-0.078642 0.05694,-0.1781881 -0.04814,-0.1781881 z m 0.538748,0.043375 c 0.05524,-0.0014 0.08167,0.076065 0.02681,0.1086672 -0.08158,0.048482 -0.107989,0.04053 -0.09706,-0.029359 0.0054,-0.034622 0.02893,-0.06891 0.05224,-0.07619 0.0063,-0.00196 0.01229,-0.00296 0.018,-0.00309 z m 1.316577,0.092936 c 0.05871,-0.0021 0.135112,0.047172 0.179428,0.1243981 0.03481,0.061023 0.02931,0.073363 -0.03261,0.073363 -0.04096,0 -0.11219,-0.03066 -0.158255,-0.068144 -0.06169,-0.050193 -0.07212,-0.07907 -0.03956,-0.1096095 0.0138,-0.012906 0.03143,-0.019321 0.051,-0.020008 z M 16.521483,3.2619112 c -0.02674,-0.00963 -0.731553,0.017213 -0.809126,0.030809 -0.03223,0.00565 -0.06234,0.013782 -0.06692,0.018075 -0.01379,0.012935 0.04101,0.044579 0.06231,0.035981 0.01088,-0.0044 0.174083,-0.00922 0.362668,-0.010729 0.18859,-0.00151 0.449707,-0.00641 0.580269,-0.010898 0.16131,-0.00555 0.347262,-0.00186 0.580268,0.011527 0.575814,0.033074 0.623684,0.04352 0.199262,0.04352 -0.157573,0 -0.329197,0.00579 -0.381368,0.012856 -0.215521,0.029176 -0.280472,0.041335 -0.299253,0.056037 -0.01132,0.00887 -0.09588,0.021396 -0.197819,0.029312 -0.230674,0.017912 -0.347873,0.035591 -0.377993,0.057004 -0.02321,0.016498 -0.02324,0.017239 -5.14e-4,0.017616 0.01312,2.338e-4 0.02076,0.00512 0.01695,0.010898 -0.0038,0.00578 -0.05905,0.013953 -0.122761,0.018147 -0.158699,0.010447 -0.244453,0.03239 -0.260488,0.066669 -0.01024,0.021893 -0.02718,0.028698 -0.08572,0.034362 -0.107703,0.010422 -0.202426,0.031485 -0.231665,0.051543 -0.02217,0.015203 -0.02302,0.019361 -0.0061,0.029408 0.01085,0.00643 0.03158,0.012392 0.04608,0.013266 0.01451,8.744e-4 -0.04329,0.00869 -0.128453,0.017375 -0.199143,0.020305 -0.22389,0.026306 -0.218477,0.052992 0.0076,0.037269 0.215526,0.050989 0.38397,0.025324 h 9.9e-5 c 0.109508,-0.016684 0.158325,-0.040528 0.147644,-0.072107 -0.0063,-0.018507 0.0049,-0.022287 0.08206,-0.027716 0.131977,-0.00929 0.28602,-0.06207 0.257962,-0.088394 -0.0087,-0.00816 0.02137,-0.011482 0.07537,-0.00836 0.103357,0.00597 0.38262,-0.044223 0.454984,-0.081772 0.0145,-0.00753 0.09166,-0.017129 0.171443,-0.021337 0.19985,-0.01054 0.374805,-0.03153 0.422014,-0.050649 l 0.03956,-0.016021 -0.03956,-0.00858 c -0.115987,-0.025156 -0.02135,-0.041909 0.118047,-0.020902 0.04387,0.00661 0.109445,0.00836 0.145711,0.00391 0.03627,-0.00445 0.16683,-0.00179 0.290134,0.00592 0.155589,0.00972 0.241753,0.010119 0.281583,0.0013 0.03455,-0.00765 0.06079,-0.00819 0.06594,-0.00135 0.02804,0.037234 0.09687,0.059294 0.232308,0.07445 0.207581,0.023229 0.458674,0.042571 0.465802,0.035884 0.03295,-0.030909 -0.110199,-0.078395 -0.27146,-0.090061 -0.06978,-0.00505 -0.100593,-0.012775 -0.112097,-0.028128 -0.03883,-0.05181 -0.14157,-0.082824 -0.325784,-0.098325 -0.117986,-0.00993 -0.18916,-0.021691 -0.211006,-0.034893 -0.01813,-0.010956 -0.05967,-0.024649 -0.09232,-0.030399 -0.118748,-0.020919 -0.607518,-0.045441 -0.911383,-0.045743 -0.17124,-1.871e-4 -0.320728,-0.0037 -0.332197,-0.00783 z m -4.655673,0.056858 c -0.06453,5.144e-4 -0.101308,0.017447 -0.14092,0.064833 -0.01579,0.018884 -0.04947,0.042473 -0.07483,0.052413 -0.02536,0.00994 -0.06782,0.034091 -0.09438,0.053669 -0.02656,0.019578 -0.06702,0.044579 -0.08989,0.055554 -0.02287,0.010974 -0.0553,0.040963 -0.07205,0.066645 -0.01675,0.025682 -0.03718,0.053207 -0.04541,0.06116 -0.02784,0.026903 -0.0503,0.1263555 -0.03544,0.1569479 0.0097,0.019912 0.0092,0.035111 -0.0014,0.052074 -0.0083,0.013174 -0.01654,0.040649 -0.01831,0.061063 -0.0018,0.020414 -0.0062,0.059386 -0.0099,0.086605 -0.03414,0.2535513 -0.044,0.3459762 -0.03791,0.3552166 0.0039,0.00597 -7.68e-4,0.019836 -0.01046,0.030809 -0.0097,0.010973 -0.01914,0.037161 -0.02099,0.058212 -0.0019,0.021051 -0.0063,0.068898 -0.01,0.1063231 -0.0036,0.037426 -0.007,0.08475 -0.0075,0.1051635 -5.08e-4,0.020414 -0.0091,0.059386 -0.01921,0.086605 -0.01007,0.027219 -0.01706,0.074542 -0.01551,0.1051634 0.0028,0.054913 0.0036,0.055774 0.05558,0.062972 0.06602,0.00913 0.229758,0.00167 0.315686,-0.014402 0.03581,-0.0067 0.101094,-0.028364 0.145067,-0.048136 0.04397,-0.019771 0.106657,-0.039507 0.139297,-0.043858 0.03264,-0.00435 0.08357,-0.016249 0.11318,-0.026436 0.04504,-0.015498 0.05825,-0.028339 0.08093,-0.078704 0.02703,-0.060028 0.02704,-0.060676 0.0027,-0.2434561 -0.02038,-0.1530649 -0.04384,-0.6040507 -0.04023,-0.7735259 5.38e-4,-0.025226 -0.0051,-0.049369 -0.01249,-0.053669 -0.0091,-0.00527 -0.0089,-0.013058 7.23e-4,-0.023899 0.0095,-0.010764 0.01029,-0.032587 0.0023,-0.065993 -0.0066,-0.027446 -0.009,-0.064288 -0.0055,-0.081869 0.0036,-0.017581 2e-4,-0.039079 -0.0075,-0.047773 -0.0089,-0.010013 -0.0095,-0.02246 -0.0018,-0.033951 0.03182,-0.047199 -0.0065,-0.086375 -0.08392,-0.08576 z m 3.517442,0.041176 c -0.144155,0.00376 -0.318055,0.017803 -0.437108,0.039944 -0.03657,0.0068 -0.03855,0.027518 -0.0038,0.039581 0.03727,0.012934 0.323817,0.00484 0.409315,-0.01155 0.09618,-0.018444 0.223597,-0.035934 0.260461,-0.035763 0.01632,9.35e-5 0.02967,-0.00461 0.02967,-0.010415 0,-0.019034 -0.114401,-0.025558 -0.258555,-0.021796 z m 9.893857,0.024213 c 0.02882,0 0.06572,0.019038 0.108182,0.058865 0.07981,0.074883 0.07823,0.1020936 -0.0102,0.177173 -0.07996,0.067897 -0.09977,0.073141 -0.138628,0.036682 -0.0145,-0.013607 -0.02643,-0.080415 -0.02643,-0.148466 0,-0.081378 0.02495,-0.1237902 0.06707,-0.1242531 z m -8.369261,0.084261 c 0.05069,6.312e-4 0.07385,0.00137 0.07531,0.0036 l 2.6e-5,2.43e-5 c 5e-6,1.26e-5 2.2e-5,4.67e-5 2.6e-5,9.35e-5 5e-6,2.62e-5 0,9.35e-5 0,1.403e-4 -2e-4,0.00163 -0.01058,0.00404 -0.02921,0.00766 -0.07093,0.013765 -0.101699,0.013577 -0.125286,-7.247e-4 -0.01365,-0.00828 0.01086,-0.011604 0.07913,-0.010753 z m -2.083924,0.00128 c -0.03291,1.31e-5 -0.07573,0.00133 -0.129612,0.0037 -0.153495,0.00675 -0.220104,0.014789 -0.262162,0.031703 -0.03101,0.012472 -0.05638,0.024486 -0.05638,0.026678 0,0.00219 0.107041,0.00288 0.237872,0.00155 0.194851,-0.00199 0.243819,-0.00608 0.270765,-0.022642 0.04788,-0.02943 0.03825,-0.041023 -0.06048,-0.040983 z m 3.401043,0.00739 c 0.03114,-9.35e-5 0.05424,0.00473 0.04783,0.014451 -0.0045,0.0068 -0.04489,0.012006 -0.08979,0.011575 -0.05796,-5.565e-4 -0.07368,-0.00383 -0.05414,-0.011237 v 2.43e-5 c 0.02576,-0.00978 0.06496,-0.014733 0.0961,-0.014813 z m 8.446997,0.022304 c 0.0281,-0.0014 0.04444,0.02103 0.0605,0.06853 0.02271,0.067125 -0.04838,0.2250187 -0.101305,0.2250187 -0.01304,0 -0.04562,-0.045235 -0.07248,-0.1005482 -0.04198,-0.086442 -0.03909,-0.1072929 0.02094,-0.1484659 0.04149,-0.028449 0.07048,-0.043595 0.09234,-0.044535 z M 14.41873,3.5728772 c -0.03424,-0.00221 -0.08761,-4.676e-4 -0.164076,0.00495 -0.157627,0.011176 -0.229173,0.02997 -0.193878,0.050938 0.02494,0.014817 0.174386,0.01402 0.269708,-0.00145 0.120125,-0.019497 0.137598,-0.024038 0.137598,-0.035691 0,-0.010366 -0.01512,-0.016538 -0.04935,-0.018752 z m 11.45454,0.049054 v 9.36e-5 c 0.006,0 0.0094,0.0028 0.0094,0.00925 0,0.020874 -0.01221,0.049373 -0.02712,0.063359 -0.05947,0.055804 -0.117659,0.2820423 -0.100609,0.391028 0.02493,0.1593612 -0.07526,0.153683 -0.168996,-0.00969 -0.07515,-0.1309119 -0.06716,-0.156774 0.09095,-0.2941529 0.02825,-0.024535 0.08611,-0.076947 0.128582,-0.1165208 0.0292,-0.027201 0.05473,-0.042944 0.06785,-0.043351 z m -6.975719,0.00457 c -0.04017,0 -0.07745,0.00549 -0.07745,0.018461 0,0.029095 0.133604,0.054871 0.170593,0.032912 0.0157,-0.00931 0.01599,-0.014576 0.0017,-0.030737 -0.0116,-0.013113 -0.05467,-0.020636 -0.09484,-0.020636 z m -0.934669,0.00232 c -0.06891,0.00542 -0.178556,0.013135 -0.243667,0.017132 -0.07304,0.00448 -0.130368,0.014628 -0.149652,0.026484 -0.0172,0.01057 -0.08262,0.024061 -0.145377,0.029988 -0.216672,0.02046 -0.259394,0.026637 -0.318519,0.045985 -0.100182,0.032785 -0.08988,0.040065 0.05669,0.040065 0.07761,0 0.141126,0.00494 0.141126,0.010971 0,0.00603 -0.111274,0.010779 -0.247274,0.01056 -0.263481,-4.209e-4 -0.439795,0.018565 -0.474482,0.051107 -0.03333,0.031264 -0.08263,0.051084 -0.127088,0.051084 -0.09906,0 -0.311694,0.05943 -0.311694,0.087113 0,0.00553 0.01038,0.012141 0.02308,0.014692 0.0011,2.338e-4 0.0018,4.91e-4 0.002,7.482e-4 l 2.5e-5,2.43e-5 v 2.38e-5 h 2.6e-5 v 2.43e-5 c 3e-6,6.1e-6 2.6e-5,4.65e-5 2.6e-5,9.36e-5 v 2.43e-5 c 3e-6,6.1e-6 2.6e-5,4.63e-5 2.6e-5,9.35e-5 v 2.38e-5 c -3e-6,6.6e-6 -2.6e-5,4.64e-5 -2.6e-5,9.36e-5 v 2.43e-5 c -5e-6,2.52e-5 -3.7e-5,9.35e-5 -5e-5,1.403e-4 -0.002,0.00283 -0.04449,0.00744 -0.104241,0.011067 -0.127441,0.00773 -0.227231,0.036454 -0.261569,0.075272 -0.01,0.011275 -0.04875,0.022724 -0.09213,0.027209 -0.08648,0.00894 -0.170015,0.04105 -0.177676,0.068313 -0.0048,0.016943 -0.04015,0.02826 -0.172886,0.05524 -0.02105,0.00428 -0.05505,0.02462 -0.07555,0.045212 -0.0282,0.028324 -0.05423,0.039776 -0.106817,0.047048 -0.08964,0.012396 -0.145586,0.033911 -0.138782,0.053355 0.0029,0.00846 0.02123,0.017154 0.04062,0.019308 0.06686,0.00743 0.035,0.023476 -0.06035,0.030374 -0.102798,0.00744 -0.24068,0.044491 -0.24068,0.064688 0,0.0068 0.01928,0.01413 0.04286,0.016262 0.02357,0.00213 0.04286,0.00945 0.04286,0.016287 0,0.00683 -0.01064,0.00926 -0.02365,0.00539 -0.02877,-0.00857 -0.216822,0.01273 -0.277153,0.03139 -0.03638,0.011251 -0.04296,0.018827 -0.03956,0.045574 0.0039,0.030574 -4.9e-5,0.03273 -0.0834,0.045574 -0.09473,0.014599 -0.130128,0.033623 -0.130128,0.069932 0,0.012776 -0.009,0.023222 -0.01999,0.023222 -0.05619,0 -0.125225,0.032082 -0.136953,0.063649 -0.0068,0.018412 -0.02588,0.036444 -0.04307,0.040789 -0.116326,0.029415 -0.12969,0.035914 -0.12969,0.063069 0,0.018586 -0.01228,0.032213 -0.03802,0.042215 -0.05041,0.01959 -0.113862,0.081799 -0.09474,0.092888 0.02462,0.014277 0.0014,0.03144 -0.04278,0.031631 -0.0535,2.338e-4 -0.106486,0.025135 -0.112148,0.052703 -0.0038,0.018547 0.0076,0.021337 0.08696,0.021337 0.07334,0 0.100141,-0.00557 0.136129,-0.028321 0.02465,-0.015582 0.04482,-0.036294 0.04482,-0.046033 0,-0.01284 0.03081,-0.021686 0.112097,-0.032163 0.140571,-0.018118 0.158255,-0.025039 0.158255,-0.061837 0,-0.02495 0.0067,-0.029752 0.04286,-0.030592 0.0606,-0.00141 0.147374,-0.04838 0.152563,-0.08257 0.0026,-0.017142 0.01341,-0.027789 0.02818,-0.027789 0.01317,0 0.05429,-0.0092 0.09139,-0.020443 0.04794,-0.014524 0.06746,-0.026851 0.06746,-0.042602 0,-0.026808 0.04816,-0.060677 0.08629,-0.060677 0.05666,0 0.152737,-0.039596 0.164102,-0.067636 0.0098,-0.02431 0.02344,-0.028478 0.113514,-0.034869 0.133796,-0.00949 0.221641,-0.064125 0.134713,-0.083778 l -0.03045,-0.00689 0.03297,-0.00841 c 0.01813,-0.00462 0.05374,-0.00858 0.07913,-0.00877 0.02539,-1.87e-4 0.07287,-0.00797 0.105503,-0.017302 0.04726,-0.013503 0.05872,-0.022151 0.05633,-0.042385 -0.0033,-0.02785 0.0083,-0.032815 0.105709,-0.045236 0.114522,-0.014608 0.188882,-0.056657 0.134687,-0.076166 -0.04117,-0.014822 -0.01665,-0.025929 0.0748,-0.033903 0.05202,-0.00454 0.13249,-0.017733 0.17881,-0.029312 0.06821,-0.017051 0.08306,-0.025147 0.07817,-0.042674 -0.0046,-0.01646 0.0039,-0.02307 0.03549,-0.027572 0.02284,-0.00325 0.09133,-0.012875 0.152177,-0.021386 0.09277,-0.012978 0.116242,-0.021091 0.145351,-0.05031 0.03051,-0.030627 0.04901,-0.036347 0.153103,-0.047265 0.150579,-0.015795 0.204155,-0.031795 0.204155,-0.060943 0,-0.024596 0.02253,-0.030262 0.177522,-0.044753 0.104583,-0.00978 0.178552,-0.03457 0.178552,-0.059831 0,-0.019043 0.04401,-0.026434 0.259895,-0.043641 0.100376,-0.008 0.152991,-0.018878 0.206937,-0.042819 0.03979,-0.017658 0.07564,-0.03711 0.07967,-0.04323 0.004,-0.00612 0.06521,-0.011283 0.135949,-0.011454 0.142718,-3.273e-4 0.550771,-0.024262 0.586888,-0.03441 0.04188,-0.011769 0.02406,-0.027933 -0.03956,-0.035884 -0.175895,-0.021981 -0.160762,-0.028196 0.07176,-0.02948 0.14728,-8.137e-4 0.243047,0.00345 0.248047,0.011043 0.0052,0.00785 -0.03039,0.012373 -0.09736,0.012373 -0.05932,0 -0.109229,0.00569 -0.114029,0.012976 -0.0058,0.00887 0.05734,0.012033 0.200317,0.010028 0.11488,-0.00161 0.247468,0.00337 0.294616,0.011067 0.310574,0.050688 0.487953,0.066262 0.487953,0.042844 0,-0.00534 -0.01632,-0.018506 -0.03627,-0.029263 -0.06372,-0.034363 -0.206452,-0.049594 -0.471468,-0.050286 -0.100142,-2.806e-4 -0.160474,-0.0046 -0.145067,-0.010415 0.0145,-0.00548 0.03973,-0.010347 0.05605,-0.010826 0.01632,-4.77e-4 0.02967,-0.00845 0.02967,-0.017713 0,-0.012378 -0.03234,-0.019108 -0.121988,-0.025397 -0.300017,-0.021043 -0.527113,-0.027554 -0.642911,-0.018437 z m -4.048281,0.044801 c -0.02943,-8.323e-4 -0.06615,3.274e-4 -0.10862,0.00406 -0.14561,0.012743 -0.205427,0.035152 -0.173607,0.065002 0.01253,0.011751 0.255201,-0.00436 0.308963,-0.020515 0.08428,-0.025321 0.06156,-0.046042 -0.02674,-0.048546 z m 1.943648,3.741e-4 c 0.03379,-0.00209 0.102588,0.00307 0.112149,0.010971 9.9e-5,9.35e-5 1.49e-4,1.87e-4 1.99e-4,2.806e-4 v 2.43e-5 2.38e-5 l 2.5e-5,2.43e-5 v 2.44e-5 2.38e-5 2.43e-5 2.43e-5 2.39e-5 l -2.5e-5,2.43e-5 c -7.33e-4,0.00228 -0.02772,0.00408 -0.06285,0.00408 -0.03748,0 -0.06813,-0.00488 -0.06813,-0.010849 0,-0.00248 0.0074,-0.00397 0.01862,-0.00466 z m 2.058321,0.01706 c 0.0332,0 0.05766,0.00361 0.05291,0.010826 -0.0045,0.0068 -0.05082,0.011728 -0.102979,0.010922 -0.07157,-0.0011 -0.08513,-0.00379 -0.05528,-0.010922 0.03022,-0.00721 0.07215,-0.010826 0.105349,-0.010826 z m -4.323244,0.099002 c -0.02437,0 -0.0625,-0.00116 -0.12544,0.00145 -0.10704,0.00443 -0.153314,0.011075 -0.161269,0.023149 -0.0061,0.00931 -0.007,0.020746 -0.0018,0.025421 0.02324,0.021147 0.200303,0.018727 0.297141,-0.00406 0.04384,-0.010317 0.04817,-0.014396 0.03323,-0.031293 -0.0072,-0.00815 -0.0175,-0.014667 -0.04186,-0.014667 z m 3.748616,0.012324 c 0.0046,0 0.0085,0.00133 0.01072,0.00338 0.0044,0.00411 -0.0034,0.00704 -0.01731,0.0065 -0.01536,-5.939e-4 -0.01848,-0.00354 -0.008,-0.00749 0.0048,-0.00179 0.01,-0.00239 0.01455,-0.00239 z m 2.035345,0.035667 c -0.02374,0.00396 -0.02013,0.021448 0.0066,0.036053 0.02933,0.016025 0.1088,0.017173 0.1088,0.00157 0,-0.011229 -0.08099,-0.043359 -0.115394,-0.037624 z m -2.714678,0.046009 c 0.01106,-2.72e-5 0.02283,6.686e-4 0.03423,0.00225 0.01088,0.00151 0.05225,0.00531 0.09196,0.00843 0.0397,0.00312 0.07796,0.011112 0.08505,0.017761 0.0084,0.00787 0.0039,0.011215 -0.01283,0.00959 -0.01414,-0.00137 -0.07315,-0.00441 -0.131157,-0.00677 -0.058,-0.00235 -0.111129,-0.00958 -0.118048,-0.016069 -0.0091,-0.00855 0.01762,-0.015117 0.05079,-0.0152 z m -3.45673,0.010028 c -0.07136,4.723e-4 -0.179651,0.038592 -0.166472,0.058598 0.0103,0.015627 0.159118,0.00326 0.206988,-0.017205 0.05298,-0.022645 0.03414,-0.041885 -0.04052,-0.041394 z m 1.93981,0.00512 c -0.03138,-3.274e-4 -0.05727,6.266e-4 -0.07096,0.00324 -0.02538,0.00485 -0.08406,0.015512 -0.130385,0.023705 -0.06391,0.011301 -0.08582,0.020603 -0.09082,0.038542 -0.008,0.02857 -0.05358,0.046439 -0.119233,0.046686 -0.08406,3.273e-4 -0.154359,0.050107 -0.09548,0.067636 0.05245,0.015618 0.02602,0.028048 -0.07771,0.036536 -0.09835,0.00805 -0.107885,0.011444 -0.154958,0.055313 -0.02759,0.02571 -0.06792,0.050869 -0.08964,0.055892 -0.0505,0.011678 -0.07261,0.029121 -0.07261,0.057342 0,0.036549 0.115713,0.036685 0.259818,2.805e-4 V 4.28436 c 0.02969,-0.0075 0.05713,-0.021361 0.06099,-0.03081 0.0039,-0.00945 0.0297,-0.023655 0.05741,-0.031583 0.09849,-0.028182 0.156332,-0.055072 0.19058,-0.088562 0.02072,-0.020262 0.05527,-0.03712 0.08572,-0.041804 0.09026,-0.013889 0.151293,-0.044269 0.147076,-0.073218 -0.0035,-0.023868 0.005,-0.026456 0.114957,-0.035401 0.127666,-0.010387 0.253418,-0.042128 0.23509,-0.059323 -0.01212,-0.011374 -0.155709,-0.023511 -0.249849,-0.024455 z m -0.221851,0.087233 c 0.02793,0 0.04365,0.00501 0.03879,0.012372 -0.0045,0.0068 -0.0256,0.012372 -0.04693,0.012372 -0.02133,0 -0.03879,-0.00557 -0.03879,-0.012372 0,-0.00681 0.02112,-0.012372 0.04693,-0.012372 z m 1.349393,0.026339 c 0.0072,9.35e-5 0.01387,9.819e-4 0.01834,0.00268 0.0089,0.00339 -0.0016,0.00595 -0.02334,0.0057 -0.02176,-2.338e-4 -0.02906,-0.00303 -0.01623,-0.00616 v -2.43e-5 c 0.0064,-0.00157 0.01405,-0.00228 0.02122,-0.0022 z m 0.303322,0 c 0.0072,9.35e-5 0.01387,9.819e-4 0.01834,0.00268 0.0089,0.00339 -0.0016,0.00595 -0.02334,0.0057 -0.02176,-2.338e-4 -0.02906,-0.00303 -0.01623,-0.00616 v -2.43e-5 c 0.0064,-0.00157 0.01405,-0.00228 0.02123,-0.0022 z m -2.09688,0.1855824 c 0.0072,9.35e-5 0.01387,9.82e-4 0.01834,0.00268 0.0089,0.00339 -0.0016,0.00595 -0.02334,0.0057 -0.02176,-2.338e-4 -0.02906,-0.00303 -0.01623,-0.00616 v -2.43e-5 c 0.0064,-0.00157 0.01406,-0.00228 0.02122,-0.0022 z m -0.273392,0.1294006 c -0.01169,3.741e-4 -0.0228,0.00233 -0.03063,0.00626 -0.01229,0.00617 -0.03666,0.011212 -0.05414,0.011212 -0.01749,0 -0.04208,0.010645 -0.05463,0.023657 -0.02167,0.022465 -0.02159,0.023961 0.0013,0.029505 0.04694,0.011382 0.07746,0.00788 0.131235,-0.01503 h 2.6e-5 c 0.02993,-0.012751 0.05805,-0.028689 0.06249,-0.035425 0.0069,-0.010422 -0.01768,-0.018715 -0.04384,-0.020057 -0.0039,-1.87e-4 -0.0079,-2.338e-4 -0.01177,-1.403e-4 z m 12.338182,0.018607 c 0.02917,0.0014 0.05827,0.010938 0.0986,0.029287 0.194464,0.088547 0.228121,0.2709071 0.04999,0.2709071 -0.05817,0 -0.102329,-0.027727 -0.118073,-0.074161 -0.01715,-0.050614 -0.05988,-0.074233 -0.134532,-0.074233 -0.163517,0 -0.175406,-0.039996 -0.03253,-0.1094645 0.06144,-0.029866 0.09903,-0.04357 0.136541,-0.042336 z m -1.485882,0.059517 c 0.02398,-0.0014 0.05372,0.00435 0.08863,0.016456 0.08767,0.030427 0.09146,0.045909 0.04405,0.1779707 -0.04216,0.1174167 -0.120881,0.103806 -0.18051,-0.031244 -0.04459,-0.1009896 -0.02412,-0.1603063 0.04783,-0.1631827 z m -11.096612,0.050697 c -0.0477,0 -0.08933,0.029414 -0.05821,0.041128 0.0094,0.00353 0.01764,0.00686 0.01836,0.00739 7.48e-4,5.378e-4 0.02001,-0.00515 0.04284,-0.012614 0.05446,-0.017815 0.05296,-0.035908 -0.003,-0.035908 z m 0.994068,0.074238 c 0.0073,0 0.01319,0.00557 0.01319,0.012372 0,0.0068 -0.0059,0.012372 -0.01319,0.012372 -0.0073,0 -0.01319,-0.00557 -0.01319,-0.012372 0,-0.0068 0.0059,-0.012372 0.01319,-0.012372 z m -4.135188,0.148466 c -0.02917,0 -0.04538,0.00593 -0.04538,0.016601 0,0.00913 -0.02365,0.023243 -0.05255,0.031365 -0.05333,0.014989 -0.08799,0.05262 -0.0715,0.07764 0.0138,0.020941 0.221966,0.00561 0.262548,-0.019331 0.02843,-0.017478 0.03064,-0.023432 0.01651,-0.044656 -0.01285,-0.019303 -0.02609,-0.023154 -0.06256,-0.018099 -0.02144,0.00297 -0.03197,0.00403 -0.03292,0.00271 v -2.43e-5 l -2.5e-5,-2.43e-5 v -2.39e-5 c -2e-6,-1.08e-5 0,-4.68e-5 0,-9.35e-5 2.1e-5,-0.00124 0.006,-0.00402 0.01718,-0.0086 0.0414,-0.016945 0.02426,-0.037455 -0.0313,-0.037455 z m 15.651984,0.00909 v 2.44e-5 c 0.01375,0 0.02557,0.00393 0.03215,0.010101 0.01314,0.012345 -0.01021,0.021114 -0.05193,0.0195 -0.04609,-0.00182 -0.05552,-0.010521 -0.02395,-0.022473 0.01428,-0.00533 0.02999,-0.00771 0.04374,-0.00715 z m -0.590211,0.051059 v 9.36e-5 c 0.352009,0 0.450723,0.044275 0.214974,0.096488 -0.369676,0.081869 -0.358065,0.077421 -0.276947,0.1054777 0.04208,0.014547 0.05988,0.035401 0.03956,0.046371 -0.02032,0.010942 -0.05919,0.012502 -0.08639,0.00338 v -9.36e-5 c -0.0272,-0.00912 -0.04945,-0.037643 -0.04945,-0.063286 0,-0.025644 -0.04451,-0.065632 -0.09891,-0.088877 C 25.4519,4.7647907 25.51741,4.7394528 25.882622,4.7394528 Z M 12.378029,4.77923 c -0.01265,-4.208e-4 -0.02644,1.87e-4 -0.04312,0.00133 -0.05289,0.00368 -0.09175,0.015135 -0.128557,0.037866 -0.02901,0.017918 -0.07056,0.03662 -0.09232,0.041563 -0.02176,0.00494 -0.09001,0.032567 -0.151661,0.061402 -0.06165,0.028835 -0.141356,0.058871 -0.17711,0.066742 -0.03575,0.00787 -0.08315,0.026512 -0.105349,0.041418 -0.04919,0.033032 -0.208747,0.056909 -0.44146,0.066065 -0.175334,0.0069 -0.233034,0.00151 -0.272285,-0.025421 -0.02141,-0.014686 -0.02235,-0.019901 -0.0068,-0.037479 0.0323,-0.036515 -2.49e-4,-0.045064 -0.102155,-0.026846 -0.05237,0.00936 -0.102561,0.022537 -0.111556,0.029287 -0.009,0.00675 -0.049,0.015249 -0.08889,0.018896 -0.188169,0.017205 -0.308965,0.035621 -0.343427,0.05234 -0.02074,0.010064 -0.04495,0.018292 -0.05381,0.018292 -0.0089,0 -0.02548,0.00743 -0.03694,0.016504 -0.01285,0.010187 -0.09395,0.022396 -0.211934,0.031897 -0.1051083,0.00846 -0.1986433,0.021262 -0.2078643,0.028441 -0.02255,0.01756 0.0031,0.046819 0.04121,0.047072 0.04182,2.805e-4 0.129635,0.031484 0.145788,0.051808 0.01378,0.017339 0.1089803,0.051433 0.1826483,0.065413 0.02013,0.00382 0.04866,0.018246 0.06339,0.032066 0.01473,0.01382 0.08412,0.044121 0.154212,0.067322 0.07009,0.023201 0.136519,0.053112 0.147617,0.066476 0.0111,0.013364 0.05283,0.03794 0.09273,0.054612 0.03989,0.016672 0.09627,0.051864 0.125286,0.07822 0.02901,0.026355 0.06932,0.054859 0.08958,0.063335 0.02313,0.00967 0.0354,0.023316 0.03297,0.036633 -0.0024,0.01324 0.0061,0.022774 0.02251,0.025348 0.05646,0.00883 0.12305,0.043977 0.140173,0.073992 0.0099,0.0173 0.03977,0.04438 0.06643,0.060169 0.02666,0.015789 0.05189,0.038654 0.05607,0.050817 0.0042,0.012164 0.02541,0.03159 0.04719,0.043182 0.04297,0.022872 0.05655,0.064412 0.01654,0.0506 -0.04711,-0.016261 -0.08098,-0.043359 -0.08495,-0.067975 -0.0027,-0.016465 -0.02019,-0.030222 -0.05007,-0.039267 -0.02852,-0.00863 -0.0526,-0.02685 -0.06336,-0.047942 -0.0095,-0.018713 -0.0253,-0.034024 -0.035,-0.034024 -0.0097,0 -0.02087,-0.00783 -0.02478,-0.017398 -0.0039,-0.00957 -0.02604,-0.021283 -0.04917,-0.026049 -0.02481,-0.00511 -0.04469,-0.018098 -0.04848,-0.03168 -0.0035,-0.012662 -0.01762,-0.026361 -0.03135,-0.030447 -0.01372,-0.00409 -0.02496,-0.012623 -0.02496,-0.018969 0,-0.00635 -0.0088,-0.011551 -0.0196,-0.011551 -0.02416,0 -0.151841,-0.072583 -0.151841,-0.086315 0,-0.00548 -0.02409,-0.019012 -0.05352,-0.03006 -0.02943,-0.011049 -0.06502,-0.030145 -0.07908,-0.042433 -0.03521,-0.030774 -0.134985,-0.076263 -0.16727,-0.076263 -0.01464,0 -0.03399,-0.00835 -0.04302,-0.018558 -0.009,-0.010207 -0.02328,-0.018559 -0.03166,-0.018559 -0.0084,0 -0.02539,-0.011135 -0.03781,-0.024745 -0.01242,-0.01361 -0.03856,-0.024744 -0.05806,-0.024744 -0.03551,0 -0.06407,-0.00718 -0.2053403,-0.05164 C 9.8307377,5.32683 9.7168317,5.310699 9.5476287,5.31048 c -0.161046,-1.87e-4 -0.219825,0.00846 -0.288795,0.042578 -0.01813,0.00897 -0.06858,0.023544 -0.112097,0.03238 -0.09322,0.018929 -0.164849,0.044674 -0.164849,0.059275 0,0.00572 -0.04431,0.02274 -0.098447,0.037817 C 8.8293037,5.497607 8.7652473,5.52209 8.7410784,5.536924 8.6627454,5.585001 8.620308,5.604457 8.5617018,5.619179 c -0.036503,0.00917 -0.059857,0.022812 -0.063905,0.037334 -0.007,0.025105 -0.042662,0.041181 -0.1409716,0.063552 -0.051262,0.011665 -0.067372,0.021682 -0.0782,0.048595 -0.011337,0.028179 -0.02379,0.035173 -0.073898,0.041442 -0.070805,0.00886 -0.1460951,0.048396 -0.1553447,0.081579 -0.00643,0.023083 -0.021679,0.028155 -0.1309007,0.043569 -0.051628,0.00729 -0.11032,0.043272 -0.11032,0.067636 0,0.00615 -0.043026,0.024008 -0.095612,0.039702 -0.065507,0.019551 -0.1085744,0.041213 -0.1367473,0.068772 -0.024646,0.024108 -0.054152,0.040209 -0.073667,0.040209 -0.01791,0 -0.064697,0.021212 -0.1039579,0.047121 -0.039261,0.025909 -0.097175,0.054806 -0.128711,0.064229 -0.038069,0.011375 -0.061288,0.026844 -0.069056,0.046009 -0.012536,0.030933 -0.014776,0.032095 -0.1032367,0.05338 -0.036683,0.00883 -0.077687,0.03191 -0.1109127,0.062465 -0.028989,0.026659 -0.063131,0.048474 -0.075882,0.048474 -0.038177,0 -0.1440605,0.047404 -0.1441143,0.064519 -2.74e-5,0.00875 -0.042597,0.032603 -0.094582,0.053017 -0.051984,0.020414 -0.1092648,0.048252 -0.1272945,0.061861 -0.01803,0.013609 -0.062994,0.038662 -0.09994,0.055674 -0.036946,0.017012 -0.07254,0.042351 -0.079076,0.056304 -0.00654,0.013952 -0.039176,0.035779 -0.072533,0.048498 -0.033357,0.012719 -0.078438,0.036981 -0.1001977,0.053911 -0.02176,0.01693 -0.070836,0.043797 -0.109058,0.05971 -0.043134,0.017959 -0.075198,0.040676 -0.084537,0.059904 -0.00828,0.017039 -0.023193,0.030979 -0.03315,0.030979 -0.036174,0 -0.1473986,0.062013 -0.1558083,0.086871 -0.00519,0.015348 -0.024148,0.028415 -0.0476,0.032815 -0.038094,0.00715 -0.082301,0.048757 -0.070628,0.066476 0.0072,0.010932 0.1042007,0.022057 0.2699917,0.030979 0.1795146,0.00966 0.3305115,0.02966 0.3689787,0.04886 0.038579,0.019257 0.2026049,0.055718 0.250854,0.055771 0.054698,4.68e-5 0.1288615,0.023897 0.167734,0.053911 0.020172,0.015575 0.081075,0.041532 0.1353567,0.057681 0.054281,0.016149 0.1113473,0.042178 0.126805,0.057825 0.015458,0.015648 0.033271,0.028442 0.039589,0.028442 0.030437,0 0.1562464,0.071423 0.2084052,0.1183088 0.032194,0.028939 0.070976,0.056324 0.08616,0.060846 0.015185,0.00452 0.024199,0.013379 0.020039,0.019694 -0.011071,0.016805 -0.054184,0.013997 -0.074311,-0.00483 -0.00958,-0.00897 -0.045325,-0.024008 -0.079437,-0.033443 -0.045844,-0.012681 -0.058572,-0.021056 -0.048811,-0.032091 0.015415,-0.017425 -0.00647,-0.035598 -0.027896,-0.023173 -0.00739,0.00428 -0.033296,-0.00375 -0.057594,-0.017834 -0.024297,-0.014088 -0.05907,-0.025614 -0.077273,-0.025614 -0.018202,0 -0.040477,-0.00835 -0.049507,-0.018558 -0.00903,-0.010207 -0.027359,-0.018558 -0.040723,-0.018558 -0.013363,0 -0.030376,-0.01067 -0.037812,-0.023705 -0.00986,-0.017283 -0.048371,-0.031054 -0.1422338,-0.05089 -0.070793,-0.014961 -0.1376131,-0.034195 -0.1484931,-0.042747 -0.037988,-0.029857 -0.165649,-0.06494 -0.2663341,-0.073194 -0.1190896,-0.00976 -0.1860417,0.00957 -0.2109813,0.060918 -0.00868,0.017875 -0.032682,0.040697 -0.053344,0.050721 -0.020662,0.010024 -0.044498,0.032482 -0.052957,0.049899 -0.00846,0.017417 -0.061618,0.075501 -0.1181251,0.1290859 C 5.8234343,7.7156747 5.77722,7.7645851 5.77722,7.7707823 c 0,0.0062 -0.039022,0.049442 -0.0867,0.096102 -0.047679,0.046659 -0.094751,0.09917 -0.1046278,0.11669 -0.00988,0.01752 -0.036161,0.050142 -0.058392,0.072469 -0.022232,0.022327 -0.040414,0.047544 -0.040414,0.056037 0,0.00849 -0.015127,0.030751 -0.033613,0.049464 -0.054418,0.055085 -0.040128,0.067736 0.1127409,0.09992 0.0544,0.011453 0.1226639,0.030881 0.1517131,0.043158 0.02905,0.012278 0.106162,0.034411 0.1713656,0.049199 0.065204,0.014787 0.1216571,0.031592 0.1254398,0.037334 0.00971,0.014746 0.1572562,0.086388 0.1779081,0.086388 0.00941,0 0.047997,0.019486 0.085721,0.043302 0.037725,0.023817 0.076673,0.043302 0.086572,0.043302 0.0099,0 0.037503,0.015311 0.061329,0.034024 0.077422,0.060808 0.1237904,0.087242 0.1816171,0.1034959 0.03481,0.00978 0.059249,0.024809 0.063158,0.038832 0.00351,0.012582 0.04143,0.039454 0.084253,0.059734 0.048281,0.022865 0.087615,0.051962 0.1035716,0.076577 0.014734,0.022729 0.044145,0.045485 0.068799,0.053234 0.023682,0.00744 0.049673,0.025832 0.057749,0.040862 0.00808,0.01503 0.032157,0.039615 0.053524,0.054636 0.021367,0.015021 0.056303,0.042884 0.077634,0.061909 0.02133,0.019025 0.056595,0.045095 0.078355,0.057946 0.02176,0.01285 0.050867,0.043229 0.064703,0.067491 0.013835,0.024263 0.029934,0.0441 0.035752,0.0441 0.015915,0 0.078082,0.064441 0.090692,0.093999 0.00609,0.014267 0.032326,0.035405 0.058316,0.046976 0.025989,0.01157 0.047265,0.028436 0.047265,0.037503 0,0.00907 0.04451,0.064259 0.09891,0.1226342 0.0544,0.058376 0.098909,0.1098078 0.098909,0.1142978 0,0.00449 0.017703,0.027099 0.039358,0.050238 0.021655,0.023138 0.042998,0.055602 0.04742,0.072131 0.00442,0.016529 0.021595,0.038372 0.038147,0.048546 0.016552,0.010175 0.034225,0.03413 0.03928,0.053234 0.00506,0.019104 0.019837,0.045859 0.032867,0.059469 0.024405,0.025489 0.034801,0.043073 0.1050395,0.1780678 l 0.041161,0.07911 0.085181,-0.0075 c 0.087998,-0.0077 0.145502,-0.03261 0.1578942,-0.06834 0.00407,-0.01175 0.049782,-0.03553 0.1067402,-0.05553 0.074736,-0.02625 0.1026485,-0.04247 0.1117625,-0.06495 0.00668,-0.01648 0.018545,-0.029964 0.026376,-0.029964 0.030957,0 0.138009,-0.053923 0.1606507,-0.080927 0.013199,-0.015742 0.043692,-0.034736 0.067768,-0.042191 0.043924,-0.013599 0.1059093,-0.065968 0.1163731,-0.098325 0.00308,-0.00952 0.036826,-0.02479 0.074981,-0.033951 0.059204,-0.014214 0.074725,-0.014066 0.1059671,0.00108 0.03073,0.014909 0.03566,0.023924 0.03063,0.05611 -0.0037,0.023608 0.0016,0.046461 0.01386,0.059493 0.01092,0.01164 0.01972,0.043855 0.01955,0.071575 -2.99e-4,0.047296 -0.0043,0.052487 -0.06437,0.084188 -0.06432,0.03392 -0.09162,0.06383 -0.0817,0.08955 0.0029,0.0076 -0.01324,0.01732 -0.035932,0.02158 -0.08158,0.01531 -0.1552117,0.05371 -0.1598008,0.08337 -0.00354,0.02288 -0.018189,0.03152 -0.076887,0.04543 -0.049658,0.01177 -0.086827,0.03064 -0.117996,0.05988 -0.025025,0.02348 -0.060635,0.04582 -0.079153,0.04966 -0.018517,0.0038 -0.052382,0.01479 -0.075238,0.02436 -0.022856,0.0096 -0.047665,0.0174 -0.055147,0.0174 -0.00748,0 -0.017137,0.01046 -0.021456,0.02322 -0.00529,0.01564 -0.033785,0.03002 -0.08737,0.04412 -0.084998,0.02237 -0.1061097,0.04447 -0.075006,0.07849 0.010657,0.01165 0.023059,0.03093 0.027561,0.04284 0.00971,0.0257 0.052621,0.02847 0.077634,0.005 0.00977,-0.0092 0.040617,-0.02069 0.068567,-0.02561 0.071176,-0.01253 0.181157,-0.06049 0.2110325,-0.09204 0.013818,-0.01459 0.032026,-0.02653 0.040465,-0.02653 0.050824,0 0.1467087,-0.039 0.1586155,-0.06452 0.00774,-0.0166 0.046904,-0.04359 0.094866,-0.06539 0.044921,-0.02041 0.084422,-0.04686 0.087782,-0.05877 0.0034,-0.01212 0.04384,-0.03753 0.09183,-0.05773 0.05446,-0.02293 0.08889,-0.04548 0.09443,-0.06186 0.0048,-0.01418 0.01713,-0.02578 0.02741,-0.02578 0.01028,0 0.03669,-0.01531 0.0587,-0.03402 0.03367,-0.02863 0.04102,-0.04548 0.04631,-0.1062516 0.0045,-0.05189 7.23e-4,-0.079662 -0.01344,-0.098639 -0.01085,-0.014528 -0.01971,-0.038956 -0.01971,-0.054297 0,-0.016041 -0.0139,-0.036426 -0.03271,-0.04799 -0.02767,-0.017009 -0.03046,-0.02407 -0.01811,-0.045719 0.01179,-0.020672 0.01005,-0.028696 -0.009,-0.041756 -0.01296,-0.00889 -0.02566,-0.034201 -0.02823,-0.056231 -0.0026,-0.022029 -0.01053,-0.045518 -0.01767,-0.052219 -0.0071,-0.0067 -0.01298,-0.022383 -0.01298,-0.034845 0,-0.012462 -0.0089,-0.025878 -0.01978,-0.029795 -0.02388,-0.0086 -0.02711,-0.058302 -0.0033,-0.050866 0.0091,0.00283 0.01849,0.014933 0.02097,0.026895 0.0025,0.011962 0.01582,0.032389 0.02967,0.045381 0.01385,0.012992 0.02519,0.03646 0.02519,0.052171 0,0.015711 0.0087,0.039373 0.01937,0.052582 0.01065,0.013209 0.01955,0.033852 0.01978,0.045864 5.43e-4,0.028321 0.07236,0.1476378 0.106121,0.1763037 0.01439,0.012216 0.02617,0.035444 0.02617,0.051615 0,0.01617 0.0095,0.032815 0.02112,0.036995 0.02338,0.00842 0.04583,-0.016235 0.03622,-0.03975 -0.0035,-0.00853 0.0089,-0.018625 0.02867,-0.02327 0.04778,-0.01125 0.132639,-0.065473 0.156967,-0.1003064 0.01104,-0.015814 0.03146,-0.03215 0.04538,-0.036295 0.01392,-0.00414 0.03261,-0.024057 0.04152,-0.044245 0.0089,-0.020188 0.02141,-0.036706 0.02777,-0.036706 0.01997,0 0.11712,-0.088634 0.11712,-0.1068548 0,-0.00956 0.01335,-0.023166 0.02967,-0.030229 0.01632,-0.00706 0.04748,-0.035317 0.06924,-0.062779 0.02176,-0.027463 0.05588,-0.057903 0.07583,-0.067636 0.02126,-0.010374 0.03627,-0.027965 0.03627,-0.042529 0,-0.015278 0.01777,-0.034695 0.04616,-0.050407 0.02589,-0.01433 0.04616,-0.035448 0.04616,-0.048087 0,-0.012393 0.02659,-0.04663 0.05912,-0.076094 0.03252,-0.029464 0.05922,-0.060149 0.05935,-0.068192 10e-5,-0.00804 0.01804,-0.026519 0.0398,-0.041055 0.02176,-0.014536 0.03956,-0.03629 0.03956,-0.048353 0,-0.012063 0.02374,-0.044654 0.05275,-0.072421 0.02901,-0.027767 0.05276,-0.057895 0.05278,-0.066935 2.1e-5,-0.00904 0.01771,-0.02753 0.03931,-0.041104 0.02159,-0.013573 0.04575,-0.039369 0.05368,-0.057318 0.0079,-0.01795 0.03178,-0.048262 0.05301,-0.067346 0.02123,-0.019084 0.03861,-0.044132 0.03861,-0.055675 0,-0.011542 0.01072,-0.023607 0.02383,-0.026822 0.01311,-0.00322 0.0451,-0.035885 0.07109,-0.07259 0.02599,-0.036705 0.05978,-0.07734 0.07508,-0.090302 0.0153,-0.012963 0.02782,-0.028327 0.02782,-0.034144 0,-0.00582 0.03442,-0.050894 0.0765,-0.1001609 0.04208,-0.049267 0.108308,-0.1313342 0.147179,-0.1823691 0.03887,-0.051035 0.07879,-0.097307 0.08868,-0.1028431 0.0099,-0.00554 0.02996,-0.034005 0.04461,-0.063239 0.01465,-0.029233 0.0412,-0.059369 0.05901,-0.066984 0.018,-0.0077 0.0324,-0.024386 0.0324,-0.037576 0,-0.01305 0.02077,-0.040829 0.04616,-0.06174 0.02539,-0.020911 0.04616,-0.04847 0.04616,-0.061233 0,-0.012762 0.01261,-0.03382 0.02802,-0.046782 0.01541,-0.012963 0.05625,-0.062697 0.09075,-0.1105279 0.0345,-0.047832 0.07278,-0.094788 0.08505,-0.1043414 0.01227,-0.00955 0.03381,-0.038525 0.04788,-0.064398 0.01407,-0.025873 0.04033,-0.056112 0.05837,-0.067201 0.01826,-0.011223 0.03282,-0.03206 0.03282,-0.047 0,-0.016688 0.01492,-0.035117 0.03946,-0.048716 0.02171,-0.01203 0.04575,-0.032878 0.05342,-0.046323 0.01752,-0.030709 0.039,-0.019547 0.039,0.020274 0,0.02302 0.0071,0.030246 0.02967,0.030375 0.01632,9.35e-5 0.04287,0.00348 0.05901,0.00754 l 0.02934,0.00739 -0.02779,0.02112 c -0.0235,0.01785 -0.02541,0.025284 -0.01239,0.048111 0.0085,0.014855 0.0241,0.027016 0.03472,0.027016 0.01063,0 0.01922,0.00418 0.01911,0.00928 -4.48e-4,0.021513 -0.03491,0.099132 -0.06244,0.1406606 -0.01632,0.02462 -0.02967,0.050255 -0.02967,0.05698 0,0.00672 -0.02077,0.03775 -0.04616,0.068941 -0.02539,0.031191 -0.04616,0.061933 -0.04616,0.068313 0,0.00638 -0.0083,0.018048 -0.01842,0.025929 -0.01012,0.00788 -0.02218,0.033282 -0.02681,0.056472 -0.0052,0.026121 -0.01805,0.045026 -0.03369,0.049682 -0.02555,0.00761 -0.04875,0.051456 -0.03436,0.064954 0.01108,0.010393 -0.03221,0.052654 -0.05394,0.052654 -0.0099,0 -0.02172,0.017087 -0.02617,0.037962 -0.0045,0.020875 -0.02187,0.046432 -0.03871,0.056787 -0.01685,0.010355 -0.03443,0.030848 -0.03907,0.04555 -0.0046,0.014702 -0.02473,0.046212 -0.04464,0.070028 -0.0199,0.023816 -0.04615,0.061397 -0.05834,0.083512 -0.01219,0.022116 -0.02785,0.04021 -0.0348,0.04021 -0.0069,0 -0.02706,0.026446 -0.04472,0.058768 -0.01765,0.032322 -0.04447,0.068457 -0.05958,0.080298 -0.01511,0.011842 -0.02746,0.030294 -0.02746,0.041007 0,0.010713 -0.0178,0.033543 -0.03956,0.050721 -0.02176,0.017178 -0.03956,0.037983 -0.03956,0.046251 0,0.00827 -0.02077,0.03392 -0.04616,0.057004 -0.02539,0.023083 -0.04616,0.047154 -0.04616,0.0535 0,0.00635 -0.02077,0.033131 -0.04616,0.059493 -0.02539,0.026362 -0.04616,0.058488 -0.04616,0.071406 0,0.013727 -0.01918,0.034097 -0.04616,0.049029 -0.03133,0.01734 -0.04616,0.034638 -0.04616,0.053814 0,0.017461 -0.01763,0.041451 -0.04616,0.062803 -0.02539,0.019003 -0.04616,0.040704 -0.04616,0.048232 0,0.00753 -0.02077,0.032617 -0.04616,0.055747 -0.02539,0.02313 -0.04616,0.052733 -0.04616,0.065776 0,0.013042 -0.01141,0.02944 -0.02535,0.03644 -0.04316,0.021669 -0.06697,0.050518 -0.06697,0.081144 0,0.019817 -0.01175,0.034656 -0.03614,0.045622 -0.01988,0.00894 -0.04399,0.031598 -0.05358,0.050359 -0.0096,0.01876 -0.03487,0.046212 -0.05618,0.060991 -0.02131,0.01478 -0.03874,0.034109 -0.03874,0.042964 0,0.015872 -0.08989,0.1174232 -0.178758,0.2019417 -0.02504,0.023816 -0.04551,0.04918 -0.04549,0.056351 2.6e-5,0.00717 -0.02072,0.031914 -0.04611,0.054998 -0.02539,0.023084 -0.04616,0.04911 -0.04616,0.057825 0,0.00872 -0.01491,0.024999 -0.03313,0.036198 -0.01822,0.011199 -0.0367,0.033753 -0.04108,0.050117 -0.0044,0.016364 -0.03406,0.049829 -0.06597,0.074353 -0.03249,0.02498 -0.05648,0.05338 -0.05453,0.06459 0.0021,0.0123 -0.01255,0.02664 -0.03802,0.03716 -0.02312,0.0096 -0.05232,0.03646 -0.06597,0.06077 -0.01361,0.02424 -0.0479,0.0559 -0.0772,0.07124 -0.031,0.01623 -0.05446,0.0384 -0.05695,0.05381 -0.0024,0.01464 -0.02275,0.03499 -0.04616,0.04611 -0.05877,0.02791 -0.08809,0.05432 -0.08809,0.07931 0,0.01177 -0.01545,0.03089 -0.03431,0.04248 -0.02791,0.01716 -0.03316,0.02831 -0.0282,0.06 0.0033,0.02141 -2.49e-4,0.04849 -0.008,0.06017 -0.0098,0.01471 -0.01,0.03185 -6.43e-4,0.05584 0.01021,0.02623 0.0089,0.04145 -0.0056,0.06278 -0.01681,0.02486 -0.01653,0.03078 0.0025,0.05048 0.02334,0.02419 0.02857,0.05128 0.0099,0.05128 -0.01381,0 -0.0283,0.045 -0.01769,0.05495 0.01144,0.01073 0.04173,0.0082 0.06975,-0.0059 0.01402,-0.007 0.02553,-0.02364 0.02553,-0.03688 0,-0.01506 0.0118,-0.02685 0.0315,-0.03149 0.01732,-0.0041 0.05062,-0.03242 0.074,-0.06297 0.02338,-0.03055 0.0625,-0.06449 0.08693,-0.07542 0.02974,-0.0133 0.04922,-0.03346 0.05891,-0.06099 0.008,-0.02262 0.01994,-0.04113 0.02663,-0.04113 0.01408,0 0.174353,-0.155903 0.182364,-0.177391 0.0029,-0.0079 0.02817,-0.03524 0.05605,-0.06075 0.02788,-0.02551 0.05082,-0.05335 0.05097,-0.06186 1.49e-4,-0.0085 0.02389,-0.03116 0.05275,-0.05031 0.02937,-0.0195 0.05247,-0.04506 0.05247,-0.05807 0,-0.01278 0.01779,-0.03312 0.03956,-0.04519 0.02177,-0.01206 0.04316,-0.03248 0.04752,-0.04538 0.0044,-0.01291 0.04147,-0.05539 0.08242,-0.094386 0.04096,-0.039001 0.08634,-0.086304 0.100841,-0.1051148 0.04201,-0.054476 0.133495,-0.1574305 0.184167,-0.207258 0.02564,-0.025213 0.04662,-0.053012 0.04662,-0.061764 0,-0.00875 0.02098,-0.035449 0.04665,-0.059324 0.09,-0.08373 0.151171,-0.1577396 0.151171,-0.1829484 0,-0.015736 0.01762,-0.03566 0.04618,-0.052219 0.0254,-0.014726 0.0498,-0.040371 0.05425,-0.05698 0.0044,-0.016609 0.02075,-0.038515 0.03624,-0.048691 0.01549,-0.010176 0.04005,-0.03704 0.05455,-0.059686 0.04975,-0.077668 0.07784,-0.1130688 0.119155,-0.150133 0.02276,-0.020414 0.04523,-0.051709 0.04994,-0.069545 0.0047,-0.017836 0.02943,-0.047348 0.05492,-0.065582 0.02911,-0.020827 0.04634,-0.043632 0.04634,-0.061353 0,-0.017655 0.0127,-0.034604 0.03397,-0.045284 0.0187,-0.00939 0.04045,-0.028433 0.04832,-0.042312 0.0079,-0.013879 0.03708,-0.053558 0.06491,-0.088199 0.02783,-0.034642 0.05061,-0.068796 0.05061,-0.0759 0,-0.0071 0.01484,-0.022056 0.03297,-0.033202 0.01813,-0.011146 0.03297,-0.02652 0.03297,-0.034168 0,-0.00765 0.02077,-0.037677 0.04616,-0.066742 0.02539,-0.029065 0.04616,-0.061831 0.04616,-0.072807 0,-0.010976 0.0092,-0.023293 0.0205,-0.027354 0.01128,-0.00406 0.03289,-0.032112 0.04804,-0.062344 0.01515,-0.030232 0.04117,-0.063332 0.0578,-0.073556 0.01663,-0.010225 0.03411,-0.035147 0.03884,-0.055385 0.0047,-0.020238 0.01997,-0.043426 0.03382,-0.051543 0.01642,-0.00962 0.02519,-0.0288 0.02519,-0.055095 0,-0.02383 0.01079,-0.050453 0.02637,-0.065075 0.01451,-0.01361 0.02638,-0.037534 0.02638,-0.053185 0,-0.015651 0.0066,-0.034694 0.01476,-0.042312 0.03718,-0.034879 0.05664,-0.2637761 0.0366,-0.4303193 -0.0071,-0.059213 -0.0048,-0.077267 0.01136,-0.089287 0.02833,-0.021045 0.04572,-0.00702 0.02857,0.023053 -0.01633,0.028633 -0.01807,0.02602 0.03385,0.051035 0.03445,0.0166 0.04398,0.016757 0.07583,0.0013 0.02341,-0.011359 0.03642,-0.027616 0.03642,-0.045526 0,-0.015323 0.008,-0.038845 0.01775,-0.052268 0.0098,-0.013422 0.03153,-0.063378 0.04835,-0.1110114 0.01682,-0.047632 0.03843,-0.1033075 0.04804,-0.1237214 0.0096,-0.020414 0.02604,-0.078227 0.03652,-0.1284822 0.01049,-0.050255 0.0254,-0.097315 0.03312,-0.1045593 0.0077,-0.00724 0.01422,-0.027352 0.01445,-0.044704 0,-0.017352 0.0091,-0.04237 0.01978,-0.055578 0.01065,-0.013209 0.01937,-0.036666 0.01937,-0.052146 0,-0.01548 0.0096,-0.047081 0.02135,-0.070198 0.02367,-0.046558 0.02168,-0.052506 -0.05211,-0.1563676 -0.03597,-0.050629 -0.03676,-0.055093 -0.02215,-0.1223439 0.0083,-0.038391 0.01802,-0.1158119 0.02153,-0.1720508 0.0045,-0.072771 0.01566,-0.1209279 0.03853,-0.1670239 0.01768,-0.035624 0.0322,-0.079929 0.03227,-0.098446 0,-0.018517 0.02683,-0.076036 0.05948,-0.1278294 0.03264,-0.051793 0.05935,-0.1048516 0.05935,-0.1178984 0,-0.013047 0.0089,-0.023729 0.01978,-0.023729 0.01088,0 0.01978,-0.010445 0.01978,-0.023222 0,-0.012776 0.0089,-0.030168 0.01978,-0.038639 0.01088,-0.00847 0.01978,-0.023252 0.01978,-0.032839 0,-0.00959 0.0081,-0.02033 0.0179,-0.023874 0.0098,-0.00354 0.02577,-0.028804 0.03539,-0.056158 0.0096,-0.027354 0.02953,-0.05765 0.04425,-0.067322 0.01803,-0.011847 0.02581,-0.029283 0.02385,-0.053427 -0.0018,-0.02247 0.0045,-0.038525 0.01697,-0.043013 0.01508,-0.00543 0.01989,-0.027935 0.01989,-0.093299 0,-0.073838 -0.0036,-0.087231 -0.02511,-0.093637 -0.01381,-0.00411 -0.03448,-0.026034 -0.04595,-0.048716 -0.01147,-0.022682 -0.04174,-0.05616 -0.06723,-0.074402 -0.0255,-0.018242 -0.04634,-0.039424 -0.04634,-0.047048 0,-0.02103 -0.04104,-0.059106 -0.0637,-0.059106 -0.01103,0 -0.06354,-0.020143 -0.116682,-0.044777 -0.06378,-0.029563 -0.09136,-0.039638 -0.129304,-0.040862 z m 1.264367,0.4255343 c -0.01216,7.669e-4 -0.02465,0.00518 -0.04245,0.013508 -0.03465,0.016215 -0.04,0.023496 -0.02761,0.037503 0.021,0.023741 0.122911,0.022698 0.144294,-0.00147 0.0192,-0.021709 0.01938,-0.021518 -0.03367,-0.041273 -0.01656,-0.00617 -0.02841,-0.00903 -0.04057,-0.00826 z M 12.87523,5.5101057 c -0.05005,0.0015 -0.06952,0.018048 -0.08758,0.056762 -0.01193,0.02558 -0.03635,0.065441 -0.05424,0.088562 -0.01789,0.023122 -0.03253,0.051662 -0.03253,0.063432 0,0.01177 -0.0089,0.028331 -0.01978,0.036802 -0.01088,0.00847 -0.01978,0.029583 -0.01978,0.046927 0,0.017344 -0.0099,0.04179 -0.02197,0.054322 -0.01209,0.012532 -0.02178,0.040824 -0.02153,0.062851 0,0.022028 -0.0084,0.049587 -0.01922,0.061257 -0.01214,0.013101 -0.01694,0.034399 -0.01254,0.055675 0.0045,0.021945 -4.98e-4,0.042363 -0.01368,0.056206 -0.01145,0.011955 -0.02192,0.039793 -0.02328,0.061861 -0.0013,0.022068 -0.0073,0.050598 -0.01314,0.063407 -0.0065,0.01411 -0.0042,0.032963 0.0057,0.047845 0.01173,0.017619 0.01231,0.02836 0.0021,0.037962 -0.0078,0.00736 -0.01427,0.023418 -0.01427,0.035666 0,0.017921 0.01095,0.02229 0.05605,0.022449 0.757726,0.00267 1.382727,0.02163 1.405107,0.042626 0.0037,0.00348 0.09633,0.0031 0.205829,-8.697e-4 l 0.199107,-0.00723 0.03596,-0.039001 c 0.01978,-0.021459 0.04948,-0.052944 0.06599,-0.069956 0.02881,-0.029688 0.05344,-0.073163 0.114081,-0.2013858 0.03538,-0.074821 0.03509,-0.091781 -0.0017,-0.1026262 -0.01632,-0.00481 -0.04154,-0.020567 -0.05605,-0.035038 -0.01451,-0.014472 -0.05308,-0.033573 -0.08572,-0.042433 -0.03264,-0.00886 -0.07756,-0.0213 -0.09984,-0.027644 -0.02228,-0.00634 -0.05788,-0.011557 -0.07913,-0.011599 -0.02124,-4.21e-5 -0.05543,-0.00829 -0.07596,-0.018341 C 14.140534,5.813034 13.998687,5.770916 13.901057,5.7559 13.846657,5.74753 13.766539,5.724934 13.72302,5.705686 13.6795,5.686438 13.578611,5.658977 13.498825,5.644671 13.291085,5.607423 13.294413,5.608305 13.294413,5.59018 c 0,-0.017586 -0.119237,-0.044806 -0.311102,-0.071043 -0.03432,-0.00469 -0.06197,-0.00776 -0.08459,-0.00877 -0.0085,-3.74e-4 -0.01626,-4.769e-4 -0.02341,-2.805e-4 z M 27.623737,5.912201 v 2.39e-5 c 0.01,0 0.01933,0.00251 0.02689,0.00952 0.03987,0.037399 -0.229994,0.3207192 -0.327328,0.3436414 -0.05253,0.012345 -0.09551,0.037369 -0.09551,0.055578 0,0.018195 -0.019,0.033081 -0.04227,0.033081 -0.02327,0 -0.03663,-0.037417 -0.02967,-0.083149 0.0073,-0.048173 0.04587,-0.088951 0.09172,-0.096947 0.04352,-0.00758 0.09341,-0.03698 0.11081,-0.065317 0.0174,-0.028351 0.06636,-0.051542 0.1088,-0.051542 0.04244,0 0.07712,-0.024083 0.07712,-0.0535 0,-0.046097 0.0438,-0.089888 0.07944,-0.09139 z M 8.5489198,5.918431 c 0.2913798,-0.00543 0.4725499,0.00613 0.4725499,0.030157 0,0.00957 0.0092,0.017398 0.02043,0.017398 0.01123,0 0.04479,0.011066 0.07459,0.024575 0.0298,0.013509 0.08553,0.031375 0.123818,0.039726 0.05003,0.010913 0.07342,0.023013 0.08312,0.042989 0.0074,0.015288 0.03775,0.039402 0.06741,0.053596 0.02966,0.014194 0.0576,0.035302 0.06208,0.046903 0.0045,0.011601 0.02496,0.041391 0.04551,0.066186 0.02055,0.024796 0.03737,0.056613 0.03737,0.070705 0,0.014092 0.01118,0.031228 0.02483,0.038083 0.02835,0.014235 0.04392,0.069049 0.04196,0.147693 -7.43e-4,0.029772 0.0054,0.061784 0.0137,0.07114 0.0083,0.00936 0.01063,0.017012 0.0052,0.017012 -0.0054,0 -0.0037,0.00696 0.0038,0.015465 0.031,0.035184 -0.0025,0.2577538 -0.05208,0.3464691 -0.0147,0.026272 -0.02248,0.056846 -0.0179,0.070391 0.0056,0.016529 -1.99e-4,0.028116 -0.01875,0.037431 -0.02877,0.014443 -0.07049,0.079338 -0.05834,0.090737 0.004,0.00378 -0.01394,0.019796 -0.03992,0.035594 -0.02991,0.018182 -0.04732,0.038482 -0.04742,0.055336 -1e-4,0.01811 -0.01582,0.034244 -0.04912,0.050456 -0.02693,0.013108 -0.05854,0.040095 -0.07024,0.059976 -0.01219,0.020714 -0.03458,0.037985 -0.05244,0.040427 -0.01715,0.00234 -0.08011,0.028462 -0.13989,0.058043 -0.113094,0.055959 -0.12856,0.059648 -0.3346691,0.079719 -0.1652512,0.016092 -0.1887472,0.015049 -0.3846391,-0.016722 h -2.6e-5 C 8.216135,7.4846098 8.1877881,7.4761096 8.1567357,7.4469775 8.1368883,7.4283578 8.0887583,7.4044265 8.0497638,7.3937916 8.0038229,7.3812625 7.9713599,7.3637473 7.957577,7.3440128 7.9458781,7.3272625 7.9108497,7.299537 7.879712,7.2824179 7.848574,7.2652989 7.811018,7.2321229 7.796283,7.2086919 7.781548,7.1852619 7.763478,7.1660909 7.756127,7.1660909 c -0.00735,0 -0.024703,-0.020878 -0.038585,-0.046396 C 7.703659,7.0941769 7.679786,7.0627019 7.664507,7.0497389 7.649229,7.0367759 7.63674,7.0186049 7.63674,7.0093599 c 0,-0.00924 -0.00584,-0.026484 -0.012982,-0.038301 -0.025144,-0.041589 -0.066146,-0.175815 -0.066146,-0.216561 0,-0.02267 -0.00679,-0.047598 -0.015094,-0.055385 -0.01133,-0.01063 -0.011021,-0.023383 0.00126,-0.051205 0.009,-0.020382 0.012729,-0.042587 0.00829,-0.049319 -0.010658,-0.016179 0.019311,-0.1262058 0.041135,-0.1510518 0.00944,-0.010743 0.017154,-0.034099 0.017154,-0.051905 0,-0.023105 0.01037,-0.037045 0.036215,-0.048667 0.019919,-0.00896 0.04514,-0.033859 0.056049,-0.055336 0.020315,-0.039998 0.078581,-0.090568 0.1043442,-0.090568 0.00792,0 0.014399,-0.011328 0.014399,-0.025179 0,-0.017894 0.016423,-0.0318 0.056745,-0.048015 0.031212,-0.012552 0.07464,-0.0396 0.096514,-0.060121 0.025515,-0.023937 0.067813,-0.044394 0.117996,-0.057076 0.1774202,-0.044838 0.1975812,-0.051426 0.2123206,-0.069304 0.012426,-0.015072 0.059573,-0.019496 0.2439765,-0.022932 z m 0.1792221,0.049561 c -0.020403,-0.0017 -0.051283,-2.339e-4 -0.1028763,0.00355 -0.06618,0.00486 -0.1539611,0.018945 -0.195063,0.031293 -0.041102,0.012348 -0.116255,0.028992 -0.1670127,0.036996 -0.1418186,0.022362 -0.188854,0.039218 -0.1972776,0.070705 -0.00522,0.019504 -0.020717,0.02992 -0.052958,0.035594 -0.02507,0.00441 -0.052439,0.015805 -0.06084,0.0253 -0.0084,0.0095 -0.023652,0.017253 -0.033871,0.017253 -0.010219,0 -0.022015,0.00842 -0.026222,0.018703 -0.00421,0.010284 -0.026277,0.037228 -0.049043,0.059879 -0.045029,0.044802 -0.1139262,0.1455738 -0.1139262,0.1666377 0,0.022547 0.023598,0.028601 0.1354853,0.034749 0.061943,0.0034 0.1210245,0.013623 0.1377004,0.023826 0.040798,0.024963 0.1302397,0.051583 0.2081735,0.061957 0.036267,0.00483 0.080776,0.013991 0.09891,0.020347 0.029622,0.010382 0.030626,0.012794 0.00989,0.023681 -0.031234,0.016399 -0.030929,0.080294 3.987e-4,0.087983 0.031785,0.0078 0.031998,0.1213086 2.991e-4,0.1322516 -0.011434,0.00394 -0.046664,0.028365 -0.078304,0.054297 C 8.1187239,6.9737062 7.9981455,7.0544403 7.9703773,7.05459 7.9197803,7.0548705 7.8766863,7.029796 7.8838053,7.004256 7.8876353,6.990515 7.8762853,6.965556 7.8558333,6.942757 7.8369013,6.92165 7.8213953,6.896837 7.8213953,6.887638 c 0,-0.024428 -0.037486,-0.055602 -0.066867,-0.055602 -0.029512,0 -0.033606,0.028984 -0.00734,0.052001 0.011688,0.010243 0.015816,0.031877 0.011643,0.061064 -0.00544,0.038024 -0.00205,0.046499 0.021456,0.0535 0.030793,0.00917 0.059794,0.050169 0.048064,0.067974 -0.00411,0.00623 0.016263,0.029254 0.045282,0.051132 0.029019,0.021878 0.056127,0.049665 0.060221,0.061764 0.00409,0.012099 0.039295,0.038866 0.078252,0.059493 0.038958,0.020626 0.078814,0.048186 0.088555,0.061233 0.021505,0.028803 0.1112601,0.058662 0.2298358,0.076432 0.048493,0.00727 0.098843,0.018544 0.1118657,0.025083 0.027837,0.013976 0.1121791,0.033557 0.1522533,0.035328 0.015454,6.828e-4 0.065881,-0.011889 0.1120716,-0.027934 0.046203,-0.016048 0.1403825,-0.036048 0.209281,-0.044438 0.133676,-0.016278 0.199002,-0.04162 0.172139,-0.066742 -0.0098,-0.0092 -0.07039,-0.014305 -0.169563,-0.014305 H 8.7643078 L 8.7614778,7.235389 C 8.7597978,7.206806 8.7476508,7.17619 8.7316758,7.160238 8.7168498,7.145433 8.7087068,7.129591 8.7135688,7.125031 8.7237598,7.115471 8.6960358,6.9881912 8.6744948,6.9456346 c -0.013159,-0.025997 -0.00778,-0.034405 0.057413,-0.089239 0.039575,-0.033289 0.081851,-0.063742 0.093938,-0.067684 0.012087,-0.00394 0.028464,-0.024638 0.036396,-0.045985 l 0.014424,-0.038808 0.026196,0.026388 c 0.014406,0.014506 0.048473,0.029894 0.075702,0.034217 0.02723,0.00432 0.07324,0.015361 0.102257,0.024527 0.02901,0.00917 0.07621,0.020266 0.104886,0.024672 0.09062,0.013923 0.148167,0.048971 0.156194,0.095135 0.0053,0.030417 7.03e-4,0.04591 -0.01819,0.061257 -0.01391,0.011297 -0.02532,0.030784 -0.02537,0.043303 -4.6e-5,0.012518 -0.01763,0.032112 -0.03905,0.043544 -0.02142,0.011433 -0.04956,0.042053 -0.06256,0.068047 -0.01739,0.034767 -0.03287,0.04827 -0.05852,0.051059 -0.04315,0.00469 -0.0832,0.044061 -0.0722,0.070971 0.0098,0.023964 0.0711,0.015585 0.133502,-0.018244 0.02997,-0.01625 0.03871,-0.029094 0.03601,-0.053017 -0.0031,-0.027105 0.0028,-0.032713 0.04157,-0.039533 0.04519,-0.00795 0.06089,-0.025958 0.06089,-0.069835 0,-0.013503 0.01675,-0.031533 0.03956,-0.042602 0.02531,-0.012278 0.03956,-0.028762 0.03956,-0.045743 0,-0.0146 0.01005,-0.036947 0.02233,-0.049682 0.01228,-0.012734 0.03082,-0.04381 0.04119,-0.069038 0.02218,-0.053998 0.03195,-0.2374418 0.01375,-0.2581723 -0.0081,-0.00924 -0.0077,-0.017218 0.0012,-0.022376 0.02061,-0.011949 0.01671,-0.051574 -0.0073,-0.074088 -0.01387,-0.01301 -0.01828,-0.0304 -0.01285,-0.050673 0.0063,-0.023482 -2e-6,-0.038052 -0.02625,-0.06087 -0.01897,-0.016497 -0.03071,-0.035738 -0.02609,-0.042746 0.01139,-0.017281 -0.04091,-0.081527 -0.07993,-0.098204 -0.01737,-0.00743 -0.03158,-0.021846 -0.03158,-0.032042 0,-0.026042 -0.05152,-0.054721 -0.105787,-0.058889 -0.04274,-0.00328 -0.04598,-9.866e-4 -0.04739,0.033589 -8.38e-4,0.020414 -0.0023,0.043681 -0.0033,0.051688 -9.77e-4,0.00801 -0.03448,0.028595 -0.07447,0.045767 -0.03998,0.017173 -0.07639,0.040264 -0.0809,0.051301 -0.0045,0.011036 -0.03857,0.033447 -0.075677,0.049803 -0.037103,0.016356 -0.077446,0.036568 -0.089662,0.044921 -0.017829,0.012191 -0.036272,0.01102 -0.093475,-0.0059 -0.039195,-0.011591 -0.088554,-0.02116 -0.109676,-0.021265 -0.021123,-9.35e-5 -0.045342,-0.00433 -0.053834,-0.0094 -0.025124,-0.015007 -0.083442,-0.1335332 -0.083442,-0.1696733 0,-0.018378 -0.00944,-0.063924 -0.020992,-0.1012005 -0.011551,-0.037276 -0.018277,-0.070329 -0.014939,-0.07346 0.016246,-0.015241 0.1825411,-0.029884 0.278028,-0.024478 0.09493,0.00537 0.1043223,0.00404 0.081008,-0.011333 -0.014507,-0.00957 -0.036516,-0.026736 -0.048914,-0.038156 -0.00967,-0.0089 -0.019599,-0.013785 -0.040001,-0.015489 z M 25.663785,6.058729 c 0.02439,0 0.05793,0.00966 0.09365,0.03093 0.04037,0.024002 0.03397,0.036005 -0.02712,0.050987 -0.04765,0.011643 -0.08842,-0.00143 -0.100996,-0.031994 -0.01317,-0.032181 0.0031,-0.049531 0.03446,-0.049923 z M 9.0108067,6.062979 c -0.01043,-1.403e-4 -0.0212,4.53e-5 -0.0322,6.78e-4 -0.041007,0.00233 -0.02455,0.023226 0.03297,0.041877 0.07358,0.023855 0.128583,0.025927 0.128583,0.00483 0,-0.026625 -0.05634,-0.046246 -0.129355,-0.047386 z m 2.2587673,0.030858 c 2.49e-4,-1.22e-5 4.98e-4,-9.8e-6 7.47e-4,0 0.0019,4.68e-5 0.004,7.388e-4 0.0063,0.00205 0.0073,0.0042 0.01319,0.010097 0.01319,0.013097 0,0.003 -0.0059,0.00546 -0.01319,0.00546 -0.0073,0 -0.01319,-0.00589 -0.01319,-0.013097 0,-0.00464 0.0025,-0.00733 0.0062,-0.00752 z m 0.04721,0.059179 c 0.01825,-4.209e-4 0.05213,0.013334 0.05213,0.02414 0,0.015931 -0.0492,0.01456 -0.05989,-0.00167 -0.0048,-0.00726 -0.0056,-0.016123 -0.0018,-0.019694 0.0019,-0.00182 0.0053,-0.00268 0.0095,-0.00278 z M 25.95407,6.2077 c 0.10294,0.00512 0.245854,0.046815 0.285549,0.091679 0.04074,0.046055 0.0304,0.054459 -0.0653,0.05321 -0.0625,-0.0014 -0.16708,-0.028674 -0.23236,-0.061837 -0.0715,-0.036333 -0.09814,-0.066707 -0.06707,-0.076456 0.01062,-0.00337 0.02348,-0.00547 0.03794,-0.00645 0.01266,-8.604e-4 0.02653,-8.791e-4 0.04124,-1.403e-4 z M 11.406008,6.225799 c 0.01689,0 0.08503,0.071023 0.07975,0.083125 -0.0026,0.00599 -0.02379,-5.284e-4 -0.04708,-0.014474 -0.03802,-0.022759 -0.05986,-0.068651 -0.03266,-0.068651 z m 0.144475,0.1739595 c 0.0028,-4.67e-5 0.0067,4.817e-4 0.01198,0.00143 0.01306,0.00236 0.02572,0.013977 0.02815,0.025807 0.0061,0.029513 -0.01386,0.027065 -0.03472,-0.00428 -0.01136,-0.017063 -0.01375,-0.022771 -0.0054,-0.022956 z m -2.8766942,0.076021 c -0.00567,-0.01606 0.026545,0.00302 0.028024,0.00718 0.00249,0.00701 0.022364,0.038014 0.044149,0.068869 0.033575,0.047553 0.038198,0.063274 0.030368,0.103206 -0.00979,0.049908 -0.056107,0.111393 -0.1026959,0.1363596 -0.028284,0.015157 -0.1185672,0.019565 -0.1511458,0.00737 v -2.39e-5 c -0.00969,-0.00362 -0.043333,-0.030721 -0.074775,-0.060218 -0.042114,-0.039509 -0.05527,-0.060414 -0.04997,-0.079428 0.00416,-0.014908 -0.00191,-0.035241 -0.014347,-0.048136 -0.020289,-0.021033 -0.018653,-0.023237 0.028437,-0.037817 0.030041,-0.0093 0.058436,-0.02928 0.071169,-0.050093 0.019134,-0.031276 0.030552,-0.035523 0.1177383,-0.043737 0.03151,-0.00297 0.078718,0.012531 0.073049,-0.00353 z m -0.9317836,0.010246 c 0,0.020217 -0.039409,0.00207 -0.044509,0.00981 -0.011502,0.017459 0.0073,0.064011 0.025861,0.064011 0.00969,0 0.032757,-0.00646 0.051232,-0.014353 0.03767,-0.016102 0.040604,-0.023575 0.017747,-0.045019 -0.00898,-0.00843 -0.050331,-0.034668 -0.050331,-0.01445 z m 5.1340698,0.06406 c -0.01239,0.00191 -0.02564,0.00137 -0.0391,0.00326 -0.05467,0.00769 -0.05868,0.010692 -0.05128,0.038349 0.0044,0.016503 0.0028,0.030012 -0.0036,0.030012 -0.02501,0 -0.08116,0.066843 -0.08116,0.096609 0,0.017249 -0.0096,0.041333 -0.02138,0.053524 -0.02672,0.027702 -0.01608,0.056382 0.02388,0.064374 0.05232,0.010464 0.160556,0.00111 0.201503,-0.017398 0.02154,-0.00975 0.0458,-0.030194 0.05391,-0.045453 0.0081,-0.015264 0.0246,-0.037988 0.03665,-0.050479 0.03123,-0.032378 0.02711,-0.062369 -0.01082,-0.078582 -0.02937,-0.012554 -0.03051,-0.015526 -0.01105,-0.028877 0.04917,-0.033732 -0.01089,-0.078672 -0.09754,-0.065341 z m -1.180602,0.027886 c 0.0015,2.942e-4 0.003,3.741e-4 0.0045,0.00123 0.0065,0.00376 0.01182,0.014867 0.01182,0.024672 0,0.018219 -0.01573,0.023715 -0.02988,0.010439 -0.01059,-0.00993 0.0014,-0.038765 0.01355,-0.036343 z m -3.9629721,0.028538 c 0,0.00288 -0.0062,1.87e-4 -0.010046,7.715e-4 -0.036689,0.00574 -0.051112,0.021581 -0.041367,0.045405 0.013661,0.033399 0.067743,0.018541 0.067743,-0.018607 0,-0.019547 -0.01633,-0.040029 -0.01633,-0.027571 z M 7.7213258,6.70798 c 0.00714,0.00714 -0.018649,0.011334 -0.018649,0.034482 0,0.039934 0.0086,0.052461 0.036009,0.052461 0.012829,0 0.017148,-0.012177 0.01427,-0.040113 -0.00315,-0.030534 -0.040815,-0.056015 -0.031631,-0.046831 z m 4.2780652,0.4459295 c 0.01299,4.331e-4 0.04211,0.037848 0.04211,0.057849 0,0.027207 -0.02123,0.018064 -0.03794,-0.016335 -0.0087,-0.017891 -0.01211,-0.035972 -0.0076,-0.040185 9.47e-4,-8.931e-4 0.0021,-0.00137 0.0034,-0.00133 z m 16.818755,0.130874 v 2.43e-5 c 0.0052,-1.403e-4 0.0097,0.00138 0.01314,0.00447 0.01523,0.014225 -0.0085,0.069073 -0.05278,0.1218613 -0.04427,0.052802 -0.09074,0.08044 -0.103237,0.061474 -0.02628,-0.03991 0.09277,-0.186455 0.142878,-0.1878298 z M 5.6272533,7.3641153 c -0.1176531,1.403e-4 -0.2208967,0.021577 -0.2577829,0.053573 -0.018719,0.016237 -0.062621,0.042606 -0.09757,0.058598 -0.034949,0.015992 -0.073336,0.044601 -0.085284,0.063577 -0.011948,0.018976 -0.026882,0.034507 -0.033202,0.034507 -0.00632,0 -0.043878,0.030621 -0.083455,0.068047 -0.039576,0.037426 -0.076954,0.068047 -0.083069,0.068047 -0.00611,0 -0.021001,0.019533 -0.033073,0.043399 -0.012072,0.023866 -0.039445,0.055528 -0.06084,0.070367 -0.021395,0.014839 -0.038894,0.036923 -0.038894,0.049078 0,0.012155 -0.017326,0.030502 -0.038482,0.040765 -0.023161,0.011236 -0.044244,0.035133 -0.053009,0.060049 -0.00801,0.022758 -0.032248,0.053637 -0.053859,0.068627 -0.021611,0.01499 -0.03928,0.037415 -0.03928,0.049827 0,0.012412 -0.015064,0.037803 -0.033459,0.056424 -0.037894,0.038359 -0.07204,0.1148463 -0.081497,0.1825622 -0.00635,0.045468 -0.00613,0.045717 0.031192,0.034603 0.020675,-0.00616 0.078805,-0.019844 0.1291746,-0.030423 0.052592,-0.011046 0.1044214,-0.030561 0.1217308,-0.045816 0.030913,-0.027244 0.1131806,-0.045404 0.2114961,-0.04671 0.05943,-7.902e-4 0.1129458,-0.038154 0.1068175,-0.074571 -0.00175,-0.010434 0.012909,-0.035098 0.032609,-0.054805 0.019699,-0.019706 0.035829,-0.048292 0.035829,-0.063528 0,-0.015848 0.014021,-0.0363 0.032763,-0.047821 0.018018,-0.011076 0.036728,-0.035381 0.041573,-0.054008 0.00484,-0.018627 0.022739,-0.04961 0.03977,-0.068844 0.01703,-0.019235 0.030961,-0.0458 0.030961,-0.059033 0,-0.013527 0.014132,-0.030099 0.0323,-0.037866 0.017772,-0.0076 0.038305,-0.029933 0.045617,-0.04961 0.00731,-0.019677 0.030573,-0.049416 0.051695,-0.066089 0.021122,-0.016674 0.045841,-0.047133 0.054915,-0.067685 0.00907,-0.020552 0.020617,-0.037358 0.025655,-0.037358 0.00504,0 0.022989,-0.023662 0.039899,-0.052581 0.01691,-0.02892 0.047883,-0.065671 0.06885,-0.081676 0.052552,-0.040115 0.030266,-0.06372 -0.060093,-0.063625 z m 6.5379407,0.073484 c -0.0059,-1.403e-4 -0.01301,0.00471 -0.0162,0.013677 -0.0029,0.00817 0.0018,0.012605 0.01053,0.00988 0.0087,-0.00272 0.01538,-0.00899 0.01484,-0.013919 -7.12e-4,-0.00647 -0.0046,-0.00955 -0.0092,-0.00964 z m 16.449724,0.141289 c 0.02048,0 0.03717,0.01673 0.03717,0.037141 0,0.020411 -0.02774,0.037116 -0.06166,0.037116 -0.03392,0 -0.05069,-0.016705 -0.03725,-0.037116 0.01345,-0.020411 0.04126,-0.037141 0.06174,-0.037141 z m -0.08299,0.167097 c 0.0013,4.67e-5 0.0025,3.74e-4 0.0036,0.00143 0.01924,0.011223 -2.7e-4,0.1043835 -0.04343,0.2071125 -0.04316,0.1027432 -0.06907,0.2010435 -0.05757,0.2184947 0.0115,0.017465 -0.01942,0.043753 -0.0687,0.058357 -0.04928,0.014617 -0.144703,0.065943 -0.212037,0.1140317 -0.06733,0.048103 -0.151902,0.087427 -0.187928,0.087427 -0.03603,0 -0.06553,0.014892 -0.06553,0.033129 0,0.043726 -0.08176,0.068105 -0.168147,0.050093 -0.03808,-0.008 -0.06924,-0.027202 -0.06924,-0.042843 0,-0.033948 0.179361,-0.1146115 0.254846,-0.1146115 0.02929,0 0.06351,-0.025051 0.07604,-0.055675 0.01253,-0.030624 0.04387,-0.055675 0.0697,-0.055675 0.103775,0 0.302177,-0.1888286 0.36782,-0.3500697 0.03509,-0.086204 0.0777,-0.1502012 0.09922,-0.1509307 v -2.338e-4 c 4.59e-4,-2.34e-5 8.82e-4,-4.21e-5 0.0013,-2.43e-5 z M 7.5180465,7.8218127 c 0.014654,0 0.026376,0.00825 0.026376,0.018559 0,0.018836 -0.027906,0.025386 -0.043968,0.010318 -0.01672,-0.015686 -0.00868,-0.028877 0.017592,-0.028877 z m 0.079643,0.074233 c 0.017093,0 0.1181764,0.04785 0.1181764,0.055941 0,0.012672 -0.061141,0.00401 -0.095612,-0.013532 -0.036017,-0.018331 -0.048833,-0.042409 -0.022564,-0.042409 z m 0.1907614,0.1332424 c 0.00879,2.338e-4 0.02057,0.00305 0.033665,0.0094 0.021348,0.010357 0.038817,0.021468 0.038817,0.024696 0,0.010467 -0.045526,0.00547 -0.06952,-0.00764 -0.027213,-0.014862 -0.022306,-0.026956 -0.00296,-0.02646 z m 0.1475915,0.117463 c 0.017968,-5.939e-4 0.067175,0.019653 0.076037,0.033105 0.011923,0.018099 -0.00573,0.01567 -0.050099,-0.00689 -0.020588,-0.010467 -0.034763,-0.021539 -0.031501,-0.024599 0.00108,-0.00101 0.003,-0.00153 0.00556,-0.00162 z m 0.1203143,0.095715 c 0.015938,5e-7 0.034517,0.023487 0.025371,0.032066 -0.00332,0.00311 -0.013544,-0.00282 -0.022718,-0.013194 -0.010401,-0.011758 -0.011399,-0.018872 -0.00265,-0.018872 z M 25.101237,8.3585038 c 0.0272,9.35e-5 0.131683,0.039242 0.232129,0.087064 0.132717,0.063169 0.284099,0.094123 0.553892,0.1130895 0.204194,0.014365 0.376559,0.040188 0.383043,0.057415 0.01388,0.036908 0.163878,0.00772 0.237151,-0.046251 0.06761,-0.049716 0.146047,0.02221 0.112818,0.1034478 -0.02032,0.049688 -0.08115,0.058625 -0.351437,0.05147 -0.179773,-0.00477 -0.389179,-0.019714 -0.465338,-0.033154 -0.07616,-0.013467 -0.20737,-0.052133 -0.291629,-0.086025 -0.08426,-0.033906 -0.196564,-0.061619 -0.249592,-0.061619 -0.05303,0 -0.0862,-0.015506 -0.07372,-0.034459 0.01249,-0.018938 -0.01319,-0.045127 -0.05703,-0.058187 -0.08738,-0.026008 -0.109272,-0.093044 -0.03029,-0.092791 z m 3.53555,0.00631 c 0.05021,-0.00182 0.102025,0.01291 0.132368,0.047265 0.04372,0.049422 0.03671,0.057559 -0.04961,0.057559 -0.05529,0 -0.130515,0.010795 -0.167142,0.023995 -0.05018,0.018068 -0.06304,0.00659 -0.05231,-0.046396 0.01023,-0.050544 0.07214,-0.080152 0.136696,-0.082425 z M 8.2265624,8.3811459 c 0.00692,-1.403e-4 0.017361,0.00499 0.026556,0.013628 0.023836,0.022362 0.00957,0.028063 -0.022538,0.00901 -0.01067,-0.00633 -0.014985,-0.015665 -0.00958,-0.020733 0.00135,-0.00127 0.00326,-0.00187 0.00556,-0.00191 z m 20.6864746,0.014692 c 0.04568,0.0014 0.10448,0.021095 0.134687,0.05524 0.04085,0.046181 0.03664,0.055202 -0.0248,0.052775 -0.04074,-0.00154 -0.09636,-0.011365 -0.12356,-0.021676 -0.0272,-0.010241 -0.04946,-0.034061 -0.04946,-0.052775 0,-0.023988 0.0276,-0.034462 0.06313,-0.033565 z M 8.3253948,8.4781659 c 0.015081,5.378e-4 0.036679,0.012447 0.036679,0.023729 0,0.016792 -0.035568,0.016481 -0.046698,-4.208e-4 v -2.39e-5 c -0.00478,-0.00726 -0.00538,-0.01629 -0.00134,-0.020081 0.00203,-0.00191 0.00498,-0.00291 0.00845,-0.00317 9.371e-4,-4.68e-5 0.0019,-9.36e-5 0.00291,-4.68e-5 z m -3.3592122,0.00556 -0.1231728,0.003 c -0.1424715,0.00347 -0.2319298,0.032377 -0.2517817,0.081362 -0.00724,0.017868 -0.027256,0.033552 -0.049403,0.038711 -0.039311,0.00916 -0.096565,0.052297 -0.096565,0.072759 0,0.00667 -0.023738,0.031192 -0.052752,0.05449 -0.029013,0.023298 -0.052752,0.050786 -0.052752,0.061088 0,0.010302 -0.012201,0.033527 -0.027097,0.051615 -0.084383,0.1024663 -0.1047823,0.1305635 -0.1047823,0.1442373 0,0.00834 -0.017804,0.036173 -0.039564,0.061861 -0.02176,0.025688 -0.039564,0.052107 -0.039564,0.058695 0,0.00659 -0.014837,0.028498 -0.03297,0.048715 -0.018133,0.020217 -0.03297,0.047914 -0.03297,0.061547 0,0.025366 -0.065259,0.106859 -0.1417702,0.1770284 -0.023573,0.021619 -0.04286,0.051431 -0.04286,0.066259 0,0.014827 -0.00824,0.026967 -0.018314,0.026967 -0.010074,0 -0.017492,-0.00974 -0.016485,-0.021651 0.00268,-0.031698 -0.037005,-0.026497 -0.041856,0.00549 -0.00279,0.018358 -0.018777,0.031678 -0.049455,0.041176 -0.046961,0.01454 -0.058437,0.032917 -0.027509,0.044052 0.028258,0.010173 0.0096,0.067282 -0.026144,0.080032 -0.017185,0.00613 -0.031244,0.016395 -0.031244,0.022811 0,0.028771 0.018109,0.050793 0.041753,0.050793 0.014159,0 0.022075,0.00557 0.017593,0.012372 -0.00448,0.0068 -0.018864,0.012372 -0.031965,0.012372 -0.013101,0 -0.040726,0.012474 -0.061381,0.027717 -0.020654,0.015242 -0.04816,0.026032 -0.061123,0.023971 -0.012963,-0.00206 -0.023568,0.00168 -0.023568,0.00831 0,0.00663 0.023739,0.01582 0.052752,0.020419 0.029014,0.0046 0.052751,0.01242 0.052751,0.017375 0,0.016889 -0.1456291,0.065791 -0.1751522,0.058816 -0.028337,-0.00669 -0.028466,-0.00635 -0.00366,0.011043 0.014091,0.00988 0.040797,0.016934 0.059346,0.015683 0.046093,-0.00311 0.100405,0.025057 0.081858,0.042457 -0.00993,0.00932 -0.020406,0.00822 -0.035804,-0.00377 -0.018767,-0.014612 -0.024394,-0.013609 -0.040852,0.00732 -0.010499,0.013352 -0.028248,0.022523 -0.039435,0.02037 -0.024073,-0.00463 -0.072998,0.033417 -0.062823,0.04886 0.00388,0.0059 0.017847,0.01073 0.031038,0.01073 0.01319,0 0.031304,0.0083 0.040234,0.01836 0.013473,0.01523 0.010174,0.02049 -0.019293,0.031 -0.019531,0.007 -0.040258,0.0099 -0.04608,0.0065 -0.00582,-0.0034 -0.017365,0.0015 -0.025655,0.0109 -0.011325,0.0128 -0.011175,0.02509 6.181e-4,0.04937 0.00863,0.01777 0.020673,0.03231 0.026762,0.03231 0.00609,0 -7.926e-4,0.01114 -0.0153,0.02474 -0.036181,0.03394 -0.033155,0.04856 0.013188,0.06372 0.02176,0.0071 0.039564,0.0171 0.039564,0.02218 0,0.0051 -0.012305,0.04212 -0.027329,0.0823 -0.015024,0.04018 -0.030639,0.08697 -0.034695,0.103979 -0.00406,0.01701 -0.016218,0.04048 -0.027045,0.05215 -0.011569,0.01247 -0.016983,0.03455 -0.013111,0.05355 0.00471,0.0231 -0.00236,0.04073 -0.024753,0.06174 -0.017236,0.01617 -0.031321,0.04331 -0.031321,0.06031 0,0.017 -0.00517,0.04369 -0.011488,0.05932 -0.00631,0.01563 -0.021013,0.05904 -0.032661,0.09646 -0.011648,0.03743 -0.029809,0.09357 -0.040362,0.124761 -0.010554,0.03119 -0.023452,0.09243 -0.028668,0.136093 -0.00522,0.04367 -0.018158,0.09186 -0.028746,0.107121 -0.010804,0.01557 -0.015881,0.04036 -0.011565,0.0565 0.00423,0.01581 -2.99e-4,0.03952 -0.00999,0.05268 -0.00974,0.01316 -0.021611,0.04619 -0.026376,0.07341 -0.023943,0.136777 -0.03077,0.2115 -0.0204,0.223376 0.00644,0.0074 0.072096,0.01407 0.1508368,0.01537 0.094296,0.0016 0.1518596,0.0084 0.1778827,0.02097 0.021162,0.01027 0.047551,0.01865 0.058624,0.01865 0.011073,0 0.029846,0.01392 0.041728,0.03093 0.011881,0.01701 0.029067,0.03093 0.038199,0.03093 0.025889,0 0.1399858,0.06317 0.1475661,0.0817 0.00373,0.0091 0.038854,0.03084 0.078045,0.04823 0.05848,0.02595 0.071272,0.03724 0.071272,0.06285 0,0.02344 0.0097,0.03436 0.038946,0.04393 0.024648,0.0081 0.051736,0.03325 0.073821,0.0686 0.03835,0.06139 0.024983,0.05893 0.1838326,0.03369 0.028943,-0.0046 0.058616,-0.01506 0.06594,-0.02325 0.011562,-0.01293 0.2272464,-0.06158 0.3430149,-0.07737 0.02176,-0.003 0.060241,-0.01415 0.085515,-0.02487 0.025275,-0.01071 0.063849,-0.02352 0.085722,-0.02847 0.1491346,-0.03371 0.3105618,-0.07931 0.349686,-0.09878 0.047193,-0.02349 0.1801481,-0.05637 0.2950284,-0.07295 0.041582,-0.006 0.07183,-0.01851 0.085721,-0.03547 0.012735,-0.01555 0.048303,-0.03161 0.087422,-0.03948 0.1316274,-0.0265 0.251034,-0.06497 0.2721814,-0.08769 0.022461,-0.02413 0.091432,-0.0433 0.1998276,-0.05553 0.042717,-0.0048 0.07691,-0.01832 0.1055035,-0.04166 0.024476,-0.01998 0.072888,-0.04115 0.1148534,-0.05024 0.1421888,-0.0308 0.2097825,-0.05015 0.2178328,-0.06237 0.010513,-0.01596 0.094955,-0.04915 0.1250534,-0.04915 0.012733,0 0.030534,-0.0084 0.039564,-0.01856 0.00903,-0.01021 0.031993,-0.01857 0.051052,-0.01861 0.019058,-3.4e-5 0.058408,-0.01378 0.087421,-0.03054 0.029013,-0.01677 0.064621,-0.03064 0.079128,-0.03083 0.014507,-1.87e-4 0.050114,-0.01106 0.079128,-0.02414 0.029013,-0.01308 0.078232,-0.03355 0.1093929,-0.04548 0.031161,-0.01193 0.068419,-0.03125 0.082785,-0.04294 0.014366,-0.01169 0.053437,-0.0251 0.086829,-0.0298 0.078399,-0.01103 0.120873,-0.0296 0.1301022,-0.05688 0.0083,-0.02455 0.050997,-0.04146 0.1817202,-0.07196 0.068406,-0.01596 0.093457,-0.02789 0.1055036,-0.05024 0.00869,-0.01612 0.037988,-0.03646 0.065089,-0.04521 0.071283,-0.02302 0.1146879,-0.05651 0.1151629,-0.08885 2.492e-4,-0.01553 0.00952,-0.03151 0.020657,-0.03552 0.01645,-0.0059 0.01874,-0.02154 0.012183,-0.08313 -0.00444,-0.04171 -0.013106,-0.08975 -0.019267,-0.106758 -0.00616,-0.01701 -0.023869,-0.07089 -0.039357,-0.119734 -0.015489,-0.04885 -0.036236,-0.09511 -0.046106,-0.102796 -0.00987,-0.0077 -0.021961,-0.03612 -0.02684,-0.06321 -0.00582,-0.03232 -0.019724,-0.05595 -0.040465,-0.0687 -0.022186,-0.01364 -0.029653,-0.02733 -0.025011,-0.04591 0.00782,-0.03133 -0.00292,-0.04852 -0.042603,-0.06812 -0.016838,-0.0083 -0.026182,-0.02178 -0.022075,-0.03182 0.00925,-0.02262 -0.017339,-0.06852 -0.056358,-0.09731 -0.016981,-0.012531 -0.030858,-0.033706 -0.030858,-0.047048 0,-0.013342 -0.020771,-0.043747 -0.046158,-0.067563 -0.025387,-0.023816 -0.046158,-0.051311 -0.046158,-0.061088 0,-0.00978 -0.017804,-0.030119 -0.039564,-0.045212 -0.02176,-0.015093 -0.039564,-0.034478 -0.039564,-0.043085 0,-0.00861 -0.023738,-0.033535 -0.052751,-0.055409 -0.029013,-0.021874 -0.052752,-0.046327 -0.052752,-0.054322 0,-0.018786 -0.1884213,-0.2040198 -0.2075295,-0.2040198 -0.00798,0 -0.026537,-0.018258 -0.041237,-0.040572 -0.015665,-0.023778 -0.046139,-0.047151 -0.073616,-0.056472 -0.025784,-0.00875 -0.046879,-0.022247 -0.046879,-0.029988 0,-0.017953 -0.079786,-0.095666 -0.098214,-0.095667 -0.00764,0 -0.031,-0.020123 -0.051928,-0.044728 -0.02093,-0.024569 -0.062621,-0.054906 -0.092626,-0.067357 C 6.5858781,9.0581777 6.548009,9.0310737 6.531707,9.0103881 6.5154049,8.9897024 6.4858563,8.969072 6.4660508,8.9645483 6.4462452,8.9600219 6.4078249,8.9363211 6.3806897,8.9118698 6.3535551,8.887419 6.3031113,8.8590248 6.2685923,8.8487767 6.2303055,8.8374091 6.2011337,8.8200935 6.1937662,8.8043627 6.1827801,8.7809051 6.0482498,8.7126103 6.013025,8.7126103 c -0.00809,0 -0.034427,-0.01623 -0.058522,-0.036077 C 5.9254513,8.6526024 5.8849021,8.6356507 5.8340865,8.6262227 5.7223086,8.6054838 5.6685282,8.5885549 5.6387658,8.5647246 5.5964128,8.5308136 5.5127235,8.5146558 5.3794119,8.5146558 c -0.1272621,0 -0.1560655,0.00934 -0.1560655,0.050552 0,0.011466 -0.015338,0.030261 -0.034077,0.04178 -0.018739,0.011519 -0.042205,0.039182 -0.052133,0.061474 -0.00993,0.022292 -0.033165,0.049825 -0.051644,0.061184 -0.020309,0.012484 -0.033588,0.032212 -0.033588,0.049876 0,0.01777 -0.013358,0.037429 -0.034077,0.050165 -0.018739,0.011519 -0.04199,0.038607 -0.05167,0.060194 -0.00968,0.021586 -0.035884,0.0556 -0.058238,0.075586 -0.022354,0.019986 -0.040645,0.045788 -0.040645,0.057342 0,0.011554 -0.014837,0.030126 -0.03297,0.041273 -0.018134,0.011146 -0.03297,0.028463 -0.03297,0.038494 0,0.010031 -0.01962,0.039151 -0.043582,0.064688 -0.072306,0.077062 -0.1278612,0.1550892 -0.1278612,0.1795653 0,0.012708 -0.017803,0.037168 -0.039564,0.054345 -0.02176,0.017178 -0.039564,0.039625 -0.039564,0.0499 0,0.010274 -0.017803,0.034286 -0.039564,0.053355 -0.021791,0.019097 -0.039564,0.04746 -0.039564,0.063141 0,0.030911 -0.07334,0.1100687 -0.1019746,0.1100687 -0.013669,0 -0.014411,0.00568 -0.0033,0.025156 0.0126,0.022086 0.00929,0.026827 -0.0272,0.03876 -0.036053,0.011791 -0.040609,0.018076 -0.034361,0.047386 0.00583,0.027342 0.00101,0.036444 -0.025269,0.047676 -0.017861,0.00763 -0.039392,0.0281 -0.047832,0.045477 -0.019557,0.040268 -0.05827,0.035496 -0.053164,-0.00655 0.002,-0.016483 0.015354,-0.041666 0.029673,-0.055964 0.014318,-0.014298 0.026041,-0.034421 0.026041,-0.044704 0,-0.010283 0.01517,-0.032055 0.033717,-0.048401 0.019062,-0.0168 0.031194,-0.038816 0.027896,-0.050649 -0.00321,-0.011513 0.00814,-0.042274 0.025217,-0.068337 0.017076,-0.026063 0.031223,-0.056839 0.03145,-0.068409 2.492e-4,-0.01157 0.00783,-0.025489 0.016897,-0.030931 0.019906,-0.011947 0.062643,-0.085935 0.062643,-0.1084498 0,-0.00887 0.014837,-0.025269 0.03297,-0.036416 0.022422,-0.013783 0.032969,-0.03156 0.032969,-0.055578 0,-0.019424 0.00971,-0.04288 0.021585,-0.052123 0.011871,-0.00924 0.032785,-0.039161 0.046493,-0.066476 0.013708,-0.027315 0.044862,-0.080279 0.069211,-0.1177048 0.02435,-0.037425 0.062887,-0.1003653 0.085644,-0.1398633 0.022756,-0.039498 0.062032,-0.099962 0.087267,-0.1343783 0.025235,-0.034416 0.045874,-0.069445 0.045874,-0.077833 0,-0.00839 0.01172,-0.025199 0.026041,-0.037358 0.014322,-0.012159 0.029844,-0.033891 0.03449,-0.048305 0.00465,-0.014413 0.020081,-0.038173 0.034309,-0.052775 0.016326,-0.016755 0.024276,-0.039575 0.021559,-0.06186 z m 3.4508063,0.098543 v 2.39e-5 c 0.011282,-4.209e-4 0.062884,0.036046 0.063364,0.046782 7.376e-4,0.01657 -0.02136,0.00983 -0.043711,-0.013339 -0.012004,-0.012444 -0.021817,-0.026625 -0.021817,-0.03151 0,-0.00128 7.775e-4,-0.00191 0.00216,-0.00196 z m 0.1356398,0.1459258 c 0.010697,-1.87e-4 0.021029,0.00436 0.030883,0.013605 0.010203,0.00957 0.016769,0.017196 0.016279,0.018631 v 2.43e-5 l -2.59e-5,2.38e-5 -2.54e-5,2.43e-5 v 2.44e-5 l -2.59e-5,2.43e-5 -2.59e-5,2.38e-5 -2.54e-5,2.43e-5 -2.6e-5,2.44e-5 c -1.74e-5,4.2e-6 -4.98e-5,-3.3e-6 -9.97e-5,0 -1.495e-4,4.67e-5 -3.489e-4,4.67e-5 -5.931e-4,0 -0.00337,-8.043e-4 -0.023934,-0.00551 -0.045694,-0.010439 -0.033599,-0.00761 -0.035948,-0.010434 -0.01548,-0.018776 0.005,-0.00204 0.00995,-0.0031 0.014811,-0.00319 z m 0.1127674,0.108087 c 0.00725,0 0.013188,0.00557 0.013188,0.012372 0,0.0068 -0.00593,0.012372 -0.013188,0.012372 -0.00725,0 -0.013188,-0.00557 -0.013188,-0.012372 0,-0.0068 0.00593,-0.012372 0.013188,-0.012372 z m 0.072095,0.1031097 c 2.493e-4,-1.26e-5 4.985e-4,-9.8e-6 7.477e-4,0 0.00187,4.68e-5 0.00402,7.388e-4 0.00628,0.00205 0.00725,0.0042 0.013188,0.010096 0.013188,0.013097 0,0.003 -0.00593,0.00546 -0.013188,0.00546 -0.00725,0 -0.013188,-0.00589 -0.013188,-0.013097 0,-0.00464 0.00246,-0.00733 0.00616,-0.00751 z m 0.098575,0.1195892 c 0.00768,0 0.01396,0.00557 0.01396,0.012372 0,0.0068 -0.00262,0.012372 -0.00582,0.012372 -0.0032,0 -0.00948,-0.00557 -0.013961,-0.012372 -0.00448,-0.0068 -0.00186,-0.012372 0.00582,-0.012372 z m 0.038095,0.04398 c 0.00353,0 0.00804,0.00116 0.01342,0.0043 0.00978,0.0057 0.015715,0.0203 0.013188,0.032453 -0.00421,0.02024 -0.00609,0.020416 -0.022332,0.00203 -0.017075,-0.019325 -0.016909,-0.038783 -0.00428,-0.038783 z m 0.047368,0.084358 c 0.00463,0.00139 0.01324,0.00538 0.020813,0.013943 0.0093,0.010536 0.01398,0.021946 0.01035,0.025349 -0.0036,0.0034 -0.014222,-0.00244 -0.023542,-0.012976 -0.00932,-0.010536 -0.013981,-0.021946 -0.010354,-0.025349 6.778e-4,-6.359e-4 0.00166,-0.00129 0.00273,-9.679e-4 z m 0.045849,0.059928 c 0.00959,-4.794e-4 0.02215,0.01212 0.02532,0.032308 0.0041,0.026012 -0.01039,0.035515 -0.02839,0.018631 -0.0048,-0.00454 -0.0088,-0.018927 -0.0088,-0.031969 0,-0.013035 0.00521,-0.018637 0.01185,-0.018969 z m 0.04054,0.07155 c 0.01788,0 0.02897,0.021994 0.01515,0.030013 -0.0066,0.00383 -0.01542,-0.00136 -0.01957,-0.011527 -0.0042,-0.010168 -0.0022,-0.018486 0.0044,-0.018486 z m 0.04608,0.078365 c 2.49e-4,-1.26e-5 4.99e-4,-9.8e-6 7.48e-4,0 0.0019,9.35e-5 0.004,7.388e-4 0.0063,0.00205 0.0073,0.0042 0.01319,0.010096 0.01319,0.013097 0,0.003 -0.0059,0.00546 -0.01319,0.00546 -0.0073,0 -0.01319,-0.00589 -0.01319,-0.013097 0,-0.00464 0.0025,-0.00733 0.0062,-0.00751 z m -4.881847,0.5439883 c 0.00335,8.9e-6 0.00651,8.043e-4 0.00938,0.00246 0.010682,0.00619 0.00968,0.014382 -0.00358,0.029045 -0.010158,0.011233 -0.025649,0.037121 -0.034412,0.057535 -0.019059,0.0444 -0.1193398,0.15527 -0.1199015,0.132566 -4.985e-4,-0.01915 0.039063,-0.07947 0.060428,-0.09219 0.00841,-0.005 0.019051,-0.02789 0.023646,-0.05087 0.00814,-0.040703 0.041001,-0.078624 0.064445,-0.078559 z M 26.920862,10.176994 c 0.02407,0 0.0051,0.03866 -0.04219,0.08591 -0.04731,0.04725 -0.08608,0.105708 -0.08608,0.129907 0,0.02421 -0.0178,0.044 -0.03956,0.044 -0.02176,0 -0.03956,-0.0099 -0.03956,-0.02211 0,-0.0474 0.166041,-0.237705 0.207401,-0.237705 z m -22.9239917,0.05734 c 0.00725,0 0.013188,0.008 0.013188,0.01783 0,0.0098 -0.00593,0.02126 -0.013188,0.02547 -0.00725,0.0042 -0.013188,-0.0038 -0.013188,-0.01783 0,-0.01401 0.00593,-0.02547 0.013188,-0.02547 z m -0.048244,0.0666 c 0.00504,-2.34e-4 0.00868,0.0048 0.00868,0.0131 0,0.01061 -0.00594,0.01928 -0.013188,0.01928 -0.00725,0 -0.013188,-0.0052 -0.013188,-0.01165 0,-0.0064 0.00593,-0.01508 0.013188,-0.01928 0.00159,-9.21e-4 0.0031,-0.0014 0.00451,-0.0014 z m -0.05726,0.106613 c 0.00725,0 0.013188,0.0056 0.013188,0.01237 0,0.0068 -0.00593,0.01237 -0.013188,0.01237 -0.00725,0 -0.013188,-0.0056 -0.013188,-0.01237 0,-0.0068 0.00593,-0.01237 0.013188,-0.01237 z m 5.432061,0.185558 c -0.02949,0 -0.102507,0.03655 -0.11506,0.05761 -0.0075,0.01255 -0.05092,0.03707 -0.09654,0.05449 -0.06317,0.02411 -0.08475,0.03882 -0.09051,0.06172 -0.0056,0.02242 -0.01917,0.03206 -0.05316,0.03787 -0.065826,0.01124 -0.1370981,0.04291 -0.186872,0.08303 -0.025778,0.02077 -0.072753,0.04098 -0.1158836,0.04985 -0.039893,0.0082 -0.098917,0.03165 -0.1311584,0.05207 -0.032241,0.02043 -0.073783,0.04006 -0.092315,0.04364 -0.1480625,0.02862 -0.1695059,0.04018 -0.1703353,0.09173 -0.00104,0.06467 -0.024825,0.157569 -0.060196,0.235071 -0.020186,0.04423 -0.039671,0.09539 -0.043299,0.113693 -0.00363,0.0183 -0.017857,0.04284 -0.031605,0.05452 -0.013748,0.01167 -0.024985,0.03412 -0.024985,0.0499 0,0.02998 -0.055311,0.06628 -0.1015624,0.06665 -0.014698,1.4e-4 -0.018123,0.0036 -0.00902,0.0093 0.00809,0.005 0.019009,0.02208 0.02429,0.03794 0.00879,0.02642 0.014743,0.02817 0.071014,0.02097 0.033778,-0.0043 0.1237445,-0.01019 0.1999048,-0.01305 0.1497582,-0.0056 0.2846888,-0.02138 0.2991241,-0.03492 0.016363,-0.01535 -0.020219,-0.03661 -0.061123,-0.03552 -0.022097,5.89e-4 -0.040182,-0.0043 -0.040182,-0.01078 0,-0.01921 0.06269,-0.03598 0.1345069,-0.03598 0.071699,0 0.1688156,-0.02226 0.1688156,-0.03869 0,-0.0055 -0.015681,-0.01771 -0.03485,-0.02714 -0.045454,-0.02234 -0.026353,-0.03189 0.069211,-0.0346 0.042753,-0.0012 0.081039,-0.0069 0.085078,-0.01271 0.00404,-0.0058 0.044863,-0.01309 0.090718,-0.01626 0.07739,-0.0053 0.122015,-0.01703 0.07887,-0.02064 -0.01028,-8.6e-4 -0.03054,-0.0025 -0.04505,-0.0038 -0.01451,-0.0012 -0.04418,-0.0093 -0.06594,-0.01793 l -0.039564,-0.01571 0.032969,-0.01677 c 0.01813,-0.0092 0.06157,-0.02053 0.09654,-0.02511 0.06565,-0.0086 0.06973,-0.01226 0.08057,-0.07247 0.0035,-0.01968 0.01898,-0.0483 0.03428,-0.06358 0.0153,-0.01528 0.02635,-0.03537 0.02455,-0.04463 -0.0018,-0.0093 0.0076,-0.03911 0.02079,-0.06633 0.01323,-0.02722 0.0328,-0.06898 0.0435,-0.09279 0.0107,-0.02382 0.03103,-0.06455 0.04515,-0.09052 0.01413,-0.02597 0.02391,-0.06308 0.02174,-0.08247 -0.0023,-0.02059 0.0056,-0.04515 0.01896,-0.05901 0.0189,-0.01959 0.0204,-0.03041 0.0087,-0.06201 -0.01012,-0.02725 -0.01016,-0.04542 -10e-5,-0.06305 0.01089,-0.01909 0.0094,-0.02921 -0.0066,-0.04417 -0.01138,-0.01068 -0.02639,-0.01943 -0.03336,-0.01943 z m -1.5183378,0.669377 c -0.06991,3.74e-4 -0.1734915,0.03123 -0.2203569,0.0723 -0.021972,0.01925 -0.056348,0.03885 -0.076397,0.04357 -0.06673,0.01569 -0.1617582,0.05891 -0.1617582,0.07358 0,0.008 -0.034124,0.02456 -0.075831,0.0369 -0.1591394,0.04706 -0.1914085,0.06057 -0.1975871,0.08274 -0.00445,0.01596 -0.024173,0.02505 -0.067536,0.0311 -0.078464,0.01095 -0.2249605,0.06222 -0.2590962,0.09069 -0.014507,0.0121 -0.077539,0.03668 -0.1400705,0.05464 -0.062531,0.01795 -0.1204872,0.04034 -0.1288142,0.04976 -0.00833,0.0094 -0.040248,0.02294 -0.070937,0.03006 -0.030689,0.0071 -0.09634,0.02247 -0.1458913,0.03412 -0.049551,0.01165 -0.1059731,0.0337 -0.1253625,0.049 -0.020095,0.01586 -0.091671,0.04193 -0.1664719,0.06061 -0.072177,0.01802 -0.1404064,0.04002 -0.1516094,0.04891 -0.022507,0.01785 -0.1543125,0.05938 -0.2597662,0.08184 -0.045818,0.0098 -0.069968,0.0217 -0.074131,0.03663 -0.00438,0.01571 -0.024906,0.02477 -0.070524,0.03112 -0.1145603,0.01597 -0.2208464,0.04472 -0.3017255,0.08165 -0.04352,0.01987 -0.1147352,0.04217 -0.1582551,0.04954 -0.100881,0.01707 -0.1640968,0.0365 -0.3063101,0.09419 -0.023405,0.0095 -0.079784,0.02218 -0.1252852,0.02818 -0.09437,0.01244 -0.1797175,0.03178 -0.1922553,0.04354 -0.0047,0.0044 -0.00926,0.04526 -0.010148,0.09079 -8.872e-4,0.04552 -0.00499,0.09111 -0.00912,0.101321 -0.010063,0.0249 -0.021445,0.120929 -0.015042,0.126935 0.0091,0.0085 0.2093109,0.0026 0.2250961,-0.0067 h 2.59e-5 c 0.00843,-0.005 0.091513,-0.01461 0.1846311,-0.02146 0.093118,-0.0068 0.1960106,-0.01777 0.2286505,-0.02431 0.03264,-0.0065 0.1186913,-0.02383 0.191225,-0.0384 0.072534,-0.01457 0.1378135,-0.03073 0.1450673,-0.03591 0.014699,-0.0105 0.088864,-0.02121 0.2176006,-0.03146 0.1139013,-0.0091 0.2772749,-0.04795 0.3545802,-0.08438 0.039662,-0.01869 0.099169,-0.03266 0.162763,-0.03825 0.055134,-0.0048 0.1111225,-0.01656 0.1244348,-0.02602 0.013313,-0.0095 0.033396,-0.0174 0.044638,-0.01762 0.011243,-2.34e-4 0.027383,-0.0069 0.035854,-0.01484 0.019564,-0.01835 0.0917,-0.04227 0.2003435,-0.06643 0.046849,-0.01042 0.094325,-0.02618 0.1055031,-0.03504 0.02729,-0.02162 0.081028,-0.03962 0.1917658,-0.06423 0.050773,-0.01128 0.1308907,-0.03879 0.1780373,-0.06114 0.047147,-0.02234 0.1302302,-0.05038 0.1846306,-0.0623 0.0544,-0.01192 0.1082709,-0.02922 0.1197221,-0.03844 0.011451,-0.0092 0.025828,-0.01677 0.031939,-0.01677 0.00611,0 0.020463,-0.0072 0.031914,-0.01609 0.011451,-0.0088 0.063286,-0.02847 0.1151629,-0.04362 0.062168,-0.01815 0.101038,-0.03718 0.1140548,-0.05582 0.010862,-0.01555 0.042597,-0.03473 0.070524,-0.04263 0.058548,-0.01655 0.1536949,-0.0856 0.142131,-0.103158 -0.0043,-0.0065 0.00716,-0.02293 0.025474,-0.03644 0.018313,-0.01351 0.037276,-0.03694 0.042165,-0.05207 0.00489,-0.01513 0.020877,-0.03981 0.03552,-0.05483 0.019325,-0.01982 0.024518,-0.03723 0.018906,-0.06355 -0.00575,-0.02699 -8.872e-4,-0.0421 0.019061,-0.05903 0.019683,-0.01671 0.024797,-0.03213 0.019267,-0.05807 -0.00414,-0.01943 -0.00184,-0.0453 0.00513,-0.05751 0.021936,-0.03845 0.021785,-0.173598 -1.993e-4,-0.186646 -0.012469,-0.0074 -0.032024,-0.01068 -0.055328,-0.01056 z m 0.3693649,0.48278 c -0.013552,3.28e-4 -0.025195,0.0018 -0.032661,0.0048 -0.020869,0.0083 -0.019749,0.01059 0.00927,0.0189 0.053454,0.0153 0.1528266,0.01424 0.1361034,-0.0014 -0.014179,-0.0133 -0.07206,-0.02316 -0.1127156,-0.02223 z M 3.2129357,12.0406 c -0.071615,0 -0.1655961,0.04181 -0.1655961,0.07124 0,0.01269 -0.00872,0.03386 -0.01937,0.04707 -0.026628,0.03303 -0.02511,0.08791 0.00289,0.104535 0.016527,0.0098 0.018399,0.01557 0.00659,0.02022 -0.023521,0.0093 -0.020391,0.03427 0.00847,0.06771 0.022558,0.02614 0.028111,0.02734 0.057877,0.0124 0.018114,-0.0091 0.040493,-0.02975 0.049712,-0.04591 0.018095,-0.03172 0.083347,-0.05002 0.1344037,-0.03767 0.039291,0.0095 0.1814366,0.135809 0.1814366,0.161224 0,0.01093 0.012926,0.03204 0.028746,0.04688 0.020591,0.01932 0.02972,0.04465 0.03212,0.08919 0.00298,0.05529 -0.0013,0.06673 -0.038637,0.102795 -0.023104,0.02232 -0.04883,0.04064 -0.057156,0.04072 -0.00833,9.4e-5 -0.040966,-0.01373 -0.072534,-0.03066 -0.061844,-0.03317 -0.1169981,-0.04057 -0.1163212,-0.01561 6.23e-4,0.02302 0.034082,0.06032 0.068309,0.07617 0.016599,0.0077 0.035901,0.0261 0.042886,0.04091 0.00699,0.01481 0.036658,0.03615 0.065939,0.04743 0.029281,0.01129 0.06511,0.02648 0.079617,0.03376 0.080041,0.04018 0.1872155,0.05558 0.2316386,0.03327 0.01403,-0.007 0.025526,-0.02077 0.025526,-0.0305 0,-0.0097 0.011869,-0.02365 0.026375,-0.03093 0.040213,-0.02019 0.032965,-0.05729 -0.014192,-0.07271 -0.050547,-0.01653 -0.038252,-0.04022 0.018983,-0.03661 0.088325,0.0056 0.1049852,-0.05077 0.024882,-0.08417 l -0.049455,-0.02061 0.038147,-0.0074 c 0.053393,-0.01034 0.072749,-0.04249 0.043711,-0.07259 -0.012389,-0.01284 -0.022513,-0.03764 -0.022513,-0.05509 0,-0.01819 -0.016891,-0.04871 -0.039564,-0.07148 -0.02176,-0.02185 -0.039564,-0.04703 -0.039564,-0.05596 0,-0.03273 -0.017257,-0.05671 -0.053421,-0.07426 -0.02066,-0.01002 -0.038902,-0.03033 -0.041264,-0.04594 -0.00266,-0.01756 -0.027501,-0.0418 -0.066738,-0.0651 -0.034376,-0.02041 -0.065587,-0.04586 -0.069365,-0.05654 C 3.5002253,12.083169 3.3414636,12.0406 3.2129367,12.0406 Z m 23.7942403,1.134034 v 1.87e-4 c -0.169184,0.0063 -0.168394,0.07698 0.0066,0.200879 0.134571,0.09527 0.147233,0.09733 0.297578,0.04755 0.08636,-0.02858 0.146926,-0.03666 0.134609,-0.01798 -0.0206,0.03128 0.212165,0.111511 0.324856,0.112002 0.02667,1.4e-4 0.106791,0.03355 0.178037,0.0743 0.171929,0.09834 0.896917,0.110041 0.997054,0.01609 0.08655,-0.08118 0.0194,-0.186298 -0.16521,-0.258656 -0.08002,-0.03137 -0.176246,-0.08316 -0.213814,-0.115046 -0.05206,-0.0442 -0.118298,-0.05267 -0.278415,-0.03567 -0.538241,0.05718 -0.792343,0.06519 -0.893585,0.02827 -0.05928,-0.02162 -0.196454,-0.04437 -0.304842,-0.05053 -0.03109,-0.0018 -0.05874,-0.0021 -0.08291,-0.0014 z m -2.935163,0.132252 c -0.06416,-0.0025 -0.122133,0.0051 -0.149137,0.0261 -0.09592,0.07469 -0.07303,0.336413 0.04227,0.483457 0.153884,0.19627 0.3897,0.222647 0.620219,0.0693 0.05896,-0.03921 0.134735,-0.07133 0.168455,-0.07133 0.07937,0 0.297965,-0.19581 0.297965,-0.26692 0,-0.0301 -0.02226,-0.05593 -0.04946,-0.05734 -0.383171,-0.02009 -0.647645,-0.06013 -0.672533,-0.101852 -0.02672,-0.04479 -0.15085,-0.07717 -0.257782,-0.08141 z" />
       <path
       id="armdown"
       style="fill:#ff0000;fill-opacity:{{blink-odd}};stroke:none;stroke-width:1.44834;stroke-linecap:square;stroke-dasharray:none;stroke-opacity:1"
       d="m 22.127721,3.683338 c -0.03871,-8.8e-6 -0.08164,0.00299 -0.128686,0.00906 -0.125176,0.016161 -0.239144,0.05734 -0.293714,0.10613 -0.250032,0.2235687 -0.279728,0.3945402 -0.123869,0.7142026 0.0544,0.1115669 0.09905,0.2315755 0.09922,0.2667023 1.49e-4,0.035113 0.04023,0.082733 0.08902,0.1057672 0.04879,0.023048 0.164376,0.077716 0.256856,0.1214984 0.168859,0.079947 0.228229,0.1917063 0.09891,0.1862353 -0.04581,-0.00196 -0.0515,-0.00954 -0.01692,-0.022473 0.09068,-0.034004 -0.149613,-0.1240029 -0.395483,-0.1481035 -0.12654,-0.012345 -0.250181,-0.045267 -0.274705,-0.073001 -0.04961,-0.056085 -0.351438,-0.070037 -0.351438,-0.016238 0,0.018784 -0.05399,0.045344 -0.120005,0.058937 -0.162878,0.03357 -0.250774,0.1626915 -0.198514,0.2916395 0.0218,0.053798 0.05346,0.097959 0.07032,0.098156 0.343301,0.00407 0.743177,0.040852 0.775744,0.071406 0.0232,0.021772 0.08488,0.039581 0.137082,0.039581 0.0522,0 0.156412,0.027306 0.23151,0.060749 0.108829,0.04844 0.156557,0.052212 0.235296,0.018559 0.129466,-0.055342 0.13461,-0.054268 0.13461,0.027475 0,0.1097713 -0.108894,0.1765786 -0.200446,0.1229485 -0.04146,-0.024297 -0.101797,-0.044148 -0.134069,-0.044148 -0.03227,0 -0.117087,-0.030599 -0.188469,-0.067999 -0.08392,-0.043965 -0.227229,-0.071255 -0.405528,-0.077133 -0.151665,-0.00505 -0.288148,-0.016228 -0.303297,-0.02501 -0.09161,-0.053111 -0.390306,0.1489766 -0.390306,0.2640927 0,0.1703313 0.08893,0.2181799 0.42106,0.2265408 0.45514,0.011503 0.675873,0.042263 0.785558,0.1096824 0.06689,0.041131 0.153373,0.054636 0.276251,0.043133 0.19636,-0.018377 0.218505,0.00941 0.101382,0.1273707 -0.07588,0.076412 -0.07967,0.076641 -0.187928,0.00981 -0.06076,-0.03747 -0.181714,-0.080042 -0.268756,-0.094603 -0.08704,-0.014561 -0.202764,-0.037254 -0.257164,-0.050455 -0.420113,-0.1019716 -0.728288,-0.031886 -0.762685,0.1734035 -0.01604,0.095715 -2.6e-5,0.1402632 0.07441,0.2069677 0.05217,0.04677 0.09481,0.1010452 0.09481,0.1206287 0,0.019598 0.02621,0.035594 0.05819,0.035594 0.03198,0 0.121495,0.033397 0.198978,0.074233 0.110687,0.058315 0.210609,0.073671 0.466111,0.071623 0.444338,-0.00351 0.562583,-0.051867 0.20995,-0.085759 -0.290085,-0.027874 -0.537588,-0.1059575 -0.537588,-0.1695617 0,-0.055931 0.08699,-0.048108 0.234678,0.021023 0.102846,0.048131 0.16459,0.05272 0.312724,0.023415 0.101509,-0.020074 0.216782,-0.049251 0.25616,-0.064809 0.0538,-0.021253 0.0771,-0.0087 0.09366,0.050818 0.02757,0.098913 0.09211,0.1004855 0.201528,0.00478 0.04671,-0.040822 0.09956,-0.074257 0.117455,-0.074257 0.0179,0 0.05578,-0.054275 0.08423,-0.1206287 0.02845,-0.06634 0.06019,-0.1008745 0.07047,-0.076746 0.02262,0.053083 -0.06952,0.225419 -0.174946,0.3273064 -0.152717,0.1475775 -0.279713,0.2346758 -0.306619,0.2103508 -0.0151,-0.013607 -0.02094,0.00801 -0.01298,0.048233 0.01123,0.056688 0.05305,0.07615 0.18646,0.086629 0.146991,0.011503 0.187734,-0.00182 0.280501,-0.091631 0.0597,-0.057825 0.132018,-0.1468411 0.160728,-0.1978339 0.08559,-0.1519823 0.09048,-0.017486 0.0059,0.1619495 -0.07745,0.1642712 -0.07748,0.1661781 -7.73e-4,0.2434318 0.07196,0.072456 0.113021,0.077093 0.592993,0.067975 0.437385,-0.00828 0.523323,-0.01958 0.566179,-0.074571 0.02779,-0.03566 0.09983,-0.064809 0.160033,-0.064809 0.0602,0 0.240684,-0.067987 0.401124,-0.1510762 0.248825,-0.1288497 0.291575,-0.1411259 0.290778,-0.083512 -4.9e-5,0.0041 -9.51e-4,0.00872 -0.0027,0.013773 0.279,-0.099938 1.441685,-0.5733615 0.668978,-1.2822829 h -0.240628 c -0.13997,0 -0.297252,0.019157 -0.349506,0.042626 -0.241834,0.1085509 -0.375578,0.1307169 -0.794289,0.1315025 -0.456392,0.0014 -0.494435,-0.00771 -0.872876,-0.1956589 -0.03778,-0.018784 -0.09203,-0.034144 -0.120623,-0.034144 -0.111186,0 -0.26589,-0.097505 -0.309092,-0.1948617 -0.02491,-0.056141 -0.05648,-0.1021754 -0.07016,-0.1022876 -0.02406,-1.403e-4 -0.09283,-0.061709 -0.448106,-0.4008146 -0.154097,-0.1470865 -0.167231,-0.175051 -0.165982,-0.3526069 8.97e-4,-0.1262265 0.0311,-0.2439808 0.08755,-0.3407899 0.157892,-0.270763 0.09244,-0.418074 -0.178547,-0.4181348 z m 0.726958,2.2803927 c 0.05349,3.7e-6 0.05643,0.06782 0.0012,0.1909707 -0.05158,0.115102 -0.05603,0.1169261 -0.120005,0.0506 -0.09052,-0.093835 -0.08366,-0.1366616 0.03323,-0.2085144 0.03595,-0.022095 0.06461,-0.03286 0.08554,-0.033057 z" />
       <path
       id="thumbsup"
       style="fill:#6dff67;fill-opacity:{{blink-even}};stroke:none;stroke-width:1.75814;stroke-linecap:square;stroke-dasharray:none;stroke-opacity:1"
       d="m 25.08509,5.4569736 c -0.505131,-0.020952 -0.999913,0.3111678 -1.824612,0.865643 -1.099595,0.7393015 -0.439831,1.5301177 -0.439831,1.5301177 l 0.769727,1.1347419 1.301204,-0.5501676 -0.806405,-1.2378731 0.439831,0.464191 0.439834,-0.464191 0.110027,-0.3610608 c 0,0 1.264538,-0.8768208 0.531476,-1.237875 C 25.423074,5.5102361 25.253466,5.4639568 25.08509,5.4569736 Z m -0.413474,3.2554174 -0.934631,0.3266512 0.439832,0.6877963 0.494799,0.4813525 z" /></g></svg>
