<?xml version="1.0" encoding="UTF-8" standalone="no"?>
<!-- Created with Inkscape (http://www.inkscape.org/) -->

<svg
   version="1.1"
   id="svg1"
   width="128"
   height="64"
   viewBox="0 0 128 64"
   xml:space="preserve"
   xmlns="http://www.w3.org/2000/svg"
   xmlns:svg="http://www.w3.org/2000/svg"><defs
   id="defs1" />
  <rect
   style="fill:#000000;fill-opacity:1"
   id="background"
   width="128"
   height="64"
   x="0"
   y="0" />
   <path
   id="rect77"
   style="fill:#001d79;fill-opacity:1;stroke-width:0.6;stroke-linecap:square;stroke-linejoin:round;stroke-miterlimit:0"
   d="M 9.5951991,10.798569 H 63.352736 L 68.110828,52.662368 5.7422286,53.416443 5.5485244,48.670419 Z" /><path
   id="rect2"
   style="fill:#ffffff;fill-opacity:1;stroke-width:0.6;stroke-linecap:square;stroke-linejoin:round;stroke-miterlimit:0"
   d="m 12.12046,55.195287 v 1 h 4 v -1 z m 0,2 v 1 h 4 v -1 z" /><path
   id="path3"
   style="fill:#ffffff;fill-opacity:1;stroke-width:0.6;stroke-linecap:square;stroke-linejoin:round;stroke-miterlimit:0"
   d="m 12,55 v 1 h 4 v -1 z m 45,0 v 1 h 4 v -1 z m -45,2 v 1 h 4 v -1 z m 45,0 v 1 h 4 v -1 z" /><path
   id="rect4"
   style="fill:#ffffff;stroke:#000000;stroke-width:2;stroke-linecap:square;stroke-linejoin:round;stroke-miterlimit:0;stroke-dasharray:none;stroke-opacity:1;paint-order:markers stroke fill"
   d="m 11.515965,10 c -1.9389999,10e-7 -3.2970199,1.534413 -3.4999999,3.417065 l -4,37.099558 c -0.20298,1.882653 1.561,3.417065 3.5,3.417065 H 65.515965 c 1.939,0 3.70298,-1.534412 3.5,-3.417065 l -4,-37.099558 C 64.812985,11.534413 63.454965,10 61.515965,10 Z m 1.55079,1.361487 h 46.90039 c 1.81879,0 3.0928,1.439476 3.2832,3.205405 l 3.75195,34.799904 c 0.19039,1.765929 -1.46442,3.203498 -3.2832,3.203498 H 9.3147951 c -1.81878,0 -3.4736,-1.437569 -3.2832,-3.203498 l 3.75195,-34.799904 c 0.1904,-1.765929 1.4644199,-3.205405 3.2832099,-3.205405 z" /><path
   id="rect5"
   style="fill:#ffffff;fill-opacity:1;stroke-width:0.6;stroke-linecap:square;stroke-linejoin:round;stroke-miterlimit:0"
   d="m 12,47 v 1 h 1 v -1 z m 11,0 v 1 h 1 v -1 z" /><path
   id="rect6"
   style="fill:#ffffff;fill-opacity:1;stroke-width:0.6;stroke-linecap:square;stroke-linejoin:round;stroke-miterlimit:0"
   d="m 10.84961,14.195313 v 1 h 8.513671 c 0.0636,-0.02444 0.127279,-0.04853 0.191407,-0.07227 H 20 v 0.07227 h 1 v -0.07227 h 1 v 0.07227 h 1 v -0.07227 h 1 v 0.07227 h 3 v -0.07227 h 1 v 0.07227 h 1 v -0.07227 h 1 v 0.07227 h 1 v -0.07227 h 1 v 0.07227 h 18.849609 v -1 z m 45.999999,0 v 1 h 6 v -1 z m -45.999999,3 v 1 H 15 v -0.38086 c 0.235393,-0.213522 0.483308,-0.420071 0.742188,-0.61914 z m 5.15039,0 v 1 h 1 v -1 z m 2,0 v 1 h 1 v -1 z m 2,0 v 1 h 1 v -1 z m 2,0 v 1 h 1 v -1 z m 2,0 v 1 h 3 v -1 z m 4,0 v 1 h 1 v -1 z m 2,0 v 1 h 1 v -1 z m 2,0 v 1 h 1 v -1 z m 2,0 v 1 h 1 v -1 z m 2,0 v 1 h 1 v -0.38086 c 0.137441,0.1247 0.271473,0.25169 0.400391,0.38086 h 13.449218 v -1 z m 20.849609,0 v 1 h 6 v -1 z m -45.999999,3 v 1 H 13 v -0.90625 c 0.01752,-0.03132 0.03477,-0.06257 0.05273,-0.09375 z m 3.15039,0 v 1 h 1 v -1 z m 2,0 v 1 h 1 v -1 z m 2,0 v 1 h 1 v -1 z m 2,0 v 1 h 1 v -1 z m 2,0 v 1 h 1 v -1 z m 2,0 v 1 h 3 v -1 z m 4,0 v 1 h 1 v -1 z m 2,0 v 1 h 1 v -1 z m 2,0 v 1 h 1 v -1 z m 2,0 v 1 h 1 v -1 z m 2,0 v 1 h 1 v -1 z m 2,0 v 1 h 1 v -0.90625 c 0.166432,0.297419 0.312136,0.599862 0.4375,0.90625 h 23.412109 v -1 h -6 -6 z M 9.8496094,23.195312 v 1 H 13 v -1 z m 4.1503906,0 v 1 h 1 v -1 z m 2,0 v 1 h 1 v -1 z m 2,0 v 1 h 1 v -1 z m 2,0 v 1 h 1 v -1 z m 2,0 v 1 h 1 v -1 z m 2,0 v 1 h 3 v -1 z m 4,0 v 1 h 1 v -1 z m 2,0 v 1 h 1 v -1 z m 2,0 v 1 h 1 v -1 z m 2,0 v 1 h 1 v -1 z m 2,0 v 1 h 1 v -1 z m 2,0 v 1 h 1 v -1 z m 1.955078,0 c 0.03023,0.267281 0.0449,0.535723 0.04492,0.804688 -5e-6,0.06514 -1.68e-4,0.130245 -0.002,0.195312 H 62.84956 v -1 z m -30.1054686,3 v 1 H 13 v -1 z m 4.1503906,0 v 1 h 1 v -1 z m 2,0 v 1 h 1 v -1 z m 2,0 v 1 h 1 v -1 z m 2,0 v 1 h 1 v -1 z m 2,0 v 1 h 1 v -1 z m 2,0 v 1 h 3 v -1 z m 4,0 v 1 h 1 v -1 z m 2,0 v 1 h 1 v -1 z m 2,0 v 1 h 1 v -1 z m 2,0 v 1 h 1 v -1 z m 2,0 v 1 h 1 v -1 z m 2,0 v 1 h 1 v -1 z m 1.658203,0 c -0.106384,0.337604 -0.237413,0.671397 -0.392578,1 h 23.583984 v -1 z m -29.8085936,3 v 1 h 5.1621096 c -0.0036,-0.0033 -0.0081,-0.0065 -0.01172,-0.0098 v -0.990235 z m 6.1503906,0 v 1 h 1 v -1 z m 2,0 v 1 h 1 v -1 z m 2,0 v 1 h 1 v -1 z m 2,0 v 1 h 1 v -1 z m 2,0 v 1 h 3 v -1 z m 4,0 v 1 h 1 v -1 z m 2,0 v 1 h 1 v -1 z m 2,0 v 1 h 1 v -1 z m 2,0 v 1 h 1 v -1 z m 2,0 v 1 h 26.849609 v -1 H 37.962891 C 37.670406,29.538892 37.348258,29.869572 37,30.185547 v -0.990235 z m -26.1503906,3 v 1 H 21 v -1 h -1 v 0.839844 c -0.340259,-0.115341 -0.673864,-0.240443 -1,-0.375 v -0.464844 h -1 v 0.01172 c -0.0078,-0.0039 -0.01561,-0.0078 -0.02344,-0.01172 z m 12.1503906,0 v 1 h 1 v -1 z m 2,0 v 1 h 3 v -1 z m 4,0 v 1 h 1 v -1 z m 2,0 v 1 h 1 v -1 z m 2,0 v 0.839844 c -0.164786,0.05571 -0.330373,0.1091 -0.498047,0.160156 h 31.347656 v -1 H 34 v 0.01172 c -0.324237,0.161049 -0.657868,0.312226 -1,0.453125 v -0.464844 z" /><path
   id="rect8"
   style="fill:#ffffff;fill-opacity:1;stroke-width:0.6;stroke-linecap:square;stroke-linejoin:round;stroke-miterlimit:0"
   d="m 26,48 v 1 h 1 v -1 z m 2,0 v 1 h 1 v -1 z m 2,0 v 1 h 1 v -1 z m 2,0 v 1 h 1 v -1 z m 2,0 v 1 h 1 v -1 z m 2,0 v 1 h 1 v -1 z m 2,0 v 1 h 1 v -1 z m 2,0 v 1 h 1 v -1 z m 2,0 v 1 h 1 v -1 z m 2,0 v 1 h 1 v -1 z m 2,0 v 1 h 1 v -1 z" /><path
   id="rect18"
   style="fill:#ffffff;fill-opacity:1;stroke-width:0.6;stroke-linecap:square;stroke-linejoin:round;stroke-miterlimit:0"
   d="m 8,35 v 1 h 1 v -1 z m 2,0 v 1 h 1 v -1 z m 2,0 v 1 h 1 v -1 z m 2,0 v 1 h 7 v -1 z m 6,0 v 1 h 1 v -1 z m 0,0 v 1 h 7 v -1 z m 6,0 v 1 h 1 v -1 z m 2,0 v 1 h 3 v -1 z m 2,0 v 1 h 1 v -1 z m 0,0 v 1 h 5 v -1 z m 6,0 v 1 h 5 v -1 z m 6,0 v 1 h 1 v -1 z m 2,0 v 1 h 3 v -1 z m 4,0 v 1 h 1 v -1 z m 2,0 v 1 h 3 v -1 z m 4,0 v 1 h 3 v -1 z m 4,0 v 1 h 1 v -1 z m 2,0 v 1 h 1 v -1 z m 2,0 v 1 h 1 v -1 z" /><path
   id="path23"
   style="fill:#ffffff;fill-opacity:1;stroke-width:0.6;stroke-linecap:square;stroke-linejoin:round;stroke-miterlimit:0"
   d="m 18.014431,47.999979 a 5,5 0 0 0 4.98555,-5.014411 5,5 0 0 0 -5.01441,-4.985547 5,5 0 0 0 -4.98555,5.014411 5,5 0 0 0 5.01441,4.985547 z m -0.003,-0.999996 a 4,4 0 0 1 -4.01153,-3.988438 4,4 0 0 1 3.98843,-4.011528 4,4 0 0 1 4.01153,3.988438 4,4 0 0 1 -3.98843,4.011528 z m 1.48786,-4.207437 -1.50866,-2.995658 -1.49133,3.004317 z" /><path
   id="path24"
   style="fill:#ffffff;fill-opacity:1;stroke-width:0.6;stroke-linecap:square;stroke-linejoin:round;stroke-miterlimit:0"
   d="m 57.920697,38.941735 a 5,5 0 0 0 -6.97896,1.137559 5,5 0 0 0 1.13756,6.978965 5,5 0 0 0 6.97896,-1.137559 5,5 0 0 0 -1.13756,-6.978965 z m -0.58414,0.811652 a 4,4 0 0 1 0.91005,5.583173 4,4 0 0 1 -5.58317,0.910047 4,4 0 0 1 -0.91005,-5.583173 4,4 0 0 1 5.58317,-0.910047 z m -3.67269,2.535266 -0.53495,3.311168 2.96991,-1.558746 z" /><path
   id="path27"
   style="fill:#ffffff;fill-opacity:1;stroke-width:0.6;stroke-linecap:square;stroke-linejoin:round;stroke-miterlimit:0"
   d="m 49,47 v 1 h 1 v -1 z m 11,0 v 1 h 1 v -1 z" /><path
   id="rect27"
   style="fill:#ffffff;fill-opacity:1;stroke-width:0.6;stroke-linecap:square;stroke-linejoin:round;stroke-miterlimit:0"
   d="m 26,38 v 9 h 1 v -8 h 19 v 8 h 1 v -9 z" /><path
   id="progress-linear"
   style="fill:#89ff8a;fill-opacity:1;stroke-width:0.6;stroke-linecap:square;stroke-linejoin:round;stroke-miterlimit:0"
   d="m 28,40 v 2 5 h 1 v -5 h 1 z" /><path
   id="path59"
   style="fill:#ff8500;fill-opacity:1;stroke-width:0.6;stroke-linecap:square;stroke-linejoin:round;stroke-miterlimit:0"
   d="M 53.5,14 A 1.5,1.5 0 0 0 52,15.5 1.5,1.5 0 0 0 53.5,17 1.5,1.5 0 0 0 55,15.5 1.5,1.5 0 0 0 53.5,14 Z M 52,18 v 1 h 3 v -1 z" />
       
       </svg>
