<?xml version="1.0" encoding="UTF-8" standalone="no"?>
<!-- Created with Inkscape (http://www.inkscape.org/) -->

<svg
   version="1.1"
   id="svg1"
   width="30"
   height="30"
   viewBox="0 0 30 30"
   sodipodi:docname="rainux.svg"
   inkscape:version="1.4.2 (1:1.4.2+202505120737+ebf0e940d0)"
   xmlns:inkscape="http://www.inkscape.org/namespaces/inkscape"
   xmlns:sodipodi="http://sodipodi.sourceforge.net/DTD/sodipodi-0.dtd"
   xmlns="http://www.w3.org/2000/svg"
   xmlns:svg="http://www.w3.org/2000/svg">
  <defs
     id="defs1" />
  <sodipodi:namedview
     id="namedview1"
     pagecolor="#ffffff"
     bordercolor="#666666"
     borderopacity="1.0"
     inkscape:showpageshadow="2"
     inkscape:pageopacity="0.0"
     inkscape:pagecheckerboard="0"
     inkscape:deskcolor="#d1d1d1"
     inkscape:zoom="19.111473"
     inkscape:cx="14.206126"
     inkscape:cy="6.8021966"
     inkscape:window-width="1920"
     inkscape:window-height="1011"
     inkscape:window-x="0"
     inkscape:window-y="32"
     inkscape:window-maximized="1"
     inkscape:current-layer="g1" />
  <g
     inkscape:groupmode="layer"
     inkscape:label="Image"
     id="g1"
     transform="translate(-20.774437,-24.236841)">
    <rect
       style="fill:#ff0000;fill-opacity:1;stroke-width:0.5;stroke-linecap:round;stroke-linejoin:round;stroke-miterlimit:0;paint-order:markers stroke fill"
       id="rect1"
       width="30"
       height="30"
       x="20.774437"
       y="24.236841" />
    <path
       id="rect2"
       style="fill:#ff0000;fill-opacity:1;stroke-width:0.673027;stroke-linecap:round;stroke-linejoin:round;stroke-miterlimit:0;paint-order:markers stroke fill"
       d="m 98.707961,-111.01628 c -10.463514,0 -19.184375,7.72777 -20.748047,17.765623 -8.231106,2.285322 -14.314453,9.859575 -14.314453,18.796875 0,10.734018 8.765979,19.5 19.5,19.5 0.452136,0 0.903014,-0.01619 1.347656,-0.04687 0.162387,0.02991 0.327075,0.04558 0.492188,0.04687 h 50.361325 0.41016 0.48047 c 0.18487,3.89e-4 0.36934,-0.01727 0.55078,-0.05273 7.34042,-0.662151 13.01367,-7.171643 13.01367,-14.853516 0,-7.623453 -5.58454,-14.090869 -12.84375,-14.835938 -0.0421,0.16398 -0.0989,0.323912 -0.14648,0.486329 0.3984,-1.361142 0.61558,-2.779173 0.61523,-4.212891 0,-8.184195 -6.65445,-14.906248 -14.8125,-14.906248 -2.34451,0 -4.56615,0.55613 -6.53906,1.54101 -3.7853,-5.56017 -10.1623,-9.22851 -17.367189,-9.22851 z m 0,6 c 6.395909,0 11.824329,3.94502 13.992189,9.550779 0.16793,0.392608 0.47855,1.116584 0.75976,1.958985 h 1.89454 c 1.58643,-2.319131 4.23991,-3.822264 7.25976,-3.822266 3.62823,0 6.72419,2.166097 8.08008,5.314453 0.60567,1.23462 0.92037,2.591615 0.91992,3.966797 -7e-5,0.545934 -0.29261,5.625531 0.7599,7.989636 0.86445,1.941677 3.1112,1.291614 3.1112,1.291614 0.0219,-3.6e-5 0.0444,0 0.0664,0 4.4973,0 8.25,3.862566 8.25,8.90625 0,4.247421 -2.66133,7.66009 -6.1875,8.63086 0,0 -40.732959,0.783193 -54.468755,0.507812 -7.491352,0.01984 -13.5,-6.241044 -13.5,-13.732422 0,-6.83358 5.002188,-12.434517 11.566406,-13.365234 v -0.002 l -0.002,-0.002 v -0.002 -0.002 h 2.517578 v -3.115234 c 0.0035,1.31e-4 0.0063,-1.34e-4 0.0098,0 0.473697,-7.884294 6.961708,-14.07422 14.970703,-14.07422 z"
       sodipodi:nodetypes="scssccccccscccscsscccsccscssccsccccccccss" />
    <path
       id="rect3"
       style="baseline-shift:baseline;display:inline;overflow:visible;opacity:1;vector-effect:none;fill:#ffffff;fill-opacity:1;stroke-linecap:round;stroke-linejoin:round;stroke-miterlimit:0;paint-order:markers stroke fill;enable-background:accumulate;stop-color:#000000;stop-opacity:1"
       d="m 102.80629,-89.938517 c -3.532121,0 -6.46937,2.640777 -6.935548,6.048828 -1.128672,0.218016 -2.137802,0.820162 -2.908203,1.628906 -1.12545,1.181466 -1.80664,2.809437 -1.80664,4.521485 v 0.296875 c 0,3.417503 2.781717,6.199218 6.199218,6.199218 h 14.115233 c 2.36251,0 4.23986,-0.250031 5.67773,-0.927734 1.43788,-0.677703 2.41153,-1.954833 2.51953,-3.498047 0.17721,-2.531846 -1.25853,-4.240809 -2.96093,-5.052734 -0.42935,-0.204766 -0.87437,-0.369783 -1.32422,-0.50586 0.0136,-0.149186 0.0195,-0.300565 0.0195,-0.453125 0,-2.749579 -2.25042,-5 -5,-5 -0.53566,0 -1.05229,0.08432 -1.53711,0.242188 -1.21357,-2.089955 -3.47726,-3.5 -6.05859,-3.5 z m 0,2 c 1.8536,0 3.46452,0.994598 4.32812,2.482422 0.21434,0.335769 0.5762,1.009305 0.83594,1.478515 l 1.6582,-0.603475 c 0.24689,-0.06483 0.50488,-0.09961 0.77343,-0.09961 1.6687,0 3,1.331301 3,3 0,0.0029 1e-5,0.0049 0,0.0078 -0.005,-8.76e-4 0.0137,1.867187 0.0137,1.867187 l 1.39258,0.501954 h 0.002 c 0.37044,0.108958 0.72023,0.23652 1.03516,0.386718 1.24675,0.594609 1.9562,1.279493 1.82812,3.109375 -0.0627,0.896408 -0.40221,1.367788 -1.3789,1.828125 -0.9767,0.460338 -2.61576,0.736328 -4.82422,0.736328 H 97.355117 c -2.344097,0 -4.199218,-1.855121 -4.199218,-4.199218 v -0.296902 c 0,-1.168752 0.492433,-2.341253 1.253906,-3.140625 0.42323,-0.444295 0.909939,-0.77199 1.443359,-0.949219 l 0.02344,-0.03711 1.765625,-0.525391 0.255859,-1.5 v -0.002 c 0.442626,-2.31192 2.461972,-4.044922 4.908202,-4.044922 z"
       sodipodi:nodetypes="scsssssssscsscsccccssccccsssssssscccccsc" />
    <path
       id="path13"
       style="baseline-shift:baseline;display:inline;overflow:visible;opacity:1;vector-effect:none;stroke-width:0.878579;stroke-linecap:round;stroke-linejoin:round;stroke-miterlimit:0;paint-order:markers stroke fill;enable-background:accumulate;stop-color:#000000;stop-opacity:1;fill:#ffffff;fill-opacity:1"
       d="M 32.637718 44.564966 A 0.86282276 0.81022007 0 0 0 31.860374 45.094263 L 30.448265 48.660669 A 0.86282276 0.81022007 0 0 0 30.958031 49.701685 A 0.86282276 0.81022007 0 0 0 32.067406 49.223169 L 33.479515 45.658716 A 0.86282276 0.81022007 0 0 0 32.971703 44.615747 A 0.86282276 0.81022007 0 0 0 32.637718 44.564966 z M 40.49514 44.564966 A 0.86282276 0.81022007 0 0 0 39.717796 45.094263 L 38.305687 48.660669 A 0.86282276 0.81022007 0 0 0 38.815453 49.701685 A 0.86282276 0.81022007 0 0 0 39.924828 49.223169 L 41.336937 45.658716 A 0.86282276 0.81022007 0 0 0 40.827171 44.615747 A 0.86282276 0.81022007 0 0 0 40.49514 44.564966 z M 24.780296 44.566919 A 0.86282276 0.81022007 0 0 0 24.002953 45.094263 L 22.592796 48.660669 A 0.86282276 0.81022007 0 0 0 23.100609 49.701685 A 0.86282276 0.81022007 0 0 0 24.208031 49.223169 L 25.62014 45.658716 A 0.86282276 0.81022007 0 0 0 25.112328 44.615747 A 0.86282276 0.81022007 0 0 0 24.780296 44.566919 z M 48.352562 44.566919 A 0.86282276 0.81022007 0 0 0 47.577171 45.094263 L 46.165062 48.660669 A 0.86282276 0.81022007 0 0 0 46.672874 49.701685 A 0.86282276 0.81022007 0 0 0 47.782249 49.223169 L 49.192406 45.658716 A 0.86282276 0.81022007 0 0 0 48.684593 44.615747 A 0.86282276 0.81022007 0 0 0 48.352562 44.566919 z M 27.360374 47.971216 A 0.86282276 0.81022007 0 0 0 26.583031 48.49856 L 25.172874 52.064966 A 0.86282276 0.81022007 0 0 0 25.68264 53.105982 A 0.86282276 0.81022007 0 0 0 26.790062 52.629419 L 28.202171 49.064966 A 0.86282276 0.81022007 0 0 0 27.694359 48.021997 A 0.86282276 0.81022007 0 0 0 27.360374 47.971216 z M 35.217796 47.971216 A 0.86282276 0.81022007 0 0 0 34.442406 48.49856 L 33.030296 52.064966 A 0.86282276 0.81022007 0 0 0 33.540062 53.105982 A 0.86282276 0.81022007 0 0 0 34.647484 52.629419 L 36.059593 49.064966 A 0.86282276 0.81022007 0 0 0 35.551781 48.021997 A 0.86282276 0.81022007 0 0 0 35.217796 47.971216 z M 43.077171 47.971216 A 0.86282276 0.81022007 0 0 0 42.299828 48.49856 L 40.887718 52.064966 A 0.86282276 0.81022007 0 0 0 41.395531 53.105982 A 0.86282276 0.81022007 0 0 0 42.506859 52.629419 L 43.917015 49.064966 A 0.86282276 0.81022007 0 0 0 43.409203 48.021997 A 0.86282276 0.81022007 0 0 0 43.077171 47.971216 z " />
    <g
       id="g35"
       transform="matrix(0.56658872,0,0,0.56659387,12.207336,79.807627)">
      <path
         style="baseline-shift:baseline;display:inline;overflow:visible;vector-effect:none;fill-opacity:0.694226;stroke-linecap:round;stroke-linejoin:round;stroke-miterlimit:0;paint-order:markers stroke fill;enable-background:accumulate;stop-color:#000000"
         d="m 38.069359,-93.548315 a 10,10 0 0 0 -9.982422,9.402343 h -0.4375 c -4.432,10e-7 -8,3.568 -8,8 0,4.432001 3.568,8.000001 8,8 h 13.574219 7.207031 0.0039 9.103516 c 3.324,0 6,-2.676 6,-6 0,-3.323999 -2.676,-6 -6,-6 h -2.171875 c -1.3793,-2.394643 -3.962697,-4 -6.935547,-4 h -0.378906 a 10,10 0 0 0 -9.982422,-9.402343 z"
         id="path35" />
      <path
         style="baseline-shift:baseline;display:inline;overflow:visible;vector-effect:none;fill:#ffffff;stroke-linecap:round;stroke-linejoin:round;stroke-miterlimit:0;paint-order:markers stroke fill;enable-background:accumulate;stop-color:#000000"
         d="m 38.068359,-94.548828 c -5.497276,8.18e-4 -9.98199,4.119709 -10.755859,9.470703 -4.803054,0.187933 -8.662109,4.082723 -8.662109,8.931641 0,4.968703 4.031297,9.000001 9,9 h 13.574218 7.207032 0.0039 9.103515 c 3.860703,0 7.000001,-3.139298 7,-7 0,-3.860702 -3.139297,-7 -7,-7 h -1.689453 c -1.545395,-2.29027 -4.088344,-3.817971 -7.027343,-3.947266 -0.780859,-5.342967 -5.26025,-9.454261 -10.751954,-9.455078 z m 0,2 a 1.0001,1.0001 0 0 0 0.002,0 c 4.771552,-1.42e-4 8.697247,3.699869 8.982422,8.462891 a 1.0001,1.0001 0 0 0 1,0.939453 h 0.378907 c 2.612846,0 4.862127,1.405824 6.068359,3.5 a 1.0001,1.0001 0 0 0 0.867187,0.5 h 2.171875 c 2.787298,0 5,2.212704 5,5 0,2.787297 -2.212702,5 -5,5 h -9.103515 -0.0039 -7.207032 -13.574218 c -3.895297,10e-7 -7,-3.104702 -7,-7 0,-3.895298 3.104702,-6.999999 7,-7 h 0.4375 a 1.0001,1.0001 0 0 0 0.998046,-0.939453 c 0.285176,-4.763022 4.210871,-8.463033 8.982422,-8.462891 z"
         id="path34" />
    </g>
  </g>
</svg>
