<?xml version="1.0" encoding="UTF-8" standalone="no"?>
<!-- 85 64 -->

<svg
   version="1.1"
   id="svg1"
   width="128"
   height="64"
   viewBox="0 0 128 64"
   xml:space="preserve"
   sodipodi:docname="sl1200z.svg"
   inkscape:version="1.4.3 (1:1.4.3+202512261035+0d15f75042)"
   xmlns:inkscape="http://www.inkscape.org/namespaces/inkscape"
   xmlns:sodipodi="http://sodipodi.sourceforge.net/DTD/sodipodi-0.dtd"
   xmlns="http://www.w3.org/2000/svg"
   xmlns:svg="http://www.w3.org/2000/svg"><defs
   id="defs1" /><sodipodi:namedview
   id="namedview1"
   pagecolor="#ffffff"
   bordercolor="#666666"
   borderopacity="1.0"
   inkscape:showpageshadow="2"
   inkscape:pageopacity="0.0"
   inkscape:pagecheckerboard="0"
   inkscape:deskcolor="#d1d1d1"
   inkscape:zoom="6.0642501"
   inkscape:cx="71.154717"
   inkscape:cy="22.014263"
   inkscape:current-layer="svg1" />
   <rect
   style="fill:#000000;fill-opacity:1;stroke-linecap:square"
   id="rect1"
   width="128"
   height="64"
   x="0"
   y="0" /><rect
   style="fill:#3a0000;fill-opacity:1;stroke-linecap:square"
   id="rect3"
   width="79.410484"
   height="59.96302"
   x="0.81031108"
   y="0.81031108" /><path
   id="rect2"
   style="fill:#ffffff;fill-opacity:1;stroke-linecap:round;stroke-linejoin:round;stroke-miterlimit:0"
   d="M 10,0 V 1 H 1 V 63 H 82 V 1 H 73 V 0 H 70 V 1 H 69 V 0 H 68 V 1 H 67 V 0 H 64 V 1 H 19 V 0 H 16 V 1 H 15 V 0 H 14 V 1 H 13 V 0 Z M 3,3 H 80 V 61 H 3 Z" /><path
   id="path10"
   style="fill:#ffffff;fill-opacity:1;stroke-linecap:round;stroke-linejoin:round;stroke-miterlimit:0"
   d="M 9,4 A 5,5 0 0 0 4,9 5,5 0 0 0 9,14 5,5 0 0 0 14,9 5,5 0 0 0 9,4 Z M 9,4.5 A 4.5,4.5 0 0 1 13.5,9 4.5,4.5 0 0 1 9,13.5 4.5,4.5 0 0 1 4.5,9 4.5,4.5 0 0 1 9,4.5 Z m 0,4 A 0.5,0.5 0 0 0 8.5,9 0.5,0.5 0 0 0 9,9.5 0.5,0.5 0 0 0 9.5,9 0.5,0.5 0 0 0 9,8.5 Z" /><path
   id="rect11"
   style="fill:#ffffff;fill-opacity:1;stroke-linecap:round;stroke-linejoin:round;stroke-miterlimit:0"
   d="m 4,55 v 5 h 7 v -5 z m 1,1 h 5 v 3 H 5 Z m 7,2 v 2 h 2 v -1 h 1 v 1 h 1 v -2 z m 5,0 v 2 h 2 v -1 h 1 v 1 h 1 v -2 z" /><path
   id="rect13"
   style="fill:#ffffff;fill-opacity:1;stroke-linecap:round;stroke-linejoin:round;stroke-miterlimit:0"
   d="m 69,35 v 1 h 1 v -1 z m -2,9 v 1 h 3 v -1 z m -2,10 v 1 h 5 v -1 z" /><rect
   style="fill:#ffffff;fill-opacity:1;stroke-width:0.999924;stroke-linecap:round;stroke-linejoin:round;stroke-miterlimit:0"
   id="rect14"
   width="1.999849"
   height="1.999849"
   x="-3.1157446"
   y="73.831764"
   transform="matrix(0.70705339,-0.70716017,0.70705339,0.70716017,0,0)" /><path
   id="rect15"
   style="fill:#ffffff;fill-opacity:1;stroke-linecap:round;stroke-linejoin:round;stroke-miterlimit:0"
   d="M 4,49.535534 7.5355339,53.071068 11.071068,49.535534 7.5355339,46 Z m 0.7071068,0 2.8284271,-2.828427 2.8284271,2.828427 -2.8284271,2.828427 z" /><rect
   style="fill:#ffffff;fill-opacity:1;stroke-width:0.999924;stroke-linecap:round;stroke-linejoin:round;stroke-miterlimit:0"
   id="rect16"
   width="1.999849"
   height="1.999849"
   x="-0.28710389"
   y="76.660408"
   transform="matrix(0.70705339,-0.70716017,0.70705339,0.70716017,0,0)" /><rect
   style="fill:#ffffff;fill-opacity:1;stroke-width:0.999924;stroke-linecap:round;stroke-linejoin:round;stroke-miterlimit:0"
   id="rect17"
   width="1.999849"
   height="1.999849"
   x="30.822926"
   y="41.307415"
   transform="matrix(0.70705339,-0.70716017,0.70705339,0.70716017,0,0)" /><circle
   style="fill:#b6b6b6;fill-opacity:1;stroke-linecap:round;stroke-linejoin:round;stroke-miterlimit:0"
   id="path19"
   cx="32.5"
   cy="32"
   r="27" /><path
   id="path20"
   style="fill:#ffffff;fill-opacity:1;stroke-linecap:round;stroke-linejoin:round;stroke-miterlimit:0"
   d="M 64,4 A 12,12 0 0 0 52,16 12,12 0 0 0 64,28 12,12 0 0 0 76,16 12,12 0 0 0 64,4 Z m 0,1 A 11,11 0 0 1 75,16 11,11 0 0 1 64,27 11,11 0 0 1 53,16 11,11 0 0 1 64,5 Z" /><circle
   style="fill:#001382;fill-opacity:1;stroke-linecap:round;stroke-linejoin:round;stroke-miterlimit:0"
   id="circle20"
   cx="32.5"
   cy="32"
   r="26" /><circle
   style="fill:#ffffff;fill-opacity:1;stroke-linecap:round;stroke-linejoin:round;stroke-miterlimit:0"
   id="path21"
   cx="32.5"
   cy="32"
   r="1" /><path
   id="animate-rotate-time-01"
   style="fill:#d1d1d1;fill-opacity:1;stroke-linecap:round;stroke-linejoin:round;stroke-miterlimit:0"
   transform="rotate({{seconds-angle}} 33.215 31.962)"
   d="M 36.634737,24.573429 A 8.4999995,8.4999995 0 0 0 25.07343,27.865262 8.4999995,8.4999995 0 0 0 28.365263,39.42657 8.4999995,8.4999995 0 0 0 39.926571,36.134736 8.4999995,8.4999995 0 0 0 36.634737,24.573429 Z m -0.435235,0.781744 a 7.6052627,7.6052627 0 0 1 3.896161,6.265429 L 28.821449,25.343694 a 7.6052627,7.6052627 0 0 1 7.378053,0.01148 z m -8.231647,0.537344 12.11093,6.742751 a 7.6052627,7.6052627 0 0 1 -0.933958,3.064233 7.6052627,7.6052627 0 0 1 -1.302761,1.714835 C 35.465953,36.102938 27.667428,31.793526 25.082549,30.320522 a 7.6052627,7.6052627 0 0 1 0.77261,-2.019996 7.6052627,7.6052627 0 0 1 2.112681,-2.407981 z m -1.517934,2.227075 -0.435235,0.781744 12.535394,6.979071 0.435235,-0.781744 z" /><g
   id="g28"><path
     id="path24"
     style="fill:#ffffff;fill-opacity:1;stroke-linecap:round;stroke-linejoin:round;stroke-miterlimit:0"
     d="m 73.40355,27.327735 -0.707106,0.707107 2.347815,2.347816 -0.707106,0.707107 -3.535534,-3.535534 0.707106,-0.707107 -2.347815,-2.347816 0.707106,-0.707107 z" /><path
     style="fill:#000000;fill-opacity:1;stroke:none;stroke-linecap:round;stroke-linejoin:round;stroke-miterlimit:0;stroke-opacity:1"
     d="m 66.900971,19.751715 0.121362,-2.047989 0.743344,-0.53096 8.829108,0.136533 1.04675,0.54613 0.409598,0.667493 -0.07585,1.183282 -0.834366,0.834366 -3.853253,0.409598 -0.09102,2.548608 -0.257895,0.758515 -0.955728,0.591641 -1.759753,-0.136533 -0.819196,-1.031579 v -2.305884 l -0.01517,-0.455109 h -1.57771 z"
     id="path28" /><path
     id="rect25"
     style="baseline-shift:baseline;display:inline;overflow:visible;opacity:1;vector-effect:none;fill:#ffffff;stroke-linecap:round;stroke-linejoin:round;stroke-miterlimit:0;enable-background:accumulate;stop-color:#000000;stop-opacity:1;fill-opacity:1"
     d="m 68.419922,16.558594 c -0.913802,0 -0.365574,1 0,1 h 4.271484 v 5.777344 c 0,0.562649 -0.437351,1 -1,1 h -0.888672 c -0.562648,0 -1,-0.437353 -1,-1 v -1.84961 h 0.0098 l -0.0098,-1 -1.382812,0.02344 c -0.212999,0.0035 -0.408189,-0.05922 -0.56836,-0.167969 -0.132558,0.03007 -0.272824,0.04687 -0.417968,0.04687 H 66.625 c 0.327039,0.662231 1.010395,1.121094 1.794922,1.121094 l 0.382812,-0.0059 v 1.832032 c 0,1.09935 0.900649,2 2,2 h 0.888672 c 1.099352,0 2,-0.90065 2,-2 v -1.832032 l 3.017578,0.0059 c 1.099349,0.0021 2,-0.900649 2,-2 v -0.47461 -0.476562 c 0,-1.099351 -0.900649,-2 -2,-2 z m 5.271484,1 h 1.685547 c -0.414442,0.361801 -0.677734,0.88939 -0.677734,1.476562 0,0.586704 0.263862,1.113357 0.677734,1.47461 l -1.685547,-0.0059 z m 3.011719,0.501953 c 0.566716,0 1.005857,0.436591 1.005859,0.974609 0,0.538018 -0.439142,0.972656 -1.005859,0.972656 -0.566716,0 -1.003906,-0.434638 -1.003906,-0.972656 0,-0.538019 0.43719,-0.974609 1.003906,-0.974609 z" /></g><path
   id="rect26"
   style="baseline-shift:baseline;display:inline;overflow:visible;opacity:1;vector-effect:none;fill:#e0e0e0;stroke-linecap:round;stroke-linejoin:round;stroke-miterlimit:0;enable-background:accumulate;stop-color:#000000;stop-opacity:1;fill-opacity:1"
   d="m 59.441406,8.6992188 c -0.05471,0.010006 -0.110053,0.02126 -0.164062,0.035156 h 0.164062 z m 0,0.035156 v 1 h 1 v -1 z m 1,0 h 0.01563 c -0.0052,-0.00133 -0.01046,-0.00261 -0.01563,-0.00391 z m 0,1 v 1.0000002 h 1 V 9.7343748 Z m 1,0 h 0.472656 L 61.521484,9.3417969 c -0.02642,-0.026417 -0.05271,-0.051289 -0.08008,-0.076172 z m 0,1.0000002 v 1 h 1 v -1 z m 1,0 h 0.472656 l -0.472656,-0.472656 z m 0,1 v 1 h 1 v -1 z m 1,0 h 0.472656 l -0.472656,-0.472656 z m 0,1 v 1 h 1 v -1 z m 1,0 h 0.472656 l -0.472656,-0.472656 z m 0,1 v 1 h 1 v -1 z m 1,0 h 0.472656 l -0.472656,-0.472656 z m 0,1 v 1 h 1 v -1 z m 1,0 h 0.472656 l -0.472656,-0.472656 z m 0,1 v 1 h 1 v -1 z m 1,0 h 0.472656 l -0.472656,-0.472656 z m 0,1 v 1 h 1 v -1 z m 1,0 h 0.404297 c -0.08575,-0.130843 -0.186039,-0.254399 -0.300781,-0.369141 l -0.103516,-0.103515 z m 0,1 v 1 h 0.673828 c 0.103149,-0.323474 0.134009,-0.665352 0.09375,-1 z m -1,0 h -1 v 1 h 1 z m 0,1 C 0,0 0,0 67.441406,18.734375 Z m 0,1.000003 h -1 v 0.800781 c 0.335394,0.03643 0.677294,5.4e-5 1,-0.107422 z m -1,0 v -1 h -1 v 1 z m -1,0 h -0.529297 l 0.13086,0.130859 c 0.122934,0.122935 0.257255,0.230609 0.398437,0.320313 z m 0,-1 v -1 h -1 v 1 z m -1,0 h -0.529297 l 0.529297,0.529297 z m 0,-1 v -1 h -1 v 1 z m -1,0 h -0.529297 l 0.529297,0.529297 z m 0,-1 v -1 h -1 v 1 z m -1,0 h -0.529297 l 0.529297,0.529297 z m 0,-1 v -1 h -1 v 1 z m -1,0 h -0.529297 l 0.529297,0.529297 z m 0,-1 v -1 h -1 v 1 z m -1,0 h -0.529297 l 0.529297,0.529297 z m 0,-1 v -1 h -1 v 1 z m -1,0 h -0.529297 l 0.529297,0.529297 z m 0,-1 v -1 h -1 v 1 z m -1,0 h -0.523437 c 0.03264,0.03708 0.06812,0.07398 0.103515,0.109375 l 0.419922,0.419922 z m 0,-1 v -1 h -1 v 1 z m -1,0 h -0.03906 c 0.01154,0.04857 0.0244,0.09665 0.03906,0.144531 z m 0,-1 V 10.49805 c -0.02396,0.07822 -0.04493,0.156395 -0.06055,0.236328 z m 1,0 h 1 V 9.7343778 h -1 z m 0,-1.0000002 V 9.1425781 c -0.07942,0.061019 -0.155903,0.1266068 -0.228515,0.1992188 l -0.19336,0.1933593 c -0.06361,0.063607 -0.123037,0.1303448 -0.177734,0.1992188 z m 1,1.0000002 v 1 h 1 v -1 z m 1,1 v 1 h 1 v -1 z m 1,1 v 1 h 1 v -1 z m 1,1 v 1 h 1 v -1 z m 1,1 v 1 h 1 v -1 z m 1,1 v 1 h 1 v -1 z m 1,1 v 1 h 1 v -1 z" /><circle
   style="fill:#ffffff;fill-opacity:1;stroke:none;stroke-linecap:round;stroke-linejoin:round;stroke-miterlimit:0;stroke-opacity:1"
   id="path29"
   cx="55.46257"
   cy="13.622919"
   r="0.5" /><circle
   style="fill:#ffffff;fill-opacity:1;stroke:none;stroke-linecap:round;stroke-linejoin:round;stroke-miterlimit:0;stroke-opacity:1"
   id="circle29"
   cx="64.564743"
   cy="15.564716"
   r="0.5" /><path
   id="blink-01"
   style="fill:#ffffff;stroke:#b0b0b0;stroke-opacity:1;stroke-width:0.4;stroke-dasharray:none"
   d="m 31.735355,15.96875 c -3.074361,0 -4.622938,0.991475 -4.622938,0.991475 3.28782,-1.90325 14.790847,1.136375 18.203016,5.473369 C 43.817832,20.316082 37.212185,15.96875 31.735355,15.96875 Z m -9.675781,30.080078 c 2.772256,1.844377 6.099177,2.919922 9.675781,2.919922 3.576603,0 6.905478,-1.075545 9.677734,-2.919922 -6.513539,3.492551 -12.955229,2.961587 -19.353515,0 z m -0.292969,5.832031 c 2.872887,1.517376 6.157038,2.378907 9.644531,2.378907 3.487493,0 6.773597,-0.861531 9.646484,-2.378907 -6.572853,2.280227 -13.062236,3.224956 -19.291015,0 z" />
       <g
   id="progress-arc"
   transform="rotate({{progress-arc}}, 64.795654,15.56821)"><path
     id="path760"
     style="fill:#000000;fill-opacity:1;stroke:none;stroke-linecap:round;stroke-linejoin:round;stroke-miterlimit:0;stroke-opacity:1"
     d="M 70.819363,8.2794018 C 70.376059,7.9508972 69.750451,8.0435184 69.421347,8.4863777 l -0.896199,1.2082787 -2.379609,-1.763555 -1.190703,1.6077323 2.353437,1.7431223 -0.578421,0.817084 -2.370371,-1.756343 -1.189501,1.606194 2.378068,1.762352 -7.4703,10.083143 c -0.08125,0.109605 -0.139274,0.234643 -0.170421,0.367477 l -3.044264,13.040419 -3.832857,2.468888 c -0.229525,-0.154156 -0.483032,-0.269169 -0.750196,-0.340359 -0.640956,-0.168976 -1.322784,-0.07649 -1.895564,0.257125 l -8.682929,5.050538 c -1.19329,0.694844 -1.263769,1.965126 -0.568755,3.158317 0.694283,1.193124 1.890708,1.858136 3.084037,1.164201 l 3.755087,-2.185182 2.253619,2.378811 c 0.189968,0.200077 0.506095,0.208464 0.706411,0.01875 0.201437,-0.189793 0.210381,-0.507116 0.01995,-0.70795 l -2.091709,-2.205334 4.038033,-2.350833 c 0.89312,-0.519485 1.37466,-1.534868 1.21177,-2.55516 l 4.175856,-2.689246 c 0.218378,-0.140753 0.373408,-0.360965 0.432272,-0.614018 l 3.088975,-13.230996 7.348722,-9.917886 2.44085,1.80889 1.191038,-1.604994 -2.505177,-1.856622 0.57842,-0.817085 2.522112,1.869843 1.190703,-1.607732 -2.440852,-1.808889 0.893461,-1.2079389 c 0.3285,-0.4433097 0.235878,-1.0689162 -0.206979,-1.3980207 z m -21.760624,31.7556522 0.223233,0.174274 0.2288,0.411534 -0.502388,0.643526 0.788242,0.615365 0.24278,-0.310986 0.493118,0.885486 -0.735898,-0.5745 -0.615365,0.788243 0.788242,0.615365 0.598539,-0.766689 0.21104,0.380324 -0.747998,0.43444 -0.06159,-0.04808 -0.121392,0.155492 -0.747999,0.434439 -0.534219,-0.417055 -0.615365,0.788243 0.218613,0.170667 -0.645282,0.375868 0.426669,-0.546535 -0.788242,-0.615365 -0.615365,0.788243 0.691252,0.539646 -0.930971,0.541855 -0.375646,-0.293259 -0.615365,0.788242 0.06005,0.04687 -0.17662,0.102466 0.116579,-0.149336 -0.788242,-0.615364 -0.615365,0.788242 0.53268,0.415851 -0.930971,0.541857 0.281279,-0.949022 -1.459474,-1.239415 -0.598879,-0.467534 0.914035,-0.555076 0.300209,0.234368 0.615366,-0.788242 0.788242,0.615365 0.615364,-0.788242 -0.488032,-0.380999 0.915574,-0.553874 0.187823,0.14663 0.385805,-0.494191 0.340408,-0.207516 0.677395,0.528829 0.615365,-0.788242 -0.377187,-0.294462 0.915574,-0.553875 0.07698,0.0601 0.157447,-0.201679 z m -0.838597,0.61397 -0.615366,0.788241 0.788243,0.615365 0.615365,-0.788242 z m 0.172877,1.403606 -0.615366,0.788243 0.788243,0.615365 0.615365,-0.788242 z m -0.615366,0.788243 -0.788242,-0.615366 -0.615364,0.788243 0.788242,0.615365 z m -1.403606,0.172877 -0.788243,-0.615365 -0.615365,0.788243 0.788243,0.615364 z m -0.615365,0.788242 -0.615366,0.788242 0.788243,0.615366 0.615365,-0.788243 z m -0.615366,0.788242 -0.788242,-0.615364 -0.615365,0.788242 0.788242,0.615365 z m -1.403607,0.172878 -0.788243,-0.615365 -0.615364,0.788243 0.788242,0.615365 z m -0.615365,0.788243 0.788243,0.615364 z" /><path
     id="rect751"
     style="fill:#e2e2e2;fill-opacity:1;stroke:none;stroke-linecap:round;stroke-linejoin:round;stroke-miterlimit:0;stroke-opacity:1"
     d="M 70.634221,8.0942598 C 70.190917,7.7657552 69.565309,7.8583764 69.236205,8.3012357 l -0.896199,1.2082787 -2.379609,-1.763555 -1.190703,1.6077323 2.353437,1.7431223 -0.578421,0.817084 -2.370371,-1.756343 -1.189501,1.606194 2.378068,1.762352 -7.4703,10.083143 c -0.08125,0.109605 -0.139274,0.234643 -0.170421,0.367477 l -3.044264,13.040419 -3.832857,2.468888 c -0.229525,-0.154156 -0.483032,-0.269169 -0.750196,-0.340359 -0.640956,-0.168976 -1.322784,-0.07649 -1.895564,0.257125 l -8.682929,5.050538 c -1.19329,0.694844 -1.263769,1.965126 -0.568755,3.158317 0.694283,1.193124 1.890708,1.858136 3.084037,1.164201 l 3.755087,-2.185182 2.253619,2.378811 c 0.189968,0.200077 0.506095,0.208464 0.706411,0.01875 0.201437,-0.189793 0.210381,-0.507116 0.01995,-0.70795 l -2.091709,-2.205334 4.038033,-2.350833 c 0.89312,-0.519485 1.37466,-1.534868 1.21177,-2.55516 l 4.175856,-2.689246 c 0.218378,-0.140753 0.373408,-0.360965 0.432272,-0.614018 l 3.088975,-13.230996 7.348722,-9.917886 2.44085,1.80889 1.191038,-1.604994 -2.505177,-1.856622 0.57842,-0.817085 2.522112,1.869843 1.190703,-1.607732 -2.440852,-1.808889 0.893461,-1.2079389 c 0.3285,-0.4433097 0.235878,-1.0689162 -0.206979,-1.3980207 z m -21.760624,31.7556522 0.223233,0.174274 0.2288,0.411534 -0.502388,0.643526 0.788242,0.615365 0.24278,-0.310986 0.493118,0.885486 -0.735898,-0.5745 -0.615365,0.788243 0.788242,0.615365 0.598539,-0.766689 0.21104,0.380324 -0.747998,0.43444 -0.06159,-0.04808 -0.121392,0.155492 -0.747999,0.434439 -0.534219,-0.417055 -0.615365,0.788243 0.218613,0.170667 -0.645282,0.375868 0.426669,-0.546535 -0.788242,-0.615365 -0.615365,0.788243 0.691252,0.539646 -0.930971,0.541855 -0.375646,-0.293259 -0.615365,0.788242 0.06005,0.04687 -0.17662,0.102466 0.116579,-0.149336 -0.788242,-0.615364 -0.615365,0.788242 0.53268,0.415851 -0.930971,0.541857 0.281279,-0.949022 -1.459474,-1.239415 -0.598879,-0.467534 0.914035,-0.555076 0.300209,0.234368 0.615366,-0.788242 0.788242,0.615365 0.615364,-0.788242 -0.488032,-0.380999 0.915574,-0.553874 0.187823,0.14663 0.385805,-0.494191 0.340408,-0.207516 0.677395,0.528829 0.615365,-0.788242 -0.377187,-0.294462 0.915574,-0.553875 0.07698,0.0601 0.157447,-0.201679 z m -0.838597,0.61397 -0.615366,0.788241 0.788243,0.615365 0.615365,-0.788242 z m 0.172877,1.403606 -0.615366,0.788243 0.788243,0.615365 0.615365,-0.788242 z m -0.615366,0.788243 -0.788242,-0.615366 -0.615364,0.788243 0.788242,0.615365 z m -1.403606,0.172877 -0.788243,-0.615365 -0.615365,0.788243 0.788243,0.615364 z m -0.615365,0.788242 -0.615366,0.788242 0.788243,0.615366 0.615365,-0.788243 z m -0.615366,0.788242 -0.788242,-0.615364 -0.615365,0.788242 0.788242,0.615365 z m -1.403607,0.172878 -0.788243,-0.615365 -0.615364,0.788243 0.788242,0.615365 z m -0.615365,0.788243 0.788243,0.615364 z" /></g><path
   style="fill:#ff0000;fill-opacity:1;stroke:#ffffff;stroke-width:1;stroke-linecap:round;stroke-linejoin:round;stroke-miterlimit:0;stroke-dasharray:none;stroke-opacity:1"
   d="M 72.258653,56.344294 V 33.213478"
   id="path759" /><rect
   style="fill:#e2e2e2;stroke:#ffffff;stroke-width:1;stroke-linecap:round;stroke-linejoin:round;stroke-miterlimit:0;stroke-dasharray:none;fill-opacity:1"
   id="level-03-mutex"
   width="5"
   height="3"
   x="69.739304"
   y="33.931065" /><rect
   style="fill:#e2e2e2;stroke:#ffffff;stroke-width:1;stroke-linecap:round;stroke-linejoin:round;stroke-miterlimit:0;stroke-dasharray:none;fill-opacity:1"
   id="level-02-mutex"
   width="5"
   height="3"
   x="69.739304"
   y="42.821198" /><rect
   style="fill:#e2e2e2;stroke:#ffffff;stroke-width:1;stroke-linecap:round;stroke-linejoin:round;stroke-miterlimit:0;stroke-dasharray:none;fill-opacity:1"
   id="level-01-mutex"
   width="5"
   height="3"
   x="69.739304"
   y="53.001358" /><path
   id="ripple-even"
   transform="rotate({{ripple-even}} 33.215 31.962)"
   style="fill:#ffffff;fill-opacity:{{ripple-even}}"
   d="m 32.499027,7.5 c -2.558824,0 -5.018103,0.426904 -7.310547,1.214844 14.961118,-2.7601352 19.04896,3.49178 22.15625,4.380859 C 43.382319,9.613072 38.185279,7.5 32.499027,7.5 Z m 8.069045,15.25757 c -5.920907,-2.166814 -9.402001,-5.896003 -14.787795,-1.525148 5.18498,-2.82087 8.969144,-0.02986 14.787795,1.525148 z" />
<path
   id="ripple-odd"
   transform="rotate({{ripple-odd}} 33.215 31.962)"
   style="fill:#ffffff;fill-opacity:{{ripple-odd}}"
   d="m 32.499027,12.5 c -3.701062,0 -7.162393,1.033086 -10.111328,2.826172 6.559846,-2.941897 13.272943,-3.393443 20.222656,0 C 39.661419,13.533086 36.200088,12.5 32.499027,12.5 Z m -7.986328,41.29297 c 2.437723,1.09667 5.141515,1.70703 7.986328,1.70703 2.844812,0 5.548604,-0.61036 7.986328,-1.70703 -5.22877,1.71808 -10.547469,1.81744 -15.972656,0 z" />
</svg>
