<?xml version="1.0" encoding="UTF-8" standalone="no"?>
<!-- Created with Inkscape (http://www.inkscape.org/) -->

<svg
   width="8.9958334mm"
   height="8.9958334mm"
   viewBox="0 0 8.9958335 8.9958335"
   version="1.1"
   id="svg1"
   xml:space="preserve"
   xmlns="http://www.w3.org/2000/svg"
   xmlns:svg="http://www.w3.org/2000/svg"><defs
     id="defs1" /><rect
     style="fill:#000000;fill-opacity:1;stroke-width:0.76729;stroke-linecap:round;stroke-linejoin:round;stroke-miterlimit:0"
     id="rect2"
     width="8.9958334"
     height="8.9958334"
     x="-1.110223e-16"
     y="1.110223e-16" /><g
     id="g117"
     transform="translate(-54.58584,38.010642)"><path
       id="path109"
       style="font-size:2.66249px;line-height:1.1;font-family:System-ui;-inkscape-font-specification:System-ui;letter-spacing:3.22295px;baseline-shift:baseline;display:inline;overflow:visible;vector-effect:none;fill:#ffffff;stroke-linecap:round;stroke-linejoin:round;stroke-miterlimit:0;enable-background:accumulate;stop-color:#000000"
       d="m 58.49313,-31.089405 c -0.08963,6.96e-4 -0.158918,0.07888 -0.148828,0.167949 l 0.03152,0.289388 -0.290939,-0.08423 c -0.08732,-0.02424 -0.176163,0.03338 -0.189652,0.12299 l -0.03721,0.244429 c -0.01346,0.08667 0.04952,0.166528 0.136942,0.173633 l 0.212907,0.01757 -0.150378,0.203089 c -0.05426,0.07474 -0.02929,0.180237 0.05271,0.222725 l 0.236161,0.125057 c 0.07752,0.0414 0.173889,0.0081 0.20929,-0.07235 l 0.07183,-0.165881 0.08423,0.171565 c 0.03761,0.07797 0.132941,0.108407 0.208772,0.06666 l 0.22841,-0.125057 c 0.08219,-0.04376 0.105552,-0.150756 0.04909,-0.224792 l -0.152446,-0.201022 0.217041,-0.01757 c 0.08721,-0.0074 0.149884,-0.08715 0.136426,-0.173633 l -0.03721,-0.244429 c -0.01353,-0.08934 -0.101987,-0.14686 -0.189136,-0.12299 l -0.297139,0.08372 0.02945,-0.290938 c 0.0088,-0.0889 -0.06104,-0.165975 -0.150378,-0.165882 z m 0.132809,0.709001 c 0.01651,0.02703 0.04109,0.04818 0.07028,0.06046 -0.01101,0.01525 -0.01907,0.03243 -0.02377,0.05064 -0.03039,-0.0099 -0.06315,-0.0099 -0.09354,0 -0.0043,-0.0189 -0.01219,-0.03679 -0.02325,-0.05271 0.0289,-0.01174 0.05345,-0.03213 0.07028,-0.05839 z" /><path
       d="m 60.722317,-32.887788 -0.05307,0.509441 0.50944,-0.14328 0.03714,0.244106 -0.488214,0.03979 0.315748,0.419231 -0.228185,0.124706 -0.225534,-0.464333 -0.204306,0.464333 -0.236148,-0.124702 0.310442,-0.419227 -0.482907,-0.0398 0.03714,-0.244106 0.504133,0.14328 -0.05572,-0.509441 z"
       id="path111"
       style="font-size:1.76389px;line-height:1.1;font-family:System-ui;-inkscape-font-specification:System-ui;letter-spacing:2.13519px;fill:#ffffff;stroke-width:0.300851;stroke-linecap:round;stroke-linejoin:round;stroke-miterlimit:0"
       aria-label="*" /><path
       d="m 58.076485,-32.887788 -0.05307,0.509441 0.50944,-0.14328 0.03714,0.244106 -0.488214,0.03979 0.315748,0.419231 -0.228185,0.124706 -0.225534,-0.464333 -0.204306,0.464333 -0.236148,-0.124702 0.310442,-0.419227 -0.482907,-0.0398 0.03714,-0.244106 0.504133,0.14328 -0.05572,-0.509441 z"
       id="path112"
       style="font-size:1.76389px;line-height:1.1;font-family:System-ui;-inkscape-font-specification:System-ui;letter-spacing:2.13519px;fill:#ffffff;stroke-width:0.300851;stroke-linecap:round;stroke-linejoin:round;stroke-miterlimit:0"
       aria-label="*" /><path
       style="fill:none;fill-opacity:1;stroke:#ffffff;stroke-width:0.2;stroke-linecap:round;stroke-linejoin:round;stroke-miterlimit:0;stroke-dasharray:none;stroke-opacity:1"
       d="m 56.563889,-31.753878 1.549257,-3.96396"
       id="path113" /><path
       style="fill:none;fill-opacity:1;stroke:#ffffff;stroke-width:0.2;stroke-linecap:round;stroke-linejoin:round;stroke-miterlimit:0;stroke-dasharray:none;stroke-opacity:1"
       d="m 59.209724,-31.753878 1.549257,-3.96396"
       id="path114" /><path
       style="fill:none;fill-opacity:1;stroke:#ffffff;stroke-width:0.2;stroke-linecap:round;stroke-linejoin:round;stroke-miterlimit:0;stroke-dasharray:none;stroke-opacity:1"
       d="m 58.466866,-33.373433 1.549257,-3.96396"
       id="path116" /><path
       style="fill:none;fill-opacity:1;stroke:#ffffff;stroke-width:0.2;stroke-linecap:round;stroke-linejoin:round;stroke-miterlimit:0;stroke-dasharray:none;stroke-opacity:1"
       d="m 61.112701,-33.373433 1.549257,-3.96396"
       id="path117" /></g></svg>
