<?xml version="1.0" encoding="UTF-8" standalone="no"?>
<!-- Created with Inkscape (http://www.inkscape.org/) -->

<svg
   width="17.991667mm"
   height="17.991667mm"
   viewBox="0 0 17.991667 17.991667"
   version="1.1"
   id="svg1"
   xmlns="http://www.w3.org/2000/svg"
   xmlns:svg="http://www.w3.org/2000/svg">
  <defs
     id="defs1" />
  <path
     style="baseline-shift:baseline;display:inline;overflow:visible;vector-effect:none;fill:#ffffff;stroke-linecap:round;stroke-linejoin:round;stroke-miterlimit:0;enable-background:accumulate;stop-color:#000000"
     d="m 8.9958335,4.7770833 c -2.32699,0 -4.2187502,1.8917597 -4.2187502,4.2187497 0,2.32699 1.8917602,4.21875 4.2187502,4.21875 2.3269905,0 4.2187505,-1.89176 4.2187505,-4.21875 0,-2.32699 -1.89176,-4.2187497 -4.2187505,-4.2187497 z m 0,0.5 c 2.0567705,0 3.7187505,1.6619797 3.7187505,3.7187497 0,2.05677 -1.66198,3.71875 -3.7187505,3.71875 -2.05677,0 -3.7187503,-1.66198 -3.7187502,-3.71875 0,-2.05677 1.6619802,-3.7187498 3.7187502,-3.7187497 z"
     id="path4" />
  <path
     id="path8"
     style="baseline-shift:baseline;display:inline;overflow:visible;vector-effect:none;fill:#ffffff;fill-opacity:1;stroke-linecap:round;stroke-linejoin:round;stroke-miterlimit:0;enable-background:accumulate;stop-color:#000000"
     d="m 13.357046,4.2665494 a 0.232756,0.232756 0 0 0 -0.163297,0.07028 l -0.578776,0.596346 c 0.115913,0.1034709 0.227568,0.2116934 0.334346,0.324528 L 13.528095,4.6618741 A 0.232756,0.232756 0 0 0 13.522395,4.3321785 0.232756,0.232756 0 0 0 13.35703,4.2665495 Z M 4.4966058,4.3978076 a 0.232756,0.232756 0 0 0 -0.163298,0.07028 0.232756,0.232756 0 0 0 0.00362,0.3296956 l 0.596346,0.5787761 C 5.0367298,5.2606401 5.1449798,5.1489985 5.2577998,5.0422127 L 4.6619708,4.4634366 a 0.232756,0.232756 0 0 0 -0.165365,-0.065629 z m 8.5617522,8.2170704 c -0.103454,0.115923 -0.211712,0.227557 -0.324529,0.334346 L 13.329658,13.528 a 0.232756,0.232756 0 0 0 0.329695,-0.0057 0.232756,0.232756 0 0 0 -0.0046,-0.328662 z m -8.0160492,0.118339 -0.578776,0.596346 a 0.232756,0.232756 0 0 0 0.00465,0.328662 0.232756,0.232756 0 0 0 0.330212,-0.0036 l 0.578776,-0.595829 c -0.116295,-0.10378 -0.227759,-0.21236 -0.334863,-0.325561 z" />
  <path
     id="path16"
     style="baseline-shift:baseline;display:inline;overflow:visible;vector-effect:none;fill:#ffffff;fill-opacity:1;stroke-linecap:round;stroke-linejoin:round;stroke-miterlimit:0;enable-background:accumulate;stop-color:#000000"
     d="m 8.9966085,2.1148666 a 0.24999949,0.24999949 0 0 0 -0.249597,0.2501139 v 1.1870076 c 0.08258,-0.00378 0.165622,-0.00568 0.24908,-0.00568 0.08398,0 0.16754,0.00238 0.250631,0.0062 V 2.3649805 A 0.24999949,0.24999949 0 0 0 8.9966085,2.1148666 Z M 2.3639384,8.745469 A 0.24999949,0.24999949 0 0 0 2.1138245,8.995583 0.24999949,0.24999949 0 0 0 2.3639384,9.245697 h 1.188558 c -0.0038,-0.08284 -0.00568,-0.166394 -0.00568,-0.250114 0,-0.08389 0.00187,-0.167107 0.00568,-0.250114 z m 12.0752316,0 c 0.0038,0.08301 0.0057,0.16622 0.0057,0.250114 0,0.08372 -0.0019,0.167278 -0.0057,0.250114 h 1.188559 A 0.24999949,0.24999949 0 0 0 15.877843,8.995583 0.24999949,0.24999949 0 0 0 15.627729,8.745469 Z m -5.1924475,5.69371 c -0.08309,0.0038 -0.166649,0.0062 -0.250631,0.0062 -0.08346,0 -0.166499,-0.0019 -0.24908,-0.0057 v 1.187007 a 0.24999949,0.24999949 0 0 0 0.249597,0.250114 0.24999949,0.24999949 0 0 0 0.250114,-0.250114 z" />
</svg>
