<?xml version="1.0" encoding="UTF-8" standalone="no"?>
<!-- Created with Inkscape (http://www.inkscape.org/) -->

<svg
   width="17.991667mm"
   height="17.991667mm"
   viewBox="0 0 17.991667 17.991667"
   version="1.1"
   id="svg1"
   xmlns="http://www.w3.org/2000/svg"
   xmlns:svg="http://www.w3.org/2000/svg">
  <defs
     id="defs1" />
  <g
     id="layer1"
     transform="translate(-4.0478315,-4.047833)">
    <path
       style="baseline-shift:baseline;display:inline;overflow:visible;opacity:1;vector-effect:none;fill:#ffffff;stroke-linecap:round;stroke-linejoin:round;stroke-miterlimit:0;enable-background:accumulate;stop-color:#000000;stop-opacity:1"
       d="m 13.043665,8.8249163 c -2.32699,0 -4.2187502,1.8917597 -4.2187502,4.2187497 0,2.32699 1.8917602,4.21875 4.2187502,4.21875 2.32699,0 4.21875,-1.89176 4.21875,-4.21875 0,-2.32699 -1.89176,-4.2187497 -4.21875,-4.2187497 z m 0,0.5 c 2.05677,0 3.71875,1.6619797 3.71875,3.7187497 0,2.05677 -1.66198,3.71875 -3.71875,3.71875 -2.05677,0 -3.7187503,-1.66198 -3.7187502,-3.71875 0,-2.05677 1.6619802,-3.7187498 3.7187502,-3.7187497 z"
       id="path4" />
    <path
       id="path8"
       style="baseline-shift:baseline;display:inline;overflow:visible;opacity:1;vector-effect:none;fill:#ffffff;fill-opacity:1;stroke-linecap:round;stroke-linejoin:round;stroke-miterlimit:0;enable-background:accumulate;stop-color:#000000;stop-opacity:1"
       d="m 17.404878,8.3143824 a 0.232756,0.232756 0 0 0 -0.163297,0.07028 l -0.578776,0.596346 c 0.115913,0.1034709 0.227568,0.2116934 0.334346,0.324528 l 0.578776,-0.5958293 a 0.232756,0.232756 0 0 0 -0.0057,-0.3296956 0.232756,0.232756 0 0 0 -0.165365,-0.065629 z M 8.5444373,8.4456406 a 0.232756,0.232756 0 0 0 -0.163298,0.07028 0.232756,0.232756 0 0 0 0.00362,0.3296956 l 0.596346,0.5787761 C 9.0845613,9.3084731 9.1928113,9.1968315 9.3056313,9.0900457 L 8.7098023,8.5112696 a 0.232756,0.232756 0 0 0 -0.165365,-0.065629 z m 8.5617517,8.2170704 c -0.103454,0.115923 -0.211712,0.227557 -0.324528,0.334346 l 0.595829,0.578776 a 0.232756,0.232756 0 0 0 0.329695,-0.0057 0.232756,0.232756 0 0 0 -0.0046,-0.328662 z m -8.0160487,0.118339 -0.578776,0.596346 a 0.232756,0.232756 0 0 0 0.00465,0.328662 0.232756,0.232756 0 0 0 0.330212,-0.0036 l 0.578776,-0.595829 c -0.116295,-0.10378 -0.227759,-0.21236 -0.334863,-0.325561 z" />
    <path
       id="path16"
       style="baseline-shift:baseline;display:inline;overflow:visible;opacity:1;vector-effect:none;fill:#ffffff;fill-opacity:1;stroke-linecap:round;stroke-linejoin:round;stroke-miterlimit:0;enable-background:accumulate;stop-color:#000000;stop-opacity:1"
       d="m 13.04444,6.1626996 a 0.24999949,0.24999949 0 0 0 -0.249597,0.2501139 v 1.1870076 c 0.08258,-0.00378 0.165622,-0.00568 0.24908,-0.00568 0.08398,0 0.16754,0.00238 0.250631,0.0062 V 6.4128135 A 0.24999949,0.24999949 0 0 0 13.04444,6.1626996 Z M 6.4117699,12.793302 A 0.24999949,0.24999949 0 0 0 6.161656,13.043416 0.24999949,0.24999949 0 0 0 6.4117699,13.29353 h 1.188558 c -0.0038,-0.08284 -0.00568,-0.166394 -0.00568,-0.250114 0,-0.08389 0.00187,-0.167107 0.00568,-0.250114 z m 12.0752321,0 c 0.0038,0.08301 0.0057,0.16622 0.0057,0.250114 0,0.08372 -0.0019,0.167278 -0.0057,0.250114 h 1.188558 a 0.24999949,0.24999949 0 0 0 0.250114,-0.250114 0.24999949,0.24999949 0 0 0 -0.250114,-0.250114 z m -5.192448,5.69371 c -0.08309,0.0038 -0.166649,0.0062 -0.250631,0.0062 -0.08346,0 -0.166499,-0.0019 -0.24908,-0.0057 v 1.187007 a 0.24999949,0.24999949 0 0 0 0.249597,0.250114 0.24999949,0.24999949 0 0 0 0.250114,-0.250114 z" />
  </g>
</svg>
