<?xml version="1.0" encoding="UTF-8" standalone="no"?>
<!-- Created with Inkscape (http://www.inkscape.org/) -->

<svg
   width="8.9958334mm"
   height="8.9958334mm"
   viewBox="0 0 8.9958335 8.9958335"
   version="1.1"
   id="svg1"
   xml:space="preserve"
   xmlns="http://www.w3.org/2000/svg"
   xmlns:svg="http://www.w3.org/2000/svg"><defs
     id="defs1" /><rect
     style="fill:#000000;fill-opacity:1;stroke-width:0.76729;stroke-linecap:round;stroke-linejoin:round;stroke-miterlimit:0"
     id="rect2"
     width="8.9958334"
     height="8.9958334"
     x="-1.110223e-16"
     y="1.110223e-16" /><path
     id="path45"
     style="baseline-shift:baseline;display:inline;overflow:visible;opacity:1;vector-effect:none;fill:#ffffff;stroke-linecap:round;stroke-linejoin:round;stroke-miterlimit:0;enable-background:accumulate;stop-color:#000000;stop-opacity:1"
     d="m 5.2361616,0.45142284 c -0.9327668,1.01e-4 -1.691269,0.75860196 -1.6913697,1.69136896 5.666e-4,0.149951 0.024714,0.298912 0.064596,0.443384 -0.1009155,0.134904 -0.1735489,0.289327 -0.1741496,0.458887 -8.2e-6,6.89e-4 -8.2e-6,0.0014 0,0.0021 2.5e-6,0.1242 0.029924,0.246933 0.0863,0.357601 0.015292,0.02885 0.045379,0.04678 0.078031,0.04651 h 4.0348959 c 0.027665,5.9e-5 0.053728,-0.01297 0.07028,-0.03514 0.137751,-0.182199 0.2128633,-0.404108 0.2129069,-0.63252 1.02e-5,-0.578668 -0.4719132,-1.049042 -1.0505818,-1.049031 -0.00523,-5e-6 -0.010272,-7.4e-5 -0.015503,0 C 6.6601506,0.99205984 6.0103119,0.45134084 5.2361616,0.45145384 Z m 0,0.175699 c 0.047213,-6e-6 0.093797,0.0025 0.1400431,0.0067 h 5.168e-4 L 7.598808,3.2408988 c -0.0074,0.01164 -0.014893,0.02325 -0.022738,0.03462 H 7.4561811 L 5.2098066,0.62761584 c 0.00877,-1.49e-4 0.017552,-5.16e-4 0.026355,-5.17e-4 z m -0.2211752,0.01602 0.4568197,0.53536796 c 0.00718,0.01644 0.016546,0.03163 0.027389,0.04444 l 0.6934977,0.813387 c -0.00423,-0.0093 -0.00854,-0.01862 -0.012919,-0.02791 l 0.3813721,0.448552 c -0.0067,-0.0039 -0.013423,-0.0077 -0.020154,-0.01137 l 0.6082316,0.713135 c -0.00267,-0.0074 -0.00543,-0.01482 -0.00827,-0.02222 L 7.249474,3.2755328 H 7.0866946 l -0.2077393,-0.243913 -5.167e-4,-5.17e-4 c -0.00714,-0.01661 -0.016504,-0.03198 -0.027388,-0.04496 L 4.8770103,0.67000484 c 0.045223,-0.01095 0.091258,-0.02007 0.1379761,-0.02687 z m 0.6040975,0.03256 c 0.079,0.0205 0.1557336,0.04765 0.2294434,0.0801 h 5.167e-4 c 0.074747,0.02641 0.1426564,0.059 0.2051555,0.09715 a 0.05,0.05 0 0 0 -0.046509,0.0088 0.05,0.05 0 0 0 -0.00775,0.07028 L 6.4138687,1.4534478 a 0.05,0.05 0 0 0 0.07028,0.0098 0.05,0.05 0 0 0 0.00775,-0.07028 L 6.0779706,0.86947784 a 0.05,0.05 0 0 0 -0.0031,-0.0036 C 6.3863338,1.0657898 6.5544489,1.4030338 6.7037727,1.7583298 v 5.17e-4 c 0.00698,0.0268 0.013038,0.05371 0.018604,0.08113 0.00856,0.04326 0.04799,0.07339 0.091984,0.07028 0.00604,-3.67e-4 0.011713,-7.45e-4 0.01757,-10e-4 l 0.8903849,1.043864 c -0.010885,0.04717 -0.0262,0.09369 -0.044958,0.138493 z m -0.9064046,0.04392 0.2537313,0.29713996 c 0.00721,0.01701 0.016767,0.03275 0.027905,0.04599 l 1.8856731,2.212785 H 6.7182416 L 6.3745934,2.8719438 c -0.00743,-0.01691 -0.01716,-0.03248 -0.028422,-0.04547 L 4.5933067,0.76923484 c 0.038868,-0.01818 0.078782,-0.03471 0.1193726,-0.04961 z m -0.1374593,0.05839 c -0.00389,0.0076 -0.00769,0.01545 -0.011369,0.02325 -0.011636,-1.48e-4 -0.023127,-2.36e-4 -0.034623,0 0.015196,-0.008 0.030494,-0.01575 0.045992,-0.02325 z m -0.1193726,0.0646 c 0.00734,0.02206 0.018652,0.04329 0.033073,0.06046 L 6.5110192,3.2755378 H 6.3497887 l -0.4800741,-0.56379 c -0.00743,-0.01691 -0.01716,-0.03248 -0.028422,-0.04547 L 4.4868533,1.0761938 c -7.068e-4,0.0036 -0.0014,0.0072 -0.00207,0.01085 L 4.3411257,0.91857884 c 0.03688,-0.02698 0.075407,-0.05234 0.1147217,-0.07596 z M 4.2186526,1.0188288 6.1430829,3.2755388 H 5.9813357 L 4.1313194,1.1046118 c 0.027979,-0.02976 0.057046,-0.05837 0.087333,-0.08578 z m -0.190686,0.207739 1.7456299,2.048971 H 5.6128827 c -0.00179,-0.0023 -0.00379,-0.0045 -0.00568,-0.0067 L 3.9556239,1.3304558 c 0.022638,-0.03566 0.046893,-0.07033 0.072347,-0.10387 z M 3.873454,1.4777158 5.4056603,3.2755388 H 5.2449466 l -1.4257528,-1.67225 c 0.016256,-0.04277 0.034349,-0.08477 0.05426,-0.125573 z M 3.7639,1.7820898 5.0222211,3.2755388 H 3.6657148 c -0.02999,-0.07338 -0.054775,-0.148816 -0.054777,-0.22841 5.25e-4,-0.148196 0.054533,-0.291315 0.1524455,-0.402559 0.01931,-0.02248 0.025922,-0.05321 0.01757,-0.08165 -0.03991,-0.136431 -0.059924,-0.277982 -0.060461,-0.42013 1.34e-5,-0.124431 0.015238,-0.245052 0.043408,-0.360701 z m 3.2917887,0.146761 c 0.084991,0.01861 0.1655635,0.04967 0.2392619,0.09095 l 0.3942912,0.463021 c 0.028641,0.07853 0.046164,0.162289 0.05116,0.249597 z m 0.3493327,1.34152 c 2.708e-4,-6.8e-5 7.46e-4,3.6e-5 0.00103,0 0.00497,-6.29e-4 0.012013,0.0015 0.019637,0.0052 h -0.026872 v -5.17e-4 l 5.168e-4,-5.16e-4 H 7.39985 v -5.17e-4 l 5.167e-4,-5.17e-4 5.168e-4,-5.17e-4 5.168e-4,-5.16e-4 5.167e-4,-5.17e-4 h 5.168e-4 l 5.168e-4,-5.17e-4 c 4.72e-4,-2.23e-4 0.00155,-8.49e-4 0.00207,-10e-4 z" /><path
     id="path65"
     style="baseline-shift:baseline;display:inline;overflow:visible;opacity:1;vector-effect:none;fill:#ffffff;stroke-linecap:round;stroke-linejoin:round;stroke-miterlimit:0;enable-background:accumulate;stop-color:#000000;stop-opacity:1"
     d="m 1.8276566,5.8169822 c -0.035516,0.0011 -0.067779,0.020972 -0.08475,0.05219 l -0.93741,1.800923 c -0.0257624,0.048538 -0.007533,0.1087692 0.04082,0.134876 0.0490845,0.025447 0.10950377,0.00623 0.134875,-0.04289 l 0.937411,-1.798856 c 0.025762,-0.048538 0.00753,-0.1087692 -0.04082,-0.134876 -0.015434,-0.00809 -0.032715,-0.012013 -0.05013,-0.01137 z m 0.771013,0 c -0.035516,0.0011 -0.067779,0.020972 -0.08475,0.05219 l -0.271818,0.521932 h 0.224793 l 0.222725,-0.427881 c 0.025762,-0.048538 0.00753,-0.1087692 -0.04082,-0.134876 -0.015434,-0.00809 -0.032715,-0.012013 -0.05013,-0.01137 z m 0.814936,0 c -0.035516,0.0011 -0.067779,0.020972 -0.08475,0.05219 l -0.93741,1.800923 c -0.025448,0.049085 -0.00623,0.1095048 0.04289,0.134876 0.049085,0.025447 0.1095038,0.00623 0.134875,-0.04289 l 0.93741,-1.798856 c 0.025448,-0.049085 0.00623,-0.1095048 -0.04289,-0.134876 -0.015434,-0.00809 -0.032715,-0.012013 -0.05013,-0.01137 z m 0.771013,0 c -0.035516,0.0011 -0.067779,0.020972 -0.08475,0.05219 l -0.271818,0.521932 h 0.22686 l 0.222725,-0.427881 c 0.025448,-0.049085 0.00623,-0.1095048 -0.04289,-0.134876 -0.015434,-0.00809 -0.032715,-0.012013 -0.05013,-0.01137 z m 1.5880162,0 c -0.035516,0.0011 -0.067779,0.020972 -0.08475,0.05219 l -0.271818,0.521932 h 0.226859 l 0.222726,-0.427881 c 0.025448,-0.049085 0.00623,-0.1095048 -0.04289,-0.134876 -0.015434,-0.00809 -0.032715,-0.012013 -0.05013,-0.01137 z m 0.816488,0 c -0.035328,0.00129 -0.067352,0.021128 -0.08423,0.05219 l -0.93741,1.800923 c -0.025448,0.049085 -0.00623,0.1095048 0.04289,0.134876 0.048959,0.025098 0.1089967,0.00593 0.134359,-0.04289 l 0.937927,-1.798856 c 0.025448,-0.049085 0.00623,-0.1095048 -0.04289,-0.134876 -0.015585,-0.00818 -0.033053,-0.012103 -0.05064,-0.01137 z m 0.771012,0 c -0.035328,0.00129 -0.067352,0.021128 -0.08423,0.05219 l -0.271818,0.521932 h 0.226342 l 0.223243,-0.427881 c 0.025448,-0.049085 0.00623,-0.1095048 -0.04289,-0.134876 -0.015585,-0.00818 -0.033053,-0.012103 -0.05064,-0.01137 z m -5.2213852,0.773079 -0.179834,0.345199 h 0.224275 l 0.179834,-0.345199 z m 1.585948,0 -0.179834,0.345199 h 0.226343 l 0.179834,-0.345199 z m 1.5880172,0 -0.179834,0.345199 h 0.226343 l 0.179834,-0.345199 z m 1.588017,0 -0.179834,0.345199 h 0.225826 l 0.180351,-0.345199 z m -5.0451692,0.544153 -0.279053,0.535884 c -0.025762,0.048538 -0.00753,0.1087692 0.04082,0.134876 0.049085,0.025448 0.1095048,0.00623 0.134876,-0.04289 l 0.327112,-0.627868 z m 1.585948,0 -0.279051,0.535884 c -0.025448,0.049085 -0.00623,0.1095048 0.04289,0.134876 0.049085,0.025447 0.1095038,0.00623 0.134875,-0.04289 l 0.327111,-0.627868 z m 1.5880172,0 -0.2790529,0.535884 c -0.025448,0.049085 -0.00623,0.1095048 0.04289,0.134876 0.049084,0.025447 0.1095037,0.00623 0.1348749,-0.04289 l 0.327112,-0.627868 z m 1.588017,0 -0.279053,0.535884 c -0.025448,0.049085 -0.00623,0.1095048 0.04289,0.134876 0.048959,0.025097 0.1089957,0.00593 0.134358,-0.04289 l 0.327629,-0.627868 z" /><path
     style="baseline-shift:baseline;display:inline;overflow:visible;vector-effect:none;fill:#000000;fill-opacity:1;stroke-linecap:round;stroke-linejoin:round;stroke-miterlimit:0;enable-background:accumulate;stop-color:#000000"
     d="M 3.8318953,0.60195182 C 2.430909,0.60210412 1.292984,1.7400278 1.292833,3.1410144 1.293691,3.3685539 1.329363,3.5938131 1.390493,3.8128893 1.235307,4.0154114 1.125777,4.2535751 1.124868,4.510155 c 4e-6,0.1846121 0.04511,0.3667521 0.128906,0.53125 0.018589,0.03693 0.056315,0.06032 0.09766,0.060547 h 6.1132813 c 0.034404,2.085e-4 0.066925,-0.01569 0.087891,-0.042969 C 7.7583475,4.7868555 7.8709001,4.4548201 7.8709653,4.1136706 7.8709807,3.2491494 7.167127,2.5452959 6.3026059,2.5453112 c -0.012265,-1.04e-5 -0.024849,0.00168 -0.037109,0.00195 C 5.9854429,1.420914 5.0019389,0.60178102 3.8319032,0.60195182 Z"
     id="path97" /><path
     style="baseline-shift:baseline;display:inline;overflow:visible;vector-effect:none;fill:#ffffff;stroke-linecap:round;stroke-linejoin:round;stroke-miterlimit:0;enable-background:accumulate;stop-color:#000000"
     d="M 3.8318953,0.60195182 C 2.430909,0.60210412 1.292984,1.7400278 1.292833,3.1410144 1.293691,3.3685539 1.329363,3.5938131 1.390493,3.8128893 1.235307,4.0154114 1.125777,4.2535751 1.124868,4.510155 c 4e-6,0.1846121 0.04511,0.3667521 0.128906,0.53125 a 0.110011,0.110011 0 0 0 0.09766,0.060547 H 7.4647153 A 0.110011,0.110011 0 0 0 7.5526063,5.058983 C 7.7583475,4.7868555 7.8709001,4.4548201 7.8709653,4.1136706 7.8709807,3.2491494 7.167127,2.5452959 6.3026059,2.5453112 c -0.012265,-1.04e-5 -0.024849,0.00168 -0.037109,0.00195 C 5.9854429,1.420914 5.0019389,0.60178102 3.8319032,0.60195182 Z m 0,0.22070317 C 4.935836,0.82249379 5.8857348,1.5981982 6.1053324,2.6800769 a 0.110011,0.110011 0 0 0 0.1132813,0.087891 c 0.027682,-0.00169 0.056251,-0.00198 0.083984,-0.00195 0.7456215,-1.32e-5 1.3476695,0.6020346 1.3476562,1.3476562 -5.25e-5,0.2770294 -0.099287,0.5413444 -0.2578121,0.767575 H 1.435411 C 1.384761,4.7631391 1.345571,4.6391028 1.345571,4.5101554 1.346386,4.2801929 1.429961,4.059732 1.581899,3.8871085 A 0.110011,0.110011 0 0 0 1.605339,3.7835929 C 1.544279,3.5748721 1.512409,3.358481 1.511589,3.1410148 1.511727,1.8589082 2.549795,0.82279469 3.8319023,0.82265499 Z"
     id="path9" /><path
     id="rect97"
     style="fill:#ffffff;fill-opacity:1;stroke:#000000;stroke-width:0.2;stroke-linecap:round;stroke-linejoin:round;stroke-miterlimit:0;stroke-dasharray:none;stroke-opacity:1"
     d="m 3.4979576,3.0321356 -0.529167,2.590023 h 1.273307 L 4.0901696,7.738826 6.0962486,4.3271476 h -1.101742 l 0.264584,-1.295012 z" /></svg>
