<?xml version="1.0" encoding="UTF-8" standalone="no"?>
<!-- Created with Inkscape (http://www.inkscape.org/) -->

<svg
   width="8.9958334mm"
   height="8.9958334mm"
   viewBox="0 0 8.9958335 8.9958335"
   version="1.1"
   id="svg1"
   xml:space="preserve"
   xmlns="http://www.w3.org/2000/svg"
   xmlns:svg="http://www.w3.org/2000/svg"><defs
     id="defs1" /><rect
     style="fill:#000000;fill-opacity:1;stroke-width:0.76729;stroke-linecap:round;stroke-linejoin:round;stroke-miterlimit:0"
     id="rect2"
     width="8.9958334"
     height="8.9958334"
     x="-1.110223e-16"
     y="1.110223e-16" /><path
     style="fill:#ffffff;fill-opacity:1;stroke-width:0.330138"
     d="m 4.2931181,7.3042108 c 0.0074,-0.524902 -0.0245,-0.680192 -0.18657,-0.9074 l -0.195528,-0.274116 0.392237,-0.05882 c 0.215728,-0.03235 0.59852,-0.134135 0.850646,-0.226184 l 0.458406,-0.167363 -0.436743,0.05938 c -1.06473,0.144762 -1.863997,0.0133 -2.085229,-0.342987 -0.130612,-0.210344 -0.04541,-0.254556 0.299782,-0.155554 0.427043,0.122471 1.621329,0.104237 2.134842,-0.03258 0.519977,-0.138559 0.9759,-0.360002 1.242051,-0.60327 l 0.193863,-0.177195 0.09708,0.252925 c 0.280745,0.731417 -0.219403,1.351362 -1.441167,1.786368 -0.622356,0.221589 -0.156119,0.225805 0.553314,0.005 0.504748,-0.157097 0.525721,-0.157456 0.445564,-0.0077 -0.220093,0.41125 -1.828059,1.482774 -2.225099,1.482774 -0.07468,0 -0.103736,-0.188806 -0.09745,-0.633277 z m -1.004031,-2.425076 c -0.645007,-0.109104 -1.099266,-0.404197 -1.242064,-0.806856 -0.06649,-0.187486 -0.06758,-0.187479 0.298118,-0.0023 0.383303,0.194008 1.976551,0.260746 2.722312,0.114026 0.690034,-0.135756 1.572803,-0.555813 1.940223,-0.923234 0.274687,-0.274687 0.293192,-0.280587 0.338355,-0.107885 0.189977,0.726468 -0.964927,1.490238 -2.60721,1.72422 -0.68975,0.09827 -0.879583,0.09855 -1.449734,0.002 z m -0.540294,-1.055064 c -1.402837,-0.330329 -1.506094,-1.419701 -0.202724,-2.138797 1.613307,-0.89009404 4.213043,-0.81907804 4.696113,0.128282 0.397126,0.778811 -0.543367,1.626852 -2.187845,1.972777 -0.685479,0.144198 -1.777528,0.162071 -2.305544,0.03774 z m 2.746033,-0.862983 c 0.547603,-0.184953 1.209347,-0.618748 1.209347,-0.792763 0,-0.04331 -0.12775,-0.148166 -0.283885,-0.233008 -0.438964,-0.238528 -2.008158,-0.217168 -2.817002,0.03835 -1.189784,0.375852 -1.594338,0.873901 -0.917166,1.129128 0.483312,0.182163 2.089778,0.101114 2.808706,-0.141702 z m -2.494534,-0.08 c -0.125561,-0.04925 0.0134,-0.124597 0.567768,-0.307847 0.803255,-0.265526 2.200269,-0.405911 2.480226,-0.249241 0.133639,0.07479 0.08503,0.11543 -0.318768,0.266511 -0.871075,0.325908 -2.261698,0.473968 -2.729226,0.290577 z"
     id="path155" /></svg>
