<?xml version="1.0" encoding="UTF-8" standalone="no"?>
<svg
   width="127.99999"
   height="63.999996"
   viewBox="0 0 33.866664 16.933332"
   version="1.1"
   id="svg1"
   xml:space="preserve"
   xmlns="http://www.w3.org/2000/svg"
   xmlns:svg="http://www.w3.org/2000/svg"><defs
   id="defs1" /><rect
   style="fill:#000000;fill-opacity:1;stroke-width:0.264583;stroke-linecap:square"
   id="rect1"
   width="33.866665"
   height="16.933332"
   x="-4.432373e-07"
   y="-2.2161865e-07" /><path
   id="path1"
   style="fill:#3e3e3e;fill-opacity:1;stroke-width:0.0322948;stroke-linecap:square;stroke-linejoin:round;stroke-miterlimit:0"
   d="m 1.0583333,7.14375 v 8.466667 H 21.431333 V 7.14375 Z" /><path
   id="rect23"
   style="fill:#2e2e2e;fill-opacity:1;stroke-width:0.264583;stroke-linecap:square;stroke-linejoin:round;stroke-miterlimit:0"
   d="m 3.7403401,3.9775349 c -0.3407966,0 -0.6149495,0.2746698 -0.6149495,0.6154663 v 2.0365682 c 0,0.1703983 -0.1018878,0.3244425 0.0093,0.4356323 0.1111895,0.1111894 0.4352495,0.179834 0.6056478,0.179834 H 9.016502 c 0.1703982,0 0.4376142,0.1018877 0.5488037,-0.0093 0.11119,-0.1111895 0.066146,-0.4357662 0.066146,-0.6061645 v -2.03657 c 0,-0.3407965 -0.2741531,-0.6154663 -0.6149496,-0.6154663 z m 10.0541669,0 c -0.340797,0 -0.61495,0.2746698 -0.61495,0.6154663 v 2.0365682 c 0,0.1703983 -0.101888,0.3244425 0.0093,0.4356323 0.111189,0.1111894 0.435249,0.179834 0.605648,0.179834 h 5.276163 c 0.170398,0 0.437614,0.1018877 0.548804,-0.0093 0.11119,-0.1111895 0.06615,-0.4357662 0.06615,-0.6061645 v -2.03657 c 0,-0.3407965 -0.274153,-0.6154663 -0.61495,-0.6154663 z" />
     <path
   id="rect6"
   style="fill:#272727;fill-opacity:1;stroke-width:0.304559;stroke-linecap:square"
   d="m 16.080156,7.1468504 -5.589323,8.4640826 h 1.19786 l 5.589323,-8.4640826 z m 2.116667,0 -5.589323,8.4640826 h 0.529166 L 18.72599,7.1468504 Z" /><path
   id="rect2"
   style="fill:#ffffff;fill-opacity:1;stroke-width:0.0322948;stroke-linecap:square;stroke-linejoin:round;stroke-miterlimit:0"
   d="m 1.0583333,7.14375 v 8.466667 H 21.431333 V 7.14375 Z M 1.3229177,7.4083334 H 21.166749 V 15.345834 H 1.3229177 Z" /><rect
   style="fill:#ffffff;fill-opacity:1;stroke-width:0.0312642;stroke-linecap:square;stroke-linejoin:round;stroke-miterlimit:0"
   id="rect3"
   width="2.1166666"
   height="0.26458332"
   x="3.4395833"
   y="16.139584" /><rect
   style="fill:#ffffff;fill-opacity:1;stroke-width:0.0312642;stroke-linecap:square;stroke-linejoin:round;stroke-miterlimit:0"
   id="rect4"
   width="2.1166666"
   height="0.26458332"
   x="15.345834"
   y="16.139584" /><path
   id="rect5"
   style="fill:#ffffff;fill-opacity:1;stroke-width:0.0298347;stroke-linecap:square;stroke-linejoin:round;stroke-miterlimit:0"
   d="m 4.1144775,3.7041666 c -0.6671642,0 -1.2040609,0.5814801 -1.2040609,1.3037964 V 7.4083332 H 3.1749999 V 5.281848 c 0,-0.7274757 0.4957163,-1.3130981 1.1115601,-1.3130981 H 5.1397379 C 5.1287452,3.9225848 5.1232014,3.8741971 5.1232014,3.8245727 V 3.7041666 Z m 3.0576944,0 v 0.1204061 c 0,0.049624 -0.00606,0.098012 -0.017053,0.1441772 H 8.41344 c 0.6158437,0 1.11156,0.5856224 1.11156,1.3130981 V 7.4083332 H 9.7895831 V 5.007963 c 0,-0.7223163 -0.5368966,-1.3037964 -1.2040608,-1.3037964 z" /><path
   id="path9"
   style="fill:#ffffff;fill-opacity:1;stroke-width:0.0298347;stroke-linecap:square;stroke-linejoin:round;stroke-miterlimit:0"
   d="m 14.168644,3.7041666 c -0.667165,0 -1.204061,0.5814801 -1.204061,1.3037964 v 2.4003702 h 0.264583 V 5.281848 c 0,-0.7274757 0.495716,-1.3130981 1.11156,-1.3130981 h 0.8816 V 3.7041666 Z m 3.047876,0 v 0.2645833 h 1.251086 c 0.615844,0 1.11156,0.5856224 1.11156,1.3130981 V 7.4083332 H 19.84375 V 5.007963 c 0,-0.7223163 -0.536897,-1.3037964 -1.204061,-1.3037964 z" /><path
   id="path2"
   style="fill:#272727;fill-opacity:1;stroke-width:0.264583;stroke-linecap:square;stroke-linejoin:round;stroke-miterlimit:0"
   d="m 5.2916667,7.9375 c -1.7535041,0 -3.175,1.4214959 -3.175,3.175 0,1.753504 1.4214959,3.175 3.175,3.175 1.7535041,0 3.175,-1.421496 3.175,-3.175 0,-1.7535041 -1.4214959,-3.175 -3.175,-3.175 z" /><path
   id="path10"
   style="fill:#ffffff;fill-opacity:1;stroke-width:0.264583;stroke-linecap:square;stroke-linejoin:round;stroke-miterlimit:0"
   d="m 5.2916667,7.9375 a 3.175,3.175 0 0 0 -3.175,3.175 3.175,3.175 0 0 0 3.175,3.175 3.175,3.175 0 0 0 3.175,-3.175 3.175,3.175 0 0 0 -3.175,-3.175 z m 0,0.2645833 A 2.9104166,2.9104166 0 0 1 8.2020833,11.1125 2.9104166,2.9104166 0 0 1 5.2916667,14.022917 2.9104166,2.9104166 0 0 1 2.38125,11.1125 2.9104166,2.9104166 0 0 1 5.2916667,8.2020833 Z" /><path
   id="rect10"
   style="fill:#ffffff;fill-opacity:1;stroke-width:0.280521;stroke-linecap:square;stroke-linejoin:round;stroke-miterlimit:0"
   d="m 2.6458333,11.90625 c 0.4197961,1.116783 1.4562533,1.85199 2.6106934,1.852083 1.1544402,-9.4e-5 2.1903805,-0.7353 2.6101766,-1.852083 H 5.917985 A 0.66145831,0.66145831 0 0 1 5.2565267,12.559957 0.66145831,0.66145831 0 0 1 4.5950684,11.90625 Z" /><path
   id="progress-arc"
   transform="rotate({{progress-arc}}, 5.1224208, 11.95426)"
   style="fill:#ff9393;fill-opacity:1"
   d="M 2.6786161,10.560615 4.6144815,11.80851 A 0.52916664,0.52916664 0 0 0 4.829887,12.41955 0.52916664,0.52916664 0 0 0 5.5613583,12.261488 0.52916664,0.52916664 0 0 0 5.4032969,11.530017 0.52916664,0.52916664 0 0 0 4.757834,11.586126 L 2.8219686,10.338232 Z" />     
<rect
   style="fill:#ffffff;fill-opacity:1;stroke-width:0.264583;stroke-linecap:square;stroke-linejoin:round;stroke-miterlimit:0"
   id="rect14"
   width="2.6458333"
   height="1.5875"
   x="17.4625"
   y="12.7" /><circle
   style="fill:#000000;fill-opacity:1;stroke-width:0.264583;stroke-linecap:square;stroke-linejoin:round;stroke-miterlimit:0"
   id="path14"
   cx="18.25625"
   cy="13.49375"
   r="0.26458332" /><path
   id="path15"
   style="fill:#ffffff;fill-opacity:1;stroke-width:0.264583;stroke-linecap:square;stroke-linejoin:round;stroke-miterlimit:0"
   d="m 15.478124,12.964583 a 0.66145813,0.66145831 0 0 0 -0.661458,0.661458 0.66145813,0.66145831 0 0 0 0.661458,0.661458 0.66145813,0.66145831 0 0 0 0.661459,-0.661458 0.66145813,0.66145831 0 0 0 -0.661459,-0.661458 z m 0,0.132292 a 0.5291665,0.52916664 0 0 1 0.529167,0.529166 0.5291665,0.52916664 0 0 1 -0.529167,0.529167 0.5291665,0.52916664 0 0 1 -0.529166,-0.529167 0.5291665,0.52916664 0 0 1 0.529166,-0.529166 z" /><path
   id="rect15"
   style="fill:#4bcdff;fill-opacity:1;stroke-width:0.0248026;stroke-linecap:square;stroke-linejoin:round;stroke-miterlimit:0"
   d="M 5.9531249,0.26458333 V 0.76636148 H 5.6420328 c -0.3407691,0 -0.6149496,0.27418042 -0.6149496,0.61494952 v 5.1201008 c 0,0.3407691 0.2741805,0.6149496 0.6149496,0.6149496 h 1.1513509 c 0.3407691,0 0.6149495,-0.2741805 0.6149495,-0.6149496 V 1.381311 c 0,-0.3407691 -0.2741804,-0.61494952 -0.6149495,-0.61494952 H 6.4822915 V 0.26458333 Z M 5.9066161,1.0309448 h 0.6221842 c 0.3407966,0 0.6149496,0.274153 0.6149496,0.6149495 v 4.5909342 c 0,0.3407965 -0.274153,0.6149495 -0.6149496,0.6149495 H 5.9066161 c -0.3407966,0 -0.6149495,-0.274153 -0.6149495,-0.6149495 V 1.6458943 c 0,-0.3407965 0.2741529,-0.6149495 0.6149495,-0.6149495 z" /><rect
   style="fill:#c7ffb8;fill-opacity:{{ripple-even}};stroke-width:0.264583;stroke-linecap:square;stroke-linejoin:round;stroke-miterlimit:0"
   id="ripple-01-even"
   width="0.26458332"
   height="5.2916665"
   x="5.5562501"
   y="1.3229166"
   rx="2.3213441" /><rect
   style="fill:#c7ffb8;fill-opacity:{{ripple-odd}};stroke-width:0.264583;stroke-linecap:square;stroke-linejoin:round;stroke-miterlimit:0"
   id="ripple-01-odd"
   width="0.26458332"
   height="5.2916665"
   x="6.0854168"
   y="1.3229166"
   rx="0.61515623" />
     <rect
   style="fill:#c7ffb8;fill-opacity:{{blink-even}};stroke-width:0.264583;stroke-linecap:square;stroke-linejoin:round;stroke-miterlimit:0"
   id="blink-01"
   width="0.26458332"
   height="5.2916665"
   x="6.6145835"
   y="1.3229166"
   rx="0.61515623" /><path
   id="path19"
   style="fill:#4bcdff;fill-opacity:1;stroke-width:0.0248026;stroke-linecap:square;stroke-linejoin:round;stroke-miterlimit:0"
   d="m 16.007295,0.26458333 v 0.50177815 h -0.311092 c -0.340769,0 -0.61495,0.27418042 -0.61495,0.61494952 v 5.1201008 c 0,0.3407691 0.274181,0.6149496 0.61495,0.6149496 h 1.151352 c 0.340769,0 0.61495,-0.2741805 0.61495,-0.6149496 V 1.381311 c 0,-0.3407691 -0.274181,-0.61494952 -0.61495,-0.61494952 H 16.536462 V 0.26458333 Z m -0.04651,0.76636147 h 0.622184 c 0.340797,0 0.61495,0.274153 0.61495,0.6149495 v 4.5909342 c 0,0.3407965 -0.274153,0.6149495 -0.61495,0.6149495 h -0.622184 c -0.340797,0 -0.61495,-0.274153 -0.61495,-0.6149495 V 1.6458943 c 0,-0.3407965 0.274153,-0.6149495 0.61495,-0.6149495 z" /><rect
   style="fill:#c7ffb8;fill-opacity:{{ripple-odd}};stroke-width:0.264583;stroke-linecap:square;stroke-linejoin:round;stroke-miterlimit:0"
   id="ripple-02-odd"
   width="0.26458332"
   height="5.2916665"
   x="15.610411"
   y="1.3229166"
   rx="0.61515623" /><rect
   style="fill:#c7ffb8;fill-opacity:{{blink-odd}};stroke-width:0.264583;stroke-linecap:square;stroke-linejoin:round;stroke-miterlimit:0"
   id="blink-02"
   width="0.26458332"
   height="5.2916665"
   x="16.139578"
   y="1.3229166"
   rx="0.61515623" /><rect
   style="fill:#c7ffb8;fill-opacity:{{ripple-even}};stroke-width:0.264583;stroke-linecap:square;stroke-linejoin:round;stroke-miterlimit:0"
   id="ripple-02-even"
   width="0.26458332"
   height="5.2916665"
   x="16.668745"
   y="1.3229166"
   rx="0.61515623" /><circle
   style="fill:#ffff00;fill-opacity:1;stroke-width:0.264583;stroke-linecap:square;stroke-linejoin:round;stroke-miterlimit:0"
   id="level-01-onoff"
   cx="10.847917"
   cy="13.758333"
   r="0.26458332" /><circle
   style="fill:#ffff00;fill-opacity:1;stroke-width:0.264583;stroke-linecap:square;stroke-linejoin:round;stroke-miterlimit:0"
   id="level-02-onoff"
   cx="11.641666"
   cy="13.758333"
   r="0.26458332" /><circle
   style="fill:#ffff00;fill-opacity:1;stroke-width:0.264583;stroke-linecap:square;stroke-linejoin:round;stroke-miterlimit:0"
   id="level-03-onoff"
   cx="12.435416"
   cy="13.758333"
   r="0.26458332" /><circle
   style="fill:#000000;fill-opacity:1;stroke-width:0.2;stroke-linecap:square;stroke-linejoin:round;stroke-miterlimit:0;paint-order:markers stroke fill"
   id="center-arc"
   cx="5.1224208"
   cy="11.95426"
   r="0.26458332" />
  </svg>
