<?xml version="1.0" encoding="UTF-8" standalone="no"?>
<!-- Created with Inkscape (http://www.inkscape.org/) -->

<svg
   version="1.1"
   id="svg1"
   width="128"
   height="64"
   viewBox="0 0 128 64"
   xml:space="preserve"
   xmlns="http://www.w3.org/2000/svg"
   xmlns:svg="http://www.w3.org/2000/svg"><defs
     id="defs1" /><g
     id="g1"
     transform="translate(5.3738399,11.907018)"><rect
       style="fill:#ff0000;stroke:none;stroke-width:0.8;stroke-linecap:square;stroke-linejoin:round;stroke-miterlimit:0"
       id="rect1"
       width="128"
       height="64"
       x="-5.3738399"
       y="-11.907018" /><path
       id="rect77"
       style="fill:#ffffff;fill-opacity:1;stroke-width:0.6;stroke-linecap:square;stroke-linejoin:round;stroke-miterlimit:0"
       d="m -3.3738399,-7.907018 v 1 h -1 v 53 h 1 v 1 H 76.62616 v -1 h 1 v -53 h -1 v -1 z m 1,1 H 75.62616 v 1 h 1 v 50 h -1 v 1 H -2.3738399 v -1 h -1 v -50 h 1 z" /><path
       id="rect78"
       style="fill:#ffffff;fill-opacity:1;stroke-width:0.6;stroke-linecap:square;stroke-linejoin:round;stroke-miterlimit:0"
       d="m 4.6261601,47.092982 v 1 2 h 1 v 1 h 3 v -1 h -1 v -2 h -2 v -1 z m 4,3 h 1 v -3 h -1 z" /><path
       id="path80"
       style="fill:#ffffff;fill-opacity:1;stroke-width:0.6;stroke-linecap:square;stroke-linejoin:round;stroke-miterlimit:0"
       d="m 62.62616,47.092982 v 1 2 h 1 v 1 h 3 v -1 h -1 v -2 h -2 v -1 z m 4,3 h 1 v -3 h -1 z" /><path
       id="rect81"
       style="fill:#ffffff;fill-opacity:1;stroke-width:0.6;stroke-linecap:square;stroke-linejoin:round;stroke-miterlimit:0"
       d="m 58.62616,-5.907018 v 1 h 1 v -1 z m 1,1 v 1 h 1 v -1 z m 1,0 h 1 v -1 h -1 z m 1,0 v 1 h 1 v -1 z m 1,0 h 1 v -1 h -1 z m 1,0 v 1 h 1 v -1 z m 1,0 h 1 v -1 h -1 z m 1,0 v 1 h 1 v -1 z m 1,0 h 1 v -1 h -1 z m 1,0 v 1 h 1 v -1 z m 1,0 h 1 v -1 h -1 z m 1,0 v 1 h -1 v 1 h 1 l 1,1 v 1 h 1 v -1 h 1 v 1 h 1 v -1 h 1 v -1 h 1 v -1 h -1 v -1 -1 h -4 v 1 h 3 v 2 h -3 v -2 z m 5,3 v 1 h 1 v -1 z m 0,1 h -1 v 1 h 1 z m 0,1 v 1 h 1 v -1 z m 0,1 h -1 v 1 h 1 z m 0,1 v 1 h 1 v -1 z m 0,1 h -1 v 1 h 1 z m 0,1 v 1 h 1 v -1 z m 0,1 h -1 v 1 h 1 z m 0,1 v 1 h 1 v -1 z m 0,1 h -1 v 1 h 1 z m 0,1 v 1 h 1 v -1 z m 0,1 h -1 v 1 h 1 z m 0,1 v 1 h 1 v -1 z m 0,1 h -1 v 1 h 1 z m 0,1 v 1 h 1 v -1 z m 0,1 h -1 v 1 h 1 z m 0,1 v 1 h 1 v -1 z m 0,1 h -1 v 1 h 1 z m 0,1 v 1 h 1 v -1 z m 0,1 h -1 v 1 h -1 v -1 h -1 v 1 h -1 v -1 h -1 v 1 h -1 v -1 h -1 v 1 h -1 v -1 h -0.002 -0.998047 v 1 h -1 v -1 h -1 v 1 h -1 v -1 h -1 v 1 h -1 v -1 h -1 v 1 h -1 v 1 3 1 h 1 v 1 h 1 v -1 h 1 v 1 h 1 v -1 h 1 v 1 h 1 v -1 h 2 1 v 1 h 1 v -1 h 1 v 1 h 1 v -1 h 1 v 1 h 1 v -1 h 1 v 1 h 1 v -1 h 1 v -1 h -1 v -1 h 1 v -1 h -1 v -1 h 1 v -1 h -1 z m 0,7 v 1 h 1 v -1 z m 0,1 h -1 v 1 h 1 z m 0,1 v 1 h 1 v -1 z m 0,1 h -1 v 1 h 1 z m 0,1 v 1 h 1 v -1 z m 0,1 h -1 v 1 h 1 z m 0,1 v 1 h 1 v -1 z m 0,1 h -1 v 1 h 1 z m 0,1 v 1 h 1 v -1 z m 0,1 h -1 v 1 h 1 z m 0,1 v 1 h 1 v -1 z m 0,1 h -1 v 1 h 1 z m 0,1 v 1 h 1 v -1 z m 0,1 h -1 v 1 h 1 z m 0,1 v 1 h 1 v -1 z m 0,1 h -1 v 1 h 1 z m 0,1 v 1 h 1 v -1 z m 0,1 h -1 v 1 h 1 z m 0,1 v 1 h 1 v -1 z m 0,1 h -1 v 1 h 1 z m -1,0 v -1 h -1 v 1 z m -1,0 h -1 v 1 h 1 z m -1,0 v -1 h -1 v 1 z m -1,0 h -1 v 1 h 1 z m -1,0 v -1 h -1 v 1 z m -1,0 h -1 v 1 h 1 z m -1,0 v -1 h -1 v 1 z m -1,0 h -1 v 1 h 1 z m -1,0 v -1 h 1 v -1 h -1 -2 v 1 h 1 c 0.795035,-0.898705 0.935942,-0.06221 0.996094,-0.002 h 0.002 v 0.002 H 64.62616 v 1 z m -1,0 h -1 v 1 h 1 z m -1,0 v -1 h -1 v 1 z m -1,0 h -1 v 1 h 1 z m -1,0 v -1 h -1 v 1 z m -1,0 h -1 v 1 h 1 z m -1,0 v -1 h -1 v 1 z m 0,-1 h 1 v -1 h -1 z m 0,-1 v -1 h -1 v 1 z m 0,-1 h 1 v -1 h -1 z m 0,-1 v -1 h -1 v 1 z m 0,-1 h 1 v -1 h -1 z m 0,-1 v -1 h -1 v 1 z m 0,-1 h 1 v -1 h -1 z m 0,-1 v -1 h -1 v 1 z m 0,-1 h 1 v -1 h -1 z m 0,-1 v -1 h -1 v 1 z m 0,-1 h 1 v -1 h -1 z m 0,-1 v -1 h -1 v 1 z m 0,-1 h 1 v -1 h -1 z m 0,-1 v -1 h -1 v 1 z m 0,-1 h 1 v -1 h -1 z m 0,-1 v -1 h -1 v 1 z m 0,-1 h 1 v -1 h -1 z m 0,-1 v -1 h -1 v 1 z m 1,0 h 1 v -1 h -1 z m 1,0 v 1 h 1 v -1 z m 1,0 h 1 v -1 h -1 z m -1,1 h -1 v 1 h 1 z m -1,2 v 1 h 1 v -1 z m 0,8 v 1 h 1 v -1 z m 0,2 v 1 h 1 v 1 h 1 v -1 -1 h -1 z m 2,2 v 1 h 1 v -1 z m 0,1 h -1 v 1 h 1 z m -1,0 v -1 h -1 v 1 z m 6,1 h 1 v -1 h -1 z m 1,-1 h 1 v -1 h -1 z m 0,-1 v -1 h -1 -1 -1 v 1 h 1 1 z m -3,-1 v -1 h -1 v 1 z m -1,-1 v -1 h -1 v 1 z m 0,-1 h 1 v -1 h -1 z m 0,-1 v -1 h -1 -1 v 1 h 1 z m -2,-1 v -1 h -1 v 1 z m 0,-1 h 1 1 v -1 h -1 -1 z m 0,-1 v -1 h -1 v 1 z m 0,-1 h 1 1 v -1 h -1 -1 z m 0,-1 v -1 h -1 v 1 z m 0,-1 h 1 1 v -1 h -1 -1 z m 2,-1 h 1 v -1 h -1 z m 0,-1 v -1 h -1 -1 v 1 h 1 z m 0,-1 h 1 v -1 h -1 z m 1,-1 h 1 1 1 v -1 h -1 v -1 h -1 v 1 h -1 z m 3,-1 h 1 v -1 h -1 z m 1,0 v 1 h 1 v -1 z m 1,0 h 1 v -1 h -1 z m 1,0 v 1 h 1 v -1 z m 1,0 h 1 v -1 h -1 z m 0,1 v 1 h 1 v -1 z m 0,1 h -1 v -1 h -1 v 1 h -1 v 1 h 1 1 1 z m 0,1 v 1 h 1 v -1 z m -3,0 h -1 v 1 h 1 z m 0,1 v 1 h 1 1 v -1 h -1 z m 0,1 h -1 v 1 h 1 z m 0,1 v 1 h 1 1 v -1 h -1 z m 0,1 h -1 v 1 h 1 z m 0,1 v 1 h 1 1 v -1 h -1 z m 0,1 h -1 v 1 h 1 z m 0,1 v 1 h 1 v 1 h 1 v -1 h 1 v -1 h -1 -1 z m 3,0 h 1 v -1 h -1 z m 0,1 v 1 h 1 v -1 z m 0,1 h -1 v 1 h 1 z m 0,1 v 1 h 1 v -1 z m 0,1 h -1 v 1 h 1 z m 0,1 v 1 h 1 v -1 z m 0,1 h -1 v 1 h 1 z m -1,0 v -1 h -1 v 1 z m -1,0 h -1 v 1 h 1 z m 0,-1 v -1 h -1 v 1 z m -1,-1 v -1 h -1 v 1 z m -1,-1 v -1 h -1 -2 v 1 h 2 z m 0,-1 h 1 v -1 h -1 z m 0,-1 v -1 h -1 -2 v 1 h 2 z m -3,-1 v -1 h -1 v 1 z m 0,-1 h 2 1 v -1 h -1 -2 z m 0,-1 v -1 h -1 v 1 z m 0,-1 h 2 1 v -1 h -1 -2 z m 0,-1 v -1 h -1 v 1 z m 0,-1 h 2 1 v -1 h -1 -2 z m 4,7 v 1 h 1 v -1 z m 1,1 v 1 h 1 v -1 z m -2,-10 v -1 h -1 -2 v 1 h 2 z m 0,-1 h 1 v -1 h -1 z m 5,6 v -1 h -1 v 1 z m 0,-2 v -1 h -1 v 1 z m -14,-14 v -1 h -1 v 1 z m 0,-1 h 1 v -1 h -1 z m 0,-1 v -1 h -1 v 1 z m 0,-1 h 1 v -1 h -1 z m 0,-1 v -1 h -1 v 1 z m 0,-1 h 1 v -1 h -1 z m 0,-1 v -1 h -1 v 1 z m 0,-1 h 1 v -1 h -1 z m 0,-1 v -1 h -1 v 1 z m 0,-1 h 1 v -1 h -1 z m 0,-1 v -1 h -1 v 1 z m 0,-1 h 1 v -1 h -1 z m 0,-1 v -1 h -1 v 1 z m 0,-1 h 1 v -1 h -1 z m 0,-1 v -1 h -1 v 1 z m 0,-1 h 1 v -1 h -1 z m 0,-1 v -1 h -1 v 1 z m 0,-1 h 1 v -1 h -1 z m 0,-1 v -1 h -1 v 1 z m 0,-1 h 1 v -1 h -1 z m 0,-1 v -1 h -1 v 1 z m 1,0 h 1 v -1 h -1 z m 1,0 v 1 h 1 v -1 z m 1,0 h 1 v -1 h -1 z m 1,0 v 1 h 1 v -1 z m 1,0 h 1 v -1 h -1 z m -1,1 h -1 v 1 h 1 z m -1,1 h -1 v 1 h 1 z m -1,1 h -1 v 1 h 1 z m 0,1 v 1 h 1 v -1 z m 0,1 h -1 v 1 h 1 z m 0,1 v 1 h 1 v -1 z m 1,1 v 1 h 1 v -1 z m 1,0 h 1 l -1,-1 z m 1,0 v 1 h 1 z m 1,1 v 1 h 1 v -1 z m 1,1 v 1 h 1 v -1 z m 1,0 h 1 v -1 h -1 z m 1,-1 h 1 v -1 z m 1,-1 h 1 v -1 h -1 z m 1,-1 h 1 v -1 h -1 z m 1,-1 h 1 v -1 h -1 z m 1,-1 h 1 v -1 h -1 z m 0,-1 v -1 h -1 v 1 z m 0,2 v 1 h 1 v -1 z m 0,1 h -1 v 1 h 1 z m 0,1 v 1 h 1 v -1 z m 0,1 h -1 v 1 h 1 z m 0,1 v 1 h 1 v -1 z m 0,1 h -1 v 1 h 1 z m 0,1 v 1 h 1 v -1 z m 0,1 h -1 v 1 h 1 z m 0,1 v 1 h 1 v -1 z m 0,1 h -1 v 1 h 1 z m 0,1 v 1 h 1 v -1 z m 0,1 h -1 v 1 h 1 z m 0,1 v 1 h 1 v -1 z m 0,1 h -1 v 1 h 1 z m 0,1 v 1 h 1 v -1 z m -1,0 h -1 v 1 h 1 z m -1,0 v -1 h -0.535156 c -0.13306,0.230419 -0.28878,0.446986 -0.464844,0.646484 v 0.353516 z m -1,0 h -0.353516 c -0.199498,0.176064 -0.416065,0.331784 -0.646484,0.464844 v 0.535156 h 1 z m 1,-1 h 1 v -1 z m 1,-4 v -1 h -1 v 1 z m -1,0 h -0.535156 c 0.180653,0.313345 0.535156,0 0.535156,0 z m 0,-1 v -1 h -1 v 1 z m -1,0 h -0.353516 c 0.125095,0.110352 0.243164,0.228421 0.353516,0.353516 z m 0,-1 v -1 h -1 v 1 z m -1,0 h -1 v 0.1269531 c 0.350256,0.09023 0.686655,0.2275498 1,0.4082031 z m -1,0 v -1 h -1 v 1 z m -1,0 h -1 v 0.1269531 c 0.326646,-0.084318 0.662647,-0.1269739 1,-0.1269531 z m -1,0 v -1 h -1 v 1 z m -1,0 h -1 v 1 h 0.353516 C 64.179174,9.9169178 64.395741,9.7611985 64.62616,9.6281382 Z m -1,1 h -1 v 1 h 0.535156 c 0.13306,-0.230419 0.28878,-0.446986 0.464844,-0.646484 z m -1,1 h -1 v 1 h 1 z m 0,1 v 0.998047 c 1.44e-4,-0.3367 0.0428,-0.672034 0.126953,-0.998047 z m -1,0 h -1 v 1 h 1 z m 0,1 v 1 h 1 v -0.998047 -0.002 z m 1,1 v 1 h 0.535156 c -0.180653,-0.313345 -0.317973,-0.649744 -0.408203,-1 z m 0,1 h -1 v 1 h 1 z m 0,1 v 1 h 1 v -1 z m 1,0 h 0.353516 C 63.854581,15.98263 63.736512,15.864561 63.62616,15.739466 Z m -2,0 h -1 v 1 h 1 z m 0,-1 v -1 h -1 v 1 z m 0,-4 v -1 h -1 v 1 z m 0,-1 h 1 v -1 h -1 z m 0,-1 v -1 h -1 v 1 z m 0,-1 h 1 v -1 h -1 z m 0,-1 v -1 h -1 v 1 z m 0,-1 h 1 v -1 h -1 z m 0,-1 v -1 h -1 v 1 z m 1,1 v 1 h 1 v -1 z m 1,0 h 1 v -1 h -1 z m 1,0 v 1 h 1 v -1 z m 1,1 v 1 h 1 v -1 z m -1,0 h -1 v 1 h 1 z m -1,1 h -1 v 1 h 1 z m 4,0 h 1 v -1 h -1 z m 1,-1 h 1 v -1 h -1 z m 1,-1 h 1 v -1 h -1 z m 1,-1 h 1 v -1 h -1 z m 0,1 v 1 h 1 v -1 z m 0,1 h -1 v 1 h 1 z m 0,1 v 1 h 1 v -1 z m -9,-9 v -1 h -1 v 1 z m 3,18 h 1 v -0.126953 c -0.350256,-0.09023 -0.686655,-0.22755 -1,-0.408203 z m 3,0 v -0.126953 c -0.326013,0.08415 -0.661347,0.126809 -0.998047,0.126953 z m 1,-20 h -1 c -0.131872,1.4441063 0.247332,0.7526675 1,0 z m -1,0 v -1 h -1 v 1 z m -8,22 h 4 v 3 h -4 z m 5,0 h 4 v 3 h -4 z m 5,0 h 4 v 3 h -4 z m -9,1 v 1 h 2 v -1 z m 5,0 v 1 h 2 v -1 z m 5,0 v 1 h 2 v -1 z" /><path
       id="circle196"
       style="fill:#ffffff;fill-opacity:1;stroke-width:0.6;stroke-linecap:square;stroke-linejoin:round;stroke-miterlimit:0"
       d="m 66.62616,10.092982 a 3,3 0 0 0 -3,3 3,3 0 0 0 0.363281,1.429687 l 3.904297,-3.904296 0.707031,0.707031 -3.990234,3.990234 a 3,3 0 0 0 2.015625,0.777344 3,3 0 0 0 3,-3 3,3 0 0 0 -3,-3 z" /><path
       id="path194"
       style="fill:#ffffff;fill-opacity:1;stroke-width:0.6;stroke-linecap:square;stroke-linejoin:round;stroke-miterlimit:0"
       d="m 66.62616,9.092982 a 4,4 0 0 0 -4,4 4,4 0 0 0 4,4 4,4 0 0 0 4,-4 4,4 0 0 0 -4,-4 z m 0,0.5 a 3.5,3.5 0 0 1 3.5,3.5 3.5,3.5 0 0 1 -3.5,3.5 3.5,3.5 0 0 1 -3.5,-3.5 3.5,3.5 0 0 1 3.5,-3.5 z" /><path
       id="path196"
       style="fill:#ffffff;fill-opacity:1;stroke-width:0.6;stroke-linecap:square;stroke-linejoin:round;stroke-miterlimit:0"
       d="m 66.62616,-1.907018 a 3,3 0 0 0 -2.015625,0.7773437 l 1.222656,1.2226563 h 0.585938 l 1.474609,-1.4746094 0.707031,0.70703127 L 66.833191,1.092982 H 66.62616 v 3 a 3,3 0 0 0 3,-3 3,3 0 0 0 -3,-3 z m -2.636719,1.5703125 a 3,3 0 0 0 -0.363281,1.4296875 3,3 0 0 0 2,2.828125 V 1.092982 h -0.207031 z" /><path
       id="path195"
       style="fill:#ffffff;fill-opacity:1;stroke-width:0.6;stroke-linecap:square;stroke-linejoin:round;stroke-miterlimit:0"
       d="m 66.62616,-2.907018 a 4,4 0 0 0 -4,4 4,4 0 0 0 4,4 4,4 0 0 0 4,-4 4,4 0 0 0 -4,-4 z m 0,0.5 a 3.5,3.5 0 0 1 3.5,3.5 3.5,3.5 0 0 1 -3.5,3.5 3.5,3.5 0 0 1 -3.5,-3.5 3.5,3.5 0 0 1 3.5,-3.5 z" /><rect
       style="fill:#ffffff;fill-opacity:1;stroke-width:0.6;stroke-linecap:square;stroke-linejoin:round;stroke-miterlimit:0"
       id="rect204"
       width="1"
       height="1"
       x="49.827499"
       y="12.925197" /><path
       id="rect227"
       style="fill:#ffffff;fill-opacity:1;stroke-width:0.6;stroke-linecap:square;stroke-linejoin:round;stroke-miterlimit:0"
       d="m -1.3738399,-5.907018 v 1 h 1 v 1 h -1 v -1 h -1 v 48 h 1 v -1 h 1 v 1 h -1 v 1 H 57.62616 v -1 -48 -1 z m 2,1 h 1 v 1 h -1 z m 17.9999999,0 h 1 v 1 h 1 v -1 h 1 v 1 h 1 v -1 h 1 v 1 h 1 v -1 h 6 v 1 h 1 v -1 h 1 v 1 h 1 v -1 h 1 v 1 h 1 1 v -1 h 1 v 1 h 1 10 v 1 h 5 v 1 h 1 v 6 h 1 v 1 h -1 v 1 h 1 v 1 h -1 v 1 h 1 v 1 h -1 v 1 h 1 v 1 h -1 v 1 h 1 v 14 h -1 v 1 h 1 v 1 h -1 v 1 h 1 v 1 h -1 v 1 h 1 v 1 h -1 v 1 h 1 v 1 h -1 v 6 h -1 v 1 h -1 v 1 h -12 v 1 h -1 v -1 h -1 v 1 h -1 v -1 h -1 v 1 h -1 v -1 h -1 v 1 h -15 v -1 h -1 v 1 h -1 v -1 h -1 v 1 h -1 v -1 h -1 v 1 h -1 v -1 H 2.6261601 v -1 h -1 v -1 h -1 v -6 h -1 v -1 h 1 v -1 h -1 v -1 h 1 v -1 h -1 v -1 h 1 v -1 h -1 v -1 h 1 v -1 h -1 v -14 h 1 v -1 h -1 v -1 h 1 v -1 h -1 v -1 h 1 v -1 h -1 v -1 h 1 v -1 h -1 v -1 h 1 v -6 h 1 v -1 h 6 v -1 H 18.62616 Z m 35.044922,0 h 0.955078 v 1 h -0.955078 z m 1.955078,0 h 1 v 1 h -1 z m -56.9999999,2 h 1 v 1 h -1 z m 56.9999999,0 h 1 v 1 h -1 z m -52.9999999,1 v 1 h 1 v -1 z m 2,1 v 1 h 1 v -1 z m -2,1 v 1 h 1 v -1 z m 2,1 v 1 h 1 v -1 z m -2,1 v 1 h 1 v -1 z m 0,2 v 1 h 1 v -1 z m 49.9999999,12 v 1 h 1 v -1 z m 0,4 v 1 h 1 v -1 z m 0,3 v 1 h 1 v -1 z m 0,3 v 1 h 1 v -1 z m 0,1 h -1 v 1 h 1 z m 0,1 v 1 h 1 v -1 z m 0,1 h -1 v 1 h 1 z m 0,1 v 1 h 1 v -1 z m 0,1 h -1 v 1 h 1 z m 0,1 v 1 h 1 v -1 z m 0,1 h -1 v 1 h 1 z m -1,1 h -1 v 1 h 1 z m 0,1 v 1 h 1 v -1 z m 0,1 h -1 v 1 h 1 z m 0,1 v 1 h 1 v -1 z m 0,1 h -1 v 1 h 1 z m -1,1 h -1 v 1 h 1 z m -1,0 v -1 h -1 v 1 z m -1,0 h -1 v 1 h 1 z m -1,0 v -1 h -1 v 1 z m -1,0 h -1 v 1 h 1 z m -1,0 v -1 h -1 v 1 z m -1,0 h -1 v 1 h 1 z m -1,0 v -1 h -1 v 1 z m -1,0 h -1 v 1 h 1 z m -1,0 v -1 h -1 v 1 z m 6,-1 h 1 v -1 h -1 z m 0,-1 v -1 h -1 v 1 z m 1,0 h 1 v -1 h -1 z m 1,-1 h 1 v -1 h -1 z m 0,-1 v -1 h -1 v 1 z m 0,2 v 1 h 1 v -1 z m 2,-4 v -1 h -1 v 1 z m -18,6 v 1 h 1 1 v -1 h -1 z m 3,0 v 1 h 1 v -1 z m 2,0 v 1 h 1 v -1 z m -39.9999999,1 h 1 v 1 h -1 z m 56.9999999,0 h 1 v 1 h -1 z m -54.9999999,2 h 1 v 1 h -1 z m 52.9999999,0 h 1 v 1 h -1 z m 2,0 h 1 v 1 h -1 z" /></g></svg>
