<?xml version="1.0" encoding="UTF-8" standalone="no"?>
<!-- Created with Inkscape (http://www.inkscape.org/) -->

<svg
   version="1.1"
   id="svg1"
   width="128"
   height="64"
   viewBox="0 0 128 64"
   xmlns="http://www.w3.org/2000/svg"
   xmlns:svg="http://www.w3.org/2000/svg">
  <defs
     id="defs1" />
  <g
     id="g1"
     transform="translate(0.29573944,64.323311)">
    <rect
       style="fill:#ff0000;fill-opacity:1;stroke:none;stroke-linecap:round;stroke-linejoin:round;stroke-miterlimit:0"
       id="rect1"
       width="128"
       height="64"
       x="-0.29573944"
       y="-64.323311" />
    <path
       id="rect2"
       style="fill:#ffffff;fill-opacity:1;stroke:none;stroke-linecap:round;stroke-linejoin:round;stroke-miterlimit:0"
       d="m 5.7042609,-35.323311 v 28 H 121.70426 v -28 z m 2,2 H 119.70426 v 24 H 7.7042609 Z" />
    <path
       id="path3"
       style="baseline-shift:baseline;display:inline;overflow:visible;vector-effect:none;fill:#ffffff;stroke-linecap:round;stroke-linejoin:round;stroke-miterlimit:0;enable-background:accumulate;stop-color:#000000"
       d="m 16.704261,-31.323311 c -3.854149,0 -7.0000001,3.145852 -7.0000001,7 0,3.854149 3.1458511,7 7.0000001,7 3.854148,0 7,-3.145851 7,-7 0,-3.854148 -3.145852,-7 -7,-7 z m 0,2 c 2.773268,0 5,2.226732 5,5 1e-6,2.773269 -2.226732,5 -5,5 -2.773269,0 -5,-2.226731 -5,-5 0,-2.773268 2.226731,-5 5,-5 z m -6.5,13.628906 a 0.50005,0.50005 0 0 0 -0.5000001,0.5 v 3 a 0.50005,0.50005 0 0 0 0.5000001,0.5 h 13 a 0.50005,0.50005 0 0 0 0.5,-0.5 v -3 a 0.50005,0.50005 0 0 0 -0.5,-0.5 z m 0.5,1 h 12 v 2 h -12 z" />
    <rect
       style="fill:none;fill-opacity:1;stroke:#ffffff;stroke-width:1;stroke-linecap:round;stroke-linejoin:round;stroke-miterlimit:0;stroke-dasharray:none;stroke-opacity:1"
       id="rect4"
       width="62"
       height="9"
       x="33.204262"
       y="-30.823311" />
    <rect
       style="fill:none;fill-opacity:1;stroke:#ffffff;stroke-width:1;stroke-linecap:round;stroke-linejoin:round;stroke-miterlimit:0;stroke-dasharray:none;stroke-opacity:1"
       id="rect5"
       width="52"
       height="9"
       x="37.704262"
       y="-19.823311" />
    <path
       id="rect6"
       style="baseline-shift:baseline;display:inline;overflow:visible;vector-effect:none;fill:#ffffff;stroke-linecap:round;stroke-linejoin:round;stroke-miterlimit:0;enable-background:accumulate;stop-color:#000000"
       d="m 7.7042609,-7.323311 v 2.2988281 a 0.50005,0.50005 0 0 0 0.5,0.5 H 21.704261 v 1.7011719 a 0.50005,0.50005 0 0 0 0.5,0.5 h 1.074218 v 0.5019531 a 0.50005,0.50005 0 0 0 0.5,0.5 h 10 a 0.50005,0.50005 0 0 0 0.5,-0.5 V -2.323311 h 0.925782 a 0.50005,0.50005 0 0 0 0.5,-0.5 v -1.7011719 h 56 v 1.7011719 a 0.50005,0.50005 0 0 0 0.5,0.5 h 1.074218 v 0.5019531 a 0.50005,0.50005 0 0 0 0.5,0.5 h 10.000001 a 0.50005,0.50005 0 0 0 0.5,-0.5 V -2.323311 h 0.92578 a 0.50005,0.50005 0 0 0 0.5,-0.5 v -1.7011719 h 13.5 a 0.50005,0.50005 0 0 0 0.5,-0.5 V -7.323311 h -1 v 1.7988281 h -9.45703 v 0.087891 h -4.54297 v 2.1132813 H 92.704261 v -2.1132813 h -58 v 2.1132813 h -12 v -2.1132817 h -9.572266 v -0.087891 H 8.7042609 V -7.323311 Z" />
    <path
       id="rect26"
       style="fill:#000000;fill-opacity:1;stroke:none;stroke-width:0.8;stroke-linecap:square;stroke-linejoin:round;stroke-miterlimit:0;stroke-dasharray:none;stroke-opacity:1"
       d="m 96.153479,-19.721749 v 4.726563 h 2.039063 v -4.726563 z m 4.000001,0 v 4.726563 h 2.03906 v -4.726563 z m 4,0 v 4.726563 h 2.03906 v -4.726563 z m 4,0 v 4.726563 h 2.03906 v -4.726563 z m 4,0 v 4.726563 h 2.03906 v -4.726563 z m 4,0 v 4.726563 h 2.03906 v -4.726563 z" />
    <path
       id="rect10"
       style="baseline-shift:baseline;display:inline;overflow:visible;vector-effect:none;fill:#ffffff;stroke-linecap:square;stroke-linejoin:round;stroke-miterlimit:0;enable-background:accumulate;stop-color:#000000"
       d="m 96.204261,-20.323311 a 0.50005,0.50005 0 0 0 -0.5,0.5 v 5 a 0.50005,0.50005 0 0 0 0.5,0.5 h 2 a 0.50005,0.50005 0 0 0 0.5,-0.5 v -5 a 0.50005,0.50005 0 0 0 -0.5,-0.5 z m 3.999999,0 a 0.50005,0.50005 0 0 0 -0.499999,0.5 v 5 a 0.50005,0.50005 0 0 0 0.499999,0.5 h 2 a 0.50005,0.50005 0 0 0 0.5,-0.5 v -5 a 0.50005,0.50005 0 0 0 -0.5,-0.5 z m 4,0 a 0.50005,0.50005 0 0 0 -0.5,0.5 v 5 a 0.50005,0.50005 0 0 0 0.5,0.5 h 2 a 0.50005,0.50005 0 0 0 0.5,-0.5 v -5 a 0.50005,0.50005 0 0 0 -0.5,-0.5 z m 4,0 a 0.50005,0.50005 0 0 0 -0.5,0.5 v 5 a 0.50005,0.50005 0 0 0 0.5,0.5 h 2 a 0.50005,0.50005 0 0 0 0.5,-0.5 v -5 a 0.50005,0.50005 0 0 0 -0.5,-0.5 z m 4,0 a 0.50005,0.50005 0 0 0 -0.5,0.5 v 5 a 0.50005,0.50005 0 0 0 0.5,0.5 h 2 a 0.50005,0.50005 0 0 0 0.5,-0.5 v -5 a 0.50005,0.50005 0 0 0 -0.5,-0.5 z m 4,0 a 0.50005,0.50005 0 0 0 -0.5,0.5 v 5 a 0.50005,0.50005 0 0 0 0.5,0.5 h 2 a 0.50005,0.50005 0 0 0 0.5,-0.5 v -5 a 0.50005,0.50005 0 0 0 -0.5,-0.5 z m -19.499999,1 h 1 v 4 h -1 z m 3.999999,0 h 1 v 4 h -1 z m 4,0 h 1 v 4 h -1 z m 4,0 h 1 v 4 h -1 z m 4,0 h 1 v 4 h -1 z m 4,0 h 1 v 4 h -1 z" />
    <path
       id="path15"
       style="baseline-shift:baseline;display:inline;overflow:visible;vector-effect:none;fill:#ffffff;stroke-linecap:square;stroke-linejoin:round;stroke-miterlimit:0;enable-background:accumulate;stop-color:#000000"
       d="m 95.735511,-13.434639 v 0.652344 h -0.03125 v 1.917968 h 1 v -1.458984 h 1 v 1.458984 h 1 v -1.507812 h 1 v 1.507812 h 0.999999 v -1.458984 h 1 v 1.458984 h 1 v -1.917968 h -0.0352 v -0.652344 h -0.5332 -5.869142 z m 7.999999,0 v 0.652344 h -0.0312 v 1.917968 h 1 v -1.458984 h 1 v 1.458984 h 1 v -1.507812 h 1 v 1.507812 h 1 v -1.458984 h 1 v 1.458984 h 1 v -1.917968 h -0.0352 v -0.652344 h -0.5332 -5.86914 z m 8,0 v 0.652344 h -0.0312 v 1.917968 h 1 v -1.458984 h 1 v 1.458984 h 1 v -1.507812 h 1 v 1.507812 h 1 v -1.458984 h 1 v 1.458984 h 1 v -1.917968 h -0.0352 v -0.652344 h -0.5332 -5.86914 z" />
    <path
       id="level1-onoff"
     style="fill:#ffffff;fill-opacity:1"
       d="m 97.204261,-22.323311 a 0.5,0.5 0 0 0 -0.5,0.5 0.5,0.5 0 0 0 0.5,0.5 0.5,0.5 0 0 0 0.5,-0.5 0.5,0.5 0 0 0 -0.5,-0.5 z m 3.999999,0 a 0.5,0.5 0 0 0 -0.5,0.5 0.5,0.5 0 0 0 0.5,0.5 0.5,0.5 0 0 0 0.5,-0.5 0.5,0.5 0 0 0 -0.5,-0.5 z" />
    <path
       id="level2-onoff"
     style="fill:#ffffff;fill-opacity:{{level2}}"
       d="m 105.20426,-22.323311 a 0.5,0.5 0 0 0 -0.5,0.5 0.5,0.5 0 0 0 0.5,0.5 0.5,0.5 0 0 0 0.5,-0.5 0.5,0.5 0 0 0 -0.5,-0.5 z m 4,0 a 0.5,0.5 0 0 0 -0.5,0.5 0.5,0.5 0 0 0 0.5,0.5 0.5,0.5 0 0 0 0.5,-0.5 0.5,0.5 0 0 0 -0.5,-0.5 z" />
    <path
       id="level3-onoff"
     style="fill:#ffffff;fill-opacity:{{level3}}"
       d="m 113.20426,-22.323311 a 0.5,0.5 0 0 0 -0.5,0.5 0.5,0.5 0 0 0 0.5,0.5 0.5,0.5 0 0 0 0.5,-0.5 0.5,0.5 0 0 0 -0.5,-0.5 z m 4,0 a 0.5,0.5 0 0 0 -0.5,0.5 0.5,0.5 0 0 0 0.5,0.5 0.5,0.5 0 0 0 0.5,-0.5 0.5,0.5 0 0 0 -0.5,-0.5 z" />
    <path
       id="path23"
       style="font-size:8px;line-height:1.1;font-family:'Lohit Devanagari';-inkscape-font-specification:'Lohit Devanagari';letter-spacing:0px;baseline-shift:baseline;display:inline;overflow:visible;vector-effect:none;fill:#ffffff;stroke-linecap:square;stroke-linejoin:round;stroke-miterlimit:0;enable-background:accumulate;stop-color:#000000"
       d="m 64.450354,-29.424874 c -0.695238,0 -1.314505,0.326975 -1.724609,0.902344 a 0.40004001,0.40004001 0 0 0 -0.002,0.002 c -0.404314,0.575841 -0.587891,1.318653 -0.587891,2.197266 0,0.878613 0.183577,1.623377 0.587891,2.199219 a 0.40004001,0.40004001 0 0 0 0.002,0.002 c 0.410104,0.575368 1.029371,0.902344 1.724609,0.902344 0.821078,0 1.531365,-0.388457 1.982422,-1.080079 a 0.40004001,0.40004001 0 0 0 -0.103515,-0.544921 l -0.398438,-0.28125 a 0.40004001,0.40004001 0 0 0 -0.572266,0.117187 c -0.227188,0.367631 -0.472825,0.505859 -0.90039,0.505859 -0.293136,0 -0.475793,-0.100331 -0.675781,-0.412109 v -0.002 c -0.197939,-0.322369 -0.316407,-0.784808 -0.316407,-1.40625 0,-0.622262 0.117501,-1.080541 0.314453,-1.396484 0.202396,-0.322181 0.384256,-0.421875 0.677735,-0.421875 0.394445,0 0.624712,0.12094 0.835937,0.423828 a 0.40004001,0.40004001 0 0 0 0.558594,0.09766 l 0.398438,-0.28125 a 0.40004001,0.40004001 0 0 0 0.0957,-0.558594 c -0.439904,-0.623199 -1.119184,-0.964844 -1.896485,-0.964844 z m -6.28125,0.101563 a 0.40004001,0.40004001 0 0 0 -0.384765,0.511719 l 1.523437,5.203125 a 0.40004001,0.40004001 0 0 0 0.384766,0.287109 h 0.773437 a 0.40004001,0.40004001 0 0 0 0.382813,-0.287109 l 1.523437,-5.203125 a 0.40004001,0.40004001 0 0 0 -0.382812,-0.511719 h -0.515625 a 0.40004001,0.40004001 0 0 0 -0.384766,0.287109 l -1.013672,3.470703 -1.007812,-3.470703 a 0.40004001,0.40004001 0 0 0 -0.382813,-0.287109 z m 8.867188,0 a 0.40004001,0.40004001 0 0 0 -0.400391,0.398437 v 5.203125 a 0.40004001,0.40004001 0 0 0 0.400391,0.400391 h 0.515625 a 0.40004001,0.40004001 0 0 0 0.398437,-0.400391 v -1.708984 h 0.296875 l 1.072266,1.90625 a 0.40004001,0.40004001 0 0 0 0.349609,0.203125 h 0.570313 a 0.40004001,0.40004001 0 0 0 0.347656,-0.595703 l -1.070312,-1.892578 c 0.210184,-0.124118 0.452158,-0.210216 0.595703,-0.404297 v -0.002 c 0.246363,-0.327002 0.36914,-0.731895 0.36914,-1.16211 0,-0.559121 -0.211039,-1.069473 -0.611328,-1.423828 -0.395955,-0.354689 -0.929067,-0.521484 -1.529297,-0.521484 h -0.789062 z m 0.914062,1.267578 h 0.390625 c 0.29843,0 0.477685,0.07068 0.613282,0.193359 a 0.40004001,0.40004001 0 0 0 0.0039,0.0039 c 0.134254,0.118271 0.193359,0.241231 0.193359,0.480468 0,0.237279 -0.0605,0.36703 -0.195312,0.490235 -0.13475,0.118183 -0.315796,0.189453 -0.615235,0.189453 h -0.390625 z" />
    <ellipse
       style="fill:#000000;fill-opacity:1;stroke:none;stroke-width:0.8;stroke-linecap:square;stroke-linejoin:round;stroke-miterlimit:0;stroke-dasharray:none;stroke-opacity:1"
       id="path26"
       cx="16.859091"
       cy="-24.42737"
       rx="4.8112869"
       ry="4.9379001" />
    <path
       id="blink-even"
       style="fill:#ffffff;fill-opacity:{{blink-even}}"
       d="m 57.326504,-18.323283 c -0.36434,-5.31e-4 -0.547877,0.38224 -0.291142,0.607188 l 0.642857,0.567044 c 0.07731,0.06693 0.182094,0.104262 0.291142,0.103707 h 1.8211 v 1.087251 h -1.89926 c -0.108371,-1.02e-4 -0.212368,0.03719 -0.289187,0.103708 l -0.320451,0.281013 c -0.0064,0.03603 -0.0064,0.07269 0,0.108725 -0.04208,-0.0057 -0.08493,-0.0057 -0.127007,0 l -0.242294,0.219124 c -0.07388,0.06638 -0.115215,0.15515 -0.115284,0.247558 v 2.212977 c 0.08792,0.09865 0.228768,0.150054 0.371254,0.135488 -0.01748,0.125458 0.04274,0.24958 0.158272,0.326175 h 3.396002 c 0.361195,-0.0024 0.542026,-0.381056 0.289187,-0.605515 l -0.640903,-0.565371 c -0.07666,-0.06816 -0.181536,-0.106723 -0.29114,-0.107052 h -1.813285 v -1.08558 h 1.891443 c 0.106745,-3.45e-4 0.209114,-0.03695 0.28528,-0.102035 l 0.328267,-0.27934 c 0.0066,-0.03658 0.0066,-0.07382 0,-0.110398 0.0441,0.0057 0.08898,0.0051 0.132869,-0.0017 l 0.234477,-0.212433 c 0.07317,-0.06665 0.113787,-0.155388 0.11333,-0.247559 v -2.221339 c -0.08915,-0.09796 -0.230779,-0.148107 -0.373207,-0.132143 0.01935,-0.12626 -0.04025,-0.251903 -0.156318,-0.329521 z m 6.772465,0 c -0.11616,0.07691 -0.176463,0.201828 -0.158272,0.327848 -0.14213,-0.01495 -0.282909,0.03579 -0.371256,0.133816 v 2.221339 c -4.02e-4,0.09463 0.04248,0.185503 0.119193,0.252577 l 0.07816,0.06691 -0.08403,0.07527 c -0.07316,0.06665 -0.113786,0.155388 -0.11333,0.247559 v 2.212976 c 0.08791,0.09865 0.228769,0.150055 0.371256,0.135489 -0.01748,0.125458 0.04274,0.249579 0.158272,0.326175 h 3.394047 c 0.116891,-0.07652 0.177972,-0.201504 0.160225,-0.327848 0.142129,0.01495 0.282908,-0.03579 0.371255,-0.133816 v -2.212976 c 3.7e-5,-0.08997 -0.03906,-0.176621 -0.109422,-0.242541 l -0.08402,-0.07862 0.07816,-0.0736 c 0.07388,-0.06638 0.115216,-0.155151 0.115284,-0.24756 v -2.221339 c -0.08877,-0.0974 -0.229481,-0.147485 -0.371254,-0.132143 0.01847,-0.126906 -0.04269,-0.252683 -0.160226,-0.32952 z m 4.67976,0 c -0.116802,0.07723 -0.177181,0.202938 -0.158272,0.329521 -0.141774,-0.01534 -0.282483,0.03474 -0.371255,0.132143 v 2.221339 c -4.03e-4,0.09463 0.04248,0.185503 0.119192,0.252577 l 0.07816,0.06858 -0.08207,0.0736 c -0.07388,0.06638 -0.115216,0.155151 -0.115286,0.247559 v 2.212976 c 0.08792,0.09865 0.228769,0.150055 0.371256,0.135489 -0.01748,0.125458 0.04274,0.249579 0.158272,0.326175 h 3.396 c 0.115427,-0.0773 0.174955,-0.202149 0.156319,-0.327848 0.142784,0.01558 0.284483,-0.03523 0.373209,-0.133816 v -2.212976 c 3.8e-5,-0.08997 -0.03906,-0.176621 -0.109423,-0.242541 l -0.08598,-0.07862 0.08207,-0.0736 c 0.07316,-0.06665 0.113786,-0.155389 0.11333,-0.24756 v -2.221339 c -0.08915,-0.09796 -0.230782,-0.148106 -0.373209,-0.132143 0.01936,-0.126259 -0.04025,-0.251902 -0.156318,-0.32952 z m -13.052527,0.108726 c -0.09444,0.0078 -0.182844,0.04383 -0.250109,0.102033 l -0.652626,0.567045 c -0.07625,0.06666 -0.119086,0.156857 -0.119192,0.250904 v 1.512117 c 1.06e-4,0.09405 0.04295,0.184241 0.119192,0.250903 l 0.240339,0.209088 -0.240339,0.209087 c -0.07625,0.06666 -0.119086,0.156857 -0.119192,0.250904 v 1.510444 c -9.16e-4,0.0952 0.04201,0.186766 0.119192,0.254249 l 0.652626,0.565371 c 0.258236,0.222786 0.697194,0.06385 0.697568,-0.252576 v -2.212977 c -6.8e-5,-0.09241 -0.04141,-0.181176 -0.115285,-0.247558 l -0.08402,-0.07527 0.07816,-0.06691 c 0.07742,-0.06679 0.121033,-0.157706 0.121147,-0.252578 v -2.221339 c -0.0012,-0.209136 -0.208153,-0.372409 -0.44746,-0.352938 z m 9.310673,1.169213 h 1.526049 v 1.262886 c 6.25e-4,0.09429 0.04418,0.184518 0.121148,0.250903 l 0.240338,0.209088 -0.240338,0.209087 c -0.07696,0.06638 -0.120523,0.156613 -0.121148,0.250904 v 1.261213 h -1.526049 v -1.261213 c -1.07e-4,-0.09405 -0.04295,-0.184241 -0.119194,-0.250904 l -0.240337,-0.209087 0.240337,-0.209088 c 0.07625,-0.06666 0.119087,-0.156856 0.119194,-0.250903 z m 4.681713,0 h 1.524098 v 1.262886 c 6.24e-4,0.09429 0.04418,0.184518 0.121147,0.250903 l 0.240338,0.209088 -0.240338,0.209087 c -0.07696,0.06638 -0.120523,0.156613 -0.121147,0.250904 v 1.261213 h -1.524098 v -1.261213 c -6.24e-4,-0.09429 -0.04418,-0.184519 -0.121145,-0.250904 l -0.240339,-0.209087 0.240339,-0.209088 c 0.07695,-0.06638 0.120521,-0.156613 0.121145,-0.250903 z" />
    <path
       id="path32"
       style="font-size:9.62474px;line-height:1.1;font-family:DS-Digital;-inkscape-font-specification:DS-Digital;letter-spacing:0px;baseline-shift:baseline;display:inline;overflow:visible;vector-effect:none;fill:#ffffff;fill-opacity:1;stroke-linecap:square;stroke-linejoin:round;stroke-miterlimit:0;enable-background:accumulate;stop-color:#000000"
       d="m 62.112468,-17.32331 c -0.224893,5.41e-4 -0.407204,0.185468 -0.408203,0.414062 v 0.66211 c -0.0011,0.230118 0.181809,0.417424 0.408203,0.417968 h 0.650391 c 0.227157,5.56e-4 0.41128,-0.187074 0.410156,-0.417968 v -0.66211 c -10e-4,-0.229368 -0.184501,-0.414614 -0.410156,-0.414062 z m 0,2.480469 c -0.225641,5.45e-4 -0.40826,0.186659 -0.408203,0.416015 v 0.66211 c 9.99e-4,0.228594 0.18331,0.413521 0.408203,0.414062 h 0.650391 c 0.225655,5.52e-4 0.409153,-0.184694 0.410156,-0.414062 v -0.66211 c 5.7e-5,-0.230132 -0.183752,-0.416566 -0.410156,-0.416015 z" />
  </g>
</svg>
