<?xml version="1.0" encoding="UTF-8" standalone="no"?>
<!-- Created with Inkscape (http://www.inkscape.org/) -->

<svg
   width="128"
   height="64"
   viewBox="0 0 128 64"
   version="1.1"
   id="svg1"
   xml:space="preserve"
   inkscape:export-filename="../../home/stuart/vucombi128.svg"
   inkscape:export-xdpi="90"
   inkscape:export-ydpi="90"
   inkscape:version="1.4.3 (1:1.4.3+202512261035+0d15f75042)"
   sodipodi:docname="vucombi128.svg"
   xmlns:inkscape="http://www.inkscape.org/namespaces/inkscape"
   xmlns:sodipodi="http://sodipodi.sourceforge.net/DTD/sodipodi-0.dtd"
   xmlns="http://www.w3.org/2000/svg"
   xmlns:svg="http://www.w3.org/2000/svg"><sodipodi:namedview
     id="namedview1"
     pagecolor="#ffffff"
     bordercolor="#666666"
     borderopacity="1.0"
     inkscape:showpageshadow="false"
     inkscape:pageopacity="0.0"
     inkscape:pagecheckerboard="0"
     inkscape:deskcolor="#d1d1d1"
     inkscape:document-units="px"
     inkscape:zoom="25.15"
     inkscape:cx="29.145129"
     inkscape:cy="76.878727"
     inkscape:window-width="1920"
     inkscape:window-height="1011"
     inkscape:window-x="0"
     inkscape:window-y="32"
     inkscape:window-maximized="1"
     inkscape:current-layer="layer1"
     showguides="true"><sodipodi:guide
       position="1.6429329,43.313981"
       orientation="1,0"
       id="guide1"
       inkscape:locked="false" /><sodipodi:guide
       position="24.195921,54.515797"
       orientation="0,-1"
       id="guide2"
       inkscape:locked="false" /><sodipodi:guide
       position="28.849957,75.539983"
       orientation="1,0"
       id="guide3"
       inkscape:locked="false" /><sodipodi:guide
       position="-42.760689,95.302485"
       orientation="1,0"
       id="guide24"
       inkscape:locked="false" /><sodipodi:guide
       position="-12.703661,113.40313"
       orientation="1,0"
       id="guide25"
       inkscape:locked="false" /><sodipodi:guide
       position="29.359231,17.275612"
       orientation="0,-1"
       id="guide36"
       inkscape:locked="false" /><sodipodi:guide
       position="9.2883399,41.304143"
       orientation="1,0"
       id="guide37"
       inkscape:locked="false" /><sodipodi:guide
       position="49.026281,34.842689"
       orientation="1,0"
       id="guide38"
       inkscape:locked="false" /></sodipodi:namedview><defs
     id="defs1" /><g
     inkscape:label="Layer 1"
     inkscape:groupmode="layer"
     id="layer1"><rect
       style="fill:#000203;fill-opacity:1;stroke:none;stroke-width:1;stroke-linecap:round;stroke-linejoin:round;stroke-dasharray:none;stroke-opacity:1"
       id="rect7"
       width="128"
       height="64"
       x="0"
       y="0" /><rect
       style="fill:none;fill-opacity:1;stroke:#ffffff;stroke-width:0.264583;stroke-linejoin:round;stroke-miterlimit:0;stroke-dasharray:none;stroke-opacity:1"
       id="rect2"
       width="15.488294"
       height="0"
       x="-8.5378971"
       y="0.79374987"
       transform="scale(-1,1)" /><path
       id="rect3"
       style="baseline-shift:baseline;display:inline;overflow:visible;opacity:1;vector-effect:none;fill:#ffffff;stroke-linejoin:round;stroke-miterlimit:0;enable-background:accumulate;stop-color:#000000;stop-opacity:1"
       d="m 0.92552488,-100.37395 a 0.13230472,0.13230472 0 0 0 -0.13280842,0.13281 v 15.345831 a 0.13230472,0.13230472 0 0 0 0.13280842,0.132808 H 16.271358 a 0.13230472,0.13230472 0 0 0 0.132808,-0.132808 v -15.345831 a 0.13230472,0.13230472 0 0 0 -0.132808,-0.13281 z m 16.66978312,10e-4 a 0.13230472,0.13230472 0 0 0 -0.132808,0.13284 v 15.345834 a 0.13230472,0.13230472 0 0 0 0.132808,0.132809 h 15.345833 a 0.13230472,0.13230472 0 0 0 0.132809,-0.132809 v -15.345834 a 0.13230472,0.13230472 0 0 0 -0.132809,-0.13281 z m -16.5364579,0.26513 H 16.138549 v 11.111987 H 1.1074259 v 0.26355 H 16.138549 v 0.265617 H 1.1074259 v 0.265617 H 16.138549 v 3.172931 H 1.0588501 Z m 16.6697829,0.001 h 15.0797 v 11.112021 H 17.777209 v 0.263549 h 15.031124 v 0.265617 H 17.777209 v 0.265617 h 15.031124 v 3.172932 h -15.0797 z m -3.17655,0.52762 v 0.52917 h -0.529167 v 0.264583 h 0.529167 v 0.529167 h 0.264583 v -0.529167 h 0.529167 v -0.264583 h -0.529167 v -0.529137 z m 16.669783,0.001 v 0.529166 H 30.6927 v 0.264584 h 0.529166 v 0.529166 h 0.264584 v -0.529166 h 0.529166 v -0.264517 H 31.48645 v -0.529166 z M 1.5875,-99.05 v 0.264583 H 2.9104166 V -99.05 Z m 16.669783,10e-4 v 0.264583 H 19.5802 V -99.049 Z m -7.346321,0.26355 c -0.159819,0 -0.281451,0.05313 -0.364319,0.15968 -0.08139,0.105065 -0.121957,0.275862 -0.121957,0.51263 0,0.242687 0.04343,0.414588 0.130742,0.515214 0.07843,0.09027 0.197195,0.135392 0.355534,0.135392 0.321117,0 0.481624,-0.21989 0.481624,-0.659391 0,-0.442461 -0.160507,-0.663525 -0.481624,-0.663525 z m 16.669783,10e-4 c -0.159819,0 -0.281451,0.05313 -0.364319,0.15968 -0.08139,0.105066 -0.121956,0.275862 -0.121956,0.51263 0,0.242687 0.04343,0.414588 0.130741,0.515214 0.07843,0.09027 0.197195,0.135392 0.355534,0.135392 0.321117,0 0.481624,-0.21989 0.481624,-0.659391 0,-0.442461 -0.160507,-0.663525 -0.481624,-0.663525 z m -16.676501,0.132291 c 0.122823,0 0.21138,0.04057 0.266133,0.121957 0.05623,0.07991 0.08475,0.222705 0.08475,0.428397 0,0.198294 -0.02683,0.334254 -0.0801,0.408244 -0.05179,0.07251 -0.142042,0.109037 -0.270784,0.109037 -0.127264,0 -0.216924,-0.04395 -0.268718,-0.131258 -0.04292,-0.07843 -0.06408,-0.204688 -0.06408,-0.379305 0,-0.202732 0.02403,-0.346116 0.07286,-0.430464 0.05032,-0.08435 0.13711,-0.126608 0.259933,-0.126608 z m 16.669783,10e-4 c 0.122823,0 0.211381,0.04057 0.266134,0.121957 0.05623,0.07991 0.08475,0.222705 0.08475,0.428397 0,0.198294 -0.02683,0.334254 -0.0801,0.408244 -0.05179,0.07251 -0.142042,0.109037 -0.270784,0.109037 -0.127264,0 -0.216923,-0.04395 -0.268717,-0.131258 -0.04292,-0.07843 -0.06408,-0.204688 -0.06408,-0.379305 0,-0.202732 0.02403,-0.346116 0.07286,-0.430465 0.05032,-0.08435 0.137109,-0.126607 0.259932,-0.126607 z m -12.757877,0.660436 c -0.436809,0 -0.792717,0.355907 -0.792717,0.792716 0,0.436809 0.355908,0.792717 0.792717,0.792717 0.436809,0 0.7953,-0.355908 0.7953,-0.792717 0,-0.436809 -0.358491,-0.792716 -0.7953,-0.792716 z m 16.669783,0.001 c -0.436809,0 -0.792717,0.355907 -0.792717,0.792716 0,0.436809 0.355908,0.792717 0.792717,0.792717 0.436809,0 0.7953,-0.355908 0.7953,-0.792717 0,-0.436809 -0.358491,-0.792716 -0.7953,-0.792716 z m -27.6954668,0.26252 c -0.1598185,0 -0.28145,0.05313 -0.3643188,0.15968 -0.081389,0.105065 -0.1219564,0.275861 -0.1219564,0.51263 0,0.242687 0.04395,0.414588 0.1312582,0.515214 0.078429,0.09027 0.1966782,0.135392 0.355017,0.135392 0.321117,0 0.4816244,-0.21989 0.4816244,-0.659391 0,-0.442461 -0.1605074,-0.663525 -0.4816244,-0.663525 z m 11.0256838,0 c 0.293818,0 0.529683,0.235348 0.529683,0.529166 0,0.293818 -0.235865,0.529167 -0.529683,0.529167 -0.293817,0 -0.529167,-0.235349 -0.529167,-0.529167 0,-0.293818 0.23535,-0.529166 0.529167,-0.529166 z m 5.644099,0.001 c -0.159818,0 -0.28145,0.05313 -0.364318,0.15968 -0.08139,0.105065 -0.121957,0.275862 -0.121957,0.51263 0,0.242687 0.04395,0.414588 0.131258,0.515214 0.07843,0.09027 0.196679,0.135392 0.355017,0.135392 0.321117,0 0.481625,-0.21989 0.481625,-0.659391 0,-0.442461 -0.160508,-0.663525 -0.481625,-0.663525 z m 11.025684,0 c 0.293818,0 0.529683,0.235349 0.529683,0.529166 0,0.293818 -0.235865,0.529167 -0.529683,0.529167 -0.293817,0 -0.529167,-0.235349 -0.529167,-0.529167 0,-0.293817 0.23535,-0.529166 0.529167,-0.529166 z m -28.8075436,0.02997 c -0.1672176,0 -0.2865704,0.02344 -0.3576009,0.0708 -0.1139446,0.07695 -0.171049,0.202034 -0.171049,0.37517 0,0.05327 0.023373,0.0801 0.069247,0.0801 0.045874,0 0.06873,-0.02227 0.06873,-0.06666 0,-0.102106 0.022855,-0.178683 0.06873,-0.230476 0.060672,-0.06807 0.164075,-0.10232 0.3105753,-0.10232 0.2145712,0 0.3219442,0.07827 0.3219442,0.235128 0,0.08139 -0.038289,0.144812 -0.1152385,0.190686 -0.039955,0.02959 -0.1273376,0.06098 -0.2619995,0.09353 -0.1331831,0.03255 -0.2222562,0.06114 -0.2666503,0.0863 -0.1524195,0.08879 -0.2284099,0.242389 -0.2284099,0.45992 l 0.00207,0.09974 h 0.9746175 c 0.042914,0 0.064596,-0.02396 0.064596,-0.07131 0,-0.04587 -0.027414,-0.06873 -0.082165,-0.06873 H 2.2654947 c 0,-0.130222 0.038875,-0.225615 0.1173055,-0.286287 0.051793,-0.03996 0.1482902,-0.07538 0.2888713,-0.106454 0.1450206,-0.04143 0.2449708,-0.07855 0.2997233,-0.111104 0.097667,-0.06955 0.1462443,-0.169501 0.1462443,-0.299723 0,-0.110985 -0.046299,-0.199543 -0.1395264,-0.266134 -0.07695,-0.05475 -0.1768998,-0.08217 -0.2997233,-0.08216 z m 16.6697836,0.001 c -0.167218,0 -0.286571,0.02344 -0.357601,0.0708 -0.113945,0.07695 -0.171049,0.202034 -0.171049,0.37517 0,0.05327 0.02337,0.0801 0.06925,0.0801 0.04587,0 0.06873,-0.02227 0.06873,-0.06666 0,-0.102106 0.02285,-0.178683 0.06873,-0.230476 0.06067,-0.06807 0.164076,-0.10232 0.310576,-0.10232 0.214571,0 0.321944,0.07827 0.321944,0.235128 0,0.08139 -0.03829,0.144812 -0.115238,0.190686 -0.03995,0.02959 -0.127338,0.06098 -0.262,0.09353 -0.133183,0.03255 -0.222256,0.06114 -0.26665,0.0863 -0.152424,0.08879 -0.22841,0.242389 -0.22841,0.45992 l 0.0021,0.09974 h 0.974617 c 0.04291,0 0.0646,-0.02396 0.0646,-0.07131 0,-0.04587 -0.02742,-0.06873 -0.08217,-0.06873 h -0.810286 c 0,-0.130222 0.03888,-0.225615 0.117305,-0.286287 0.05179,-0.03996 0.148291,-0.07538 0.288872,-0.106454 0.14502,-0.04143 0.24497,-0.07855 0.299723,-0.111104 0.09767,-0.06955 0.146244,-0.169501 0.146244,-0.299723 0,-0.110985 -0.0463,-0.199543 -0.139526,-0.266134 -0.07695,-0.05475 -0.1769,-0.08217 -0.299723,-0.08217 z m -13.9944947,0.01034 v 0.179834 h 0.1793172 v -0.179834 z m 1.7942057,0 v 0.179834 h 0.1793172 v -0.179834 z m 1.7942057,0 v 0.179834 h 0.1793172 v -0.179834 z m 3.5884113,0 v 0.179834 h 0.179317 v -0.179834 z m 9.49296,0.001 v 0.179833 h 0.179318 v -0.179833 z m 1.794206,0 v 0.179833 h 0.179317 v -0.179833 z m 1.794206,0 v 0.179833 h 0.179317 v -0.179833 z m 3.588411,0 v 0.179833 h 0.179317 v -0.179833 z m -25.4165357,0.08992 c 0.1228235,0 0.2113809,0.04057 0.2661336,0.121956 0.056233,0.07991 0.084749,0.222705 0.084749,0.428398 0,0.198293 -0.026825,0.334253 -0.080099,0.408243 -0.051793,0.07251 -0.1420418,0.109038 -0.2707845,0.109038 -0.1272629,0 -0.2169244,-0.04395 -0.2687174,-0.131258 -0.042914,-0.07843 -0.064079,-0.204689 -0.064079,-0.379306 0,-0.202732 0.024031,-0.346115 0.072864,-0.430464 0.050313,-0.08435 0.1371091,-0.126607 0.2599333,-0.126607 z m 16.6697827,0.001 c 0.122824,0 0.211381,0.04057 0.266134,0.121956 0.05623,0.07991 0.08475,0.222705 0.08475,0.428398 0,0.198293 -0.02683,0.334253 -0.0801,0.408243 -0.05179,0.07251 -0.142043,0.109038 -0.270785,0.109038 -0.127263,0 -0.216924,-0.04395 -0.268717,-0.131258 -0.04291,-0.07843 -0.06408,-0.204689 -0.06408,-0.379306 0,-0.202732 0.02403,-0.346115 0.07286,-0.430464 0.05031,-0.08435 0.137108,-0.126607 0.259932,-0.126607 z m -11.8540561,0.453217 c -2.459004,0 -4.6973441,0.779009 -6.3443154,2.049487 v 0.337447 c 1.6098,-1.308357 3.8540862,-2.122868 6.3443154,-2.122868 2.4900701,0 4.7339981,0.814141 6.3432821,2.122352 v -0.33773 c -1.646849,-1.269884 -3.884926,-2.048454 -6.3432821,-2.048454 z m 16.6697831,0.001 c -2.459004,0 -4.697344,0.779009 -6.344315,2.049487 v 0.337451 c 1.6098,-1.308358 3.854086,-2.122868 6.344315,-2.122868 2.490071,0 4.733998,0.81414 6.343282,2.122351 v -0.337964 c -1.646849,-1.269884 -3.884925,-2.048455 -6.343282,-2.048454 z" /><g
       id="g38"><rect
         style="fill:#b5eaff;fill-opacity:1;stroke-width:100;stroke-linecap:round;stroke-linejoin:round"
         id="rect6"
         width="51"
         height="27"
         x="3.7727261"
         y="11.948603" /><path
         id="rect9"
         style="fill:#000000;stroke-linecap:round;stroke-linejoin:round;fill-opacity:1"
         d="m 18.254015,14 c -0.302223,0 -0.545581,0.07793 -0.730469,0.234375 -0.184889,0.152888 -0.320917,0.376413 -0.40625,0.667969 -0.08178,0.291555 -0.121094,0.642242 -0.121094,1.054687 0,0.615111 0.100068,1.096868 0.302734,1.445313 0.206222,0.344888 0.524856,0.517578 0.955079,0.517578 0.305776,0 0.551439,-0.07793 0.736328,-0.234375 0.184888,-0.156445 0.318964,-0.38032 0.404296,-0.671875 0.08533,-0.295111 0.128907,-0.647752 0.128907,-1.056641 0,-0.618667 -0.104675,-1.09812 -0.314453,-1.439453 C 18.999315,14.172689 18.680681,14 18.254015,14 Z m 22,0 c -0.302223,0 -0.54558,0.07793 -0.730469,0.234375 -0.184889,0.152889 -0.32092,0.376414 -0.40625,0.667969 -0.08178,0.291554 -0.121094,0.642242 -0.121094,1.054687 0,0.615111 0.100067,1.096868 0.302734,1.445313 0.206222,0.344889 0.524856,0.517578 0.955079,0.517578 0.305777,0 0.551439,-0.07793 0.736328,-0.234375 0.184889,-0.156445 0.318967,-0.38032 0.404296,-0.671875 0.08533,-0.295111 0.128907,-0.647752 0.128907,-1.056641 0,-0.618667 -0.104675,-1.09812 -0.314453,-1.439453 C 40.999316,14.172689 40.680681,14 40.254015,14 Z m -25.103516,0.0059 c -0.241778,0 -0.460695,0.04392 -0.65625,0.132813 -0.192,0.08533 -0.362386,0.190008 -0.511719,0.314453 l 0.25,0.314453 c 0.145777,-0.113778 0.289067,-0.201625 0.427735,-0.265625 0.142222,-0.064 0.305345,-0.0957 0.490234,-0.0957 0.199111,0 0.35993,0.05384 0.484375,0.164062 0.124444,0.106667 0.1875,0.264832 0.1875,0.47461 0,0.170666 -0.03401,0.328831 -0.101563,0.474609 -0.06755,0.142222 -0.167272,0.288167 -0.298828,0.4375 -0.131555,0.149333 -0.292375,0.321672 -0.484375,0.513672 l -0.998047,1.007812 v 0.388672 h 2.517578 V 17.44145 h -1.925781 v -0.02148 l 0.794922,-0.785157 c 0.195556,-0.192 0.365942,-0.371951 0.511719,-0.539062 0.145778,-0.170667 0.260019,-0.341403 0.341797,-0.515625 0.08178,-0.174222 0.123047,-0.361436 0.123047,-0.560547 0,-0.316445 -0.104325,-0.56441 -0.310547,-0.742187 -0.206222,-0.181382 -0.486242,-0.271533 -0.841797,-0.271533 z m 3.103516,0.394531 c 0.284444,0 0.486533,0.129117 0.607421,0.388672 0.124445,0.259556 0.1875,0.648858 0.1875,1.167969 0,0.526221 -0.06305,0.920132 -0.1875,1.179687 -0.120888,0.256001 -0.322977,0.382813 -0.607421,0.382813 -0.288,0 -0.492392,-0.129117 -0.613282,-0.388672 -0.117332,-0.259555 -0.175781,-0.651162 -0.175781,-1.173828 0,-0.519111 0.05845,-0.908413 0.175781,-1.167969 0.12089,-0.259555 0.325282,-0.388672 0.613282,-0.388672 z m 22,0 c 0.284444,0 0.486532,0.129117 0.607421,0.388672 0.124447,0.259555 0.1875,0.648858 0.1875,1.167969 0,0.526221 -0.06306,0.920132 -0.1875,1.179687 -0.120889,0.255999 -0.322976,0.382813 -0.607421,0.382813 -0.288001,0 -0.492393,-0.129117 -0.613282,-0.388672 -0.117329,-0.259555 -0.175781,-0.651162 -0.175781,-1.173828 0,-0.519111 0.05845,-0.908414 0.175781,-1.167969 0.120889,-0.259555 0.325283,-0.388672 0.613282,-0.388672 z m -16.661154,1.222657 c -0.4137,0.0022 -0.747594,0.338253 -0.746094,0.751953 0.0015,0.4137 0.338353,0.748747 0.751953,0.748047 0.4137,-8e-4 0.748047,-0.3364 0.748047,-0.75 v -0.0059 c -0.0031,-0.4137 -0.340206,-0.74644 -0.753906,-0.74414 z m 5.658645,0 c -0.4137,0.0022 -0.747594,0.338253 -0.746094,0.751953 0.0015,0.4137 0.338353,0.748747 0.751953,0.748047 0.4137,-8e-4 0.748047,-0.3364 0.748047,-0.75 v -0.0059 c -0.0031,-0.4137 -0.340206,-0.74644 -0.753906,-0.74414 z m 5.162665,0 c -0.4137,0.0022 -0.747594,0.338253 -0.746094,0.751953 0.0015,0.4137 0.338353,0.748747 0.751953,0.748047 0.4137,-8e-4 0.748047,-0.3364 0.748047,-0.75 v -0.0059 c -0.0031,-0.4137 -0.340206,-0.74644 -0.753906,-0.74414 z m 10.380859,0 c -0.41345,0.0022 -0.747176,0.338498 -0.746094,0.751953 0.0011,0.413451 0.336548,0.748048 0.75,0.748047 0.414214,0 0.75,-0.335786 0.75,-0.75 v -0.0059 c -0.0032,-0.413451 -0.340448,-0.746306 -0.753906,-0.74414 z m 4.978515,3.078125 v 1 h -1 v 1 h 1 v 1 h 1 v -1 h 1 v -1 h -1 v -1 z m -42.9999989,1 v 1 h 3.0000002 v -1 z m 22.6582029,0.04297 v 3.5 0.302735 c -0.920317,0.0026 -1.837059,0.01294 -2.75,0.0293 v -3.384766 h -1 v 3.404297 c -0.92072,0.02159 -1.837465,0.05054 -2.75,0.08594 v -2.9375 h -1 v 2.978516 c -0.921155,0.04091 -1.837903,0.08977 -2.75,0.144531 v -2.675781 h -1 v 2.738281 c -0.921634,0.06062 -1.838374,0.128593 -2.75,0.203125 v -2.388672 h -1 v 2.472657 c -1.775444,0.155611 -3.530094,0.337838 -5.2636715,0.544921 v 1.011719 C 15.661262,24.992096 22.467413,24.56862 29.48253,24.55083 c 6.779821,-0.01719 13.373261,0.346876 19.685547,1.046875 v -1.013672 c -1.234841,-0.13593 -2.481053,-0.259221 -3.736328,-0.36914 v -2.470704 h -1 v 2.386719 c -0.911676,-0.07445 -1.82844,-0.142634 -2.75,-0.203125 v -2.736328 h -1 v 2.673828 c -0.91216,-0.05463 -1.82891,-0.101815 -2.75,-0.142578 v -2.978516 h -1 v 2.935547 c -0.912601,-0.03525 -1.829347,-0.06253 -2.75,-0.08398 v -3.404297 h -1 v 3.382812 c -0.91301,-0.01622 -1.829753,-0.02489 -2.75,-0.02734 v -3.802735 z m -5.238281,6.726563 2.111328,5.671875 h 0.976562 l 2.144531,-5.671875 h -1.015624 l -1.591797,4.416015 -1.583985,-4.416015 z m 5.927734,0 v 3.695312 c 0,0.661334 0.19713,1.176922 0.591797,1.544922 0.394667,0.368 0.902818,0.552735 1.521484,0.552735 0.618667,0 1.124865,-0.184735 1.519532,-0.552735 0.399999,-0.368 0.599609,-0.883588 0.599609,-1.544922 v -3.695312 h -0.960938 v 3.640625 c 0,0.4 -0.100067,0.706588 -0.302734,0.919922 -0.202667,0.213333 -0.487469,0.320312 -0.855469,0.320312 -0.362666,0 -0.649422,-0.106979 -0.857422,-0.320312 -0.202666,-0.218667 -0.302734,-0.525255 -0.302734,-0.919922 V 26.470703 Z M 8.1583111,32.644531 c -0.264598,0.01528 -0.5235203,0.083 -0.761718,0.199219 -0.8168352,0.397856 -1.2628569,1.296316 -1.085938,2.1875 L 9.8008893,33.351562 C 9.3950859,32.870595 8.7865782,32.608669 8.1583111,32.644531 Z m 42.2324219,0 c -0.721701,-0.04257 -1.410199,0.307648 -1.800781,0.916015 -0.490284,0.764039 -0.404476,1.762461 0.208984,2.431641 l 2.111328,-3.246093 c -0.167912,-0.05672 -0.342619,-0.09088 -0.519531,-0.101563 z m 1.357422,0.646484 -2.111328,3.246094 c 0.866637,0.290974 1.820262,-0.04271 2.316406,-0.810547 0.49337,-0.764043 0.409107,-1.764763 -0.205078,-2.435547 z M 10.234483,34.251953 6.7442491,35.93164 c 0.5896227,0.698497 1.5777828,0.90835 2.4003904,0.509766 0.8191745,-0.396791 1.2671045,-1.296666 1.0898435,-2.189453 z"
         sodipodi:nodetypes="sccscsscscssccscsscscscccccscscscccccccccsscccscscscscsscscscscscscsccccscsccccscsccccsssccccccccccccccccccccccccccccccccccccccccccsccccccccccccccccccccccccccccccssscsccssscscccccccccccccccccccc" /><path
         id="NEEDLE_LEFT"
         style="fill:#ffe7d1;fill-opacity:1;stroke-linecap:round;stroke-linejoin:round;stroke:#ff0000;stroke-opacity:1;stroke-width:0.5;stroke-dasharray:none"
         d="m 29.269531,15.949219 c -0.257891,0.0015 -0.47008,0.203438 -0.484375,0.460937 L 28.390625,49.669922 H 30.15625 L 29.759766,16.410156 c -0.01442,-0.259759 -0.230081,-0.462531 -0.490235,-0.460937 z"
         sodipodi:nodetypes="cccccc"
         inkscape:transform-center-y="-13.892126"
         inkscape:label="NEEDLE_LEFT" /><path
         id="path34"
         style="baseline-shift:baseline;display:inline;overflow:visible;vector-effect:none;fill:#1f1f1f;stroke-linecap:round;stroke-linejoin:round;enable-background:accumulate;stop-color:#000000"
         d="M 4.7265625,9.3359375 C 3.2156534,9.3359375 2,10.551591 2,12.0625 v 34.544922 c 0,1.510909 1.2156534,2.728516 2.7265625,2.728516 H 53.818359 c 1.510909,-10e-7 2.726563,-1.217607 2.726563,-2.728516 V 12.0625 c 0,-1.510909 -1.215654,-2.7265625 -2.726563,-2.7265625 z M 3.7734375,11.949219 H 54.773438 v 27 H 35.132812 C 34.656541,37.199758 31.063102,35.989448 29.25,36 c -1.795688,0.01059 -5.364242,1.216559 -5.835938,2.949219 H 3.7734375 Z"
         sodipodi:nodetypes="sssscsssscccccccc" /><path
         style="baseline-shift:baseline;display:inline;overflow:visible;vector-effect:none;fill:#ffffff;stroke-linecap:round;stroke-linejoin:round;enable-background:accumulate;stop-color:#000000"
         d="M 4.7265625,8.8359375 C 2.947302,8.8359375 1.5,10.28324 1.5,12.0625 v 34.544922 c 0,1.77926 1.447302,3.228515 3.2265625,3.228515 H 53.818359 c 1.779261,0 3.226563,-1.449255 3.226563,-3.228515 V 12.0625 c 0,-1.77926 -1.447302,-3.2265625 -3.226563,-3.2265625 z m 0,1 H 53.818359 c 1.242558,0 2.226563,0.9840045 2.226563,2.2265625 v 34.544922 c 0,1.242558 -0.984005,2.228515 -2.226563,2.228515 H 4.7265625 C 3.4840048,48.835937 2.5,47.84998 2.5,46.607422 V 12.0625 c 0,-1.242558 0.9840048,-2.2265625 2.2265625,-2.2265625 z"
         id="path35" /><path
         style="fill:#ff0000;fill-opacity:1;stroke:none;stroke-width:1;stroke-linecap:round;stroke-linejoin:round;stroke-dasharray:none;stroke-opacity:1"
         id="path36"
         sodipodi:type="arc"
         sodipodi:cx="29.273438"
         sodipodi:cy="46.603237"
         sodipodi:rx="0.5"
         sodipodi:ry="0.5"
         sodipodi:start="0"
         sodipodi:end="6.2759047"
         sodipodi:open="true"
         sodipodi:arc-type="arc"
         d="m 29.773437,46.603237 a 0.5,0.5 0 0 1 -0.499089,0.499999 0.5,0.5 0 0 1 -0.500907,-0.498179 0.5,0.5 0 0 1 0.497266,-0.501812 0.5,0.5 0 0 1 0.502717,0.496352" /></g><path
       id="rect38"
       style="fill:#ffe7d1;stroke-width:0.5;stroke-linecap:round;stroke-linejoin:round"
       d="M 9.1268034,66.8958 H 49.126803 l -20,20 z"
       sodipodi:nodetypes="cccc" /><g
       id="g43"
       transform="translate(69.5)"><rect
         style="fill:#b5eaff;fill-opacity:1;stroke-width:100;stroke-linecap:round;stroke-linejoin:round"
         id="rect39"
         width="51"
         height="27"
         x="3.7727261"
         y="11.948603" /><path
         id="path39"
         style="fill:#000000;fill-opacity:1;stroke-linecap:round;stroke-linejoin:round"
         d="m 18.254015,14 c -0.302223,0 -0.545581,0.07793 -0.730469,0.234375 -0.184889,0.152888 -0.320917,0.376413 -0.40625,0.667969 -0.08178,0.291555 -0.121094,0.642242 -0.121094,1.054687 0,0.615111 0.100068,1.096868 0.302734,1.445313 0.206222,0.344888 0.524856,0.517578 0.955079,0.517578 0.305776,0 0.551439,-0.07793 0.736328,-0.234375 0.184888,-0.156445 0.318964,-0.38032 0.404296,-0.671875 0.08533,-0.295111 0.128907,-0.647752 0.128907,-1.056641 0,-0.618667 -0.104675,-1.09812 -0.314453,-1.439453 C 18.999315,14.172689 18.680681,14 18.254015,14 Z m 22,0 c -0.302223,0 -0.54558,0.07793 -0.730469,0.234375 -0.184889,0.152889 -0.32092,0.376414 -0.40625,0.667969 -0.08178,0.291554 -0.121094,0.642242 -0.121094,1.054687 0,0.615111 0.100067,1.096868 0.302734,1.445313 0.206222,0.344889 0.524856,0.517578 0.955079,0.517578 0.305777,0 0.551439,-0.07793 0.736328,-0.234375 0.184889,-0.156445 0.318967,-0.38032 0.404296,-0.671875 0.08533,-0.295111 0.128907,-0.647752 0.128907,-1.056641 0,-0.618667 -0.104675,-1.09812 -0.314453,-1.439453 C 40.999316,14.172689 40.680681,14 40.254015,14 Z m -25.103516,0.0059 c -0.241778,0 -0.460695,0.04392 -0.65625,0.132813 -0.192,0.08533 -0.362386,0.190008 -0.511719,0.314453 l 0.25,0.314453 c 0.145777,-0.113778 0.289067,-0.201625 0.427735,-0.265625 0.142222,-0.064 0.305345,-0.0957 0.490234,-0.0957 0.199111,0 0.35993,0.05384 0.484375,0.164062 0.124444,0.106667 0.1875,0.264832 0.1875,0.47461 0,0.170666 -0.03401,0.328831 -0.101563,0.474609 -0.06755,0.142222 -0.167272,0.288167 -0.298828,0.4375 -0.131555,0.149333 -0.292375,0.321672 -0.484375,0.513672 l -0.998047,1.007812 v 0.388672 h 2.517578 V 17.44145 h -1.925781 v -0.02148 l 0.794922,-0.785157 c 0.195556,-0.192 0.365942,-0.371951 0.511719,-0.539062 0.145778,-0.170667 0.260019,-0.341403 0.341797,-0.515625 0.08178,-0.174222 0.123047,-0.361436 0.123047,-0.560547 0,-0.316445 -0.104325,-0.56441 -0.310547,-0.742187 -0.206222,-0.181382 -0.486242,-0.271533 -0.841797,-0.271533 z m 3.103516,0.394531 c 0.284444,0 0.486533,0.129117 0.607421,0.388672 0.124445,0.259556 0.1875,0.648858 0.1875,1.167969 0,0.526221 -0.06305,0.920132 -0.1875,1.179687 -0.120888,0.256001 -0.322977,0.382813 -0.607421,0.382813 -0.288,0 -0.492392,-0.129117 -0.613282,-0.388672 -0.117332,-0.259555 -0.175781,-0.651162 -0.175781,-1.173828 0,-0.519111 0.05845,-0.908413 0.175781,-1.167969 0.12089,-0.259555 0.325282,-0.388672 0.613282,-0.388672 z m 22,0 c 0.284444,0 0.486532,0.129117 0.607421,0.388672 0.124447,0.259555 0.1875,0.648858 0.1875,1.167969 0,0.526221 -0.06306,0.920132 -0.1875,1.179687 -0.120889,0.255999 -0.322976,0.382813 -0.607421,0.382813 -0.288001,0 -0.492393,-0.129117 -0.613282,-0.388672 -0.117329,-0.259555 -0.175781,-0.651162 -0.175781,-1.173828 0,-0.519111 0.05845,-0.908414 0.175781,-1.167969 0.120889,-0.259555 0.325283,-0.388672 0.613282,-0.388672 z m -16.661154,1.222657 c -0.4137,0.0022 -0.747594,0.338253 -0.746094,0.751953 0.0015,0.4137 0.338353,0.748747 0.751953,0.748047 0.4137,-8e-4 0.748047,-0.3364 0.748047,-0.75 v -0.0059 c -0.0031,-0.4137 -0.340206,-0.74644 -0.753906,-0.74414 z m 5.658645,0 c -0.4137,0.0022 -0.747594,0.338253 -0.746094,0.751953 0.0015,0.4137 0.338353,0.748747 0.751953,0.748047 0.4137,-8e-4 0.748047,-0.3364 0.748047,-0.75 v -0.0059 c -0.0031,-0.4137 -0.340206,-0.74644 -0.753906,-0.74414 z m 5.162665,0 c -0.4137,0.0022 -0.747594,0.338253 -0.746094,0.751953 0.0015,0.4137 0.338353,0.748747 0.751953,0.748047 0.4137,-8e-4 0.748047,-0.3364 0.748047,-0.75 v -0.0059 c -0.0031,-0.4137 -0.340206,-0.74644 -0.753906,-0.74414 z m 10.380859,0 c -0.41345,0.0022 -0.747176,0.338498 -0.746094,0.751953 0.0011,0.413451 0.336548,0.748048 0.75,0.748047 0.414214,0 0.75,-0.335786 0.75,-0.75 v -0.0059 c -0.0032,-0.413451 -0.340448,-0.746306 -0.753906,-0.74414 z m 4.978515,3.078125 v 1 h -1 v 1 h 1 v 1 h 1 v -1 h 1 v -1 h -1 v -1 z m -42.9999989,1 v 1 h 3.0000002 v -1 z m 22.6582029,0.04297 v 3.5 0.302735 c -0.920317,0.0026 -1.837059,0.01294 -2.75,0.0293 v -3.384766 h -1 v 3.404297 c -0.92072,0.02159 -1.837465,0.05054 -2.75,0.08594 v -2.9375 h -1 v 2.978516 c -0.921155,0.04091 -1.837903,0.08977 -2.75,0.144531 v -2.675781 h -1 v 2.738281 c -0.921634,0.06062 -1.838374,0.128593 -2.75,0.203125 v -2.388672 h -1 v 2.472657 c -1.775444,0.155611 -3.530094,0.337838 -5.2636715,0.544921 v 1.011719 C 15.661262,24.992096 22.467413,24.56862 29.48253,24.55083 c 6.779821,-0.01719 13.373261,0.346876 19.685547,1.046875 v -1.013672 c -1.234841,-0.13593 -2.481053,-0.259221 -3.736328,-0.36914 v -2.470704 h -1 v 2.386719 c -0.911676,-0.07445 -1.82844,-0.142634 -2.75,-0.203125 v -2.736328 h -1 v 2.673828 c -0.91216,-0.05463 -1.82891,-0.101815 -2.75,-0.142578 v -2.978516 h -1 v 2.935547 c -0.912601,-0.03525 -1.829347,-0.06253 -2.75,-0.08398 v -3.404297 h -1 v 3.382812 c -0.91301,-0.01622 -1.829753,-0.02489 -2.75,-0.02734 v -3.802735 z m -5.238281,6.726563 2.111328,5.671875 h 0.976562 l 2.144531,-5.671875 h -1.015624 l -1.591797,4.416015 -1.583985,-4.416015 z m 5.927734,0 v 3.695312 c 0,0.661334 0.19713,1.176922 0.591797,1.544922 0.394667,0.368 0.902818,0.552735 1.521484,0.552735 0.618667,0 1.124865,-0.184735 1.519532,-0.552735 0.399999,-0.368 0.599609,-0.883588 0.599609,-1.544922 v -3.695312 h -0.960938 v 3.640625 c 0,0.4 -0.100067,0.706588 -0.302734,0.919922 -0.202667,0.213333 -0.487469,0.320312 -0.855469,0.320312 -0.362666,0 -0.649422,-0.106979 -0.857422,-0.320312 -0.202666,-0.218667 -0.302734,-0.525255 -0.302734,-0.919922 V 26.470703 Z M 8.1583111,32.644531 c -0.264598,0.01528 -0.5235203,0.083 -0.761718,0.199219 -0.8168352,0.397856 -1.2628569,1.296316 -1.085938,2.1875 L 9.8008893,33.351562 C 9.3950859,32.870595 8.7865782,32.608669 8.1583111,32.644531 Z m 42.2324219,0 c -0.721701,-0.04257 -1.410199,0.307648 -1.800781,0.916015 -0.490284,0.764039 -0.404476,1.762461 0.208984,2.431641 l 2.111328,-3.246093 c -0.167912,-0.05672 -0.342619,-0.09088 -0.519531,-0.101563 z m 1.357422,0.646484 -2.111328,3.246094 c 0.866637,0.290974 1.820262,-0.04271 2.316406,-0.810547 0.49337,-0.764043 0.409107,-1.764763 -0.205078,-2.435547 z M 10.234483,34.251953 6.7442491,35.93164 c 0.5896227,0.698497 1.5777828,0.90835 2.4003904,0.509766 0.8191745,-0.396791 1.2671045,-1.296666 1.0898435,-2.189453 z"
         sodipodi:nodetypes="sccscsscscssccscsscscscccccscscscccccccccsscccscscscscsscscscscscscsccccscsccccscsccccsssccccccccccccccccccccccccccccccccccccccccccsccccccccccccccccccccccccccccccssscsccssscscccccccccccccccccccc" /><path
         id="NEEDLE_RIGHT"
         style="fill:#ffe7d1;fill-opacity:1;stroke:#ff0000;stroke-width:0.5;stroke-linecap:round;stroke-linejoin:round;stroke-dasharray:none;stroke-opacity:1"
         d="m 29.269531,15.949219 c -0.257891,0.0015 -0.47008,0.203438 -0.484375,0.460937 L 28.390625,49.669922 H 30.15625 L 29.759766,16.410156 c -0.01442,-0.259759 -0.230081,-0.462531 -0.490235,-0.460937 z"
         sodipodi:nodetypes="cccccc"
         inkscape:transform-center-y="-13.892126"
         inkscape:label="NEEDLE_RIGHT" /><path
         id="path41"
         style="baseline-shift:baseline;display:inline;overflow:visible;vector-effect:none;fill:#1f1f1f;stroke-linecap:round;stroke-linejoin:round;enable-background:accumulate;stop-color:#000000"
         d="M 4.7265625,9.3359375 C 3.2156534,9.3359375 2,10.551591 2,12.0625 v 34.544922 c 0,1.510909 1.2156534,2.728516 2.7265625,2.728516 H 53.818359 c 1.510909,-10e-7 2.726563,-1.217607 2.726563,-2.728516 V 12.0625 c 0,-1.510909 -1.215654,-2.7265625 -2.726563,-2.7265625 z M 3.7734375,11.949219 H 54.773438 v 27 H 35.132812 C 34.656541,37.199758 31.063102,35.989448 29.25,36 c -1.795688,0.01059 -5.364242,1.216559 -5.835938,2.949219 H 3.7734375 Z"
         sodipodi:nodetypes="sssscsssscccccccc" /><path
         style="baseline-shift:baseline;display:inline;overflow:visible;vector-effect:none;fill:#ffffff;stroke-linecap:round;stroke-linejoin:round;enable-background:accumulate;stop-color:#000000"
         d="M 4.7265625,8.8359375 C 2.947302,8.8359375 1.5,10.28324 1.5,12.0625 v 34.544922 c 0,1.77926 1.447302,3.228515 3.2265625,3.228515 H 53.818359 c 1.779261,0 3.226563,-1.449255 3.226563,-3.228515 V 12.0625 c 0,-1.77926 -1.447302,-3.2265625 -3.226563,-3.2265625 z m 0,1 H 53.818359 c 1.242558,0 2.226563,0.9840045 2.226563,2.2265625 v 34.544922 c 0,1.242558 -0.984005,2.228515 -2.226563,2.228515 H 4.7265625 C 3.4840048,48.835937 2.5,47.84998 2.5,46.607422 V 12.0625 c 0,-1.242558 0.9840048,-2.2265625 2.2265625,-2.2265625 z"
         id="path42" /><path
         style="fill:#ff0000;fill-opacity:1;stroke:none;stroke-width:1;stroke-linecap:round;stroke-linejoin:round;stroke-dasharray:none;stroke-opacity:1"
         id="path43"
         sodipodi:type="arc"
         sodipodi:cx="29.273438"
         sodipodi:cy="46.603237"
         sodipodi:rx="0.5"
         sodipodi:ry="0.5"
         sodipodi:start="0"
         sodipodi:end="6.2759047"
         sodipodi:open="true"
         sodipodi:arc-type="arc"
         d="m 29.773437,46.603237 a 0.5,0.5 0 0 1 -0.499089,0.499999 0.5,0.5 0 0 1 -0.500907,-0.498179 0.5,0.5 0 0 1 0.497266,-0.501812 0.5,0.5 0 0 1 0.502717,0.496352" /></g><rect
       style="fill:none;fill-opacity:1;stroke:#ffffff;stroke-width:0.5;stroke-linecap:round;stroke-linejoin:round;stroke-dasharray:none;stroke-opacity:1"
       id="rect43"
       width="11"
       height="56"
       x="58.5"
       y="4.1910257" /><path
       d="m 26.024462,58.948692 h -3.56 v -5.672 h 0.96 v 4.76 h 2.6 z m 1.431996,-2.376 h 1.912 q -0.016,-0.368 -0.264,-0.616 -0.24,-0.248 -0.696,-0.248 -0.416,0 -0.672,0.264 -0.256,0.256 -0.28,0.6 z m 2.016,1.016 0.784,0.248 q -0.168,0.536 -0.632,0.888 -0.456,0.344 -1.128,0.344 -0.832,0 -1.416,-0.568 -0.576,-0.568 -0.576,-1.52 0,-0.896 0.56,-1.472 0.568,-0.576 1.336,-0.576 0.896,0 1.4,0.552 0.504,0.544 0.504,1.472 0,0.248 -0.024,0.296 h -2.848 q 0.016,0.44 0.32,0.728 0.312,0.288 0.744,0.288 0.752,0 0.976,-0.68 z m 3.448003,-3.64 q -0.232,0 -0.408,0.136 -0.168,0.128 -0.168,0.456 v 0.512 h 0.904 v 0.808 h -0.904 v 3.088 h -0.936 v -3.088 h -0.68 v -0.808 h 0.68 v -0.536 q 0,-0.648 0.376,-1.024 0.376,-0.376 0.984,-0.376 0.328,0 0.488,0.08 v 0.792 q -0.136,-0.04 -0.336,-0.04 z m 2.343996,-0.088 v 1.192 h 0.808 v 0.824 h -0.808 v 1.808 q 0,0.256 0.12,0.376 0.12,0.112 0.376,0.112 0.16,0 0.32,-0.032 v 0.768 q -0.208,0.088 -0.568,0.088 -0.544,0 -0.856,-0.304 -0.312,-0.312 -0.312,-0.856 v -1.96 h -0.72 v -0.824 h 0.2 q 0.296,0 0.448,-0.168 0.152,-0.168 0.152,-0.44 v -0.584 z"
       id="text43"
       style="font-size:8px;line-height:1.1;font-family:'Circular Std Medium';-inkscape-font-specification:'Circular Std Medium, ';text-align:center;letter-spacing:0px;word-spacing:0.0022px;text-anchor:middle;fill:#ffffff;stroke-width:0.5;stroke-linecap:round;stroke-linejoin:round"
       aria-label="Left" /><path
       d="m 92.480462,58.208694 -1.192,-2.24 h -0.704 v 2.24 h -0.968 v -5.672 h 2.176 q 0.8,0 1.288,0.496 0.488,0.488 0.488,1.224 0,0.608 -0.344,1.04 -0.344,0.432 -0.936,0.576 l 1.28,2.336 z m -1.896,-3.088 h 1.032 q 0.44,0 0.704,-0.232 0.272,-0.24 0.272,-0.632 0,-0.4 -0.272,-0.632 -0.264,-0.24 -0.704,-0.24 h -1.032 z m 4.847998,3.088 h -0.92 v -3.896 h 0.92 z m -0.888,-4.84 q -0.176,-0.176 -0.176,-0.424 0,-0.248 0.176,-0.424 0.176,-0.184 0.424,-0.184 0.256,0 0.432,0.176 0.176,0.176 0.176,0.432 0,0.248 -0.176,0.424 -0.176,0.176 -0.432,0.176 -0.248,0 -0.424,-0.176 z m 1.807995,5.056 0.856,-0.224 q 0.048,0.368 0.312,0.6 0.272,0.24 0.664,0.24 1.104,0 1.104,-1.168 v -0.408 q -0.136,0.248 -0.432,0.408 -0.296,0.16 -0.696,0.16 -0.784,0 -1.296,-0.536 -0.504,-0.536 -0.504,-1.36 0,-0.792 0.504,-1.344 0.504,-0.552 1.296,-0.552 0.856,0 1.152,0.568 v -0.496 h 0.896005 v 3.528 q 0,0.864 -0.488005,1.432 -0.488,0.576 -1.512,0.576 -0.752,0 -1.264,-0.408 -0.512,-0.408 -0.592,-1.016 z m 1.96,-1.184 q 0.448,0 0.72,-0.296 0.28,-0.304 0.28,-0.808 0,-0.496 -0.28,-0.792 -0.28,-0.304 -0.72,-0.304 -0.448,0 -0.736,0.304 -0.28,0.296 -0.28,0.792 0,0.504 0.28,0.808 0.28,0.296 0.736,0.296 z m 3.960005,-1.32 v 2.288 h -0.928 v -5.792 h 0.928 v 2.272 q 0.376,-0.488 1.112,-0.488 0.688,0 1.056,0.432 0.368,0.432 0.368,1.112 v 2.464 h -0.928 v -2.304 q 0,-0.392 -0.192,-0.624 -0.192,-0.24 -0.608,-0.24 -0.368,0 -0.584,0.248 -0.208,0.248 -0.224,0.632 z m 4.84,-2.8 v 1.192 h 0.808 v 0.824 h -0.808 v 1.808 q 0,0.256 0.12,0.376 0.12,0.112 0.376,0.112 0.16,0 0.32,-0.032 v 0.768 q -0.208,0.088 -0.568,0.088 -0.544,0 -0.856,-0.304 -0.312,-0.312 -0.312,-0.856 v -1.96 h -0.72 v -0.824 h 0.2 q 0.296,0 0.448,-0.168 0.152,-0.168 0.152,-0.44 v -0.584 z"
       id="text44"
       style="font-size:8px;line-height:1.1;font-family:'Circular Std Medium';-inkscape-font-specification:'Circular Std Medium, ';text-align:center;letter-spacing:0px;word-spacing:0.0022px;text-anchor:middle;fill:#ffffff;stroke-width:0.5;stroke-linecap:round;stroke-linejoin:round"
       aria-label="Right" /><g
       id="layer1-5"
       transform="matrix(0.43835912,0,0,1.0040909,7.8900326,-1.0453066)"><path
         id="PEAK_00"
         style="fill:#607524;fill-opacity:0.5;stroke-width:9.3;stroke-linecap:round;stroke-linejoin:round"
         d="m 118,57.39027 h 20 v 2 h -20 z"
         inkscape:label="peak -36dB" /><path
         id="PEAK_18"
         style="fill:#ff001e;fill-opacity:0.5;stroke-width:9.3;stroke-linecap:round;stroke-linejoin:round"
         d="m 118,7.3902702 h 20 v 2 h -20 z"
         inkscape:label="peak 8 dB" /><path
         d="m 118,10.168 h 20 v 2 h -20 z"
         style="fill:#ff001e;fill-opacity:0.5;stroke-width:9.3;stroke-linecap:round;stroke-linejoin:round"
         id="PEAK_17"
         inkscape:label="peak 5 dB" /><path
         d="m 118,12.9458 h 20 v 2 h -20 z"
         style="fill:#ff001e;fill-opacity:0.5;stroke-width:9.3;stroke-linecap:round;stroke-linejoin:round"
         id="PEAK_16"
         inkscape:label="peak 3 dB" /><path
         d="m 118,15.7236 h 20 v 2 h -20 z"
         style="fill:#ff001e;fill-opacity:0.5;stroke-width:9.3;stroke-linecap:round;stroke-linejoin:round"
         id="PEAK_15"
         inkscape:label="peak 2 dB" /><path
         d="m 118,18.5014 h 20 v 2 h -20 z"
         style="fill:#607524;fill-opacity:0.5;stroke-width:9.3;stroke-linecap:round;stroke-linejoin:round"
         id="PEAK_14"
         inkscape:label="peak 0 dB" /><path
         d="m 118,21.2792 h 20 v 2 h -20 z"
         style="fill:#607524;fill-opacity:0.5;stroke-width:9.3;stroke-linecap:round;stroke-linejoin:round"
         id="PEAK_13"
         inkscape:label="peak -1 dB" /><path
         d="m 118,24.0569 h 20 v 2 h -20 z"
         style="fill:#607524;fill-opacity:0.5;stroke-width:9.3;stroke-linecap:round;stroke-linejoin:round"
         id="PEAK_12"
         inkscape:label="peak -2 dB" /><path
         d="m 118,26.8347 h 20 v 2 h -20 z"
         style="fill:#607524;fill-opacity:0.5;stroke-width:9.3;stroke-linecap:round;stroke-linejoin:round"
         id="PEAK_11"
         inkscape:label="peak -3 dB" /><path
         d="m 118,29.6125 h 20 v 2 h -20 z"
         style="fill:#607524;fill-opacity:0.5;stroke-width:9.3;stroke-linecap:round;stroke-linejoin:round"
         id="PEAK_10"
         inkscape:label="peak -4 dB" /><path
         d="m 118,32.3903 h 20 v 2 h -20 z"
         style="fill:#607524;fill-opacity:0.5;stroke-width:9.3;stroke-linecap:round;stroke-linejoin:round"
         id="PEAK_09"
         inkscape:label="peak -5 dB" /><path
         d="m 118,35.168 h 20 v 2 h -20 z"
         style="fill:#607524;fill-opacity:0.5;stroke-width:9.3;stroke-linecap:round;stroke-linejoin:round"
         id="PEAK_08"
         inkscape:label="peak -6 dB" /><path
         d="m 118,37.9458 h 20 v 2 h -20 z"
         style="fill:#607524;fill-opacity:0.5;stroke-width:9.3;stroke-linecap:round;stroke-linejoin:round"
         id="PEAK_07"
         inkscape:label="peak -7dB" /><path
         d="m 118,40.7236 h 20 v 2 h -20 z"
         style="fill:#607524;fill-opacity:0.5;stroke-width:9.3;stroke-linecap:round;stroke-linejoin:round"
         id="PEAK_06"
         inkscape:label="peak -8dB" /><path
         d="m 118,43.5014 h 20 v 2 h -20 z"
         style="fill:#607524;fill-opacity:0.5;stroke-width:9.3;stroke-linecap:round;stroke-linejoin:round"
         id="PEAK_05"
         inkscape:label="peak -10dB" /><path
         d="m 118,46.2792 h 20 v 2 h -20 z"
         style="fill:#607524;fill-opacity:0.5;stroke-width:9.3;stroke-linecap:round;stroke-linejoin:round"
         id="PEAK_04"
         inkscape:label="peak -13dB" /><path
         d="m 118,49.0569 h 20 v 2 h -20 z"
         style="fill:#607524;fill-opacity:0.5;stroke-width:9.3;stroke-linecap:round;stroke-linejoin:round"
         id="PEAK_03"
         inkscape:label="peak -17dB" /><path
         d="m 118,51.8347 h 20 v 2 h -20 z"
         style="fill:#607524;fill-opacity:0.5;stroke-width:9.3;stroke-linecap:round;stroke-linejoin:round"
         id="PEAK_02"
         inkscape:label="peak -20dB" /><path
         d="m 118,54.6125 h 20 v 2 h -20 z"
         style="fill:#607524;fill-opacity:0.5;stroke-width:9.3;stroke-linecap:round;stroke-linejoin:round"
         id="PEAK_01"
         inkscape:label="Peak -30 dB" /></g></g></svg>
