<?xml version="1.0" encoding="UTF-8" standalone="no"?>
<!-- Created with Inkscape (http://www.inkscape.org/) -->

<svg
   width="128"
   height="64"
   viewBox="0 0 33.866666 16.933333"
   version="1.1"
   id="svg1"
   xml:space="preserve"
   inkscape:export-filename="vu2up1309"
   inkscape:export-xdpi="90"
   inkscape:export-ydpi="90"
   inkscape:version="1.4.2 (2aeb623e1d, 2025-05-12)"
   sodipodi:docname="histaio.svg"
   xmlns:inkscape="http://www.inkscape.org/namespaces/inkscape"
   xmlns:sodipodi="http://sodipodi.sourceforge.net/DTD/sodipodi-0.dtd"
   xmlns="http://www.w3.org/2000/svg"
   xmlns:svg="http://www.w3.org/2000/svg"><sodipodi:namedview
     id="namedview1"
     pagecolor="#ffffff"
     bordercolor="#666666"
     borderopacity="1.0"
     inkscape:showpageshadow="false"
     inkscape:pageopacity="0.0"
     inkscape:pagecheckerboard="0"
     inkscape:deskcolor="#d1d1d1"
     inkscape:document-units="px"
     inkscape:zoom="3.6314718"
     inkscape:cx="25.471766"
     inkscape:cy="-40.754826"
     inkscape:window-width="1920"
     inkscape:window-height="1009"
     inkscape:window-x="0"
     inkscape:window-y="32"
     inkscape:window-maximized="1"
     inkscape:current-layer="layer1"
     showgrid="false" /><defs
     id="defs1" /><g
     inkscape:label="Layer 1"
     inkscape:groupmode="layer"
     id="layer1"><rect
       style="fill:#000000;fill-opacity:1;stroke-width:0.79375;stroke-linejoin:round;stroke-miterlimit:0"
       id="backer"
       width="33.866665"
       height="16.933332"
       x="5.567627e-07"
       y="2.7838135e-07"
       sodipodi:insensitive="true" /><path
       id="meter-R"
       style="baseline-shift:baseline;display:inline;overflow:visible;opacity:1;vector-effect:none;fill:#ffffff;stroke-linejoin:round;stroke-miterlimit:0;enable-background:accumulate;stop-color:#000000;stop-opacity:1"
       d="m 17.595309,0.79375095 c -0.07346,-2.7999e-4 -0.133088,0.0593447 -0.132808,0.13280839 V 16.272393 c -2.8e-4,0.07346 0.05935,0.133088 0.132808,0.132808 h 15.345834 c 0.07346,2.8e-4 0.133088,-0.05935 0.132808,-0.132808 V 0.92655934 c 2.8e-4,-0.0734637 -0.05934,-0.13308838 -0.132808,-0.13280839 z m 0.133325,0.26613365 h 15.0797 V 12.171868 H 17.77721 v 0.26355 h 15.031124 v 0.265617 H 17.77721 v 0.265617 h 15.031124 v 3.172932 h -15.0797 z"
       sodipodi:nodetypes="cccccccccccccccccccccc" /><path
       id="path1"
       style="font-size:1.41111px;line-height:1.1;font-family:mry_KacstQurn;-inkscape-font-specification:mry_KacstQurn;text-align:center;letter-spacing:0px;baseline-shift:baseline;text-anchor:middle;display:inline;overflow:visible;vector-effect:none;fill:#ffffff;stroke-miterlimit:0;enable-background:accumulate;stop-color:#000000"
       d="M 27.4314 13.732495 L 27.298592 13.863236 L 27.298592 14.023433 L 27.369388 14.093713 L 27.298592 14.163993 L 27.298592 14.42961 C 27.292792 14.326087 27.275483 14.226493 27.216943 14.150557 C 27.149283 14.062957 27.038935 14.013615 26.927555 14.013615 C 26.847835 14.013615 26.768004 14.033026 26.701212 14.074076 C 26.687042 14.082776 26.681029 14.100893 26.668139 14.111283 C 26.659039 14.103083 26.656405 14.089018 26.646435 14.081828 C 26.583315 14.036358 26.505661 14.013615 26.427844 14.013615 C 26.354404 14.013615 26.281493 14.029218 26.218554 14.064258 C 26.217354 14.06494 26.216137 14.065625 26.214937 14.066325 L 26.179797 14.031185 L 26.052673 14.031185 L 25.919864 14.163993 L 25.919864 14.418241 C 25.912264 14.31655 25.898489 14.217426 25.837699 14.144356 C 25.765369 14.056686 25.651463 14.013615 25.535392 14.013615 C 25.462802 14.013615 25.390784 14.029478 25.328169 14.064258 L 25.326102 14.064258 L 25.326102 14.064774 L 25.325585 14.064774 L 25.325069 14.065291 C 25.324437 14.065967 25.323633 14.067201 25.323002 14.067875 L 25.322485 14.068392 L 25.285278 14.031185 L 25.158154 14.031185 L 25.052734 14.136605 L 24.970568 14.031185 L 24.843961 14.031185 L 24.71477 14.13092 L 24.683764 14.246159 L 24.654309 14.13092 L 24.527185 14.031185 L 24.376806 14.031185 L 24.250199 14.13092 L 24.218676 14.246159 L 24.189221 14.13092 L 24.060546 14.031185 L 23.933422 14.031185 L 23.810432 14.191382 C 23.805032 14.184482 23.808481 14.17266 23.802681 14.16606 C 23.714481 14.065622 23.582437 14.013615 23.44353 14.013615 C 23.304286 14.013615 23.172174 14.065506 23.083862 14.16606 C 23.045552 14.21 23.049515 14.278714 23.029085 14.334009 C 23.012385 14.177716 22.9828 14.027187 22.877156 13.933516 C 22.748955 13.819208 22.567287 13.775386 22.34954 13.775386 L 22.064286 13.775386 L 21.931477 13.908195 L 21.931477 14.935522 L 22.064286 15.068331 L 22.34954 15.068331 C 22.566454 15.068331 22.746705 15.024114 22.875089 14.910201 C 22.949419 14.844251 22.953424 14.72678 22.982576 14.627014 C 22.995146 14.740994 23.0137 14.854529 23.083862 14.935522 C 23.172172 15.036078 23.304284 15.087968 23.44353 15.087968 C 23.582439 15.087968 23.714479 15.035966 23.802681 14.935522 C 23.878691 14.848422 23.90285 14.728302 23.912235 14.603759 L 24.007836 14.968595 L 24.136511 15.068331 L 24.285339 15.068331 L 24.414013 14.968595 L 24.453287 14.824418 L 24.489978 14.968595 L 24.619169 15.068331 L 24.76748 15.068331 L 24.896671 14.968595 L 25.025345 14.474568 L 25.025345 14.935522 L 25.158154 15.068331 L 25.285278 15.068331 L 25.418086 14.935522 L 25.418086 14.49989 C 25.418086 14.44769 25.427201 14.425533 25.441341 14.409973 C 25.455331 14.394513 25.465616 14.388786 25.505936 14.388786 C 25.520366 14.388786 25.52616 14.389169 25.528157 14.389819 L 25.528674 14.389819 L 25.528674 14.390336 L 25.528674 14.390853 L 25.528674 14.391369 L 25.528674 14.391886 L 25.529191 14.391886 L 25.529191 14.392403 C 25.531091 14.394803 25.544694 14.418728 25.544694 14.474568 L 25.544694 14.935522 L 25.677502 15.068331 L 25.804626 15.068331 L 25.927616 14.943274 L 26.052673 15.068331 L 26.179797 15.068331 L 26.312605 14.935522 L 26.312605 14.49989 C 26.312605 14.44747 26.32242 14.423833 26.33586 14.408423 C 26.34975 14.392363 26.355897 14.388786 26.390637 14.388786 C 26.40231 14.388786 26.404887 14.388323 26.405623 14.388269 C 26.405264 14.388278 26.404849 14.388757 26.404589 14.388786 L 26.40614 14.388786 C 26.405925 14.388496 26.420092 14.415668 26.420092 14.474568 L 26.420092 14.935522 L 26.550834 15.068331 L 26.679508 15.068331 L 26.810766 14.935522 L 26.810766 14.49989 C 26.810766 14.44688 26.822778 14.423663 26.836088 14.408423 C 26.849448 14.393133 26.856025 14.388786 26.892415 14.388786 C 26.898237 14.388786 26.902083 14.388859 26.9043 14.388786 C 26.904899 14.389606 26.918253 14.416218 26.918253 14.474568 L 26.918253 14.935522 L 27.051061 15.068331 L 27.177669 15.068331 L 27.304793 14.941207 L 27.431917 15.068331 L 27.558524 15.068331 L 27.671695 14.953092 L 27.730607 15.068331 L 27.880985 15.068331 L 27.986405 15.015621 L 28.105261 14.855424 L 28.222566 15.015621 L 28.330053 15.068331 L 28.478365 15.068331 L 28.585851 14.857491 L 28.34969 14.539164 L 28.570349 14.244092 L 28.464929 14.031185 L 28.31455 14.031185 L 28.20913 14.085962 L 28.109395 14.216703 L 28.011726 14.085962 L 27.906306 14.031185 L 27.755928 14.031185 L 27.689265 14.163993 L 27.621053 14.093713 L 27.689265 14.023433 L 27.689265 13.863236 L 27.558524 13.732495 L 27.4314 13.732495 z M 22.336104 14.154175 L 22.371244 14.154175 C 22.493203 14.154175 22.558185 14.182106 22.589835 14.213086 C 22.621765 14.243906 22.650297 14.30315 22.650297 14.419791 C 22.650297 14.537488 22.621895 14.599467 22.589835 14.630631 C 22.558185 14.661621 22.493204 14.689542 22.371244 14.689542 L 22.336104 14.689542 L 22.336104 14.154175 z M 27.689265 14.296801 L 27.865482 14.532963 L 27.689265 14.769641 L 27.689265 14.296801 z M 23.44353 14.384651 C 23.47594 14.384651 23.480097 14.3873 23.498307 14.41204 C 23.516257 14.43625 23.53138 14.478181 23.53138 14.550533 C 23.53138 14.623433 23.516147 14.665473 23.498307 14.689542 C 23.480277 14.713862 23.47626 14.716931 23.44353 14.716931 C 23.40913 14.716931 23.406323 14.712982 23.388753 14.689542 C 23.371523 14.665472 23.35568 14.623245 23.35568 14.550533 C 23.35568 14.477073 23.371383 14.435266 23.388753 14.41204 C 23.406633 14.38792 23.41011 14.384651 23.44353 14.384651 z " /></g></svg>
