<?xml version="1.0" encoding="UTF-8" standalone="no"?>
<!-- Created with Inkscape (http://www.inkscape.org/) -->

<svg
   width="128"
   height="64"
   viewBox="0 0 128 64"
   version="1.1"
   id="svg1"
   xmlns="http://www.w3.org/2000/svg"
   xmlns:svg="http://www.w3.org/2000/svg">
  <rect
     style="fill:#000000;fill-opacity:1"
     id="rect2"
     width="128"
     height="64"
     x="0"
     y="0" />
  <path
     id="rect33"
     style="fill:#ffffff;fill-opacity:1"
     d="M 115.37848,26.133207 V 28.5899 h -1 v -2.456693 z m -5.87848,16 V 46.5899 h -1 v -4.456693 z m -6.63207,-16 V 28.5899 h -1 v -2.456693 z m -6.36793,16 V 46.5899 h -1 v -4.456693 z m -6.040508,-16 V 28.5899 h -1 V 26.133207 Z M 84.5,42.133653 v 4.456694 h -1 v -4.456694 z m -12,-4.46e-4 V 46.5899 h -1 v -4.456693 z m -7.298862,-16 V 28.5899 h -1 v -2.456693 z m -5.701138,16 V 46.5899 h -1 v -4.456693 z m -6.69107,-16 V 28.5899 h -1 v -2.456693 z m -6.30893,16 V 46.5899 h -1 v -4.456693 z m -6.5,-16 V 28.5899 h -1 v -2.456693 z m -5.970917,16.000446 v 4.456694 h -1 V 42.133653 Z M 28.145416,26.133207 V 28.5899 h -1 v -2.456693 z m -6.058166,16 V 46.5899 h -1 v -4.456693 z" />
  <path
     id="text1"
     style="fill:#ffffff"
     d="M 7,6.6523438 V 12.652344 H 8.1992188 V 10.253906 H 11.800781 V 9.0527344 H 8.1992188 V 7.8535156 H 11.800781 V 6.6523438 Z m 4.800781,1.2011718 V 9.0527344 H 13 V 7.8535156 Z m 2.398438,-1.2011718 v 4.8007812 h 1.201172 v -1.199219 h 2.40039 V 9.0527344 h -2.40039 V 7.8535156 h 4.798828 V 6.6523438 Z m 1.201172,4.8007812 v 1.199219 h 4.798828 v -1.199219 z m 6,-4.8007812 v 6.0000002 h 1.199218 v -2.398438 h 3.59961 v 2.398438 h 1.201172 V 7.8535156 h -1.201172 v 1.1992188 h -3.59961 V 7.8535156 h 3.59961 V 6.6523438 Z m 7.199218,0 v 6.0000002 h 1.201172 v -2.398438 h 2.398438 V 7.8535156 H 31 V 9.0527344 H 29.800781 V 6.6523438 Z m 3.59961,1.2011718 h 2.40039 V 6.6523438 h -2.40039 z m 0,2.4003904 v 1.199219 h 1.201172 v -1.199219 z m 1.201172,1.199219 v 1.199219 h 1.199218 v -1.199219 z m 9.601562,-4.8007812 v 4.8007812 h 1.201172 V 6.6523438 Z m 1.201172,4.8007812 v 1.199219 h 4.798828 v -1.199219 z m 6,-4.8007812 v 4.8007812 h 1.199219 v -1.199219 h 2.40039 V 9.0527344 h -2.40039 V 7.8535156 h 4.800781 V 6.6523438 Z m 1.199219,4.8007812 v 1.199219 h 4.800781 v -1.199219 z m 6,-4.8007812 v 2.4003906 h 1.199218 V 6.6523438 Z m 1.199218,2.4003906 v 2.4003906 h 1.201172 V 9.0527344 Z m 1.201172,2.4003906 v 1.199219 h 1.199219 v -1.199219 z m 1.199219,0 h 1.201172 V 9.0527344 h -1.201172 z m 1.201172,-2.4003906 h 1.199219 V 6.6523438 h -1.199219 z m 2.398437,-2.4003906 v 4.8007812 h 1.201172 v -1.199219 h 2.400391 V 9.0527344 H 65.802734 V 7.8535156 h 4.798828 V 6.6523438 Z m 1.201172,4.8007812 v 1.199219 h 4.798828 v -1.199219 z m 6,-4.8007812 v 4.8007812 h 1.199219 V 6.6523438 Z m 1.199219,4.8007812 v 1.199219 h 4.800781 V 11.453125 Z M 86.205078,6.6523438 v 6.0000002 h 1.199219 V 9.0527344 h 1.199219 V 7.8535156 H 87.404297 V 6.6523438 Z m 2.398438,2.4003906 v 1.2011716 h 1.201172 V 9.0527344 Z m 1.201172,0 h 1.199218 v 3.5996096 h 1.201172 V 6.6523438 h -1.201172 v 1.2011718 h -1.199218 z m 3.599609,-2.4003906 v 4.8007812 h 1.199219 v -1.199219 h 2.40039 V 9.0527344 h -2.40039 V 7.8535156 h 4.800781 V 6.6523438 Z m 1.199219,4.8007812 v 1.199219 h 4.800781 v -1.199219 z m 6.000004,-4.8007812 v 2.4003906 h 1.20117 V 7.8535156 h 1.19922 v 4.7988284 h 1.20117 V 7.8535156 h 1.19922 v 1.1992188 h 1.19922 V 6.6523438 Z m 7.20117,0 v 4.8007812 h 1.19922 v -1.199219 h 2.40039 V 9.0527344 h -2.40039 V 7.8535156 h 4.80078 V 6.6523438 Z m 1.19922,4.8007812 v 1.199219 h 4.80078 v -1.199219 z m 6,-4.8007812 v 6.0000002 h 1.20117 v -2.398438 h 1.19922 v 1.199219 h 1.19922 v -1.199219 h 1.20117 V 9.0527344 h -3.59961 V 7.8535156 h 3.59961 V 6.6523438 Z m 4.80078,1.2011718 v 1.1992188 h 1.19922 V 7.8535156 Z m -1.20117,3.5996094 v 1.199219 h 2.40039 v -1.199219 z" />
  <path
     id="text2"
     style="fill:#ffffff"
     d="m 8.8007812,31.958984 v 2.400391 H 5.2011718 v 1.199219 h 3.5996094 v 1.201172 H 5.2011718 v 1.199218 H 10 v -6 z M 5.2011718,36.759766 V 35.558594 H 4 v 1.201172 z m 5.8476562,-4.800782 v 6 H 15.84961 V 36.759766 H 12.25 v -1.201172 h 3.59961 V 34.359375 H 12.25 v -1.201172 h 3.59961 v -1.199219 z m 4.800782,1.199219 v 1.201172 h 1.199219 v -1.201172 z m 0,2.400391 v 1.201172 h 1.199219 v -1.201172 z" />
  <path
     id="text4"
     style="fill:#ffffff"
     d="m 24.800781,21 v 0.800781 H 28 V 21 Z M 28,21.800781 v 0.798828 h 0.800781 v -0.798828 z m 0,0.798828 h -2.400391 v 0.800782 H 28 Z m -2.400391,0.800782 H 24.800781 V 25 h 4 V 24.199219 H 25.599609 Z M 30.400391,21 v 0.800781 H 32 v 0.798828 h 0.800781 v 1.59961 h 0.798828 V 21.800781 H 32.800781 V 21 Z m 2.40039,3.199219 h -1.601562 v -0.798828 h -0.798828 v -1.59961 h -0.800782 v 2.398438 h 0.800782 V 25 h 2.40039 z M 31.199219,23.400391 H 32 V 22.599609 H 31.199219 Z M 22,23 v 1.009766 h 2 V 23 Z" />
  <path
     id="text5"
     style="fill:#ffffff"
     d="m 40.599609,21 v 0.800781 h 0.800782 v 2.398438 h -1.59961 V 25 h 4 V 24.199219 H 42.199219 V 21 Z m 0,0.800781 h -0.798828 v 0.798828 h 0.798828 z M 45.400391,21 v 0.800781 H 47 v 0.798828 h 0.800781 v 1.59961 h 0.798828 V 21.800781 H 47.800781 V 21 Z m 2.40039,3.199219 h -1.601562 v -0.798828 h -0.798828 v -1.59961 h -0.800782 v 2.398438 h 0.800782 V 25 h 2.40039 z M 46.199219,23.400391 H 47 V 22.599609 H 46.199219 Z M 37,23 v 1.009766 h 2 V 23 Z" />
  <path
     id="text6"
     style="fill:#ffffff"
     d="m 54,21 v 2.400391 h 3.199219 V 22.599609 H 54.800781 V 21.800781 H 58 V 21 Z m 3.199219,2.400391 v 0.798828 H 58 v -0.798828 z m 0,0.798828 H 54 V 25 h 3.199219 z M 51,23 v 1.009766 h 2 V 23 Z" />
  <path
     id="text7"
     style="fill:#ffffff"
     d="m 64.800781,21 v 0.800781 H 68 V 21 Z M 68,21.800781 v 0.798828 h 0.800781 v -0.798828 z m 0,0.798828 h -2.400391 v 0.800782 H 68 Z m -2.400391,0.800782 H 64.800781 V 25 h 4 V 24.199219 H 65.599609 Z M 62,23 v 1.009766 h 2 V 23 Z" />
  <path
     d="m 87.000006,21.8 h 3.2 V 21 h -3.2 z m 0,3.2 h 4 v -0.8 h -3.2 v -0.8 h 2.4 v -0.8 h -2.4 v 0.8 h -0.8 z m 3.2,-2.4 h 0.8 v -0.8 h -0.8 z"
     id="text8"
     style="fill:#ffffff"
     aria-label="2" />
  <path
     d="m 103.00001,23.4 h -0.8 v 0.8 h 0.8 z M 99.000006,25 h 3.200004 v -0.8 h -3.200004 z m 0,-1.6 h 3.200004 v -0.8 h -2.400004 v -0.8 h 3.200004 V 21 h -4.000004 z"
     id="text9"
     style="fill:#ffffff"
     aria-label="5" />
  <path
     d="m 109.00001,25 h 4 v -0.8 h -1.6 V 21 h -1.6 v 0.8 h -0.8 v 0.8 h 0.8 v -0.8 h 0.8 v 2.4 h -1.6 z m 4.8,-3.2 v 2.4 h 0.8 V 25 h 2.4 v -0.8 h 0.8 v -2.4 h -0.8 V 21 h -2.4 v 0.8 z m 0.8,1.6 v -1.6 h 1.6 v 0.8 h -0.8 v 0.8 z m 0.8,0 h 0.8 v -0.8 h 0.8 v 1.6 h -1.6 z"
     id="text10"
     style="fill:#ffffff"
     aria-label="10" />
  <path
     d="m 76,21.8 v 2.4 h 0.8 V 25 h 2.4 V 24.2 H 80 V 21.8 H 79.2 V 21 h -2.4 v 0.8 z m 0.8,1.6 v -1.6 h 1.6 v 0.8 h -0.8 v 0.8 z m 0.8,0 h 0.8 v -0.8 h 0.8 v 1.6 h -1.6 z"
     id="text12"
     style="fill:#ffffff"
     aria-label="0" />
  <path
     id="PEAK_00"
     d="m 21.076491,30.52945 c -0.0019,0 -0.0033,0.01957 -0.0033,0.04031 v 9.772775 c 0,0.02192 0.0014,0.04031 0.0033,0.04031 h 3.850318 v -9.85369 z"
     style="fill:#d6fffb;fill-opacity:{{peak_00}}" />
  <path
     id="PEAK_01"
     d="m 27.0765,30.5295 c -0.0019,0 -0.0033,0.0196 -0.0033,0.0403 v 9.7728 c 0,0.0219 0.0014,0.0403 0.0033,0.0403 h 3.8503 v -9.8537 z"
     style="fill:#d6fffb;fill-opacity:{{peak_01}}" />
  <path
     id="PEAK_02"
     d="m 33.0764,30.5295 c -0.0019,0 -0.0032,0.0196 -0.0032,0.0403 v 9.7728 c 0,0.0219 0.0013,0.0403 0.0032,0.0403 h 3.8504 v -9.8537 z"
     style="fill:#d6fffb;fill-opacity:{{peak_02}}" />
  <path
     id="PEAK_03"
     d="m 39.07645,30.5295 c -0.0019,0 -0.0032,0.0196 -0.0032,0.0403 v 9.7728 c 0,0.0219 0.0013,0.0403 0.0032,0.0403 h 3.8503 v -9.8537 z"
     style="fill:#d6fffb;fill-opacity:{{peak_03}}" />
  <path
     id="PEAK_04"
     d="m 45.07645,30.5295 c -0.002,0 -0.0032,0.0196 -0.0032,0.0403 v 9.7728 c 0,0.0219 0.0012,0.0403 0.0032,0.0403 h 3.8503 v -9.8537 z"
     style="fill:#d6fffb;fill-opacity:{{peak_04}}" />
  <path
     id="PEAK_05"
     d="m 51.0764,30.5295 c -0.0019,0 -0.0032,0.0196 -0.0032,0.0403 v 9.7728 c 0,0.0219 0.0013,0.0403 0.0032,0.0403 h 3.8504 v -9.8537 z"
     style="fill:#d6fffb;fill-opacity:{{peak_05}}" />
  <path
     id="PEAK_06"
     d="m 57.07645,30.5295 c -0.0019,0 -0.0032,0.0196 -0.0032,0.0403 v 9.7728 c 0,0.0219 0.0013,0.0403 0.0032,0.0403 h 3.8503 v -9.8537 z"
     style="fill:#d6fffb;fill-opacity:{{peak_06}}" />
  <path
     id="PEAK_07"
     d="m 63.07645,30.5295 c -0.002,0 -0.0032,0.0196 -0.0032,0.0403 v 9.7728 c 0,0.0219 0.0012,0.0403 0.0032,0.0403 h 3.8503 v -9.8537 z"
     style="fill:#d6fffb;fill-opacity:{{peak_07}}" />
  <path
     id="PEAK_08"
     d="m 69.07635,30.5295 c -0.0019,0 -0.0031,0.0196 -0.0031,0.0403 v 9.7728 c 0,0.0219 0.0012,0.0403 0.0031,0.0403 h 3.8504 v -9.8537 z"
     style="fill:#d6fffb;fill-opacity:{{peak_08}}" />
  <path
     id="PEAK_09"
     d="m 75.0764,30.5295 c -0.002,0 -0.0031,0.0196 -0.0031,0.0403 v 9.7728 c 0,0.0219 0.0011,0.0403 0.0031,0.0403 h 3.8503 v -9.8537 z"
     style="fill:#d6fffb;fill-opacity:{{peak_09}}" />
  <path
     id="PEAK_10"
     d="m 81.0764,30.5295 c -0.002,0 -0.0031,0.0196 -0.0031,0.0403 v 9.7728 c 0,0.0219 0.0011,0.0403 0.0031,0.0403 h 3.8503 v -9.8537 z"
     style="fill:#d6fffb;fill-opacity:{{peak_10}}" />
  <path
     id="PEAK_11"
     d="m 87.0763,30.5295 c -0.0019,0 -0.003,0.0196 -0.003,0.0403 v 9.7728 c 0,0.0219 0.0011,0.0403 0.003,0.0403 h 3.8504 v -9.8537 z"
     style="fill:#d6fffb;fill-opacity:{{peak_11}}" />
  <path
     id="PEAK_12"
     d="m 93.0764,30.5295 c -0.002,0 -0.0031,0.0196 -0.0031,0.0403 v 9.7728 c 0,0.0219 0.0011,0.0403 0.0031,0.0403 h 3.8503 v -9.8537 z"
     style="fill:#d6fffb;fill-opacity:{{peak_12}}" />
  <path
     id="PEAK_13"
     d="m 99.0765,30.5295 c -0.002,0 -0.003,0.0196 -0.003,0.0403 v 9.7728 c 0,0.0219 0.001,0.0403 0.003,0.0403 h 3.85 v -9.8537 z"
     style="fill:#d6fffb;fill-opacity:{{peak_13}}" />
  <path
     id="PEAK_14"
     d="m 105.0765,30.5295 c -0.002,0 -0.003,0.0196 -0.003,0.0403 v 9.7728 c 0,0.0219 0.001,0.0403 0.003,0.0403 h 3.85 v -9.8537 z"
     style="fill:#d6fffb;fill-opacity:{{peak_14}}" />
  <path
     id="PEAK_15"
     d="m 112.07635,30.529521 c -0.002,0 -0.003,0.01957 -0.003,0.04031 v 9.772775 c 0,0.02192 10e-4,0.04031 0.003,0.04031 h 3.8503 v -9.85369 z"
     style="fill:#d6fffb;fill-opacity:{{peak_15}}" />
  <path
     id="text27"
     style="fill:#ffffff"
     d="m 18.800781,48 v 0.800781 H 22 V 48 Z M 22,48.800781 v 0.798828 h 0.800781 v -0.798828 z m 0,0.798828 h -2.400391 v 0.800782 H 22 Z m 0,0.800782 v 0.798828 h 0.800781 v -0.798828 z m 0,0.798828 H 18.800781 V 52 H 22 Z M 24.400391,48 v 0.800781 H 26 v 0.798828 h 0.800781 v 1.59961 h 0.798828 V 48.800781 H 26.800781 V 48 Z m 2.40039,3.199219 h -1.601562 v -0.798828 h -0.798828 v -1.59961 h -0.800782 v 2.398438 h 0.800782 V 52 h 2.40039 z M 25.199219,50.400391 H 26 V 49.599609 H 25.199219 Z M 16,50 v 1.009766 h 2 V 50 Z" />
  <path
     id="text28"
     style="fill:#ffffff"
     d="m 34.599609,48 v 0.800781 h 0.800782 v 2.398438 h -1.59961 V 52 h 4 V 51.199219 H 36.199219 V 48 Z m 0,0.800781 h -0.798828 v 0.798828 h 0.798828 z m 4,-0.800781 v 2.400391 h 3.201172 v -0.800782 h -2.40039 v -0.798828 h 3.199218 V 48 Z m 3.201172,2.400391 v 0.798828 h 0.798828 v -0.798828 z m 0,0.798828 H 38.599609 V 52 h 3.201172 z M 31,50 v 1.009766 h 2 V 50 Z" />
  <path
     id="text29"
     style="fill:#ffffff"
     d="m 47.800781,48 v 0.800781 H 51 v 0.798828 h 0.800781 V 48 Z M 51,49.599609 h -0.800781 v 0.800782 H 51 Z m -0.800781,0.800782 H 49.400391 V 52 h 0.798828 z M 45,50 v 1.009766 h 2 V 50 Z" />
  <path
     id="text31"
     style="fill:#ffffff"
     d="m 59.800781,48 v 0.800781 H 63 V 48 Z M 63,48.800781 v 0.798828 h 0.800781 v -0.798828 z m 0,0.798828 h -2.400391 v 0.800782 H 63 Z m 0,0.800782 v 0.798828 h 0.800781 v -0.798828 z m 0,0.798828 H 59.800781 V 52 H 63 Z M 57,50 v 1.009766 h 2 V 50 Z" />
  <path
     id="text32"
     style="fill:#ffffff"
     d="m 72.599609,48 v 0.800781 h 0.800782 v 2.398438 h -1.59961 V 52 h 4 V 51.199219 H 74.199219 V 48 Z m 0,0.800781 h -0.798828 v 0.798828 h 0.798828 z M 69,50 v 1.009766 h 2 V 50 Z" />
  <path
     d="m 82.000006,52 h 4 v -0.8 h -1.6 V 48 h -1.6 v 0.8 h -0.8 v 0.8 h 0.8 v -0.8 h 0.8 v 2.4 h -1.6 z"
     id="text33"
     style="fill:#ffffff"
     aria-label="1" />
  <path
     d="m 109.20001,49.6 h -0.8 v 0.8 h 0.8 z m 0,0 h 0.8 V 48 h -4 v 0.8 h 3.2 z m -1.6,2.4 h 0.8 v -1.6 h -0.8 z"
     id="text34"
     style="fill:#ffffff"
     aria-label="7" />
  <path
     d="m 98.000006,48.8 h -0.8 v 0.8 h 0.8 z m 0,1.6 h -0.8 v 0.8 h 0.8 z m -3.2,0 h 2.4 v -0.8 h -2.4 z m -0.8,1.6 h 3.2 v -0.8 h -3.2 z m 0,-3.2 h 3.2 V 48 h -3.2 z"
     id="text35"
     style="fill:#ffffff"
     aria-label="3" />
</svg>
