<?xml version="1.0" encoding="UTF-8" standalone="no"?>
<!-- Created with Inkscape (http://www.inkscape.org/) -->

<svg
   version="1.1"
   id="svg1"
   width="128"
   height="64"
   viewBox="0 0 128 64"
   sodipodi:docname="peakmono.svg"
   inkscape:version="1.4.2 (2aeb623e1d, 2025-05-12)"
   xmlns:inkscape="http://www.inkscape.org/namespaces/inkscape"
   xmlns:sodipodi="http://sodipodi.sourceforge.net/DTD/sodipodi-0.dtd"
   xmlns="http://www.w3.org/2000/svg"
   xmlns:svg="http://www.w3.org/2000/svg">
  <sodipodi:namedview
     id="namedview1"
     pagecolor="#ffffff"
     bordercolor="#666666"
     borderopacity="1.0"
     inkscape:showpageshadow="2"
     inkscape:pageopacity="0.0"
     inkscape:pagecheckerboard="0"
     inkscape:deskcolor="#d1d1d1"
     showgrid="false"
     inkscape:zoom="4.671961"
     inkscape:cx="69.885001"
     inkscape:cy="39.38389"
     inkscape:window-width="1920"
     inkscape:window-height="1009"
     inkscape:window-x="0"
     inkscape:window-y="32"
     inkscape:window-maximized="1"
     inkscape:current-layer="svg1" />
  <defs
     id="defs1" />
  <rect
     style="fill:#000000;fill-opacity:1;stroke:none;stroke-width:0.6;stroke-linecap:butt;stroke-linejoin:miter;stroke-miterlimit:0;stroke-dasharray:none;stroke-dashoffset:0;stroke-opacity:1"
     id="rect84"
     width="128"
     height="64"
     x="0"
     y="0" />
  <path
     id="rect2"
     style="fill:#ffffff;fill-opacity:1;stroke:none;stroke-width:1;stroke-linecap:butt;stroke-linejoin:miter;stroke-miterlimit:0;stroke-dasharray:0.9999;stroke-dashoffset:0;stroke-opacity:1"
     d="M 6.3671875 9 L 6.0683594 9.2988281 L 6.0625 10.378906 C 5.9937194 10.339463 5.9586634 10.268003 5.8828125 10.236328 L 5.8808594 10.236328 C 5.6360062 10.133512 5.3738423 10.080078 5.1054688 10.080078 C 4.5008814 10.080078 3.9676141 10.299223 3.578125 10.71875 C 3.2008776 11.103915 3 11.595637 3 12.136719 C 3 12.695728 3.2079639 13.202105 3.5996094 13.59375 C 3.9946763 13.988818 4.5178687 14.193359 5.1054688 14.193359 C 5.3565087 14.193359 5.6139918 14.141659 5.8730469 14.042969 L 5.8789062 14.039062 C 5.9765983 13.999193 6.0254787 13.915054 6.1113281 13.863281 L 6.3671875 14.119141 L 6.8554688 14.119141 L 7.1542969 13.820312 L 7.1542969 9.3007812 L 6.8554688 9 L 6.3671875 9 z M 24.908203 9 C 24.247722 9 23.683643 9.2393344 23.318359 9.7089844 L 23.318359 9.7109375 C 22.949142 10.187565 22.802734 10.884728 22.802734 11.798828 C 22.802734 12.736522 22.958691 13.444148 23.361328 13.908203 C 23.718294 14.319051 24.262878 14.515625 24.908203 14.515625 C 25.5732 14.515625 26.1377 14.264469 26.492188 13.779297 C 26.846674 13.294125 26.998047 12.618652 26.998047 11.765625 C 26.998047 10.907344 26.848266 10.228176 26.494141 9.7402344 C 26.140016 9.2522004 25.573661 9 24.908203 9 z M 41.830078 9 C 41.169597 9 40.605518 9.2393344 40.240234 9.7089844 L 40.240234 9.7109375 C 39.871017 10.187565 39.724609 10.884728 39.724609 11.798828 C 39.724609 12.736522 39.880566 13.444148 40.283203 13.908203 C 40.640169 14.319051 41.184752 14.515625 41.830078 14.515625 C 42.495075 14.515625 43.059577 14.264469 43.414062 13.779297 C 43.768549 13.294125 43.919922 12.618652 43.919922 11.765625 C 43.919922 10.907344 43.76819 10.228176 43.414062 9.7402344 C 43.059939 9.2522004 42.495536 9 41.830078 9 z M 49.878906 9 C 49.750427 9 49.590029 9.0564101 49.496094 9.1738281 C 49.402154 9.2912481 49.380859 9.424401 49.380859 9.546875 C 49.380859 9.679349 49.419299 9.8333665 49.53125 9.9453125 C 49.643198 10.057261 49.797213 10.095703 49.929688 10.095703 L 52.107422 10.095703 C 51.395003 11.055837 50.841919 12.182101 50.527344 13.546875 L 50.523438 13.564453 C 50.498278 13.715408 50.517638 13.902789 50.642578 14.039062 C 50.767496 14.175338 50.938426 14.210937 51.091797 14.210938 L 51.113281 14.208984 C 51.230431 14.200884 51.351141 14.173334 51.458984 14.089844 C 51.562356 14.009814 51.629127 13.876974 51.644531 13.755859 L 51.646484 13.746094 C 51.740134 13.110382 51.976269 12.414926 52.361328 11.664062 L 52.363281 11.660156 C 52.36404 11.658656 52.364434 11.65775 52.365234 11.65625 C 52.717599 11.016886 53.080678 10.499825 53.447266 10.107422 L 53.439453 10.113281 C 53.570251 9.9824845 53.626953 9.7966007 53.626953 9.6210938 C 53.626953 9.4728518 53.598382 9.3188801 53.492188 9.1894531 C 53.385773 9.0600391 53.21141 9 53.0625 9 L 49.878906 9 z M 59.019531 9 L 58.722656 9.2597656 L 58.449219 11.296875 L 58.449219 11.304688 C 58.430259 11.475305 58.451919 11.661503 58.576172 11.808594 C 58.700382 11.955684 58.890008 12.007814 59.060547 12.007812 L 59.078125 12.007812 C 59.261579 11.997624 59.436547 11.896006 59.548828 11.757812 C 59.642408 11.651012 59.722815 11.579322 59.712891 11.585938 L 59.730469 11.574219 C 59.816729 11.507559 59.916642 11.46119 60.039062 11.431641 L 60.044922 11.429688 C 60.177796 11.394258 60.344991 11.373047 60.544922 11.373047 C 60.927811 11.373047 61.162426 11.462977 61.306641 11.603516 C 61.450855 11.744056 61.541016 11.966626 61.541016 12.335938 C 61.541016 12.639231 61.449626 12.837533 61.246094 13.015625 C 61.052098 13.184274 60.782596 13.28125 60.388672 13.28125 C 60.145316 13.28125 59.971633 13.23205 59.849609 13.15625 C 59.729098 13.08139 59.646858 12.977571 59.585938 12.808594 L 59.480469 12.457031 L 59.447266 12.380859 C 59.341104 12.212772 59.134652 12.083984 58.929688 12.083984 C 58.79479 12.083984 58.634034 12.132274 58.527344 12.25 C 58.420653 12.367728 58.390625 12.515152 58.390625 12.648438 C 58.390625 13.108976 58.592128 13.53294 58.951172 13.853516 L 58.953125 13.855469 C 59.322967 14.17908 59.816831 14.333984 60.380859 14.333984 C 60.69177 14.333984 60.985091 14.295424 61.257812 14.214844 C 61.528075 14.134994 61.765352 14.020131 61.964844 13.867188 L 61.974609 13.859375 C 62.403442 13.502015 62.626953 12.981351 62.626953 12.384766 C 62.626953 11.732682 62.469738 11.193315 62.115234 10.818359 C 61.76073 10.443404 61.236034 10.269531 60.611328 10.269531 C 60.21735 10.269531 59.978524 10.414512 59.695312 10.515625 L 59.751953 10.095703 L 61.824219 10.095703 C 61.960395 10.095703 62.111449 10.063283 62.230469 9.9550781 C 62.349489 9.8468781 62.396484 9.684349 62.396484 9.546875 C 62.396484 9.406068 62.341894 9.2403156 62.21875 9.1347656 C 62.095352 9.0292116 61.945718 9 61.806641 9 L 59.019531 9 z M 70.544922 9 C 70.241703 9 69.962763 9.0252781 69.707031 9.0800781 L 69.667969 9.0917969 C 69.338014 9.2105799 69.051997 9.4257469 68.824219 9.7167969 L 68.824219 9.71875 C 68.596076 10.012076 68.472656 10.357028 68.472656 10.71875 C 68.472656 10.865323 68.501916 11.018875 68.609375 11.146484 C 68.716835 11.274093 68.887809 11.332031 69.035156 11.332031 C 69.156634 11.332031 69.296278 11.297001 69.402344 11.205078 C 69.508409 11.113158 69.561654 10.983035 69.580078 10.863281 L 69.652344 10.541016 C 69.711454 10.375275 69.795842 10.27221 69.933594 10.193359 C 70.073038 10.113539 70.279376 10.0625 70.5625 10.0625 C 70.844525 10.0625 71.034548 10.12177 71.162109 10.212891 C 71.282193 10.298661 71.326172 10.37855 71.326172 10.5625 C 71.326172 10.702952 71.289382 10.774556 71.142578 10.875 L 71.130859 10.884766 C 70.994649 10.988926 70.849801 11.037109 70.660156 11.037109 L 70.125 11.037109 C 69.983903 11.037109 69.821381 11.081749 69.708984 11.201172 C 69.596588 11.320594 69.560547 11.476656 69.560547 11.617188 C 69.560547 11.740016 69.586597 11.877409 69.685547 11.992188 C 69.784497 12.106965 69.939678 12.15625 70.066406 12.15625 L 70.859375 12.15625 C 71.10906 12.15625 71.244445 12.2135 71.320312 12.285156 C 71.396182 12.356816 71.449219 12.469794 71.449219 12.697266 C 71.449219 12.972433 71.379779 13.114467 71.232422 13.226562 C 71.085069 13.338661 70.81437 13.419922 70.404297 13.419922 C 70.059067 13.419922 69.844655 13.340052 69.705078 13.212891 C 69.573736 13.08362 69.492185 12.885012 69.492188 12.548828 L 69.490234 12.503906 C 69.472094 12.386009 69.420074 12.25896 69.316406 12.166016 C 69.212737 12.073066 69.073854 12.035156 68.953125 12.035156 C 68.809373 12.035156 68.645094 12.080426 68.53125 12.201172 C 68.48565 12.249532 68.4531 12.304386 68.429688 12.361328 C 68.43017 12.349658 68.429688 12.337632 68.429688 12.326172 C 68.429688 12.213688 68.416204 12.098972 68.339844 11.982422 C 68.263484 11.865872 68.101206 11.787109 67.972656 11.787109 L 65.556641 11.787109 C 65.421417 11.787109 65.265666 11.826129 65.152344 11.939453 C 65.039063 12.052693 65 12.208527 65 12.34375 C 65 12.467151 65.039338 12.615649 65.148438 12.720703 C 65.257531 12.825757 65.401064 12.857422 65.523438 12.857422 L 67.939453 12.857422 C 68.063553 12.857422 68.218619 12.803742 68.3125 12.689453 C 68.34233 12.653133 68.365723 12.614903 68.382812 12.576172 C 68.381917 12.591872 68.380859 12.607617 68.380859 12.623047 C 68.380859 13.101259 68.557053 13.54304 68.880859 13.894531 C 69.250993 14.30928 69.77739 14.523436 70.380859 14.523438 C 71.031125 14.523438 71.575447 14.373651 71.974609 14.041016 C 72.368734 13.712578 72.578125 13.235208 72.578125 12.697266 C 72.578125 12.350773 72.515315 12.043498 72.371094 11.787109 C 72.278514 11.622527 72.105306 11.536478 71.951172 11.429688 C 72.187459 11.16108 72.4375 10.887641 72.4375 10.511719 C 72.4375 10.032845 72.23376 9.6081889 71.859375 9.3574219 C 71.506132 9.1119249 71.05918 9 70.544922 9 z M 86.105469 9 C 85.444987 9 84.882862 9.2393344 84.517578 9.7089844 L 84.515625 9.7109375 C 84.146501 10.18747 84 10.884728 84 11.798828 C 84 12.736522 84.15791 13.444148 84.560547 13.908203 C 84.917513 14.319051 85.460143 14.515625 86.105469 14.515625 C 86.770465 14.515625 87.33692 14.264469 87.691406 13.779297 C 88.045892 13.294125 88.195312 12.618652 88.195312 11.765625 C 88.195312 10.907344 88.045531 10.228176 87.691406 9.7402344 C 87.337282 9.2522934 86.770926 9 86.105469 9 z M 100.12305 9 C 99.819822 9 99.540888 9.0252781 99.285156 9.0800781 L 99.246094 9.0917969 C 98.916139 9.2105799 98.630122 9.4257469 98.402344 9.7167969 L 98.400391 9.71875 C 98.172248 10.012076 98.048828 10.357028 98.048828 10.71875 C 98.048828 10.865323 98.078088 11.018875 98.185547 11.146484 C 98.293007 11.274093 98.465934 11.332031 98.613281 11.332031 C 98.734759 11.332031 98.872451 11.297001 98.978516 11.205078 C 99.084581 11.113158 99.139779 10.983035 99.158203 10.863281 L 99.230469 10.541016 C 99.289579 10.375275 99.373968 10.27221 99.511719 10.193359 C 99.651163 10.113539 99.855551 10.0625 100.13867 10.0625 C 100.4207 10.0625 100.61267 10.12177 100.74023 10.212891 C 100.86032 10.298661 100.90234 10.37855 100.90234 10.5625 C 100.90234 10.702952 100.86754 10.774556 100.7207 10.875 L 100.70703 10.884766 C 100.57081 10.988929 100.42792 11.037109 100.23828 11.037109 L 99.701172 11.037109 C 99.560075 11.037109 99.397553 11.081749 99.285156 11.201172 C 99.172759 11.320594 99.138672 11.476656 99.138672 11.617188 C 99.138672 11.740016 99.162772 11.877409 99.261719 11.992188 C 99.360669 12.106965 99.517803 12.15625 99.644531 12.15625 L 100.43555 12.15625 C 100.68523 12.15625 100.82257 12.2135 100.89844 12.285156 C 100.97434 12.356816 101.02734 12.469794 101.02734 12.697266 C 101.02734 12.972433 100.95594 13.114467 100.80859 13.226562 C 100.66124 13.338661 100.3925 13.419922 99.982422 13.419922 C 99.637192 13.419922 99.42278 13.340052 99.283203 13.212891 C 99.151862 13.08362 99.070312 12.885013 99.070312 12.548828 L 99.066406 12.503906 C 99.048266 12.386009 98.998196 12.25896 98.894531 12.166016 C 98.790862 12.073066 98.651979 12.035156 98.53125 12.035156 C 98.387498 12.035156 98.223219 12.080426 98.109375 12.201172 C 97.995531 12.321915 97.958984 12.479684 97.958984 12.623047 C 97.958984 13.101258 98.133227 13.543041 98.457031 13.894531 C 98.827165 14.30928 99.353562 14.523436 99.957031 14.523438 C 100.60731 14.523438 101.15357 14.37365 101.55273 14.041016 C 101.94686 13.712578 102.1543 13.235207 102.1543 12.697266 C 102.1543 12.350771 102.0934 12.043498 101.94922 11.787109 C 101.85652 11.622369 101.68168 11.536518 101.52734 11.429688 C 101.76363 11.16108 102.01367 10.887641 102.01367 10.511719 C 102.01367 10.032846 101.81188 9.6081889 101.4375 9.3574219 C 101.08428 9.1118359 100.63731 9 100.12305 9 z M 107.59766 9 L 107.29883 9.2597656 L 107.02734 11.296875 L 107.02734 11.304688 C 107.00844 11.475305 107.02813 11.661506 107.15234 11.808594 C 107.27655 11.955682 107.46813 12.007815 107.63867 12.007812 L 107.6543 12.007812 C 107.83775 11.997624 108.01467 11.896004 108.12695 11.757812 C 108.22055 11.651002 108.30092 11.579333 108.29102 11.585938 L 108.30859 11.574219 C 108.39489 11.507559 108.49282 11.46119 108.61523 11.431641 L 108.62305 11.429688 C 108.75593 11.394258 108.92312 11.373047 109.12305 11.373047 C 109.50594 11.373047 109.74055 11.462977 109.88477 11.603516 C 110.02898 11.744056 110.11719 11.966626 110.11719 12.335938 C 110.11719 12.639231 110.02779 12.837532 109.82422 13.015625 C 109.63013 13.184934 109.36154 13.28125 108.9668 13.28125 C 108.72344 13.28125 108.54976 13.23205 108.42773 13.15625 C 108.30571 13.08045 108.22127 12.977488 108.16016 12.804688 L 108.05859 12.457031 L 108.02344 12.380859 C 107.91728 12.212771 107.71083 12.083984 107.50586 12.083984 C 107.37096 12.083984 107.21216 12.132274 107.10547 12.25 C 106.99878 12.367727 106.9668 12.515151 106.9668 12.648438 C 106.9668 13.108977 107.17025 13.53294 107.5293 13.853516 L 107.53125 13.855469 C 107.90109 14.179081 108.393 14.333984 108.95703 14.333984 C 109.26794 14.333984 109.56126 14.295424 109.83398 14.214844 C 110.10424 14.134994 110.34347 14.020128 110.54297 13.867188 L 110.55273 13.861328 C 110.98157 13.503968 111.20508 12.981351 111.20508 12.384766 C 111.20508 11.732682 111.04786 11.193315 110.69336 10.818359 C 110.33885 10.443404 109.81416 10.269531 109.18945 10.269531 C 108.79548 10.269531 108.55665 10.414512 108.27344 10.515625 L 108.33008 10.095703 L 110.40039 10.095703 C 110.53657 10.095703 110.68762 10.063273 110.80664 9.9550781 C 110.92566 9.8468791 110.97266 9.68435 110.97266 9.546875 C 110.97266 9.406067 110.92005 9.2403156 110.79688 9.1347656 C 110.67294 9.0293176 110.52384 9 110.38477 9 L 107.59766 9 z M 118.10547 9 C 117.51514 9 117.03061 9.1161396 116.67969 9.4003906 C 116.32876 9.6846406 116.15625 10.12963 116.15625 10.636719 C 116.15625 10.969228 116.37995 11.210346 116.58008 11.455078 C 116.20662 11.732109 115.95898 12.139846 115.95898 12.664062 C 115.95898 13.20793 116.15272 13.690407 116.5293 14.027344 L 116.5332 14.03125 C 116.91668 14.361838 117.43142 14.515625 118.03125 14.515625 C 118.63108 14.515625 119.15011 14.360593 119.54297 14.033203 L 119.54492 14.033203 C 119.94324 13.700184 120.1543 13.220759 120.1543 12.681641 C 120.1543 12.122887 119.93043 11.690459 119.57422 11.398438 C 119.7852 11.151185 120.01367 10.903295 120.01367 10.552734 C 120.01367 10.064781 119.81581 9.6323976 119.44336 9.3691406 L 119.44141 9.3691406 C 119.08611 9.1151286 118.63178 9 118.10547 9 z M 7.5976562 9.0742188 L 7.296875 9.375 L 7.296875 13.884766 L 7.5976562 14.185547 L 8.8496094 14.185547 C 9.1028982 14.185547 9.3213555 14.172025 9.5097656 14.140625 L 9.5175781 14.138672 C 9.7283053 14.097977 9.9326503 14.012446 10.125 13.890625 L 10.126953 13.890625 C 10.344632 13.750187 10.515552 13.548012 10.625 13.308594 C 10.730041 13.078817 10.783203 12.833071 10.783203 12.582031 C 10.783203 12.27042 10.695782 11.974742 10.523438 11.726562 C 10.440497 11.607137 10.309313 11.551785 10.201172 11.462891 C 10.226132 11.434571 10.263246 11.408016 10.285156 11.378906 C 10.453726 11.159033 10.535156 10.885618 10.535156 10.595703 C 10.535156 10.157249 10.360116 9.7589291 10.035156 9.4863281 C 9.7084654 9.2021271 9.2639535 9.0742187 8.7441406 9.0742188 L 7.5976562 9.0742188 z M 38.935547 9.0996094 C 38.815992 9.0996094 38.682587 9.1309789 38.576172 9.2167969 C 38.470228 9.3022369 38.408539 9.4276169 38.384766 9.5449219 L 38.384766 9.546875 L 38.314453 9.8339844 C 38.305453 9.8543944 38.294056 9.8668156 38.259766 9.8847656 C 38.202886 9.9087156 38.141975 9.9238281 38.068359 9.9238281 C 37.947255 9.9238281 37.814761 9.9473474 37.699219 10.042969 C 37.583676 10.138589 37.529297 10.295479 37.529297 10.421875 C 37.529297 10.568188 37.562337 10.724607 37.673828 10.849609 C 37.785317 10.974612 37.95478 11.027344 38.101562 11.027344 L 38.355469 11.027344 L 38.355469 13.951172 C 38.355469 14.092269 38.400109 14.25479 38.519531 14.367188 C 38.638953 14.479583 38.795017 14.515625 38.935547 14.515625 L 38.947266 14.515625 C 39.070552 14.510925 39.215232 14.466375 39.316406 14.357422 C 39.41758 14.248465 39.449219 14.10675 39.449219 13.984375 L 39.449219 9.6132812 C 39.449219 9.4918043 39.415039 9.3466844 39.308594 9.2402344 C 39.202144 9.1337854 39.057025 9.0996094 38.935547 9.0996094 z M 20.775391 9.1152344 C 20.125766 9.1152344 19.635573 9.1934735 19.28125 9.4296875 L 19.28125 9.4316406 C 18.7714 9.7759546 18.513672 10.363155 18.513672 11.072266 C 18.513672 11.21429 18.543252 11.367765 18.650391 11.492188 C 18.757532 11.616611 18.925072 11.669922 19.068359 11.669922 C 19.20197 11.669922 19.354317 11.63418 19.46875 11.523438 C 19.583183 11.412694 19.625 11.257188 19.625 11.123047 C 19.625 10.789514 19.699579 10.584178 19.804688 10.464844 C 19.950315 10.301457 20.23651 10.185547 20.734375 10.185547 C 21.096449 10.185547 21.332688 10.256237 21.455078 10.345703 C 21.577468 10.435173 21.630859 10.536753 21.630859 10.759766 C 21.630859 10.967625 21.566539 11.08045 21.347656 11.210938 L 21.324219 11.228516 C 21.263029 11.273846 20.945732 11.40576 20.458984 11.523438 L 20.457031 11.523438 C 19.952341 11.646807 19.619234 11.747407 19.390625 11.876953 L 19.388672 11.876953 C 18.730273 12.260486 18.390625 12.965435 18.390625 13.84375 L 18.390625 13.851562 L 18.398438 14.222656 L 18.697266 14.515625 L 22.318359 14.515625 C 22.453257 14.515625 22.614013 14.469296 22.720703 14.351562 C 22.827394 14.233835 22.857422 14.084457 22.857422 13.951172 C 22.857422 13.806271 22.800152 13.635138 22.673828 13.529297 C 22.547501 13.423456 22.395563 13.396484 22.251953 13.396484 L 19.658203 13.396484 C 19.708503 13.201605 19.729663 12.972504 19.863281 12.869141 C 19.981568 12.777891 20.312946 12.640588 20.816406 12.529297 L 20.833984 12.525391 C 21.383183 12.368477 21.762189 12.233884 22.017578 12.082031 L 22.039062 12.068359 C 22.474014 11.758622 22.708984 11.269787 22.708984 10.710938 C 22.708984 10.214567 22.47499 9.7698045 22.064453 9.4765625 C 21.717108 9.2294135 21.276326 9.1152344 20.775391 9.1152344 z M 104.69336 9.9648438 L 104.39453 10.265625 L 104.39453 11.408203 L 103.30078 11.408203 L 103 11.708984 L 103 12.318359 L 103.30078 12.619141 L 104.39453 12.619141 L 104.39453 13.810547 L 104.69336 14.111328 L 105.27148 14.111328 L 105.57031 13.810547 L 105.57031 12.619141 L 106.66406 12.619141 L 106.96484 12.318359 L 106.96484 11.708984 L 106.66406 11.408203 L 105.57031 11.408203 L 105.57031 10.265625 L 105.27148 9.9648438 L 104.69336 9.9648438 z M 118.16406 10.0625 C 118.46463 10.0625 118.64782 10.12506 118.74219 10.201172 C 118.83659 10.277282 118.88672 10.373021 118.88672 10.585938 C 118.88672 10.759184 118.85021 10.823158 118.73438 10.898438 C 118.61856 10.973717 118.38363 11.037109 118.03125 11.037109 C 117.70661 11.037109 117.49762 10.973579 117.39453 10.900391 C 117.29144 10.827201 117.25195 10.755555 117.25195 10.570312 C 117.25195 10.43269 117.29165 10.348667 117.43359 10.238281 L 117.4375 10.234375 C 117.55618 10.138775 117.79036 10.0625 118.16406 10.0625 z M 24.882812 10.095703 C 25.272907 10.095703 25.479553 10.199811 25.625 10.416016 L 25.626953 10.421875 C 25.766169 10.619708 25.886719 11.102921 25.886719 11.839844 C 25.886719 12.549748 25.770168 13.009857 25.646484 13.181641 L 25.646484 13.183594 C 25.522379 13.357341 25.304841 13.460937 24.882812 13.460938 C 24.479854 13.460938 24.283864 13.355143 24.146484 13.125 C 24.032834 12.914715 23.947266 12.486487 23.947266 11.865234 C 23.947266 11.137016 24.048748 10.641603 24.177734 10.417969 L 24.177734 10.416016 C 24.309589 10.196375 24.496422 10.095703 24.882812 10.095703 z M 41.804688 10.095703 C 42.194781 10.095703 42.401428 10.199811 42.546875 10.416016 L 42.548828 10.421875 C 42.688044 10.619708 42.808594 11.102921 42.808594 11.839844 C 42.808594 12.549748 42.692043 13.009857 42.568359 13.181641 L 42.566406 13.183594 C 42.442301 13.357341 42.226717 13.460937 41.804688 13.460938 C 41.403492 13.460938 41.207625 13.353067 41.070312 13.125 C 40.956621 12.914771 40.867188 12.486637 40.867188 11.865234 C 40.867188 11.137015 40.970623 10.641603 41.099609 10.417969 L 41.099609 10.416016 C 41.231464 10.196374 41.418295 10.095703 41.804688 10.095703 z M 86.082031 10.095703 C 86.472123 10.095703 86.676819 10.199811 86.822266 10.416016 L 86.826172 10.421875 C 86.965387 10.619708 87.083984 11.102921 87.083984 11.839844 C 87.083984 12.549748 86.967434 13.009857 86.84375 13.181641 L 86.84375 13.183594 C 86.719645 13.357341 86.50406 13.460937 86.082031 13.460938 C 85.680835 13.460938 85.484968 13.353067 85.347656 13.125 C 85.233965 12.914771 85.144531 12.486637 85.144531 11.865234 C 85.144531 11.137015 85.247967 10.641603 85.376953 10.417969 L 85.376953 10.416016 C 85.508808 10.196374 85.69564 10.095703 86.082031 10.095703 z M 8.4003906 10.126953 L 8.6699219 10.126953 C 9.0554231 10.126953 9.2575641 10.217273 9.3359375 10.302734 C 9.3712905 10.346474 9.3972404 10.387644 9.4101562 10.423828 L 9.4199219 10.449219 C 9.4332869 10.478179 9.4414063 10.512029 9.4414062 10.5625 C 9.4414062 10.64302 9.4220946 10.702271 9.3847656 10.765625 C 9.3488386 10.821395 9.3003557 10.870711 9.2226562 10.914062 C 9.1283953 10.960382 9.0538976 10.982621 9.0097656 10.988281 C 8.9268496 10.992781 8.8034486 10.996094 8.6367188 10.996094 L 8.4003906 10.996094 L 8.4003906 10.126953 z M 113.69336 10.146484 L 113.39453 10.447266 L 113.39453 11.589844 L 112.30078 11.589844 L 112 11.890625 L 112 12.5 L 112.30078 12.800781 L 113.39453 12.800781 L 113.39453 13.992188 L 113.69336 14.292969 L 114.27148 14.292969 L 114.57031 13.992188 L 114.57031 12.800781 L 115.66406 12.800781 L 115.96484 12.5 L 115.96484 11.890625 L 115.66406 11.589844 L 114.57031 11.589844 L 114.57031 10.447266 L 114.27148 10.146484 L 113.69336 10.146484 z M 95.693359 10.154297 L 95.394531 10.455078 L 95.394531 11.597656 L 94.300781 11.597656 L 94 11.898438 L 94 12.507812 L 94.300781 12.808594 L 95.394531 12.808594 L 95.394531 14.001953 L 95.693359 14.300781 L 96.271484 14.300781 L 96.570312 14.001953 L 96.570312 12.808594 L 97.664062 12.808594 L 97.964844 12.507812 L 97.964844 11.898438 L 97.664062 11.597656 L 96.570312 11.597656 L 96.570312 10.455078 L 96.271484 10.154297 L 95.693359 10.154297 z M 5.1054688 11.117188 C 5.389011 11.117188 5.5967923 11.206628 5.7949219 11.417969 L 5.7988281 11.423828 C 6.0026492 11.63208 6.09375 11.851342 6.09375 12.144531 C 6.09375 12.450768 6.0014381 12.672391 5.8007812 12.873047 C 5.5970502 13.076778 5.3854836 13.164064 5.1054688 13.164062 C 4.7742341 13.164062 4.5486415 13.069842 4.3574219 12.875 C 4.1665747 12.669031 4.078125 12.448171 4.078125 12.154297 C 4.078125 11.823699 4.172358 11.598399 4.3730469 11.40625 C 4.5800311 11.208074 4.8042481 11.117188 5.1054688 11.117188 z M 46.556641 11.474609 C 46.421417 11.474609 46.265666 11.513629 46.152344 11.626953 C 46.039021 11.740275 46 11.894074 46 12.029297 C 46 12.152698 46.03934 12.301196 46.148438 12.40625 C 46.257533 12.511304 46.401063 12.544922 46.523438 12.544922 L 48.939453 12.544922 C 49.063553 12.544922 49.218619 12.491242 49.3125 12.376953 C 49.40638 12.262664 49.429688 12.131719 49.429688 12.013672 C 49.429688 11.901188 49.416204 11.786472 49.339844 11.669922 C 49.263484 11.553372 49.101206 11.474609 48.972656 11.474609 L 46.556641 11.474609 z M 55.556641 11.597656 C 55.421417 11.597656 55.265666 11.636676 55.152344 11.75 C 55.039021 11.863322 55 12.019074 55 12.154297 C 55 12.277698 55.03934 12.426196 55.148438 12.53125 C 55.257533 12.636304 55.401063 12.667969 55.523438 12.667969 L 57.939453 12.667969 C 58.063553 12.667969 58.218619 12.614289 58.3125 12.5 C 58.40638 12.385711 58.429688 12.254766 58.429688 12.136719 C 58.429688 12.024235 58.416204 11.909519 58.339844 11.792969 C 58.263484 11.676419 58.101206 11.597656 57.972656 11.597656 L 55.556641 11.597656 z M 15.556641 11.779297 C 15.421417 11.779297 15.265666 11.818317 15.152344 11.931641 C 15.039021 12.044963 15 12.200714 15 12.335938 C 15 12.459338 15.039338 12.607837 15.148438 12.712891 C 15.257531 12.817944 15.401063 12.849609 15.523438 12.849609 L 17.939453 12.849609 C 18.063553 12.849609 18.218619 12.795929 18.3125 12.681641 C 18.40638 12.567351 18.429688 12.436407 18.429688 12.318359 C 18.429688 12.205876 18.416204 12.091159 18.339844 11.974609 C 18.263484 11.85806 18.101206 11.779297 17.972656 11.779297 L 15.556641 11.779297 z M 34.556641 11.779297 C 34.421417 11.779297 34.265666 11.818317 34.152344 11.931641 C 34.039021 12.044973 34 12.200713 34 12.335938 C 34 12.459338 34.03934 12.607837 34.148438 12.712891 C 34.257533 12.817944 34.401063 12.849609 34.523438 12.849609 L 36.939453 12.849609 C 37.063553 12.849609 37.218619 12.795929 37.3125 12.681641 C 37.40638 12.567351 37.429688 12.436407 37.429688 12.318359 C 37.429688 12.205876 37.416204 12.091159 37.339844 11.974609 C 37.263484 11.85806 37.101206 11.779297 36.972656 11.779297 L 34.556641 11.779297 z M 8.4003906 12.058594 L 8.6191406 12.058594 C 8.867715 12.058594 9.0455924 12.063896 9.125 12.072266 C 9.198402 12.079966 9.2737724 12.099233 9.3535156 12.132812 L 9.359375 12.136719 C 9.4634471 12.177609 9.5346414 12.232159 9.5957031 12.318359 L 9.5996094 12.326172 C 9.6637784 12.411732 9.6894531 12.48465 9.6894531 12.582031 C 9.6894531 12.68631 9.6630956 12.772138 9.6035156 12.865234 L 9.6015625 12.869141 C 9.5456875 12.958541 9.4916834 13.003699 9.4238281 13.033203 C 9.3187371 13.078893 9.2276679 13.105058 9.1503906 13.117188 C 9.0593466 13.125987 8.9046839 13.132813 8.6933594 13.132812 L 8.4003906 13.132812 L 8.4003906 12.058594 z M 118.02344 12.115234 C 118.45761 12.115234 118.75477 12.159569 118.84375 12.193359 C 118.91735 12.223909 118.95747 12.258519 118.99414 12.328125 C 119.03134 12.398685 119.06055 12.514516 119.06055 12.681641 C 119.06055 12.92136 118.99165 13.06782 118.82227 13.208984 C 118.66879 13.336257 118.41653 13.419922 118.03125 13.419922 C 117.73883 13.419922 117.52426 13.347812 117.34375 13.205078 C 117.1612 13.060738 117.10352 12.938006 117.10352 12.763672 C 117.10352 12.473602 117.17282 12.340604 117.25977 12.263672 C 117.39509 12.183912 117.64285 12.115234 118.02344 12.115234 z M 22 15 L 22 16 L 23 16 L 23 15 L 22 15 z M 40 15 L 40 16 L 41 16 L 41 15 L 40 15 z M 51 15 L 51 16 L 52 16 L 52 15 L 51 15 z M 60 15 L 60 16 L 61 16 L 61 15 L 60 15 z M 70 15 L 70 16 L 71 16 L 71 15 L 70 15 z M 86 15 L 86 16 L 87 16 L 87 15 L 86 15 z M 100 15 L 100 16 L 101 16 L 101 15 L 100 15 z M 107 15 L 107 16 L 108 16 L 108 15 L 107 15 z M 115 15 L 115 16 L 116 16 L 116 15 L 115 15 z M 14 18 L 14 19 L 15 19 L 15 18 L 14 18 z M 16 18 L 16 19 L 17 19 L 17 18 L 16 18 z M 17 19 L 17 20 L 18 20 L 18 19 L 17 19 z M 19 18 L 19 19 L 20 19 L 20 18 L 19 18 z M 21 18 L 21 19 L 22 19 L 22 18 L 21 18 z M 22 19 L 22 20 L 23 20 L 23 19 L 22 19 z M 24 18 L 24 19 L 25 19 L 25 18 L 24 18 z M 26 18 L 26 19 L 27 19 L 27 18 L 26 18 z M 27 19 L 27 20 L 28 20 L 28 19 L 27 19 z M 29 18 L 29 19 L 30 19 L 30 18 L 29 18 z M 31 18 L 31 19 L 32 19 L 32 18 L 31 18 z M 32 19 L 32 20 L 33 20 L 33 19 L 32 19 z M 34 18 L 34 19 L 35 19 L 35 18 L 34 18 z M 36 18 L 36 19 L 37 19 L 37 18 L 36 18 z M 37 19 L 37 20 L 38 20 L 38 19 L 37 19 z M 39 18 L 39 19 L 40 19 L 40 18 L 39 18 z M 41 18 L 41 19 L 42 19 L 42 18 L 41 18 z M 42 19 L 42 20 L 43 20 L 43 19 L 42 19 z M 44 18 L 44 19 L 45 19 L 45 18 L 44 18 z M 46 18 L 46 19 L 47 19 L 47 18 L 46 18 z M 47 19 L 47 20 L 48 20 L 48 19 L 47 19 z M 49 18 L 49 19 L 50 19 L 50 18 L 49 18 z M 51 18 L 51 19 L 52 19 L 52 18 L 51 18 z M 52 19 L 52 20 L 53 20 L 53 19 L 52 19 z M 54 18 L 54 19 L 55 19 L 55 18 L 54 18 z M 56 18 L 56 19 L 57 19 L 57 18 L 56 18 z M 57 19 L 57 20 L 58 20 L 58 19 L 57 19 z M 59 18 L 59 19 L 60 19 L 60 18 L 59 18 z M 61 18 L 61 19 L 62 19 L 62 18 L 61 18 z M 62 19 L 62 20 L 63 20 L 63 19 L 62 19 z M 64 18 L 64 19 L 65 19 L 65 18 L 64 18 z M 66 18 L 66 19 L 67 19 L 67 18 L 66 18 z M 67 19 L 67 20 L 68 20 L 68 19 L 67 19 z M 69 18 L 69 19 L 70 19 L 70 18 L 69 18 z M 71 18 L 71 19 L 72 19 L 72 18 L 71 18 z M 72 19 L 72 20 L 73 20 L 73 19 L 72 19 z M 74 18 L 74 19 L 75 19 L 75 18 L 74 18 z M 76 18 L 76 19 L 77 19 L 77 18 L 76 18 z M 77 19 L 77 20 L 78 20 L 78 19 L 77 19 z M 79 18 L 79 19 L 80 19 L 80 18 L 79 18 z M 81 18 L 81 19 L 82 19 L 82 18 L 81 18 z M 82 19 L 82 20 L 83 20 L 83 19 L 82 19 z M 84 18 L 84 19 L 85 19 L 85 18 L 84 18 z M 86 18 L 86 19 L 87 19 L 87 18 L 86 18 z M 88 18 L 88 19 L 89 19 L 89 18 L 88 18 z M 89 19 L 89 20 L 90 20 L 90 19 L 89 19 z M 91 18 L 91 19 L 92 19 L 92 18 L 91 18 z M 93 18 L 93 19 L 94 19 L 94 18 L 93 18 z M 95 18 L 95 19 L 96 19 L 96 18 L 95 18 z M 96 19 L 96 20 L 97 20 L 97 19 L 96 19 z M 98 18 L 98 19 L 99 19 L 99 18 L 98 18 z M 100 18 L 100 19 L 101 19 L 101 18 L 100 18 z M 102 18 L 102 19 L 103 19 L 103 18 L 102 18 z M 103 19 L 103 20 L 104 20 L 104 19 L 103 19 z M 105 18 L 105 19 L 106 19 L 106 18 L 105 18 z M 107 18 L 107 19 L 108 19 L 108 18 L 107 18 z M 109 18 L 109 19 L 110 19 L 110 18 L 109 18 z M 110 19 L 110 20 L 111 20 L 111 19 L 110 19 z M 112 18 L 112 19 L 113 19 L 113 18 L 112 18 z M 114 18 L 114 19 L 115 19 L 115 18 L 114 18 z M 116 18 L 116 19 L 117 19 L 117 18 L 116 18 z M 117 19 L 117 20 L 118 20 L 118 19 L 117 19 z M 119 18 L 119 19 L 120 19 L 120 18 L 119 18 z M 121 18 L 121 19 L 122 19 L 122 18 L 121 18 z M 123 18 L 123 19 L 124 19 L 124 18 L 123 18 z M 124 19 L 124 20 L 125 20 L 125 19 L 124 19 z M 14 20 L 14 21 L 15 21 L 15 20 L 14 20 z M 19 20 L 19 21 L 20 21 L 20 20 L 19 20 z M 24 20 L 24 21 L 25 21 L 25 20 L 24 20 z M 29 20 L 29 21 L 30 21 L 30 20 L 29 20 z M 34 20 L 34 21 L 35 21 L 35 20 L 34 20 z M 39 20 L 39 21 L 40 21 L 40 20 L 39 20 z M 44 20 L 44 21 L 45 21 L 45 20 L 44 20 z M 49 20 L 49 21 L 50 21 L 50 20 L 49 20 z M 54 20 L 54 21 L 55 21 L 55 20 L 54 20 z M 59 20 L 59 21 L 60 21 L 60 20 L 59 20 z M 64 20 L 64 21 L 65 21 L 65 20 L 64 20 z M 69 20 L 69 21 L 70 21 L 70 20 L 69 20 z M 74 20 L 74 21 L 75 21 L 75 20 L 74 20 z M 79 20 L 79 21 L 80 21 L 80 20 L 79 20 z M 84 20 L 84 21 L 85 21 L 85 20 L 84 20 z M 91 20 L 91 21 L 92 21 L 92 20 L 91 20 z M 98 20 L 98 21 L 99 21 L 99 20 L 98 20 z M 105 20 L 105 21 L 106 21 L 106 20 L 105 20 z M 112 20 L 112 21 L 113 21 L 113 20 L 112 20 z M 119 20 L 119 21 L 120 21 L 120 20 L 119 20 z M 17 21 L 17 22 L 18 22 L 18 21 L 17 21 z M 22 21 L 22 22 L 23 22 L 23 21 L 22 21 z M 27 21 L 27 22 L 28 22 L 28 21 L 27 21 z M 32 21 L 32 22 L 33 22 L 33 21 L 32 21 z M 37 21 L 37 22 L 38 22 L 38 21 L 37 21 z M 42 21 L 42 22 L 43 22 L 43 21 L 42 21 z M 47 21 L 47 22 L 48 22 L 48 21 L 47 21 z M 52 21 L 52 22 L 53 22 L 53 21 L 52 21 z M 57 21 L 57 22 L 58 22 L 58 21 L 57 21 z M 62 21 L 62 22 L 63 22 L 63 21 L 62 21 z M 67 21 L 67 22 L 68 22 L 68 21 L 67 21 z M 72 21 L 72 22 L 73 22 L 73 21 L 72 21 z M 77 21 L 77 22 L 78 22 L 78 21 L 77 21 z M 82 21 L 82 22 L 83 22 L 83 21 L 82 21 z M 89 21 L 89 22 L 90 22 L 90 21 L 89 21 z M 96 21 L 96 22 L 97 22 L 97 21 L 96 21 z M 103 21 L 103 22 L 104 22 L 104 21 L 103 21 z M 110 21 L 110 22 L 111 22 L 111 21 L 110 21 z M 117 21 L 117 22 L 118 22 L 118 21 L 117 21 z M 124 21 L 124 22 L 125 22 L 125 21 L 124 21 z M 14 22 L 14 23 L 15 23 L 15 22 L 14 22 z M 19 22 L 19 23 L 20 23 L 20 22 L 19 22 z M 24 22 L 24 23 L 25 23 L 25 22 L 24 22 z M 29 22 L 29 23 L 30 23 L 30 22 L 29 22 z M 34 22 L 34 23 L 35 23 L 35 22 L 34 22 z M 39 22 L 39 23 L 40 23 L 40 22 L 39 22 z M 44 22 L 44 23 L 45 23 L 45 22 L 44 22 z M 49 22 L 49 23 L 50 23 L 50 22 L 49 22 z M 54 22 L 54 23 L 55 23 L 55 22 L 54 22 z M 59 22 L 59 23 L 60 23 L 60 22 L 59 22 z M 64 22 L 64 23 L 65 23 L 65 22 L 64 22 z M 69 22 L 69 23 L 70 23 L 70 22 L 69 22 z M 74 22 L 74 23 L 75 23 L 75 22 L 74 22 z M 79 22 L 79 23 L 80 23 L 80 22 L 79 22 z M 84 22 L 84 23 L 85 23 L 85 22 L 84 22 z M 91 22 L 91 23 L 92 23 L 92 22 L 91 22 z M 98 22 L 98 23 L 99 23 L 99 22 L 98 22 z M 105 22 L 105 23 L 106 23 L 106 22 L 105 22 z M 112 22 L 112 23 L 113 23 L 113 22 L 112 22 z M 119 22 L 119 23 L 120 23 L 120 22 L 119 22 z M 17 23 L 17 24 L 18 24 L 18 23 L 17 23 z M 22 23 L 22 24 L 23 24 L 23 23 L 22 23 z M 27 23 L 27 24 L 28 24 L 28 23 L 27 23 z M 32 23 L 32 24 L 33 24 L 33 23 L 32 23 z M 37 23 L 37 24 L 38 24 L 38 23 L 37 23 z M 42 23 L 42 24 L 43 24 L 43 23 L 42 23 z M 47 23 L 47 24 L 48 24 L 48 23 L 47 23 z M 52 23 L 52 24 L 53 24 L 53 23 L 52 23 z M 57 23 L 57 24 L 58 24 L 58 23 L 57 23 z M 62 23 L 62 24 L 63 24 L 63 23 L 62 23 z M 67 23 L 67 24 L 68 24 L 68 23 L 67 23 z M 72 23 L 72 24 L 73 24 L 73 23 L 72 23 z M 77 23 L 77 24 L 78 24 L 78 23 L 77 23 z M 82 23 L 82 24 L 83 24 L 83 23 L 82 23 z M 89 23 L 89 24 L 90 24 L 90 23 L 89 23 z M 96 23 L 96 24 L 97 24 L 97 23 L 96 23 z M 103 23 L 103 24 L 104 24 L 104 23 L 103 23 z M 110 23 L 110 24 L 111 24 L 111 23 L 110 23 z M 117 23 L 117 24 L 118 24 L 118 23 L 117 23 z M 124 23 L 124 24 L 125 24 L 125 23 L 124 23 z M 14 24 L 14 25 L 15 25 L 15 24 L 14 24 z M 19 24 L 19 25 L 20 25 L 20 24 L 19 24 z M 24 24 L 24 25 L 25 25 L 25 24 L 24 24 z M 29 24 L 29 25 L 30 25 L 30 24 L 29 24 z M 34 24 L 34 25 L 35 25 L 35 24 L 34 24 z M 39 24 L 39 25 L 40 25 L 40 24 L 39 24 z M 44 24 L 44 25 L 45 25 L 45 24 L 44 24 z M 49 24 L 49 25 L 50 25 L 50 24 L 49 24 z M 54 24 L 54 25 L 55 25 L 55 24 L 54 24 z M 59 24 L 59 25 L 60 25 L 60 24 L 59 24 z M 64 24 L 64 25 L 65 25 L 65 24 L 64 24 z M 69 24 L 69 25 L 70 25 L 70 24 L 69 24 z M 74 24 L 74 25 L 75 25 L 75 24 L 74 24 z M 79 24 L 79 25 L 80 25 L 80 24 L 79 24 z M 84 24 L 84 25 L 85 25 L 85 24 L 84 24 z M 91 24 L 91 25 L 92 25 L 92 24 L 91 24 z M 98 24 L 98 25 L 99 25 L 99 24 L 98 24 z M 105 24 L 105 25 L 106 25 L 106 24 L 105 24 z M 112 24 L 112 25 L 113 25 L 113 24 L 112 24 z M 119 24 L 119 25 L 120 25 L 120 24 L 119 24 z M 17 25 L 17 26 L 18 26 L 18 25 L 17 25 z M 22 25 L 22 26 L 23 26 L 23 25 L 22 25 z M 27 25 L 27 26 L 28 26 L 28 25 L 27 25 z M 32 25 L 32 26 L 33 26 L 33 25 L 32 25 z M 37 25 L 37 26 L 38 26 L 38 25 L 37 25 z M 42 25 L 42 26 L 43 26 L 43 25 L 42 25 z M 47 25 L 47 26 L 48 26 L 48 25 L 47 25 z M 52 25 L 52 26 L 53 26 L 53 25 L 52 25 z M 57 25 L 57 26 L 58 26 L 58 25 L 57 25 z M 62 25 L 62 26 L 63 26 L 63 25 L 62 25 z M 67 25 L 67 26 L 68 26 L 68 25 L 67 25 z M 72 25 L 72 26 L 73 26 L 73 25 L 72 25 z M 77 25 L 77 26 L 78 26 L 78 25 L 77 25 z M 82 25 L 82 26 L 83 26 L 83 25 L 82 25 z M 89 25 L 89 26 L 90 26 L 90 25 L 89 25 z M 96 25 L 96 26 L 97 26 L 97 25 L 96 25 z M 103 25 L 103 26 L 104 26 L 104 25 L 103 25 z M 110 25 L 110 26 L 111 26 L 111 25 L 110 25 z M 117 25 L 117 26 L 118 26 L 118 25 L 117 25 z M 124 25 L 124 26 L 125 26 L 125 25 L 124 25 z M 14 26 L 14 27 L 15 27 L 15 26 L 14 26 z M 19 26 L 19 27 L 20 27 L 20 26 L 19 26 z M 24 26 L 24 27 L 25 27 L 25 26 L 24 26 z M 29 26 L 29 27 L 30 27 L 30 26 L 29 26 z M 34 26 L 34 27 L 35 27 L 35 26 L 34 26 z M 39 26 L 39 27 L 40 27 L 40 26 L 39 26 z M 44 26 L 44 27 L 45 27 L 45 26 L 44 26 z M 49 26 L 49 27 L 50 27 L 50 26 L 49 26 z M 54 26 L 54 27 L 55 27 L 55 26 L 54 26 z M 59 26 L 59 27 L 60 27 L 60 26 L 59 26 z M 64 26 L 64 27 L 65 27 L 65 26 L 64 26 z M 69 26 L 69 27 L 70 27 L 70 26 L 69 26 z M 74 26 L 74 27 L 75 27 L 75 26 L 74 26 z M 79 26 L 79 27 L 80 27 L 80 26 L 79 26 z M 84 26 L 84 27 L 85 27 L 85 26 L 84 26 z M 91 26 L 91 27 L 92 27 L 92 26 L 91 26 z M 98 26 L 98 27 L 99 27 L 99 26 L 98 26 z M 105 26 L 105 27 L 106 27 L 106 26 L 105 26 z M 112 26 L 112 27 L 113 27 L 113 26 L 112 26 z M 119 26 L 119 27 L 120 27 L 120 26 L 119 26 z M 17 27 L 17 28 L 18 28 L 18 27 L 17 27 z M 22 27 L 22 28 L 23 28 L 23 27 L 22 27 z M 27 27 L 27 28 L 28 28 L 28 27 L 27 27 z M 32 27 L 32 28 L 33 28 L 33 27 L 32 27 z M 37 27 L 37 28 L 38 28 L 38 27 L 37 27 z M 42 27 L 42 28 L 43 28 L 43 27 L 42 27 z M 47 27 L 47 28 L 48 28 L 48 27 L 47 27 z M 52 27 L 52 28 L 53 28 L 53 27 L 52 27 z M 57 27 L 57 28 L 58 28 L 58 27 L 57 27 z M 62 27 L 62 28 L 63 28 L 63 27 L 62 27 z M 67 27 L 67 28 L 68 28 L 68 27 L 67 27 z M 72 27 L 72 28 L 73 28 L 73 27 L 72 27 z M 77 27 L 77 28 L 78 28 L 78 27 L 77 27 z M 82 27 L 82 28 L 83 28 L 83 27 L 82 27 z M 89 27 L 89 28 L 90 28 L 90 27 L 89 27 z M 96 27 L 96 28 L 97 28 L 97 27 L 96 27 z M 103 27 L 103 28 L 104 28 L 104 27 L 103 27 z M 110 27 L 110 28 L 111 28 L 111 27 L 110 27 z M 117 27 L 117 28 L 118 28 L 118 27 L 117 27 z M 124 27 L 124 28 L 125 28 L 125 27 L 124 27 z M 14 28 L 14 29 L 15 29 L 15 28 L 14 28 z M 19 28 L 19 29 L 20 29 L 20 28 L 19 28 z M 24 28 L 24 29 L 25 29 L 25 28 L 24 28 z M 29 28 L 29 29 L 30 29 L 30 28 L 29 28 z M 34 28 L 34 29 L 35 29 L 35 28 L 34 28 z M 39 28 L 39 29 L 40 29 L 40 28 L 39 28 z M 44 28 L 44 29 L 45 29 L 45 28 L 44 28 z M 49 28 L 49 29 L 50 29 L 50 28 L 49 28 z M 54 28 L 54 29 L 55 29 L 55 28 L 54 28 z M 59 28 L 59 29 L 60 29 L 60 28 L 59 28 z M 64 28 L 64 29 L 65 29 L 65 28 L 64 28 z M 69 28 L 69 29 L 70 29 L 70 28 L 69 28 z M 74 28 L 74 29 L 75 29 L 75 28 L 74 28 z M 79 28 L 79 29 L 80 29 L 80 28 L 79 28 z M 84 28 L 84 29 L 85 29 L 85 28 L 84 28 z M 91 28 L 91 29 L 92 29 L 92 28 L 91 28 z M 98 28 L 98 29 L 99 29 L 99 28 L 98 28 z M 105 28 L 105 29 L 106 29 L 106 28 L 105 28 z M 112 28 L 112 29 L 113 29 L 113 28 L 112 28 z M 119 28 L 119 29 L 120 29 L 120 28 L 119 28 z M 17 29 L 17 30 L 18 30 L 18 29 L 17 29 z M 22 29 L 22 30 L 23 30 L 23 29 L 22 29 z M 27 29 L 27 30 L 28 30 L 28 29 L 27 29 z M 32 29 L 32 30 L 33 30 L 33 29 L 32 29 z M 37 29 L 37 30 L 38 30 L 38 29 L 37 29 z M 42 29 L 42 30 L 43 30 L 43 29 L 42 29 z M 47 29 L 47 30 L 48 30 L 48 29 L 47 29 z M 52 29 L 52 30 L 53 30 L 53 29 L 52 29 z M 57 29 L 57 30 L 58 30 L 58 29 L 57 29 z M 62 29 L 62 30 L 63 30 L 63 29 L 62 29 z M 67 29 L 67 30 L 68 30 L 68 29 L 67 29 z M 72 29 L 72 30 L 73 30 L 73 29 L 72 29 z M 77 29 L 77 30 L 78 30 L 78 29 L 77 29 z M 82 29 L 82 30 L 83 30 L 83 29 L 82 29 z M 89 29 L 89 30 L 90 30 L 90 29 L 89 29 z M 96 29 L 96 30 L 97 30 L 97 29 L 96 29 z M 103 29 L 103 30 L 104 30 L 104 29 L 103 29 z M 110 29 L 110 30 L 111 30 L 111 29 L 110 29 z M 117 29 L 117 30 L 118 30 L 118 29 L 117 29 z M 124 29 L 124 30 L 125 30 L 125 29 L 124 29 z M 14 30 L 14 31 L 15 31 L 15 30 L 14 30 z M 19 30 L 19 31 L 20 31 L 20 30 L 19 30 z M 24 30 L 24 31 L 25 31 L 25 30 L 24 30 z M 29 30 L 29 31 L 30 31 L 30 30 L 29 30 z M 34 30 L 34 31 L 35 31 L 35 30 L 34 30 z M 39 30 L 39 31 L 40 31 L 40 30 L 39 30 z M 44 30 L 44 31 L 45 31 L 45 30 L 44 30 z M 49 30 L 49 31 L 50 31 L 50 30 L 49 30 z M 54 30 L 54 31 L 55 31 L 55 30 L 54 30 z M 59 30 L 59 31 L 60 31 L 60 30 L 59 30 z M 64 30 L 64 31 L 65 31 L 65 30 L 64 30 z M 69 30 L 69 31 L 70 31 L 70 30 L 69 30 z M 74 30 L 74 31 L 75 31 L 75 30 L 74 30 z M 79 30 L 79 31 L 80 31 L 80 30 L 79 30 z M 84 30 L 84 31 L 85 31 L 85 30 L 84 30 z M 91 30 L 91 31 L 92 31 L 92 30 L 91 30 z M 98 30 L 98 31 L 99 31 L 99 30 L 98 30 z M 105 30 L 105 31 L 106 31 L 106 30 L 105 30 z M 112 30 L 112 31 L 113 31 L 113 30 L 112 30 z M 119 30 L 119 31 L 120 31 L 120 30 L 119 30 z M 17 31 L 17 32 L 18 32 L 18 31 L 17 31 z M 22 31 L 22 32 L 23 32 L 23 31 L 22 31 z M 27 31 L 27 32 L 28 32 L 28 31 L 27 31 z M 32 31 L 32 32 L 33 32 L 33 31 L 32 31 z M 37 31 L 37 32 L 38 32 L 38 31 L 37 31 z M 42 31 L 42 32 L 43 32 L 43 31 L 42 31 z M 47 31 L 47 32 L 48 32 L 48 31 L 47 31 z M 52 31 L 52 32 L 53 32 L 53 31 L 52 31 z M 57 31 L 57 32 L 58 32 L 58 31 L 57 31 z M 62 31 L 62 32 L 63 32 L 63 31 L 62 31 z M 67 31 L 67 32 L 68 32 L 68 31 L 67 31 z M 72 31 L 72 32 L 73 32 L 73 31 L 72 31 z M 77 31 L 77 32 L 78 32 L 78 31 L 77 31 z M 82 31 L 82 32 L 83 32 L 83 31 L 82 31 z M 89 31 L 89 32 L 90 32 L 90 31 L 89 31 z M 96 31 L 96 32 L 97 32 L 97 31 L 96 31 z M 103 31 L 103 32 L 104 32 L 104 31 L 103 31 z M 110 31 L 110 32 L 111 32 L 111 31 L 110 31 z M 117 31 L 117 32 L 118 32 L 118 31 L 117 31 z M 124 31 L 124 32 L 125 32 L 125 31 L 124 31 z M 14 32 L 14 33 L 15 33 L 15 32 L 14 32 z M 19 32 L 19 33 L 20 33 L 20 32 L 19 32 z M 24 32 L 24 33 L 25 33 L 25 32 L 24 32 z M 29 32 L 29 33 L 30 33 L 30 32 L 29 32 z M 34 32 L 34 33 L 35 33 L 35 32 L 34 32 z M 39 32 L 39 33 L 40 33 L 40 32 L 39 32 z M 44 32 L 44 33 L 45 33 L 45 32 L 44 32 z M 49 32 L 49 33 L 50 33 L 50 32 L 49 32 z M 54 32 L 54 33 L 55 33 L 55 32 L 54 32 z M 59 32 L 59 33 L 60 33 L 60 32 L 59 32 z M 64 32 L 64 33 L 65 33 L 65 32 L 64 32 z M 69 32 L 69 33 L 70 33 L 70 32 L 69 32 z M 74 32 L 74 33 L 75 33 L 75 32 L 74 32 z M 79 32 L 79 33 L 80 33 L 80 32 L 79 32 z M 84 32 L 84 33 L 85 33 L 85 32 L 84 32 z M 91 32 L 91 33 L 92 33 L 92 32 L 91 32 z M 98 32 L 98 33 L 99 33 L 99 32 L 98 32 z M 105 32 L 105 33 L 106 33 L 106 32 L 105 32 z M 112 32 L 112 33 L 113 33 L 113 32 L 112 32 z M 119 32 L 119 33 L 120 33 L 120 32 L 119 32 z M 17 33 L 17 34 L 18 34 L 18 33 L 17 33 z M 22 33 L 22 34 L 23 34 L 23 33 L 22 33 z M 27 33 L 27 34 L 28 34 L 28 33 L 27 33 z M 32 33 L 32 34 L 33 34 L 33 33 L 32 33 z M 37 33 L 37 34 L 38 34 L 38 33 L 37 33 z M 42 33 L 42 34 L 43 34 L 43 33 L 42 33 z M 47 33 L 47 34 L 48 34 L 48 33 L 47 33 z M 52 33 L 52 34 L 53 34 L 53 33 L 52 33 z M 57 33 L 57 34 L 58 34 L 58 33 L 57 33 z M 62 33 L 62 34 L 63 34 L 63 33 L 62 33 z M 67 33 L 67 34 L 68 34 L 68 33 L 67 33 z M 72 33 L 72 34 L 73 34 L 73 33 L 72 33 z M 77 33 L 77 34 L 78 34 L 78 33 L 77 33 z M 82 33 L 82 34 L 83 34 L 83 33 L 82 33 z M 89 33 L 89 34 L 90 34 L 90 33 L 89 33 z M 96 33 L 96 34 L 97 34 L 97 33 L 96 33 z M 103 33 L 103 34 L 104 34 L 104 33 L 103 33 z M 110 33 L 110 34 L 111 34 L 111 33 L 110 33 z M 117 33 L 117 34 L 118 34 L 118 33 L 117 33 z M 124 33 L 124 34 L 125 34 L 125 33 L 124 33 z M 14 34 L 14 35 L 15 35 L 15 34 L 14 34 z M 19 34 L 19 35 L 20 35 L 20 34 L 19 34 z M 24 34 L 24 35 L 25 35 L 25 34 L 24 34 z M 29 34 L 29 35 L 30 35 L 30 34 L 29 34 z M 34 34 L 34 35 L 35 35 L 35 34 L 34 34 z M 39 34 L 39 35 L 40 35 L 40 34 L 39 34 z M 44 34 L 44 35 L 45 35 L 45 34 L 44 34 z M 49 34 L 49 35 L 50 35 L 50 34 L 49 34 z M 54 34 L 54 35 L 55 35 L 55 34 L 54 34 z M 59 34 L 59 35 L 60 35 L 60 34 L 59 34 z M 64 34 L 64 35 L 65 35 L 65 34 L 64 34 z M 69 34 L 69 35 L 70 35 L 70 34 L 69 34 z M 74 34 L 74 35 L 75 35 L 75 34 L 74 34 z M 79 34 L 79 35 L 80 35 L 80 34 L 79 34 z M 84 34 L 84 35 L 85 35 L 85 34 L 84 34 z M 91 34 L 91 35 L 92 35 L 92 34 L 91 34 z M 98 34 L 98 35 L 99 35 L 99 34 L 98 34 z M 105 34 L 105 35 L 106 35 L 106 34 L 105 34 z M 112 34 L 112 35 L 113 35 L 113 34 L 112 34 z M 119 34 L 119 35 L 120 35 L 120 34 L 119 34 z M 17 35 L 17 36 L 18 36 L 18 35 L 17 35 z M 22 35 L 22 36 L 23 36 L 23 35 L 22 35 z M 27 35 L 27 36 L 28 36 L 28 35 L 27 35 z M 32 35 L 32 36 L 33 36 L 33 35 L 32 35 z M 37 35 L 37 36 L 38 36 L 38 35 L 37 35 z M 42 35 L 42 36 L 43 36 L 43 35 L 42 35 z M 47 35 L 47 36 L 48 36 L 48 35 L 47 35 z M 52 35 L 52 36 L 53 36 L 53 35 L 52 35 z M 57 35 L 57 36 L 58 36 L 58 35 L 57 35 z M 62 35 L 62 36 L 63 36 L 63 35 L 62 35 z M 67 35 L 67 36 L 68 36 L 68 35 L 67 35 z M 72 35 L 72 36 L 73 36 L 73 35 L 72 35 z M 77 35 L 77 36 L 78 36 L 78 35 L 77 35 z M 82 35 L 82 36 L 83 36 L 83 35 L 82 35 z M 89 35 L 89 36 L 90 36 L 90 35 L 89 35 z M 96 35 L 96 36 L 97 36 L 97 35 L 96 35 z M 103 35 L 103 36 L 104 36 L 104 35 L 103 35 z M 110 35 L 110 36 L 111 36 L 111 35 L 110 35 z M 117 35 L 117 36 L 118 36 L 118 35 L 117 35 z M 124 35 L 124 36 L 125 36 L 125 35 L 124 35 z M 14 36 L 14 37 L 15 37 L 15 36 L 14 36 z M 19 36 L 19 37 L 20 37 L 20 36 L 19 36 z M 24 36 L 24 37 L 25 37 L 25 36 L 24 36 z M 29 36 L 29 37 L 30 37 L 30 36 L 29 36 z M 34 36 L 34 37 L 35 37 L 35 36 L 34 36 z M 39 36 L 39 37 L 40 37 L 40 36 L 39 36 z M 44 36 L 44 37 L 45 37 L 45 36 L 44 36 z M 49 36 L 49 37 L 50 37 L 50 36 L 49 36 z M 54 36 L 54 37 L 55 37 L 55 36 L 54 36 z M 59 36 L 59 37 L 60 37 L 60 36 L 59 36 z M 64 36 L 64 37 L 65 37 L 65 36 L 64 36 z M 69 36 L 69 37 L 70 37 L 70 36 L 69 36 z M 74 36 L 74 37 L 75 37 L 75 36 L 74 36 z M 79 36 L 79 37 L 80 37 L 80 36 L 79 36 z M 84 36 L 84 37 L 85 37 L 85 36 L 84 36 z M 91 36 L 91 37 L 92 37 L 92 36 L 91 36 z M 98 36 L 98 37 L 99 37 L 99 36 L 98 36 z M 105 36 L 105 37 L 106 37 L 106 36 L 105 36 z M 112 36 L 112 37 L 113 37 L 113 36 L 112 36 z M 119 36 L 119 37 L 120 37 L 120 36 L 119 36 z M 17 37 L 17 38 L 18 38 L 18 37 L 17 37 z M 22 37 L 22 38 L 23 38 L 23 37 L 22 37 z M 27 37 L 27 38 L 28 38 L 28 37 L 27 37 z M 32 37 L 32 38 L 33 38 L 33 37 L 32 37 z M 37 37 L 37 38 L 38 38 L 38 37 L 37 37 z M 42 37 L 42 38 L 43 38 L 43 37 L 42 37 z M 47 37 L 47 38 L 48 38 L 48 37 L 47 37 z M 52 37 L 52 38 L 53 38 L 53 37 L 52 37 z M 57 37 L 57 38 L 58 38 L 58 37 L 57 37 z M 62 37 L 62 38 L 63 38 L 63 37 L 62 37 z M 67 37 L 67 38 L 68 38 L 68 37 L 67 37 z M 72 37 L 72 38 L 73 38 L 73 37 L 72 37 z M 77 37 L 77 38 L 78 38 L 78 37 L 77 37 z M 82 37 L 82 38 L 83 38 L 83 37 L 82 37 z M 89 37 L 89 38 L 90 38 L 90 37 L 89 37 z M 96 37 L 96 38 L 97 38 L 97 37 L 96 37 z M 103 37 L 103 38 L 104 38 L 104 37 L 103 37 z M 110 37 L 110 38 L 111 38 L 111 37 L 110 37 z M 117 37 L 117 38 L 118 38 L 118 37 L 117 37 z M 124 37 L 124 38 L 125 38 L 125 37 L 124 37 z M 14 38 L 14 39 L 15 39 L 15 38 L 14 38 z M 19 38 L 19 39 L 20 39 L 20 38 L 19 38 z M 24 38 L 24 39 L 25 39 L 25 38 L 24 38 z M 29 38 L 29 39 L 30 39 L 30 38 L 29 38 z M 34 38 L 34 39 L 35 39 L 35 38 L 34 38 z M 39 38 L 39 39 L 40 39 L 40 38 L 39 38 z M 44 38 L 44 39 L 45 39 L 45 38 L 44 38 z M 49 38 L 49 39 L 50 39 L 50 38 L 49 38 z M 54 38 L 54 39 L 55 39 L 55 38 L 54 38 z M 59 38 L 59 39 L 60 39 L 60 38 L 59 38 z M 64 38 L 64 39 L 65 39 L 65 38 L 64 38 z M 69 38 L 69 39 L 70 39 L 70 38 L 69 38 z M 74 38 L 74 39 L 75 39 L 75 38 L 74 38 z M 79 38 L 79 39 L 80 39 L 80 38 L 79 38 z M 84 38 L 84 39 L 85 39 L 85 38 L 84 38 z M 91 38 L 91 39 L 92 39 L 92 38 L 91 38 z M 98 38 L 98 39 L 99 39 L 99 38 L 98 38 z M 105 38 L 105 39 L 106 39 L 106 38 L 105 38 z M 112 38 L 112 39 L 113 39 L 113 38 L 112 38 z M 119 38 L 119 39 L 120 39 L 120 38 L 119 38 z M 17 39 L 17 40 L 18 40 L 18 39 L 17 39 z M 22 39 L 22 40 L 23 40 L 23 39 L 22 39 z M 27 39 L 27 40 L 28 40 L 28 39 L 27 39 z M 32 39 L 32 40 L 33 40 L 33 39 L 32 39 z M 37 39 L 37 40 L 38 40 L 38 39 L 37 39 z M 42 39 L 42 40 L 43 40 L 43 39 L 42 39 z M 47 39 L 47 40 L 48 40 L 48 39 L 47 39 z M 52 39 L 52 40 L 53 40 L 53 39 L 52 39 z M 57 39 L 57 40 L 58 40 L 58 39 L 57 39 z M 62 39 L 62 40 L 63 40 L 63 39 L 62 39 z M 67 39 L 67 40 L 68 40 L 68 39 L 67 39 z M 72 39 L 72 40 L 73 40 L 73 39 L 72 39 z M 77 39 L 77 40 L 78 40 L 78 39 L 77 39 z M 82 39 L 82 40 L 83 40 L 83 39 L 82 39 z M 89 39 L 89 40 L 90 40 L 90 39 L 89 39 z M 96 39 L 96 40 L 97 40 L 97 39 L 96 39 z M 103 39 L 103 40 L 104 40 L 104 39 L 103 39 z M 110 39 L 110 40 L 111 40 L 111 39 L 110 39 z M 117 39 L 117 40 L 118 40 L 118 39 L 117 39 z M 124 39 L 124 40 L 125 40 L 125 39 L 124 39 z M 14 40 L 14 41 L 15 41 L 15 40 L 14 40 z M 19 40 L 19 41 L 20 41 L 20 40 L 19 40 z M 24 40 L 24 41 L 25 41 L 25 40 L 24 40 z M 29 40 L 29 41 L 30 41 L 30 40 L 29 40 z M 34 40 L 34 41 L 35 41 L 35 40 L 34 40 z M 39 40 L 39 41 L 40 41 L 40 40 L 39 40 z M 44 40 L 44 41 L 45 41 L 45 40 L 44 40 z M 49 40 L 49 41 L 50 41 L 50 40 L 49 40 z M 54 40 L 54 41 L 55 41 L 55 40 L 54 40 z M 59 40 L 59 41 L 60 41 L 60 40 L 59 40 z M 64 40 L 64 41 L 65 41 L 65 40 L 64 40 z M 69 40 L 69 41 L 70 41 L 70 40 L 69 40 z M 74 40 L 74 41 L 75 41 L 75 40 L 74 40 z M 79 40 L 79 41 L 80 41 L 80 40 L 79 40 z M 84 40 L 84 41 L 85 41 L 85 40 L 84 40 z M 91 40 L 91 41 L 92 41 L 92 40 L 91 40 z M 98 40 L 98 41 L 99 41 L 99 40 L 98 40 z M 105 40 L 105 41 L 106 41 L 106 40 L 105 40 z M 112 40 L 112 41 L 113 41 L 113 40 L 112 40 z M 119 40 L 119 41 L 120 41 L 120 40 L 119 40 z M 17 41 L 17 42 L 18 42 L 18 41 L 17 41 z M 22 41 L 22 42 L 23 42 L 23 41 L 22 41 z M 27 41 L 27 42 L 28 42 L 28 41 L 27 41 z M 32 41 L 32 42 L 33 42 L 33 41 L 32 41 z M 37 41 L 37 42 L 38 42 L 38 41 L 37 41 z M 42 41 L 42 42 L 43 42 L 43 41 L 42 41 z M 47 41 L 47 42 L 48 42 L 48 41 L 47 41 z M 52 41 L 52 42 L 53 42 L 53 41 L 52 41 z M 57 41 L 57 42 L 58 42 L 58 41 L 57 41 z M 62 41 L 62 42 L 63 42 L 63 41 L 62 41 z M 67 41 L 67 42 L 68 42 L 68 41 L 67 41 z M 72 41 L 72 42 L 73 42 L 73 41 L 72 41 z M 77 41 L 77 42 L 78 42 L 78 41 L 77 41 z M 82 41 L 82 42 L 83 42 L 83 41 L 82 41 z M 89 41 L 89 42 L 90 42 L 90 41 L 89 41 z M 96 41 L 96 42 L 97 42 L 97 41 L 96 41 z M 103 41 L 103 42 L 104 42 L 104 41 L 103 41 z M 110 41 L 110 42 L 111 42 L 111 41 L 110 41 z M 117 41 L 117 42 L 118 42 L 118 41 L 117 41 z M 124 41 L 124 42 L 125 42 L 125 41 L 124 41 z M 14 42 L 14 43 L 15 43 L 15 42 L 14 42 z M 19 42 L 19 43 L 20 43 L 20 42 L 19 42 z M 24 42 L 24 43 L 25 43 L 25 42 L 24 42 z M 29 42 L 29 43 L 30 43 L 30 42 L 29 42 z M 34 42 L 34 43 L 35 43 L 35 42 L 34 42 z M 39 42 L 39 43 L 40 43 L 40 42 L 39 42 z M 44 42 L 44 43 L 45 43 L 45 42 L 44 42 z M 49 42 L 49 43 L 50 43 L 50 42 L 49 42 z M 54 42 L 54 43 L 55 43 L 55 42 L 54 42 z M 59 42 L 59 43 L 60 43 L 60 42 L 59 42 z M 64 42 L 64 43 L 65 43 L 65 42 L 64 42 z M 69 42 L 69 43 L 70 43 L 70 42 L 69 42 z M 74 42 L 74 43 L 75 43 L 75 42 L 74 42 z M 79 42 L 79 43 L 80 43 L 80 42 L 79 42 z M 84 42 L 84 43 L 85 43 L 85 42 L 84 42 z M 91 42 L 91 43 L 92 43 L 92 42 L 91 42 z M 98 42 L 98 43 L 99 43 L 99 42 L 98 42 z M 105 42 L 105 43 L 106 43 L 106 42 L 105 42 z M 112 42 L 112 43 L 113 43 L 113 42 L 112 42 z M 119 42 L 119 43 L 120 43 L 120 42 L 119 42 z M 17 43 L 17 44 L 18 44 L 18 43 L 17 43 z M 22 43 L 22 44 L 23 44 L 23 43 L 22 43 z M 27 43 L 27 44 L 28 44 L 28 43 L 27 43 z M 32 43 L 32 44 L 33 44 L 33 43 L 32 43 z M 37 43 L 37 44 L 38 44 L 38 43 L 37 43 z M 42 43 L 42 44 L 43 44 L 43 43 L 42 43 z M 47 43 L 47 44 L 48 44 L 48 43 L 47 43 z M 52 43 L 52 44 L 53 44 L 53 43 L 52 43 z M 57 43 L 57 44 L 58 44 L 58 43 L 57 43 z M 62 43 L 62 44 L 63 44 L 63 43 L 62 43 z M 67 43 L 67 44 L 68 44 L 68 43 L 67 43 z M 72 43 L 72 44 L 73 44 L 73 43 L 72 43 z M 77 43 L 77 44 L 78 44 L 78 43 L 77 43 z M 82 43 L 82 44 L 83 44 L 83 43 L 82 43 z M 89 43 L 89 44 L 90 44 L 90 43 L 89 43 z M 96 43 L 96 44 L 97 44 L 97 43 L 96 43 z M 103 43 L 103 44 L 104 44 L 104 43 L 103 43 z M 110 43 L 110 44 L 111 44 L 111 43 L 110 43 z M 117 43 L 117 44 L 118 44 L 118 43 L 117 43 z M 124 43 L 124 44 L 125 44 L 125 43 L 124 43 z M 14 44 L 14 45 L 15 45 L 15 44 L 14 44 z M 19 44 L 19 45 L 20 45 L 20 44 L 19 44 z M 24 44 L 24 45 L 25 45 L 25 44 L 24 44 z M 29 44 L 29 45 L 30 45 L 30 44 L 29 44 z M 34 44 L 34 45 L 35 45 L 35 44 L 34 44 z M 39 44 L 39 45 L 40 45 L 40 44 L 39 44 z M 44 44 L 44 45 L 45 45 L 45 44 L 44 44 z M 49 44 L 49 45 L 50 45 L 50 44 L 49 44 z M 54 44 L 54 45 L 55 45 L 55 44 L 54 44 z M 59 44 L 59 45 L 60 45 L 60 44 L 59 44 z M 64 44 L 64 45 L 65 45 L 65 44 L 64 44 z M 69 44 L 69 45 L 70 45 L 70 44 L 69 44 z M 74 44 L 74 45 L 75 45 L 75 44 L 74 44 z M 79 44 L 79 45 L 80 45 L 80 44 L 79 44 z M 84 44 L 84 45 L 85 45 L 85 44 L 84 44 z M 91 44 L 91 45 L 92 45 L 92 44 L 91 44 z M 98 44 L 98 45 L 99 45 L 99 44 L 98 44 z M 105 44 L 105 45 L 106 45 L 106 44 L 105 44 z M 112 44 L 112 45 L 113 45 L 113 44 L 112 44 z M 119 44 L 119 45 L 120 45 L 120 44 L 119 44 z M 17 45 L 17 46 L 18 46 L 18 45 L 17 45 z M 22 45 L 22 46 L 23 46 L 23 45 L 22 45 z M 27 45 L 27 46 L 28 46 L 28 45 L 27 45 z M 32 45 L 32 46 L 33 46 L 33 45 L 32 45 z M 37 45 L 37 46 L 38 46 L 38 45 L 37 45 z M 42 45 L 42 46 L 43 46 L 43 45 L 42 45 z M 47 45 L 47 46 L 48 46 L 48 45 L 47 45 z M 52 45 L 52 46 L 53 46 L 53 45 L 52 45 z M 57 45 L 57 46 L 58 46 L 58 45 L 57 45 z M 62 45 L 62 46 L 63 46 L 63 45 L 62 45 z M 67 45 L 67 46 L 68 46 L 68 45 L 67 45 z M 72 45 L 72 46 L 73 46 L 73 45 L 72 45 z M 77 45 L 77 46 L 78 46 L 78 45 L 77 45 z M 82 45 L 82 46 L 83 46 L 83 45 L 82 45 z M 89 45 L 89 46 L 90 46 L 90 45 L 89 45 z M 96 45 L 96 46 L 97 46 L 97 45 L 96 45 z M 103 45 L 103 46 L 104 46 L 104 45 L 103 45 z M 110 45 L 110 46 L 111 46 L 111 45 L 110 45 z M 117 45 L 117 46 L 118 46 L 118 45 L 117 45 z M 124 45 L 124 46 L 125 46 L 125 45 L 124 45 z M 14 46 L 14 47 L 15 47 L 15 46 L 14 46 z M 19 46 L 19 47 L 20 47 L 20 46 L 19 46 z M 24 46 L 24 47 L 25 47 L 25 46 L 24 46 z M 29 46 L 29 47 L 30 47 L 30 46 L 29 46 z M 34 46 L 34 47 L 35 47 L 35 46 L 34 46 z M 39 46 L 39 47 L 40 47 L 40 46 L 39 46 z M 44 46 L 44 47 L 45 47 L 45 46 L 44 46 z M 49 46 L 49 47 L 50 47 L 50 46 L 49 46 z M 54 46 L 54 47 L 55 47 L 55 46 L 54 46 z M 59 46 L 59 47 L 60 47 L 60 46 L 59 46 z M 64 46 L 64 47 L 65 47 L 65 46 L 64 46 z M 69 46 L 69 47 L 70 47 L 70 46 L 69 46 z M 74 46 L 74 47 L 75 47 L 75 46 L 74 46 z M 79 46 L 79 47 L 80 47 L 80 46 L 79 46 z M 84 46 L 84 47 L 85 47 L 85 46 L 84 46 z M 91 46 L 91 47 L 92 47 L 92 46 L 91 46 z M 98 46 L 98 47 L 99 47 L 99 46 L 98 46 z M 105 46 L 105 47 L 106 47 L 106 46 L 105 46 z M 112 46 L 112 47 L 113 47 L 113 46 L 112 46 z M 119 46 L 119 47 L 120 47 L 120 46 L 119 46 z M 17 47 L 17 48 L 18 48 L 18 47 L 17 47 z M 22 47 L 22 48 L 23 48 L 23 47 L 22 47 z M 27 47 L 27 48 L 28 48 L 28 47 L 27 47 z M 32 47 L 32 48 L 33 48 L 33 47 L 32 47 z M 37 47 L 37 48 L 38 48 L 38 47 L 37 47 z M 42 47 L 42 48 L 43 48 L 43 47 L 42 47 z M 47 47 L 47 48 L 48 48 L 48 47 L 47 47 z M 52 47 L 52 48 L 53 48 L 53 47 L 52 47 z M 57 47 L 57 48 L 58 48 L 58 47 L 57 47 z M 62 47 L 62 48 L 63 48 L 63 47 L 62 47 z M 67 47 L 67 48 L 68 48 L 68 47 L 67 47 z M 72 47 L 72 48 L 73 48 L 73 47 L 72 47 z M 77 47 L 77 48 L 78 48 L 78 47 L 77 47 z M 82 47 L 82 48 L 83 48 L 83 47 L 82 47 z M 89 47 L 89 48 L 90 48 L 90 47 L 89 47 z M 96 47 L 96 48 L 97 48 L 97 47 L 96 47 z M 103 47 L 103 48 L 104 48 L 104 47 L 103 47 z M 110 47 L 110 48 L 111 48 L 111 47 L 110 47 z M 117 47 L 117 48 L 118 48 L 118 47 L 117 47 z M 124 47 L 124 48 L 125 48 L 125 47 L 124 47 z M 14 48 L 14 49 L 15 49 L 15 48 L 14 48 z M 19 48 L 19 49 L 20 49 L 20 48 L 19 48 z M 24 48 L 24 49 L 25 49 L 25 48 L 24 48 z M 29 48 L 29 49 L 30 49 L 30 48 L 29 48 z M 34 48 L 34 49 L 35 49 L 35 48 L 34 48 z M 39 48 L 39 49 L 40 49 L 40 48 L 39 48 z M 44 48 L 44 49 L 45 49 L 45 48 L 44 48 z M 49 48 L 49 49 L 50 49 L 50 48 L 49 48 z M 54 48 L 54 49 L 55 49 L 55 48 L 54 48 z M 59 48 L 59 49 L 60 49 L 60 48 L 59 48 z M 64 48 L 64 49 L 65 49 L 65 48 L 64 48 z M 69 48 L 69 49 L 70 49 L 70 48 L 69 48 z M 74 48 L 74 49 L 75 49 L 75 48 L 74 48 z M 79 48 L 79 49 L 80 49 L 80 48 L 79 48 z M 84 48 L 84 49 L 85 49 L 85 48 L 84 48 z M 91 48 L 91 49 L 92 49 L 92 48 L 91 48 z M 98 48 L 98 49 L 99 49 L 99 48 L 98 48 z M 105 48 L 105 49 L 106 49 L 106 48 L 105 48 z M 112 48 L 112 49 L 113 49 L 113 48 L 112 48 z M 119 48 L 119 49 L 120 49 L 120 48 L 119 48 z M 17 49 L 17 50 L 18 50 L 18 49 L 17 49 z M 22 49 L 22 50 L 23 50 L 23 49 L 22 49 z M 27 49 L 27 50 L 28 50 L 28 49 L 27 49 z M 32 49 L 32 50 L 33 50 L 33 49 L 32 49 z M 37 49 L 37 50 L 38 50 L 38 49 L 37 49 z M 42 49 L 42 50 L 43 50 L 43 49 L 42 49 z M 47 49 L 47 50 L 48 50 L 48 49 L 47 49 z M 52 49 L 52 50 L 53 50 L 53 49 L 52 49 z M 57 49 L 57 50 L 58 50 L 58 49 L 57 49 z M 62 49 L 62 50 L 63 50 L 63 49 L 62 49 z M 67 49 L 67 50 L 68 50 L 68 49 L 67 49 z M 72 49 L 72 50 L 73 50 L 73 49 L 72 49 z M 77 49 L 77 50 L 78 50 L 78 49 L 77 49 z M 82 49 L 82 50 L 83 50 L 83 49 L 82 49 z M 89 49 L 89 50 L 90 50 L 90 49 L 89 49 z M 96 49 L 96 50 L 97 50 L 97 49 L 96 49 z M 103 49 L 103 50 L 104 50 L 104 49 L 103 49 z M 110 49 L 110 50 L 111 50 L 111 49 L 110 49 z M 117 49 L 117 50 L 118 50 L 118 49 L 117 49 z M 124 49 L 124 50 L 125 50 L 125 49 L 124 49 z M 14 50 L 14 51 L 15 51 L 15 50 L 14 50 z M 19 50 L 19 51 L 20 51 L 20 50 L 19 50 z M 24 50 L 24 51 L 25 51 L 25 50 L 24 50 z M 29 50 L 29 51 L 30 51 L 30 50 L 29 50 z M 34 50 L 34 51 L 35 51 L 35 50 L 34 50 z M 39 50 L 39 51 L 40 51 L 40 50 L 39 50 z M 44 50 L 44 51 L 45 51 L 45 50 L 44 50 z M 49 50 L 49 51 L 50 51 L 50 50 L 49 50 z M 54 50 L 54 51 L 55 51 L 55 50 L 54 50 z M 59 50 L 59 51 L 60 51 L 60 50 L 59 50 z M 64 50 L 64 51 L 65 51 L 65 50 L 64 50 z M 69 50 L 69 51 L 70 51 L 70 50 L 69 50 z M 74 50 L 74 51 L 75 51 L 75 50 L 74 50 z M 79 50 L 79 51 L 80 51 L 80 50 L 79 50 z M 84 50 L 84 51 L 85 51 L 85 50 L 84 50 z M 91 50 L 91 51 L 92 51 L 92 50 L 91 50 z M 98 50 L 98 51 L 99 51 L 99 50 L 98 50 z M 105 50 L 105 51 L 106 51 L 106 50 L 105 50 z M 112 50 L 112 51 L 113 51 L 113 50 L 112 50 z M 119 50 L 119 51 L 120 51 L 120 50 L 119 50 z M 17 51 L 17 52 L 18 52 L 18 51 L 17 51 z M 22 51 L 22 52 L 23 52 L 23 51 L 22 51 z M 27 51 L 27 52 L 28 52 L 28 51 L 27 51 z M 32 51 L 32 52 L 33 52 L 33 51 L 32 51 z M 37 51 L 37 52 L 38 52 L 38 51 L 37 51 z M 42 51 L 42 52 L 43 52 L 43 51 L 42 51 z M 47 51 L 47 52 L 48 52 L 48 51 L 47 51 z M 52 51 L 52 52 L 53 52 L 53 51 L 52 51 z M 57 51 L 57 52 L 58 52 L 58 51 L 57 51 z M 62 51 L 62 52 L 63 52 L 63 51 L 62 51 z M 67 51 L 67 52 L 68 52 L 68 51 L 67 51 z M 72 51 L 72 52 L 73 52 L 73 51 L 72 51 z M 77 51 L 77 52 L 78 52 L 78 51 L 77 51 z M 82 51 L 82 52 L 83 52 L 83 51 L 82 51 z M 89 51 L 89 52 L 90 52 L 90 51 L 89 51 z M 96 51 L 96 52 L 97 52 L 97 51 L 96 51 z M 103 51 L 103 52 L 104 52 L 104 51 L 103 51 z M 110 51 L 110 52 L 111 52 L 111 51 L 110 51 z M 117 51 L 117 52 L 118 52 L 118 51 L 117 51 z M 124 51 L 124 52 L 125 52 L 125 51 L 124 51 z M 14 52 L 14 53 L 15 53 L 15 52 L 14 52 z M 19 52 L 19 53 L 20 53 L 20 52 L 19 52 z M 24 52 L 24 53 L 25 53 L 25 52 L 24 52 z M 29 52 L 29 53 L 30 53 L 30 52 L 29 52 z M 34 52 L 34 53 L 35 53 L 35 52 L 34 52 z M 39 52 L 39 53 L 40 53 L 40 52 L 39 52 z M 44 52 L 44 53 L 45 53 L 45 52 L 44 52 z M 49 52 L 49 53 L 50 53 L 50 52 L 49 52 z M 54 52 L 54 53 L 55 53 L 55 52 L 54 52 z M 59 52 L 59 53 L 60 53 L 60 52 L 59 52 z M 64 52 L 64 53 L 65 53 L 65 52 L 64 52 z M 69 52 L 69 53 L 70 53 L 70 52 L 69 52 z M 74 52 L 74 53 L 75 53 L 75 52 L 74 52 z M 79 52 L 79 53 L 80 53 L 80 52 L 79 52 z M 84 52 L 84 53 L 85 53 L 85 52 L 84 52 z M 91 52 L 91 53 L 92 53 L 92 52 L 91 52 z M 98 52 L 98 53 L 99 53 L 99 52 L 98 52 z M 105 52 L 105 53 L 106 53 L 106 52 L 105 52 z M 112 52 L 112 53 L 113 53 L 113 52 L 112 52 z M 119 52 L 119 53 L 120 53 L 120 52 L 119 52 z M 17 53 L 17 54 L 18 54 L 18 53 L 17 53 z M 22 53 L 22 54 L 23 54 L 23 53 L 22 53 z M 27 53 L 27 54 L 28 54 L 28 53 L 27 53 z M 32 53 L 32 54 L 33 54 L 33 53 L 32 53 z M 37 53 L 37 54 L 38 54 L 38 53 L 37 53 z M 42 53 L 42 54 L 43 54 L 43 53 L 42 53 z M 47 53 L 47 54 L 48 54 L 48 53 L 47 53 z M 52 53 L 52 54 L 53 54 L 53 53 L 52 53 z M 57 53 L 57 54 L 58 54 L 58 53 L 57 53 z M 62 53 L 62 54 L 63 54 L 63 53 L 62 53 z M 67 53 L 67 54 L 68 54 L 68 53 L 67 53 z M 72 53 L 72 54 L 73 54 L 73 53 L 72 53 z M 77 53 L 77 54 L 78 54 L 78 53 L 77 53 z M 82 53 L 82 54 L 83 54 L 83 53 L 82 53 z M 89 53 L 89 54 L 90 54 L 90 53 L 89 53 z M 96 53 L 96 54 L 97 54 L 97 53 L 96 53 z M 103 53 L 103 54 L 104 54 L 104 53 L 103 53 z M 110 53 L 110 54 L 111 54 L 111 53 L 110 53 z M 117 53 L 117 54 L 118 54 L 118 53 L 117 53 z M 124 53 L 124 54 L 125 54 L 125 53 L 124 53 z M 14 54 L 14 55 L 15 55 L 15 54 L 14 54 z M 19 54 L 19 55 L 20 55 L 20 54 L 19 54 z M 24 54 L 24 55 L 25 55 L 25 54 L 24 54 z M 29 54 L 29 55 L 30 55 L 30 54 L 29 54 z M 34 54 L 34 55 L 35 55 L 35 54 L 34 54 z M 39 54 L 39 55 L 40 55 L 40 54 L 39 54 z M 44 54 L 44 55 L 45 55 L 45 54 L 44 54 z M 49 54 L 49 55 L 50 55 L 50 54 L 49 54 z M 54 54 L 54 55 L 55 55 L 55 54 L 54 54 z M 59 54 L 59 55 L 60 55 L 60 54 L 59 54 z M 64 54 L 64 55 L 65 55 L 65 54 L 64 54 z M 69 54 L 69 55 L 70 55 L 70 54 L 69 54 z M 74 54 L 74 55 L 75 55 L 75 54 L 74 54 z M 79 54 L 79 55 L 80 55 L 80 54 L 79 54 z M 84 54 L 84 55 L 85 55 L 85 54 L 84 54 z M 91 54 L 91 55 L 92 55 L 92 54 L 91 54 z M 98 54 L 98 55 L 99 55 L 99 54 L 98 54 z M 105 54 L 105 55 L 106 55 L 106 54 L 105 54 z M 112 54 L 112 55 L 113 55 L 113 54 L 112 54 z M 119 54 L 119 55 L 120 55 L 120 54 L 119 54 z M 17 55 L 17 56 L 18 56 L 18 55 L 17 55 z M 17 56 L 16 56 L 16 57 L 17 57 L 17 56 z M 22 55 L 22 56 L 23 56 L 23 55 L 22 55 z M 22 56 L 21 56 L 21 57 L 22 57 L 22 56 z M 27 55 L 27 56 L 28 56 L 28 55 L 27 55 z M 27 56 L 26 56 L 26 57 L 27 57 L 27 56 z M 32 55 L 32 56 L 33 56 L 33 55 L 32 55 z M 32 56 L 31 56 L 31 57 L 32 57 L 32 56 z M 37 55 L 37 56 L 38 56 L 38 55 L 37 55 z M 37 56 L 36 56 L 36 57 L 37 57 L 37 56 z M 42 55 L 42 56 L 43 56 L 43 55 L 42 55 z M 42 56 L 41 56 L 41 57 L 42 57 L 42 56 z M 47 55 L 47 56 L 48 56 L 48 55 L 47 55 z M 47 56 L 46 56 L 46 57 L 47 57 L 47 56 z M 52 55 L 52 56 L 53 56 L 53 55 L 52 55 z M 52 56 L 51 56 L 51 57 L 52 57 L 52 56 z M 57 55 L 57 56 L 58 56 L 58 55 L 57 55 z M 57 56 L 56 56 L 56 57 L 57 57 L 57 56 z M 62 55 L 62 56 L 63 56 L 63 55 L 62 55 z M 62 56 L 61 56 L 61 57 L 62 57 L 62 56 z M 67 55 L 67 56 L 68 56 L 68 55 L 67 55 z M 67 56 L 66 56 L 66 57 L 67 57 L 67 56 z M 72 55 L 72 56 L 73 56 L 73 55 L 72 55 z M 72 56 L 71 56 L 71 57 L 72 57 L 72 56 z M 77 55 L 77 56 L 78 56 L 78 55 L 77 55 z M 77 56 L 76 56 L 76 57 L 77 57 L 77 56 z M 82 55 L 82 56 L 83 56 L 83 55 L 82 55 z M 82 56 L 81 56 L 81 57 L 82 57 L 82 56 z M 89 55 L 89 56 L 90 56 L 90 55 L 89 55 z M 89 56 L 88 56 L 88 57 L 89 57 L 89 56 z M 96 55 L 96 56 L 97 56 L 97 55 L 96 55 z M 96 56 L 95 56 L 95 57 L 96 57 L 96 56 z M 103 55 L 103 56 L 104 56 L 104 55 L 103 55 z M 103 56 L 102 56 L 102 57 L 103 57 L 103 56 z M 110 55 L 110 56 L 111 56 L 111 55 L 110 55 z M 110 56 L 109 56 L 109 57 L 110 57 L 110 56 z M 117 55 L 117 56 L 118 56 L 118 55 L 117 55 z M 117 56 L 116 56 L 116 57 L 117 57 L 117 56 z M 124 55 L 124 56 L 125 56 L 125 55 L 124 55 z M 124 56 L 123 56 L 123 57 L 124 57 L 124 56 z M 14 56 L 14 57 L 15 57 L 15 56 L 14 56 z M 19 56 L 19 57 L 20 57 L 20 56 L 19 56 z M 24 56 L 24 57 L 25 57 L 25 56 L 24 56 z M 29 56 L 29 57 L 30 57 L 30 56 L 29 56 z M 34 56 L 34 57 L 35 57 L 35 56 L 34 56 z M 39 56 L 39 57 L 40 57 L 40 56 L 39 56 z M 44 56 L 44 57 L 45 57 L 45 56 L 44 56 z M 49 56 L 49 57 L 50 57 L 50 56 L 49 56 z M 54 56 L 54 57 L 55 57 L 55 56 L 54 56 z M 59 56 L 59 57 L 60 57 L 60 56 L 59 56 z M 64 56 L 64 57 L 65 57 L 65 56 L 64 56 z M 69 56 L 69 57 L 70 57 L 70 56 L 69 56 z M 74 56 L 74 57 L 75 57 L 75 56 L 74 56 z M 79 56 L 79 57 L 80 57 L 80 56 L 79 56 z M 84 56 L 84 57 L 85 57 L 85 56 L 84 56 z M 86 56 L 86 57 L 87 57 L 87 56 L 86 56 z M 91 56 L 91 57 L 92 57 L 92 56 L 91 56 z M 93 56 L 93 57 L 94 57 L 94 56 L 93 56 z M 98 56 L 98 57 L 99 57 L 99 56 L 98 56 z M 100 56 L 100 57 L 101 57 L 101 56 L 100 56 z M 105 56 L 105 57 L 106 57 L 106 56 L 105 56 z M 107 56 L 107 57 L 108 57 L 108 56 L 107 56 z M 112 56 L 112 57 L 113 57 L 113 56 L 112 56 z M 114 56 L 114 57 L 115 57 L 115 56 L 114 56 z M 119 56 L 119 57 L 120 57 L 120 56 L 119 56 z M 121 56 L 121 57 L 122 57 L 122 56 L 121 56 z " />
</svg>
