<?xml version="1.0" encoding="UTF-8" standalone="no"?>
<!-- Created with Inkscape (http://www.inkscape.org/) -->

<svg
   width="128"
   height="64"
   viewBox="0 0 128 64"
   version="1.1"
   id="svg1"
   xmlns="http://www.w3.org/2000/svg"
   xmlns:svg="http://www.w3.org/2000/svg">
  <rect
     style="fill:#000000;fill-opacity:1"
     id="rect2"
     width="128"
     height="64"
     x="0"
     y="0" />
  <path
     id="lable_title_01"
     style="fill:#f7f7d7;fill-opacity:1"
     d="m 31.007881,6.056183 v 4.693377 h 0.6358 V 8.920634 h 1.37918 c 0.49745,0 0.89056,-0.130755 1.17932,-0.392828 0.29091,-0.262072 0.43663,-0.615219 0.43663,-1.059378 0,-0.448638 -0.14416,-0.795928 -0.43281,-1.042488 -0.28873,-0.246477 -0.69679,-0.369757 -1.22312,-0.369757 z m 4.55042,0 v 4.693377 h 3.69781 v -0.519686 h -3.06126 V 8.594677 h 2.72452 V 8.081132 h -2.72452 v -1.50526 h 2.92439 V 6.056183 Z m 5.91957,0 -1.91501,4.693377 h 0.65961 l 0.53969,-1.372259 h 2.13874 l 0.53582,1.372259 h 0.64962 l -1.88506,-4.693377 z m 3.18197,0 v 4.693377 h 0.63576 V 8.950623 l 0.61349,-0.465882 1.87507,2.264819 h 0.78956 l -2.26483,-2.654572 1.99881,-2.038805 h -0.74955 l -2.26255,2.351685 V 6.056183 Z m 6.44623,0 v 4.693377 h 3.0082 v -0.519686 h -2.37244 V 6.056183 Z m 3.79389,0 v 4.693377 h 3.69786 v -0.519686 h -3.0613 V 8.594677 h 2.72535 V 8.081132 h -2.72535 v -1.50526 h 2.92522 V 6.056183 Z m 4.02148,0 1.91506,4.693377 h 0.65961 l 1.91577,-4.693377 h -0.66959 l -1.29231,3.304193 -0.27985,0.829503 -0.27983,-0.829503 -1.29923,-3.304193 z m 5.08011,0 v 4.693377 h 3.69781 v -0.519686 h -3.06126 V 8.594677 h 2.72453 V 8.081132 h -2.72453 v -1.50526 h 2.92444 V 6.056183 Z m 4.55039,0 v 4.693377 h 3.00823 v -0.519686 h -2.37168 V 6.056183 Z m 5.43679,0 v 4.693377 h 0.56661 V 7.618317 l -0.0134,-0.629622 -0.0104,-0.369766 0.10994,0.366692 0.18681,0.565824 1.2293,3.198115 h 0.44668 l 1.21233,-3.198115 c 0.0866,-0.224321 0.18406,-0.534961 0.29293,-0.932516 -0.0201,0.319812 -0.0292,0.652928 -0.0292,0.999388 v 3.131243 h 0.57271 V 6.056183 h -0.81644 l -1.22619,3.254247 c -0.0201,0.04661 -0.0583,0.161496 -0.11603,0.343626 -0.0555,0.179881 -0.0921,0.313982 -0.10994,0.402825 -0.0134,-0.0666 -0.0417,-0.174057 -0.0838,-0.322882 -0.04,-0.150991 -0.0817,-0.292574 -0.126,-0.423569 l -1.2493,-3.254247 z m 5.68359,0 v 4.693377 h 3.69782 v -0.519686 h -3.06126 V 8.594677 h 2.72452 V 8.081132 h -2.72452 v -1.50526 h 2.92444 V 6.056183 Z m 4.1437,0 v 0.519689 h 1.61292 v 4.173688 h 0.6327 V 6.575872 h 1.612128 V 6.056183 Z m 4.574238,0 v 4.693377 h 3.69785 v -0.519686 h -3.06129 V 8.594677 h 2.72455 V 8.081132 h -2.72455 v -1.50526 h 2.92443 V 6.056183 Z m 4.55042,0 v 4.693377 h 0.63656 V 8.800695 h 1.46219 l 1.21931,1.948865 h 0.73338 l -1.33306,-2.02188 c 0.35756,-0.06215 0.63742,-0.212119 0.8395,-0.449744 0.20437,-0.237625 0.30674,-0.530785 0.30674,-0.879493 0,-0.42195 -0.14406,-0.750937 -0.43281,-0.986319 -0.28647,-0.23766 -0.69454,-0.355941 -1.22312,-0.355941 z m -51.109148,0.479694 0.09,0.276002 c 0.0622,0.193229 0.12392,0.366455 0.18602,0.519689 l 0.60349,1.549114 h -1.75587 l 0.59964,-1.542186 c 0.1089,-0.288716 0.19126,-0.525239 0.24679,-0.709565 z m -10.18785,0.02992 h 1.26307 c 0.72846,0 1.09243,0.303161 1.09243,0.909485 0,0.628484 -0.35558,0.94251 -1.06629,0.94251 h -1.28921 z m 61.933558,0 h 1.50907 c 0.34871,0 0.61522,0.07168 0.79955,0.216015 0.18658,0.142177 0.27983,0.350317 0.27983,0.623485 0,0.282065 -0.0924,0.501938 -0.27676,0.65962 -0.18212,0.155438 -0.44033,0.232941 -0.77569,0.232941 h -1.536 z" />
  <g
     id="g24">
    <path
       style="fill:#ffffff;fill-opacity:1;stroke:#363636;stroke-width:0.234919;stroke-opacity:1"
       d="m 115.1173,17.339995 v 9.765082 h 4.76117 c 0.003,0 0.004,-0.01796 0.004,-0.03992 v -9.684854 c 0,-0.02199 -0.001,-0.03727 -0.004,-0.03727 z"
       id="PEAK_RIGHT_15" />
    <path
       style="fill:#ffffff;fill-opacity:1;stroke:#363636;stroke-width:0.234919;stroke-opacity:1"
       d="m 109.11847,17.341158 v 9.762313 h 4.76275 v -9.762313 z"
       id="PEAK_RIGHT_14" />
    <path
       style="fill:#ffffff;fill-opacity:1;stroke:#363636;stroke-width:0.234919;stroke-opacity:1"
       d="m 103.11756,17.340297 v 9.764477 h 4.76457 v -9.764477 z"
       id="PEAK_RIGHT_13" />
    <path
       style="fill:#ffffff;fill-opacity:1;stroke:#363636;stroke-width:0.234919;stroke-opacity:1"
       d="m 97.120874,17.344566 v 9.756583 h 4.757936 v -9.756583 z"
       id="PEAK_RIGHT_12" />
    <path
       style="fill:#ffffff;fill-opacity:1;stroke:#363636;stroke-width:0.234919;stroke-opacity:1"
       d="m 91.118848,17.34154 v 9.761405 H 95.88084 V 17.34154 Z"
       id="PEAK_RIGHT_11" />
    <path
       style="fill:#ffffff;fill-opacity:1;stroke:#363636;stroke-width:0.234919;stroke-opacity:1"
       d="m 85.117556,17.340248 v 9.76448 h 4.764576 v -9.76448 z"
       id="PEAK_RIGHT_10" />
    <path
       style="fill:#ffffff;fill-opacity:1;stroke:#363636;stroke-width:0.234919;stroke-opacity:1"
       d="m 79.116012,17.338704 v 9.767659 h 4.795323 v -9.767659 z"
       id="PEAK_RIGHT_09" />
    <path
       style="fill:#ffffff;fill-opacity:1;stroke:#363636;stroke-width:0.234919;stroke-opacity:1"
       d="m 73.11986,17.343138 v 9.758794 h 4.78865 v -9.758794 z"
       id="PEAK_RIGHT_08" />
    <path
       style="fill:#ffffff;fill-opacity:1;stroke:#363636;stroke-width:0.234919;stroke-opacity:1"
       d="m 67.117889,17.340866 v 9.763338 h 4.79207 v -9.763338 z"
       id="PEAK_RIGHT_07" />
    <path
       style="fill:#ffffff;fill-opacity:1;stroke:#363636;stroke-width:0.234919;stroke-opacity:1"
       d="m 61.116627,17.339414 v 9.766242 h 4.794256 v -9.766242 z"
       id="PEAK_RIGHT_06" />
    <path
       style="fill:#ffffff;fill-opacity:1;stroke:#363636;stroke-width:0.234919;stroke-opacity:1"
       d="m 55.11986,17.343138 v 9.758794 h 4.788647 v -9.758793 z"
       id="PEAK_RIGHT_05" />
    <path
       style="fill:#ffffff;fill-opacity:1;stroke:#363636;stroke-width:0.234919;stroke-opacity:1"
       d="m 49.116627,17.339414 v 9.766242 h 4.794255 v -9.766242 z"
       id="PEAK_RIGHT_04" />
    <path
       style="fill:#ffffff;fill-opacity:1;stroke:#363636;stroke-width:0.234919;stroke-opacity:1"
       d="m 43.119189,17.342366 v 9.760339 h 4.789812 v -9.760339 z"
       id="PEAK_RIGHT_03" />
    <path
       style="fill:#ffffff;fill-opacity:1;stroke:#363636;stroke-width:0.234919;stroke-opacity:1"
       d="m 37.117557,17.340249 v 9.764575 h 4.764575 v -9.764575 z"
       id="PEAK_RIGHT_02" />
    <path
       style="fill:#ffffff;fill-opacity:1;stroke:#363636;stroke-width:0.234919;stroke-opacity:1"
       d="m 31.117238,17.33993 v 9.765211 H 35.88245 V 17.33993 Z"
       id="PEAK_RIGHT_01" />
    <path
       style="fill:#ffffff;fill-opacity:1;stroke:#363636;stroke-width:0.234919;stroke-opacity:1"
       d="m 25.125094,17.343848 c -0.0023,0 -0.0041,0.01937 -0.0041,0.03992 v 9.677882 c 0,0.02171 0.0017,0.03992 0.0041,0.03992 h 4.753863 v -9.758011 z"
       id="PEAK_RIGHT_00" />
  </g>
  <path
     id="label_title_01"
     style="fill:#f7f7d7;fill-opacity:1"
     d="m 77.319961,30.999998 v 5.898825 h 4.09989 v -5.898822 z m 4.55962,0.0048 v 5.898826 h 4.09989 v -5.898826 z m -3.70553,0.733422 h 0.8541 c 0.93307,0 1.709,0.992145 1.709,2.212547 0,1.223078 -0.77636,2.212547 -1.709,2.212547 h -0.8541 z m 6.09336,0.0048 h 0.85488 v 4.425093 h -0.85488 c -0.93221,0 -1.70825,-0.989547 -1.70825,-2.212546 0,-1.220446 0.77561,-2.212547 1.70825,-2.212547 z m -2.55468,7.307143 c -0.56853,0 -0.98495,0.20153 -1.24925,0.60349 -0.26207,0.401998 -0.39284,1.005842 -0.39284,1.812043 0,0.78841 0.13494,1.388043 0.4059,1.798937 0.27097,0.410855 0.67655,0.616554 1.21624,0.616554 0.53968,0 0.94695,-0.206565 1.22232,-0.619624 0.27761,-0.413099 0.41668,-1.011904 0.41668,-1.795867 0,-0.797305 -0.1324,-1.399417 -0.39668,-1.805864 -0.26206,-0.406446 -0.66934,-0.609669 -1.22237,-0.609669 z m 0,0.486781 c 0.35981,0 0.61715,0.152368 0.77262,0.456632 0.15768,0.304264 0.23681,0.794826 0.23681,1.472236 0,0.652928 -0.0824,1.136798 -0.24681,1.452202 -0.16433,0.315364 -0.42254,0.473557 -0.77568,0.473557 -0.35537,0 -0.61519,-0.154848 -0.77952,-0.463559 -0.16214,-0.308712 -0.24372,-0.795968 -0.24372,-1.4622 0,-0.686306 0.08,-1.179348 0.23985,-1.479164 0.16214,-0.299816 0.42778,-0.449704 0.79645,-0.449704 z" />
  <g
     id="g26">
    <path
       style="fill:#ffffff;fill-opacity:1;stroke:#363636;stroke-width:0.234919;stroke-opacity:1"
       d="m 115.1173,45.339995 v 9.765082 h 4.76117 c 0.003,0 0.004,-0.01796 0.004,-0.03992 v -9.684854 c 0,-0.02199 -0.001,-0.03727 -0.004,-0.03727 z"
       id="PEAK_LEFT_15" />
    <path
       style="fill:#ffffff;fill-opacity:1;stroke:#363636;stroke-width:0.234919;stroke-opacity:1"
       d="m 109.11847,45.341158 v 9.762313 h 4.76275 v -9.762313 z"
       id="PEAK_LEFT_14" />
    <path
       style="fill:#ffffff;fill-opacity:1;stroke:#363636;stroke-width:0.234919;stroke-opacity:1"
       d="m 103.11756,45.340297 v 9.764477 h 4.76457 v -9.764477 z"
       id="PEAK_LEFT_13" />
    <path
       style="fill:#ffffff;fill-opacity:1;stroke:#363636;stroke-width:0.234919;stroke-opacity:1"
       d="m 97.120874,45.344566 v 9.756583 h 4.757936 v -9.756583 z"
       id="PEAK_LEFT_12" />
    <path
       style="fill:#ffffff;fill-opacity:1;stroke:#363636;stroke-width:0.234919;stroke-opacity:1"
       d="m 91.118848,45.34154 v 9.761405 H 95.88084 V 45.34154 Z"
       id="PEAK_LEFT_11" />
    <path
       style="fill:#ffffff;fill-opacity:1;stroke:#363636;stroke-width:0.234919;stroke-opacity:1"
       d="m 85.117556,45.340248 v 9.76448 h 4.764576 v -9.76448 z"
       id="PEAK_LEFT_10" />
    <path
       style="fill:#ffffff;fill-opacity:1;stroke:#363636;stroke-width:0.234919;stroke-opacity:1"
       d="m 79.116012,45.338704 v 9.767659 h 4.795323 v -9.767659 z"
       id="PEAK_LEFT_09" />
    <path
       style="fill:#ffffff;fill-opacity:1;stroke:#363636;stroke-width:0.234919;stroke-opacity:1"
       d="m 73.11986,45.343138 v 9.758794 h 4.78865 v -9.758794 z"
       id="PEAK_LEFT_08" />
    <path
       style="fill:#ffffff;fill-opacity:1;stroke:#363636;stroke-width:0.234919;stroke-opacity:1"
       d="m 67.117889,45.340866 v 9.763338 h 4.79207 v -9.763338 z"
       id="PEAK_LEFT_07" />
    <path
       style="fill:#ffffff;fill-opacity:1;stroke:#363636;stroke-width:0.234919;stroke-opacity:1"
       d="m 61.116627,45.339414 v 9.766242 h 4.794256 v -9.766242 z"
       id="PEAK_LEFT_06" />
    <path
       style="fill:#ffffff;fill-opacity:1;stroke:#363636;stroke-width:0.234919;stroke-opacity:1"
       d="m 55.11986,45.343138 v 9.758794 h 4.788647 v -9.758793 z"
       id="PEAK_LEFT_05" />
    <path
       style="fill:#ffffff;fill-opacity:1;stroke:#363636;stroke-width:0.234919;stroke-opacity:1"
       d="m 49.116627,45.339414 v 9.766242 h 4.794255 v -9.766242 z"
       id="PEAK_LEFT_04" />
    <path
       style="fill:#ffffff;fill-opacity:1;stroke:#363636;stroke-width:0.234919;stroke-opacity:1"
       d="m 43.119189,45.342366 v 9.760339 h 4.789812 v -9.760339 z"
       id="PEAK_LEFT_03" />
    <path
       style="fill:#ffffff;fill-opacity:1;stroke:#363636;stroke-width:0.234919;stroke-opacity:1"
       d="m 37.117557,45.340249 v 9.764575 h 4.764575 v -9.764575 z"
       id="PEAK_LEFT_02" />
    <path
       style="fill:#ffffff;fill-opacity:1;stroke:#363636;stroke-width:0.234919;stroke-opacity:1"
       d="m 31.117238,45.33993 v 9.765211 H 35.88245 V 45.33993 Z"
       id="PEAK_LEFT_01" />
    <path
       style="fill:#ffffff;fill-opacity:1;stroke:#363636;stroke-width:0.234919;stroke-opacity:1"
       d="m 25.125094,45.343848 c -0.0023,0 -0.0041,0.01937 -0.0041,0.03992 v 9.677882 c 0,0.02171 0.0017,0.03992 0.0041,0.03992 h 4.753863 v -9.758011 z"
       id="PEAK_LEFT_00" />
  </g>
  <path
     id="lable_title_02"
     style="fill:#f7f7d7;fill-opacity:1"
     d="m 31.092683,34.157356 c -0.43085,0 -0.78401,0.11155 -1.05937,0.33367 -0.27317,0.22208 -0.43148,0.52028 -0.47588,0.89563 l 0.6127,0.0569 c 0.0287,-0.25093 0.12556,-0.44502 0.28981,-0.58275 0.16659,-0.13988 0.37732,-0.20987 0.63274,-0.20987 0.26872,0 0.4786,0.0708 0.62963,0.21298 0.15099,0.14209 0.22676,0.34202 0.22676,0.59964 0,0.19102 -0.0442,0.36177 -0.13299,0.51276 -0.0866,0.15103 -0.20154,0.29588 -0.34367,0.4336 -0.14207,0.13769 -0.30202,0.27514 -0.4797,0.41283 -0.17547,0.13773 -0.35288,0.28761 -0.5328,0.44974 -0.17987,0.15993 -0.35223,0.33981 -0.51661,0.53969 -0.1621,0.19767 -0.29954,0.426673 -0.41283,0.686498 v 0.42286 h 3.10819 v -0.509727 h -2.44857 c 0.0666,-0.155438 0.17571,-0.316191 0.32674,-0.482771 0.151,-0.16878 0.35422,-0.35783 0.60964,-0.5666 0.46418,-0.37756 0.77817,-0.65655 0.9425,-0.83644 0.16437,-0.17992 0.28761,-0.3598 0.3698,-0.53968 0.0844,-0.17988 0.12691,-0.36063 0.12691,-0.54276 0,-0.41085 -0.12824,-0.72732 -0.38362,-0.94943 -0.25317,-0.22432 -0.61628,-0.33674 -1.08933,-0.33674 z m 3.79776,0 c -0.56855,0 -0.98499,0.20153 -1.24926,0.60349 -0.26207,0.402 -0.39287,1.00585 -0.39287,1.81205 0,0.78841 0.13567,1.38804 0.40669,1.798933 0.27096,0.410855 0.67579,0.616554 1.21544,0.616554 0.53972,0 0.94774,-0.206565 1.22311,-0.619624 0.27762,-0.413103 0.41594,-1.011903 0.41594,-1.795863 0,-0.79731 -0.13166,-1.39942 -0.39595,-1.80587 -0.26206,-0.40644 -0.67012,-0.60967 -1.2231,-0.60967 z m 13.644181,0 c -0.56853,0 -0.98497,0.20153 -1.24924,0.60349 -0.26207,0.402 -0.39287,1.00585 -0.39287,1.81205 0,0.78841 0.13494,1.38804 0.40593,1.798933 0.27092,0.410855 0.67651,0.616554 1.21619,0.616554 0.53969,0 0.94695,-0.206565 1.22236,-0.619624 0.27759,-0.413103 0.41669,-1.011903 0.41669,-1.795863 0,-0.79731 -0.13241,-1.39942 -0.39669,-1.80587 -0.26207,-0.40644 -0.66938,-0.60967 -1.22237,-0.60967 z m 22.146499,0 c -0.43084,0 -0.78396,0.11155 -1.05937,0.33367 -0.27317,0.22208 -0.43223,0.52028 -0.47662,0.89563 l 0.61349,0.0569 c 0.0287,-0.25093 0.12541,-0.44502 0.28981,-0.58275 0.16655,-0.13988 0.37729,-0.20987 0.63269,-0.20987 0.26872,0 0.47861,0.0708 0.62963,0.21298 0.15103,0.14209 0.2268,0.34202 0.2268,0.59964 0,0.19102 -0.0449,0.36177 -0.13374,0.51276 -0.0866,0.15103 -0.20075,0.29588 -0.34288,0.4336 -0.14208,0.13769 -0.30202,0.27514 -0.47969,0.41283 -0.17544,0.13773 -0.35288,0.28761 -0.53277,0.44974 -0.17991,0.15993 -0.35228,0.33981 -0.51661,0.53969 -0.16214,0.19767 -0.29958,0.426673 -0.41283,0.686498 v 0.42286 h 3.10815 v -0.509727 h -2.44857 c 0.0666,-0.155438 0.17497,-0.316191 0.32599,-0.482771 0.15103,-0.16878 0.35422,-0.35783 0.60964,-0.5666 0.46414,-0.37756 0.77892,-0.65655 0.94329,-0.83644 0.16435,-0.17992 0.28758,-0.3598 0.36976,-0.53968 0.0844,-0.17988 0.12601,-0.36063 0.12601,-0.54276 0,-0.41085 -0.1275,-0.72732 -0.38284,-0.94943 -0.25317,-0.22432 -0.61627,-0.33674 -1.08936,-0.33674 z m 24.934649,0 c 0.03935,-0.273436 -0.78396,0.11155 -1.05937,0.33367 -0.27317,0.22208 -0.43223,0.52028 -0.47663,0.89563 l 0.61269,0.0569 c 0.0287,-0.25093 0.12549,-0.44502 0.28983,-0.58275 0.16657,-0.13988 0.37806,-0.20987 0.63348,-0.20987 0.26872,0 0.47864,0.0708 0.62963,0.21298 0.15103,0.14209 0.22601,0.34202 0.22601,0.59964 0,0.19102 -0.0442,0.36177 -0.13297,0.51276 -0.0866,0.15103 -0.20074,0.29588 -0.34288,0.4336 -0.14213,0.13769 -0.30205,0.27514 -0.47973,0.41283 -0.17544,0.13773 -0.35363,0.28761 -0.53355,0.44974 -0.17988,0.15993 -0.3515,0.33981 -0.51583,0.53969 -0.16213,0.19767 -0.30037,0.426673 -0.41361,0.686498 v 0.42286 h 3.10818 v -0.509727 h -2.44856 c 0.0666,-0.155438 0.17571,-0.316191 0.32674,-0.482771 0.15099,-0.16878 0.35421,-0.35783 0.60963,-0.5666 0.46419,-0.37756 0.77818,-0.65655 0.94251,-0.83644 0.16437,-0.17992 0.28761,-0.3598 0.3698,-0.53968 0.0844,-0.17988 0.12682,-0.36063 0.12682,-0.54276 0,-0.41085 -0.12742,-0.72732 -0.38283,-0.94943 -0.238996,-0.302498 -1.08936,-0.159378 -1.08936,-0.33674 z m 25.636678,0 c -0.56854,0 -0.98494,0.20153 -1.24926,0.60349 -0.26207,0.402 -0.39361,1.00585 -0.39361,1.81205 0,0.78841 0.13572,1.38804 0.40668,1.798933 0.27093,0.410855 0.6765,0.616554 1.21623,0.616554 0.53965,0 0.94696,-0.206565 1.22233,-0.619624 0.27762,-0.413103 0.41668,-1.011903 0.41668,-1.795863 0,-0.79731 -0.13242,-1.39942 -0.39668,-1.80587 -0.26207,-0.40644 -0.66935,-0.60967 -1.22237,-0.60967 z m -76.647727,0.07 -1.10936,0.76338 v 0.56582 l 1.05937,-0.7557 v 3.610937 h -1.19544 v 0.509735 h 2.94136 v -0.509735 h -1.14243 v -4.184437 z m 11.544357,0 -0.15602,2.52543 h 0.58577 c 0.13999,-0.12214 0.27986,-0.20877 0.41975,-0.25986 0.13998,-0.0511 0.29072,-0.0769 0.45281,-0.0769 0.31096,0 0.55823,0.0916 0.74035,0.27368 0.18434,0.18213 0.27601,0.42038 0.27601,0.71575 0,0.33981 -0.0907,0.60794 -0.27293,0.803366 -0.18214,0.193226 -0.43443,0.289819 -0.7565,0.289819 -0.52414,0 -0.84899,-0.232312 -0.97558,-0.696505 l -0.60655,0.07 c 0.0711,0.36205 0.24102,0.638521 0.50969,0.829543 0.26876,0.190981 0.62188,0.286748 1.05938,0.286748 0.52193,0 0.9292,-0.142414 1.22236,-0.426674 0.29538,-0.284269 0.44361,-0.674027 0.44361,-1.169317 0,-0.43529 -0.1382,-0.78844 -0.41362,-1.05937 -0.27317,-0.27096 -0.64049,-0.40669 -1.10242,-0.40669 -0.38646,0 -0.70961,0.0999 -0.96943,0.29982 l 0.0898,-1.48912 h 2.12183 v -0.50969 z m 49.76613,0 -0.15602,2.52543 h 0.58577 c 0.13993,-0.12214 0.27986,-0.20877 0.41975,-0.25986 0.13993,-0.0511 0.29147,-0.0769 0.4536,-0.0769 0.31092,0 0.55744,0.0916 0.73957,0.27368 0.18433,0.18213 0.276,0.42038 0.276,0.71575 0,0.33981 -0.0908,0.60794 -0.27293,0.803366 -0.18213,0.193226 -0.43443,0.289819 -0.75649,0.289819 -0.52414,0 -0.84899,-0.232312 -0.97557,-0.696505 l -0.60656,0.07 c 0.0711,0.36205 0.24097,0.638521 0.50969,0.829543 0.26876,0.190981 0.62187,0.286748 1.05937,0.286748 0.52193,0 0.92921,-0.142414 1.22237,-0.426674 0.29541,-0.284269 0.44357,-0.674027 0.44357,-1.169317 0,-0.43529 -0.1382,-0.78844 -0.41358,-1.05937 -0.27316,-0.27096 -0.64049,-0.40669 -1.10243,-0.40669 -0.38645,0 -0.70961,0.0999 -0.96943,0.29982 l 0.0899,-1.48912 h 2.12182 v -0.50969 z m 11.39956,0 -1.10933,0.76338 v 0.56582 l 1.05938,-0.7557 v 3.610937 h -1.19624 v 0.509735 h 2.94136 v -0.509735 h -1.14242 v -4.184437 z m -82.424327,0.4168 c 0.35979,0 0.61789,0.15237 0.77337,0.45664 0.15768,0.30426 0.23604,0.79482 0.23604,1.47223 0,0.65293 -0.0817,1.1368 -0.246,1.4522 -0.16437,0.315368 -0.42338,0.473561 -0.77649,0.473561 -0.35535,0 -0.61517,-0.154848 -0.77954,-0.463561 -0.1621,-0.30871 -0.24295,-0.79597 -0.24295,-1.4622 0,-0.6863 0.08,-1.17935 0.23987,-1.47916 0.16212,-0.29982 0.42703,-0.44971 0.7957,-0.44971 z m 13.644181,0 c 0.35981,0 0.61715,0.15237 0.77263,0.45664 0.15768,0.30426 0.23676,0.79482 0.23676,1.47223 0,0.65293 -0.0824,1.1368 -0.24676,1.4522 -0.16432,0.315368 -0.42259,0.473561 -0.77569,0.473561 -0.35536,0 -0.61518,-0.154848 -0.77955,-0.463561 -0.1621,-0.30871 -0.24369,-0.79597 -0.24369,-1.4622 0,-0.6863 0.08,-1.17935 0.23986,-1.47916 0.16213,-0.29982 0.42778,-0.44971 0.79644,-0.44971 z m 72.717826,0 c 0.3598,0 0.61718,0.15237 0.77262,0.45664 0.15768,0.30426 0.2368,0.79482 0.2368,1.47223 0,0.65293 -0.0824,1.1368 -0.2468,1.4522 -0.16433,0.315368 -0.42333,0.473561 -0.77644,0.473561 -0.35535,0 -0.61522,-0.154848 -0.77955,-0.463561 -0.16213,-0.30871 -0.24294,-0.79597 -0.24294,-1.4622 0,-0.6863 0.0799,-1.17935 0.23987,-1.47916 0.16213,-0.29982 0.42778,-0.44971 0.79644,-0.44971 z m -29.781168,0.33977 v 1.42611 h -1.41224 v 0.48587 h 1.41224 v 1.42607 h 0.48974 v -1.42607 h 1.41221 v -0.48587 h -1.41221 v -1.42611 z m 11.639428,0 v 1.42611 h -1.413 v 0.48587 h 1.413 v 1.42607 h 0.48974 v -1.42607 h 1.41224 v -0.48587 h -1.41224 v -1.42611 z m 10.1995,0 v 1.42611 h -1.41225 v 0.48587 h 1.41225 v 1.42607 h 0.4897 v -1.42607 h 1.41225 v -0.48587 h -1.41225 v -1.42615 z m -86.091407,1.85888 v 0.53276 h 1.66516 v -0.53276 z m 13.65198,0 v 0.53276 h 1.66514 v -0.53276 z m 12.743657,0 v 0.53276 h 1.66519 v -0.53276 z m 13.192065,0 v 0.53276 h 1.665948 v -0.53276 z" />
  <path
     id="lable_title_03"
     style="fill:#f7f7d7;fill-opacity:1"
     d="m 118,40.899715 v 2.456693 h -1 v -2.456693 z m -12,0 v 2.456693 h -1 v -2.456693 z m -12,0 v 2.456693 h -1 v -2.456693 z m -24,0 v 2.456693 h -1 v -2.456693 z m -12,0 v 2.456693 h -1 v -2.456693 z m -12,0 v 2.456693 h -1 v -2.456693 z m -12,0 v 2.456693 h -1 v -2.456693 z m 84,-11 v 2.456693 h -1 v -2.456693 z m -12,0 v 2.456693 h -1 v -2.456693 z m -11.999997,0 v 2.456693 h -1 v -2.456693 z m -24,0 v 2.456693 h -1 v -2.456693 z m -12.000003,0 v 2.456693 h -1 v -2.456693 z m -12,0 v 2.456693 h -1 v -2.456693 z m -12,0 v 2.456693 h -1 v -2.456693 z" />
  <g
     id="g25">
    <path
       id="label_title_33"
       style="fill:#f7f7d7;fill-opacity:1"
       d="m 8.44855,19.222536 v 1.496046 l 0.007,0.402829 h -0.007 C 8.33757,20.903738 8.19093,20.744683 8.00881,20.644783 7.82669,20.544813 7.5993,20.494856 7.32613,20.494856 6.44223,20.494856 6,21.123611 6,22.380663 c 0,0.621871 0.10666,1.085786 0.31981,1.39225 0.21542,0.306508 0.55106,0.459746 1.00632,0.459746 0.27096,0 0.49749,-0.04996 0.67961,-0.149928 0.18433,-0.0999 0.33178,-0.264863 0.44281,-0.49584 h 0.0134 c 0,0.09325 0.005,0.204049 0.009,0.332879 0.009,0.128791 0.0174,0.211253 0.0239,0.246761 H 9.0676 C 9.0542,24.046636 9.0475,23.798462 9.0475,23.423108 v -4.200572 z m 1.61907,0.249827 v 4.694168 h 1.90579 c 0.5419,0 0.965,-0.115726 1.26926,-0.346695 0.30426,-0.233178 0.45588,-0.558815 0.45588,-0.976361 0,-0.313121 -0.10087,-0.571371 -0.30292,-0.7757 -0.20209,-0.20653 -0.48943,-0.33229 -0.86257,-0.376689 0.28426,-0.0644 0.50414,-0.191018 0.65962,-0.379795 0.15548,-0.188782 0.23294,-0.421994 0.23294,-0.699571 0,-0.759598 -0.55055,-1.139357 -1.65208,-1.139357 z m 0.63655,0.50981 h 1.06937 c 0.32867,0 0.57936,0.05412 0.75263,0.162956 0.17319,0.108838 0.25982,0.290369 0.25982,0.543542 0,0.264313 -0.0842,0.460844 -0.25293,0.589635 -0.16658,0.126586 -0.41975,0.189915 -0.75952,0.189915 h -1.06937 z m -3.21812,0.956365 c 0.33536,-3.9e-5 0.57941,0.110802 0.73264,0.33288 0.15323,0.222077 0.22986,0.571882 0.22986,1.049376 0,0.495246 -0.0766,0.860874 -0.22986,1.096256 -0.15323,0.23546 -0.39975,0.352875 -0.73957,0.352875 -0.29981,0 -0.51637,-0.109078 -0.64962,-0.326739 -0.1333,-0.21763 -0.19987,-0.578299 -0.19987,-1.08244 0,-0.501937 0.0667,-0.864185 0.19987,-1.086258 0.13553,-0.224321 0.3545,-0.335989 0.65655,-0.33595 z m 3.21812,1.025519 h 1.18544 c 0.77731,0 1.16625,0.276475 1.16625,0.829504 0,0.286512 -0.0891,0.502212 -0.2668,0.646551 -0.17768,0.144378 -0.46084,0.216803 -0.8495,0.216803 h -1.23539 z" />
    <path
       id="lable_title_04"
       style="fill:#f7f7d7;fill-opacity:1"
       d="m 16.940679,19.380909 v 4.693377 h 0.63656 v -1.948865 h 1.46219 l 1.21931,1.948865 h 0.73338 l -1.33306,-2.02188 c 0.35756,-0.06215 0.63742,-0.212119 0.8395,-0.449744 0.20437,-0.237625 0.30674,-0.530785 0.30674,-0.879493 0,-0.42195 -0.14406,-0.750937 -0.43281,-0.986319 -0.28647,-0.23766 -0.69454,-0.355941 -1.22312,-0.355941 z m 0.63656,0.509614 h 1.50907 c 0.34871,0 0.61522,0.07168 0.79955,0.216015 0.18658,0.142177 0.27983,0.350317 0.27983,0.623485 0,0.282065 -0.0924,0.501938 -0.27676,0.65962 -0.18212,0.155438 -0.44033,0.232941 -0.77569,0.232941 h -1.536 z" />
  </g>
  <g
     id="g27"
     transform="translate(0,22.494952)">
    <path
       id="lable_title_05"
       style="fill:#f7f7d7;fill-opacity:1"
       d="m 8.44855,25.222536 v 1.496046 l 0.007,0.402829 h -0.007 C 8.33757,26.903738 8.19093,26.744683 8.00881,26.644783 7.82669,26.544813 7.5993,26.494856 7.32613,26.494856 6.44223,26.494856 6,27.123611 6,28.380663 c 0,0.621871 0.10666,1.085786 0.31981,1.39225 0.21542,0.306508 0.55106,0.459746 1.00632,0.459746 0.27096,0 0.49749,-0.04996 0.67961,-0.149928 0.18433,-0.0999 0.33178,-0.264863 0.44281,-0.49584 h 0.0134 c 0,0.09325 0.005,0.204049 0.009,0.332879 0.009,0.128791 0.0174,0.211253 0.0239,0.246761 H 9.0676 C 9.0542,30.046636 9.0475,29.798462 9.0475,29.423108 v -4.200572 z m 1.61907,0.249827 v 4.694168 h 1.90579 c 0.5419,0 0.965,-0.115726 1.26926,-0.346695 0.30426,-0.233178 0.45588,-0.558815 0.45588,-0.976361 0,-0.313121 -0.10087,-0.571371 -0.30292,-0.7757 -0.20209,-0.20653 -0.48943,-0.33229 -0.86257,-0.376689 0.28426,-0.0644 0.50414,-0.191018 0.65962,-0.379795 0.15548,-0.188782 0.23294,-0.421994 0.23294,-0.699571 0,-0.759598 -0.55055,-1.139357 -1.65208,-1.139357 z m 0.63655,0.50981 h 1.06937 c 0.32867,0 0.57936,0.05412 0.75263,0.162956 0.17319,0.108838 0.25982,0.290369 0.25982,0.543542 0,0.264313 -0.0842,0.460844 -0.25293,0.589635 -0.16658,0.126586 -0.41975,0.189915 -0.75952,0.189915 h -1.06937 z m -3.21812,0.956365 c 0.33536,-3.9e-5 0.57941,0.110802 0.73264,0.33288 0.15323,0.222077 0.22986,0.571882 0.22986,1.049376 0,0.495246 -0.0766,0.860874 -0.22986,1.096256 -0.15323,0.23546 -0.39975,0.352875 -0.73957,0.352875 -0.29981,0 -0.51637,-0.109078 -0.64962,-0.326739 -0.1333,-0.21763 -0.19987,-0.578299 -0.19987,-1.08244 0,-0.501937 0.0667,-0.864185 0.19987,-1.086258 0.13553,-0.224321 0.3545,-0.335989 0.65655,-0.33595 z m 3.21812,1.025519 h 1.18544 c 0.77731,0 1.16625,0.276475 1.16625,0.829504 0,0.286512 -0.0891,0.502212 -0.2668,0.646551 -0.17768,0.144378 -0.46084,0.216803 -0.8495,0.216803 h -1.23539 z" />
    <path
       id="lable_title_06"
       style="ffill:#f7f7d7;fill-opacity:1"
       d="m 16.934156,25.380909 v 4.693377 h 3.00823 V 29.5546 h -2.37168 v -4.173691 z" />
  </g>
</svg>







