<?xml version="1.0" encoding="UTF-8" standalone="no"?>
<!-- Created with Inkscape (http://www.inkscape.org/) -->

<svg
   version="1.1"
   id="svg1"
   width="128"
   height="64"
   viewBox="0 0 128 64"
   xmlns="http://www.w3.org/2000/svg"
   xmlns:svg="http://www.w3.org/2000/svg">
  <defs
     id="defs1" />
  <rect
     style="fill:#ff0000;fill-opacity:1;stroke:none;stroke-width:0.6;stroke-linecap:butt;stroke-linejoin:miter;stroke-miterlimit:0;stroke-dasharray:none;stroke-dashoffset:0;stroke-opacity:1"
     id="rect84"
     width="128"
     height="64"
     x="0"
     y="0" />
  <path
     id="rect2"
     style="fill:#ffffff;fill-opacity:1;stroke:none;stroke-width:1;stroke-linecap:butt;stroke-linejoin:miter;stroke-miterlimit:0;stroke-dasharray:0.9999;stroke-dashoffset:0;stroke-opacity:1"
     d="M 3,2 V 4 H 125 V 2 Z m 11,3 v 1 h 1 V 5 Z m 2,0 v 1 h 1 V 5 Z m 1,1 v 1 h 1 V 6 Z m 2,-1 v 1 h 1 V 5 Z m 2,0 v 1 h 1 V 5 Z m 1,1 v 1 h 1 V 6 Z m 2,-1 v 1 h 1 V 5 Z m 2,0 v 1 h 1 V 5 Z m 1,1 v 1 h 1 V 6 Z m 2,-1 v 1 h 1 V 5 Z m 2,0 v 1 h 1 V 5 Z m 1,1 v 1 h 1 V 6 Z m 2,-1 v 1 h 1 V 5 Z m 2,0 v 1 h 1 V 5 Z m 1,1 v 1 h 1 V 6 Z m 2,-1 v 1 h 1 V 5 Z m 2,0 v 1 h 1 V 5 Z m 1,1 v 1 h 1 V 6 Z m 2,-1 v 1 h 1 V 5 Z m 2,0 v 1 h 1 V 5 Z m 1,1 v 1 h 1 V 6 Z m 2,-1 v 1 h 1 V 5 Z m 2,0 v 1 h 1 V 5 Z m 1,1 v 1 h 1 V 6 Z m 2,-1 v 1 h 1 V 5 Z m 2,0 v 1 h 1 V 5 Z m 1,1 v 1 h 1 V 6 Z m 2,-1 v 1 h 1 V 5 Z m 2,0 v 1 h 1 V 5 Z m 1,1 v 1 h 1 V 6 Z m 2,-1 v 1 h 1 V 5 Z m 2,0 v 1 h 1 V 5 Z m 1,1 v 1 h 1 V 6 Z m 2,-1 v 1 h 1 V 5 Z m 2,0 v 1 h 1 V 5 Z m 1,1 v 1 h 1 V 6 Z m 2,-1 v 1 h 1 V 5 Z m 2,0 v 1 h 1 V 5 Z m 1,1 v 1 h 1 V 6 Z m 2,-1 v 1 h 1 V 5 Z m 2,0 v 1 h 1 V 5 Z m 1,1 v 1 h 1 V 6 Z m 2,-1 v 1 h 1 V 5 Z m 2,0 v 1 h 1 V 5 Z m 2,0 v 1 h 1 V 5 Z m 1,1 v 1 h 1 V 6 Z m 2,-1 v 1 h 1 V 5 Z m 2,0 v 1 h 1 V 5 Z m 2,0 v 1 h 1 V 5 Z m 1,1 v 1 h 1 V 6 Z m 2,-1 v 1 h 1 V 5 Z m 2,0 v 1 h 1 V 5 Z m 2,0 v 1 h 1 V 5 Z m 1,1 v 1 h 1 V 6 Z m 2,-1 v 1 h 1 V 5 Z m 2,0 v 1 h 1 V 5 Z m 2,0 v 1 h 1 V 5 Z m 1,1 v 1 h 1 V 6 Z m 2,-1 v 1 h 1 V 5 Z m 2,0 v 1 h 1 V 5 Z m 2,0 v 1 h 1 V 5 Z m 1,1 v 1 h 1 V 6 Z m 2,-1 v 1 h 1 V 5 Z m 2,0 v 1 h 1 V 5 Z m 2,0 v 1 h 1 V 5 Z m 1,1 v 1 h 1 V 6 Z M 14,7 v 1 h 1 V 7 Z m 5,0 v 1 h 1 V 7 Z m 5,0 v 1 h 1 V 7 Z m 5,0 v 1 h 1 V 7 Z m 5,0 v 1 h 1 V 7 Z m 5,0 v 1 h 1 V 7 Z m 5,0 v 1 h 1 V 7 Z m 5,0 v 1 h 1 V 7 Z m 5,0 v 1 h 1 V 7 Z m 5,0 v 1 h 1 V 7 Z m 5,0 v 1 h 1 V 7 Z m 5,0 v 1 h 1 V 7 Z m 5,0 v 1 h 1 V 7 Z m 5,0 v 1 h 1 V 7 Z m 5,0 v 1 h 1 V 7 Z m 7,0 v 1 h 1 V 7 Z m 7,0 v 1 h 1 V 7 Z m 7,0 v 1 h 1 V 7 Z m 7,0 v 1 h 1 V 7 Z m 7,0 v 1 h 1 V 7 Z M 17,8 v 1 h 1 V 8 Z m 5,0 v 1 h 1 V 8 Z m 5,0 v 1 h 1 V 8 Z m 5,0 v 1 h 1 V 8 Z m 5,0 v 1 h 1 V 8 Z m 5,0 v 1 h 1 V 8 Z m 5,0 v 1 h 1 V 8 Z m 5,0 v 1 h 1 V 8 Z m 5,0 v 1 h 1 V 8 Z m 5,0 v 1 h 1 V 8 Z m 5,0 v 1 h 1 V 8 Z m 5,0 v 1 h 1 V 8 Z m 5,0 v 1 h 1 V 8 Z m 5,0 v 1 h 1 V 8 Z m 7,0 v 1 h 1 V 8 Z m 7,0 v 1 h 1 V 8 Z m 7,0 v 1 h 1 V 8 Z m 7,0 v 1 h 1 V 8 Z m 7,0 v 1 h 1 V 8 Z m 7,0 v 1 h 1 V 8 Z M 3,9 V 22 H 9.7734375 V 20.691406 H 4.4492188 V 9 Z m 11,0 v 1 h 1 V 9 Z m 5,0 v 1 h 1 V 9 Z m 5,0 v 1 h 1 V 9 Z m 5,0 v 1 h 1 V 9 Z m 5,0 v 1 h 1 V 9 Z m 5,0 v 1 h 1 V 9 Z m 5,0 v 1 h 1 V 9 Z m 5,0 v 1 h 1 V 9 Z m 5,0 v 1 h 1 V 9 Z m 5,0 v 1 h 1 V 9 Z m 5,0 v 1 h 1 V 9 Z m 5,0 v 1 h 1 V 9 Z m 5,0 v 1 h 1 V 9 Z m 5,0 v 1 h 1 V 9 Z m 5,0 v 1 h 1 V 9 Z m 7,0 v 1 h 1 V 9 Z m 7,0 v 1 h 1 V 9 Z m 7,0 v 1 h 1 V 9 Z m 7,0 v 1 h 1 V 9 Z m 7,0 v 1 h 1 V 9 Z M 17,10 v 1 h 1 v -1 z m 5,0 v 1 h 1 v -1 z m 5,0 v 1 h 1 v -1 z m 5,0 v 1 h 1 v -1 z m 5,0 v 1 h 1 v -1 z m 5,0 v 1 h 1 v -1 z m 5,0 v 1 h 1 v -1 z m 5,0 v 1 h 1 v -1 z m 5,0 v 1 h 1 v -1 z m 5,0 v 1 h 1 v -1 z m 5,0 v 1 h 1 v -1 z m 5,0 v 1 h 1 v -1 z m 5,0 v 1 h 1 v -1 z m 5,0 v 1 h 1 v -1 z m 7,0 v 1 h 1 v -1 z m 7,0 v 1 h 1 v -1 z m 7,0 v 1 h 1 v -1 z m 7,0 v 1 h 1 v -1 z m 7,0 v 1 h 1 v -1 z m 7,0 v 1 h 1 V 10 Z M 14,11 v 1 h 1 v -1 z m 5,0 v 1 h 1 v -1 z m 5,0 v 1 h 1 v -1 z m 5,0 v 1 h 1 v -1 z m 5,0 v 1 h 1 v -1 z m 5,0 v 1 h 1 v -1 z m 5,0 v 1 h 1 v -1 z m 5,0 v 1 h 1 v -1 z m 5,0 v 1 h 1 v -1 z m 5,0 v 1 h 1 v -1 z m 5,0 v 1 h 1 v -1 z m 5,0 v 1 h 1 v -1 z m 5,0 v 1 h 1 v -1 z m 5,0 v 1 h 1 v -1 z m 5,0 v 1 h 1 v -1 z m 7,0 v 1 h 1 v -1 z m 7,0 v 1 h 1 v -1 z m 7,0 v 1 h 1 v -1 z m 7,0 v 1 h 1 v -1 z m 7,0 v 1 h 1 V 11 Z M 17,12 v 1 h 1 v -1 z m 5,0 v 1 h 1 v -1 z m 5,0 v 1 h 1 v -1 z m 5,0 v 1 h 1 v -1 z m 5,0 v 1 h 1 v -1 z m 5,0 v 1 h 1 v -1 z m 5,0 v 1 h 1 v -1 z m 5,0 v 1 h 1 v -1 z m 5,0 v 1 h 1 v -1 z m 5,0 v 1 h 1 v -1 z m 5,0 v 1 h 1 v -1 z m 5,0 v 1 h 1 v -1 z m 5,0 v 1 h 1 v -1 z m 5,0 v 1 h 1 v -1 z m 7,0 v 1 h 1 v -1 z m 7,0 v 1 h 1 v -1 z m 7,0 v 1 h 1 v -1 z m 7,0 v 1 h 1 v -1 z m 7,0 v 1 h 1 v -1 z m 7,0 v 1 h 1 V 12 Z M 14,13 v 1 h 1 v -1 z m 5,0 v 1 h 1 v -1 z m 5,0 v 1 h 1 v -1 z m 5,0 v 1 h 1 v -1 z m 5,0 v 1 h 1 v -1 z m 5,0 v 1 h 1 v -1 z m 5,0 v 1 h 1 v -1 z m 5,0 v 1 h 1 v -1 z m 5,0 v 1 h 1 v -1 z m 5,0 v 1 h 1 v -1 z m 5,0 v 1 h 1 v -1 z m 5,0 v 1 h 1 v -1 z m 5,0 v 1 h 1 v -1 z m 5,0 v 1 h 1 v -1 z m 5,0 v 1 h 1 v -1 z m 7,0 v 1 h 1 v -1 z m 7,0 v 1 h 1 v -1 z m 7,0 v 1 h 1 v -1 z m 7,0 v 1 h 1 v -1 z m 7,0 v 1 h 1 V 13 Z M 17,14 v 1 h 1 v -1 z m 5,0 v 1 h 1 v -1 z m 5,0 v 1 h 1 v -1 z m 5,0 v 1 h 1 v -1 z m 5,0 v 1 h 1 v -1 z m 5,0 v 1 h 1 v -1 z m 5,0 v 1 h 1 v -1 z m 5,0 v 1 h 1 v -1 z m 5,0 v 1 h 1 v -1 z m 5,0 v 1 h 1 v -1 z m 5,0 v 1 h 1 v -1 z m 5,0 v 1 h 1 v -1 z m 5,0 v 1 h 1 v -1 z m 5,0 v 1 h 1 v -1 z m 7,0 v 1 h 1 v -1 z m 7,0 v 1 h 1 v -1 z m 7,0 v 1 h 1 v -1 z m 7,0 v 1 h 1 v -1 z m 7,0 v 1 h 1 v -1 z m 7,0 v 1 h 1 V 14 Z M 14,15 v 1 h 1 v -1 z m 5,0 v 1 h 1 v -1 z m 5,0 v 1 h 1 v -1 z m 5,0 v 1 h 1 v -1 z m 5,0 v 1 h 1 v -1 z m 5,0 v 1 h 1 v -1 z m 5,0 v 1 h 1 v -1 z m 5,0 v 1 h 1 v -1 z m 5,0 v 1 h 1 v -1 z m 5,0 v 1 h 1 v -1 z m 5,0 v 1 h 1 v -1 z m 5,0 v 1 h 1 v -1 z m 5,0 v 1 h 1 v -1 z m 5,0 v 1 h 1 v -1 z m 5,0 v 1 h 1 v -1 z m 7,0 v 1 h 1 v -1 z m 7,0 v 1 h 1 v -1 z m 7,0 v 1 h 1 v -1 z m 7,0 v 1 h 1 v -1 z m 7,0 v 1 h 1 V 15 Z M 17,16 v 1 h 1 v -1 z m 5,0 v 1 h 1 v -1 z m 5,0 v 1 h 1 v -1 z m 5,0 v 1 h 1 v -1 z m 5,0 v 1 h 1 v -1 z m 5,0 v 1 h 1 v -1 z m 5,0 v 1 h 1 v -1 z m 5,0 v 1 h 1 v -1 z m 5,0 v 1 h 1 v -1 z m 5,0 v 1 h 1 v -1 z m 5,0 v 1 h 1 v -1 z m 5,0 v 1 h 1 v -1 z m 5,0 v 1 h 1 v -1 z m 5,0 v 1 h 1 v -1 z m 7,0 v 1 h 1 v -1 z m 7,0 v 1 h 1 v -1 z m 7,0 v 1 h 1 v -1 z m 7,0 v 1 h 1 v -1 z m 7,0 v 1 h 1 v -1 z m 7,0 v 1 h 1 V 16 Z M 14,17 v 1 h 1 v -1 z m 5,0 v 1 h 1 v -1 z m 5,0 v 1 h 1 v -1 z m 5,0 v 1 h 1 v -1 z m 5,0 v 1 h 1 v -1 z m 5,0 v 1 h 1 v -1 z m 5,0 v 1 h 1 v -1 z m 5,0 v 1 h 1 v -1 z m 5,0 v 1 h 1 v -1 z m 5,0 v 1 h 1 v -1 z m 5,0 v 1 h 1 v -1 z m 5,0 v 1 h 1 v -1 z m 5,0 v 1 h 1 v -1 z m 5,0 v 1 h 1 v -1 z m 5,0 v 1 h 1 v -1 z m 7,0 v 1 h 1 v -1 z m 7,0 v 1 h 1 v -1 z m 7,0 v 1 h 1 v -1 z m 7,0 v 1 h 1 v -1 z m 7,0 v 1 h 1 V 17 Z M 17,18 v 1 h 1 v -1 z m 5,0 v 1 h 1 v -1 z m 5,0 v 1 h 1 v -1 z m 5,0 v 1 h 1 v -1 z m 5,0 v 1 h 1 v -1 z m 5,0 v 1 h 1 v -1 z m 5,0 v 1 h 1 v -1 z m 5,0 v 1 h 1 v -1 z m 5,0 v 1 h 1 v -1 z m 5,0 v 1 h 1 v -1 z m 5,0 v 1 h 1 v -1 z m 5,0 v 1 h 1 v -1 z m 5,0 v 1 h 1 v -1 z m 5,0 v 1 h 1 v -1 z m 7,0 v 1 h 1 v -1 z m 7,0 v 1 h 1 v -1 z m 7,0 v 1 h 1 v -1 z m 7,0 v 1 h 1 v -1 z m 7,0 v 1 h 1 v -1 z m 7,0 v 1 h 1 V 18 Z M 14,19 v 1 h 1 v -1 z m 5,0 v 1 h 1 v -1 z m 5,0 v 1 h 1 v -1 z m 5,0 v 1 h 1 v -1 z m 5,0 v 1 h 1 v -1 z m 5,0 v 1 h 1 v -1 z m 5,0 v 1 h 1 v -1 z m 5,0 v 1 h 1 v -1 z m 5,0 v 1 h 1 v -1 z m 5,0 v 1 h 1 v -1 z m 5,0 v 1 h 1 v -1 z m 5,0 v 1 h 1 v -1 z m 5,0 v 1 h 1 v -1 z m 5,0 v 1 h 1 v -1 z m 5,0 v 1 h 1 v -1 z m 7,0 v 1 h 1 v -1 z m 7,0 v 1 h 1 v -1 z m 7,0 v 1 h 1 v -1 z m 7,0 v 1 h 1 v -1 z m 7,0 v 1 h 1 V 19 Z M 17,20 v 1 h 1 v -1 z m 5,0 v 1 h 1 v -1 z m 5,0 v 1 h 1 v -1 z m 5,0 v 1 h 1 v -1 z m 5,0 v 1 h 1 v -1 z m 5,0 v 1 h 1 v -1 z m 5,0 v 1 h 1 v -1 z m 5,0 v 1 h 1 v -1 z m 5,0 v 1 h 1 v -1 z m 5,0 v 1 h 1 v -1 z m 5,0 v 1 h 1 v -1 z m 5,0 v 1 h 1 v -1 z m 5,0 v 1 h 1 v -1 z m 5,0 v 1 h 1 v -1 z m 7,0 v 1 h 1 v -1 z m 7,0 v 1 h 1 v -1 z m 7,0 v 1 h 1 v -1 z m 7,0 v 1 h 1 v -1 z m 7,0 v 1 h 1 v -1 z m 7,0 v 1 h 1 V 20 Z M 14,21 v 1 h 1 v -1 z m 5,0 v 1 h 1 v -1 z m 5,0 v 1 h 1 v -1 z m 5,0 v 1 h 1 v -1 z m 5,0 v 1 h 1 v -1 z m 5,0 v 1 h 1 v -1 z m 5,0 v 1 h 1 v -1 z m 5,0 v 1 h 1 v -1 z m 5,0 v 1 h 1 v -1 z m 5,0 v 1 h 1 v -1 z m 5,0 v 1 h 1 v -1 z m 5,0 v 1 h 1 v -1 z m 5,0 v 1 h 1 v -1 z m 5,0 v 1 h 1 v -1 z m 5,0 v 1 h 1 v -1 z m 7,0 v 1 h 1 v -1 z m 7,0 v 1 h 1 v -1 z m 7,0 v 1 h 1 v -1 z m 7,0 v 1 h 1 v -1 z m 7,0 v 1 h 1 V 21 Z M 17,22 v 1 h 1 v -1 z m 5,0 v 1 h 1 v -1 z m 5,0 v 1 h 1 v -1 z m 5,0 v 1 h 1 v -1 z m 5,0 v 1 h 1 v -1 z m 5,0 v 1 h 1 v -1 z m 5,0 v 1 h 1 v -1 z m 5,0 v 1 h 1 v -1 z m 5,0 v 1 h 1 v -1 z m 5,0 v 1 h 1 v -1 z m 5,0 v 1 h 1 v -1 z m 5,0 v 1 h 1 v -1 z m 5,0 v 1 h 1 v -1 z m 5,0 v 1 h 1 v -1 z m 7,0 v 1 h 1 v -1 z m 7,0 v 1 h 1 v -1 z m 7,0 v 1 h 1 v -1 z m 7,0 v 1 h 1 v -1 z m 7,0 v 1 h 1 v -1 z m 7,0 v 1 h 1 V 22 Z M 14,23 v 1 h 1 v -1 z m 5,0 v 1 h 1 v -1 z m 5,0 v 1 h 1 v -1 z m 5,0 v 1 h 1 v -1 z m 5,0 v 1 h 1 v -1 z m 5,0 v 1 h 1 v -1 z m 5,0 v 1 h 1 v -1 z m 5,0 v 1 h 1 v -1 z m 5,0 v 1 h 1 v -1 z m 5,0 v 1 h 1 v -1 z m 5,0 v 1 h 1 v -1 z m 5,0 v 1 h 1 v -1 z m 5,0 v 1 h 1 v -1 z m 5,0 v 1 h 1 v -1 z m 5,0 v 1 h 1 v -1 z m 7,0 v 1 h 1 v -1 z m 7,0 v 1 h 1 v -1 z m 7,0 v 1 h 1 v -1 z m 7,0 v 1 h 1 v -1 z m 7,0 v 1 h 1 V 23 Z M 17,24 v 1 h 1 v -1 z m 0,1 h -1 v 1 h 1 z m 5,-1 v 1 h 1 v -1 z m 0,1 h -1 v 1 h 1 z m 5,-1 v 1 h 1 v -1 z m 0,1 h -1 v 1 h 1 z m 5,-1 v 1 h 1 v -1 z m 0,1 h -1 v 1 h 1 z m 5,-1 v 1 h 1 v -1 z m 0,1 h -1 v 1 h 1 z m 5,-1 v 1 h 1 v -1 z m 0,1 h -1 v 1 h 1 z m 5,-1 v 1 h 1 v -1 z m 0,1 h -1 v 1 h 1 z m 5,-1 v 1 h 1 v -1 z m 0,1 h -1 v 1 h 1 z m 5,-1 v 1 h 1 v -1 z m 0,1 h -1 v 1 h 1 z m 5,-1 v 1 h 1 v -1 z m 0,1 h -1 v 1 h 1 z m 5,-1 v 1 h 1 v -1 z m 0,1 h -1 v 1 h 1 z m 5,-1 v 1 h 1 v -1 z m 0,1 h -1 v 1 h 1 z m 5,-1 v 1 h 1 v -1 z m 0,1 h -1 v 1 h 1 z m 5,-1 v 1 h 1 v -1 z m 0,1 h -1 v 1 h 1 z m 7,-1 v 1 h 1 v -1 z m 0,1 h -1 v 1 h 1 z m 7,-1 v 1 h 1 v -1 z m 0,1 h -1 v 1 h 1 z m 7,-1 v 1 h 1 v -1 z m 0,1 h -1 v 1 h 1 z m 7,-1 v 1 h 1 v -1 z m 0,1 h -1 v 1 h 1 z m 7,-1 v 1 h 1 v -1 z m 0,1 h -1 v 1 h 1 z m 7,-1 v 1 h 1 v -1 z m 0,1 h -1 v 1 h 1 z M 14,25 v 1 h 1 v -1 z m 5,0 v 1 h 1 v -1 z m 5,0 v 1 h 1 v -1 z m 5,0 v 1 h 1 v -1 z m 5,0 v 1 h 1 v -1 z m 5,0 v 1 h 1 v -1 z m 5,0 v 1 h 1 v -1 z m 5,0 v 1 h 1 v -1 z m 5,0 v 1 h 1 v -1 z m 5,0 v 1 h 1 v -1 z m 5,0 v 1 h 1 v -1 z m 5,0 v 1 h 1 v -1 z m 5,0 v 1 h 1 v -1 z m 5,0 v 1 h 1 v -1 z m 5,0 v 1 h 1 v -1 z m 2,0 v 1 h 1 v -1 z m 5,0 v 1 h 1 v -1 z m 2,0 v 1 h 1 v -1 z m 5,0 v 1 h 1 v -1 z m 2,0 v 1 h 1 v -1 z m 5,0 v 1 h 1 v -1 z m 2,0 v 1 h 1 v -1 z m 5,0 v 1 h 1 v -1 z m 2,0 v 1 h 1 v -1 z m 5,0 v 1 h 1 v -1 z m 2,0 v 1 h 1 v -1 z m -99,3 v 1 h 1 v -1 z m 18,0 v 1 h 1 v -1 z m 11,0 v 1 h 1 v -1 z m 9,0 v 1 h 1 v -1 z m 10,0 v 1 h 1 v -1 z m 16,0 v 1 H 86.105469 87 v -1 z m 14,0 v 1 H 100.12305 101 v -1 z m 7,0 v 1 h 1.01172 L 108,28 Z m 8,0 v 1 h 1 V 28 Z M 6.3671875,29 6.0683594,29.298828 6.0625,30.378906 C 5.9937194,30.339463 5.9586634,30.268003 5.8828125,30.236328 h -0.00195 c -0.2448532,-0.102816 -0.5070171,-0.15625 -0.7753906,-0.15625 -0.6045874,0 -1.1378547,0.219145 -1.5273438,0.638672 C 3.2008745,31.103915 3,31.595637 3,32.136719 c 0,0.559009 0.2079639,1.065386 0.5996094,1.457031 0.3950669,0.395068 0.9182593,0.599609 1.5058594,0.599609 0.2510399,0 0.508523,-0.0517 0.7675781,-0.15039 l 0.00586,-0.0039 c 0.097692,-0.03987 0.1465725,-0.124008 0.2324219,-0.175781 l 0.2558594,0.25586 H 6.8554688 L 7.1542969,33.820312 V 29.300781 L 6.8554688,29 Z M 7.5976562,29.074219 7.296875,29.375 v 4.509766 l 0.3007812,0.300781 h 1.2519532 c 0.2532888,0 0.4717461,-0.01352 0.6601562,-0.04492 l 0.00781,-0.002 C 9.7283078,34.098022 9.9326503,34.012446 10.125,33.890625 h 0.002 c 0.217679,-0.140438 0.388599,-0.342613 0.498047,-0.582031 0.105041,-0.229777 0.158203,-0.475523 0.158203,-0.726563 0,-0.311611 -0.08742,-0.607288 -0.259765,-0.855469 -0.08294,-0.119427 -0.214125,-0.174777 -0.322266,-0.263671 0.02496,-0.02832 0.06207,-0.05487 0.08398,-0.08398 0.16857,-0.219873 0.25,-0.493288 0.25,-0.783203 0,-0.438454 -0.17504,-0.836774 -0.5,-1.109375 C 9.7084224,29.202122 9.2639535,29.074219 8.7441406,29.074219 Z M 20.558594,30 c -0.188561,0 -0.385032,0.02546 -0.591797,0.07422 -0.206186,0.04863 -0.422138,0.120042 -0.648438,0.210937 l -0.238281,0.34961 v 0.53125 l 0.5625,0.330078 c 0.189819,-0.105985 0.362238,-0.180783 0.513672,-0.228516 0.153426,-0.04777 0.290948,-0.07031 0.412109,-0.07031 0.162122,0 0.243475,0.03528 0.3125,0.09766 v 0.002 c 0.07175,0.06407 0.09375,0.106942 0.09375,0.224609 0,0.05943 -0.01528,0.126632 -0.06055,0.214844 v 0.002 c -0.04074,0.0804 -0.1408,0.223051 -0.296874,0.398438 l -0.002,0.002 c -0.07053,0.08022 -0.292673,0.310688 -0.636718,0.658203 -0.344369,0.347859 -0.616916,0.625526 -0.81836,0.833984 l -0.105468,0.261719 v 0.44336 l 0.378906,0.376953 h 2.46875 l 0.376953,-0.376953 v -0.44336 l -0.376953,-0.376953 h -0.939453 c 0.109908,-0.112667 0.272624,-0.279857 0.357421,-0.367187 h 0.002 c 0.233598,-0.24232 0.36126,-0.376008 0.427734,-0.453126 l 0.0078,-0.0098 c 0.171522,-0.211109 0.299433,-0.399858 0.38086,-0.595703 v -0.002 c 0.07969,-0.189663 0.119141,-0.39456 0.11914,-0.601563 2e-6,-0.426425 -0.175125,-0.827535 -0.49414,-1.095703 C 21.444256,30.122043 21.02435,30 20.558594,30 Z m 3.572265,0 c -0.535631,0 -1.022523,0.248737 -1.314453,0.685547 -0.290733,0.436114 -0.408203,1.010692 -0.408203,1.710937 0,0.698628 0.118273,1.271878 0.408203,1.708985 0.29226,0.435106 0.779324,0.683593 1.314453,0.683593 0.534504,0 1.01994,-0.248794 1.310547,-0.683593 0.292163,-0.437161 0.410157,-1.010023 0.410156,-1.708985 0,-0.699822 -0.117881,-1.272993 -0.410156,-1.708984 C 25.15113,30.251002 24.665866,30 24.130859,30 Z m 18,0 c -0.535631,0 -1.022525,0.248737 -1.314453,0.685547 -0.290734,0.436114 -0.40625,1.010692 -0.40625,1.710937 0,0.698628 0.116319,1.271878 0.40625,1.708985 0.292259,0.435105 0.779324,0.683594 1.314453,0.683593 0.53513,10e-7 1.02201,-0.247846 1.3125,-0.683593 0.292164,-0.437161 0.410157,-1.010022 0.410157,-1.708985 0,-0.699823 -0.119834,-1.272993 -0.41211,-1.708984 C 43.15113,30.251001 42.665866,30 42.130859,30 Z m 8.34961,0 -0.378907,0.378906 v 0.441406 l 0.378907,0.378907 h 1.316406 l -1.130859,2.93164 0.353515,0.513672 h 0.548828 l 0.351563,-0.242187 1.412109,-3.664063 0.02539,-0.136719 V 30.378906 L 52.980469,30 Z m 9.136719,0 -0.376954,0.378906 v 1.953125 l 0.533204,0.34375 c 0.125196,-0.05664 0.242564,-0.09613 0.353515,-0.121093 0.114583,-0.02546 0.227212,-0.03906 0.339844,-0.03906 0.234077,0 0.365316,0.05447 0.460937,0.140625 0.09555,0.08609 0.136719,0.174015 0.136719,0.363281 0,0.189267 -0.04116,0.275234 -0.136719,0.361328 -0.09562,0.08615 -0.22686,0.140625 -0.460937,0.140625 -0.157506,0 -0.302887,-0.01908 -0.4375,-0.05273 -0.134913,-0.03373 -0.265088,-0.08382 -0.394531,-0.154297 l -0.558594,0.332031 v 0.529297 l 0.265625,0.359375 c 0.195198,0.06006 0.387299,0.105884 0.574219,0.136719 0.189106,0.03088 0.375906,0.04687 0.560546,0.04687 0.535337,0 1.007935,-0.13499 1.353516,-0.441406 0.344371,-0.307638 0.517578,-0.760997 0.517578,-1.257813 0,-0.484855 -0.168227,-0.930867 -0.5,-1.242187 -0.331969,-0.311506 -0.785995,-0.458985 -1.289062,-0.458985 -0.02746,0 -0.0546,0.0064 -0.08203,0.0078 v -0.126953 h 1.207032 l 0.376953,-0.378907 V 30.378906 L 61.683594,30 Z m 11.003906,0 c -0.177165,0 -0.362394,0.01641 -0.554688,0.04687 -0.190103,0.03042 -0.390327,0.07404 -0.601562,0.132813 L 69.1875,30.544922 v 0.46875 l 0.498047,0.357422 c 0.185018,-0.06168 0.349845,-0.105475 0.494141,-0.132813 0.14515,-0.0275 0.277752,-0.03906 0.394531,-0.03906 0.2125,0 0.326938,0.0457 0.376953,0.08398 l 0.0039,0.002 c 0.0511,0.03801 0.06055,0.04643 0.06055,0.15625 0,0.103883 -0.0097,0.110363 -0.05469,0.144532 h -0.002 c -0.04632,0.03419 -0.157502,0.07813 -0.365234,0.07812 h -0.472656 l -0.378906,0.378907 v 0.43164 l 0.378906,0.376953 h 0.453125 c 0.229192,0 0.355734,0.05104 0.429687,0.111329 l 0.0039,0.002 c 0.07578,0.0603 0.09961,0.101782 0.09961,0.242187 0,0.160164 -0.028,0.202645 -0.109375,0.263672 l -0.002,0.002 c -0.07911,0.05993 -0.243307,0.119141 -0.523438,0.119141 -0.160342,0 -0.310859,-0.01912 -0.453125,-0.05469 -0.141402,-0.03535 -0.267246,-0.08607 -0.380859,-0.152343 l -0.56836,0.326172 v 0.507812 l 0.253907,0.357422 c 0.199972,0.06981 0.395102,0.123048 0.58789,0.158203 0.194947,0.03704 0.387513,0.05469 0.576172,0.05469 0.540554,0 1.007012,-0.115985 1.359375,-0.396484 0.35161,-0.2799 0.539063,-0.715217 0.539063,-1.185547 0,-0.320876 -0.101029,-0.631346 -0.300781,-0.871093 -0.0417,-0.05045 -0.119183,-0.05464 -0.167969,-0.09766 0.02903,-0.02813 0.07746,-0.03131 0.103515,-0.0625 l 0.002,-0.002 c 0.180042,-0.218079 0.271484,-0.499696 0.271484,-0.787109 0,-0.40387 -0.180948,-0.788613 -0.496094,-1.033203 C 71.483807,30.107179 71.07722,30 70.621094,30 Z m 16.101562,0 c -0.535647,0 -1.022516,0.248738 -1.314453,0.685547 v 0.002 C 85.117461,31.123566 85,31.69624 85,32.396484 c 0,0.698625 0.116311,1.271879 0.40625,1.708985 l 0.002,0.002 c 0.292268,0.435104 0.779308,0.68164 1.314453,0.68164 0.535146,0 1.02005,-0.247847 1.310547,-0.683593 0.292172,-0.43716 0.410156,-1.010026 0.410156,-1.708985 0,-0.699821 -0.117872,-1.272994 -0.410156,-1.708984 C 87.742992,30.250007 87.258304,30 86.722656,30 Z m 15.136724,0 c -0.17719,0 -0.36045,0.01641 -0.55274,0.04687 h -0.002 c -0.19011,0.03042 -0.39032,0.07404 -0.60157,0.132813 l -0.27539,0.365234 v 0.46875 l 0.4961,0.357422 c 0.18502,-0.06168 0.3518,-0.105475 0.49609,-0.132813 0.14516,-0.0275 0.27581,-0.03906 0.39258,-0.03906 0.21251,0 0.32695,0.04571 0.37695,0.08398 l 0.004,0.002 c 0.0511,0.03802 0.0625,0.04643 0.0625,0.15625 0,0.103883 -0.01,0.110364 -0.0547,0.144532 h -0.002 c -0.0463,0.03419 -0.1575,0.07813 -0.36524,0.07812 h -0.4746 l -0.37696,0.378907 v 0.43164 l 0.37696,0.376953 h 0.45312 c 0.22919,0 0.35769,0.05104 0.43164,0.111329 l 0.002,0.002 c 0.0758,0.0603 0.0996,0.101783 0.0996,0.242187 0,0.160166 -0.028,0.202646 -0.10937,0.263672 v 0.002 c -0.0791,0.05994 -0.24526,0.119141 -0.52539,0.119141 -0.16034,0 -0.31086,-0.01912 -0.45313,-0.05469 -0.1414,-0.03535 -0.2653,-0.08607 -0.3789,-0.152343 l -0.56836,0.326172 v 0.507812 l 0.25195,0.357422 c 0.19936,0.06959 0.39568,0.123047 0.58789,0.158203 0.19495,0.03704 0.38751,0.05469 0.57617,0.05469 0.54055,0 1.00897,-0.115988 1.36133,-0.396484 0.35161,-0.279901 0.53711,-0.715217 0.53711,-1.185547 0,-0.320875 -0.0991,-0.631344 -0.29883,-0.871093 -0.0421,-0.05089 -0.12065,-0.05433 -0.16992,-0.09766 0.0294,-0.02842 0.0791,-0.03094 0.10547,-0.0625 l 0.002,-0.002 c 0.18004,-0.218079 0.27149,-0.499698 0.27149,-0.787109 0,-0.403868 -0.18096,-0.788611 -0.4961,-1.033203 C 102.72391,30.107183 102.31549,30 101.85938,30 Z m 6.99804,0 -0.3789,0.378906 v 1.953125 l 0.53515,0.34375 c 0.12458,-0.05636 0.24109,-0.09611 0.35156,-0.121093 0.11458,-0.02546 0.22917,-0.03906 0.3418,-0.03906 0.23408,0 0.36337,0.05447 0.45899,0.140625 0.0956,0.08609 0.13867,0.174014 0.13867,0.363281 0,0.189267 -0.0431,0.275235 -0.13867,0.361328 -0.0956,0.08615 -0.22491,0.140625 -0.45899,0.140625 -0.1575,0 -0.30288,-0.01908 -0.4375,-0.05273 -0.13491,-0.03373 -0.26703,-0.08382 -0.39648,-0.154297 l -0.5586,0.332031 v 0.529297 l 0.26758,0.359375 c 0.1952,0.06006 0.38534,0.105884 0.57227,0.136719 h 0.002 c 0.18911,0.03088 0.37591,0.04687 0.56055,0.04687 0.53533,0 1.00598,-0.134989 1.35156,-0.441406 h 0.002 c 0.34437,-0.307639 0.51563,-0.760998 0.51563,-1.257813 0,-0.484854 -0.16628,-0.930866 -0.49805,-1.242187 -0.33197,-0.311506 -0.78796,-0.458985 -1.29101,-0.458985 -0.0268,0 -0.0533,0.0065 -0.0801,0.0078 v -0.126953 h 1.20508 l 0.3789,-0.378907 V 30.378906 L 110.92188,30 Z m 9.11914,0 c -0.44443,0 -0.84517,0.107478 -1.15039,0.355469 -0.30272,0.247898 -0.46875,0.6311 -0.46875,1.03125 0,0.293088 0.0908,0.579341 0.27149,0.802734 l 0.002,0.002 c 0.0298,0.03631 0.0855,0.03989 0.11914,0.07227 -0.0538,0.0465 -0.13797,0.05234 -0.18359,0.107422 -0.19939,0.240723 -0.30078,0.550589 -0.30079,0.871094 -1e-5,0.453372 0.15571,0.873812 0.47266,1.152343 0.31825,0.277567 0.7503,0.394531 1.23828,0.394531 0.48799,10e-7 0.91936,-0.115978 1.23633,-0.394531 0.31889,-0.278124 0.47461,-0.698391 0.47461,-1.152343 0,-0.319863 -0.10024,-0.628624 -0.29883,-0.869141 -0.0461,-0.05636 -0.13079,-0.06394 -0.18555,-0.111328 0.0329,-0.03195 0.0881,-0.03457 0.11719,-0.07031 0.18308,-0.223207 0.27735,-0.510616 0.27735,-0.804687 0,-0.40015 -0.16798,-0.783352 -0.47071,-1.03125 C 118.82252,30.106157 118.42247,30 117.97656,30 Z m -79.417966,0.07031 -0.07422,0.0078 -0.929687,0.1875 L 37.25,30.634766 v 0.480468 l 0.453125,0.369141 0.482422,-0.09766 v 2.128906 h -0.482422 l -0.376953,0.376953 v 0.44336 l 0.376953,0.376953 h 2.240234 l 0.378907,-0.376953 v -0.44336 L 39.943359,33.515621 H 39.462891 V 30.447262 L 39.083984,30.070308 Z M 8.4003906,30.12695 h 0.2695313 c 0.3855012,0 0.5876422,0.09032 0.6660156,0.175781 0.035353,0.04374 0.061303,0.08491 0.074219,0.121094 l 0.00977,0.02539 c 0.013365,0.02896 0.021484,0.06281 0.021484,0.113281 0,0.08052 -0.019312,0.139771 -0.056641,0.203125 -0.035927,0.05577 -0.08441,0.105085 -0.1621094,0.148437 -0.094261,0.04632 -0.1687586,0.06856 -0.2128906,0.07422 -0.082916,0.0045 -0.2063169,0.0078 -0.3730468,0.0078 H 8.4003906 Z m 97.4277294,0.417969 -0.37695,0.376953 v 1.072266 h -1.07226 L 104,32.373047 v 0.443359 l 0.37891,0.376953 h 1.07226 v 1.072266 l 0.37695,0.378906 h 0.4375 l 0.37891,-0.378906 v -1.072266 h 1.07227 l 0.37695,-0.376953 v -0.443359 l -0.37695,-0.378906 h -1.07227 v -1.072266 l -0.37891,-0.376953 z m -7.999995,0.07031 -0.376953,0.376954 v 1.072265 H 96.378906 L 96,32.443359 v 0.44336 l 0.378906,0.376953 h 1.072266 v 1.072266 l 0.376953,0.378906 h 0.4375 l 0.378906,-0.378906 v -1.072266 h 1.072266 l 0.376953,-0.376953 v -0.44336 l -0.376953,-0.378906 h -1.072266 v -1.072265 l -0.378906,-0.376954 z m 15.999995,0 -0.37695,0.376954 v 1.072265 h -1.07226 L 112,32.443359 v 0.44336 l 0.37891,0.376953 h 1.07226 v 1.072266 l 0.37695,0.378906 h 0.4375 l 0.37891,-0.378906 v -1.072266 h 1.07227 l 0.37695,-0.376953 v -0.44336 l -0.37695,-0.378906 h -1.07227 v -1.072265 l -0.37891,-0.376954 z M 5.1054688,31.117188 c 0.2835422,0 0.4913235,0.08944 0.6894531,0.300781 l 0.00391,0.0059 c 0.2038211,0.208252 0.2949219,0.427514 0.2949219,0.720703 0,0.306237 -0.092312,0.52786 -0.2929688,0.728516 -0.203731,0.203731 -0.4152976,0.291015 -0.6953124,0.291015 -0.3312347,0 -0.5568273,-0.09422 -0.7480469,-0.289062 -0.190851,-0.20601 -0.2792969,-0.426829 -0.2792969,-0.720703 0,-0.330598 0.094233,-0.555898 0.2949219,-0.748047 0.2069842,-0.198176 0.4312012,-0.289063 0.7324219,-0.289062 z m 19.0253902,0.05469 c 0.148988,0 0.186163,0.01719 0.275391,0.193359 v 0.0039 c 0.08972,0.173761 0.164063,0.524934 0.164062,1.027343 0,0.50057 -0.07347,0.850734 -0.164062,1.027344 -0.08881,0.17421 -0.1256,0.193359 -0.275391,0.19336 -0.147267,0 -0.184769,-0.0198 -0.27539,-0.195313 -0.08921,-0.177682 -0.16211,-0.526267 -0.16211,-1.025391 0,-0.502817 0.0733,-0.855098 0.16211,-1.029296 0.09104,-0.177466 0.128931,-0.195313 0.27539,-0.195313 z m 18,0 c 0.148989,0 0.186162,0.01719 0.275391,0.193359 v 0.0039 c 0.08972,0.173761 0.164065,0.524934 0.164062,1.027343 0,0.500569 -0.07346,0.850733 -0.164062,1.027344 -0.08881,0.17421 -0.125599,0.193361 -0.275391,0.19336 -0.147266,0 -0.184769,-0.0198 -0.27539,-0.195313 -0.08921,-0.177683 -0.16211,-0.526268 -0.16211,-1.025391 0,-0.502818 0.0733,-0.855098 0.16211,-1.029296 0.09104,-0.177466 0.128932,-0.195313 0.27539,-0.195313 z m 44.591797,0 c 0.148992,0 0.184207,0.01914 0.273438,0.195313 l 0.002,0.002 c 0.08972,0.173759 0.164062,0.524936 0.164062,1.027343 0,0.500566 -0.07346,0.850734 -0.164062,1.027344 l -0.002,0.002 c -0.08881,0.174209 -0.123643,0.191407 -0.273438,0.191407 -0.146087,0 -0.186321,-0.0198 -0.27539,-0.191407 -0.08967,-0.177049 -0.16211,-0.52832 -0.16211,-1.029297 0,-0.502816 0.0733,-0.8551 0.16211,-1.029296 0.08948,-0.173526 0.130098,-0.195313 0.27539,-0.195313 z m 31.253904,0 c 0.16271,0 0.23383,0.03547 0.27735,0.07422 l 0.002,0.002 c 0.0447,0.03928 0.0645,0.06648 0.0645,0.1875 0,0.121018 -0.0197,0.148221 -0.0645,0.1875 l -0.002,0.002 c -0.0435,0.03874 -0.11464,0.07227 -0.27735,0.07227 -0.16383,0 -0.23435,-0.03437 -0.27734,-0.07227 -0.0412,-0.03742 -0.0625,-0.0674 -0.0625,-0.189453 0,-0.122056 0.0213,-0.152035 0.0625,-0.189453 0.043,-0.0379 0.11351,-0.07422 0.27734,-0.07422 z M 8.4003906,32.058594 h 0.21875 c 0.2485744,0 0.4264518,0.0053 0.5058594,0.01367 0.073402,0.0077 0.1487724,0.02697 0.2285156,0.06055 l 0.00586,0.0039 c 0.1040721,0.04089 0.1752664,0.09544 0.2363281,0.18164 l 0.00391,0.0078 c 0.064169,0.08556 0.089844,0.158478 0.089844,0.255859 0,0.104279 -0.026357,0.190107 -0.085937,0.283203 l -0.00195,0.0039 c -0.055875,0.0894 -0.1098791,0.134558 -0.1777344,0.164062 -0.105091,0.04569 -0.1961602,0.07185 -0.2734375,0.08398 -0.091044,0.0088 -0.2457067,0.01562 -0.4570312,0.01562 H 8.4003906 Z M 48.378906,32.212891 48,32.591797 v 0.427734 l 0.378906,0.376953 h 1.402344 l 0.378906,-0.376953 V 32.591797 L 49.78125,32.212891 Z m 9,0 L 57,32.591797 v 0.427734 l 0.378906,0.376953 h 1.402344 l 0.378906,-0.376953 V 32.591797 L 58.78125,32.212891 Z m -40,0.07031 L 17,32.662109 v 0.425782 l 0.378906,0.378906 h 1.402344 l 0.378906,-0.378906 V 32.662109 L 18.78125,32.283203 Z m 18,0 L 35,32.662109 v 0.425782 l 0.378906,0.378906 h 1.402344 l 0.378906,-0.378906 V 32.662109 L 36.78125,32.283203 Z m 32,0 L 67,32.662109 v 0.427735 l 0.378906,0.376953 h 1.402344 l 0.378906,-0.376953 V 32.662109 L 68.78125,32.283203 Z m 50.597654,0.583985 c 0.18484,0 0.27072,0.04203 0.33203,0.09961 h 0.002 c 0.0634,0.05878 0.0957,0.118474 0.0957,0.275391 0,0.153292 -0.0314,0.214467 -0.0957,0.27539 h -0.002 c -0.0641,0.05904 -0.15037,0.09961 -0.33203,0.09961 -0.18165,0 -0.26793,-0.04058 -0.33203,-0.09961 h -0.002 c -0.061,-0.05778 -0.0918,-0.118873 -0.0918,-0.27539 0,-0.157852 0.0318,-0.217162 0.0937,-0.275391 0.0641,-0.05903 0.15038,-0.09961 0.33203,-0.09961 z M 22,35 v 1 h 1 v -1 z m 18,0 v 1 h 1 v -1 z m 11,0 v 1 h 1 v -1 z m 9,0 v 1 h 1 v -1 z m 10,0 v 1 h 1 v -1 z m 16,0 v 1 h 1 v -1 z m 14,0 v 1 h 1 v -1 z m 7,0 v 1 h 1 v -1 z m 8,0 v 1 h 1 V 35 Z M 14,38 v 1 h 1 v -1 z m 2,0 v 1 h 1 v -1 z m 1,1 v 1 h 1 v -1 z m 2,-1 v 1 h 1 v -1 z m 2,0 v 1 h 1 v -1 z m 1,1 v 1 h 1 v -1 z m 2,-1 v 1 h 1 v -1 z m 2,0 v 1 h 1 v -1 z m 1,1 v 1 h 1 v -1 z m 2,-1 v 1 h 1 v -1 z m 2,0 v 1 h 1 v -1 z m 1,1 v 1 h 1 v -1 z m 2,-1 v 1 h 1 v -1 z m 2,0 v 1 h 1 v -1 z m 1,1 v 1 h 1 v -1 z m 2,-1 v 1 h 1 v -1 z m 2,0 v 1 h 1 v -1 z m 1,1 v 1 h 1 v -1 z m 2,-1 v 1 h 1 v -1 z m 2,0 v 1 h 1 v -1 z m 1,1 v 1 h 1 v -1 z m 2,-1 v 1 h 1 v -1 z m 2,0 v 1 h 1 v -1 z m 1,1 v 1 h 1 v -1 z m 2,-1 v 1 h 1 v -1 z m 2,0 v 1 h 1 v -1 z m 1,1 v 1 h 1 v -1 z m 2,-1 v 1 h 1 v -1 z m 2,0 v 1 h 1 v -1 z m 1,1 v 1 h 1 v -1 z m 2,-1 v 1 h 1 v -1 z m 2,0 v 1 h 1 v -1 z m 1,1 v 1 h 1 v -1 z m 2,-1 v 1 h 1 v -1 z m 2,0 v 1 h 1 v -1 z m 1,1 v 1 h 1 v -1 z m 2,-1 v 1 h 1 v -1 z m 2,0 v 1 h 1 v -1 z m 1,1 v 1 h 1 v -1 z m 2,-1 v 1 h 1 v -1 z m 2,0 v 1 h 1 v -1 z m 1,1 v 1 h 1 v -1 z m 2,-1 v 1 h 1 v -1 z m 2,0 v 1 h 1 v -1 z m 2,0 v 1 h 1 v -1 z m 1,1 v 1 h 1 v -1 z m 2,-1 v 1 h 1 v -1 z m 2,0 v 1 h 1 v -1 z m 2,0 v 1 h 1 v -1 z m 1,1 v 1 h 1 v -1 z m 2,-1 v 1 h 1 v -1 z m 2,0 v 1 h 1 v -1 z m 2,0 v 1 h 1 v -1 z m 1,1 v 1 h 1 v -1 z m 2,-1 v 1 h 1 v -1 z m 2,0 v 1 h 1 v -1 z m 2,0 v 1 h 1 v -1 z m 1,1 v 1 h 1 v -1 z m 2,-1 v 1 h 1 v -1 z m 2,0 v 1 h 1 v -1 z m 2,0 v 1 h 1 v -1 z m 1,1 v 1 h 1 v -1 z m 2,-1 v 1 h 1 v -1 z m 2,0 v 1 h 1 v -1 z m 2,0 v 1 h 1 v -1 z m 1,1 v 1 h 1 V 39 Z M 14,40 v 1 h 1 v -1 z m 5,0 v 1 h 1 v -1 z m 5,0 v 1 h 1 v -1 z m 5,0 v 1 h 1 v -1 z m 5,0 v 1 h 1 v -1 z m 5,0 v 1 h 1 v -1 z m 5,0 v 1 h 1 v -1 z m 5,0 v 1 h 1 v -1 z m 5,0 v 1 h 1 v -1 z m 5,0 v 1 h 1 v -1 z m 5,0 v 1 h 1 v -1 z m 5,0 v 1 h 1 v -1 z m 5,0 v 1 h 1 v -1 z m 5,0 v 1 h 1 v -1 z m 5,0 v 1 h 1 v -1 z m 7,0 v 1 h 1 v -1 z m 7,0 v 1 h 1 v -1 z m 7,0 v 1 h 1 v -1 z m 7,0 v 1 h 1 v -1 z m 7,0 v 1 h 1 V 40 Z M 17,41 v 1 h 1 v -1 z m 5,0 v 1 h 1 v -1 z m 5,0 v 1 h 1 v -1 z m 5,0 v 1 h 1 v -1 z m 5,0 v 1 h 1 v -1 z m 5,0 v 1 h 1 v -1 z m 5,0 v 1 h 1 v -1 z m 5,0 v 1 h 1 v -1 z m 5,0 v 1 h 1 v -1 z m 5,0 v 1 h 1 v -1 z m 5,0 v 1 h 1 v -1 z m 5,0 v 1 h 1 v -1 z m 5,0 v 1 h 1 v -1 z m 5,0 v 1 h 1 v -1 z m 7,0 v 1 h 1 v -1 z m 7,0 v 1 h 1 v -1 z m 7,0 v 1 h 1 v -1 z m 7,0 v 1 h 1 v -1 z m 7,0 v 1 h 1 v -1 z m 7,0 v 1 h 1 V 41 Z M 3,42 V 55 H 4.4492188 V 43.306641 h 2.1621093 c 0.5228244,0 0.9752329,0.03992 1.3554688,0.11914 0.396079,0.06337 0.7838266,0.190742 1.1640625,0.38086 0.3802358,0.190118 0.6900864,0.515157 0.9277346,0.974609 0.25349,0.443609 0.378906,0.909253 0.378906,1.400391 0,0.586196 -0.180529,1.133643 -0.5449219,1.640625 -0.3643927,0.506981 -0.8719149,0.847209 -1.5214843,1.021484 -0.3960791,0.110902 -1.363604,0.166016 -2.9003907,0.166016 L 9.9628906,55 H 11.792969 L 8.1328125,50.199219 c 1.1090213,0 2.0290275,-0.420079 2.7578125,-1.259766 0.665413,-0.760472 0.998047,-1.663336 0.998047,-2.708984 0,-0.823844 -0.214813,-1.568962 -0.642578,-2.234375 C 10.834172,43.314838 10.263942,42.807315 9.5351562,42.474609 9.218293,42.316177 8.8058093,42.198356 8.2988281,42.119141 7.791847,42.039925 7.1437206,42 6.3515625,42 Z m 11,0 v 1 h 1 v -1 z m 5,0 v 1 h 1 v -1 z m 5,0 v 1 h 1 v -1 z m 5,0 v 1 h 1 v -1 z m 5,0 v 1 h 1 v -1 z m 5,0 v 1 h 1 v -1 z m 5,0 v 1 h 1 v -1 z m 5,0 v 1 h 1 v -1 z m 5,0 v 1 h 1 v -1 z m 5,0 v 1 h 1 v -1 z m 5,0 v 1 h 1 v -1 z m 5,0 v 1 h 1 v -1 z m 5,0 v 1 h 1 v -1 z m 5,0 v 1 h 1 v -1 z m 5,0 v 1 h 1 v -1 z m 7,0 v 1 h 1 v -1 z m 7,0 v 1 h 1 v -1 z m 7,0 v 1 h 1 v -1 z m 7,0 v 1 h 1 v -1 z m 7,0 v 1 h 1 V 42 Z M 17,43 v 1 h 1 v -1 z m 5,0 v 1 h 1 v -1 z m 5,0 v 1 h 1 v -1 z m 5,0 v 1 h 1 v -1 z m 5,0 v 1 h 1 v -1 z m 5,0 v 1 h 1 v -1 z m 5,0 v 1 h 1 v -1 z m 5,0 v 1 h 1 v -1 z m 5,0 v 1 h 1 v -1 z m 5,0 v 1 h 1 v -1 z m 5,0 v 1 h 1 v -1 z m 5,0 v 1 h 1 v -1 z m 5,0 v 1 h 1 v -1 z m 5,0 v 1 h 1 v -1 z m 7,0 v 1 h 1 v -1 z m 7,0 v 1 h 1 v -1 z m 7,0 v 1 h 1 v -1 z m 7,0 v 1 h 1 v -1 z m 7,0 v 1 h 1 v -1 z m 7,0 v 1 h 1 V 43 Z M 14,44 v 1 h 1 v -1 z m 5,0 v 1 h 1 v -1 z m 5,0 v 1 h 1 v -1 z m 5,0 v 1 h 1 v -1 z m 5,0 v 1 h 1 v -1 z m 5,0 v 1 h 1 v -1 z m 5,0 v 1 h 1 v -1 z m 5,0 v 1 h 1 v -1 z m 5,0 v 1 h 1 v -1 z m 5,0 v 1 h 1 v -1 z m 5,0 v 1 h 1 v -1 z m 5,0 v 1 h 1 v -1 z m 5,0 v 1 h 1 v -1 z m 5,0 v 1 h 1 v -1 z m 5,0 v 1 h 1 v -1 z m 7,0 v 1 h 1 v -1 z m 7,0 v 1 h 1 v -1 z m 7,0 v 1 h 1 v -1 z m 7,0 v 1 h 1 v -1 z m 7,0 v 1 h 1 V 44 Z M 17,45 v 1 h 1 v -1 z m 5,0 v 1 h 1 v -1 z m 5,0 v 1 h 1 v -1 z m 5,0 v 1 h 1 v -1 z m 5,0 v 1 h 1 v -1 z m 5,0 v 1 h 1 v -1 z m 5,0 v 1 h 1 v -1 z m 5,0 v 1 h 1 v -1 z m 5,0 v 1 h 1 v -1 z m 5,0 v 1 h 1 v -1 z m 5,0 v 1 h 1 v -1 z m 5,0 v 1 h 1 v -1 z m 5,0 v 1 h 1 v -1 z m 5,0 v 1 h 1 v -1 z m 7,0 v 1 h 1 v -1 z m 7,0 v 1 h 1 v -1 z m 7,0 v 1 h 1 v -1 z m 7,0 v 1 h 1 v -1 z m 7,0 v 1 h 1 v -1 z m 7,0 v 1 h 1 V 45 Z M 14,46 v 1 h 1 v -1 z m 5,0 v 1 h 1 v -1 z m 5,0 v 1 h 1 v -1 z m 5,0 v 1 h 1 v -1 z m 5,0 v 1 h 1 v -1 z m 5,0 v 1 h 1 v -1 z m 5,0 v 1 h 1 v -1 z m 5,0 v 1 h 1 v -1 z m 5,0 v 1 h 1 v -1 z m 5,0 v 1 h 1 v -1 z m 5,0 v 1 h 1 v -1 z m 5,0 v 1 h 1 v -1 z m 5,0 v 1 h 1 v -1 z m 5,0 v 1 h 1 v -1 z m 5,0 v 1 h 1 v -1 z m 7,0 v 1 h 1 v -1 z m 7,0 v 1 h 1 v -1 z m 7,0 v 1 h 1 v -1 z m 7,0 v 1 h 1 v -1 z m 7,0 v 1 h 1 V 46 Z M 17,47 v 1 h 1 v -1 z m 5,0 v 1 h 1 v -1 z m 5,0 v 1 h 1 v -1 z m 5,0 v 1 h 1 v -1 z m 5,0 v 1 h 1 v -1 z m 5,0 v 1 h 1 v -1 z m 5,0 v 1 h 1 v -1 z m 5,0 v 1 h 1 v -1 z m 5,0 v 1 h 1 v -1 z m 5,0 v 1 h 1 v -1 z m 5,0 v 1 h 1 v -1 z m 5,0 v 1 h 1 v -1 z m 5,0 v 1 h 1 v -1 z m 5,0 v 1 h 1 v -1 z m 7,0 v 1 h 1 v -1 z m 7,0 v 1 h 1 v -1 z m 7,0 v 1 h 1 v -1 z m 7,0 v 1 h 1 v -1 z m 7,0 v 1 h 1 v -1 z m 7,0 v 1 h 1 V 47 Z M 14,48 v 1 h 1 v -1 z m 5,0 v 1 h 1 v -1 z m 5,0 v 1 h 1 v -1 z m 5,0 v 1 h 1 v -1 z m 5,0 v 1 h 1 v -1 z m 5,0 v 1 h 1 v -1 z m 5,0 v 1 h 1 v -1 z m 5,0 v 1 h 1 v -1 z m 5,0 v 1 h 1 v -1 z m 5,0 v 1 h 1 v -1 z m 5,0 v 1 h 1 v -1 z m 5,0 v 1 h 1 v -1 z m 5,0 v 1 h 1 v -1 z m 5,0 v 1 h 1 v -1 z m 5,0 v 1 h 1 v -1 z m 7,0 v 1 h 1 v -1 z m 7,0 v 1 h 1 v -1 z m 7,0 v 1 h 1 v -1 z m 7,0 v 1 h 1 v -1 z m 7,0 v 1 h 1 V 48 Z M 17,49 v 1 h 1 v -1 z m 5,0 v 1 h 1 v -1 z m 5,0 v 1 h 1 v -1 z m 5,0 v 1 h 1 v -1 z m 5,0 v 1 h 1 v -1 z m 5,0 v 1 h 1 v -1 z m 5,0 v 1 h 1 v -1 z m 5,0 v 1 h 1 v -1 z m 5,0 v 1 h 1 v -1 z m 5,0 v 1 h 1 v -1 z m 5,0 v 1 h 1 v -1 z m 5,0 v 1 h 1 v -1 z m 5,0 v 1 h 1 v -1 z m 5,0 v 1 h 1 v -1 z m 7,0 v 1 h 1 v -1 z m 7,0 v 1 h 1 v -1 z m 7,0 v 1 h 1 v -1 z m 7,0 v 1 h 1 v -1 z m 7,0 v 1 h 1 v -1 z m 7,0 v 1 h 1 V 49 Z M 14,50 v 1 h 1 v -1 z m 5,0 v 1 h 1 v -1 z m 5,0 v 1 h 1 v -1 z m 5,0 v 1 h 1 v -1 z m 5,0 v 1 h 1 v -1 z m 5,0 v 1 h 1 v -1 z m 5,0 v 1 h 1 v -1 z m 5,0 v 1 h 1 v -1 z m 5,0 v 1 h 1 v -1 z m 5,0 v 1 h 1 v -1 z m 5,0 v 1 h 1 v -1 z m 5,0 v 1 h 1 v -1 z m 5,0 v 1 h 1 v -1 z m 5,0 v 1 h 1 v -1 z m 5,0 v 1 h 1 v -1 z m 7,0 v 1 h 1 v -1 z m 7,0 v 1 h 1 v -1 z m 7,0 v 1 h 1 v -1 z m 7,0 v 1 h 1 v -1 z m 7,0 v 1 h 1 V 50 Z M 17,51 v 1 h 1 v -1 z m 5,0 v 1 h 1 v -1 z m 5,0 v 1 h 1 v -1 z m 5,0 v 1 h 1 v -1 z m 5,0 v 1 h 1 v -1 z m 5,0 v 1 h 1 v -1 z m 5,0 v 1 h 1 v -1 z m 5,0 v 1 h 1 v -1 z m 5,0 v 1 h 1 v -1 z m 5,0 v 1 h 1 v -1 z m 5,0 v 1 h 1 v -1 z m 5,0 v 1 h 1 v -1 z m 5,0 v 1 h 1 v -1 z m 5,0 v 1 h 1 v -1 z m 7,0 v 1 h 1 v -1 z m 7,0 v 1 h 1 v -1 z m 7,0 v 1 h 1 v -1 z m 7,0 v 1 h 1 v -1 z m 7,0 v 1 h 1 v -1 z m 7,0 v 1 h 1 V 51 Z M 14,52 v 1 h 1 v -1 z m 5,0 v 1 h 1 v -1 z m 5,0 v 1 h 1 v -1 z m 5,0 v 1 h 1 v -1 z m 5,0 v 1 h 1 v -1 z m 5,0 v 1 h 1 v -1 z m 5,0 v 1 h 1 v -1 z m 5,0 v 1 h 1 v -1 z m 5,0 v 1 h 1 v -1 z m 5,0 v 1 h 1 v -1 z m 5,0 v 1 h 1 v -1 z m 5,0 v 1 h 1 v -1 z m 5,0 v 1 h 1 v -1 z m 5,0 v 1 h 1 v -1 z m 5,0 v 1 h 1 v -1 z m 7,0 v 1 h 1 v -1 z m 7,0 v 1 h 1 v -1 z m 7,0 v 1 h 1 v -1 z m 7,0 v 1 h 1 v -1 z m 7,0 v 1 h 1 V 52 Z M 17,53 v 1 h 1 v -1 z m 5,0 v 1 h 1 v -1 z m 5,0 v 1 h 1 v -1 z m 5,0 v 1 h 1 v -1 z m 5,0 v 1 h 1 v -1 z m 5,0 v 1 h 1 v -1 z m 5,0 v 1 h 1 v -1 z m 5,0 v 1 h 1 v -1 z m 5,0 v 1 h 1 v -1 z m 5,0 v 1 h 1 v -1 z m 5,0 v 1 h 1 v -1 z m 5,0 v 1 h 1 v -1 z m 5,0 v 1 h 1 v -1 z m 5,0 v 1 h 1 v -1 z m 7,0 v 1 h 1 v -1 z m 7,0 v 1 h 1 v -1 z m 7,0 v 1 h 1 v -1 z m 7,0 v 1 h 1 v -1 z m 7,0 v 1 h 1 v -1 z m 7,0 v 1 h 1 V 53 Z M 14,54 v 1 h 1 v -1 z m 5,0 v 1 h 1 v -1 z m 5,0 v 1 h 1 v -1 z m 5,0 v 1 h 1 v -1 z m 5,0 v 1 h 1 v -1 z m 5,0 v 1 h 1 v -1 z m 5,0 v 1 h 1 v -1 z m 5,0 v 1 h 1 v -1 z m 5,0 v 1 h 1 v -1 z m 5,0 v 1 h 1 v -1 z m 5,0 v 1 h 1 v -1 z m 5,0 v 1 h 1 v -1 z m 5,0 v 1 h 1 v -1 z m 5,0 v 1 h 1 v -1 z m 5,0 v 1 h 1 v -1 z m 7,0 v 1 h 1 v -1 z m 7,0 v 1 h 1 v -1 z m 7,0 v 1 h 1 v -1 z m 7,0 v 1 h 1 v -1 z m 7,0 v 1 h 1 V 54 Z M 17,55 v 1 h 1 v -1 z m 5,0 v 1 h 1 v -1 z m 5,0 v 1 h 1 v -1 z m 5,0 v 1 h 1 v -1 z m 5,0 v 1 h 1 v -1 z m 5,0 v 1 h 1 v -1 z m 5,0 v 1 h 1 v -1 z m 5,0 v 1 h 1 v -1 z m 5,0 v 1 h 1 v -1 z m 5,0 v 1 h 1 v -1 z m 5,0 v 1 h 1 v -1 z m 5,0 v 1 h 1 v -1 z m 5,0 v 1 h 1 v -1 z m 5,0 v 1 h 1 v -1 z m 7,0 v 1 h 1 v -1 z m 7,0 v 1 h 1 v -1 z m 7,0 v 1 h 1 v -1 z m 7,0 v 1 h 1 v -1 z m 7,0 v 1 h 1 v -1 z m 7,0 v 1 h 1 V 55 Z M 14,56 v 1 h 1 v -1 z m 5,0 v 1 h 1 v -1 z m 5,0 v 1 h 1 v -1 z m 5,0 v 1 h 1 v -1 z m 5,0 v 1 h 1 v -1 z m 5,0 v 1 h 1 v -1 z m 5,0 v 1 h 1 v -1 z m 5,0 v 1 h 1 v -1 z m 5,0 v 1 h 1 v -1 z m 5,0 v 1 h 1 v -1 z m 5,0 v 1 h 1 v -1 z m 5,0 v 1 h 1 v -1 z m 5,0 v 1 h 1 v -1 z m 5,0 v 1 h 1 v -1 z m 5,0 v 1 h 1 v -1 z m 7,0 v 1 h 1 v -1 z m 7,0 v 1 h 1 v -1 z m 7,0 v 1 h 1 v -1 z m 7,0 v 1 h 1 v -1 z m 7,0 v 1 h 1 V 56 Z M 17,57 v 1 h 1 v -1 z m 0,1 h -1 v 1 h 1 z m 5,-1 v 1 h 1 v -1 z m 0,1 h -1 v 1 h 1 z m 5,-1 v 1 h 1 v -1 z m 0,1 h -1 v 1 h 1 z m 5,-1 v 1 h 1 v -1 z m 0,1 h -1 v 1 h 1 z m 5,-1 v 1 h 1 v -1 z m 0,1 h -1 v 1 h 1 z m 5,-1 v 1 h 1 v -1 z m 0,1 h -1 v 1 h 1 z m 5,-1 v 1 h 1 v -1 z m 0,1 h -1 v 1 h 1 z m 5,-1 v 1 h 1 v -1 z m 0,1 h -1 v 1 h 1 z m 5,-1 v 1 h 1 v -1 z m 0,1 h -1 v 1 h 1 z m 5,-1 v 1 h 1 v -1 z m 0,1 h -1 v 1 h 1 z m 5,-1 v 1 h 1 v -1 z m 0,1 h -1 v 1 h 1 z m 5,-1 v 1 h 1 v -1 z m 0,1 h -1 v 1 h 1 z m 5,-1 v 1 h 1 v -1 z m 0,1 h -1 v 1 h 1 z m 5,-1 v 1 h 1 v -1 z m 0,1 h -1 v 1 h 1 z m 7,-1 v 1 h 1 v -1 z m 0,1 h -1 v 1 h 1 z m 7,-1 v 1 h 1 v -1 z m 0,1 h -1 v 1 h 1 z m 7,-1 v 1 h 1 v -1 z m 0,1 h -1 v 1 h 1 z m 7,-1 v 1 h 1 v -1 z m 0,1 h -1 v 1 h 1 z m 7,-1 v 1 h 1 v -1 z m 0,1 h -1 v 1 h 1 z m 7,-1 v 1 h 1 v -1 z m 0,1 h -1 v 1 h 1 z M 14,58 v 1 h 1 v -1 z m 5,0 v 1 h 1 v -1 z m 5,0 v 1 h 1 v -1 z m 5,0 v 1 h 1 v -1 z m 5,0 v 1 h 1 v -1 z m 5,0 v 1 h 1 v -1 z m 5,0 v 1 h 1 v -1 z m 5,0 v 1 h 1 v -1 z m 5,0 v 1 h 1 v -1 z m 5,0 v 1 h 1 v -1 z m 5,0 v 1 h 1 v -1 z m 5,0 v 1 h 1 v -1 z m 5,0 v 1 h 1 v -1 z m 5,0 v 1 h 1 v -1 z m 5,0 v 1 h 1 v -1 z m 2,0 v 1 h 1 v -1 z m 5,0 v 1 h 1 v -1 z m 2,0 v 1 h 1 v -1 z m 5,0 v 1 h 1 v -1 z m 2,0 v 1 h 1 v -1 z m 5,0 v 1 h 1 v -1 z m 2,0 v 1 h 1 v -1 z m 5,0 v 1 h 1 v -1 z m 2,0 v 1 h 1 v -1 z m 5,0 v 1 h 1 v -1 z m 2,0 v 1 h 1 V 58 Z M 3,60 v 2 h 122 v -2 z" />
</svg>
