<?xml version="1.0" encoding="UTF-8" standalone="no"?>
<!-- Created with Inkscape (http://www.inkscape.org/) -->

<svg
   width="128"
   height="64"
   viewBox="0 0 33.866666 16.933333"
   version="1.1"
   id="svg1"
   xml:space="preserve"
   inkscape:export-filename="vu2up1309"
   inkscape:export-xdpi="90"
   inkscape:export-ydpi="90"
   inkscape:version="1.4.2 (2aeb623e1d, 2025-05-12)"
   sodipodi:docname="vu2up.svg"
   xmlns:inkscape="http://www.inkscape.org/namespaces/inkscape"
   xmlns:sodipodi="http://sodipodi.sourceforge.net/DTD/sodipodi-0.dtd"
   xmlns="http://www.w3.org/2000/svg"
   xmlns:svg="http://www.w3.org/2000/svg"><sodipodi:namedview
     id="namedview1"
     pagecolor="#ffffff"
     bordercolor="#666666"
     borderopacity="1.0"
     inkscape:showpageshadow="false"
     inkscape:pageopacity="0.0"
     inkscape:pagecheckerboard="0"
     inkscape:deskcolor="#d1d1d1"
     inkscape:document-units="px"
     inkscape:zoom="3.6314718"
     inkscape:cx="25.471766"
     inkscape:cy="-40.754825"
     inkscape:window-width="1920"
     inkscape:window-height="1009"
     inkscape:window-x="0"
     inkscape:window-y="32"
     inkscape:window-maximized="1"
     inkscape:current-layer="layer1"
     showgrid="false" /><defs
     id="defs1" /><g
     inkscape:label="Layer 1"
     inkscape:groupmode="layer"
     id="layer1"><rect
       style="fill:#000000;fill-opacity:1;stroke-width:0.79375;stroke-linejoin:round;stroke-miterlimit:0"
       id="backer"
       width="33.866665"
       height="16.933332"
       x="5.567627e-07"
       y="2.7838135e-07"
       sodipodi:insensitive="true" /><path
       id="meter-L"
       style="baseline-shift:baseline;display:inline;overflow:visible;opacity:1;vector-effect:none;fill:#ffffff;stroke-linejoin:round;stroke-miterlimit:0;enable-background:accumulate;stop-color:#000000;stop-opacity:1"
       d="M 0.92552488,0.79271646 A 0.13230472,0.13230472 0 0 0 0.79271646,0.92552488 V 16.271358 a 0.13230472,0.13230472 0 0 0 0.13280842,0.132808 H 16.271358 a 0.13230472,0.13230472 0 0 0 0.132808,-0.132808 V 0.92552488 A 0.13230472,0.13230472 0 0 0 16.271358,0.79271646 Z M 1.0588501,1.0588501 H 16.138549 V 12.170833 H 1.1074259 v 0.26355 H 16.138549 V 12.7 H 1.1074259 v 0.265617 H 16.138549 v 3.172932 H 1.0588501 Z M 14.552083,1.5875 V 2.1166666 H 14.022916 V 2.38125 h 0.529167 v 0.5291666 h 0.264583 V 2.38125 h 0.529167 V 2.1166666 H 14.816666 V 1.5875 Z M 1.5875,2.1166666 V 2.38125 H 2.9104166 V 2.1166666 Z M 10.910962,2.38125 c -0.159819,0 -0.281451,0.053134 -0.364319,0.1596801 -0.08139,0.1050657 -0.121957,0.2758618 -0.121957,0.5126302 0,0.2426874 0.04343,0.4145877 0.130742,0.515214 0.07843,0.090268 0.197195,0.1353923 0.355534,0.1353923 0.321117,0 0.481624,-0.2198901 0.481624,-0.6593913 0,-0.4424607 -0.160507,-0.6635253 -0.481624,-0.6635253 z m -0.0067,0.1333251 c 0.122823,0 0.21138,0.040567 0.266133,0.1219564 0.05623,0.079909 0.08475,0.2227053 0.08475,0.4283976 0,0.1982934 -0.02683,0.3342537 -0.0801,0.4082438 -0.05179,0.07251 -0.142042,0.1090373 -0.270784,0.1090373 -0.127264,0 -0.216924,-0.04395 -0.268718,-0.1312581 -0.04292,-0.078429 -0.06408,-0.2046884 -0.06408,-0.379305 0,-0.2027326 0.02403,-0.3461159 0.07286,-0.4304647 0.05032,-0.084348 0.13711,-0.1266073 0.259933,-0.1266073 z m 3.911906,0.6614584 c -0.436809,0 -0.792717,0.3559074 -0.792717,0.7927164 0,0.436809 0.355908,0.7927165 0.792717,0.7927165 0.436809,0 0.7953,-0.3559075 0.7953,-0.7927165 0,-0.436809 -0.358491,-0.7927165 -0.7953,-0.7927164 z M 3.7904662,3.4395833 c -0.1598185,0 -0.28145,0.053134 -0.3643188,0.1596801 -0.081389,0.1050657 -0.1219564,0.2758618 -0.1219564,0.5126302 0,0.2426874 0.04395,0.4145878 0.1312582,0.5152141 0.078429,0.090268 0.1966782,0.1353922 0.355017,0.1353922 0.321117,0 0.4816244,-0.2198901 0.4816244,-0.6593913 0,-0.4424607 -0.1605074,-0.6635253 -0.4816244,-0.6635253 z m 11.0256838,0 c 0.293818,0 0.529683,0.2353489 0.529683,0.5291666 0,0.2938177 -0.235865,0.5291667 -0.529683,0.5291667 -0.293817,0 -0.529167,-0.235349 -0.529167,-0.5291667 0,-0.2938177 0.23535,-0.5291666 0.529167,-0.5291666 z M 2.6783894,3.4705891 c -0.1672176,0 -0.2865704,0.023443 -0.3576009,0.070797 -0.1139446,0.076949 -0.171049,0.202034 -0.171049,0.3751709 0,0.053272 0.023373,0.080099 0.069247,0.080099 0.045874,0 0.06873,-0.022269 0.06873,-0.066663 0,-0.1021063 0.022855,-0.1786836 0.06873,-0.2304769 0.060672,-0.068071 0.164075,-0.1023193 0.3105753,-0.1023193 0.2145712,0 0.3219442,0.078269 0.3219442,0.2351277 0,0.081389 -0.038289,0.1448123 -0.1152385,0.1906861 -0.039955,0.029594 -0.1273376,0.060978 -0.2619995,0.093534 -0.1331831,0.032554 -0.2222562,0.061143 -0.2666503,0.0863 C 2.192657,4.291632 2.1166666,4.4452334 2.1166666,4.6627644 l 0.00207,0.099735 h 0.9746175 c 0.042914,0 0.064596,-0.023961 0.064596,-0.071313 0,-0.045874 -0.027414,-0.06873 -0.082165,-0.06873 H 2.2654947 c 0,-0.1302226 0.038875,-0.2256156 0.1173055,-0.2862875 0.051793,-0.039955 0.1482902,-0.075377 0.2888713,-0.1064534 0.1450206,-0.041435 0.2449708,-0.078548 0.2997233,-0.1111043 0.097667,-0.069551 0.1462443,-0.1695008 0.1462443,-0.2997233 0,-0.1109849 -0.046299,-0.1995425 -0.1395264,-0.2661336 -0.07695,-0.054753 -0.1768998,-0.082166 -0.2997233,-0.082165 z m 2.6752889,0.011369 v 0.179834 h 0.1793172 v -0.179834 z m 1.7942057,0 v 0.179834 h 0.1793172 v -0.179834 z m 1.7942057,0 v 0.179834 h 0.1793172 v -0.179834 z m 3.5884113,0 v 0.179834 h 0.179317 v -0.179834 z m -8.7467527,0.090951 c 0.1228235,0 0.2113809,0.040567 0.2661336,0.1219563 0.056233,0.079909 0.084749,0.2227054 0.084749,0.4283977 0,0.1982934 -0.026825,0.3342537 -0.080099,0.4082438 -0.051793,0.07251 -0.1420418,0.1090372 -0.2707845,0.1090372 -0.1272629,0 -0.2169244,-0.04395 -0.2687174,-0.1312581 C 3.472116,4.430857 3.450951,4.3045976 3.450951,4.129981 c 0,-0.2027326 0.024031,-0.3461159 0.072864,-0.4304647 0.050313,-0.084348 0.1371091,-0.1266072 0.2599333,-0.1266072 z m 4.8157266,0.4542358 c -2.459004,0 -4.6973441,0.7790094 -6.3443154,2.0494873 v 0.337447 c 1.6098,-1.3083571 3.8540862,-2.1228677 6.3443154,-2.1228677 2.4900701,0 4.7339981,0.8141407 6.3432821,2.122351 V 6.075598 C 13.295908,4.8057144 11.057831,4.0271443 8.5994749,4.0271449 Z" /><path
       id="meter-R"
       style="baseline-shift:baseline;display:inline;overflow:visible;opacity:1;vector-effect:none;fill:#ffffff;stroke-linejoin:round;stroke-miterlimit:0;enable-background:accumulate;stop-color:#000000;stop-opacity:1"
       d="M 17.595309,0.79375095 A 0.13230472,0.13230472 0 0 0 17.462501,0.92655934 V 16.272393 a 0.13230472,0.13230472 0 0 0 0.132808,0.132808 h 15.345834 a 0.13230472,0.13230472 0 0 0 0.132808,-0.132808 V 0.92655934 A 0.13230472,0.13230472 0 0 0 32.941143,0.79375095 Z m 0.133325,0.26613365 h 15.0797 V 12.171868 H 17.77721 v 0.26355 h 15.031124 v 0.265617 H 17.77721 v 0.265617 h 15.031124 v 3.172932 h -15.0797 z m 13.493234,0.5286499 v 0.5291666 h -0.529167 v 0.2645834 h 0.529167 v 0.5291666 h 0.264583 V 2.3822845 h 0.529167 V 2.1177011 H 31.486451 V 1.5885345 Z M 18.257284,2.1177011 v 0.2645834 h 1.322917 V 2.1177011 Z m 9.323463,0.2645834 c -0.159819,0 -0.281451,0.053134 -0.364319,0.1596801 -0.08139,0.1050657 -0.121957,0.2758618 -0.121957,0.5126302 0,0.2426874 0.04343,0.4145877 0.130742,0.515214 0.07843,0.090268 0.197195,0.1353923 0.355534,0.1353923 0.321117,0 0.481624,-0.2198901 0.481624,-0.6593913 0,-0.4424607 -0.160507,-0.6635253 -0.481624,-0.6635253 z m -0.0067,0.1333251 c 0.122823,0 0.21138,0.040567 0.266133,0.1219564 0.05623,0.079909 0.08475,0.2227053 0.08475,0.4283976 0,0.1982934 -0.02683,0.3342537 -0.0801,0.4082438 -0.05179,0.07251 -0.142042,0.1090373 -0.270784,0.1090373 -0.127264,0 -0.216924,-0.04395 -0.268718,-0.1312581 -0.04292,-0.078429 -0.06408,-0.2046884 -0.06408,-0.379305 0,-0.2027326 0.02403,-0.3461159 0.07286,-0.4304647 0.05032,-0.084348 0.13711,-0.1266073 0.259933,-0.1266073 z m 3.911906,0.6614584 c -0.436809,0 -0.792717,0.3559074 -0.792717,0.7927164 0,0.436809 0.355908,0.7927165 0.792717,0.7927165 0.436809,0 0.7953,-0.3559075 0.7953,-0.7927165 0,-0.436809 -0.358491,-0.7927165 -0.7953,-0.7927164 z M 20.46025,3.4406178 c -0.159818,0 -0.28145,0.053134 -0.364318,0.1596801 -0.08139,0.1050657 -0.121957,0.2758618 -0.121957,0.5126302 0,0.2426874 0.04395,0.4145878 0.131258,0.5152141 0.07843,0.090268 0.196679,0.1353922 0.355017,0.1353922 0.321117,0 0.481625,-0.2198901 0.481625,-0.6593913 0,-0.4424607 -0.160508,-0.6635253 -0.481625,-0.6635253 z m 11.025685,0 c 0.293818,0 0.529683,0.2353489 0.529683,0.5291666 0,0.2938177 -0.235865,0.5291667 -0.529683,0.5291667 -0.293817,0 -0.529167,-0.235349 -0.529167,-0.5291667 0,-0.2938177 0.23535,-0.5291666 0.529167,-0.5291666 z m -12.137761,0.031006 c -0.167218,0 -0.286571,0.023443 -0.357601,0.070797 -0.113945,0.076949 -0.171049,0.202034 -0.171049,0.3751709 0,0.053272 0.02337,0.080099 0.06925,0.080099 0.04587,0 0.06873,-0.022269 0.06873,-0.066663 0,-0.1021063 0.02285,-0.1786836 0.06873,-0.2304769 0.06067,-0.068071 0.164075,-0.1023193 0.310575,-0.1023193 0.214571,0 0.321944,0.078269 0.321944,0.2351277 0,0.081389 -0.03829,0.1448123 -0.115238,0.1906861 -0.03995,0.029594 -0.127338,0.060978 -0.262,0.093534 -0.133183,0.032554 -0.222256,0.061143 -0.26665,0.0863 -0.152424,0.088787 -0.228414,0.2423886 -0.228414,0.4599196 l 0.0021,0.099735 h 0.974617 c 0.04291,0 0.0646,-0.023961 0.0646,-0.071313 0,-0.045874 -0.02741,-0.06873 -0.08216,-0.06873 h -0.810289 c 0,-0.1302226 0.03888,-0.2256156 0.117305,-0.2862875 0.05179,-0.039955 0.148291,-0.075377 0.288872,-0.1064534 0.14502,-0.041435 0.24497,-0.078548 0.299723,-0.1111043 0.09767,-0.069551 0.146244,-0.1695008 0.146244,-0.2997233 0,-0.1109849 -0.0463,-0.1995425 -0.139526,-0.2661336 -0.07695,-0.054753 -0.1769,-0.082166 -0.299723,-0.082165 z m 2.675289,0.011369 v 0.179834 h 0.179317 v -0.179834 z m 1.794206,0 v 0.179834 h 0.179317 v -0.179834 z m 1.794205,0 v 0.179834 h 0.179317 v -0.179834 z m 3.588412,0 v 0.179834 h 0.179317 v -0.179834 z m -8.746754,0.090951 c 0.122824,0 0.211381,0.040567 0.266134,0.1219563 0.05623,0.079909 0.08475,0.2227054 0.08475,0.4283977 0,0.1982934 -0.02683,0.3342537 -0.0801,0.4082438 -0.05179,0.07251 -0.142042,0.1090372 -0.270784,0.1090372 -0.127263,0 -0.216925,-0.04395 -0.268718,-0.1312581 -0.04291,-0.078429 -0.06408,-0.2046884 -0.06408,-0.379305 0,-0.2027326 0.02403,-0.3461159 0.07286,-0.4304647 0.05031,-0.084348 0.137109,-0.1266072 0.259933,-0.1266072 z m 4.815727,0.4542358 c -2.459004,0 -4.697344,0.7790094 -6.344315,2.0494873 v 0.337447 c 1.6098,-1.3083571 3.854086,-2.1228677 6.344315,-2.1228677 2.490071,0 4.733999,0.8141407 6.343283,2.122351 V 6.0766325 C 29.965693,4.8067489 27.727616,4.0281788 25.269259,4.0281796 Z" /><path
       style="font-size:1.41111px;line-height:1.1;font-family:mry_KacstQurn;-inkscape-font-specification:mry_KacstQurn;text-align:center;letter-spacing:0px;text-anchor:middle;fill:#ffffff;stroke-width:0.132292;stroke-miterlimit:0;stroke:#ffffff;stroke-opacity:1"
       d="m 7.3571741,13.923409 h 0.1391817 v 0.911572 h 0.5009165 v 0.117133 H 7.3571741 Z m 1.4159331,0.61116 v 0.06201 H 8.1901975 q 0.00827,0.130913 0.078548,0.199815 0.070969,0.06821 0.1970593,0.06821 0.073036,0 0.1412488,-0.01792 0.068902,-0.01791 0.1364256,-0.05374 v 0.119889 q -0.068213,0.02894 -0.1398707,0.0441 -0.071658,0.01516 -0.1453829,0.01516 -0.184657,0 -0.2928329,-0.107487 -0.1074869,-0.107487 -0.1074869,-0.290766 0,-0.18948 0.1019747,-0.300412 0.1026638,-0.111621 0.2762965,-0.111621 0.1557182,0 0.2459796,0.100597 0.09095,0.09991 0.09095,0.272162 z m -0.1267794,-0.03721 q -0.00138,-0.104042 -0.058567,-0.166054 -0.0565,-0.06201 -0.1502061,-0.06201 -0.1061089,0 -0.1701876,0.05994 -0.06339,0.05995 -0.073036,0.16881 z m 0.7255367,-0.617361 v 0.10542 H 9.2505972 q -0.068213,0 -0.095085,0.02756 -0.026183,0.02756 -0.026183,0.09922 v 0.06821 h 0.2087726 v 0.09853 H 9.1293299 v 0.673171 H 9.0018615 V 14.278943 H 8.8805942 v -0.09853 h 0.1212673 v -0.05374 q 0,-0.128847 0.059945,-0.187413 Q 9.1217515,13.88 9.2519756,13.88 Z m 0.2067055,0.0813 v 0.219108 h 0.2611381 v 0.09853 H 9.57857 v 0.418923 q 0,0.0944 0.025494,0.121268 0.026183,0.02687 0.1054198,0.02687 h 0.1302246 v 0.106109 H 9.7094835 q -0.1467609,0 -0.2025714,-0.05443 -0.05581,-0.05512 -0.05581,-0.199816 V 14.27894 h -0.093018 v -0.09853 h 0.093018 v -0.219108 z"
       id="text6"
       aria-label="Left" /><path
       d="m 23.98424,14.469801 q 0.04479,0.01516 0.08682,0.06477 0.04272,0.04961 0.08544,0.136426 l 0.141249,0.281119 H 24.148226 L 24.016624,14.68822 q -0.05099,-0.103353 -0.09922,-0.137115 -0.04754,-0.03376 -0.130225,-0.03376 h -0.151584 v 0.434771 h -0.139181 v -1.028705 h 0.314192 q 0.176389,0 0.263205,0.07373 0.08682,0.07372 0.08682,0.222553 0,0.09715 -0.04547,0.161231 -0.04479,0.06408 -0.130913,0.08888 z m -0.348644,-0.432015 v 0.36518 h 0.175011 q 0.100597,0 0.151584,-0.04616 0.05168,-0.04685 0.05168,-0.137115 0,-0.09026 -0.05168,-0.135736 -0.05099,-0.04617 -0.151584,-0.04617 z m 0.83578,0.142627 h 0.126779 v 0.771701 h -0.126779 z m 0,-0.300412 h 0.126779 v 0.160542 h -0.126779 z m 0.899858,0.677305 q 0,-0.137803 -0.05719,-0.213595 -0.0565,-0.07579 -0.159163,-0.07579 -0.101975,0 -0.159163,0.07579 -0.0565,0.07579 -0.0565,0.213595 0,0.137115 0.0565,0.212907 0.05719,0.07579 0.159163,0.07579 0.102664,0 0.159163,-0.07579 0.05719,-0.07579 0.05719,-0.212907 z m 0.126779,0.299035 q 0,0.197059 -0.08751,0.292832 -0.08751,0.09646 -0.268028,0.09646 -0.06683,0 -0.126091,-0.01033 -0.05926,-0.0096 -0.115066,-0.03032 V 15.08165 q 0.05581,0.03032 0.110243,0.04479 0.05443,0.01447 0.110932,0.01447 0.124713,0 0.186724,-0.06546 0.06201,-0.06477 0.06201,-0.19637 v -0.0627 q -0.03927,0.06821 -0.100597,0.101975 -0.06132,0.03376 -0.146761,0.03376 -0.141937,0 -0.228754,-0.108176 -0.08682,-0.108176 -0.08682,-0.286632 0,-0.179144 0.08682,-0.28732 0.08682,-0.108176 0.228754,-0.108176 0.08544,0 0.146761,0.03376 0.06132,0.03376 0.100597,0.101974 v -0.117133 h 0.126779 z m 0.902615,-0.370003 v 0.465776 h -0.126779 v -0.461642 q 0,-0.109554 -0.04272,-0.163987 -0.04272,-0.05443 -0.128157,-0.05443 -0.102664,0 -0.161919,0.06546 -0.05926,0.06546 -0.05926,0.178455 v 0.436149 h -0.127468 v -1.072113 h 0.127468 v 0.420302 q 0.04547,-0.06959 0.106798,-0.104042 0.06201,-0.03445 0.142627,-0.03445 0.13298,0 0.201193,0.08268 0.06821,0.08199 0.06821,0.241846 z m 0.378271,-0.525033 v 0.219108 h 0.261138 v 0.09853 h -0.261138 v 0.418923 q 0,0.0944 0.02549,0.121268 0.02618,0.02687 0.10542,0.02687 h 0.130224 v 0.106109 h -0.130224 q -0.146761,0 -0.202572,-0.05443 -0.05581,-0.05512 -0.05581,-0.199816 v -0.418923 h -0.09302 v -0.09853 h 0.09302 v -0.219108 z"
       id="text7"
       style="font-size:1.41111px;line-height:1.1;font-family:mry_KacstQurn;-inkscape-font-specification:mry_KacstQurn;text-align:center;letter-spacing:0px;text-anchor:middle;fill:#ffffff;stroke-width:0.132292;stroke-miterlimit:0;stroke:#ffffff;stroke-opacity:1"
       aria-label="Right" /><path
       style="font-size:1.59809px;line-height:1.1;font-family:mry_KacstQurn;-inkscape-font-specification:mry_KacstQurn;text-align:center;letter-spacing:0px;baseline-shift:baseline;text-anchor:middle;display:inline;overflow:visible;vector-effect:none;fill:#ffffff;stroke-miterlimit:0;enable-background:accumulate;stop-color:#000000;stop-opacity:1;opacity:1"
       d="m 7.1210937,8.3808594 -0.097656,0.1425781 0.6210937,1.6250005 0.097656,0.06836 h 0.25 L 8.0898438,10.148438 8.7089844,8.5234375 8.6113281,8.3808594 H 8.3828125 l -0.097656,0.068359 -0.4179688,1.109375 -0.4179688,-1.109375 -0.097656,-0.068359 z m 1.7031251,0 L 8.71875,8.4863281 v 1.015625 c 0,0.229188 0.059232,0.4200154 0.1875,0.5527349 0.1289841,0.132542 0.3172001,0.193359 0.5410156,0.193359 0.2231547,0 0.4108139,-0.06066 0.5390625,-0.193359 C 10.115409,9.9220452 10.173828,9.73126 10.173828,9.5019531 V 8.4863281 L 10.068359,8.3808594 H 9.8476563 L 9.7421875,8.4863281 v 0.9882813 c 0,0.1606474 -0.032001,0.2611738 -0.070312,0.3085937 -0.038807,0.046835 -0.1026209,0.078125 -0.2246094,0.078125 -0.1228109,0 -0.1878811,-0.031441 -0.2265625,-0.078125 C 9.1823921,9.7357847 9.1484375,9.63526 9.1484375,9.4746094 V 8.4863281 L 9.0449219,8.3808594 Z M 7.2734375,8.5898438 h 0.00586 l 0.4335937,1.1523437 z m 1.1816406,0 h 0.00586 L 8.046875,9.671875 Z m 0.4726563,0 h 0.011719 v 0.8847656 c 0,0.1818403 0.032856,0.3234717 0.1152344,0.4296875 C 8.9753587,9.8205904 8.9277344,9.6947964 8.9277344,9.5019531 Z m 1.0234375,0 h 0.013672 v 0.9121093 c 0,0.1938458 -0.048096,0.3205532 -0.1289063,0.4042969 C 9.9193317,9.7998977 9.9511719,9.6574229 9.9511719,9.4746094 Z M 7.7695312,9.8925781 H 7.9628906 L 7.9199219,10.007813 H 7.8144531 Z"
       id="text8" /><path
       style="font-size:2.23037px;line-height:1.1;font-family:mry_KacstQurn;-inkscape-font-specification:mry_KacstQurn;text-align:center;letter-spacing:0px;baseline-shift:baseline;text-anchor:middle;display:inline;overflow:visible;vector-effect:none;fill:#ffffff;stroke-miterlimit:0;enable-background:accumulate;stop-color:#000000;stop-opacity:1;opacity:1"
       d="m 23.794922,8.3808594 -0.09766,0.1425781 0.621093,1.6250005 0.09766,0.06836 h 0.248046 l 0.09766,-0.06836 0.621093,-1.6250005 -0.09766,-0.1425781 h -0.228515 l -0.09766,0.068359 -0.419922,1.109375 -0.416015,-1.109375 -0.09766,-0.068359 z m 1.701172,0 -0.103516,0.1054687 v 1.015625 c 0,0.2291874 0.05728,0.4200153 0.185547,0.5527349 0.128984,0.132542 0.317201,0.193359 0.541016,0.193359 0.223154,0 0.410814,-0.06066 0.539062,-0.193359 0.129081,-0.1326426 0.1875,-0.3234282 0.1875,-0.5527349 V 8.4863281 L 26.742187,8.3808594 h -0.220703 l -0.105468,0.1054687 v 0.9882813 c 0,0.1606474 -0.032,0.2611746 -0.07031,0.3085937 -0.03881,0.046836 -0.104574,0.078125 -0.226562,0.078125 -0.121536,0 -0.185782,-0.030317 -0.22461,-0.076172 v -0.00195 C 25.856219,9.735785 25.822266,9.6352595 25.822266,9.4746094 V 8.4863281 L 25.71875,8.3808594 Z m -1.548828,0.2089844 h 0.0059 l 0.34375,0.9179687 z m 1.18164,0 h 0.0059 l -0.498047,1.3027343 -0.04297,0.1152349 h -0.105469 l -0.04492,-0.1152349 h 0.19336 z m 0.472656,0 h 0.01172 v 0.8847656 c 0,0.1835899 0.03298,0.3271364 0.117188,0.4335937 -3.69e-4,-3.753e-4 -0.0016,3.768e-4 -0.002,0 -0.08083,-0.083638 -0.126954,-0.2114348 -0.126954,-0.40625 z m 1.023438,0 h 0.01172 v 0.9121093 c 0,0.1946959 -0.04548,0.3225346 -0.126953,0.40625 h -0.002 C 26.592022,9.8017458 26.625,9.6581993 26.625,9.4746094 Z"
       id="text9" /></g></svg>
