<?xml version="1.0" encoding="UTF-8" standalone="no"?>
<!-- Created with Inkscape (http://www.inkscape.org/) -->

<svg
   width="128"
   height="64"
   viewBox="0 0 33.866666 16.933333"
   version="1.1"
   id="svg1"
   xml:space="preserve"
   inkscape:export-filename="vu2up1309"
   inkscape:export-xdpi="90"
   inkscape:export-ydpi="90"
   inkscape:version="1.4.3 (1:1.4.3+202512261035+0d15f75042)"
   sodipodi:docname="vuaio.svg"
   xmlns:inkscape="http://www.inkscape.org/namespaces/inkscape"
   xmlns:sodipodi="http://sodipodi.sourceforge.net/DTD/sodipodi-0.dtd"
   xmlns="http://www.w3.org/2000/svg"
   xmlns:svg="http://www.w3.org/2000/svg"><sodipodi:namedview
     id="namedview1"
     pagecolor="#ffffff"
     bordercolor="#666666"
     borderopacity="1.0"
     inkscape:showpageshadow="false"
     inkscape:pageopacity="0.0"
     inkscape:pagecheckerboard="0"
     inkscape:deskcolor="#d1d1d1"
     inkscape:document-units="px"
     inkscape:zoom="3.6314718"
     inkscape:cx="25.609451"
     inkscape:cy="27.9501"
     inkscape:window-width="1920"
     inkscape:window-height="1009"
     inkscape:window-x="0"
     inkscape:window-y="32"
     inkscape:window-maximized="1"
     inkscape:current-layer="layer1"
     showgrid="false" /><defs
     id="defs1" /><g
     inkscape:label="Layer 1"
     inkscape:groupmode="layer"
     id="layer1"><rect
       style="fill:#000000;fill-opacity:1;stroke-width:0.79375;stroke-linejoin:round;stroke-miterlimit:0"
       id="backer"
       width="33.866665"
       height="16.933332"
       x="5.567627e-07"
       y="2.7838135e-07"
       sodipodi:insensitive="true" /><g
       id="g16"
       transform="matrix(0.26458333,0,0,0.26458333,17.197926,0.52917484)"><rect
         style="fill:#0000ff;fill-opacity:1;stroke-linejoin:round"
         id="rect12"
         width="60"
         height="60"
         x="-1.7163086e-07"
         y="-4.296875e-07" /><path
         id="NEEDLE"
   transform="rotate({{needle}}, 29.773437, 45.38238)"
         style="fill:#ffff00;fill-opacity:1;stroke-width:0.999541;stroke-linejoin:round"
         d="M 29.78863,4.4820673 28.5,54.56708 h 3 L 30.38238,4.4820673 Z" /><path
         id="path13"
         style="baseline-shift:baseline;display:inline;overflow:visible;vector-effect:none;fill:#ffffff;stroke-width:3.7778;stroke-linejoin:round;stroke-miterlimit:0;enable-background:accumulate;stop-color:#000000"
         d="m 0.99999849,0.52502852 a 0.50004934,0.49959199 0 0 0 -0.50195,0.50149398 V 58.973471 a 0.50004934,0.49959199 0 0 0 0.50195,0.5015 H 59.000001 a 0.50004934,0.49959199 0 0 0 0.50195,-0.5015 V 1.0265225 A 0.50004934,0.49959199 0 0 0 59.000001,0.52502852 Z M 1.5039085,1.5299675 H 58.498041 V 43.489601 H 1.6874985 v 0.99518 H 58.498041 v 1.00299 H 1.6874985 v 1.00299 H 58.498041 v 11.98122 H 1.5039085 Z m 50.9980395,1.996219 v 1.998171 h -2 v 0.999086 h 2 v 1.99817 h 1 v -1.99817 h 2 v -0.999086 h -2 V 3.5261865 Z M 3.5019485,5.5243575 v 0.999086 h 5 v -0.999086 z m 35.2382795,0.999086 c -0.60404,0 -1.06375,0.200637 -1.37695,0.602963 -0.30762,0.396736 -0.46094,1.041674 -0.46094,1.935728 0,0.916405 0.16414,1.5655125 0.49414,1.9454855 0.29643,0.340858 0.74531,0.51125 1.34375,0.51125 1.21367,0 1.82031,-0.83032 1.82031,-2.4899085 0,-1.670763 -0.60664,-2.505518 -1.82031,-2.505518 z m -0.0253,0.503445 c 0.46421,0 0.79892,0.153184 1.00586,0.460516 0.21252,0.301742 0.32031,0.840951 0.32031,1.617659 0,0.74877 -0.1014,1.2621665 -0.30274,1.5415585 -0.19574,0.273803 -0.53685,0.411732 -1.02343,0.411732 -0.481,0 -0.81987,-0.165958 -1.01563,-0.495639 -0.16222,-0.296154 -0.24219,-0.7729185 -0.24219,-1.4322835 0,-0.765533 0.0908,-1.306958 0.27537,-1.625465 0.19019,-0.318504 0.51821,-0.478078 0.98243,-0.478078 z m 14.78516,2.497713 c -1.65093,0 -2.9961,1.3439325 -2.9961,2.9933545 0,1.649421 1.34517,2.993353 2.9961,2.993353 1.65093,0 3.00586,-1.343932 3.00586,-2.993353 0,-1.649422 -1.35493,-2.9933545 -3.00586,-2.9933545 z m -41.67195,0.9951835 c -0.60403,0 -1.06374,0.200638 -1.37695,0.602964 -0.30761,0.396735 -0.4609395,1.041673 -0.4609395,1.935727 0,0.916405 0.1661095,1.565513 0.4960995,1.945485 0.29643,0.340859 0.74335,0.511251 1.34179,0.511251 1.21368,0 1.82032,-0.830321 1.82032,-2.489908 0,-1.670763 -0.60665,-2.505519 -1.82032,-2.505519 z m 41.67188,0 c 1.11049,0 2.00195,0.888694 2.00195,1.998171 0,1.109476 -0.89146,1.998171 -2.00195,1.998171 -1.11049,0 -2,-0.888695 -2,-1.998171 0,-1.109477 0.88951,-1.998171 2,-1.998171 z M 7.6250185,10.636866 c -0.632,0 -1.0831,0.08852 -1.35156,0.267334 -0.43066,0.290565 -0.64649,0.762895 -0.64649,1.416672 0,0.201159 0.0883,0.30246 0.26173,0.30246 0.17337,0 0.25977,-0.08409 0.25977,-0.251724 0,-0.385561 0.0864,-0.674722 0.25977,-0.870297 0.2293,-0.257041 0.62012,-0.386365 1.17383,-0.386365 0.81098,0 1.21679,0.295549 1.21679,0.887858 0,0.307331 -0.14471,0.546822 -0.43554,0.720045 -0.151,0.111749 -0.48128,0.230257 -0.99024,0.353191 -0.50337,0.122926 -0.84002,0.23088 -1.00781,0.325875 -0.57608,0.335266 -0.86328,0.915277 -0.86328,1.736689 l 0.008,0.376607 h 3.68359 c 0.16218,0 0.24416,-0.09048 0.24416,-0.269283 0,-0.173224 -0.1036,-0.25953 -0.31053,-0.25953 h -3.06251 c 0,-0.491729 0.14691,-0.85194 0.44335,-1.081041 0.19575,-0.150873 0.56047,-0.284629 1.0918,-0.401976 0.54811,-0.156461 0.92587,-0.296603 1.13281,-0.419538 0.36915,-0.262629 0.55274,-0.640047 0.55274,-1.131776 0,-0.419087 -0.17499,-0.753487 -0.52734,-1.004939 -0.29084,-0.206752 -0.6686,-0.310265 -1.13282,-0.310261 z m 10.1113295,0.04293 v 0.679066 h 0.67773 v -0.679066 z m 6.78125,0 v 0.679066 h 0.67773 v -0.679066 z m 6.78125,0 v 0.679066 h 0.67773 v -0.679066 z m 13.5625,0 v 0.679066 h 0.67773 v -0.679066 z m -33.0586,0.343438 c 0.46422,0 0.79892,0.153183 1.00586,0.460515 0.21253,0.301742 0.32032,0.840952 0.32032,1.61766 0,0.74877 -0.10137,1.262166 -0.30274,1.541558 -0.19574,0.273803 -0.53685,0.411732 -1.02344,0.411732 -0.48099,0 -0.81987,-0.165958 -1.01562,-0.49564 -0.16218,-0.296153 -0.2422,-0.772918 -0.2422,-1.432283 0,-0.765532 0.0908,-1.306958 0.27538,-1.625465 0.19015,-0.318504 0.51821,-0.478077 0.98242,-0.478077 z m 18.20118,1.715226 c -9.29388,0 -17.75374,2.941595 -23.9785195,7.739009 v 1.274224 c 6.0842795,-4.940449 14.5666295,-8.016099 23.9785195,-8.016099 9.41128,0 17.89227,3.074253 23.9746,8.014148 v -1.276179 c -6.22431,-4.79517 -14.68318,-7.735106 -23.9746,-7.735103 z" /><rect
         style="fill:#000000;fill-opacity:1;stroke-width:0.820258;stroke-linejoin:round"
         id="rect13"
         width="59"
         height="18.982622"
         x="0.083926871"
         y="43.206856" /><path
         id="path14"
         style="baseline-shift:baseline;display:inline;overflow:visible;vector-effect:none;fill:#ffffff;stroke-linejoin:round;enable-background:accumulate;stop-color:#000000"
         d="M 0.4921867,-4.2968751e-7 A 0.49185268,0.49185268 0 0 0 -3.0035442e-7,0.49218757 V 43 v 1 1 1 13.507812 A 0.49185268,0.49185268 0 0 0 0.4921867,60 H 59.507812 A 0.49185268,0.49185268 0 0 0 60,59.507812 V 46 45 44 43 0.49218757 A 0.49185268,0.49185268 0 0 0 59.507812,-4.2968751e-7 Z M 0.9843747,0.98437457 H 59.017578 V 43 H 0.9843747 Z M 0.9843747,44 H 59.017578 v 1 H 0.9843747 Z m 0,2 H 59.017578 V 59.017578 H 0.9843747 Z" /><path
         style="font-size:1.59809px;line-height:1.1;font-family:mry_KacstQurn;-inkscape-font-specification:mry_KacstQurn;text-align:center;letter-spacing:0px;baseline-shift:baseline;text-anchor:middle;display:inline;overflow:visible;vector-effect:none;fill:#ffffff;stroke-width:3.7778;stroke-miterlimit:0;enable-background:accumulate;stop-color:#000000"
         d="m 24.41561,26.474684 -0.369108,0.538385 2.347438,6.136116 0.369109,0.258133 h 0.944882 l 0.369108,-0.258133 2.340057,-6.136116 -0.369109,-0.538385 h -0.863682 l -0.369109,0.258128 -1.579722,4.189079 -1.579725,-4.189079 -0.369109,-0.258128 z m 6.437008,0 -0.398623,0.398257 v 3.835072 c 0,0.86543 0.223862,1.586008 0.708662,2.087166 0.487498,0.500488 1.198866,0.730137 2.044785,0.730137 0.843416,0 1.552683,-0.229056 2.037399,-0.730137 0.487867,-0.500869 0.708657,-1.221287 0.708657,-2.087166 v -3.835072 l -0.39862,-0.398257 h -0.834151 l -0.398623,0.398257 v 3.73182 c 0,0.606616 -0.120945,0.986211 -0.265739,1.165272 -0.146683,0.176852 -0.387855,0.295005 -0.848916,0.295005 -0.464167,0 -0.710101,-0.118723 -0.856297,-0.295005 -0.144794,-0.179054 -0.273146,-0.558644 -0.273146,-1.165272 v -3.73182 l -0.391234,-0.398257 z m -5.861223,0.789139 h 0.0223 l 1.638781,4.351332 z m 4.466045,0 h 0.0223 l -1.565114,4.085827 z m 1.786416,0 h 0.0443 v 3.340938 c 0,0.686642 0.124196,1.221452 0.435534,1.62253 -0.29983,-0.316079 -0.479826,-0.791088 -0.479826,-1.519278 z m 3.868112,0 h 0.05167 v 3.44419 c 0,0.731975 -0.181796,1.210431 -0.487204,1.526653 0.315175,-0.401593 0.43553,-0.939588 0.43553,-1.629905 z m -8.245572,4.919217 h 0.730809 l -0.162406,0.435136 h -0.398623 z"
         id="path15" /><path
         id="LED"
         style="fill:#ffffff;fill-opacity={{overflow}}"
         style="fill:#ffffff"
         d="m 53.492188,10.539062 a 1.9999999,1.9981707 0 0 0 -1.990235,2.00586 1.9999999,1.9981707 0 0 0 2.003906,1.992187 1.9999999,1.9981707 0 0 0 1.996094,-1.998047 v -0.01562 a 1.9999999,1.9981707 0 0 0 -2.009765,-1.98438 z M 54.498047,11 A 0.5,0.5 0 0 1 55,11.496094 V 11.5 A 0.5,0.5 0 0 1 54.5,12 0.5,0.5 0 0 1 54,11.501953 0.5,0.5 0 0 1 54.498047,11 Z" /></g><path
       id="path1"
       style="font-size:1.41111px;line-height:1.1;font-family:mry_KacstQurn;-inkscape-font-specification:mry_KacstQurn;text-align:center;letter-spacing:0px;baseline-shift:baseline;text-anchor:middle;display:inline;overflow:visible;vector-effect:none;fill:#ffffff;stroke-miterlimit:0;enable-background:accumulate;stop-color:#000000"
       d="M 27.4314 13.732495 L 27.298592 13.863236 L 27.298592 14.023433 L 27.369388 14.093713 L 27.298592 14.163993 L 27.298592 14.42961 C 27.292792 14.326087 27.275483 14.226493 27.216943 14.150557 C 27.149283 14.062957 27.038935 14.013615 26.927555 14.013615 C 26.847835 14.013615 26.768004 14.033026 26.701212 14.074076 C 26.687042 14.082776 26.681029 14.100893 26.668139 14.111283 C 26.659039 14.103083 26.656405 14.089018 26.646435 14.081828 C 26.583315 14.036358 26.505661 14.013615 26.427844 14.013615 C 26.354404 14.013615 26.281493 14.029218 26.218554 14.064258 C 26.217354 14.06494 26.216137 14.065625 26.214937 14.066325 L 26.179797 14.031185 L 26.052673 14.031185 L 25.919864 14.163993 L 25.919864 14.418241 C 25.912264 14.31655 25.898489 14.217426 25.837699 14.144356 C 25.765369 14.056686 25.651463 14.013615 25.535392 14.013615 C 25.462802 14.013615 25.390784 14.029478 25.328169 14.064258 L 25.326102 14.064258 L 25.326102 14.064774 L 25.325585 14.064774 L 25.325069 14.065291 C 25.324437 14.065967 25.323633 14.067201 25.323002 14.067875 L 25.322485 14.068392 L 25.285278 14.031185 L 25.158154 14.031185 L 25.052734 14.136605 L 24.970568 14.031185 L 24.843961 14.031185 L 24.71477 14.13092 L 24.683764 14.246159 L 24.654309 14.13092 L 24.527185 14.031185 L 24.376806 14.031185 L 24.250199 14.13092 L 24.218676 14.246159 L 24.189221 14.13092 L 24.060546 14.031185 L 23.933422 14.031185 L 23.810432 14.191382 C 23.805032 14.184482 23.808481 14.17266 23.802681 14.16606 C 23.714481 14.065622 23.582437 14.013615 23.44353 14.013615 C 23.304286 14.013615 23.172174 14.065506 23.083862 14.16606 C 23.045552 14.21 23.049515 14.278714 23.029085 14.334009 C 23.012385 14.177716 22.9828 14.027187 22.877156 13.933516 C 22.748955 13.819208 22.567287 13.775386 22.34954 13.775386 L 22.064286 13.775386 L 21.931477 13.908195 L 21.931477 14.935522 L 22.064286 15.068331 L 22.34954 15.068331 C 22.566454 15.068331 22.746705 15.024114 22.875089 14.910201 C 22.949419 14.844251 22.953424 14.72678 22.982576 14.627014 C 22.995146 14.740994 23.0137 14.854529 23.083862 14.935522 C 23.172172 15.036078 23.304284 15.087968 23.44353 15.087968 C 23.582439 15.087968 23.714479 15.035966 23.802681 14.935522 C 23.878691 14.848422 23.90285 14.728302 23.912235 14.603759 L 24.007836 14.968595 L 24.136511 15.068331 L 24.285339 15.068331 L 24.414013 14.968595 L 24.453287 14.824418 L 24.489978 14.968595 L 24.619169 15.068331 L 24.76748 15.068331 L 24.896671 14.968595 L 25.025345 14.474568 L 25.025345 14.935522 L 25.158154 15.068331 L 25.285278 15.068331 L 25.418086 14.935522 L 25.418086 14.49989 C 25.418086 14.44769 25.427201 14.425533 25.441341 14.409973 C 25.455331 14.394513 25.465616 14.388786 25.505936 14.388786 C 25.520366 14.388786 25.52616 14.389169 25.528157 14.389819 L 25.528674 14.389819 L 25.528674 14.390336 L 25.528674 14.390853 L 25.528674 14.391369 L 25.528674 14.391886 L 25.529191 14.391886 L 25.529191 14.392403 C 25.531091 14.394803 25.544694 14.418728 25.544694 14.474568 L 25.544694 14.935522 L 25.677502 15.068331 L 25.804626 15.068331 L 25.927616 14.943274 L 26.052673 15.068331 L 26.179797 15.068331 L 26.312605 14.935522 L 26.312605 14.49989 C 26.312605 14.44747 26.32242 14.423833 26.33586 14.408423 C 26.34975 14.392363 26.355897 14.388786 26.390637 14.388786 C 26.40231 14.388786 26.404887 14.388323 26.405623 14.388269 C 26.405264 14.388278 26.404849 14.388757 26.404589 14.388786 L 26.40614 14.388786 C 26.405925 14.388496 26.420092 14.415668 26.420092 14.474568 L 26.420092 14.935522 L 26.550834 15.068331 L 26.679508 15.068331 L 26.810766 14.935522 L 26.810766 14.49989 C 26.810766 14.44688 26.822778 14.423663 26.836088 14.408423 C 26.849448 14.393133 26.856025 14.388786 26.892415 14.388786 C 26.898237 14.388786 26.902083 14.388859 26.9043 14.388786 C 26.904899 14.389606 26.918253 14.416218 26.918253 14.474568 L 26.918253 14.935522 L 27.051061 15.068331 L 27.177669 15.068331 L 27.304793 14.941207 L 27.431917 15.068331 L 27.558524 15.068331 L 27.671695 14.953092 L 27.730607 15.068331 L 27.880985 15.068331 L 27.986405 15.015621 L 28.105261 14.855424 L 28.222566 15.015621 L 28.330053 15.068331 L 28.478365 15.068331 L 28.585851 14.857491 L 28.34969 14.539164 L 28.570349 14.244092 L 28.464929 14.031185 L 28.31455 14.031185 L 28.20913 14.085962 L 28.109395 14.216703 L 28.011726 14.085962 L 27.906306 14.031185 L 27.755928 14.031185 L 27.689265 14.163993 L 27.621053 14.093713 L 27.689265 14.023433 L 27.689265 13.863236 L 27.558524 13.732495 L 27.4314 13.732495 z M 22.336104 14.154175 L 22.371244 14.154175 C 22.493203 14.154175 22.558185 14.182106 22.589835 14.213086 C 22.621765 14.243906 22.650297 14.30315 22.650297 14.419791 C 22.650297 14.537488 22.621895 14.599467 22.589835 14.630631 C 22.558185 14.661621 22.493204 14.689542 22.371244 14.689542 L 22.336104 14.689542 L 22.336104 14.154175 z M 27.689265 14.296801 L 27.865482 14.532963 L 27.689265 14.769641 L 27.689265 14.296801 z M 23.44353 14.384651 C 23.47594 14.384651 23.480097 14.3873 23.498307 14.41204 C 23.516257 14.43625 23.53138 14.478181 23.53138 14.550533 C 23.53138 14.623433 23.516147 14.665473 23.498307 14.689542 C 23.480277 14.713862 23.47626 14.716931 23.44353 14.716931 C 23.40913 14.716931 23.406323 14.712982 23.388753 14.689542 C 23.371523 14.665472 23.35568 14.623245 23.35568 14.550533 C 23.35568 14.477073 23.371383 14.435266 23.388753 14.41204 C 23.406633 14.38792 23.41011 14.384651 23.44353 14.384651 z " /></g></svg>
