<?xml version="1.0" encoding="UTF-8" standalone="no"?>
<!-- Created with Inkscape (http://www.inkscape.org/) -->

<svg
   width="128"
   height="64"
   viewBox="0 0 33.866666 16.933333"
   version="1.1"
   id="svg1"
   xml:space="preserve"
   inkscape:export-filename="vu2up1309"
   inkscape:export-xdpi="90"
   inkscape:export-ydpi="90"
   inkscape:version="1.4.2 (2aeb623e1d, 2025-05-12)"
   sodipodi:docname="vuaio.svg"
   xmlns:inkscape="http://www.inkscape.org/namespaces/inkscape"
   xmlns:sodipodi="http://sodipodi.sourceforge.net/DTD/sodipodi-0.dtd"
   xmlns="http://www.w3.org/2000/svg"
   xmlns:svg="http://www.w3.org/2000/svg"><sodipodi:namedview
     id="namedview1"
     pagecolor="#ffffff"
     bordercolor="#666666"
     borderopacity="1.0"
     inkscape:showpageshadow="false"
     inkscape:pageopacity="0.0"
     inkscape:pagecheckerboard="0"
     inkscape:deskcolor="#d1d1d1"
     inkscape:document-units="px"
     inkscape:zoom="3.6314718"
     inkscape:cx="25.471766"
     inkscape:cy="-40.754826"
     inkscape:window-width="1920"
     inkscape:window-height="1009"
     inkscape:window-x="0"
     inkscape:window-y="32"
     inkscape:window-maximized="1"
     inkscape:current-layer="layer1"
     showgrid="false" /><defs
     id="defs1" /><g
     inkscape:label="Layer 1"
     inkscape:groupmode="layer"
     id="layer1"><rect
       style="fill:#000000;fill-opacity:1;stroke-width:0.79375;stroke-linejoin:round;stroke-miterlimit:0"
       id="backer"
       width="33.866665"
       height="16.933332"
       x="5.567627e-07"
       y="2.7838135e-07"
       sodipodi:insensitive="true" /><path
       id="meter-R"
       style="baseline-shift:baseline;display:inline;overflow:visible;opacity:1;vector-effect:none;fill:#ffffff;stroke-linejoin:round;stroke-miterlimit:0;enable-background:accumulate;stop-color:#000000;stop-opacity:1"
       d="M 17.595309,0.79375095 A 0.13230472,0.13230472 0 0 0 17.462501,0.92655934 V 16.272393 a 0.13230472,0.13230472 0 0 0 0.132808,0.132808 h 15.345834 a 0.13230472,0.13230472 0 0 0 0.132808,-0.132808 V 0.92655934 A 0.13230472,0.13230472 0 0 0 32.941143,0.79375095 Z m 0.133325,0.26613365 h 15.0797 V 12.171868 H 17.77721 v 0.26355 h 15.031124 v 0.265617 H 17.77721 v 0.265617 h 15.031124 v 3.172932 h -15.0797 z m 13.493234,0.5286499 v 0.5291666 h -0.529167 v 0.2645834 h 0.529167 v 0.5291666 h 0.264583 V 2.3822845 h 0.529167 V 2.1177011 H 31.486451 V 1.5885345 Z M 18.257284,2.1177011 v 0.2645834 h 1.322917 V 2.1177011 Z m 9.323463,0.2645834 c -0.159819,0 -0.281451,0.053134 -0.364319,0.1596801 -0.08139,0.1050657 -0.121957,0.2758618 -0.121957,0.5126302 0,0.2426874 0.04343,0.4145877 0.130742,0.515214 0.07843,0.090268 0.197195,0.1353923 0.355534,0.1353923 0.321117,0 0.481624,-0.2198901 0.481624,-0.6593913 0,-0.4424607 -0.160507,-0.6635253 -0.481624,-0.6635253 z m -0.0067,0.1333251 c 0.122823,0 0.21138,0.040567 0.266133,0.1219564 0.05623,0.079909 0.08475,0.2227053 0.08475,0.4283976 0,0.1982934 -0.02683,0.3342537 -0.0801,0.4082438 -0.05179,0.07251 -0.142042,0.1090373 -0.270784,0.1090373 -0.127264,0 -0.216924,-0.04395 -0.268718,-0.1312581 -0.04292,-0.078429 -0.06408,-0.2046884 -0.06408,-0.379305 0,-0.2027326 0.02403,-0.3461159 0.07286,-0.4304647 0.05032,-0.084348 0.13711,-0.1266073 0.259933,-0.1266073 z m 3.911906,0.6614584 c -0.436809,0 -0.792717,0.3559074 -0.792717,0.7927164 0,0.436809 0.355908,0.7927165 0.792717,0.7927165 0.436809,0 0.7953,-0.3559075 0.7953,-0.7927165 0,-0.436809 -0.358491,-0.7927165 -0.7953,-0.7927164 z M 20.46025,3.4406178 c -0.159818,0 -0.28145,0.053134 -0.364318,0.1596801 -0.08139,0.1050657 -0.121957,0.2758618 -0.121957,0.5126302 0,0.2426874 0.04395,0.4145878 0.131258,0.5152141 0.07843,0.090268 0.196679,0.1353922 0.355017,0.1353922 0.321117,0 0.481625,-0.2198901 0.481625,-0.6593913 0,-0.4424607 -0.160508,-0.6635253 -0.481625,-0.6635253 z m 11.025685,0 c 0.293818,0 0.529683,0.2353489 0.529683,0.5291666 0,0.2938177 -0.235865,0.5291667 -0.529683,0.5291667 -0.293817,0 -0.529167,-0.235349 -0.529167,-0.5291667 0,-0.2938177 0.23535,-0.5291666 0.529167,-0.5291666 z m -12.137761,0.031006 c -0.167218,0 -0.286571,0.023443 -0.357601,0.070797 -0.113945,0.076949 -0.171049,0.202034 -0.171049,0.3751709 0,0.053272 0.02337,0.080099 0.06925,0.080099 0.04587,0 0.06873,-0.022269 0.06873,-0.066663 0,-0.1021063 0.02285,-0.1786836 0.06873,-0.2304769 0.06067,-0.068071 0.164075,-0.1023193 0.310575,-0.1023193 0.214571,0 0.321944,0.078269 0.321944,0.2351277 0,0.081389 -0.03829,0.1448123 -0.115238,0.1906861 -0.03995,0.029594 -0.127338,0.060978 -0.262,0.093534 -0.133183,0.032554 -0.222256,0.061143 -0.26665,0.0863 -0.152424,0.088787 -0.228414,0.2423886 -0.228414,0.4599196 l 0.0021,0.099735 h 0.974617 c 0.04291,0 0.0646,-0.023961 0.0646,-0.071313 0,-0.045874 -0.02741,-0.06873 -0.08216,-0.06873 h -0.810289 c 0,-0.1302226 0.03888,-0.2256156 0.117305,-0.2862875 0.05179,-0.039955 0.148291,-0.075377 0.288872,-0.1064534 0.14502,-0.041435 0.24497,-0.078548 0.299723,-0.1111043 0.09767,-0.069551 0.146244,-0.1695008 0.146244,-0.2997233 0,-0.1109849 -0.0463,-0.1995425 -0.139526,-0.2661336 -0.07695,-0.054753 -0.1769,-0.082166 -0.299723,-0.082165 z m 2.675289,0.011369 v 0.179834 h 0.179317 v -0.179834 z m 1.794206,0 v 0.179834 h 0.179317 v -0.179834 z m 1.794205,0 v 0.179834 h 0.179317 v -0.179834 z m 3.588412,0 v 0.179834 h 0.179317 v -0.179834 z m -8.746754,0.090951 c 0.122824,0 0.211381,0.040567 0.266134,0.1219563 0.05623,0.079909 0.08475,0.2227054 0.08475,0.4283977 0,0.1982934 -0.02683,0.3342537 -0.0801,0.4082438 -0.05179,0.07251 -0.142042,0.1090372 -0.270784,0.1090372 -0.127263,0 -0.216925,-0.04395 -0.268718,-0.1312581 -0.04291,-0.078429 -0.06408,-0.2046884 -0.06408,-0.379305 0,-0.2027326 0.02403,-0.3461159 0.07286,-0.4304647 0.05031,-0.084348 0.137109,-0.1266072 0.259933,-0.1266072 z m 4.815727,0.4542358 c -2.459004,0 -4.697344,0.7790094 -6.344315,2.0494873 v 0.337447 c 1.6098,-1.3083571 3.854086,-2.1228677 6.344315,-2.1228677 2.490071,0 4.733999,0.8141407 6.343283,2.122351 V 6.0766325 C 29.965693,4.8067489 27.727616,4.0281788 25.269259,4.0281796 Z" /><path
       style="font-size:2.23037px;line-height:1.1;font-family:mry_KacstQurn;-inkscape-font-specification:mry_KacstQurn;text-align:center;letter-spacing:0px;baseline-shift:baseline;text-anchor:middle;display:inline;overflow:visible;vector-effect:none;fill:#ffffff;stroke-miterlimit:0;enable-background:accumulate;stop-color:#000000;stop-opacity:1;opacity:1"
       d="m 23.794922,8.3808594 -0.09766,0.1425781 0.621093,1.6250005 0.09766,0.06836 h 0.248046 l 0.09766,-0.06836 0.621093,-1.6250005 -0.09766,-0.1425781 h -0.228515 l -0.09766,0.068359 -0.419922,1.109375 -0.416015,-1.109375 -0.09766,-0.068359 z m 1.701172,0 -0.103516,0.1054687 v 1.015625 c 0,0.2291874 0.05728,0.4200153 0.185547,0.5527349 0.128984,0.132542 0.317201,0.193359 0.541016,0.193359 0.223154,0 0.410814,-0.06066 0.539062,-0.193359 0.129081,-0.1326426 0.1875,-0.3234282 0.1875,-0.5527349 V 8.4863281 L 26.742187,8.3808594 h -0.220703 l -0.105468,0.1054687 v 0.9882813 c 0,0.1606474 -0.032,0.2611746 -0.07031,0.3085937 -0.03881,0.046836 -0.104574,0.078125 -0.226562,0.078125 -0.121536,0 -0.185782,-0.030317 -0.22461,-0.076172 v -0.00195 C 25.856219,9.735785 25.822266,9.6352595 25.822266,9.4746094 V 8.4863281 L 25.71875,8.3808594 Z m -1.548828,0.2089844 h 0.0059 l 0.34375,0.9179687 z m 1.18164,0 h 0.0059 l -0.498047,1.3027343 -0.04297,0.1152349 h -0.105469 l -0.04492,-0.1152349 h 0.19336 z m 0.472656,0 h 0.01172 v 0.8847656 c 0,0.1835899 0.03298,0.3271364 0.117188,0.4335937 -3.69e-4,-3.753e-4 -0.0016,3.768e-4 -0.002,0 -0.08083,-0.083638 -0.126954,-0.2114348 -0.126954,-0.40625 z m 1.023438,0 h 0.01172 v 0.9121093 c 0,0.1946959 -0.04548,0.3225346 -0.126953,0.40625 h -0.002 C 26.592022,9.8017458 26.625,9.6581993 26.625,9.4746094 Z"
       id="text9" /><path
       id="path1"
       style="font-size:1.41111px;line-height:1.1;font-family:mry_KacstQurn;-inkscape-font-specification:mry_KacstQurn;text-align:center;letter-spacing:0px;baseline-shift:baseline;text-anchor:middle;display:inline;overflow:visible;vector-effect:none;fill:#ffffff;stroke-miterlimit:0;enable-background:accumulate;stop-color:#000000"
       d="M 27.4314 13.732495 L 27.298592 13.863236 L 27.298592 14.023433 L 27.369388 14.093713 L 27.298592 14.163993 L 27.298592 14.42961 C 27.292792 14.326087 27.275483 14.226493 27.216943 14.150557 C 27.149283 14.062957 27.038935 14.013615 26.927555 14.013615 C 26.847835 14.013615 26.768004 14.033026 26.701212 14.074076 C 26.687042 14.082776 26.681029 14.100893 26.668139 14.111283 C 26.659039 14.103083 26.656405 14.089018 26.646435 14.081828 C 26.583315 14.036358 26.505661 14.013615 26.427844 14.013615 C 26.354404 14.013615 26.281493 14.029218 26.218554 14.064258 C 26.217354 14.06494 26.216137 14.065625 26.214937 14.066325 L 26.179797 14.031185 L 26.052673 14.031185 L 25.919864 14.163993 L 25.919864 14.418241 C 25.912264 14.31655 25.898489 14.217426 25.837699 14.144356 C 25.765369 14.056686 25.651463 14.013615 25.535392 14.013615 C 25.462802 14.013615 25.390784 14.029478 25.328169 14.064258 L 25.326102 14.064258 L 25.326102 14.064774 L 25.325585 14.064774 L 25.325069 14.065291 C 25.324437 14.065967 25.323633 14.067201 25.323002 14.067875 L 25.322485 14.068392 L 25.285278 14.031185 L 25.158154 14.031185 L 25.052734 14.136605 L 24.970568 14.031185 L 24.843961 14.031185 L 24.71477 14.13092 L 24.683764 14.246159 L 24.654309 14.13092 L 24.527185 14.031185 L 24.376806 14.031185 L 24.250199 14.13092 L 24.218676 14.246159 L 24.189221 14.13092 L 24.060546 14.031185 L 23.933422 14.031185 L 23.810432 14.191382 C 23.805032 14.184482 23.808481 14.17266 23.802681 14.16606 C 23.714481 14.065622 23.582437 14.013615 23.44353 14.013615 C 23.304286 14.013615 23.172174 14.065506 23.083862 14.16606 C 23.045552 14.21 23.049515 14.278714 23.029085 14.334009 C 23.012385 14.177716 22.9828 14.027187 22.877156 13.933516 C 22.748955 13.819208 22.567287 13.775386 22.34954 13.775386 L 22.064286 13.775386 L 21.931477 13.908195 L 21.931477 14.935522 L 22.064286 15.068331 L 22.34954 15.068331 C 22.566454 15.068331 22.746705 15.024114 22.875089 14.910201 C 22.949419 14.844251 22.953424 14.72678 22.982576 14.627014 C 22.995146 14.740994 23.0137 14.854529 23.083862 14.935522 C 23.172172 15.036078 23.304284 15.087968 23.44353 15.087968 C 23.582439 15.087968 23.714479 15.035966 23.802681 14.935522 C 23.878691 14.848422 23.90285 14.728302 23.912235 14.603759 L 24.007836 14.968595 L 24.136511 15.068331 L 24.285339 15.068331 L 24.414013 14.968595 L 24.453287 14.824418 L 24.489978 14.968595 L 24.619169 15.068331 L 24.76748 15.068331 L 24.896671 14.968595 L 25.025345 14.474568 L 25.025345 14.935522 L 25.158154 15.068331 L 25.285278 15.068331 L 25.418086 14.935522 L 25.418086 14.49989 C 25.418086 14.44769 25.427201 14.425533 25.441341 14.409973 C 25.455331 14.394513 25.465616 14.388786 25.505936 14.388786 C 25.520366 14.388786 25.52616 14.389169 25.528157 14.389819 L 25.528674 14.389819 L 25.528674 14.390336 L 25.528674 14.390853 L 25.528674 14.391369 L 25.528674 14.391886 L 25.529191 14.391886 L 25.529191 14.392403 C 25.531091 14.394803 25.544694 14.418728 25.544694 14.474568 L 25.544694 14.935522 L 25.677502 15.068331 L 25.804626 15.068331 L 25.927616 14.943274 L 26.052673 15.068331 L 26.179797 15.068331 L 26.312605 14.935522 L 26.312605 14.49989 C 26.312605 14.44747 26.32242 14.423833 26.33586 14.408423 C 26.34975 14.392363 26.355897 14.388786 26.390637 14.388786 C 26.40231 14.388786 26.404887 14.388323 26.405623 14.388269 C 26.405264 14.388278 26.404849 14.388757 26.404589 14.388786 L 26.40614 14.388786 C 26.405925 14.388496 26.420092 14.415668 26.420092 14.474568 L 26.420092 14.935522 L 26.550834 15.068331 L 26.679508 15.068331 L 26.810766 14.935522 L 26.810766 14.49989 C 26.810766 14.44688 26.822778 14.423663 26.836088 14.408423 C 26.849448 14.393133 26.856025 14.388786 26.892415 14.388786 C 26.898237 14.388786 26.902083 14.388859 26.9043 14.388786 C 26.904899 14.389606 26.918253 14.416218 26.918253 14.474568 L 26.918253 14.935522 L 27.051061 15.068331 L 27.177669 15.068331 L 27.304793 14.941207 L 27.431917 15.068331 L 27.558524 15.068331 L 27.671695 14.953092 L 27.730607 15.068331 L 27.880985 15.068331 L 27.986405 15.015621 L 28.105261 14.855424 L 28.222566 15.015621 L 28.330053 15.068331 L 28.478365 15.068331 L 28.585851 14.857491 L 28.34969 14.539164 L 28.570349 14.244092 L 28.464929 14.031185 L 28.31455 14.031185 L 28.20913 14.085962 L 28.109395 14.216703 L 28.011726 14.085962 L 27.906306 14.031185 L 27.755928 14.031185 L 27.689265 14.163993 L 27.621053 14.093713 L 27.689265 14.023433 L 27.689265 13.863236 L 27.558524 13.732495 L 27.4314 13.732495 z M 22.336104 14.154175 L 22.371244 14.154175 C 22.493203 14.154175 22.558185 14.182106 22.589835 14.213086 C 22.621765 14.243906 22.650297 14.30315 22.650297 14.419791 C 22.650297 14.537488 22.621895 14.599467 22.589835 14.630631 C 22.558185 14.661621 22.493204 14.689542 22.371244 14.689542 L 22.336104 14.689542 L 22.336104 14.154175 z M 27.689265 14.296801 L 27.865482 14.532963 L 27.689265 14.769641 L 27.689265 14.296801 z M 23.44353 14.384651 C 23.47594 14.384651 23.480097 14.3873 23.498307 14.41204 C 23.516257 14.43625 23.53138 14.478181 23.53138 14.550533 C 23.53138 14.623433 23.516147 14.665473 23.498307 14.689542 C 23.480277 14.713862 23.47626 14.716931 23.44353 14.716931 C 23.40913 14.716931 23.406323 14.712982 23.388753 14.689542 C 23.371523 14.665472 23.35568 14.623245 23.35568 14.550533 C 23.35568 14.477073 23.371383 14.435266 23.388753 14.41204 C 23.406633 14.38792 23.41011 14.384651 23.44353 14.384651 z " /></g></svg>
