<?xml version="1.0" encoding="UTF-8" standalone="no"?>
<!-- Created with Inkscape (http://www.inkscape.org/) -->

<svg
   width="128"
   height="64"
   viewBox="0 0 128 64"
   version="1.1"
   id="svg1"
   xml:space="preserve"
   xmlns="http://www.w3.org/2000/svg"
   xmlns:svg="http://www.w3.org/2000/svg">
<rect
   style="fill:#000203;fill-opacity:1;stroke:none;stroke-width:1;stroke-linecap:round;stroke-linejoin:round;stroke-dasharray:none;stroke-opacity:1"
   id="rect7"
   width="128"
   height="64"
   x="0"
   y="0" /><g
   id="g1"><rect
     style="fill:#000000;fill-opacity:1;stroke-width:100;stroke-linecap:round;stroke-linejoin:round"
     id="rect6"
     width="51"
     height="27"
     x="3.7727261"
     y="11.948603" /><path
     id="rect9"
     style="fill:#ffffff;fill-opacity:1;stroke:#ffffff;stroke-width:0.3;stroke-linecap:round;stroke-linejoin:round;stroke-dasharray:none;stroke-opacity:1"
     d="m 18.254015,14 c -0.302223,0 -0.545581,0.07793 -0.730469,0.234375 -0.184889,0.152888 -0.320917,0.376413 -0.40625,0.667969 -0.08178,0.291555 -0.121094,0.642242 -0.121094,1.054687 0,0.615111 0.100068,1.096868 0.302734,1.445313 0.206222,0.344888 0.524856,0.517578 0.955079,0.517578 0.305776,0 0.551439,-0.07793 0.736328,-0.234375 0.184888,-0.156445 0.318964,-0.38032 0.404296,-0.671875 0.08533,-0.295111 0.128907,-0.647752 0.128907,-1.056641 0,-0.618667 -0.104675,-1.09812 -0.314453,-1.439453 C 18.999315,14.172689 18.680681,14 18.254015,14 Z m 22,0 c -0.302223,0 -0.54558,0.07793 -0.730469,0.234375 -0.184889,0.152889 -0.32092,0.376414 -0.40625,0.667969 -0.08178,0.291554 -0.121094,0.642242 -0.121094,1.054687 0,0.615111 0.100067,1.096868 0.302734,1.445313 0.206222,0.344889 0.524856,0.517578 0.955079,0.517578 0.305777,0 0.551439,-0.07793 0.736328,-0.234375 0.184889,-0.156445 0.318967,-0.38032 0.404296,-0.671875 0.08533,-0.295111 0.128907,-0.647752 0.128907,-1.056641 0,-0.618667 -0.104675,-1.09812 -0.314453,-1.439453 C 40.999316,14.172689 40.680681,14 40.254015,14 Z m -25.103516,0.0059 c -0.241778,0 -0.460695,0.04392 -0.65625,0.132813 -0.192,0.08533 -0.362386,0.190008 -0.511719,0.314453 l 0.25,0.314453 c 0.145777,-0.113778 0.289067,-0.201625 0.427735,-0.265625 0.142222,-0.064 0.305345,-0.0957 0.490234,-0.0957 0.199111,0 0.35993,0.05384 0.484375,0.164062 0.124444,0.106667 0.1875,0.264832 0.1875,0.47461 0,0.170666 -0.03401,0.328831 -0.101563,0.474609 -0.06755,0.142222 -0.167272,0.288167 -0.298828,0.4375 -0.131555,0.149333 -0.292375,0.321672 -0.484375,0.513672 l -0.998047,1.007812 v 0.388672 h 2.517578 V 17.44145 h -1.925781 v -0.02148 l 0.794922,-0.785157 c 0.195556,-0.192 0.365942,-0.371951 0.511719,-0.539062 0.145778,-0.170667 0.260019,-0.341403 0.341797,-0.515625 0.08178,-0.174222 0.123047,-0.361436 0.123047,-0.560547 0,-0.316445 -0.104325,-0.56441 -0.310547,-0.742187 -0.206222,-0.181382 -0.486242,-0.271533 -0.841797,-0.271533 z m 3.103516,0.394531 c 0.284444,0 0.486533,0.129117 0.607421,0.388672 0.124445,0.259556 0.1875,0.648858 0.1875,1.167969 0,0.526221 -0.06305,0.920132 -0.1875,1.179687 -0.120888,0.256001 -0.322977,0.382813 -0.607421,0.382813 -0.288,0 -0.492392,-0.129117 -0.613282,-0.388672 -0.117332,-0.259555 -0.175781,-0.651162 -0.175781,-1.173828 0,-0.519111 0.05845,-0.908413 0.175781,-1.167969 0.12089,-0.259555 0.325282,-0.388672 0.613282,-0.388672 z m 22,0 c 0.284444,0 0.486532,0.129117 0.607421,0.388672 0.124447,0.259555 0.1875,0.648858 0.1875,1.167969 0,0.526221 -0.06306,0.920132 -0.1875,1.179687 -0.120889,0.255999 -0.322976,0.382813 -0.607421,0.382813 -0.288001,0 -0.492393,-0.129117 -0.613282,-0.388672 -0.117329,-0.259555 -0.175781,-0.651162 -0.175781,-1.173828 0,-0.519111 0.05845,-0.908414 0.175781,-1.167969 0.120889,-0.259555 0.325283,-0.388672 0.613282,-0.388672 z m -16.661154,1.222657 c -0.4137,0.0022 -0.747594,0.338253 -0.746094,0.751953 0.0015,0.4137 0.338353,0.748747 0.751953,0.748047 0.4137,-8e-4 0.748047,-0.3364 0.748047,-0.75 v -0.0059 c -0.0031,-0.4137 -0.340206,-0.74644 -0.753906,-0.74414 z m 5.658645,0 c -0.4137,0.0022 -0.747594,0.338253 -0.746094,0.751953 0.0015,0.4137 0.338353,0.748747 0.751953,0.748047 0.4137,-8e-4 0.748047,-0.3364 0.748047,-0.75 v -0.0059 c -0.0031,-0.4137 -0.340206,-0.74644 -0.753906,-0.74414 z m 5.162665,0 c -0.4137,0.0022 -0.747594,0.338253 -0.746094,0.751953 0.0015,0.4137 0.338353,0.748747 0.751953,0.748047 0.4137,-8e-4 0.748047,-0.3364 0.748047,-0.75 v -0.0059 c -0.0031,-0.4137 -0.340206,-0.74644 -0.753906,-0.74414 z m 10.380859,0 c -0.41345,0.0022 -0.747176,0.338498 -0.746094,0.751953 0.0011,0.413451 0.336548,0.748048 0.75,0.748047 0.414214,0 0.75,-0.335786 0.75,-0.75 v -0.0059 c -0.0032,-0.413451 -0.340448,-0.746306 -0.753906,-0.74414 z m 4.978515,3.078125 v 1 h -1 v 1 h 1 v 1 h 1 v -1 h 1 v -1 h -1 v -1 z m -42.9999989,1 v 1 h 3.0000002 v -1 z m 22.6582029,0.04297 v 3.5 0.302735 c -0.920317,0.0026 -1.837059,0.01294 -2.75,0.0293 v -3.384766 h -1 v 3.404297 c -0.92072,0.02159 -1.837465,0.05054 -2.75,0.08594 v -2.9375 h -1 v 2.978516 c -0.921155,0.04091 -1.837903,0.08977 -2.75,0.144531 v -2.675781 h -1 v 2.738281 c -0.921634,0.06062 -1.838374,0.128593 -2.75,0.203125 v -2.388672 h -1 v 2.472657 c -1.775444,0.155611 -3.530094,0.337838 -5.2636715,0.544921 v 1.011719 C 15.661262,24.992096 22.467413,24.56862 29.48253,24.55083 c 6.779821,-0.01719 13.373261,0.346876 19.685547,1.046875 v -1.013672 c -1.234841,-0.13593 -2.481053,-0.259221 -3.736328,-0.36914 v -2.470704 h -1 v 2.386719 c -0.911676,-0.07445 -1.82844,-0.142634 -2.75,-0.203125 v -2.736328 h -1 v 2.673828 c -0.91216,-0.05463 -1.82891,-0.101815 -2.75,-0.142578 v -2.978516 h -1 v 2.935547 c -0.912601,-0.03525 -1.829347,-0.06253 -2.75,-0.08398 v -3.404297 h -1 v 3.382812 c -0.91301,-0.01622 -1.829753,-0.02489 -2.75,-0.02734 v -3.802735 z m -5.238281,6.726563 2.111328,5.671875 h 0.976562 l 2.144531,-5.671875 h -1.015624 l -1.591797,4.416015 -1.583985,-4.416015 z m 5.927734,0 v 3.695312 c 0,0.661334 0.19713,1.176922 0.591797,1.544922 0.394667,0.368 0.902818,0.552735 1.521484,0.552735 0.618667,0 1.124865,-0.184735 1.519532,-0.552735 0.399999,-0.368 0.599609,-0.883588 0.599609,-1.544922 v -3.695312 h -0.960938 v 3.640625 c 0,0.4 -0.100067,0.706588 -0.302734,0.919922 -0.202667,0.213333 -0.487469,0.320312 -0.855469,0.320312 -0.362666,0 -0.649422,-0.106979 -0.857422,-0.320312 -0.202666,-0.218667 -0.302734,-0.525255 -0.302734,-0.919922 V 26.470703 Z M 8.1583111,32.644531 c -0.264598,0.01528 -0.5235203,0.083 -0.761718,0.199219 -0.8168352,0.397856 -1.2628569,1.296316 -1.085938,2.1875 L 9.8008893,33.351562 C 9.3950859,32.870595 8.7865782,32.608669 8.1583111,32.644531 Z m 42.2324219,0 c -0.721701,-0.04257 -1.410199,0.307648 -1.800781,0.916015 -0.490284,0.764039 -0.404476,1.762461 0.208984,2.431641 l 2.111328,-3.246093 c -0.167912,-0.05672 -0.342619,-0.09088 -0.519531,-0.101563 z m 1.357422,0.646484 -2.111328,3.246094 c 0.866637,0.290974 1.820262,-0.04271 2.316406,-0.810547 0.49337,-0.764043 0.409107,-1.764763 -0.205078,-2.435547 z M 10.234483,34.251953 6.7442491,35.93164 c 0.5896227,0.698497 1.5777828,0.90835 2.4003904,0.509766 0.8191745,-0.396791 1.2671045,-1.296666 1.0898435,-2.189453 z" /><path
     id="NEEDLE_LEFT"
   transform="rotate({{needle_left}}, 29.773437,46.603237)"
     style="fill:#ffffff;fill-opacity:1;stroke:#000000;stroke-width:0.5;stroke-linecap:round;stroke-linejoin:round;stroke-dasharray:none;stroke-opacity:1"
     d="m 29.269531,15.949219 c -0.257891,0.0015 -0.47008,0.203438 -0.484375,0.460937 L 28.390625,49.669922 H 30.15625 L 29.759766,16.410156 c -0.01442,-0.259759 -0.230081,-0.462531 -0.490235,-0.460937 z" /><path
     id="path34"
     style="baseline-shift:baseline;display:inline;overflow:visible;vector-effect:none;fill:#1f1f1f;stroke-linecap:round;stroke-linejoin:round;enable-background:accumulate;stop-color:#000000"
     d="M 4.7265625,9.3359375 C 3.2156534,9.3359375 2,10.551591 2,12.0625 v 34.544922 c 0,1.510909 1.2156534,2.728516 2.7265625,2.728516 H 53.818359 c 1.510909,-10e-7 2.726563,-1.217607 2.726563,-2.728516 V 12.0625 c 0,-1.510909 -1.215654,-2.7265625 -2.726563,-2.7265625 z M 3.7734375,11.949219 H 54.773438 v 27 H 35.132812 C 34.656541,37.199758 31.063102,35.989448 29.25,36 c -1.795688,0.01059 -5.364242,1.216559 -5.835938,2.949219 H 3.7734375 Z" /><path
     style="baseline-shift:baseline;display:inline;overflow:visible;vector-effect:none;fill:#ffffff;stroke-linecap:round;stroke-linejoin:round;enable-background:accumulate;stop-color:#000000"
     d="M 4.7265625,8.8359375 C 2.947302,8.8359375 1.5,10.28324 1.5,12.0625 v 34.544922 c 0,1.77926 1.447302,3.228515 3.2265625,3.228515 H 53.818359 c 1.779261,0 3.226563,-1.449255 3.226563,-3.228515 V 12.0625 c 0,-1.77926 -1.447302,-3.2265625 -3.226563,-3.2265625 z m 0,1 H 53.818359 c 1.242558,0 2.226563,0.9840045 2.226563,2.2265625 v 34.544922 c 0,1.242558 -0.984005,2.228515 -2.226563,2.228515 H 4.7265625 C 3.4840048,48.835937 2.5,47.84998 2.5,46.607422 V 12.0625 c 0,-1.242558 0.9840048,-2.2265625 2.2265625,-2.2265625 z"
     id="path35" /></g><g
   id="g3"><rect
     style="fill:none;fill-opacity:1;stroke:#ffffff;stroke-width:1;stroke-linecap:round;stroke-linejoin:round;stroke-dasharray:none;stroke-opacity:1"
     id="rect43"
     width="11"
     height="56"
     x="58.5"
     y="4.1910257" />
<path
     id="PEAK_18"
     style="fill:#ffffff;fill-opacity:{{peak_18}};stroke-width:0.536009"
     d="m 58,8 h 11.492234 v 2 H 58 Z"
     aria-label="peak 8 dB" />
     <path
     d="m 58,11 h 11.492234 v 2 H 58 Z"
     style="fill:#ffffff;fill-opacity:{{peak_17}};stroke-width:0.536009"
     id="PEAK_17"
     aria-label="peak 5 dB" />
     <path
     d="m 58,14 h 11.492234 v 2 H 58 Z"
     style="fill:#ffffff;fill-opacity:{{peak_16}};stroke-width:0.536009"
     id="PEAK_16"
     aria-label="peak 3 dB" />
     <path
     d="m 58,17 h 11.492234 v 2 H 58 Z"
     style="fill:#ffffff;fill-opacity:{{peak_15}};stroke-width:0.536009"
     id="PEAK_15"
     aria-label="peak 2 dB" />
     <path
     d="m 58,22 h 11.5 v 1 H 58 Z"
     style="fill:#ffffff;fill-opacity:{{peak_14}};stroke-width:0.536189"
     id="PEAK_14"
     aria-label="peak 0 dB" />
     <path
     d="m 58,24 h 11.492234 v 1 H 58 Z"
     style="fill:#ffffff;fill-opacity:{{peak_13}};stroke-width:0.536009"
     id="PEAK_13"
     aria-label="peak -1 dB" />
     <path
     d="m 58,26 h 11.492234 v 1 H 58 Z"
     style="fill:#ffffff;fill-opacity:{{peak_12}};stroke-width:0.536009"
     id="PEAK_12"
     aria-label="peak -2 dB" />
     <path
     d="m 58,28 h 11.492234 v 1 H 58 Z"
     style="fill:#ffffff;fill-opacity:{{peak_11}};stroke-width:0.536009"
     id="PEAK_11"
     aria-label="peak -3 dB" />
     <path
     d="m 58,30 h 11.492234 v 1 H 58 Z"
     style="fill:#ffffff;fill-opacity:{{peak_10}};stroke-width:0.536009"
     id="PEAK_10"
     aria-label="peak -4 dB" />
     <path
     d="m 58,32 h 11.492234 v 1 H 58 Z"
     style="fill:#ffffff;fill-opacity:{{peak_09}};stroke-width:0.536009"
     id="PEAK_09"
     aria-label="peak -5 dB" />
     <path
     d="m 58,34 h 11.492234 v 1 H 58 Z"
     style="fill:#ffffff;fill-opacity:{{peak_08}};stroke-width:0.536009"
     id="PEAK_08"
     aria-label="peak -6 dB" />
     <path
     d="m 58,36 h 11.492234 v 1 H 58 Z"
     style="fill:#ffffff;fill-opacity:{{peak_07}};stroke-width:0.536009"
     id="PEAK_07"
     aria-label="peak -7dB" />
     <path
     d="m 58,38 h 11.492234 v 1 H 58 Z"
     style="fill:#ffffff;fill-opacity:{{peak_06}};stroke-width:0.536009"
     id="PEAK_06"
     aria-label="peak -8dB" />
     <path
     d="m 58,40 h 11.492234 v 1 H 58 Z"
     style="fill:#ffffff;fill-opacity:{{peak_05}};stroke-width:0.536009"
     id="PEAK_05"
     aria-label="peak -10dB" />
     <path
     d="m 58,42 h 11.492234 v 1 H 58 Z"
     style="fill:#ffffff;fill-opacity:{{peak_04}};stroke-width:0.536009"
     id="PEAK_04"
     aria-label="peak -13dB" />
     <path
     d="m 58,44 h 11.492234 v 1 H 58 Z"
     style="fill:#ffffff;fill-opacity:{{peak_03}};stroke-width:0.536009"
     id="PEAK_03"
     aria-label="peak -17dB" />
     <path
     d="m 58,46 h 11.492234 v 1 H 58 Z"
     style="fill:#ffffff;fill-opacity:{{peak_02}};stroke-width:0.536009"
     id="PEAK_02"
     aria-label="peak -20dB" />
     <path
     d="m 58,48 h 11.492234 v 1 H 58 Z"
     style="fill:#ffffff;fill-opacity:{{peak_01}};stroke-width:0.536009"
     id="PEAK_01"
     aria-label="Peak -30 dB" />
     <path
     id="PEAK_00"
     style="fill:#ffffff;fill-opacity:{{peak_00}};stroke-width:0.536009"
     d="m 58,50 h 11.492234 v 1 H 58 Z"
     aria-label="peak -36dB" />
     </g>
<g
   id="g5"
   transform="translate(69.532934)"><rect
     style="fill:#000000;fill-opacity:1;stroke-width:100;stroke-linecap:round;stroke-linejoin:round"
     id="rect1"
     width="51"
     height="27"
     x="3.7727261"
     y="11.948603" /><path
     id="path1"
     style="fill:#ffffff;fill-opacity:1;stroke:#ffffff;stroke-width:0.3;stroke-linecap:round;stroke-linejoin:round;stroke-dasharray:none;stroke-opacity:1"
     d="m 18.254015,14 c -0.302223,0 -0.545581,0.07793 -0.730469,0.234375 -0.184889,0.152888 -0.320917,0.376413 -0.40625,0.667969 -0.08178,0.291555 -0.121094,0.642242 -0.121094,1.054687 0,0.615111 0.100068,1.096868 0.302734,1.445313 0.206222,0.344888 0.524856,0.517578 0.955079,0.517578 0.305776,0 0.551439,-0.07793 0.736328,-0.234375 0.184888,-0.156445 0.318964,-0.38032 0.404296,-0.671875 0.08533,-0.295111 0.128907,-0.647752 0.128907,-1.056641 0,-0.618667 -0.104675,-1.09812 -0.314453,-1.439453 C 18.999315,14.172689 18.680681,14 18.254015,14 Z m 22,0 c -0.302223,0 -0.54558,0.07793 -0.730469,0.234375 -0.184889,0.152889 -0.32092,0.376414 -0.40625,0.667969 -0.08178,0.291554 -0.121094,0.642242 -0.121094,1.054687 0,0.615111 0.100067,1.096868 0.302734,1.445313 0.206222,0.344889 0.524856,0.517578 0.955079,0.517578 0.305777,0 0.551439,-0.07793 0.736328,-0.234375 0.184889,-0.156445 0.318967,-0.38032 0.404296,-0.671875 0.08533,-0.295111 0.128907,-0.647752 0.128907,-1.056641 0,-0.618667 -0.104675,-1.09812 -0.314453,-1.439453 C 40.999316,14.172689 40.680681,14 40.254015,14 Z m -25.103516,0.0059 c -0.241778,0 -0.460695,0.04392 -0.65625,0.132813 -0.192,0.08533 -0.362386,0.190008 -0.511719,0.314453 l 0.25,0.314453 c 0.145777,-0.113778 0.289067,-0.201625 0.427735,-0.265625 0.142222,-0.064 0.305345,-0.0957 0.490234,-0.0957 0.199111,0 0.35993,0.05384 0.484375,0.164062 0.124444,0.106667 0.1875,0.264832 0.1875,0.47461 0,0.170666 -0.03401,0.328831 -0.101563,0.474609 -0.06755,0.142222 -0.167272,0.288167 -0.298828,0.4375 -0.131555,0.149333 -0.292375,0.321672 -0.484375,0.513672 l -0.998047,1.007812 v 0.388672 h 2.517578 V 17.44145 h -1.925781 v -0.02148 l 0.794922,-0.785157 c 0.195556,-0.192 0.365942,-0.371951 0.511719,-0.539062 0.145778,-0.170667 0.260019,-0.341403 0.341797,-0.515625 0.08178,-0.174222 0.123047,-0.361436 0.123047,-0.560547 0,-0.316445 -0.104325,-0.56441 -0.310547,-0.742187 -0.206222,-0.181382 -0.486242,-0.271533 -0.841797,-0.271533 z m 3.103516,0.394531 c 0.284444,0 0.486533,0.129117 0.607421,0.388672 0.124445,0.259556 0.1875,0.648858 0.1875,1.167969 0,0.526221 -0.06305,0.920132 -0.1875,1.179687 -0.120888,0.256001 -0.322977,0.382813 -0.607421,0.382813 -0.288,0 -0.492392,-0.129117 -0.613282,-0.388672 -0.117332,-0.259555 -0.175781,-0.651162 -0.175781,-1.173828 0,-0.519111 0.05845,-0.908413 0.175781,-1.167969 0.12089,-0.259555 0.325282,-0.388672 0.613282,-0.388672 z m 22,0 c 0.284444,0 0.486532,0.129117 0.607421,0.388672 0.124447,0.259555 0.1875,0.648858 0.1875,1.167969 0,0.526221 -0.06306,0.920132 -0.1875,1.179687 -0.120889,0.255999 -0.322976,0.382813 -0.607421,0.382813 -0.288001,0 -0.492393,-0.129117 -0.613282,-0.388672 -0.117329,-0.259555 -0.175781,-0.651162 -0.175781,-1.173828 0,-0.519111 0.05845,-0.908414 0.175781,-1.167969 0.120889,-0.259555 0.325283,-0.388672 0.613282,-0.388672 z m -16.661154,1.222657 c -0.4137,0.0022 -0.747594,0.338253 -0.746094,0.751953 0.0015,0.4137 0.338353,0.748747 0.751953,0.748047 0.4137,-8e-4 0.748047,-0.3364 0.748047,-0.75 v -0.0059 c -0.0031,-0.4137 -0.340206,-0.74644 -0.753906,-0.74414 z m 5.658645,0 c -0.4137,0.0022 -0.747594,0.338253 -0.746094,0.751953 0.0015,0.4137 0.338353,0.748747 0.751953,0.748047 0.4137,-8e-4 0.748047,-0.3364 0.748047,-0.75 v -0.0059 c -0.0031,-0.4137 -0.340206,-0.74644 -0.753906,-0.74414 z m 5.162665,0 c -0.4137,0.0022 -0.747594,0.338253 -0.746094,0.751953 0.0015,0.4137 0.338353,0.748747 0.751953,0.748047 0.4137,-8e-4 0.748047,-0.3364 0.748047,-0.75 v -0.0059 c -0.0031,-0.4137 -0.340206,-0.74644 -0.753906,-0.74414 z m 10.380859,0 c -0.41345,0.0022 -0.747176,0.338498 -0.746094,0.751953 0.0011,0.413451 0.336548,0.748048 0.75,0.748047 0.414214,0 0.75,-0.335786 0.75,-0.75 v -0.0059 c -0.0032,-0.413451 -0.340448,-0.746306 -0.753906,-0.74414 z m 4.978515,3.078125 v 1 h -1 v 1 h 1 v 1 h 1 v -1 h 1 v -1 h -1 v -1 z m -42.9999989,1 v 1 h 3.0000002 v -1 z m 22.6582029,0.04297 v 3.5 0.302735 c -0.920317,0.0026 -1.837059,0.01294 -2.75,0.0293 v -3.384766 h -1 v 3.404297 c -0.92072,0.02159 -1.837465,0.05054 -2.75,0.08594 v -2.9375 h -1 v 2.978516 c -0.921155,0.04091 -1.837903,0.08977 -2.75,0.144531 v -2.675781 h -1 v 2.738281 c -0.921634,0.06062 -1.838374,0.128593 -2.75,0.203125 v -2.388672 h -1 v 2.472657 c -1.775444,0.155611 -3.530094,0.337838 -5.2636715,0.544921 v 1.011719 C 15.661262,24.992096 22.467413,24.56862 29.48253,24.55083 c 6.779821,-0.01719 13.373261,0.346876 19.685547,1.046875 v -1.013672 c -1.234841,-0.13593 -2.481053,-0.259221 -3.736328,-0.36914 v -2.470704 h -1 v 2.386719 c -0.911676,-0.07445 -1.82844,-0.142634 -2.75,-0.203125 v -2.736328 h -1 v 2.673828 c -0.91216,-0.05463 -1.82891,-0.101815 -2.75,-0.142578 v -2.978516 h -1 v 2.935547 c -0.912601,-0.03525 -1.829347,-0.06253 -2.75,-0.08398 v -3.404297 h -1 v 3.382812 c -0.91301,-0.01622 -1.829753,-0.02489 -2.75,-0.02734 v -3.802735 z m -5.238281,6.726563 2.111328,5.671875 h 0.976562 l 2.144531,-5.671875 h -1.015624 l -1.591797,4.416015 -1.583985,-4.416015 z m 5.927734,0 v 3.695312 c 0,0.661334 0.19713,1.176922 0.591797,1.544922 0.394667,0.368 0.902818,0.552735 1.521484,0.552735 0.618667,0 1.124865,-0.184735 1.519532,-0.552735 0.399999,-0.368 0.599609,-0.883588 0.599609,-1.544922 v -3.695312 h -0.960938 v 3.640625 c 0,0.4 -0.100067,0.706588 -0.302734,0.919922 -0.202667,0.213333 -0.487469,0.320312 -0.855469,0.320312 -0.362666,0 -0.649422,-0.106979 -0.857422,-0.320312 -0.202666,-0.218667 -0.302734,-0.525255 -0.302734,-0.919922 V 26.470703 Z M 8.1583111,32.644531 c -0.264598,0.01528 -0.5235203,0.083 -0.761718,0.199219 -0.8168352,0.397856 -1.2628569,1.296316 -1.085938,2.1875 L 9.8008893,33.351562 C 9.3950859,32.870595 8.7865782,32.608669 8.1583111,32.644531 Z m 42.2324219,0 c -0.721701,-0.04257 -1.410199,0.307648 -1.800781,0.916015 -0.490284,0.764039 -0.404476,1.762461 0.208984,2.431641 l 2.111328,-3.246093 c -0.167912,-0.05672 -0.342619,-0.09088 -0.519531,-0.101563 z m 1.357422,0.646484 -2.111328,3.246094 c 0.866637,0.290974 1.820262,-0.04271 2.316406,-0.810547 0.49337,-0.764043 0.409107,-1.764763 -0.205078,-2.435547 z M 10.234483,34.251953 6.7442491,35.93164 c 0.5896227,0.698497 1.5777828,0.90835 2.4003904,0.509766 0.8191745,-0.396791 1.2671045,-1.296666 1.0898435,-2.189453 z" /><path
     id="NEEDLE_RIGHT"
   transform="rotate({{needle_right}}, 29.773437,46.603237)"
     style="fill:#ffffff;fill-opacity:1;stroke:#000000;stroke-width:0.5;stroke-linecap:round;stroke-linejoin:round;stroke-dasharray:none;stroke-opacity:1"
     d="m 29.269531,15.949219 c -0.257891,0.0015 -0.47008,0.203438 -0.484375,0.460937 L 28.390625,49.669922 H 30.15625 L 29.759766,16.410156 c -0.01442,-0.259759 -0.230081,-0.462531 -0.490235,-0.460937 z" /><path
     id="path3"
     style="baseline-shift:baseline;display:inline;overflow:visible;vector-effect:none;fill:#1f1f1f;stroke-linecap:round;stroke-linejoin:round;enable-background:accumulate;stop-color:#000000"
     d="M 4.7265625,9.3359375 C 3.2156534,9.3359375 2,10.551591 2,12.0625 v 34.544922 c 0,1.510909 1.2156534,2.728516 2.7265625,2.728516 H 53.818359 c 1.510909,-10e-7 2.726563,-1.217607 2.726563,-2.728516 V 12.0625 c 0,-1.510909 -1.215654,-2.7265625 -2.726563,-2.7265625 z M 3.7734375,11.949219 H 54.773438 v 27 H 35.132812 C 34.656541,37.199758 31.063102,35.989448 29.25,36 c -1.795688,0.01059 -5.364242,1.216559 -5.835938,2.949219 H 3.7734375 Z" /><path
     style="baseline-shift:baseline;display:inline;overflow:visible;vector-effect:none;fill:#ffffff;stroke-linecap:round;stroke-linejoin:round;enable-background:accumulate;stop-color:#000000"
     d="M 4.7265625,8.8359375 C 2.947302,8.8359375 1.5,10.28324 1.5,12.0625 v 34.544922 c 0,1.77926 1.447302,3.228515 3.2265625,3.228515 H 53.818359 c 1.779261,0 3.226563,-1.449255 3.226563,-3.228515 V 12.0625 c 0,-1.77926 -1.447302,-3.2265625 -3.226563,-3.2265625 z m 0,1 H 53.818359 c 1.242558,0 2.226563,0.9840045 2.226563,2.2265625 v 34.544922 c 0,1.242558 -0.984005,2.228515 -2.226563,2.228515 H 4.7265625 C 3.4840048,48.835937 2.5,47.84998 2.5,46.607422 V 12.0625 c 0,-1.242558 0.9840048,-2.2265625 2.2265625,-2.2265625 z"
     id="path4" /></g><path
   d="m 89.100564,58.535576 v -5.855422 h 2.493976 q 1.156626,0 1.722891,0.349398 0.578314,0.349397 0.578314,1.289156 0,1.409639 -1.554217,1.638555 0.602409,0.313253 1.301205,1.433735 l 0.722891,1.144578 h -1.421687 l -1.26506,-1.891566 q -0.192771,-0.289157 -0.433735,-0.421687 -0.228915,-0.13253 -0.722891,-0.13253 h -0.240964 v 2.445783 z m 1.180723,-3.373494 h 0.879518 q 0.891566,0 1.204819,-0.144578 0.313253,-0.156627 0.313253,-0.614458 0,-0.433735 -0.26506,-0.578314 -0.253012,-0.156626 -1.204819,-0.156626 h -0.927711 z m 4.554223,-1.445783 v -1.036145 h 1.120482 v 1.036145 z m 0,4.819277 v -4.240964 h 1.120482 v 4.240964 z m 1.951815,-0.120482 1.289156,0.156626 q 0.06024,0.433735 0.650603,0.433735 0.518072,0 0.722891,-0.204819 0.20482,-0.192771 0.20482,-0.73494 v -0.614457 q -0.506025,0.686747 -1.265061,0.686747 -0.831325,0 -1.289156,-0.626507 -0.457832,-0.626506 -0.457832,-1.518072 0,-0.879518 0.433735,-1.53012 0.433735,-0.662651 1.349398,-0.662651 0.795181,0 1.301205,0.686747 v -0.590361 h 1.048196 v 3.807229 q 0,1.228915 -0.45783,1.686747 -0.445788,0.469879 -1.554222,0.469879 -1.036144,0 -1.53012,-0.361446 -0.493976,-0.361445 -0.445783,-1.084337 z m 1,-2.481928 q 0,1.301205 0.915662,1.301205 0.975904,0 0.975904,-1.277108 0,-1.301205 -0.963856,-1.301205 -0.92771,0 -0.92771,1.277108 z m 4.963865,-3.253012 v 2.156627 q 0.55422,-0.638555 1.3012,-0.638555 0.81928,0 1.13253,0.46988 0.31326,0.457831 0.31326,1.373494 v 2.493976 h -1.12049 v -2.240964 q 0,-0.73494 -0.14457,-0.987952 -0.13253,-0.253012 -0.55422,-0.253012 -0.92771,0 -0.92771,1.361446 v 2.120482 h -1.12048 v -5.855422 z m 5.66264,1.590362 v 0.891566 h -0.75903 v 1.710843 q 0,0.518073 0.0602,0.662651 0.0602,0.144578 0.24096,0.144578 0.15663,0 0.45783,-0.108434 l 0.0964,0.86747 q -0.39759,0.168675 -0.89157,0.168675 -0.69879,0 -0.90361,-0.349398 -0.19277,-0.349397 -0.19277,-1.240963 v -1.855422 h -0.51807 v -0.891566 h 0.51807 v -0.843374 l 1.13253,-0.650602 v 1.493976 z"
   id="text1"
   style="font-size:10px;line-height:1.1;font-family:Ramabhadra;-inkscape-font-specification:Ramabhadra;text-align:center;letter-spacing:0px;word-spacing:0.0022px;text-anchor:middle;fill:#ffffff;stroke-width:0.3;stroke-linejoin:round"
   aria-label="Right" /><path
   d="m 22.224271,59.21027 v -5.855422 h 1.192771 v 4.86747 h 2.927711 v 0.987952 z m 7.32531,-1.373494 1.120482,0.192771 q -0.445784,1.253012 -1.843374,1.253012 -1.096385,0 -1.578313,-0.626506 -0.481928,-0.638554 -0.481928,-1.554217 0,-1 0.518072,-1.626506 0.530121,-0.626506 1.421687,-0.626506 2.024097,0 2.024097,2.542169 h -2.819278 q 0.06024,1.060241 0.927711,1.060241 0.542169,0 0.710844,-0.614458 z m 0.07229,-1.13253 q -0.03615,-1 -0.843374,-1 -0.831325,0 -0.831325,1 z m 1.433734,-1.73494 h 0.626506 v -0.313253 q 0,-1.39759 1.301205,-1.39759 0.481927,0 0.939759,0.144578 l -0.156627,0.783133 q -0.26506,-0.07229 -0.518072,-0.07229 -0.445783,0 -0.445783,0.554217 v 0.301205 h 0.831325 v 0.879518 H 32.802592 V 59.21027 H 31.68211 v -3.361446 h -0.626506 z m 5.168669,-0.0241 v 0.891566 h -0.759036 v 1.710843 q 0,0.518073 0.06024,0.662651 0.06024,0.144578 0.240964,0.144578 0.156626,0 0.457831,-0.108433 l 0.09639,0.867469 q -0.397591,0.168675 -0.891567,0.168675 -0.698795,0 -0.903614,-0.349398 -0.192771,-0.349397 -0.192771,-1.240963 V 55.836776 H 33.814634 V 54.94521 h 0.518073 v -0.843374 l 1.13253,-0.650602 v 1.493976 z"
   id="text2"
   style="font-size:10px;line-height:1.1;font-family:Ramabhadra;-inkscape-font-specification:Ramabhadra;text-align:center;letter-spacing:0px;word-spacing:0.0022px;text-anchor:middle;fill:#ffffff;stroke-width:0.3;stroke-linejoin:round"
   aria-label="Left" /></svg>
