<?xml version="1.0" encoding="UTF-8" standalone="no"?>
<!-- Created with Inkscape (http://www.inkscape.org/) -->

<svg
   width="127.99999"
   height="63.999996"
   viewBox="0 0 33.866664 16.933332"
   version="1.1"
   id="svg1"
   xml:space="preserve"
   inkscape:export-filename="../../home/stuart/vucombi1309.svg"
   inkscape:export-xdpi="90"
   inkscape:export-ydpi="90"
   inkscape:version="1.4.2 (2aeb623e1d, 2025-05-12)"
   sodipodi:docname="vucombi.svg"
   xmlns:inkscape="http://www.inkscape.org/namespaces/inkscape"
   xmlns:sodipodi="http://sodipodi.sourceforge.net/DTD/sodipodi-0.dtd"
   xmlns="http://www.w3.org/2000/svg"
   xmlns:svg="http://www.w3.org/2000/svg"><sodipodi:namedview
     id="namedview1"
     pagecolor="#ffffff"
     bordercolor="#666666"
     borderopacity="1.0"
     inkscape:showpageshadow="false"
     inkscape:pageopacity="0.0"
     inkscape:pagecheckerboard="0"
     inkscape:deskcolor="#d1d1d1"
     inkscape:document-units="px"
     inkscape:zoom="4.7535014"
     inkscape:cx="52.908368"
     inkscape:cy="36.183854"
     inkscape:window-width="1920"
     inkscape:window-height="1009"
     inkscape:window-x="0"
     inkscape:window-y="32"
     inkscape:window-maximized="1"
     inkscape:current-layer="layer1" /><defs
     id="defs1" /><g
     inkscape:label="Layer 1"
     inkscape:groupmode="layer"
     id="layer1"><rect
       style="fill:#000000;fill-opacity:1;stroke-width:0.79375;stroke-linejoin:round;stroke-miterlimit:0"
       id="rect1"
       width="33.866665"
       height="16.933332"
       x="5.567627e-07"
       y="2.7838135e-07" /><rect
       style="fill:none;fill-opacity:1;stroke:#ffffff;stroke-width:0.264583;stroke-linejoin:round;stroke-miterlimit:0;stroke-dasharray:none;stroke-opacity:1"
       id="rect2"
       width="15.488294"
       height="0"
       x="-8.5378971"
       y="0.79374987"
       transform="scale(-1,1)" /><path
       id="rect3"
       style="baseline-shift:baseline;display:inline;overflow:visible;opacity:1;vector-effect:none;fill:#ffffff;stroke-linejoin:round;stroke-miterlimit:0;enable-background:accumulate;stop-color:#000000;stop-opacity:1"
       d="m 0.92552488,-20.37395 a 0.13230472,0.13230472 0 0 0 -0.13280842,0.132808 v 15.3458333 a 0.13230472,0.13230472 0 0 0 0.13280842,0.132808 H 16.271358 a 0.13230472,0.13230472 0 0 0 0.132808,-0.132808 V -20.241142 a 0.13230472,0.13230472 0 0 0 -0.132808,-0.132808 z m 16.66978312,0.001 a 0.13230472,0.13230472 0 0 0 -0.132808,0.132842 v 15.3458323 a 0.13230472,0.13230472 0 0 0 0.132808,0.132809 h 15.345833 a 0.13230472,0.13230472 0 0 0 0.132809,-0.132809 V -20.240108 a 0.13230472,0.13230472 0 0 0 -0.132809,-0.132809 z M 1.0588501,-20.107817 H 16.138549 V -8.9958334 H 1.1074259 v 0.26355 H 16.138549 v 0.265617 H 1.1074259 v 0.265617 H 16.138549 v 3.1729317 H 1.0588501 Z m 16.6697829,0.001 h 15.0797 V -8.9947994 H 17.777209 v 0.263549 h 15.031124 v 0.265617 H 17.777209 v 0.265617 h 15.031124 v 3.1729327 h -15.0797 z m -3.17655,0.527617 v 0.52917 h -0.529167 v 0.264583 h 0.529167 v 0.529167 h 0.264583 v -0.529167 h 0.529167 v -0.264583 h -0.529167 v -0.529137 z m 16.669783,0.001 v 0.529166 H 30.6927 v 0.264584 h 0.529166 v 0.529166 h 0.264584 v -0.529166 h 0.529166 v -0.264517 H 31.48645 v -0.529166 z M 1.5875,-19.05 v 0.264583 H 2.9104166 V -19.05 Z m 16.669783,0.001 v 0.264583 H 19.5802 V -19.049 Z m -7.346321,0.26355 c -0.159819,0 -0.281451,0.05313 -0.364319,0.15968 -0.08139,0.105065 -0.121957,0.275862 -0.121957,0.51263 0,0.242687 0.04343,0.414588 0.130742,0.515214 0.07843,0.09027 0.197195,0.135392 0.355534,0.135392 0.321117,0 0.481624,-0.21989 0.481624,-0.659391 0,-0.442461 -0.160507,-0.663525 -0.481624,-0.663525 z m 16.669783,0.001 c -0.159819,0 -0.281451,0.05313 -0.364319,0.15968 -0.08139,0.105066 -0.121956,0.275862 -0.121956,0.51263 0,0.242687 0.04343,0.414588 0.130741,0.515214 0.07843,0.09027 0.197195,0.135392 0.355534,0.135392 0.321117,0 0.481624,-0.21989 0.481624,-0.659391 0,-0.442461 -0.160507,-0.663525 -0.481624,-0.663525 z m -16.676501,0.132291 c 0.122823,0 0.21138,0.04057 0.266133,0.121957 0.05623,0.07991 0.08475,0.222705 0.08475,0.428397 0,0.198294 -0.02683,0.334254 -0.0801,0.408244 -0.05179,0.07251 -0.142042,0.109037 -0.270784,0.109037 -0.127264,0 -0.216924,-0.04395 -0.268718,-0.131258 -0.04292,-0.07843 -0.06408,-0.204688 -0.06408,-0.379305 0,-0.202732 0.02403,-0.346116 0.07286,-0.430464 0.05032,-0.08435 0.13711,-0.126608 0.259933,-0.126608 z m 16.669783,0.001 c 0.122823,0 0.211381,0.04057 0.266134,0.121957 0.05623,0.07991 0.08475,0.222705 0.08475,0.428397 0,0.198294 -0.02683,0.334254 -0.0801,0.408244 -0.05179,0.07251 -0.142042,0.109037 -0.270784,0.109037 -0.127264,0 -0.216923,-0.04395 -0.268717,-0.131258 -0.04292,-0.07843 -0.06408,-0.204688 -0.06408,-0.379305 0,-0.202732 0.02403,-0.346116 0.07286,-0.430465 0.05032,-0.08435 0.137109,-0.126607 0.259932,-0.126607 z m -12.757877,0.660436 c -0.436809,0 -0.792717,0.355907 -0.792717,0.792716 0,0.436809 0.355908,0.792717 0.792717,0.792717 0.436809,0 0.7953,-0.355908 0.7953,-0.792717 0,-0.436809 -0.358491,-0.792716 -0.7953,-0.792716 z m 16.669783,10e-4 c -0.436809,0 -0.792717,0.355907 -0.792717,0.792716 0,0.436809 0.355908,0.792717 0.792717,0.792717 0.436809,0 0.7953,-0.355908 0.7953,-0.792717 0,-0.436809 -0.358491,-0.792716 -0.7953,-0.792716 z m -27.6954668,0.26252 c -0.1598185,0 -0.28145,0.05313 -0.3643188,0.15968 -0.081389,0.105065 -0.1219564,0.275861 -0.1219564,0.51263 0,0.242687 0.04395,0.414588 0.1312582,0.515214 0.078429,0.09027 0.1966782,0.135392 0.355017,0.135392 0.321117,0 0.4816244,-0.21989 0.4816244,-0.659391 0,-0.442461 -0.1605074,-0.663525 -0.4816244,-0.663525 z m 11.0256838,0 c 0.293818,0 0.529683,0.235348 0.529683,0.529166 0,0.293818 -0.235865,0.529167 -0.529683,0.529167 -0.293817,0 -0.529167,-0.235349 -0.529167,-0.529167 0,-0.293818 0.23535,-0.529166 0.529167,-0.529166 z m 5.644099,10e-4 c -0.159818,0 -0.28145,0.05313 -0.364318,0.15968 -0.08139,0.105065 -0.121957,0.275862 -0.121957,0.51263 0,0.242687 0.04395,0.414588 0.131258,0.515214 0.07843,0.09027 0.196679,0.135392 0.355017,0.135392 0.321117,0 0.481625,-0.21989 0.481625,-0.659391 0,-0.442461 -0.160508,-0.663525 -0.481625,-0.663525 z m 11.025684,0 c 0.293818,0 0.529683,0.235349 0.529683,0.529166 0,0.293818 -0.235865,0.529167 -0.529683,0.529167 -0.293817,0 -0.529167,-0.235349 -0.529167,-0.529167 0,-0.293817 0.23535,-0.529166 0.529167,-0.529166 z m -28.8075436,0.02997 c -0.1672176,0 -0.2865704,0.02344 -0.3576009,0.0708 -0.1139446,0.07695 -0.171049,0.202034 -0.171049,0.37517 0,0.05327 0.023373,0.0801 0.069247,0.0801 0.045874,0 0.06873,-0.02227 0.06873,-0.06666 0,-0.102106 0.022855,-0.178683 0.06873,-0.230476 0.060672,-0.06807 0.164075,-0.10232 0.3105753,-0.10232 0.2145712,0 0.3219442,0.07827 0.3219442,0.235128 0,0.08139 -0.038289,0.144812 -0.1152385,0.190686 -0.039955,0.02959 -0.1273376,0.06098 -0.2619995,0.09353 -0.1331831,0.03255 -0.2222562,0.06114 -0.2666503,0.0863 -0.1524195,0.08879 -0.2284099,0.242389 -0.2284099,0.45992 l 0.00207,0.09974 h 0.9746175 c 0.042914,0 0.064596,-0.02396 0.064596,-0.07131 0,-0.04587 -0.027414,-0.06873 -0.082165,-0.06873 H 2.2654947 c 0,-0.130222 0.038875,-0.225615 0.1173055,-0.286287 0.051793,-0.03996 0.1482902,-0.07538 0.2888713,-0.106454 0.1450206,-0.04143 0.2449708,-0.07855 0.2997233,-0.111104 0.097667,-0.06955 0.1462443,-0.169501 0.1462443,-0.299723 0,-0.110985 -0.046299,-0.199543 -0.1395264,-0.266134 -0.07695,-0.05475 -0.1768998,-0.08217 -0.2997233,-0.08216 z m 16.6697836,10e-4 c -0.167218,0 -0.286571,0.02344 -0.357601,0.0708 -0.113945,0.07695 -0.171049,0.202034 -0.171049,0.37517 0,0.05327 0.02337,0.0801 0.06925,0.0801 0.04587,0 0.06873,-0.02227 0.06873,-0.06666 0,-0.102106 0.02285,-0.178683 0.06873,-0.230476 0.06067,-0.06807 0.164076,-0.10232 0.310576,-0.10232 0.214571,0 0.321944,0.07827 0.321944,0.235128 0,0.08139 -0.03829,0.144812 -0.115238,0.190686 -0.03995,0.02959 -0.127338,0.06098 -0.262,0.09353 -0.133183,0.03255 -0.222256,0.06114 -0.26665,0.0863 -0.152424,0.08879 -0.22841,0.242389 -0.22841,0.45992 l 0.0021,0.09974 h 0.974617 c 0.04291,0 0.0646,-0.02396 0.0646,-0.07131 0,-0.04587 -0.02742,-0.06873 -0.08217,-0.06873 h -0.810286 c 0,-0.130222 0.03888,-0.225615 0.117305,-0.286287 0.05179,-0.03996 0.148291,-0.07538 0.288872,-0.106454 0.14502,-0.04143 0.24497,-0.07855 0.299723,-0.111104 0.09767,-0.06955 0.146244,-0.169501 0.146244,-0.299723 0,-0.110985 -0.0463,-0.199543 -0.139526,-0.266134 -0.07695,-0.05475 -0.1769,-0.08217 -0.299723,-0.08217 z m -13.9944947,0.01034 v 0.179834 h 0.1793172 v -0.179834 z m 1.7942057,0 v 0.179834 h 0.1793172 v -0.179834 z m 1.7942057,0 v 0.179834 h 0.1793172 v -0.179834 z m 3.5884113,0 v 0.179834 h 0.179317 v -0.179834 z m 9.49296,10e-4 v 0.179833 h 0.179318 v -0.179833 z m 1.794206,0 v 0.179833 h 0.179317 v -0.179833 z m 1.794206,0 v 0.179833 h 0.179317 v -0.179833 z m 3.588411,0 v 0.179833 h 0.179317 v -0.179833 z m -25.4165357,0.08992 c 0.1228235,0 0.2113809,0.04057 0.2661336,0.121956 0.056233,0.07991 0.084749,0.222705 0.084749,0.428398 0,0.198293 -0.026825,0.334253 -0.080099,0.408243 -0.051793,0.07251 -0.1420418,0.109038 -0.2707845,0.109038 -0.1272629,0 -0.2169244,-0.04395 -0.2687174,-0.131258 -0.042914,-0.07843 -0.064079,-0.204689 -0.064079,-0.379306 0,-0.202732 0.024031,-0.346115 0.072864,-0.430464 0.050313,-0.08435 0.1371091,-0.126607 0.2599333,-0.126607 z m 16.6697827,10e-4 c 0.122824,0 0.211381,0.04057 0.266134,0.121956 0.05623,0.07991 0.08475,0.222705 0.08475,0.428398 0,0.198293 -0.02683,0.334253 -0.0801,0.408243 -0.05179,0.07251 -0.142043,0.109038 -0.270785,0.109038 -0.127263,0 -0.216924,-0.04395 -0.268717,-0.131258 -0.04291,-0.07843 -0.06408,-0.204689 -0.06408,-0.379306 0,-0.202732 0.02403,-0.346115 0.07286,-0.430464 0.05031,-0.08435 0.137108,-0.126607 0.259932,-0.126607 z m -11.8540561,0.453217 c -2.459004,0 -4.6973441,0.779009 -6.3443154,2.049487 v 0.337447 c 1.6098,-1.308357 3.8540862,-2.122868 6.3443154,-2.122868 2.4900701,0 4.7339981,0.814141 6.3432821,2.122352 v -0.33773 c -1.646849,-1.269884 -3.884926,-2.048454 -6.3432821,-2.048454 z m 16.6697831,10e-4 c -2.459004,0 -4.697344,0.779009 -6.344315,2.049487 v 0.337451 c 1.6098,-1.308358 3.854086,-2.122868 6.344315,-2.122868 2.490071,0 4.733998,0.81414 6.343282,2.122351 v -0.337964 c -1.646849,-1.269884 -3.884925,-2.048455 -6.343282,-2.048454 z" /><path
       id="rect13"
       style="fill:#ffd100;fill-opacity:1;stroke:none;stroke-width:0.264583;stroke-linejoin:round;stroke-miterlimit:0;stroke-dasharray:none;stroke-opacity:1"
       d="m 15.874999,19.05 v 21.166668 h 0.79375 V 19.05 Z m 1.322917,0 v 21.166668 h 0.79375 V 19.05 Z" /><path
       id="rect15"
       style="fill:#02ff00;fill-opacity:1;stroke:none;stroke-width:0.264583;stroke-linejoin:round;stroke-miterlimit:0;stroke-dasharray:none;stroke-opacity:1"
       d="M 0,24.341667 V 45.508335 H 0.52916666 V 24.341667 Z m 15.345833,0 V 45.508335 H 15.875 V 24.341667 Z m 1.322917,0 v 21.166668 h 0.529166 V 24.341667 Z m 1.322916,0 v 21.166668 h 0.529167 V 24.341667 Z m 15.345833,0 v 21.166668 h 0.529167 V 24.341667 Z" /><path
       style="baseline-shift:baseline;display:inline;overflow:visible;opacity:1;vector-effect:none;fill:#ffffff;stroke-linejoin:round;stroke-miterlimit:0;enable-background:accumulate;stop-color:#000000;stop-opacity:1"
       d="m 8.0696614,2.1166666 c -2.9940024,-10e-8 -5.4238282,2.4298257 -5.4238281,5.4238281 4.56e-5,1.0057161 0.278594,1.9917173 0.8066406,2.8476563 a 0.13230472,0.13230472 0 0 0 0.1132813,0.0625 h 9.0078128 a 0.13230472,0.13230472 0 0 0 0.111328,-0.0625 c 0.528047,-0.855939 0.808548,-1.8419402 0.808594,-2.8476563 0,-2.9940024 -2.429826,-5.4238281 -5.4238286,-5.4238281 z m 0,0.2636719 c 2.8510116,0 5.1582036,2.3091451 5.1582036,5.1601562 -4.3e-5,0.9339759 -0.270583,1.8439803 -0.75,2.6445313 H 3.6614583 C 3.1820361,9.3844723 2.9095475,8.474475 2.9095052,7.5404947 2.9095051,4.6894836 5.2186502,2.3803384 8.0696614,2.3803385 Z M 3.938802,10.714323 a 0.13230472,0.13230472 0 0 0 -0.1035156,0.214844 c 1.0293402,1.285645 2.5874306,2.03522 4.234375,2.035156 1.6469443,6.4e-5 3.2050346,-0.749511 4.2343756,-2.035156 a 0.13230472,0.13230472 0 0 0 -0.103516,-0.214844 z m 0.3730469,0.265625 h 7.5156251 c -0.973305,1.058865 -2.3088908,1.718807 -3.7578126,1.71875 -1.4489219,5.7e-5 -2.7845075,-0.659885 -3.7578125,-1.71875 z"
       id="path19" /><path
       style="font-size:2.82222px;line-height:1.1;font-family:NATS;-inkscape-font-specification:NATS;text-align:center;letter-spacing:0px;text-anchor:middle;fill:#ffffff;stroke-width:0.264583;stroke-linejoin:round;stroke-miterlimit:0"
       d="m 2.6458333,15.111433 v -1.591499 h 0.1774798 v 1.431476 h 0.6517292 v 0.160023 z M 4.7610434,14.558627 H 3.7019835 q 0,0.151294 0.1367468,0.276403 0.1367467,0.125109 0.3025885,0.125109 0.1483848,0 0.264765,-0.08147 0.1018327,-0.06983 0.1454752,-0.194937 h 0.1774799 q -0.066919,0.194937 -0.2240319,0.311317 -0.1571133,0.11638 -0.3636882,0.11638 -0.2502174,0 -0.4335163,-0.17748 -0.1803893,-0.177479 -0.1803893,-0.439335 0,-0.253127 0.1803893,-0.436426 0.1803893,-0.186208 0.4335163,-0.186208 0.1832988,0 0.3316836,0.0931 0.1221992,0.08438 0.1978464,0.209485 0.046552,0.07274 0.069828,0.162932 0.023276,0.08728 0.023276,0.168751 z M 3.7019835,14.401514 h 0.8844896 q -0.029095,-0.17457 -0.1687513,-0.282222 -0.1221992,-0.0931 -0.276403,-0.0931 -0.1454753,0 -0.270584,0.0931 -0.1396562,0.110561 -0.1687513,0.282222 z M 5.031625,15.114343 V 14.087287 H 4.8512356 V 13.930174 H 5.031625 q 0,-0.17457 0.0611,-0.270584 0.1105612,-0.165842 0.4044212,-0.165842 v 0.157114 q -0.1920273,0 -0.258946,0.09892 -0.037824,0.0611 -0.037824,0.183299 v -0.0029 h 0.2967695 v 0.157113 H 5.2003763 v 1.027056 z m 0.7128304,-0.0029 v -1.027065 h -0.247308 v -0.157113 h 0.247308 v -0.407331 h 0.1687513 v 0.407331 h 0.276403 v 0.157113 h -0.276403 v 1.027055 z"
       id="text19"
       aria-label="Left" /><text
       xml:space="preserve"
       style="font-size:2.82223px;line-height:1.1;font-family:NATS;-inkscape-font-specification:NATS;text-align:center;letter-spacing:0px;writing-mode:lr-tb;direction:ltr;text-anchor:middle;fill:#ffffff;fill-opacity:1;stroke:none;stroke-width:0.264583;stroke-linejoin:round;stroke-miterlimit:0;stroke-dasharray:none;stroke-opacity:1"
       x="23.046574"
       y="15.073616"
       id="text20"><tspan
         sodipodi:role="line"
         id="tspan20"
         style="stroke-width:0.264583"
         x="23.046574"
         y="15.073616">Right</tspan></text><path
       style="baseline-shift:baseline;display:inline;overflow:visible;opacity:1;vector-effect:none;fill:#ffffff;stroke-linejoin:round;stroke-miterlimit:0;enable-background:accumulate;stop-color:#000000;stop-opacity:1"
       d="m 26.061328,2.1166666 c -2.994002,-10e-8 -5.423829,2.4298257 -5.423828,5.4238281 4.5e-5,1.0057161 0.278594,1.9917173 0.80664,2.8476563 a 0.13230472,0.13230472 0 0 0 0.113281,0.0625 h 9.007814 a 0.13230472,0.13230472 0 0 0 0.111328,-0.0625 c 0.528047,-0.855939 0.808548,-1.8419402 0.808594,-2.8476563 0,-2.9940024 -2.429826,-5.4238281 -5.423829,-5.4238281 z m 0,0.2636719 c 2.851012,0 5.158204,2.3091451 5.158204,5.1601562 -4.3e-5,0.9339759 -0.270583,1.8439803 -0.75,2.6445313 H 21.653125 C 21.173702,9.3844723 20.901214,8.474475 20.901171,7.5404947 c 0,-2.8510111 2.309146,-5.1601563 5.160157,-5.1601562 z m -4.13086,8.3339845 a 0.13230472,0.13230472 0 0 0 -0.103515,0.214844 c 1.02934,1.285645 2.587431,2.03522 4.234375,2.035156 1.646944,6.4e-5 3.205035,-0.749511 4.234376,-2.035156 a 0.13230472,0.13230472 0 0 0 -0.103516,-0.214844 z m 0.373047,0.265625 h 7.515626 c -0.973305,1.058865 -2.308891,1.718807 -3.757813,1.71875 -1.448922,5.7e-5 -2.784507,-0.659885 -3.757813,-1.71875 z"
       id="path20" /><rect
       style="fill:none;fill-opacity:1;stroke:#ffffff;stroke-width:0.264583;stroke-linejoin:round;stroke-miterlimit:0;stroke-dasharray:none;stroke-opacity:1"
       id="rect20"
       width="4.2333331"
       height="13.229166"
       x="14.816667"
       y="2.2489581" /><path
       id="path1"
       style="baseline-shift:baseline;display:inline;overflow:visible;opacity:1;vector-effect:none;stroke-miterlimit:0;enable-background:accumulate;stop-color:#000000;stop-opacity:1"
       d="M -34.282663,-17.212903 V 4.2322997 h -4.131531 l -11.924854,-17.8614417 -0.109554,0.07441 11.875244,17.7870277 h -7.628992 v 0.1328085 h 7.717359 l 4.151685,6.2187458 H -46.20235 v 0.130741 h 11.857158 l -7.636743,11.439612 0.109554,0.07235 7.589718,-11.367265 v 14.953089 h 0.132808 V 10.858769 l 7.589718,11.367781 0.111621,-0.07235 -7.63726,-11.439609 H -3.1791368 V 10.58385 H -34.098695 l 4.152202,-6.2187418 H -3.1791368 V 4.2322997 H -29.85761 l 11.875761,-17.7870277 -0.111105,-0.07441 -11.924336,17.8614417 h -4.132565 V -17.212903 Z m -4.042648,21.5780112 h 4.042648 v 6.0549278 z m 4.175456,0 h 4.043681 l -4.043681,6.0575108 z" /><path
       id="path6"
       style="baseline-shift:baseline;display:inline;overflow:visible;opacity:1;vector-effect:none;fill:#ffffff;stroke-miterlimit:0;enable-background:accumulate;stop-color:#000000;stop-opacity:1"
       d="m 5.1601553,4.4634209 c -0.178208,0 -0.324012,0.146345 -0.324012,0.324528 0,0.178183 0.145804,0.324011 0.324012,0.324011 0.109092,0 0.205265,-0.05465 0.263549,-0.137976 0.058284,0.083326 0.154457,0.137976 0.26355,0.137976 0.108894,0 0.206217,-0.05439 0.2651,-0.137459 0.058884,0.083069 0.15569,0.137459 0.264584,0.137459 0.108893,0 0.2057,-0.05439 0.264583,-0.137459 0.058883,0.083069 0.15569,0.137459 0.264583,0.137459 0.108893,0 0.2057,-0.05439 0.264584,-0.137459 0.058883,0.083069 0.155689,0.137459 0.264583,0.137459 0.108893,0 0.2057,-0.05439 0.264583,-0.137459 0.058883,0.083069 0.155691,0.137459 0.264584,0.137459 0.108893,0 0.206216,-0.05439 0.2651,-0.137459 0.058883,0.083069 0.155689,0.137459 0.264583,0.137459 0.108893,0 0.2057,-0.05439 0.264583,-0.137459 0.058884,0.083069 0.15569,0.137459 0.264584,0.137459 0.108893,0 0.2057,-0.05439 0.264583,-0.137459 0.058883,0.083069 0.15569,0.137459 0.264583,0.137459 0.108894,0 0.2057,-0.05439 0.264584,-0.137459 0.058883,0.083069 0.15569,0.137459 0.264583,0.137459 0.1088927,0 0.2062167,-0.05439 0.2650997,-0.137459 0.05888,0.083069 0.15569,0.137459 0.264583,0.137459 0.108894,0 0.2057,-0.05439 0.264584,-0.137459 0.05888,0.083069 0.15569,0.137459 0.264583,0.137459 0.178207,0 0.324011,-0.145828 0.324011,-0.324011 0,-0.178183 -0.145804,-0.324528 -0.324011,-0.324528 -0.108893,0 -0.2057,0.054906 -0.264583,0.137976 -0.05888,-0.08307 -0.15569,-0.137976 -0.264584,-0.137976 -0.108893,0 -0.2057,0.054906 -0.264583,0.137976 -0.05888,-0.08307 -0.156207,-0.137976 -0.2650997,-0.137976 -0.108893,0 -0.2057,0.054906 -0.264583,0.137976 -0.058884,-0.08307 -0.15569,-0.137976 -0.264584,-0.137976 -0.108893,0 -0.2057,0.054906 -0.264583,0.137976 -0.058883,-0.08307 -0.15569,-0.137976 -0.264583,-0.137976 -0.108894,0 -0.2057,0.054906 -0.264584,0.137976 -0.058883,-0.08307 -0.15569,-0.137976 -0.264583,-0.137976 -0.108894,0 -0.2057,0.054906 -0.264583,0.137976 -0.058884,-0.08307 -0.156207,-0.137976 -0.2651,-0.137976 -0.108893,0 -0.205701,0.054906 -0.264584,0.137976 -0.058883,-0.08307 -0.15569,-0.137976 -0.264583,-0.137976 -0.108894,0 -0.2057,0.054906 -0.264583,0.137976 -0.058884,-0.08307 -0.155691,-0.137976 -0.264584,-0.137976 -0.108893,0 -0.2057,0.054906 -0.264583,0.137976 -0.058883,-0.08307 -0.15569,-0.137976 -0.264583,-0.137976 -0.108894,0 -0.2057,0.054906 -0.264584,0.137976 -0.058883,-0.08307 -0.156206,-0.137976 -0.2651,-0.137976 -0.109093,0 -0.205266,0.055166 -0.26355,0.138493 -0.058284,-0.083327 -0.154457,-0.138493 -0.263549,-0.138493 z m 0,0.132808 c 0.106737,0 0.191202,0.085054 0.191202,0.19172 0,0.106663 -0.084466,0.191202 -0.191202,0.191202 -0.106737,0 -0.19327,-0.084536 -0.19327,-0.191202 0,-0.106662 0.086531,-0.19172 0.19327,-0.19172 z m 0.527099,0 c 0.106737,0 0.193787,0.085054 0.193787,0.19172 0,0.106663 -0.087048,0.191202 -0.193787,0.191202 -0.106737,0 -0.191203,-0.084536 -0.191203,-0.191202 0,-0.106662 0.084467,-0.19172 0.191203,-0.19172 z m 0.529684,0 c 0.106736,0 0.193269,0.085054 0.193269,0.19172 0,0.106663 -0.08653,0.191202 -0.193269,0.191202 -0.106737,0 -0.191721,-0.084536 -0.19172,-0.191202 0,-0.106662 0.084984,-0.19172 0.19172,-0.19172 z m 0.529166,0 c 0.106736,0 0.19327,0.085054 0.19327,0.19172 0,0.106663 -0.086531,0.191202 -0.19327,0.191202 -0.106737,0 -0.191202,-0.084536 -0.191202,-0.191202 0,-0.106662 0.084465,-0.19172 0.191202,-0.19172 z m 0.529167,0 c 0.106736,0 0.19172,0.085054 0.19172,0.19172 0,0.106663 -0.084984,0.191202 -0.19172,0.191202 -0.106737,0 -0.191203,-0.084536 -0.191203,-0.191202 0,-0.106662 0.084466,-0.19172 0.191203,-0.19172 z m 0.529167,0 c 0.106737,0 0.191719,0.085054 0.191719,0.19172 0,0.106663 -0.084982,0.191202 -0.191719,0.191202 -0.106736,0 -0.191203,-0.084536 -0.191203,-0.191202 0,-0.106662 0.084467,-0.19172 0.191203,-0.19172 z m 0.529683,0 c 0.106737,0 0.191203,0.085054 0.191203,0.19172 0,0.106663 -0.084466,0.191202 -0.191203,0.191202 -0.106736,0 -0.19172,-0.084536 -0.19172,-0.191202 0,-0.106662 0.084984,-0.19172 0.19172,-0.19172 z m 0.529167,0 c 0.106737,0 0.191202,0.085054 0.191202,0.19172 0,0.106663 -0.084466,0.191202 -0.191202,0.191202 -0.106737,0 -0.191203,-0.084536 -0.191203,-0.191202 0,-0.106662 0.084467,-0.19172 0.191203,-0.19172 z m 0.529166,0 c 0.106737,0 0.19172,0.085054 0.19172,0.19172 0,0.106663 -0.084984,0.191202 -0.19172,0.191202 -0.106737,0 -0.191202,-0.084536 -0.191202,-0.191202 0,-0.106662 0.084466,-0.19172 0.191202,-0.19172 z m 0.529167,0 c 0.1067367,0 0.1917197,0.085054 0.1917197,0.19172 0,0.106663 -0.08498,0.191202 -0.1917197,0.191202 -0.106737,0 -0.191203,-0.084536 -0.191203,-0.191202 0,-0.106662 0.084467,-0.19172 0.191203,-0.19172 z m 0.5296827,0 c 0.106736,0 0.191203,0.085054 0.191203,0.19172 0,0.106663 -0.08447,0.191202 -0.191203,0.191202 -0.106737,0 -0.19172,-0.084536 -0.191719,-0.191202 0,-0.106662 0.08498,-0.19172 0.191719,-0.19172 z m 0.529167,0 c 0.106736,0 0.191203,0.085054 0.191203,0.19172 0,0.106663 -0.08447,0.191202 -0.191203,0.191202 -0.106737,0 -0.191203,-0.084536 -0.191203,-0.191202 0,-0.106662 0.08447,-0.19172 0.191203,-0.19172 z" /><path
       id="path16"
       style="baseline-shift:baseline;display:inline;overflow:visible;opacity:1;vector-effect:none;fill:#ffffff;stroke-miterlimit:0;enable-background:accumulate;stop-color:#000000;stop-opacity:1"
       d="m 23.151169,4.4634209 c -0.178208,0 -0.324012,0.146345 -0.324012,0.324528 0,0.178183 0.145804,0.324011 0.324012,0.324011 0.109093,0 0.205266,-0.05465 0.26355,-0.137976 0.05828,0.083326 0.154457,0.137976 0.26355,0.137976 0.108894,0 0.206217,-0.05439 0.2651,-0.137459 0.05888,0.083069 0.15569,0.137459 0.264584,0.137459 0.108893,0 0.2057,-0.05439 0.264583,-0.137459 0.05888,0.083069 0.15569,0.137459 0.264583,0.137459 0.108893,0 0.2057,-0.05439 0.264584,-0.137459 0.05888,0.083069 0.155689,0.137459 0.264583,0.137459 0.108894,0 0.205701,-0.05439 0.264584,-0.137459 0.05888,0.083069 0.155691,0.137459 0.264584,0.137459 0.108893,0 0.206216,-0.05439 0.2651,-0.137459 0.05888,0.083069 0.155689,0.137459 0.264583,0.137459 0.108893,0 0.2057,-0.05439 0.264583,-0.137459 0.05888,0.083069 0.15569,0.137459 0.264584,0.137459 0.108894,0 0.205701,-0.05439 0.264584,-0.137459 0.05888,0.083069 0.15569,0.137459 0.264583,0.137459 0.108894,0 0.2057,-0.05439 0.264584,-0.137459 0.05888,0.083069 0.15569,0.137459 0.264583,0.137459 0.108893,0 0.206217,-0.05439 0.2651,-0.137459 0.05888,0.083069 0.15569,0.137459 0.264583,0.137459 0.108894,0 0.2057,-0.05439 0.264584,-0.137459 0.05888,0.083069 0.15569,0.137459 0.264583,0.137459 0.178207,0 0.324011,-0.145828 0.324011,-0.324011 0,-0.178183 -0.145804,-0.324528 -0.324011,-0.324528 -0.108893,0 -0.2057,0.054906 -0.264583,0.137976 -0.05888,-0.08307 -0.15569,-0.137976 -0.264584,-0.137976 -0.108893,0 -0.2057,0.054906 -0.264583,0.137976 -0.05888,-0.08307 -0.156207,-0.137976 -0.2651,-0.137976 -0.108893,0 -0.2057,0.054906 -0.264583,0.137976 -0.05888,-0.08307 -0.15569,-0.137976 -0.264584,-0.137976 -0.108893,0 -0.2057,0.054906 -0.264583,0.137976 -0.05888,-0.08307 -0.15569,-0.137976 -0.264584,-0.137976 -0.108894,0 -0.2057,0.054906 -0.264584,0.137976 -0.05888,-0.08307 -0.15569,-0.137976 -0.264583,-0.137976 -0.108894,0 -0.2057,0.054906 -0.264583,0.137976 -0.05888,-0.08307 -0.156207,-0.137976 -0.2651,-0.137976 -0.108893,0 -0.205701,0.054906 -0.264584,0.137976 -0.05888,-0.08307 -0.15569,-0.137976 -0.264584,-0.137976 -0.108894,0 -0.2057,0.054906 -0.264583,0.137976 -0.05888,-0.08307 -0.155691,-0.137976 -0.264584,-0.137976 -0.108893,0 -0.2057,0.054906 -0.264583,0.137976 -0.05888,-0.08307 -0.15569,-0.137976 -0.264583,-0.137976 -0.108894,0 -0.2057,0.054906 -0.264584,0.137976 -0.05888,-0.08307 -0.156206,-0.137976 -0.2651,-0.137976 -0.109093,0 -0.205266,0.055166 -0.26355,0.138493 -0.05828,-0.083327 -0.154457,-0.138493 -0.26355,-0.138493 z m 0,0.132808 c 0.106738,0 0.191203,0.085054 0.191203,0.19172 0,0.106663 -0.08447,0.191202 -0.191203,0.191202 -0.106737,0 -0.19327,-0.084536 -0.19327,-0.191202 0,-0.106662 0.08653,-0.19172 0.19327,-0.19172 z m 0.5271,0 c 0.106737,0 0.193787,0.085054 0.193787,0.19172 0,0.106663 -0.08705,0.191202 -0.193787,0.191202 -0.106737,0 -0.191203,-0.084536 -0.191203,-0.191202 0,-0.106662 0.08447,-0.19172 0.191203,-0.19172 z m 0.529684,0 c 0.106736,0 0.193269,0.085054 0.193269,0.19172 0,0.106663 -0.08653,0.191202 -0.193269,0.191202 -0.106737,0 -0.191721,-0.084536 -0.19172,-0.191202 0,-0.106662 0.08498,-0.19172 0.19172,-0.19172 z m 0.529166,0 c 0.106736,0 0.19327,0.085054 0.19327,0.19172 0,0.106663 -0.08653,0.191202 -0.19327,0.191202 -0.106737,0 -0.191202,-0.084536 -0.191202,-0.191202 0,-0.106662 0.08446,-0.19172 0.191202,-0.19172 z m 0.529167,0 c 0.106737,0 0.191721,0.085054 0.191721,0.19172 0,0.106663 -0.08498,0.191202 -0.191721,0.191202 -0.106737,0 -0.191203,-0.084536 -0.191203,-0.191202 0,-0.106662 0.08447,-0.19172 0.191203,-0.19172 z m 0.529168,0 c 0.106737,0 0.191719,0.085054 0.191719,0.19172 0,0.106663 -0.08498,0.191202 -0.191719,0.191202 -0.106736,0 -0.191203,-0.084536 -0.191203,-0.191202 0,-0.106662 0.08447,-0.19172 0.191203,-0.19172 z m 0.529683,0 c 0.106737,0 0.191203,0.085054 0.191203,0.19172 0,0.106663 -0.08447,0.191202 -0.191203,0.191202 -0.106736,0 -0.19172,-0.084536 -0.19172,-0.191202 0,-0.106662 0.08498,-0.19172 0.19172,-0.19172 z m 0.529167,0 c 0.106738,0 0.191203,0.085054 0.191203,0.19172 0,0.106663 -0.08447,0.191202 -0.191203,0.191202 -0.106737,0 -0.191203,-0.084536 -0.191203,-0.191202 0,-0.106662 0.08447,-0.19172 0.191203,-0.19172 z m 0.529167,0 c 0.106737,0 0.19172,0.085054 0.19172,0.19172 0,0.106663 -0.08498,0.191202 -0.19172,0.191202 -0.106737,0 -0.191202,-0.084536 -0.191202,-0.191202 0,-0.106662 0.08447,-0.19172 0.191202,-0.19172 z m 0.529167,0 c 0.106737,0 0.19172,0.085054 0.19172,0.19172 0,0.106663 -0.08498,0.191202 -0.19172,0.191202 -0.106737,0 -0.191203,-0.084536 -0.191203,-0.191202 0,-0.106662 0.08447,-0.19172 0.191203,-0.19172 z m 0.529683,0 c 0.106736,0 0.191203,0.085054 0.191203,0.19172 0,0.106663 -0.08447,0.191202 -0.191203,0.191202 -0.106737,0 -0.19172,-0.084536 -0.191719,-0.191202 0,-0.106662 0.08498,-0.19172 0.191719,-0.19172 z m 0.529167,0 c 0.106736,0 0.191203,0.085054 0.191203,0.19172 0,0.106663 -0.08447,0.191202 -0.191203,0.191202 -0.106737,0 -0.191203,-0.084536 -0.191203,-0.191202 0,-0.106662 0.08447,-0.19172 0.191203,-0.19172 z" /><circle
       style="fill:none;fill-opacity:1;stroke:#ffffff;stroke-width:0.132292;stroke-miterlimit:0;stroke-dasharray:none;stroke-opacity:1"
       id="path18"
       cx="12.633854"
       cy="14.221354"
       r="0.66145831" /><circle
       style="fill:none;fill-opacity:1;stroke:#ffffff;stroke-width:0.132292;stroke-miterlimit:0;stroke-dasharray:none;stroke-opacity:1"
       id="circle18"
       cx="30.625521"
       cy="14.221354"
       r="0.66145831" /></g></svg>
