<?xml version="1.0" encoding="UTF-8" standalone="no"?>
<!-- Created with Inkscape (http://www.inkscape.org/) -->

<svg
   width="128"
   height="64"
   viewBox="0 0 128 64"
   version="1.1"
   id="svg1"
   xml:space="preserve"
   xmlns="http://www.w3.org/2000/svg"
   xmlns:svg="http://www.w3.org/2000/svg">
<g
     id="layer1">
<rect
       style="fill:#000203;fill-opacity:1;stroke:none;stroke-width:1;stroke-linecap:round;stroke-linejoin:round;stroke-dasharray:none;stroke-opacity:1"
       id="rect7"
       width="128"
       height="64"
       x="0"
       y="0" />
<g
       id="g38">
<rect
         style="fill:#b5eaff;fill-opacity:1;stroke-width:100;stroke-linecap:round;stroke-linejoin:round"
         id="rect6"
         width="51"
         height="27"
         x="3.7727261"
         y="11.948603" />
<path
         id="rect9"
         style="fill:#000000;fill-opacity:1;stroke-linecap:round;stroke-linejoin:round"
         d="m 18.254015,14 c -0.302223,0 -0.545581,0.07793 -0.730469,0.234375 -0.184889,0.152888 -0.320917,0.376413 -0.40625,0.667969 -0.08178,0.291555 -0.121094,0.642242 -0.121094,1.054687 0,0.615111 0.100068,1.096868 0.302734,1.445313 0.206222,0.344888 0.524856,0.517578 0.955079,0.517578 0.305776,0 0.551439,-0.07793 0.736328,-0.234375 0.184888,-0.156445 0.318964,-0.38032 0.404296,-0.671875 0.08533,-0.295111 0.128907,-0.647752 0.128907,-1.056641 0,-0.618667 -0.104675,-1.09812 -0.314453,-1.439453 C 18.999315,14.172689 18.680681,14 18.254015,14 Z m 22,0 c -0.302223,0 -0.54558,0.07793 -0.730469,0.234375 -0.184889,0.152889 -0.32092,0.376414 -0.40625,0.667969 -0.08178,0.291554 -0.121094,0.642242 -0.121094,1.054687 0,0.615111 0.100067,1.096868 0.302734,1.445313 0.206222,0.344889 0.524856,0.517578 0.955079,0.517578 0.305777,0 0.551439,-0.07793 0.736328,-0.234375 0.184889,-0.156445 0.318967,-0.38032 0.404296,-0.671875 0.08533,-0.295111 0.128907,-0.647752 0.128907,-1.056641 0,-0.618667 -0.104675,-1.09812 -0.314453,-1.439453 C 40.999316,14.172689 40.680681,14 40.254015,14 Z m -25.103516,0.0059 c -0.241778,0 -0.460695,0.04392 -0.65625,0.132813 -0.192,0.08533 -0.362386,0.190008 -0.511719,0.314453 l 0.25,0.314453 c 0.145777,-0.113778 0.289067,-0.201625 0.427735,-0.265625 0.142222,-0.064 0.305345,-0.0957 0.490234,-0.0957 0.199111,0 0.35993,0.05384 0.484375,0.164062 0.124444,0.106667 0.1875,0.264832 0.1875,0.47461 0,0.170666 -0.03401,0.328831 -0.101563,0.474609 -0.06755,0.142222 -0.167272,0.288167 -0.298828,0.4375 -0.131555,0.149333 -0.292375,0.321672 -0.484375,0.513672 l -0.998047,1.007812 v 0.388672 h 2.517578 V 17.44145 h -1.925781 v -0.02148 l 0.794922,-0.785157 c 0.195556,-0.192 0.365942,-0.371951 0.511719,-0.539062 0.145778,-0.170667 0.260019,-0.341403 0.341797,-0.515625 0.08178,-0.174222 0.123047,-0.361436 0.123047,-0.560547 0,-0.316445 -0.104325,-0.56441 -0.310547,-0.742187 -0.206222,-0.181382 -0.486242,-0.271533 -0.841797,-0.271533 z m 3.103516,0.394531 c 0.284444,0 0.486533,0.129117 0.607421,0.388672 0.124445,0.259556 0.1875,0.648858 0.1875,1.167969 0,0.526221 -0.06305,0.920132 -0.1875,1.179687 -0.120888,0.256001 -0.322977,0.382813 -0.607421,0.382813 -0.288,0 -0.492392,-0.129117 -0.613282,-0.388672 -0.117332,-0.259555 -0.175781,-0.651162 -0.175781,-1.173828 0,-0.519111 0.05845,-0.908413 0.175781,-1.167969 0.12089,-0.259555 0.325282,-0.388672 0.613282,-0.388672 z m 22,0 c 0.284444,0 0.486532,0.129117 0.607421,0.388672 0.124447,0.259555 0.1875,0.648858 0.1875,1.167969 0,0.526221 -0.06306,0.920132 -0.1875,1.179687 -0.120889,0.255999 -0.322976,0.382813 -0.607421,0.382813 -0.288001,0 -0.492393,-0.129117 -0.613282,-0.388672 -0.117329,-0.259555 -0.175781,-0.651162 -0.175781,-1.173828 0,-0.519111 0.05845,-0.908414 0.175781,-1.167969 0.120889,-0.259555 0.325283,-0.388672 0.613282,-0.388672 z m -16.661154,1.222657 c -0.4137,0.0022 -0.747594,0.338253 -0.746094,0.751953 0.0015,0.4137 0.338353,0.748747 0.751953,0.748047 0.4137,-8e-4 0.748047,-0.3364 0.748047,-0.75 v -0.0059 c -0.0031,-0.4137 -0.340206,-0.74644 -0.753906,-0.74414 z m 5.658645,0 c -0.4137,0.0022 -0.747594,0.338253 -0.746094,0.751953 0.0015,0.4137 0.338353,0.748747 0.751953,0.748047 0.4137,-8e-4 0.748047,-0.3364 0.748047,-0.75 v -0.0059 c -0.0031,-0.4137 -0.340206,-0.74644 -0.753906,-0.74414 z m 5.162665,0 c -0.4137,0.0022 -0.747594,0.338253 -0.746094,0.751953 0.0015,0.4137 0.338353,0.748747 0.751953,0.748047 0.4137,-8e-4 0.748047,-0.3364 0.748047,-0.75 v -0.0059 c -0.0031,-0.4137 -0.340206,-0.74644 -0.753906,-0.74414 z m 10.380859,0 c -0.41345,0.0022 -0.747176,0.338498 -0.746094,0.751953 0.0011,0.413451 0.336548,0.748048 0.75,0.748047 0.414214,0 0.75,-0.335786 0.75,-0.75 v -0.0059 c -0.0032,-0.413451 -0.340448,-0.746306 -0.753906,-0.74414 z m 4.978515,3.078125 v 1 h -1 v 1 h 1 v 1 h 1 v -1 h 1 v -1 h -1 v -1 z m -42.9999989,1 v 1 h 3.0000002 v -1 z m 22.6582029,0.04297 v 3.5 0.302735 c -0.920317,0.0026 -1.837059,0.01294 -2.75,0.0293 v -3.384766 h -1 v 3.404297 c -0.92072,0.02159 -1.837465,0.05054 -2.75,0.08594 v -2.9375 h -1 v 2.978516 c -0.921155,0.04091 -1.837903,0.08977 -2.75,0.144531 v -2.675781 h -1 v 2.738281 c -0.921634,0.06062 -1.838374,0.128593 -2.75,0.203125 v -2.388672 h -1 v 2.472657 c -1.775444,0.155611 -3.530094,0.337838 -5.2636715,0.544921 v 1.011719 C 15.661262,24.992096 22.467413,24.56862 29.48253,24.55083 c 6.779821,-0.01719 13.373261,0.346876 19.685547,1.046875 v -1.013672 c -1.234841,-0.13593 -2.481053,-0.259221 -3.736328,-0.36914 v -2.470704 h -1 v 2.386719 c -0.911676,-0.07445 -1.82844,-0.142634 -2.75,-0.203125 v -2.736328 h -1 v 2.673828 c -0.91216,-0.05463 -1.82891,-0.101815 -2.75,-0.142578 v -2.978516 h -1 v 2.935547 c -0.912601,-0.03525 -1.829347,-0.06253 -2.75,-0.08398 v -3.404297 h -1 v 3.382812 c -0.91301,-0.01622 -1.829753,-0.02489 -2.75,-0.02734 v -3.802735 z m -5.238281,6.726563 2.111328,5.671875 h 0.976562 l 2.144531,-5.671875 h -1.015624 l -1.591797,4.416015 -1.583985,-4.416015 z m 5.927734,0 v 3.695312 c 0,0.661334 0.19713,1.176922 0.591797,1.544922 0.394667,0.368 0.902818,0.552735 1.521484,0.552735 0.618667,0 1.124865,-0.184735 1.519532,-0.552735 0.399999,-0.368 0.599609,-0.883588 0.599609,-1.544922 v -3.695312 h -0.960938 v 3.640625 c 0,0.4 -0.100067,0.706588 -0.302734,0.919922 -0.202667,0.213333 -0.487469,0.320312 -0.855469,0.320312 -0.362666,0 -0.649422,-0.106979 -0.857422,-0.320312 -0.202666,-0.218667 -0.302734,-0.525255 -0.302734,-0.919922 V 26.470703 Z M 8.1583111,32.644531 c -0.264598,0.01528 -0.5235203,0.083 -0.761718,0.199219 -0.8168352,0.397856 -1.2628569,1.296316 -1.085938,2.1875 L 9.8008893,33.351562 C 9.3950859,32.870595 8.7865782,32.608669 8.1583111,32.644531 Z m 42.2324219,0 c -0.721701,-0.04257 -1.410199,0.307648 -1.800781,0.916015 -0.490284,0.764039 -0.404476,1.762461 0.208984,2.431641 l 2.111328,-3.246093 c -0.167912,-0.05672 -0.342619,-0.09088 -0.519531,-0.101563 z m 1.357422,0.646484 -2.111328,3.246094 c 0.866637,0.290974 1.820262,-0.04271 2.316406,-0.810547 0.49337,-0.764043 0.409107,-1.764763 -0.205078,-2.435547 z M 10.234483,34.251953 6.7442491,35.93164 c 0.5896227,0.698497 1.5777828,0.90835 2.4003904,0.509766 0.8191745,-0.396791 1.2671045,-1.296666 1.0898435,-2.189453 z" />
<path
         id="NEEDLE_LEFT"
   transform="rotate({{needle_left}}, 29.773437,46.603237)"
         style="fill:#ffff00;fill-opacity:1;stroke:#ff0000;stroke-width:0.5;stroke-linecap:round;stroke-linejoin:round;stroke-dasharray:none;stroke-opacity:1"
         d="m 29.269531,15.949219 c -0.257891,0.0015 -0.47008,0.203438 -0.484375,0.460937 L 28.390625,49.669922 H 30.15625 L 29.759766,16.410156 c -0.01442,-0.259759 -0.230081,-0.462531 -0.490235,-0.460937 z" />
<path
         id="path34"
         style="baseline-shift:baseline;display:inline;overflow:visible;vector-effect:none;fill:#1f1f1f;stroke-linecap:round;stroke-linejoin:round;enable-background:accumulate;stop-color:#000000"
         d="M 4.7265625,9.3359375 C 3.2156534,9.3359375 2,10.551591 2,12.0625 v 34.544922 c 0,1.510909 1.2156534,2.728516 2.7265625,2.728516 H 53.818359 c 1.510909,-10e-7 2.726563,-1.217607 2.726563,-2.728516 V 12.0625 c 0,-1.510909 -1.215654,-2.7265625 -2.726563,-2.7265625 z M 3.7734375,11.949219 H 54.773438 v 27 H 35.132812 C 34.656541,37.199758 31.063102,35.989448 29.25,36 c -1.795688,0.01059 -5.364242,1.216559 -5.835938,2.949219 H 3.7734375 Z" />
<path
         style="baseline-shift:baseline;display:inline;overflow:visible;vector-effect:none;fill:#ffffff;stroke-linecap:round;stroke-linejoin:round;enable-background:accumulate;stop-color:#000000"
         d="M 4.7265625,8.8359375 C 2.947302,8.8359375 1.5,10.28324 1.5,12.0625 v 34.544922 c 0,1.77926 1.447302,3.228515 3.2265625,3.228515 H 53.818359 c 1.779261,0 3.226563,-1.449255 3.226563,-3.228515 V 12.0625 c 0,-1.77926 -1.447302,-3.2265625 -3.226563,-3.2265625 z m 0,1 H 53.818359 c 1.242558,0 2.226563,0.9840045 2.226563,2.2265625 v 34.544922 c 0,1.242558 -0.984005,2.228515 -2.226563,2.228515 H 4.7265625 C 3.4840048,48.835937 2.5,47.84998 2.5,46.607422 V 12.0625 c 0,-1.242558 0.9840048,-2.2265625 2.2265625,-2.2265625 z"
         id="path35" />
<path
         style="fill:#ff0000;fill-opacity:1;stroke:none;stroke-width:1;stroke-linecap:round;stroke-linejoin:round;stroke-dasharray:none;stroke-opacity:1"
         id="path36"
         d="m 29.773437,46.603237 a 0.5,0.5 0 0 1 -0.499089,0.499999 0.5,0.5 0 0 1 -0.500907,-0.498179 0.5,0.5 0 0 1 0.497266,-0.501812 0.5,0.5 0 0 1 0.502717,0.496352" />
</g>
<g
       id="g43"
       transform="translate(69.5)">
<rect
         style="fill:#b5eaff;fill-opacity:1;stroke-width:100;stroke-linecap:round;stroke-linejoin:round"
         id="rect39"
         width="51"
         height="27"
         x="3.7727261"
         y="11.948603" />
<path
         id="path39"
         style="fill:#000000;fill-opacity:1;stroke-linecap:round;stroke-linejoin:round"
         d="m 18.254015,14 c -0.302223,0 -0.545581,0.07793 -0.730469,0.234375 -0.184889,0.152888 -0.320917,0.376413 -0.40625,0.667969 -0.08178,0.291555 -0.121094,0.642242 -0.121094,1.054687 0,0.615111 0.100068,1.096868 0.302734,1.445313 0.206222,0.344888 0.524856,0.517578 0.955079,0.517578 0.305776,0 0.551439,-0.07793 0.736328,-0.234375 0.184888,-0.156445 0.318964,-0.38032 0.404296,-0.671875 0.08533,-0.295111 0.128907,-0.647752 0.128907,-1.056641 0,-0.618667 -0.104675,-1.09812 -0.314453,-1.439453 C 18.999315,14.172689 18.680681,14 18.254015,14 Z m 22,0 c -0.302223,0 -0.54558,0.07793 -0.730469,0.234375 -0.184889,0.152889 -0.32092,0.376414 -0.40625,0.667969 -0.08178,0.291554 -0.121094,0.642242 -0.121094,1.054687 0,0.615111 0.100067,1.096868 0.302734,1.445313 0.206222,0.344889 0.524856,0.517578 0.955079,0.517578 0.305777,0 0.551439,-0.07793 0.736328,-0.234375 0.184889,-0.156445 0.318967,-0.38032 0.404296,-0.671875 0.08533,-0.295111 0.128907,-0.647752 0.128907,-1.056641 0,-0.618667 -0.104675,-1.09812 -0.314453,-1.439453 C 40.999316,14.172689 40.680681,14 40.254015,14 Z m -25.103516,0.0059 c -0.241778,0 -0.460695,0.04392 -0.65625,0.132813 -0.192,0.08533 -0.362386,0.190008 -0.511719,0.314453 l 0.25,0.314453 c 0.145777,-0.113778 0.289067,-0.201625 0.427735,-0.265625 0.142222,-0.064 0.305345,-0.0957 0.490234,-0.0957 0.199111,0 0.35993,0.05384 0.484375,0.164062 0.124444,0.106667 0.1875,0.264832 0.1875,0.47461 0,0.170666 -0.03401,0.328831 -0.101563,0.474609 -0.06755,0.142222 -0.167272,0.288167 -0.298828,0.4375 -0.131555,0.149333 -0.292375,0.321672 -0.484375,0.513672 l -0.998047,1.007812 v 0.388672 h 2.517578 V 17.44145 h -1.925781 v -0.02148 l 0.794922,-0.785157 c 0.195556,-0.192 0.365942,-0.371951 0.511719,-0.539062 0.145778,-0.170667 0.260019,-0.341403 0.341797,-0.515625 0.08178,-0.174222 0.123047,-0.361436 0.123047,-0.560547 0,-0.316445 -0.104325,-0.56441 -0.310547,-0.742187 -0.206222,-0.181382 -0.486242,-0.271533 -0.841797,-0.271533 z m 3.103516,0.394531 c 0.284444,0 0.486533,0.129117 0.607421,0.388672 0.124445,0.259556 0.1875,0.648858 0.1875,1.167969 0,0.526221 -0.06305,0.920132 -0.1875,1.179687 -0.120888,0.256001 -0.322977,0.382813 -0.607421,0.382813 -0.288,0 -0.492392,-0.129117 -0.613282,-0.388672 -0.117332,-0.259555 -0.175781,-0.651162 -0.175781,-1.173828 0,-0.519111 0.05845,-0.908413 0.175781,-1.167969 0.12089,-0.259555 0.325282,-0.388672 0.613282,-0.388672 z m 22,0 c 0.284444,0 0.486532,0.129117 0.607421,0.388672 0.124447,0.259555 0.1875,0.648858 0.1875,1.167969 0,0.526221 -0.06306,0.920132 -0.1875,1.179687 -0.120889,0.255999 -0.322976,0.382813 -0.607421,0.382813 -0.288001,0 -0.492393,-0.129117 -0.613282,-0.388672 -0.117329,-0.259555 -0.175781,-0.651162 -0.175781,-1.173828 0,-0.519111 0.05845,-0.908414 0.175781,-1.167969 0.120889,-0.259555 0.325283,-0.388672 0.613282,-0.388672 z m -16.661154,1.222657 c -0.4137,0.0022 -0.747594,0.338253 -0.746094,0.751953 0.0015,0.4137 0.338353,0.748747 0.751953,0.748047 0.4137,-8e-4 0.748047,-0.3364 0.748047,-0.75 v -0.0059 c -0.0031,-0.4137 -0.340206,-0.74644 -0.753906,-0.74414 z m 5.658645,0 c -0.4137,0.0022 -0.747594,0.338253 -0.746094,0.751953 0.0015,0.4137 0.338353,0.748747 0.751953,0.748047 0.4137,-8e-4 0.748047,-0.3364 0.748047,-0.75 v -0.0059 c -0.0031,-0.4137 -0.340206,-0.74644 -0.753906,-0.74414 z m 5.162665,0 c -0.4137,0.0022 -0.747594,0.338253 -0.746094,0.751953 0.0015,0.4137 0.338353,0.748747 0.751953,0.748047 0.4137,-8e-4 0.748047,-0.3364 0.748047,-0.75 v -0.0059 c -0.0031,-0.4137 -0.340206,-0.74644 -0.753906,-0.74414 z m 10.380859,0 c -0.41345,0.0022 -0.747176,0.338498 -0.746094,0.751953 0.0011,0.413451 0.336548,0.748048 0.75,0.748047 0.414214,0 0.75,-0.335786 0.75,-0.75 v -0.0059 c -0.0032,-0.413451 -0.340448,-0.746306 -0.753906,-0.74414 z m 4.978515,3.078125 v 1 h -1 v 1 h 1 v 1 h 1 v -1 h 1 v -1 h -1 v -1 z m -42.9999989,1 v 1 h 3.0000002 v -1 z m 22.6582029,0.04297 v 3.5 0.302735 c -0.920317,0.0026 -1.837059,0.01294 -2.75,0.0293 v -3.384766 h -1 v 3.404297 c -0.92072,0.02159 -1.837465,0.05054 -2.75,0.08594 v -2.9375 h -1 v 2.978516 c -0.921155,0.04091 -1.837903,0.08977 -2.75,0.144531 v -2.675781 h -1 v 2.738281 c -0.921634,0.06062 -1.838374,0.128593 -2.75,0.203125 v -2.388672 h -1 v 2.472657 c -1.775444,0.155611 -3.530094,0.337838 -5.2636715,0.544921 v 1.011719 C 15.661262,24.992096 22.467413,24.56862 29.48253,24.55083 c 6.779821,-0.01719 13.373261,0.346876 19.685547,1.046875 v -1.013672 c -1.234841,-0.13593 -2.481053,-0.259221 -3.736328,-0.36914 v -2.470704 h -1 v 2.386719 c -0.911676,-0.07445 -1.82844,-0.142634 -2.75,-0.203125 v -2.736328 h -1 v 2.673828 c -0.91216,-0.05463 -1.82891,-0.101815 -2.75,-0.142578 v -2.978516 h -1 v 2.935547 c -0.912601,-0.03525 -1.829347,-0.06253 -2.75,-0.08398 v -3.404297 h -1 v 3.382812 c -0.91301,-0.01622 -1.829753,-0.02489 -2.75,-0.02734 v -3.802735 z m -5.238281,6.726563 2.111328,5.671875 h 0.976562 l 2.144531,-5.671875 h -1.015624 l -1.591797,4.416015 -1.583985,-4.416015 z m 5.927734,0 v 3.695312 c 0,0.661334 0.19713,1.176922 0.591797,1.544922 0.394667,0.368 0.902818,0.552735 1.521484,0.552735 0.618667,0 1.124865,-0.184735 1.519532,-0.552735 0.399999,-0.368 0.599609,-0.883588 0.599609,-1.544922 v -3.695312 h -0.960938 v 3.640625 c 0,0.4 -0.100067,0.706588 -0.302734,0.919922 -0.202667,0.213333 -0.487469,0.320312 -0.855469,0.320312 -0.362666,0 -0.649422,-0.106979 -0.857422,-0.320312 -0.202666,-0.218667 -0.302734,-0.525255 -0.302734,-0.919922 V 26.470703 Z M 8.1583111,32.644531 c -0.264598,0.01528 -0.5235203,0.083 -0.761718,0.199219 -0.8168352,0.397856 -1.2628569,1.296316 -1.085938,2.1875 L 9.8008893,33.351562 C 9.3950859,32.870595 8.7865782,32.608669 8.1583111,32.644531 Z m 42.2324219,0 c -0.721701,-0.04257 -1.410199,0.307648 -1.800781,0.916015 -0.490284,0.764039 -0.404476,1.762461 0.208984,2.431641 l 2.111328,-3.246093 c -0.167912,-0.05672 -0.342619,-0.09088 -0.519531,-0.101563 z m 1.357422,0.646484 -2.111328,3.246094 c 0.866637,0.290974 1.820262,-0.04271 2.316406,-0.810547 0.49337,-0.764043 0.409107,-1.764763 -0.205078,-2.435547 z M 10.234483,34.251953 6.7442491,35.93164 c 0.5896227,0.698497 1.5777828,0.90835 2.4003904,0.509766 0.8191745,-0.396791 1.2671045,-1.296666 1.0898435,-2.189453 z" />
<path
         id="NEEDLE_RIGHT"
   transform="rotate({{needle_right}}, 29.773437,46.603237)"
         style="fill:#ffff00;fill-opacity:1;stroke:#ff0000;stroke-width:0.5;stroke-linecap:round;stroke-linejoin:round;stroke-dasharray:none;stroke-opacity:1"
         d="m 29.269531,15.949219 c -0.257891,0.0015 -0.47008,0.203438 -0.484375,0.460937 L 28.390625,49.669922 H 30.15625 L 29.759766,16.410156 c -0.01442,-0.259759 -0.230081,-0.462531 -0.490235,-0.460937 z" />
<path
         id="path41"
         style="baseline-shift:baseline;display:inline;overflow:visible;vector-effect:none;fill:#1f1f1f;stroke-linecap:round;stroke-linejoin:round;enable-background:accumulate;stop-color:#000000"
         d="M 4.7265625,9.3359375 C 3.2156534,9.3359375 2,10.551591 2,12.0625 v 34.544922 c 0,1.510909 1.2156534,2.728516 2.7265625,2.728516 H 53.818359 c 1.510909,-10e-7 2.726563,-1.217607 2.726563,-2.728516 V 12.0625 c 0,-1.510909 -1.215654,-2.7265625 -2.726563,-2.7265625 z M 3.7734375,11.949219 H 54.773438 v 27 H 35.132812 C 34.656541,37.199758 31.063102,35.989448 29.25,36 c -1.795688,0.01059 -5.364242,1.216559 -5.835938,2.949219 H 3.7734375 Z" />
<path
         style="baseline-shift:baseline;display:inline;overflow:visible;vector-effect:none;fill:#ffffff;stroke-linecap:round;stroke-linejoin:round;enable-background:accumulate;stop-color:#000000"
         d="M 4.7265625,8.8359375 C 2.947302,8.8359375 1.5,10.28324 1.5,12.0625 v 34.544922 c 0,1.77926 1.447302,3.228515 3.2265625,3.228515 H 53.818359 c 1.779261,0 3.226563,-1.449255 3.226563,-3.228515 V 12.0625 c 0,-1.77926 -1.447302,-3.2265625 -3.226563,-3.2265625 z m 0,1 H 53.818359 c 1.242558,0 2.226563,0.9840045 2.226563,2.2265625 v 34.544922 c 0,1.242558 -0.984005,2.228515 -2.226563,2.228515 H 4.7265625 C 3.4840048,48.835937 2.5,47.84998 2.5,46.607422 V 12.0625 c 0,-1.242558 0.9840048,-2.2265625 2.2265625,-2.2265625 z"
         id="path42" />
<path
         style="fill:#ff0000;fill-opacity:1;stroke:none;stroke-width:1;stroke-linecap:round;stroke-linejoin:round;stroke-dasharray:none;stroke-opacity:1"
         id="path43"
         d="m 29.773437,46.603237 a 0.5,0.5 0 0 1 -0.499089,0.499999 0.5,0.5 0 0 1 -0.500907,-0.498179 0.5,0.5 0 0 1 0.497266,-0.501812 0.5,0.5 0 0 1 0.502717,0.496352" />
</g>
<rect
       style="fill:none;fill-opacity:1;stroke:#ffffff;stroke-width:0.5;stroke-linecap:round;stroke-linejoin:round;stroke-dasharray:none;stroke-opacity:1"
       id="rect43"
       width="11"
       height="56"
       x="58.5"
       y="4.1910257" />
<path
       d="m 26.024462,58.948692 h -3.56 v -5.672 h 0.96 v 4.76 h 2.6 z m 1.431996,-2.376 h 1.912 q -0.016,-0.368 -0.264,-0.616 -0.24,-0.248 -0.696,-0.248 -0.416,0 -0.672,0.264 -0.256,0.256 -0.28,0.6 z m 2.016,1.016 0.784,0.248 q -0.168,0.536 -0.632,0.888 -0.456,0.344 -1.128,0.344 -0.832,0 -1.416,-0.568 -0.576,-0.568 -0.576,-1.52 0,-0.896 0.56,-1.472 0.568,-0.576 1.336,-0.576 0.896,0 1.4,0.552 0.504,0.544 0.504,1.472 0,0.248 -0.024,0.296 h -2.848 q 0.016,0.44 0.32,0.728 0.312,0.288 0.744,0.288 0.752,0 0.976,-0.68 z m 3.448003,-3.64 q -0.232,0 -0.408,0.136 -0.168,0.128 -0.168,0.456 v 0.512 h 0.904 v 0.808 h -0.904 v 3.088 h -0.936 v -3.088 h -0.68 v -0.808 h 0.68 v -0.536 q 0,-0.648 0.376,-1.024 0.376,-0.376 0.984,-0.376 0.328,0 0.488,0.08 v 0.792 q -0.136,-0.04 -0.336,-0.04 z m 2.343996,-0.088 v 1.192 h 0.808 v 0.824 h -0.808 v 1.808 q 0,0.256 0.12,0.376 0.12,0.112 0.376,0.112 0.16,0 0.32,-0.032 v 0.768 q -0.208,0.088 -0.568,0.088 -0.544,0 -0.856,-0.304 -0.312,-0.312 -0.312,-0.856 v -1.96 h -0.72 v -0.824 h 0.2 q 0.296,0 0.448,-0.168 0.152,-0.168 0.152,-0.44 v -0.584 z"
       id="text43"
       style="font-size:8px;line-height:1.1;font-family:'Circular Std Medium';-inkscape-font-specification:'Circular Std Medium, ';text-align:center;letter-spacing:0px;word-spacing:0.0022px;text-anchor:middle;fill:#ffffff;stroke-width:0.5;stroke-linecap:round;stroke-linejoin:round"
       aria-label="Left" />
<path
       d="m 92.480462,58.208694 -1.192,-2.24 h -0.704 v 2.24 h -0.968 v -5.672 h 2.176 q 0.8,0 1.288,0.496 0.488,0.488 0.488,1.224 0,0.608 -0.344,1.04 -0.344,0.432 -0.936,0.576 l 1.28,2.336 z m -1.896,-3.088 h 1.032 q 0.44,0 0.704,-0.232 0.272,-0.24 0.272,-0.632 0,-0.4 -0.272,-0.632 -0.264,-0.24 -0.704,-0.24 h -1.032 z m 4.847998,3.088 h -0.92 v -3.896 h 0.92 z m -0.888,-4.84 q -0.176,-0.176 -0.176,-0.424 0,-0.248 0.176,-0.424 0.176,-0.184 0.424,-0.184 0.256,0 0.432,0.176 0.176,0.176 0.176,0.432 0,0.248 -0.176,0.424 -0.176,0.176 -0.432,0.176 -0.248,0 -0.424,-0.176 z m 1.807995,5.056 0.856,-0.224 q 0.048,0.368 0.312,0.6 0.272,0.24 0.664,0.24 1.104,0 1.104,-1.168 v -0.408 q -0.136,0.248 -0.432,0.408 -0.296,0.16 -0.696,0.16 -0.784,0 -1.296,-0.536 -0.504,-0.536 -0.504,-1.36 0,-0.792 0.504,-1.344 0.504,-0.552 1.296,-0.552 0.856,0 1.152,0.568 v -0.496 h 0.896005 v 3.528 q 0,0.864 -0.488005,1.432 -0.488,0.576 -1.512,0.576 -0.752,0 -1.264,-0.408 -0.512,-0.408 -0.592,-1.016 z m 1.96,-1.184 q 0.448,0 0.72,-0.296 0.28,-0.304 0.28,-0.808 0,-0.496 -0.28,-0.792 -0.28,-0.304 -0.72,-0.304 -0.448,0 -0.736,0.304 -0.28,0.296 -0.28,0.792 0,0.504 0.28,0.808 0.28,0.296 0.736,0.296 z m 3.960005,-1.32 v 2.288 h -0.928 v -5.792 h 0.928 v 2.272 q 0.376,-0.488 1.112,-0.488 0.688,0 1.056,0.432 0.368,0.432 0.368,1.112 v 2.464 h -0.928 v -2.304 q 0,-0.392 -0.192,-0.624 -0.192,-0.24 -0.608,-0.24 -0.368,0 -0.584,0.248 -0.208,0.248 -0.224,0.632 z m 4.84,-2.8 v 1.192 h 0.808 v 0.824 h -0.808 v 1.808 q 0,0.256 0.12,0.376 0.12,0.112 0.376,0.112 0.16,0 0.32,-0.032 v 0.768 q -0.208,0.088 -0.568,0.088 -0.544,0 -0.856,-0.304 -0.312,-0.312 -0.312,-0.856 v -1.96 h -0.72 v -0.824 h 0.2 q 0.296,0 0.448,-0.168 0.152,-0.168 0.152,-0.44 v -0.584 z"
       id="text44"
       style="font-size:8px;line-height:1.1;font-family:'Circular Std Medium';-inkscape-font-specification:'Circular Std Medium, ';text-align:center;letter-spacing:0px;word-spacing:0.0022px;text-anchor:middle;fill:#ffffff;stroke-width:0.5;stroke-linecap:round;stroke-linejoin:round"
       aria-label="Right" />
<path
         id="PEAK_18"
       style="fill:#ff001e;fill-opacity:{{peak_18}}"
         d="m 118,7.3902702 h 20 v 2 h -20 z"
         aria-label="peak 8 dB" />
<path
         d="m 118,10.168 h 20 v 2 h -20 z"
       style="fill:#ff001e;fill-opacity:{{peak_17}}"
         id="PEAK_17"
         aria-label="peak 5 dB" />
<path
         d="m 118,12.9458 h 20 v 2 h -20 z"
       style="fill:#ff001e;fill-opacity:{{peak_16}}"
         id="PEAK_16"
         aria-label="peak 3 dB" />
<path
         d="m 118,15.7236 h 20 v 2 h -20 z"
       style="fill:#ff001e;fill-opacity:{{peak_15}}"
         id="PEAK_15"
         aria-label="peak 2 dB" />
<path
         d="m 118,18.5014 h 20 v 2 h -20 z"
       style="fill:#607524;fill-opacity:{{peak_14}}"
         id="PEAK_14"
         aria-label="peak 0 dB" />
<path
         d="m 118,21.2792 h 20 v 2 h -20 z"
       style="fill:#607524;fill-opacity:{{peak_13}}"
         id="PEAK_13"
         aria-label="peak -1 dB" />
<path
         d="m 118,24.0569 h 20 v 2 h -20 z"
       style="fill:#607524;fill-opacity:{{peak_12}}"
         id="PEAK_12"
         aria-label="peak -2 dB" />
<path
         d="m 118,26.8347 h 20 v 2 h -20 z"
       style="fill:#607524;fill-opacity:{{peak_11}}"
         id="PEAK_11"
         aria-label="peak -3 dB" />
<path
         d="m 118,29.6125 h 20 v 2 h -20 z"
       style="fill:#607524;fill-opacity:{{peak_10}}"
         id="PEAK_10"
         aria-label="peak -4 dB" />
<path
         d="m 118,32.3903 h 20 v 2 h -20 z"
       style="fill:#607524;fill-opacity:{{peak_09}}"
         id="PEAK_09"
         aria-label="peak -5 dB" />
<path
         d="m 118,35.168 h 20 v 2 h -20 z"
       style="fill:#607524;fill-opacity:{{peak_08}}"
         id="PEAK_08"
         aria-label="peak -6 dB" />
<path
         d="m 118,37.9458 h 20 v 2 h -20 z"
       style="fill:#607524;fill-opacity:{{peak_07}}"
         id="PEAK_07"
         aria-label="peak -7dB" />
<path
         d="m 118,40.7236 h 20 v 2 h -20 z"
       style="fill:#607524;fill-opacity:{{peak_06}}"
         id="PEAK_06"
         aria-label="peak -8dB" />
<path
         d="m 118,43.5014 h 20 v 2 h -20 z"
       style="fill:#607524;fill-opacity:{{peak_05}}"
         id="PEAK_05"
         aria-label="peak -10dB" />
<path
         d="m 118,46.2792 h 20 v 2 h -20 z"
       style="fill:#607524;fill-opacity:{{peak_04}}"
         id="PEAK_04"
         aria-label="peak -13dB" />
<path
         d="m 118,49.0569 h 20 v 2 h -20 z"
       style="fill:#607524;fill-opacity:{{peak_03}}"
         id="PEAK_03"
         aria-label="peak -17dB" />
<path
         d="m 118,51.8347 h 20 v 2 h -20 z"
       style="fill:#607524;fill-opacity:{{peak_02}}"
         id="PEAK_02"
         aria-label="peak -20dB" />
<path
         d="m 118,54.6125 h 20 v 2 h -20 z"
       style="fill:#607524;fill-opacity:{{peak_01}}"
         id="PEAK_01"
         aria-label="Peak -30 dB" />
       <path
         id="PEAK_00"
       style="fill:#607524;fill-opacity:{{peak_00}}"
         d="m 118,57.39027 h 20 v 2 h -20 z"
         aria-label="peak -36dB" />       
       </g>
</svg>
