<?xml version="1.0" encoding="UTF-8" standalone="no"?>
<svg
   version="1.1"
   id="clear_x5F_day"
   x="0px"
   y="0px"
   viewBox="0 0 24 24"
   enable-background="new 0 0 24 24"
   xml:space="preserve"
   sodipodi:docname="clear_day.svg"
   inkscape:version="1.4.2 (1:1.4.2+202505120737+ebf0e940d0)"
   xmlns:inkscape="http://www.inkscape.org/namespaces/inkscape"
   xmlns:sodipodi="http://sodipodi.sourceforge.net/DTD/sodipodi-0.dtd"
   xmlns="http://www.w3.org/2000/svg"
   xmlns:svg="http://www.w3.org/2000/svg"><defs
   id="defs10">
	
	
	
	
	
	
	
	
	
	
</defs><sodipodi:namedview
   id="namedview10"
   pagecolor="#ffffff"
   bordercolor="#666666"
   borderopacity="1.0"
   inkscape:showpageshadow="2"
   inkscape:pageopacity="0.0"
   inkscape:pagecheckerboard="0"
   inkscape:deskcolor="#d1d1d1"
   inkscape:zoom="33.25"
   inkscape:cx="12"
   inkscape:cy="12"
   inkscape:window-width="1920"
   inkscape:window-height="1011"
   inkscape:window-x="0"
   inkscape:window-y="32"
   inkscape:window-maximized="1"
   inkscape:current-layer="clear_x5F_day" />
<rect
   x="0.0"
   y="0.0"
   width="24.0"
   height="24.0"
   fill="#ff0000"
   stroke="none"
   data-bg="1"
   id="rect1" /><rect
   width="24"
   height="24"
   fill="#ff0000"
   stroke="white"
   stroke-width="1px"
   id="rect2"
   style="stroke:none;stroke-opacity:1"
   x="0"
   y="0" /><path
   fill-rule="evenodd"
   clip-rule="evenodd"
   d="m 12.0005,6 c -3.3141,0 -6,2.687 -6,6 0,3.313 2.6859,6 6,6 3.313,0 6,-2.687 6,-6 0,-3.313 -2.687,-6 -6,-6 z M 12,17 C 9.2432,17 7,14.7568 7,12 7,9.2432 9.2432,7 12,7 c 2.7568,0 5,2.2432 5,5 0,2.7568 -2.2432,5 -5,5 z"
   fill="#ff0000"
   stroke="white"
   stroke-width="1px"
   id="path2"
   style="stroke:none;stroke-opacity:1;fill:#ffffff;fill-opacity:1" /><path
   fill-rule="evenodd"
   clip-rule="evenodd"
   d="m 12.0004,5 v 0 c -0.2761,0 -0.5,-0.2239 -0.5,-0.5 v -2 c 0,-0.2761 0.2239,-0.5 0.5,-0.5 v 0 c 0.2761,0 0.5,0.2239 0.5,0.5 v 2 c 0,0.2761 -0.2239,0.5 -0.5,0.5 z"
   fill="#ff0000"
   stroke="white"
   stroke-width="1px"
   id="path3"
   style="stroke:#ffffff;stroke-opacity:1" /><path
   fill-rule="evenodd"
   clip-rule="evenodd"
   d="m 12.0004,22 v 0 c -0.2761,0 -0.5,-0.2239 -0.5,-0.5 v -2 c 0,-0.2761 0.2239,-0.5 0.5,-0.5 v 0 c 0.2761,0 0.5,0.2239 0.5,0.5 v 2 c 0,0.2761 -0.2239,0.5 -0.5,0.5 z"
   fill="#ffffff"
   stroke="none"
   id="path4"
   style="stroke:#ffffff;stroke-width:1px;stroke-opacity:1" /><path
   fill-rule="evenodd"
   clip-rule="evenodd"
   d="m 5.0004,12 v 0 c 0,0.2761 -0.2239,0.5 -0.5,0.5 h -2 c -0.2761,0 -0.5,-0.2239 -0.5,-0.5 v 0 c 0,-0.2761 0.2239,-0.5 0.5,-0.5 h 2 c 0.2761,0 0.5,0.2239 0.5,0.5 z"
   fill="#ff0000"
   stroke="white"
   stroke-width="1px"
   id="path5"
   style="stroke:#ffffff;stroke-opacity:1" /><path
   fill-rule="evenodd"
   clip-rule="evenodd"
   d="m 22.0004,12 v 0 c 0,0.2761 -0.2239,0.5 -0.5,0.5 h -2 c -0.2761,0 -0.5,-0.2239 -0.5,-0.5 v 0 c 0,-0.2761 0.2239,-0.5 0.5,-0.5 h 2 c 0.2761,0 0.5,0.2239 0.5,0.5 z"
   fill="#ff0000"
   stroke="white"
   stroke-width="1px"
   id="path6"
   style="stroke:#ffffff;stroke-opacity:1" /><path
   fill-rule="evenodd"
   clip-rule="evenodd"
   d="m 16.9501,7.0503 v 0 c -0.1953,-0.1953 -0.1953,-0.5118 0,-0.7071 L 18.3643,4.929 c 0.1953,-0.1953 0.5118,-0.1953 0.7071,0 v 0 c 0.1953,0.1953 0.1953,0.5118 0,0.7071 l -1.4142,1.4142 c -0.1952,0.1952 -0.5118,0.1952 -0.7071,0 z"
   fill="#ff0000"
   stroke="white"
   stroke-width="1px"
   id="path7"
   style="stroke:#ffffff;stroke-opacity:1" /><path
   fill-rule="evenodd"
   clip-rule="evenodd"
   d="m 4.9293,19.0711 v 0 c -0.1953,-0.1953 -0.1953,-0.5118 0,-0.7071 l 1.4142,-1.4142 c 0.1953,-0.1953 0.5118,-0.1953 0.7071,0 v 0 c 0.1953,0.1953 0.1953,0.5118 0,0.7071 l -1.4142,1.4142 c -0.1952,0.1952 -0.5118,0.1952 -0.7071,0 z"
   fill="#ff0000"
   stroke="white"
   stroke-width="1px"
   id="path8"
   style="stroke:#ffffff;stroke-opacity:1" /><path
   fill-rule="evenodd"
   clip-rule="evenodd"
   d="m 7.0507,7.0503 v 0 c -0.1953,0.1953 -0.5118,0.1953 -0.7071,0 L 4.9293,5.636 C 4.734,5.4407 4.734,5.1242 4.9293,4.9289 v 0 c 0.1953,-0.1953 0.5118,-0.1953 0.7071,0 l 1.4142,1.4142 c 0.1953,0.1953 0.1953,0.5119 10e-5,0.7072 z"
   fill="#ff0000"
   stroke="white"
   stroke-width="1px"
   id="path9"
   style="stroke:#ffffff;stroke-opacity:1" /><path
   fill-rule="evenodd"
   clip-rule="evenodd"
   d="m 19.0715,19.0711 v 0 c -0.1953,0.1953 -0.5118,0.1953 -0.7071,0 l -1.4142,-1.4142 c -0.1953,-0.1953 -0.1953,-0.5118 0,-0.7071 v 0 c 0.1953,-0.1953 0.5118,-0.1953 0.7071,0 l 1.4142,1.4142 c 0.1952,0.1952 0.1952,0.5118 0,0.7071 z"
   fill="#ff0000"
   stroke="white"
   stroke-width="1px"
   id="path10"
   style="stroke:#ffffff;stroke-opacity:1" />
</svg>
