<?xml version="1.0" encoding="UTF-8" standalone="no"?>
<svg
   version="1.1"
   id="cloudy"
   x="0px"
   y="0px"
   viewBox="0 0 24 24"
   enable-background="new 0 0 24 24"
   xml:space="preserve"
   sodipodi:docname="cloudy.svg"
   inkscape:version="1.4.2 (1:1.4.2+202505120737+ebf0e940d0)"
   xmlns:inkscape="http://www.inkscape.org/namespaces/inkscape"
   xmlns:sodipodi="http://sodipodi.sourceforge.net/DTD/sodipodi-0.dtd"
   xmlns="http://www.w3.org/2000/svg"
   xmlns:svg="http://www.w3.org/2000/svg"><defs
   id="defs3">
	
	
	
</defs><sodipodi:namedview
   id="namedview3"
   pagecolor="#ffffff"
   bordercolor="#666666"
   borderopacity="1.0"
   inkscape:showpageshadow="2"
   inkscape:pageopacity="0.0"
   inkscape:pagecheckerboard="0"
   inkscape:deskcolor="#d1d1d1"
   inkscape:zoom="23.5113"
   inkscape:cx="11.994233"
   inkscape:cy="11.994233"
   inkscape:window-width="1920"
   inkscape:window-height="1011"
   inkscape:window-x="0"
   inkscape:window-y="32"
   inkscape:window-maximized="1"
   inkscape:current-layer="cloudy" />
<rect
   x="0.0"
   y="0.0"
   width="24.0"
   height="24.0"
   fill="#ff0000"
   stroke="none"
   data-bg="1"
   id="rect1" /><rect
   width="24"
   height="24"
   fill="#ff0000"
   stroke="#ffffff"
   stroke-width="1px"
   id="rect2"
   x="0"
   y="0"
   style="stroke:none;stroke-opacity:1" /><path
   fill-rule="evenodd"
   clip-rule="evenodd"
   d="M 20.8403,6.4685 C 20.274,4.0722 18.2131,2.2941 15.75,2.2941 c -2.2434,0 -4.1527,1.4763 -4.9044,3.5506 0.3456,0.0278 0.6844,0.0732 1.0164,0.1465 0.6582,-1.585 2.1508,-2.6974 3.8883,-2.6974 1.9502,0 3.6426,1.3999 4.1162,3.4048 l 0.1768,0.7441 0.7637,0.0254 c 1.2295,0.0405 2.1934,1.0986 2.1934,2.4082 0,1.333 -1.0146,2.4175 -2.2627,2.4175 h -0.9351 c 0.4901,0.2424 0.927,0.5667 1.2916,0.9625 C 22.7262,13.0681 24,11.6356 24,9.8762 24,8.0251 22.5937,6.5268 20.8403,6.4685 Z"
   fill="#ff0000"
   stroke="#ffffff"
   stroke-width="1px"
   id="path2"
   style="stroke:none;stroke-opacity:1;fill:#ffffff;fill-opacity:1;stroke-width:0.3;stroke-dasharray:none" /><path
   d="m 10.2442,6.2941 c 3.2065,0 5.9841,2.1664 6.7546,5.2684 l 0.1824,0.7346 0.7565,0.0239 c 2.146,0.0677 3.827,1.7899 3.827,3.9207 0,2.1697 -1.7726,3.9348 -3.9513,3.9348 H 3.6993 C 2.2109,20.1764 1,18.9711 1,17.4894 1,16.3899 1.6649,15.413 2.694,15.0006 l 0.7008,-0.2808 -0.0781,-0.751 c -0.027,-0.2595 -0.0402,-0.4995 -0.0402,-0.7336 0,-3.8273 3.1258,-6.9411 6.9677,-6.9411 m 0,-1 c -4.4005,0 -7.9677,3.5543 -7.9677,7.9412 0,0.2836 0.017,0.5627 0.0455,0.8372 C 0.9629,14.6171 0,15.9387 0,17.4894 c 0,2.0353 1.6561,3.687 3.6992,3.687 h 14.1141 c 2.7352,0 4.9513,-2.2099 4.9513,-4.9348 0,-2.6729 -2.1342,-4.8361 -4.7954,-4.9202 -0.8593,-3.46 -3.9871,-6.0273 -7.725,-6.0273 z"
   fill="#ff0000"
   stroke="#ffffff"
   stroke-width="1px"
   id="path3"
   style="stroke:none;stroke-opacity:1;fill:#ffffff;fill-opacity:1;stroke-width:0.3;stroke-dasharray:none" />
</svg>
