<?xml version="1.0" encoding="UTF-8" standalone="no"?>
<svg
   version="1.1"
   id="mostly_x5F_clear_x5F_day"
   x="0px"
   y="0px"
   viewBox="0 0 24.0002 24"
   enable-background="new 0 0 24.0002 24"
   xml:space="preserve"
   sodipodi:docname="mostly_clear_day.svg"
   inkscape:version="1.4.2 (1:1.4.2+202505120737+ebf0e940d0)"
   xmlns:inkscape="http://www.inkscape.org/namespaces/inkscape"
   xmlns:sodipodi="http://sodipodi.sourceforge.net/DTD/sodipodi-0.dtd"
   xmlns="http://www.w3.org/2000/svg"
   xmlns:svg="http://www.w3.org/2000/svg"><defs
   id="defs11">
	
	
	
	
	
	
	
	
	
	
	
	
</defs><sodipodi:namedview
   id="namedview11"
   pagecolor="#ffffff"
   bordercolor="#666666"
   borderopacity="1.0"
   inkscape:showpageshadow="2"
   inkscape:pageopacity="0.0"
   inkscape:pagecheckerboard="0"
   inkscape:deskcolor="#d1d1d1"
   inkscape:zoom="16.624861"
   inkscape:cx="12.030176"
   inkscape:cy="12.030176"
   inkscape:window-width="1920"
   inkscape:window-height="1011"
   inkscape:window-x="0"
   inkscape:window-y="32"
   inkscape:window-maximized="1"
   inkscape:current-layer="mostly_x5F_clear_x5F_day" />
<rect
   x="0.0"
   y="0.0"
   width="24.0002"
   height="24.0"
   fill="#ff0000"
   stroke="none"
   data-bg="1"
   id="rect1" /><rect
   x="0.00019999999"
   width="24"
   height="24"
   fill="#ff0000"
   stroke="#ffffff"
   stroke-width="1px"
   id="rect9"
   y="0"
   style="stroke:none" /><path
   d="m 9,10.0003 c 2.7609,0 5.1526,1.8724 5.8163,4.5533 l 0.182,0.7352 0.7571,0.024 C 17.5748,15.3704 19,16.8364 19,18.6503 c 0,1.8472 -1.5028,3.35 -3.35,3.35 H 3.25 C 2.0094,22.0003 1,20.991 1,19.7503 1,18.8293 1.5547,18.0112 2.4131,17.6661 L 3.1123,17.385 3.0348,16.6354 C 3.0114,16.4094 3,16.2017 3,16.0003 c 0,-3.3084 2.6917,-6 6,-6 m 0,-1 c -3.866,0 -7,3.133 -7,7 0,0.25 0.015,0.496 0.04,0.738 -1.194,0.48 -2.04,1.645 -2.04,3.012 0,1.794 1.4551,3.25 3.25,3.25 h 12.4 c 2.403,0 4.35,-1.948 4.35,-4.35 0,-2.356 -1.875,-4.263 -4.213,-4.337 C 15.032,11.2633 12.2841,9.0003 9,9.0003 Z"
   fill="#ff0000"
   stroke="#ffffff"
   stroke-width="1px"
   id="path11"
   style="fill:#ffffff;fill-opacity:1;stroke:none" />
<path
   fill-rule="evenodd"
   clip-rule="evenodd"
   d="m 11.3215,3.5328 v 0 C 11.0664,3.6385 10.7739,3.5173 10.6682,3.2622 L 9.9028,1.4145 C 9.7971,1.1594 9.9183,0.8669 10.1734,0.7612 v 0 c 0.2551,-0.1057 0.5476,0.0155 0.6533,0.2706 l 0.7654,1.8478 c 0.1056,0.2551 -0.0155,0.5476 -0.2706,0.6532 z"
   fill="#ff0000"
   stroke="#ffffff"
   stroke-width="1px"
   id="path1"
   style="fill:#ffffff;fill-opacity:1;stroke:none" /><path
   fill-rule="evenodd"
   clip-rule="evenodd"
   d="m 7.5331,7.3212 v 0 C 7.4274,7.5763 7.1349,7.6975 6.8798,7.5918 L 5.0321,6.8264 C 4.7769,6.7208 4.6558,6.4283 4.7615,6.1732 v 0 C 4.8671,5.918 5.1596,5.7969 5.4147,5.9026 L 7.2625,6.668 c 0.2551,0.1056 0.3763,0.3981 0.2706,0.6532 z"
   fill="#ff0000"
   stroke="#ffffff"
   stroke-width="1px"
   id="path4"
   style="fill:#ffffff;fill-opacity:1;stroke:none" /><path
   fill-rule="evenodd"
   clip-rule="evenodd"
   d="m 11.3214,3.5329 v 0 C 11.0663,3.6386 10.7738,3.5174 10.6681,3.2623 L 9.9027,1.4145 C 9.797,1.1594 9.9182,0.8669 10.1733,0.7613 v 0 c 0.2551,-0.1057 0.5476,0.0155 0.6533,0.2706 l 0.7654,1.8478 c 0.1056,0.255 -0.0155,0.5475 -0.2706,0.6532 z"
   fill="#ff0000"
   stroke="#ffffff"
   stroke-width="1px"
   id="path6"
   style="fill:#ffffff;fill-opacity:1;stroke:none" /><path
   fill-rule="evenodd"
   clip-rule="evenodd"
   d="m 7.533,7.3213 v 0 C 7.4273,7.5764 7.1348,7.6975 6.8797,7.5919 L 5.0319,6.8265 C 4.7768,6.7208 4.6557,6.4283 4.7613,6.1732 v 0 C 4.867,5.9181 5.1595,5.7969 5.4146,5.9026 L 7.2624,6.668 C 7.5175,6.7737 7.6387,7.0661 7.533,7.3213 Z"
   fill="#ff0000"
   stroke="#ffffff"
   stroke-width="1px"
   id="path9"
   style="fill:#ffffff;fill-opacity:1;stroke:none" /><path
   fill-rule="evenodd"
   clip-rule="evenodd"
   d="m 9.0005,9.5004 c 0.0168,0 0.0327,0.004 0.0494,0.0042 C 9.303,6.9828 11.4127,5 13.9999,5 c 2.7568,0 5,2.2432 5,5 0,2.2724 -1.5334,4.1741 -3.613,4.7798 l 0.0052,0.0213 0.3789,0.0117 c 0.4835,0.0154 0.9387,0.1255 1.3593,0.299 1.7192,-1.0551 2.87,-2.9467 2.87,-5.1118 0,-3.3137 -2.6863,-6 -6,-6 C 10.8276,4 8.2368,6.4643 8.0214,9.5823 8.3416,9.5336 8.6668,9.5004 9.0005,9.5004 Z"
   fill="#ff0000"
   stroke="#ffffff"
   stroke-width="1px"
   id="path10"
   style="stroke:none;fill:#ffffff;fill-opacity:1" /><path
   fill-rule="evenodd"
   clip-rule="evenodd"
   d="m 23.239,6.1732 v 0 c 0.1057,0.2551 -0.0155,0.5476 -0.2706,0.6533 L 21.1206,7.5919 C 20.8655,7.6976 20.573,7.5764 20.4673,7.3213 v 0 C 20.3616,7.0662 20.4828,6.7737 20.7379,6.668 l 1.8478,-0.7654 c 0.2552,-0.1057 0.5477,0.0154 0.6533,0.2706 z"
   fill="#ff0000"
   stroke="#ffffff"
   stroke-width="1px"
   id="path2"
   style="stroke:none;fill:#ffffff;fill-opacity:1" /><path
   fill-rule="evenodd"
   clip-rule="evenodd"
   d="m 23.239,13.8268 v 0 c -0.1057,0.2551 -0.3982,0.3763 -0.6533,0.2706 L 20.7379,13.332 c -0.2551,-0.1057 -0.3763,-0.3982 -0.2706,-0.6533 v 0 c 0.1057,-0.2551 0.3982,-0.3763 0.6533,-0.2706 l 1.8478,0.7654 c 0.2552,0.1057 0.3763,0.3982 0.2706,0.6533 z"
   fill="#ff0000"
   stroke="#ffffff"
   stroke-width="1px"
   id="path5"
   style="stroke:none;fill:#ffffff;fill-opacity:1" /><path
   fill-rule="evenodd"
   clip-rule="evenodd"
   d="m 23.2389,6.1732 v 0 c 0.1057,0.2551 -0.0155,0.5476 -0.2706,0.6533 L 21.1205,7.5919 C 20.8654,7.6976 20.5729,7.5764 20.4672,7.3213 v 0 C 20.3615,7.0662 20.4827,6.7737 20.7378,6.668 l 1.8478,-0.7654 c 0.2552,-0.1057 0.5477,0.0155 0.6533,0.2706 z"
   fill="#ff0000"
   stroke="#ffffff"
   stroke-width="1px"
   id="path7"
   style="stroke:none;fill:#ffffff;fill-opacity:1" /><path
   fill-rule="evenodd"
   clip-rule="evenodd"
   d="m 16.679,3.5328 v 0 C 16.4239,3.4271 16.3027,3.1346 16.4084,2.8795 L 17.1738,1.0317 C 17.2795,0.7766 17.572,0.6554 17.8271,0.7611 v 0 c 0.2551,0.1057 0.3763,0.3982 0.2706,0.6533 L 17.3323,3.2622 C 17.2266,3.5174 16.9342,3.6385 16.679,3.5328 Z"
   fill="#ff0000"
   stroke="#ffffff"
   stroke-width="1px"
   id="path3"
   style="fill:#ffffff;fill-opacity:1;stroke:none" /><path
   fill-rule="evenodd"
   clip-rule="evenodd"
   d="m 16.6789,3.5329 v 0 C 16.4238,3.4272 16.3026,3.1347 16.4083,2.8796 L 17.1737,1.0318 C 17.2794,0.7767 17.5719,0.6555 17.827,0.7612 v 0 c 0.2551,0.1057 0.3763,0.3982 0.2706,0.6533 L 17.3322,3.2623 C 17.2265,3.5174 16.934,3.6386 16.6789,3.5329 Z"
   fill="#ff0000"
   stroke="#ffffff"
   stroke-width="1px"
   id="path8"
   style="fill:#ffffff;fill-opacity:1;stroke:none" /></svg>
