<?xml version="1.0" encoding="UTF-8" standalone="no"?>
<svg
   version="1.1"
   id="partly_x5F_cloudy_x5F_day"
   x="0px"
   y="0px"
   viewBox="0 0 24 24"
   enable-background="new 0 0 24 24"
   xml:space="preserve"
   sodipodi:docname="partly_cloudy_day.svg"
   inkscape:version="1.4.2 (1:1.4.2+202505120737+ebf0e940d0)"
   xmlns:inkscape="http://www.inkscape.org/namespaces/inkscape"
   xmlns:sodipodi="http://sodipodi.sourceforge.net/DTD/sodipodi-0.dtd"
   xmlns="http://www.w3.org/2000/svg"
   xmlns:svg="http://www.w3.org/2000/svg"><defs
   id="defs8">
	
	
	
	
	
	
	
</defs><sodipodi:namedview
   id="namedview8"
   pagecolor="#ffffff"
   bordercolor="#666666"
   borderopacity="1.0"
   inkscape:showpageshadow="2"
   inkscape:pageopacity="0.0"
   inkscape:pagecheckerboard="0"
   inkscape:deskcolor="#d1d1d1"
   inkscape:zoom="16.625"
   inkscape:cx="12.030075"
   inkscape:cy="12.030075"
   inkscape:window-width="1920"
   inkscape:window-height="1011"
   inkscape:window-x="0"
   inkscape:window-y="32"
   inkscape:window-maximized="1"
   inkscape:current-layer="partly_x5F_cloudy_x5F_day" />
<rect
   x="0.0"
   y="0.0"
   width="24.0"
   height="24.0"
   fill="#ff0000"
   stroke="none"
   data-bg="1"
   id="rect1" /><rect
   width="24"
   height="24"
   fill="#ff0000"
   stroke="#ffffff"
   stroke-width="1px"
   id="rect2"
   x="0"
   y="0"
   style="stroke:none" /><path
   fill-rule="evenodd"
   clip-rule="evenodd"
   d="M 13.5633,6.5883 C 14.1184,6.2178 14.7838,6 15.4996,6 c 1.9297,0 3.5,1.5703 3.5,3.5 0,0.657 -0.1931,1.2654 -0.5095,1.7914 0.2981,0.1616 0.5735,0.3554 0.8163,0.5865 C 19.7392,11.1865 20,10.3759 20,9.4999 c 0,-2.4852 -2.0148,-4.5 -4.5,-4.5 -1.1035,0 -2.101,0.4127 -2.8838,1.072 0.3314,0.1464 0.6466,0.3182 0.9471,0.5164 z"
   fill="#ff0000"
   stroke="#ffffff"
   stroke-width="1px"
   id="path2"
   style="stroke:none;fill:#ffffff;fill-opacity:1" /><path
   d="m 9.9998,6.0003 c 2.7609,0 5.1526,1.8724 5.8163,4.5533 l 0.182,0.7352 0.7571,0.024 c 1.8195,0.0576 3.2446,1.5235 3.2446,3.3374 0,1.8472 -1.5028,3.35 -3.35,3.35 h -12.4 c -1.2406,0 -2.25,-1.0093 -2.25,-2.2499 0,-0.921 0.5547,-1.7391 1.4131,-2.0841 L 4.112,13.3851 4.0346,12.6355 C 4.0112,12.4094 3.9998,12.2016 3.9998,12.0003 c 0,-3.3084 2.6916,-6 6,-6 m 0,-1 c -3.866,0 -7,3.1331 -7,7 0,0.2499 0.015,0.4959 0.04,0.738 -1.194,0.48 -2.04,1.6448 -2.04,3.012 0,1.794 1.4551,3.2499 3.25,3.2499 h 12.4 c 2.403,0 4.35,-1.9479 4.35,-4.35 0,-2.3559 -1.875,-4.2629 -4.213,-4.3369 -0.7551,-3.05 -3.503,-5.313 -6.787,-5.313 z"
   fill="#ff0000"
   stroke="#ffffff"
   stroke-width="1px"
   id="path3"
   style="stroke:none;fill:#ffffff;fill-opacity:1" /><g
   fill="#ff0000"
   stroke="#ffffff"
   stroke-width="1px"
   id="g4"
   style="stroke:none;fill:#ffffff;fill-opacity:1">
		<path
   d="m 13.1562,4.3413 c -0.1963,0 -0.3818,-0.1162 -0.4619,-0.3086 L 12.1201,2.647 c -0.1055,-0.2549 0.0156,-0.5474 0.2705,-0.6533 0.2529,-0.1045 0.5469,0.0151 0.6533,0.2705 l 0.5742,1.3857 c 0.1055,0.2549 -0.0156,0.5474 -0.2705,0.6533 -0.0624,0.0259 -0.1269,0.0381 -0.1914,0.0381 z"
   fill="#ff0000"
   stroke="#ffffff"
   stroke-width="1px"
   id="path4"
   style="stroke:none;fill:#ffffff;fill-opacity:1" />
	</g><g
   fill="#ff0000"
   stroke="#ffffff"
   stroke-width="1px"
   id="g5"
   style="stroke:none;fill:#ffffff;fill-opacity:1">
		<path
   d="m 21.1582,7.6558 c -0.1963,0 -0.3818,-0.1162 -0.4619,-0.3091 -0.1055,-0.2549 0.0156,-0.5474 0.2705,-0.6528 l 1.3867,-0.5737 c 0.2578,-0.105 0.5479,0.0161 0.6533,0.271 0.1054,0.2549 -0.0156,0.5474 -0.2705,0.6528 l -1.3867,0.5737 c -0.0625,0.0259 -0.1279,0.0381 -0.1914,0.0381 z"
   fill="#ff0000"
   stroke="#ffffff"
   stroke-width="1px"
   id="path5"
   style="stroke:none;fill:#ffffff;fill-opacity:1" />
	</g><g
   fill="#ff0000"
   stroke="#ffffff"
   stroke-width="1px"
   id="g6"
   style="stroke:none;fill:#ffffff;fill-opacity:1">
		<path
   d="m 17.8438,4.3413 c -0.0645,0 -0.1289,-0.0122 -0.1914,-0.0381 -0.2549,-0.106 -0.376,-0.3984 -0.2705,-0.6533 l 0.5742,-1.3857 c 0.1064,-0.2554 0.4004,-0.375 0.6533,-0.2705 0.2549,0.106 0.376,0.3984 0.2705,0.6533 L 18.3057,4.0327 C 18.2256,4.2251 18.04,4.3413 17.8438,4.3413 Z"
   fill="#ff0000"
   stroke="#ffffff"
   stroke-width="1px"
   id="path6"
   style="stroke:none;fill:#ffffff;fill-opacity:1" />
	</g><g
   fill="#ff0000"
   stroke="#ffffff"
   stroke-width="1px"
   id="g7"
   style="stroke:none;fill:#ffffff;fill-opacity:1">
		<path
   d="m 22.5449,12.918 c -0.0635,0 -0.1289,-0.0122 -0.1914,-0.0381 l -1.3867,-0.5742 c -0.2549,-0.1055 -0.376,-0.3979 -0.2705,-0.6533 0.1064,-0.2544 0.3975,-0.3765 0.6533,-0.2705 l 1.3867,0.5742 c 0.2549,0.1055 0.376,0.3979 0.2705,0.6533 -0.08,0.1924 -0.2656,0.3086 -0.4619,0.3086 z"
   fill="#ff0000"
   stroke="#ffffff"
   stroke-width="1px"
   id="path7"
   style="stroke:none;fill:#ffffff;fill-opacity:1" />
	</g>
</svg>
