<?xml version="1.0" encoding="UTF-8" standalone="no"?>
<svg
   version="1.1"
   id="tstorm"
   x="0px"
   y="0px"
   viewBox="0 0 24.0001 24"
   enable-background="new 0 0 24.0001 24"
   xml:space="preserve"
   sodipodi:docname="tstorm.svg"
   inkscape:version="1.4.2 (1:1.4.2+202505120737+ebf0e940d0)"
   xmlns:inkscape="http://www.inkscape.org/namespaces/inkscape"
   xmlns:sodipodi="http://sodipodi.sourceforge.net/DTD/sodipodi-0.dtd"
   xmlns="http://www.w3.org/2000/svg"
   xmlns:svg="http://www.w3.org/2000/svg"><defs
   id="defs5">
	
	
	
	
	
</defs><sodipodi:namedview
   id="namedview5"
   pagecolor="#ffffff"
   bordercolor="#666666"
   borderopacity="1.0"
   inkscape:showpageshadow="2"
   inkscape:pageopacity="0.0"
   inkscape:pagecheckerboard="0"
   inkscape:deskcolor="#d1d1d1"
   inkscape:zoom="33.249863"
   inkscape:cx="12.00005"
   inkscape:cy="12.00005"
   inkscape:window-width="1920"
   inkscape:window-height="1011"
   inkscape:window-x="0"
   inkscape:window-y="32"
   inkscape:window-maximized="1"
   inkscape:current-layer="tstorm" />
<rect
   x="0.0"
   y="0.0"
   width="24.0001"
   height="24.0"
   fill="#ff0000"
   stroke="none"
   data-bg="1"
   id="rect1" /><rect
   width="24"
   height="24"
   fill="#ff0000"
   stroke="#ffffff"
   stroke-width="1px"
   id="rect2"
   x="0"
   y="0"
   style="stroke:none" /><path
   fill-rule="evenodd"
   clip-rule="evenodd"
   d="m 16.7667,22.1674 v 0 c -0.2552,-0.1059 -0.3764,-0.3983 -0.2705,-0.6535 l 1.6271,-3.9261 c 0.1057,-0.2552 0.3981,-0.3764 0.6535,-0.2707 0.2552,0.1059 0.3762,0.3985 0.2705,0.6536 l -1.6271,3.9261 c -0.1057,0.2552 -0.3985,0.3763 -0.6535,0.2706 M 2.9772,21.8977 4.6043,17.9717 C 4.71,17.7165 4.5889,17.4239 4.3338,17.3182 4.0786,17.2125 3.786,17.3336 3.6803,17.5887 l -1.6271,3.9261 c -0.1059,0.2552 0.0154,0.5478 0.2705,0.6535 0.2552,0.1058 0.5478,-0.0152 0.6535,-0.2706 M 6.7129,21.8975 8.34,17.9714 C 8.4457,17.7162 8.3246,17.4236 8.0695,17.3179 7.8143,17.2122 7.5217,17.3333 7.416,17.5884 l -1.6271,3.9263 c -0.1057,0.2552 0.0154,0.5476 0.2705,0.6535 0.2552,0.1056 0.5478,-0.0153 0.6535,-0.2707 m 8.8393,-5e-4 0.3432,-0.8289 c 0.1059,-0.2552 -0.0152,-0.5476 -0.2705,-0.6535 -0.2552,-0.1057 -0.5476,0.0155 -0.6535,0.2705 l -0.3432,0.8289 c -0.1059,0.2552 0.0154,0.5476 0.2705,0.6535 0.2552,0.1056 0.5478,-0.0155 0.6535,-0.2705 m -6.9715,3e-4 0.3434,-0.8287 C 9.0298,20.8136 8.9087,20.521 8.6536,20.4151 8.3984,20.3094 8.1058,20.4306 8.0001,20.6858 l -0.3434,0.8287 c -0.1057,0.2552 0.0154,0.5478 0.2707,0.6535 0.255,0.1058 0.5475,-0.0153 0.6533,-0.2707 m -3.7358,2e-4 0.3434,-0.8285 C 5.294,20.8138 5.1728,20.5212 4.9176,20.4155 4.6626,20.3096 4.3698,20.4309 4.2641,20.686 l -0.3432,0.8289 c -0.1057,0.255 0.0154,0.5476 0.2705,0.6535 0.2554,0.1055 0.5478,-0.0155 0.6535,-0.2709 m 11.7208,-2.446 0.6138,-1.4808 c 0.1055,-0.2552 -0.0155,-0.5478 -0.2707,-0.6535 -0.2552,-0.1057 -0.5478,0.0155 -0.6533,0.2707 l -0.6138,1.4808 c -0.1057,0.255 0.0155,0.5478 0.2705,0.6533 0.2552,0.1059 0.548,-0.0154 0.6535,-0.2705 m -10.7071,8e-4 0.6136,-1.4808 C 6.5779,17.7163 6.4567,17.4237 6.2015,17.318 5.9465,17.2123 5.6537,17.3334 5.548,17.5885 l -0.6134,1.4808 c -0.1057,0.2552 0.0154,0.5479 0.2705,0.6535 0.2552,0.106 0.5478,-0.0153 0.6535,-0.2705"
   fill="#ffffff"
   stroke="none"
   id="path2"
   style="stroke-width:1px" /><path
   fill-rule="evenodd"
   clip-rule="evenodd"
   d="M 15.6378,13.6998 H 12.642 l 0.5339,-3.1912 C 13.2433,10.1061 12.933,9.7396 12.525,9.7396 H 9.2763 c -0.3258,0 -0.6029,0.2375 -0.6525,0.5594 L 7.709,16.2395 c -0.0615,0.3997 0.2478,0.7604 0.6523,0.7604 h 2.5162 l -0.0994,0.7466 -0.546,3.9535 c -0.0312,0.2256 0.0563,0.4515 0.2314,0.5975 0.1091,0.0795 0.1091,0.0795 0.2322,0.1288 0.2874,0.0958 0.603,-0.0162 0.7656,-0.2718 l 4.7332,-7.4405 c 0.2794,-0.4393 -0.036,-1.0142 -0.5567,-1.0142 z"
   fill="#ff0000"
   stroke="#ffffff"
   stroke-width="1px"
   id="path3" /><path
   d="m 17.7869,7.3133 c -0.7551,-3.0499 -3.5031,-5.313 -6.7871,-5.313 -3.866,0 -7,3.1331 -7,7.0001 0,0.2499 0.015,0.4958 0.04,0.738 -1.194,0.48 -2.04,1.6449 -2.04,3.012 0,1.794 1.4551,3.2499 3.25,3.2499 h 1.4844 l 0.1541,-1 H 5.2498 c -1.2406,0 -2.25,-1.0093 -2.25,-2.2499 0,-0.921 0.5547,-1.7391 1.4131,-2.0842 L 5.112,10.3851 5.0345,9.6355 C 5.0111,9.4094 4.9998,9.2016 4.9998,9.0004 c 0,-3.3085 2.6917,-6.0001 6,-6.0001 2.7609,0 5.1527,1.8724 5.8164,4.5533 l 0.182,0.7352 0.7571,0.0239 c 1.8193,0.0575 3.2445,1.5235 3.2445,3.3374 0,1.8472 -1.5028,3.35 -3.35,3.35 h -0.4962 c -0.0356,0.0847 -0.0652,0.1716 -0.1155,0.2507 l -0.4766,0.7493 h 1.0883 c 2.403,0 4.35,-1.9479 4.35,-4.35 0,-2.3557 -1.875,-4.2629 -4.2129,-4.3368 z"
   fill="#ff0000"
   stroke="#ffffff"
   stroke-width="1px"
   id="path4"
   style="fill:#ffffff;fill-opacity:1;stroke:none" /><path
   fill-rule="evenodd"
   clip-rule="evenodd"
   d="m 24.0001,8.5821 c 0,-1.851 -1.4062,-3.3494 -3.1597,-3.4077 C 20.274,2.7781 18.2132,1 15.7501,1 14.3126,1 13.0167,1.6107 12.0702,2.592 l 1.0925,0.3585 c 0.7173,-0.5899 1.6104,-0.9507 2.5876,-0.9507 1.9502,0 3.6426,1.3999 4.1162,3.4048 l 0.1768,0.7441 0.7637,0.0254 c 1.2295,0.0405 2.1934,1.0986 2.1934,2.4082 0,1.0565 -0.6414,1.9471 -1.5271,2.2752 l 0.1562,0.9901 c 1.3659,-0.4057 2.3706,-1.7045 2.3706,-3.2655 z"
   fill="#ff0000"
   stroke="#ffffff"
   stroke-width="1px"
   id="path5"
   style="stroke:none;fill:#ffffff;fill-opacity:1" />
</svg>
