<?xml version="1.0" encoding="UTF-8"?>
<svg version="1.1" viewBox="0 0 48 48" xmlns="http://www.w3.org/2000/svg">
<rect width="48" height="48" data-bg="1"/>
<path d="m5 22h32c3.31 0 6 2.69 6 6s-2.69 6-6 6h-2v-4h2c1.1 0 2-0.9 2-2s-0.9-2-2-2h-32z" fill="#858585"/>
<path d="m13 28h-8v4h8c1.1 0 2 0.9 2 2s-0.9 2-2 2h-2v4h2c3.31 0 6-2.69 6-6s-2.69-6-6-6z" fill="#858585"/>
<path d="m28 14c0-3.31-2.69-6-6-6h-2v4h2c1.1 0 2 0.9 2 2s-0.9 2-2 2h-17v4h17c3.31 0 6-2.69 6-6z" fill="#858585"/>
<path d="m32.7 31.87-1-1.74-3.7 2.14V28h-2v4.27l-3.7-2.14-1 1.74L25 34l-3.7 2.13 1 1.74 3.7-2.13V40h2v-4.26l3.7 2.13 1-1.74L29 34l3.7-2.13ZM41.7 11.87l-1-1.74-3.7 2.14V8h-2v4.27l-3.7-2.14-1 1.74L34 14l-3.7 2.13 1 1.74 3.7-2.13V20h2v-4.26l3.7 2.13 1-1.74L38 14l3.7-2.13Z" clip-rule="evenodd" fill="#6ce0ff" fill-rule="evenodd" stroke="#fff" stroke-width="1px"/>
</svg>
