<?xml version="1.0" encoding="UTF-8"?>
<svg version="1.1" viewBox="0 0 48 48" xmlns="http://www.w3.org/2000/svg">
<rect width="48" height="48" data-bg="1"/>
<path d="m20 11v4h2c1.1 0 2 0.9 2 2s-0.9 2-2 2h-17v4h17c3.31 0 6-2.69 6-6s-2.69-6-6-6h-2zm-15 14v4h32c1.1 0 2 0.9 2 2s-0.9 2-2 2h-2v4h2c3.31 0 6-2.69 6-6s-2.69-6-6-6h-32z" fill="#8a8a8a"/>
<path d="m41.7 14.87-1-1.74-3.7 2.14V11h-2v4.27l-3.7-2.14-1 1.74L34 17l-3.7 2.13 1 1.74 3.7-2.13V23h2v-4.26l3.7 2.13 1-1.74L38 17l3.7-2.13Z" clip-rule="evenodd" fill="#7be4ff" fill-rule="evenodd" stroke="#fff" stroke-width="1px"/>
</svg>
