<?xml version="1.0" encoding="UTF-8"?>
<svg version="1.1" viewBox="0 0 48 48" xmlns="http://www.w3.org/2000/svg">
<rect width="48" height="48" data-bg="1"/>
<path d="m33.876 6.76a7.92 7.92 0 0 1 7.364 7.364 7.916 7.916 0 0 0 1.934 4.67 7.919 7.919 0 0 1 0 10.413 7.91 7.91 0 0 0-1.934 4.669 7.92 7.92 0 0 1-7.364 7.364 7.91 7.91 0 0 0-4.669 1.934 7.92 7.92 0 0 1-10.414 0 7.91 7.91 0 0 0-4.669-1.934 7.92 7.92 0 0 1-7.364-7.364 7.91 7.91 0 0 0-1.934-4.669 7.919 7.919 0 0 1 0-10.413 7.916 7.916 0 0 0 1.934-4.67 7.92 7.92 0 0 1 7.364-7.364 7.91 7.91 0 0 0 4.67-1.934 7.92 7.92 0 0 1 10.413 0 7.91 7.91 0 0 0 4.67 1.934z" fill="#ffae00" stroke="#fff" stroke-width="1px"/>
</svg>
