<?xml version="1.0" encoding="UTF-8"?>
<svg version="1.1" viewBox="0 0 49 49" xmlns="http://www.w3.org/2000/svg">
<rect width="49" height="49" data-bg="1"/>
<path d="m30.406 31.085c-3.405 3.576-3.313 9.143 0.275 12.611 3.682 3.559 9.652 3.559 13.334 0s3.682-9.328 0-12.887a6.223 6.223 0 0 0-0.059-0.056l-4.511-4.36a15.969 15.969 0 0 1-9.04 4.692z" clip-rule="evenodd" fill="#65ddff" fill-rule="evenodd" stroke="#fff" stroke-width="1px"/>
<path d="m28.175 27.273-.253.01H10.927l-.069-.001c-4.19 0-7.581-3.373-7.581-7.527 0-4.153 3.39-7.526 7.581-7.526 1.455 0 2.813.406 3.966 1.11l.628.384.125-.726c.992-5.75 6.04-10.132 12.12-10.132 6.794 0 12.296 5.47 12.296 12.209 0 6.58-5.246 11.95-11.818 12.2Z" fill="#f00" stroke="#fff" stroke-width="1px"/>
<path d="m28.175 27.273-.253.01H10.927l-.069-.001c-4.19 0-7.581-3.373-7.581-7.527 0-4.153 3.39-7.526 7.581-7.526 1.455 0 2.813.406 3.966 1.11l.628.384.125-.726c.992-5.75 6.04-10.132 12.12-10.132 6.794 0 12.296 5.47 12.296 12.209 0 6.58-5.246 11.95-11.818 12.2Z" fill="#f00" stroke="#fff" stroke-width="1px"/>
<path d="m28.175 27.273-.253.01H10.927l-.069-.001c-4.19 0-7.581-3.373-7.581-7.527 0-4.153 3.39-7.526 7.581-7.526 1.455 0 2.813.406 3.966 1.11l.628.384.125-.726c.992-5.75 6.04-10.132 12.12-10.132 6.794 0 12.296 5.47 12.296 12.209 0 6.58-5.246 11.95-11.818 12.2Z" fill="#cacaca" stroke="#fff" stroke-width="1px"/>
</svg>
