<?xml version="1.0" encoding="UTF-8"?>
<svg version="1.1" viewBox="0 0 49 49" xmlns="http://www.w3.org/2000/svg">
<rect width="49" height="49" data-bg="1"/>
<path d="M40.881 25.078c.263-.36.728-.536 1.126-.336a4.641 4.641 0 0 1 2.55 3.834 4.64 4.64 0 0 0 1.133 2.737 4.64 4.64 0 0 1 0 6.102 4.64 4.64 0 0 0-1.134 2.737 4.64 4.64 0 0 1-4.315 4.315 4.64 4.64 0 0 0-2.737 1.134 4.64 4.64 0 0 1-6.102 0 4.64 4.64 0 0 0-2.737-1.134 4.64 4.64 0 0 1-4.316-4.315 4.64 4.64 0 0 0-1.133-2.737 4.642 4.642 0 0 1-.56-5.306c.157-.283.467-.436.79-.436h4.856l.234-.014a16.007 16.007 0 0 0 12.345-6.58Z" clip-rule="evenodd" fill="#ffba00" fill-rule="evenodd" stroke="#fff" stroke-width="1px"/>
<path d="m28.177 27.664-.252.01H10.969l-.042-.001h-.068c-4.19 0-7.582-3.374-7.582-7.528s3.391-7.527 7.582-7.527c1.455 0 2.813.406 3.966 1.11l.628.383.125-.725c.992-5.751 6.04-10.133 12.12-10.133 6.796 0 12.299 5.47 12.299 12.21 0 6.581-5.247 11.951-11.82 12.2Z" fill="#f00" stroke="#fff" stroke-width="1px"/>
<path d="m28.177 27.664-.252.01H10.969l-.042-.001h-.068c-4.19 0-7.582-3.374-7.582-7.528s3.391-7.527 7.582-7.527c1.455 0 2.813.406 3.966 1.11l.628.383.125-.725c.992-5.751 6.04-10.133 12.12-10.133 6.796 0 12.299 5.47 12.299 12.21 0 6.581-5.247 11.951-11.82 12.2Z" fill="#f00" stroke="#fff" stroke-width="1px"/>
<path d="m28.177 27.664-.252.01H10.969l-.042-.001h-.068c-4.19 0-7.582-3.374-7.582-7.528s3.391-7.527 7.582-7.527c1.455 0 2.813.406 3.966 1.11l.628.383.125-.725c.992-5.751 6.04-10.133 12.12-10.133 6.796 0 12.299 5.47 12.299 12.21 0 6.581-5.247 11.951-11.82 12.2Z" fill="#949494" stroke="#fff" stroke-width="1px"/>
</svg>
