<?xml version="1.0" encoding="UTF-8" standalone="no"?>
<svg
   fill="none"
   viewBox="0 0 49 49"
   version="1.1"
   id="svg2"
   sodipodi:docname="cloudy_with_sunny_dark.svg"
   inkscape:version="1.4.3 (1:1.4.3+202512261035+0d15f75042)"
   xmlns:inkscape="http://www.inkscape.org/namespaces/inkscape"
   xmlns:sodipodi="http://sodipodi.sourceforge.net/DTD/sodipodi-0.dtd"
   xmlns="http://www.w3.org/2000/svg"
   xmlns:svg="http://www.w3.org/2000/svg">
  <defs
     id="defs2" />
  <sodipodi:namedview
     id="namedview2"
     pagecolor="#ffffff"
     bordercolor="#666666"
     borderopacity="1.0"
     inkscape:showpageshadow="2"
     inkscape:pageopacity="0.0"
     inkscape:pagecheckerboard="0"
     inkscape:deskcolor="#d1d1d1"
     inkscape:zoom="16.285714"
     inkscape:cx="24.469299"
     inkscape:cy="24.469299"
     inkscape:window-width="1920"
     inkscape:window-height="1011"
     inkscape:window-x="0"
     inkscape:window-y="32"
     inkscape:window-maximized="1"
     inkscape:current-layer="svg2" />
  <rect
     x="0.0"
     y="0.0"
     width="49.0"
     height="49.0"
     fill="#ff0000"
     stroke="none"
     data-bg="1"
     id="rect1"
     style="fill:#000000;fill-opacity:1" />
  <path
     fill-rule="evenodd"
     d="M40.881 25.078c.263-.36.728-.536 1.126-.336a4.641 4.641 0 0 1 2.55 3.834 4.641 4.641 0 0 0 1.133 2.737 4.64 4.64 0 0 1 0 6.102 4.64 4.64 0 0 0-1.134 2.737 4.64 4.64 0 0 1-4.315 4.315 4.64 4.64 0 0 0-2.737 1.134 4.64 4.64 0 0 1-6.103 0 4.64 4.64 0 0 0-2.736-1.134 4.64 4.64 0 0 1-4.316-4.315 4.64 4.64 0 0 0-1.133-2.737 4.642 4.642 0 0 1-.56-5.306c.157-.283.467-.436.79-.436h4.856l.234-.014a16.008 16.008 0 0 0 12.345-6.58Z"
     clip-rule="evenodd"
     fill="#ff0000"
     stroke="white"
     stroke-width="1px"
     id="path1"
     style="fill:#ffad00;fill-opacity:1;stroke:none" />
  <path
     d="M40.497 15.463c0 6.854-5.463 12.44-12.3 12.7v.01H10.859c-4.464 0-8.082-3.595-8.082-8.028s3.618-8.027 8.082-8.027c1.55 0 2.997.433 4.227 1.183 1.033-5.99 6.287-10.548 12.613-10.548 7.068 0 12.798 5.69 12.798 12.71Z"
     fill="#ff0000"
     stroke="white"
     stroke-width="1px"
     id="path2"
     style="fill:#8e8e8e;fill-opacity:1" />
</svg>
