<?xml version="1.0" encoding="UTF-8" standalone="no"?>
<svg
   fill="none"
   viewBox="0 0 49 49"
   version="1.1"
   id="svg4"
   sodipodi:docname="cloudy_with_rain_light.svg"
   inkscape:version="1.4.3 (1:1.4.3+202512261035+0d15f75042)"
   xmlns:inkscape="http://www.inkscape.org/namespaces/inkscape"
   xmlns:sodipodi="http://sodipodi.sourceforge.net/DTD/sodipodi-0.dtd"
   xmlns="http://www.w3.org/2000/svg"
   xmlns:svg="http://www.w3.org/2000/svg">
  <defs
     id="defs4" />
  <sodipodi:namedview
     id="namedview4"
     pagecolor="#ffffff"
     bordercolor="#666666"
     borderopacity="1.0"
     inkscape:showpageshadow="2"
     inkscape:pageopacity="0.0"
     inkscape:pagecheckerboard="0"
     inkscape:deskcolor="#d1d1d1"
     inkscape:zoom="16.285714"
     inkscape:cx="24.469299"
     inkscape:cy="24.469299"
     inkscape:window-width="1920"
     inkscape:window-height="1011"
     inkscape:window-x="0"
     inkscape:window-y="32"
     inkscape:window-maximized="1"
     inkscape:current-layer="svg4" />
  <rect
     x="0.0"
     y="0.0"
     width="49.0"
     height="49.0"
     fill="#ff0000"
     stroke="none"
     data-bg="1"
     id="rect1"
     style="fill:#000000;fill-opacity:1" />
  <path
     fill-rule="evenodd"
     d="M30.406 31.085c-3.405 3.576-3.313 9.143.275 12.611 3.682 3.559 9.652 3.559 13.334 0 3.682-3.559 3.682-9.328 0-12.887a6.223 6.223 0 0 0-.059-.056l-4.511-4.36a15.969 15.969 0 0 1-9.04 4.692Z"
     clip-rule="evenodd"
     fill="#ff0000"
     stroke="white"
     stroke-width="1px"
     id="path1"
     style="fill:#65ddff;fill-opacity:1;stroke:none" />
  <path
     d="m28.175 27.273-.253.01H10.927l-.069-.001c-4.19 0-7.581-3.373-7.581-7.527 0-4.153 3.39-7.526 7.581-7.526 1.455 0 2.813.406 3.966 1.11l.628.384.125-.726c.992-5.75 6.04-10.132 12.12-10.132 6.794 0 12.296 5.47 12.296 12.209 0 6.58-5.246 11.95-11.818 12.2Z"
     fill="#ff0000"
     stroke="white"
     stroke-width="1px"
     id="path2" />
  <path
     d="m28.175 27.273-.253.01H10.927l-.069-.001c-4.19 0-7.581-3.373-7.581-7.527 0-4.153 3.39-7.526 7.581-7.526 1.455 0 2.813.406 3.966 1.11l.628.384.125-.726c.992-5.75 6.04-10.132 12.12-10.132 6.794 0 12.296 5.47 12.296 12.209 0 6.58-5.246 11.95-11.818 12.2Z"
     fill="#ff0000"
     stroke="white"
     stroke-width="1px"
     id="path3" />
  <path
     d="m28.175 27.273-.253.01H10.927l-.069-.001c-4.19 0-7.581-3.373-7.581-7.527 0-4.153 3.39-7.526 7.581-7.526 1.455 0 2.813.406 3.966 1.11l.628.384.125-.726c.992-5.75 6.04-10.132 12.12-10.132 6.794 0 12.296 5.47 12.296 12.209 0 6.58-5.246 11.95-11.818 12.2Z"
     fill="#ff0000"
     stroke="white"
     stroke-width="1px"
     id="path4"
     style="fill:#cacaca;fill-opacity:1" />
</svg>
