<?xml version="1.0" encoding="UTF-8"?>
<svg version="1.1" viewBox="0 0 49 49" xmlns="http://www.w3.org/2000/svg">
<rect width="49" height="49" data-bg="1"/>
<path d="M40.881 25.078c.263-.36.728-.536 1.126-.336a4.641 4.641 0 0 1 2.55 3.834 4.641 4.641 0 0 0 1.133 2.737 4.64 4.64 0 0 1 0 6.102 4.64 4.64 0 0 0-1.134 2.737 4.64 4.64 0 0 1-4.315 4.315 4.64 4.64 0 0 0-2.737 1.134 4.64 4.64 0 0 1-6.103 0 4.64 4.64 0 0 0-2.736-1.134 4.64 4.64 0 0 1-4.316-4.315 4.64 4.64 0 0 0-1.133-2.737 4.642 4.642 0 0 1-.56-5.306c.157-.283.467-.436.79-.436h4.856l.234-.014a16.008 16.008 0 0 0 12.345-6.58Z" clip-rule="evenodd" fill="#ffad00" fill-rule="evenodd" stroke="#fff" stroke-width="1px"/>
<path d="M40.497 15.463c0 6.854-5.463 12.44-12.3 12.7v.01H10.859c-4.464 0-8.082-3.595-8.082-8.028s3.618-8.027 8.082-8.027c1.55 0 2.997.433 4.227 1.183 1.033-5.99 6.287-10.548 12.613-10.548 7.068 0 12.798 5.69 12.798 12.71Z" fill="#8e8e8e" stroke="#fff" stroke-width="1px"/>
</svg>
