<?xml version="1.0" encoding="UTF-8"?>
<svg version="1.1" viewBox="0 0 48 48" xmlns="http://www.w3.org/2000/svg">
<rect width="48" height="48" data-bg="1"/>
<path d="m21.131 31 5.751-11.78c.588-1.473 1.317-2.428 2.876-2.428h17.178c.038-.427.064-.853.064-1.292C47 6.936 40.009 0 31.394 0c-7.72 0-14.123 5.554-15.389 12.865a9.82 9.82 0 0 0-5.151-1.447C5.41 11.418 1 15.797 1 21.209c0 5.193 4.064 9.429 9.203 9.765V31h10.928Z" clip-rule="evenodd" fill="#bababa" fill-rule="evenodd" stroke="#fff" stroke-width="1px"/>
<path d="m18 33-4.24 4.107a5.655 5.655 0 0 0 0 8.2c2.347 2.266 6.147 2.266 8.48 0a5.655 5.655 0 0 0 0-8.2l-.04-.04L18 33ZM7 22l-4.24 4.107a5.655 5.655 0 0 0 0 8.2c2.347 2.266 6.147 2.266 8.48 0a5.655 5.655 0 0 0 0-8.2l-.04-.04L7 22Z" fill="#10fff0"/>
<path d="M30.667 21 24 34.754h6L29.253 47 44 30.958l-5.333-.026L44 21H30.667Z" clip-rule="evenodd" fill="#fff" fill-rule="evenodd" stroke="#fff" stroke-width="1px"/>
</svg>
