<?xml version="1.0" encoding="UTF-8" standalone="no"?>
<svg
   fill="none"
   viewBox="0 0 48 48"
   version="1.1"
   id="svg4"
   sodipodi:docname="isolated_scattered_thunderstorms_night.svg"
   inkscape:version="1.4.2 (1:1.4.2+202505120737+ebf0e940d0)"
   xmlns:inkscape="http://www.inkscape.org/namespaces/inkscape"
   xmlns:sodipodi="http://sodipodi.sourceforge.net/DTD/sodipodi-0.dtd"
   xmlns="http://www.w3.org/2000/svg"
   xmlns:svg="http://www.w3.org/2000/svg">
  <defs
     id="defs4" />
  <sodipodi:namedview
     id="namedview4"
     pagecolor="#ffffff"
     bordercolor="#666666"
     borderopacity="1.0"
     inkscape:showpageshadow="2"
     inkscape:pageopacity="0.0"
     inkscape:pagecheckerboard="0"
     inkscape:deskcolor="#d1d1d1"
     inkscape:zoom="16.625"
     inkscape:cx="24.030075"
     inkscape:cy="24"
     inkscape:window-width="1920"
     inkscape:window-height="1011"
     inkscape:window-x="0"
     inkscape:window-y="32"
     inkscape:window-maximized="1"
     inkscape:current-layer="svg4" />
  <rect
     x="0.0"
     y="0.0"
     width="48.0"
     height="48.0"
     fill="#ff0000"
     stroke="none"
     data-bg="1"
     id="rect1" />
  <path
     fill-rule="evenodd"
     d="M15.637 1c-1.688 2.053-2.711 4.653-2.711 7.493 0 6.627 5.527 12 12.355 12h.386C23.408 23.24 19.928 25 16.022 25 9.193 25 3.667 19.627 3.667 13c0-6.507 5.327-11.8 11.97-12Z"
     clip-rule="evenodd"
     fill="#ff0000"
     stroke="white"
     stroke-width="1px"
     id="path1"
     style="stroke:none;fill:#ffffff;fill-opacity:1" />
  <path
     fill-rule="evenodd"
     d="m21.131 31 5.751-11.4c.588-1.425 1.317-2.35 2.876-2.35h17.178c.038-.413.064-.825.064-1.25 0-8.287-6.991-15-15.606-15-7.72 0-14.123 5.375-15.389 12.45a10.068 10.068 0 0 0-5.151-1.4C5.41 12.05 1 16.288 1 21.525c0 5.025 4.064 9.125 9.203 9.45V31h10.928Z"
     clip-rule="evenodd"
     fill="#ff0000"
     stroke="white"
     stroke-width="1px"
     id="path2" />
  <path
     d="m17 33-4.24 4.105a5.65 5.65 0 0 0 0 8.196c2.347 2.265 6.147 2.265 8.48 0a5.65 5.65 0 0 0 0-8.196l-.04-.04L17 33ZM7 22l-4.24 4.105a5.65 5.65 0 0 0 0 8.196c2.347 2.265 6.147 2.265 8.48 0a5.65 5.65 0 0 0 0-8.196l-.04-.04L7 22Z"
     fill="white"
     stroke="none"
     id="path3" />
  <path
     fill-rule="evenodd"
     d="M30.667 21 24 34.754h6L29.253 47 44 30.958l-5.333-.026L44 21H30.667Z"
     clip-rule="evenodd"
     fill="#ff0000"
     stroke="white"
     stroke-width="1px"
     id="path4"
     style="fill:#ffffff;fill-opacity:1;stroke:none" />
</svg>
