<?xml version="1.0" encoding="UTF-8"?>
<svg version="1.1" viewBox="0 0 48 48" xmlns="http://www.w3.org/2000/svg">
<rect width="48" height="48" data-bg="1"/>
<path d="m19.761 3.944a4.617 4.617 0 0 1 4.295 4.295 4.62 4.62 0 0 0 1.13 2.724 4.62 4.62 0 0 1 0 6.074 4.622 4.622 0 0 0-1.13 2.724 4.616 4.616 0 0 1-4.295 4.295 4.622 4.622 0 0 0-2.724 1.129 4.618 4.618 0 0 1-6.074 0 4.622 4.622 0 0 0-2.724-1.129 4.617 4.617 0 0 1-4.295-4.295 4.622 4.622 0 0 0-1.129-2.724 4.62 4.62 0 0 1 0-6.074 4.62 4.62 0 0 0 1.13-2.724 4.618 4.618 0 0 1 4.294-4.295 4.622 4.622 0 0 0 2.724-1.129 4.62 4.62 0 0 1 6.074 0 4.622 4.622 0 0 0 2.724 1.129z" fill="#ffe100" stroke="#fff" stroke-width="1px"/>
<path d="M47 16.499c0 8.358-6.662 15.17-15 15.487V32H11v-.004l-.143.001C5.413 31.997 1 27.615 1 22.209c0-5.406 4.413-9.789 9.857-9.789 1.889 0 3.654.528 5.154 1.443C17.271 6.559 23.678 1 31.393 1 40.013 1 47 7.939 47 16.499Z" clip-rule="evenodd" fill="#b6b6b6" fill-rule="evenodd" stroke="#fff" stroke-width="1px"/>
<path d="m39.254 18v4.8066l-4.5078-2.4023-0.74609 1.1914 4.5098 2.4043-4.5098 2.4043 0.74609 1.1914 4.5078-2.4023v4.8066h1.4902v-4.8066l4.5098 2.4023 0.74609-1.1914-4.5098-2.4043 4.5098-2.4043-0.74609-1.1914-4.5098 2.4043v-4.8086h-1.4902zm-16 4v4.8066l-4.5078-2.4023-0.74609 1.1914 4.5098 2.4043-4.5098 2.4043 0.74609 1.1914 4.5078-2.4023v4.8066h1.4922v-4.8066l4.5078 2.4023 0.74609-1.1914-4.5098-2.4043 4.5098-2.4043-0.74609-1.1914-4.5078 2.4043v-4.8086h-1.4922zm11.125 12v4.0059l-3.7578-2.002-0.62109 0.99219 3.7578 2.0039-3.7578 2.0039 0.62109 0.99219 3.7578-2.0039v4.0078h1.2422v-4.0078l3.7578 2.0039 0.62109-0.99219-3.7578-2.0039 3.7578-2.0039-0.62109-0.99219-3.7578 2.002v-4.0059h-1.2422z" fill="#fff"/>
</svg>
