<?xml version="1.0" encoding="UTF-8" standalone="no"?>
<svg
   fill="none"
   viewBox="0 0 48 48"
   version="1.1"
   id="svg6"
   sodipodi:docname="mixed_rain_hail_sleet.svg"
   inkscape:version="1.4.3 (1:1.4.3+202512261035+0d15f75042)"
   xmlns:inkscape="http://www.inkscape.org/namespaces/inkscape"
   xmlns:sodipodi="http://sodipodi.sourceforge.net/DTD/sodipodi-0.dtd"
   xmlns="http://www.w3.org/2000/svg"
   xmlns:svg="http://www.w3.org/2000/svg">
  <defs
     id="defs6" />
  <sodipodi:namedview
     id="namedview6"
     pagecolor="#ffffff"
     bordercolor="#666666"
     borderopacity="1.0"
     inkscape:showpageshadow="2"
     inkscape:pageopacity="0.0"
     inkscape:pagecheckerboard="0"
     inkscape:deskcolor="#d1d1d1"
     inkscape:zoom="16.625"
     inkscape:cx="24.030075"
     inkscape:cy="24.030075"
     inkscape:window-width="1920"
     inkscape:window-height="1011"
     inkscape:window-x="0"
     inkscape:window-y="32"
     inkscape:window-maximized="1"
     inkscape:current-layer="svg6" />
  <rect
     x="0.0"
     y="0.0"
     width="48.0"
     height="48.0"
     fill="#ff0000"
     stroke="none"
     data-bg="1"
     id="rect1"
     style="fill:#000000;fill-opacity:1" />
  <path
     fill-rule="evenodd"
     d="M47 16.5c0 8.358-6.662 15.171-15 15.488V32H11v-.002l-.143.001C5.413 31.999 1 27.616 1 22.209c0-5.406 4.413-9.789 9.857-9.789 1.889 0 3.654.528 5.154 1.443C17.271 6.559 23.679 1 31.393 1 40.013 1 47 7.939 47 16.5Z"
     clip-rule="evenodd"
     fill="#ff0000"
     stroke="white"
     stroke-width="1px"
     id="path1" />
  <path
     fill-rule="evenodd"
     d="M47 16.5c0 8.358-6.662 15.171-15 15.488V32H11v-.002l-.143.001C5.413 31.999 1 27.616 1 22.209c0-5.406 4.413-9.789 9.857-9.789 1.889 0 3.654.528 5.154 1.443C17.271 6.559 23.679 1 31.393 1 40.013 1 47 7.939 47 16.5Z"
     clip-rule="evenodd"
     fill="#ff0000"
     stroke="white"
     stroke-width="1px"
     id="path2" />
  <path
     fill-rule="evenodd"
     d="M47 16.5c0 8.358-6.662 15.171-15 15.488V32H11v-.002l-.143.001C5.413 31.999 1 27.616 1 22.209c0-5.406 4.413-9.789 9.857-9.789 1.889 0 3.654.528 5.154 1.443C17.271 6.559 23.679 1 31.393 1 40.013 1 47 7.939 47 16.5Z"
     clip-rule="evenodd"
     fill="#ff0000"
     stroke="white"
     stroke-width="1px"
     id="path3"
     style="fill:#cdcdcd;fill-opacity:1" />
  <path
     d="m9.44 23.735 5.44 5.439-5.44 5.439L4 29.174l5.44-5.439Z"
     fill="#ff0000"
     stroke="white"
     stroke-width="1px"
     id="path4"
     style="fill:#37d7ff;fill-opacity:1;stroke:none" />
  <path
     d="m23.5 37-3.182 2.929c-1.757 1.618-1.757 4.24 0 5.858 1.758 1.617 4.607 1.617 6.364 0 1.757-1.618 1.757-4.24 0-5.858-.01-.009-.02-.017-.028-.026L23.5 37Z"
     fill="#ff0000"
     stroke="white"
     stroke-width="1px"
     id="path5"
     style="stroke:none;fill:#4fd7ff;fill-opacity:1" />
  <path
     d="m28.48 21.015 2.72 2.72-16.32 16.318-2.72-2.72 16.32-16.318ZM35.28 27.814l2.72 2.72-8.16 8.159-2.72-2.72 8.16-8.159Z"
     fill="white"
     stroke="none"
     id="path6" />
</svg>
