<?xml version="1.0" encoding="UTF-8"?>
<svg version="1.1" viewBox="0 0 48 48" xmlns="http://www.w3.org/2000/svg">
<rect width="48" height="48" data-bg="1"/>
<path d="M47 16.5c0 8.358-6.662 15.171-15 15.488V32H11v-.002l-.143.001C5.413 31.999 1 27.616 1 22.21c0-5.407 4.413-9.79 9.857-9.79 1.889 0 3.655.528 5.154 1.444C17.271 6.559 23.679 1 31.393 1 40.013 1 47 7.939 47 16.5Z" clip-rule="evenodd" fill="#c4c4c4" fill-rule="evenodd" stroke="#fff" stroke-width="1px"/>
<path d="M19.13 41.391V47h1.74v-5.609l5.26 2.805.87-1.392L21.74 40 27 37.196l-.87-1.392-5.26 2.805V33h-1.74v5.609l-5.26-2.805-.87 1.392L18.26 40 13 42.804l.87 1.392 5.26-2.805Z" clip-rule="evenodd" fill="#fff" fill-rule="evenodd" stroke="#fff" stroke-width="1px"/>
<path d="m37 35 5.657 5.656L37 46.312l-5.657-5.656L37 35Z" fill="#85e8ff" stroke="#fff" stroke-width="1px"/>
<path d="m37 19-4.243 4.101a5.663 5.663 0 0 0 0 8.201c2.344 2.264 6.143 2.264 8.486 0a5.663 5.663 0 0 0 0-8.201l-.038-.036L37 19Z" fill="#35beea" stroke="#fff" stroke-width="1px"/>
</svg>
