<?xml version="1.0" encoding="UTF-8" standalone="no"?>
<svg
   fill="none"
   viewBox="0 0 48 48"
   version="1.1"
   id="svg2"
   sodipodi:docname="mostly_cloudy_night.svg"
   inkscape:version="1.4.3 (1:1.4.3+202512261035+0d15f75042)"
   xmlns:inkscape="http://www.inkscape.org/namespaces/inkscape"
   xmlns:sodipodi="http://sodipodi.sourceforge.net/DTD/sodipodi-0.dtd"
   xmlns="http://www.w3.org/2000/svg"
   xmlns:svg="http://www.w3.org/2000/svg">
  <defs
     id="defs2" />
  <sodipodi:namedview
     id="namedview2"
     pagecolor="#ffffff"
     bordercolor="#666666"
     borderopacity="1.0"
     inkscape:showpageshadow="2"
     inkscape:pageopacity="0.0"
     inkscape:pagecheckerboard="0"
     inkscape:deskcolor="#d1d1d1"
     inkscape:zoom="16.625"
     inkscape:cx="24.030075"
     inkscape:cy="24.030075"
     inkscape:window-width="1920"
     inkscape:window-height="1011"
     inkscape:window-x="0"
     inkscape:window-y="32"
     inkscape:window-maximized="1"
     inkscape:current-layer="svg2" />
  <rect
     x="0.0"
     y="0.0"
     width="48.0"
     height="48.0"
     fill="#ff0000"
     stroke="none"
     data-bg="1"
     id="rect1"
     style="fill:#000000;fill-opacity:1" />
  <path
     fill-rule="evenodd"
     d="M16.688 2c-2.077 2.51-3.319 5.696-3.319 9.162 0 8.102 6.787 14.67 15.159 14.67.158 0 .315-.002.471-.007-2.778 3.358-7.049 5.508-11.84 5.508C8.787 31.333 2 24.765 2 16.663 2 8.714 8.534 2.241 16.688 2Z"
     clip-rule="evenodd"
     fill="#ff0000"
     stroke="white"
     stroke-width="1px"
     id="path1"
     style="fill:#4cecff;fill-opacity:1;stroke:none" />
  <path
     fill-rule="evenodd"
     d="M47 30.999c0 7.983-6.489 14.51-14.674 14.973V46H10.196v-.021C5.061 45.653 1 41.545 1 36.527c0-5.232 4.413-9.473 9.857-9.473 1.889 0 3.654.511 5.154 1.396C17.27 21.381 23.678 16 31.393 16 40.013 16 47 22.715 47 30.999Z"
     clip-rule="evenodd"
     fill="#ff0000"
     stroke="white"
     stroke-width="1px"
     id="path2"
     style="fill:#bababa;fill-opacity:1" />
</svg>
