<?xml version="1.0" encoding="UTF-8"?>
<svg version="1.1" viewBox="0 0 48 48" xmlns="http://www.w3.org/2000/svg">
<rect width="48" height="48" data-bg="1"/>
<path d="M23.849 1c-3.231 3.937-5.163 8.932-5.163 14.368 0 12.705 10.558 23.005 23.582 23.005.245 0 .489-.004.732-.011C38.679 43.628 32.034 47 24.582 47 11.558 47 1 36.7 1 23.995 1 11.528 11.164 1.377 23.849 1Z" clip-rule="evenodd" fill="#9ae2ff" fill-rule="evenodd" stroke="#fff" stroke-width="1px"/>
<path d="M47 35c0 6.225-4.824 11.343-11 11.942V47H19v-.006a9.04 9.04 0 0 1-.286.005c-4.26 0-7.714-3.393-7.714-7.579s3.454-7.579 7.714-7.579a7.78 7.78 0 0 1 4.034 1.118C23.734 27.304 28.749 23 34.786 23 41.532 23 47 28.373 47 35Z" clip-rule="evenodd" fill="#afafaf" fill-rule="evenodd" stroke="#fff" stroke-width="1px"/>
</svg>
