<?xml version="1.0" encoding="UTF-8"?>
<svg version="1.1" viewBox="0 0 48 48" xmlns="http://www.w3.org/2000/svg">
<rect width="48" height="48" data-bg="1"/>
<path d="M16.688 2c-2.077 2.51-3.319 5.696-3.319 9.162 0 8.102 6.787 14.67 15.159 14.67.158 0 .315-.002.471-.007-2.778 3.358-7.049 5.508-11.84 5.508C8.787 31.333 2 24.765 2 16.663 2 8.714 8.534 2.241 16.688 2Z" clip-rule="evenodd" fill="#4cecff" fill-rule="evenodd" stroke="#fff" stroke-width="1px"/>
<path d="M47 30.999c0 7.983-6.489 14.51-14.674 14.973V46H10.196v-.021C5.061 45.653 1 41.545 1 36.527c0-5.232 4.413-9.473 9.857-9.473 1.889 0 3.654.511 5.154 1.396C17.27 21.381 23.678 16 31.393 16 40.013 16 47 22.715 47 30.999Z" clip-rule="evenodd" fill="#bababa" fill-rule="evenodd" stroke="#fff" stroke-width="1px"/>
</svg>
