<?xml version="1.0" encoding="UTF-8" standalone="no"?>
<svg
   fill="none"
   viewBox="0 0 48 48"
   version="1.1"
   id="svg2"
   sodipodi:docname="mostly_clear_day.svg"
   inkscape:version="1.4.3 (1:1.4.3+202512261035+0d15f75042)"
   xmlns:inkscape="http://www.inkscape.org/namespaces/inkscape"
   xmlns:sodipodi="http://sodipodi.sourceforge.net/DTD/sodipodi-0.dtd"
   xmlns="http://www.w3.org/2000/svg"
   xmlns:svg="http://www.w3.org/2000/svg">
  <defs
     id="defs2" />
  <sodipodi:namedview
     id="namedview2"
     pagecolor="#ffffff"
     bordercolor="#666666"
     borderopacity="1.0"
     inkscape:showpageshadow="2"
     inkscape:pageopacity="0.0"
     inkscape:pagecheckerboard="0"
     inkscape:deskcolor="#d1d1d1"
     inkscape:zoom="16.625"
     inkscape:cx="24.030075"
     inkscape:cy="24.030075"
     inkscape:window-width="1920"
     inkscape:window-height="1011"
     inkscape:window-x="0"
     inkscape:window-y="32"
     inkscape:window-maximized="1"
     inkscape:current-layer="svg2" />
  <rect
     x="0.0"
     y="0.0"
     width="48.0"
     height="48.0"
     fill="#ff0000"
     stroke="none"
     data-bg="1"
     id="rect1"
     style="fill:#000000;fill-opacity:1" />
  <path
     d="M33.995 7.163a8.022 8.022 0 0 1 7.45 7.451 8.022 8.022 0 0 0 1.958 4.725 8.022 8.022 0 0 1 0 10.537 8.025 8.025 0 0 0-1.957 4.726 8.023 8.023 0 0 1-7.451 7.451 8.021 8.021 0 0 0-4.726 1.957 8.02 8.02 0 0 1-10.536 0 8.021 8.021 0 0 0-4.726-1.957 8.024 8.024 0 0 1-7.452-7.451 8.025 8.025 0 0 0-1.957-4.726 8.022 8.022 0 0 1 0-10.537 8.022 8.022 0 0 0 1.957-4.725 8.022 8.022 0 0 1 7.452-7.451 8.027 8.027 0 0 0 4.726-1.957 8.02 8.02 0 0 1 10.535 0 8.027 8.027 0 0 0 4.727 1.957Z"
     fill="#ff0000"
     stroke="white"
     stroke-width="1px"
     id="path1"
     style="fill:#ffa300;fill-opacity:1;stroke:none" />
  <path
     fill-rule="evenodd"
     d="M46 36c0 5.322-4.232 9.673-9.57 9.982v.017h-.5l-.108.001-.109-.001h-13.21l-.075.001-.075-.001h-.355v-.013C18.648 45.768 16 43.03 16 39.684c0-3.488 2.878-6.316 6.428-6.316 1.232 0 2.384.341 3.362.931.821-4.712 5-8.299 10.032-8.299C41.443 26 46 30.477 46 36Z"
     clip-rule="evenodd"
     fill="#ff0000"
     stroke="white"
     stroke-width="1px"
     id="path2"
     style="fill:#8e8e8e;fill-opacity:1" />
</svg>
