<?xml version="1.0" encoding="UTF-8"?>
<svg version="1.1" viewBox="0 0 48 48" xmlns="http://www.w3.org/2000/svg">
<rect width="48" height="48" data-bg="1"/>
<path d="m15.191 4-2.3206 0.4667-0.1766 17.934 2.4215 0.02516 0.1134-12.221 5.3726 12.461 2.3204-0.42886 0.66856-17.946-2.4215-0.08834-0.46672 12.599zm14.731 4.5656c-0.79034 0-1.5218 0.19752-2.1944 0.59269-0.67264 0.39517-1.257 0.93748-1.7531 1.6269-0.45404 0.639-0.81144 1.3748-1.0721 2.2071-0.25224 0.82397-0.37836 1.7025-0.37836 2.6358 0 0.93327 0.1262 1.8161 0.37836 2.6485 0.26064 0.82397 0.61804 1.5512 1.0721 2.1818 0.49606 0.69785 1.0805 1.2444 1.7531 1.6396 0.67262 0.39517 1.4041 0.59269 2.1944 0.59269 0.78194 0 1.5092-0.19752 2.1818-0.59269 0.67264-0.39517 1.2571-0.94174 1.7531-1.6396 0.45402-0.63059 0.80716-1.3578 1.0594-2.1818 0.26066-0.83238 0.39084-1.7152 0.39084-2.6485 0-0.93328-0.1302-1.8118-0.39084-2.6358-0.25222-0.83238-0.60536-1.5681-1.0594-2.2071-0.49606-0.68945-1.0805-1.2318-1.7531-1.6269-0.67262-0.39517-1.3998-0.59269-2.1818-0.59269zm0 2.4215c0.7399 0 1.3957 0.39931 1.9674 1.1981 0.66424 0.93328 0.99622 2.0809 0.99622 3.443s-0.33198 2.5055-0.99622 3.4304c-0.57172 0.80716-1.2275 1.2107-1.9674 1.2107-0.7483 0-1.4084-0.40358-1.9801-1.2107-0.66422-0.92487-0.99638-2.0683-0.99638-3.4304s0.33216-2.5097 0.99638-3.443c0.57174-0.79875 1.2318-1.1981 1.9801-1.1981zm-25.476 14.461-0.0756 18.439 2.4088 0.0124c2.3038-0.40358 4.1282-1.2191 5.4735-2.4466 1.3537-1.236 2.266-2.6989 2.7368-4.3889 0.41198-1.4209 0.52122-2.8544 0.32784-4.3006-0.185-1.4546-0.6516-2.7705-1.3999-3.9476-0.7315-1.1687-1.6941-2.0641-2.888-2.6863-1.1855-0.63059-3.38-0.8576-6.5834-0.68104zm3.2389 2.3702c0.80242-0.0205 1.522 0.127 2.1589 0.4423 0.8576 0.4204 1.5386 1.0341 2.0431 1.8413 0.55492 0.87442 0.90378 1.8624 1.0467 2.9638 0.143 1.1183 0.059 2.2281-0.25216 3.3295-0.34474 1.2107-1.0005 2.2701-1.9674 3.1782-0.96692 0.89964-2.2743 1.4924-3.9222 1.7783l0.063-13.457c0.28586-0.04414 0.56264-0.0696 0.83012-0.07642zm20.736 0.41695c-0.0252 0.76512-0.0462 1.5009-0.063 2.2071-8e-3 0.0168-0.012 0.0337-0.012 0.05052-0.0252 0.72308-0.0462 1.4125-0.063 2.0683h-2.1188v2.535h2.0809c-8e-3 0.40358-8e-3 0.79028 0 1.1602 2e-5 1.648 0.1052 3.0226 0.31538 4.1241 0.26904 1.4041 0.7609 2.4047 1.4756 3.0017 0.72308 0.58855 1.753 0.74824 3.0898 0.47919l-0.47918-2.371c-0.93328 0.18498-1.5051-0.34045-1.7153-1.5764-0.185-0.96691-0.27752-2.2407-0.27752-3.8214v-0.9964h2.9008v-2.535h-2.8503c0.016-0.639 0.0378-1.3074 0.063-2.0053v-0.03784l0.0632-2.2196zm-8.7651 1.6837c-0.66844 0-1.4125 0.08624-2.2323 0.2586l0.51702 2.371c1.5218-0.31109 2.6443-0.16382 3.3674 0.44154 0.1766 0.15134 0.33624 0.31529 0.47918 0.49186-0.38676-0.1093-0.79034-0.16402-1.2107-0.16402-0.67262 0-1.3032 0.14708-1.8918 0.44136-0.58016 0.28587-1.0887 0.68536-1.5259 1.1982-0.41198 0.48765-0.73582 1.0466-0.97124 1.6772-0.23542 0.63059-0.35302 1.3076-0.35302 2.0306 0 0.71468 0.1176 1.3914 0.35302 2.0304 0.23542 0.63059 0.55926 1.1855 0.97124 1.6648 0.4372 0.51289 0.94574 0.91646 1.5259 1.2107 0.58854 0.28587 1.2191 0.42887 1.8918 0.42887 0.67264 0 1.3032-0.14726 1.8918-0.44154 0.3195-0.15134 0.61384-0.34053 0.8829-0.56753 0.016 0.22701 0.0294 0.44995 0.0378 0.66855l2.4215-0.12618c-0.042-0.71467-0.0756-1.3788-0.1008-1.9926-0.042-1.1435-0.105-2.2492-0.1892-3.317-0.084-1.0762-0.21872-2.0766-0.4037-3.0015-0.26906-1.2696-0.69358-2.3416-1.2737-3.216-0.57174-0.88283-1.3746-1.4925-2.4088-1.8288-0.51708-0.17236-1.1098-0.2586-1.7783-0.2586zm17.82 0c-0.66842 0-1.4125 0.08624-2.2323 0.2586l0.51702 2.371c1.5218-0.31109 2.6443-0.16382 3.3673 0.44154 0.1766 0.15134 0.33644 0.31529 0.47938 0.49186-0.38676-0.1093-0.79034-0.16402-1.2107-0.16402-0.67264 0-1.3032 0.14708-1.8918 0.44136-0.58014 0.28587-1.0889 0.68536-1.5261 1.1982-0.41198 0.48765-0.73562 1.0466-0.97104 1.6772-0.23542 0.63059-0.3532 1.3076-0.3532 2.0306 0 0.71468 0.1178 1.3914 0.3532 2.0304 0.23542 0.63059 0.55906 1.1855 0.97104 1.6648 0.43722 0.51289 0.94596 0.91646 1.5261 1.2107 0.58854 0.28587 1.2191 0.42887 1.8918 0.42887s1.3032-0.14726 1.8918-0.44154c0.3195-0.15134 0.61364-0.34053 0.8827-0.56753 0.016 0.22701 0.0294 0.44995 0.0378 0.66855l2.4215-0.12618c-0.042-0.71467-0.0756-1.3788-0.1008-1.9926-0.042-1.1435-0.105-2.2492-0.1892-3.317-0.084-1.0762-0.21854-2.0766-0.40352-3.0015-0.26906-1.2696-0.69378-2.3416-1.2739-3.216-0.57174-0.88283-1.3746-1.4925-2.4088-1.8288-0.51708-0.17236-1.1098-0.2586-1.7783-0.2586zm-16.9 5.8204c0.61378 0 1.1435 0.26485 1.5891 0.79455 0.48766 0.57174 0.73154 1.2823 0.73154 2.1315 0 0.84079-0.24388 1.5511-0.73154 2.1313-0.44562 0.52129-0.97532 0.78207-1.5891 0.78207-0.60536 0-1.1308-0.26077-1.5764-0.78207-0.49606-0.58014-0.74404-1.2905-0.74404-2.1313 0-0.84919 0.24798-1.5597 0.74404-2.1315 0.44562-0.5297 0.97104-0.79455 1.5764-0.79455zm17.821 0c0.61378 0 1.1435 0.26485 1.5891 0.79455 0.48766 0.57174 0.73136 1.2823 0.73136 2.1315 0 0.84079-0.2437 1.5511-0.73136 2.1313-0.44562 0.52129-0.97532 0.78207-1.5891 0.78207-0.60536 0-1.131-0.26077-1.5766-0.78207-0.49606-0.58014-0.74404-1.2905-0.74404-2.1313 0-0.84919 0.24798-1.5597 0.74404-2.1315 0.44562-0.5297 0.97124-0.79455 1.5766-0.79455z" fill="#ff6868" stroke-linejoin="round" stroke-miterlimit="0" stroke-width=".19372"/>
<path d="m-1342.7 2950.1q25.521-4.427 40.495-18.359 14.974-14.063 20.312-32.813 4.8177-17.057 2.6041-34.375-2.2135-17.057-10.807-30.599-7.8125-12.5-21.094-19.01-13.151-6.5104-30.859-3.776zm73.568-129.43q11.589 18.229 14.453 40.755 2.9948 22.396-3.3854 44.401-7.2916 26.172-28.255 45.312-20.833 19.01-56.51 25.26l-24.87-0.1302 0.7812-190.36q49.61-2.7343 67.969 7.0313 18.49 9.6354 29.818 27.734zm85.156 79.688q-6.9011-8.2031-16.406-8.2031-9.375 0-16.276 8.2031-7.6823 8.8542-7.6823 22.005 0 13.021 7.6823 22.005 6.9011 8.0729 16.276 8.0729 9.5052 0 16.406-8.0729 7.5521-8.9844 7.5521-22.005 0-13.151-7.5521-22.005zm-3.9063-31.51q-2.2135-2.7344-4.9479-5.0782-11.198-9.375-34.766-4.5573l-5.3385-24.479q25.391-5.3385 41.406 0 16.016 5.2084 24.87 18.88 8.9844 13.542 13.151 33.203 2.8646 14.323 4.1667 30.99 1.3021 16.536 1.9531 34.245 0.3907 9.5052 1.0417 20.573l-25 1.3021q-0.1302-3.3854-0.3906-6.901-4.1667 3.5156-9.1146 5.8593-9.1146 4.5573-19.531 4.5573t-19.531-4.4271q-8.9844-4.5573-15.755-12.5-6.3802-7.4219-10.026-17.188-3.6458-9.8958-3.6458-20.964 0-11.198 3.6458-20.964 3.6459-9.7657 10.026-17.318 6.7708-7.9427 15.755-12.37 9.1146-4.5573 19.531-4.5573 6.5104 0 12.5 1.6928zm91.537 16.667v10.286q0 24.479 2.8646 39.453 3.2552 19.141 17.708 16.276l4.9479 24.479q-20.703 4.1667-31.901-4.9479-11.068-9.2448-15.234-30.99-3.2552-17.057-3.2552-42.578-0.1303-5.7292 0-11.979h-21.484v-26.172h21.875q0.2604-10.156 0.651-21.354 0-0.2604 0.1302-0.5208 0.2604-10.938 0.6511-22.786l24.87 0.6511-0.6511 22.917v0.3906q-0.3906 10.807-0.651 20.703h29.427v26.172zm96.354 14.844q-6.9011-8.2031-16.406-8.2031-9.375 0-16.276 8.2031-7.6823 8.8542-7.6823 22.005 0 13.021 7.6823 22.005 6.9011 8.0729 16.276 8.0729 9.5052 0 16.406-8.0729 7.5521-8.9844 7.5521-22.005 0-13.151-7.5521-22.005zm-3.9063-31.51q-2.2135-2.7344-4.9479-5.0782-11.198-9.375-34.766-4.5573l-5.3385-24.479q25.391-5.3385 41.406 0 16.016 5.2084 24.87 18.88 8.9844 13.542 13.151 33.203 2.8646 14.323 4.1667 30.99 1.3021 16.536 1.9531 34.245 0.39062 9.5052 1.0417 20.573l-25 1.3021q-0.13021-3.3854-0.39063-6.901-4.1667 3.5156-9.1146 5.8593-9.1146 4.5573-19.531 4.5573t-19.531-4.4271q-8.9844-4.5573-15.755-12.5-6.3802-7.4219-10.026-17.188-3.6458-9.8958-3.6458-20.964 0-11.198 3.6458-20.964 3.6459-9.7657 10.026-17.318 6.7708-7.9427 15.755-12.37 9.1146-4.5573 19.531-4.5573 6.5104 0 12.5 1.6928z" fill="#fff" stroke-linejoin="round" stroke-miterlimit="0" stroke-width="2"/>
<path d="m-1169.3-1152.6-6.901 185.29-23.958 4.4271-55.469-128.65-1.1719 126.17-25-0.26041 1.8229-185.16 23.958-4.8177 56.901 132.16 4.8177-130.08zm85.677 81.511q-8.8542-12.37-20.312-12.37-11.589 0-20.443 12.37-10.286 14.453-10.286 35.547t10.286 35.417q8.8541 12.5 20.443 12.5 11.458 0 20.312-12.5 10.286-14.323 10.286-35.417t-10.286-35.547zm-20.312-37.37q12.109 0 22.526 6.1198 10.417 6.1198 18.099 16.797 7.0313 9.8959 10.938 22.786 4.0365 12.76 4.0365 27.214 0 14.453-4.0365 27.344-3.9062 12.76-10.938 22.526-7.6823 10.807-18.099 16.927-10.417 6.1198-22.526 6.1198-12.24 0-22.656-6.1198t-18.099-16.927q-7.0312-9.7656-11.068-22.526-3.9063-12.891-3.9063-27.344 0-14.453 3.9063-27.214 4.0365-12.891 11.068-22.786 7.6823-10.677 18.099-16.797t22.656-6.1198z" fill="#fff" stroke-linejoin="round" stroke-miterlimit="0" stroke-width="2"/>
</svg>
