<?xml version="1.0" encoding="UTF-8" standalone="no"?>
<svg
   fill="none"
   viewBox="0 0 48 48"
   version="1.1"
   id="svg1"
   sodipodi:docname="no_data.svg"
   inkscape:version="1.4.3 (1:1.4.3+202512261035+0d15f75042)"
   xmlns:inkscape="http://www.inkscape.org/namespaces/inkscape"
   xmlns:sodipodi="http://sodipodi.sourceforge.net/DTD/sodipodi-0.dtd"
   xmlns="http://www.w3.org/2000/svg"
   xmlns:svg="http://www.w3.org/2000/svg">
  <defs
     id="defs1" />
  <sodipodi:namedview
     id="namedview1"
     pagecolor="#ffffff"
     bordercolor="#666666"
     borderopacity="1.0"
     inkscape:showpageshadow="2"
     inkscape:pageopacity="0.0"
     inkscape:pagecheckerboard="0"
     inkscape:deskcolor="#d1d1d1"
     inkscape:zoom="7.8976863"
     inkscape:cx="18.043259"
     inkscape:cy="20.575646"
     inkscape:window-width="1920"
     inkscape:window-height="1011"
     inkscape:window-x="0"
     inkscape:window-y="32"
     inkscape:window-maximized="1"
     inkscape:current-layer="svg1" />
  <rect
     x="0.0"
     y="0.0"
     width="48.0"
     height="48.0"
     fill="#ff0000"
     stroke="none"
     data-bg="1"
     id="rect1"
     style="fill:#000000;fill-opacity:1" />
  <path
     id="path3"
     style="font-size:266.667px;line-height:7.8;font-family:Moomycraft;-inkscape-font-specification:'Moomycraft, Normal';text-align:center;letter-spacing:0px;text-anchor:middle;fill:#ff6868;stroke-width:0.193717;stroke-linejoin:round;stroke-miterlimit:0;fill-opacity:1"
     d="m 15.19066,4 -2.320619,0.4667 -0.1766,17.933993 2.421459,0.02516 0.1134,-12.220845 5.37264,12.460531 2.32044,-0.428864 0.66856,-17.946479 -2.42146,-0.08834 -0.46672,12.599197 z m 14.73066,4.565602 c -0.79034,0 -1.52182,0.19752 -2.19444,0.592692 -0.67264,0.39517 -1.25704,0.937476 -1.7531,1.626922 -0.45404,0.639 -0.81144,1.37475 -1.07208,2.20713 -0.25224,0.823974 -0.37836,1.702529 -0.37836,2.635805 0,0.933274 0.1262,1.8161 0.37836,2.64848 0.26064,0.823972 0.61804,1.55119 1.07208,2.18178 0.49606,0.697854 1.08046,1.244428 1.7531,1.639598 0.67262,0.395172 1.4041,0.592692 2.19444,0.592692 0.78194,0 1.50916,-0.19752 2.18178,-0.592692 0.67264,-0.39517 1.25706,-0.941744 1.75312,-1.639598 0.45402,-0.63059 0.807159,-1.357808 1.059379,-2.18178 0.26066,-0.83238 0.39084,-1.715206 0.39084,-2.64848 0,-0.933276 -0.1302,-1.811831 -0.39084,-2.635805 -0.25222,-0.83238 -0.605359,-1.56813 -1.059379,-2.20713 C 33.36016,10.09577 32.77574,9.553464 32.1031,9.158294 31.43048,8.763122 30.70326,8.565602 29.92132,8.565602 Z m 0,2.421468 c 0.7399,0 1.39572,0.399308 1.96744,1.198058 0.66424,0.933276 0.99622,2.080945 0.99622,3.443023 0,1.362078 -0.33198,2.505482 -0.99622,3.43035 -0.57172,0.807156 -1.22754,1.210734 -1.96744,1.210734 -0.7483,0 -1.40838,-0.403578 -1.98012,-1.210734 -0.66422,-0.924868 -0.99638,-2.068272 -0.99638,-3.43035 0,-1.362078 0.33216,-2.509747 0.99638,-3.443023 0.57174,-0.79875 1.23182,-1.198058 1.98012,-1.198058 z m -25.475919,14.460889 -0.0756,18.438531 2.40878,0.0124 c 2.30376,-0.40358 4.1282,-1.219072 5.47348,-2.446632 1.35366,-1.235954 2.265979,-2.698918 2.736819,-4.38891 0.41198,-1.420936 0.52122,-2.854406 0.32784,-4.300563 -0.185,-1.454564 -0.6516,-2.770452 -1.399899,-3.947558 -0.7315,-1.168696 -1.69406,-2.064132 -2.88798,-2.686314 -1.18552,-0.63059 -3.37996,-0.857598 -6.58338,-0.681038 z m 3.23892,2.3702 c 0.80242,-0.0205 1.52198,0.127 2.15888,0.442296 0.8576,0.4204 1.53864,1.034106 2.04312,1.841262 0.55492,0.87442 0.90378,1.862406 1.0467,2.963836 0.143,1.118251 0.059,2.228087 -0.25216,3.329517 -0.34474,1.210732 -1.00054,2.270124 -1.96744,3.178176 -0.96692,0.899642 -2.27426,1.492408 -3.92222,1.778268 l 0.063,-13.456927 c 0.28586,-0.04414 0.56264,-0.0696 0.83012,-0.07642 z M 28.4204,28.235107 c -0.0252,0.765118 -0.0462,1.500868 -0.063,2.207128 -0.008,0.0168 -0.012,0.0337 -0.012,0.05052 -0.0252,0.723084 -0.0462,1.412464 -0.063,2.068276 H 26.1636 V 35.096 h 2.08094 c -0.008,0.403582 -0.008,0.79028 0,1.160222 2e-5,1.647954 0.1052,3.022632 0.31538,4.12407 0.26904,1.404112 0.7609,2.40471 1.47558,3.00167 0.72308,0.588552 1.75298,0.748244 3.08982,0.47919 l -0.47918,-2.370966 c -0.93328,0.18498 -1.50506,-0.340448 -1.71528,-1.576404 -0.185,-0.966912 -0.27752,-2.2407 -0.27752,-3.821386 V 35.096 h 2.90084 v -2.534969 h -2.85032 c 0.016,-0.638998 0.0378,-1.307424 0.063,-2.00528 v -0.03784 l 0.0632,-2.219616 z m -8.76514,1.683676 c -0.66844,0 -1.41254,0.08624 -2.2323,0.258604 l 0.51702,2.370958 c 1.52184,-0.31109 2.64428,-0.16382 3.36736,0.441542 0.1766,0.15134 0.33624,0.315294 0.47918,0.491858 -0.38676,-0.1093 -0.79034,-0.16402 -1.21074,-0.16402 -0.67262,0 -1.30322,0.14708 -1.89176,0.441356 -0.58016,0.285869 -1.0887,0.685363 -1.5259,1.198249 -0.41198,0.487654 -0.73582,1.046646 -0.97124,1.677244 -0.23542,0.630588 -0.35302,1.307554 -0.35302,2.030622 0,0.714682 0.1176,1.391444 0.35302,2.03044 0.23542,0.63059 0.55926,1.185512 0.97124,1.66476 0.4372,0.512886 0.94574,0.916456 1.5259,1.210734 C 19.27256,43.856998 19.90316,44 20.57578,44 c 0.67264,0 1.30322,-0.14726 1.89178,-0.44154 0.3195,-0.15134 0.61384,-0.340526 0.8829,-0.567534 0.016,0.227008 0.0294,0.449948 0.0378,0.668548 l 2.42148,-0.12618 c -0.042,-0.714672 -0.0756,-1.378832 -0.1008,-1.992606 -0.042,-1.143476 -0.105,-2.249224 -0.1892,-3.317034 -0.084,-1.076196 -0.21872,-2.07661 -0.4037,-3.001476 -0.26906,-1.269593 -0.69358,-2.341597 -1.27372,-3.216015 -0.57174,-0.882828 -1.37464,-1.492456 -2.4088,-1.828776 -0.51708,-0.17236 -1.10984,-0.258604 -1.77826,-0.258604 z m 17.820479,0 c -0.66842,0 -1.41252,0.08624 -2.23228,0.258604 l 0.51702,2.370958 c 1.52182,-0.31109 2.64426,-0.16382 3.36734,0.441542 0.1766,0.15134 0.33644,0.315294 0.47938,0.491858 -0.38676,-0.1093 -0.79034,-0.16402 -1.21074,-0.16402 -0.67264,0 -1.30322,0.14708 -1.89176,0.441356 -0.58014,0.285869 -1.08888,0.685363 -1.5261,1.198249 -0.41198,0.487654 -0.735619,1.046646 -0.971039,1.677244 -0.23542,0.630588 -0.3532,1.307554 -0.3532,2.030622 0,0.714682 0.1178,1.391444 0.3532,2.03044 0.23542,0.63059 0.559059,1.185512 0.971039,1.66476 0.43722,0.512886 0.94596,0.916456 1.5261,1.210734 0.58854,0.285868 1.21912,0.42887 1.89176,0.42887 0.67264,0 1.30322,-0.14726 1.89178,-0.44154 0.3195,-0.15134 0.61364,-0.340526 0.8827,-0.567534 0.016,0.227008 0.0294,0.449948 0.0378,0.668548 l 2.42146,-0.12618 c -0.042,-0.714672 -0.0756,-1.378832 -0.1008,-1.992606 -0.042,-1.143476 -0.105,-2.249224 -0.1892,-3.317034 -0.084,-1.076196 -0.21854,-2.07661 -0.40352,-3.001476 -0.26906,-1.269593 -0.69378,-2.341597 -1.27392,-3.216015 -0.57174,-0.882828 -1.37462,-1.492456 -2.4088,-1.828776 -0.51708,-0.17236 -1.10984,-0.258604 -1.77826,-0.258604 z M 20.57578,35.73919 c 0.61378,0 1.14348,0.26485 1.5891,0.794552 0.48766,0.571738 0.73154,1.282264 0.73154,2.131452 0,0.840792 -0.24388,1.551126 -0.73154,2.13127 -0.44562,0.521294 -0.97532,0.782066 -1.5891,0.782066 -0.60536,0 -1.13078,-0.260772 -1.5764,-0.782066 -0.49606,-0.580144 -0.74404,-1.290478 -0.74404,-2.13127 0,-0.849188 0.24798,-1.559714 0.74404,-2.131452 0.44562,-0.529702 0.97104,-0.794552 1.5764,-0.794552 z m 17.820679,0 c 0.61378,0 1.14348,0.26485 1.5891,0.794552 0.48766,0.571738 0.73136,1.282264 0.73136,2.131452 0,0.840792 -0.2437,1.551126 -0.73136,2.13127 -0.44562,0.521294 -0.97532,0.782066 -1.5891,0.782066 -0.60536,0 -1.13098,-0.260772 -1.5766,-0.782066 -0.49606,-0.580144 -0.74404,-1.290478 -0.74404,-2.13127 0,-0.849188 0.24798,-1.559714 0.74404,-2.131452 0.44562,-0.529702 0.97124,-0.794552 1.5766,-0.794552 z" />
  <path
     style="font-size:266.667px;line-height:7.8;font-family:Moomycraft;-inkscape-font-specification:'Moomycraft, Normal';text-align:center;letter-spacing:0px;text-anchor:middle;fill:#ffffff;stroke-width:2;stroke-linejoin:round;stroke-miterlimit:0"
     d="m -1342.7037,2950.0656 q 25.5209,-4.427 40.4949,-18.3593 14.9739,-14.0626 20.3125,-32.8126 4.8177,-17.0573 2.6041,-34.375 -2.2135,-17.0573 -10.8073,-30.599 -7.8125,-12.5 -21.0937,-19.0105 -13.1511,-6.5104 -30.8594,-3.776 z m 73.5678,-129.4272 q 11.5886,18.2292 14.4531,40.7553 2.9948,22.3958 -3.3854,44.4011 -7.2916,26.1719 -28.2552,45.3125 -20.8334,19.0105 -56.5105,25.2605 l -24.8698,-0.1302 0.7812,-190.3649 q 49.6095,-2.7343 67.9689,7.0313 18.4896,9.6354 29.8177,27.7344 z m 85.1564,79.6876 q -6.9011,-8.2031 -16.4063,-8.2031 -9.375,0 -16.2761,8.2031 -7.6823,8.8542 -7.6823,22.0052 0,13.0209 7.6823,22.0053 6.9011,8.0729 16.2761,8.0729 9.5052,0 16.4063,-8.0729 7.5521,-8.9844 7.5521,-22.0053 0,-13.151 -7.5521,-22.0052 z m -3.9063,-31.5104 q -2.2135,-2.7344 -4.9479,-5.0782 -11.1979,-9.375 -34.7657,-4.5573 l -5.3385,-24.4792 q 25.3906,-5.3385 41.4063,0 16.0156,5.2084 24.8698,18.8803 8.9844,13.5416 13.151,33.2031 2.8646,14.323 4.1667,30.9896 1.3021,16.5365 1.9531,34.2449 0.3907,9.5052 1.0417,20.5729 l -25,1.3021 q -0.1302,-3.3854 -0.3906,-6.901 -4.1667,3.5156 -9.1146,5.8593 -9.1146,4.5573 -19.5313,4.5573 -10.4167,0 -19.5313,-4.4271 -8.9844,-4.5573 -15.7552,-12.5 -6.3802,-7.4219 -10.0261,-17.1875 -3.6458,-9.8958 -3.6458,-20.9636 0,-11.1979 3.6458,-20.9635 3.6459,-9.7657 10.0261,-17.3178 6.7708,-7.9427 15.7552,-12.3698 9.1146,-4.5573 19.5313,-4.5573 6.5104,0 12.5,1.6928 z m 91.5366,16.6666 v 10.2865 q 0,24.4792 2.8646,39.4532 3.2552,19.1406 17.7083,16.276 l 4.9479,24.4792 q -20.7031,4.1667 -31.901,-4.9479 -11.0678,-9.2448 -15.2344,-30.9896 -3.2552,-17.0573 -3.2552,-42.5782 -0.1303,-5.7292 0,-11.9792 h -21.4844 v -26.1719 h 21.875 q 0.2604,-10.1562 0.651,-21.3542 0,-0.2604 0.1302,-0.5208 0.2604,-10.9375 0.6511,-22.7865 l 24.8698,0.6511 -0.6511,22.9167 v 0.3906 q -0.3906,10.8073 -0.651,20.7031 h 29.4271 v 26.1719 z m 96.35426,14.8438 q -6.90106,-8.2031 -16.40626,-8.2031 -9.375,0 -16.2761,8.2031 -7.6823,8.8542 -7.6823,22.0052 0,13.0209 7.6823,22.0053 6.9011,8.0729 16.2761,8.0729 9.5052,0 16.40626,-8.0729 7.55209,-8.9844 7.55209,-22.0053 0,-13.151 -7.55209,-22.0052 z m -3.90626,-31.5104 q -2.2135,-2.7344 -4.9479,-5.0782 -11.1979,-9.375 -34.7657,-4.5573 l -5.3385,-24.4792 q 25.3906,-5.3385 41.4063,0 16.01561,5.2084 24.86979,18.8803 8.98439,13.5416 13.15106,33.2031 2.86459,14.323 4.16667,30.9896 1.30209,16.5365 1.95313,34.2449 0.39062,9.5052 1.04167,20.5729 l -25.00003,1.3021 q -0.13021,-3.3854 -0.39063,-6.901 -4.16667,3.5156 -9.11459,5.8593 -9.11457,4.5573 -19.53127,4.5573 -10.4167,0 -19.5313,-4.4271 -8.9844,-4.5573 -15.7552,-12.5 -6.3802,-7.4219 -10.0261,-17.1875 -3.6458,-9.8958 -3.6458,-20.9636 0,-11.1979 3.6458,-20.9635 3.6459,-9.7657 10.0261,-17.3178 6.7708,-7.9427 15.7552,-12.3698 9.1146,-4.5573 19.5313,-4.5573 6.5104,0 12.5,1.6928 z"
     id="path4" />
  <path
     style="font-size:266.667px;line-height:7.8;font-family:Moomycraft;-inkscape-font-specification:'Moomycraft, Normal';text-align:center;letter-spacing:0px;text-anchor:middle;fill:#ffffff;stroke-width:2;stroke-linejoin:round;stroke-miterlimit:0"
     d="m -1169.266,-1152.5674 -6.901,185.28674 -23.9584,4.42709 -55.4688,-128.64603 -1.1719,126.17206 -25,-0.26041 1.8229,-185.15645 23.9584,-4.8177 56.9011,132.1616 4.8177,-130.0783 z m 85.6772,81.5106 q -8.8542,-12.3698 -20.3125,-12.3698 -11.5886,0 -20.4427,12.3698 -10.2865,14.4531 -10.2865,35.5469 0,21.0938 10.2865,35.4167 8.8541,12.50001 20.4427,12.50001 11.4583,0 20.3125,-12.50001 10.2865,-14.3229 10.2865,-35.4167 0,-21.0938 -10.2865,-35.5469 z m -20.3125,-37.3699 q 12.1094,0 22.5261,6.1198 10.4166,6.1198 18.0989,16.7969 7.0313,9.8959 10.9375,22.7865 4.0365,12.7604 4.0365,27.2136 0,14.4531 -4.0365,27.3438 -3.9062,12.7604 -10.9375,22.52604 -7.6823,10.8073 -18.0989,16.9271 -10.4167,6.1198 -22.5261,6.1198 -12.2396,0 -22.6563,-6.1198 -10.4167,-6.1198 -18.099,-16.9271 -7.0312,-9.76564 -11.0677,-22.52604 -3.9063,-12.8907 -3.9063,-27.3438 0,-14.4532 3.9063,-27.2136 4.0365,-12.8906 11.0677,-22.7865 7.6823,-10.6771 18.099,-16.7969 10.4167,-6.1198 22.6563,-6.1198 z"
     id="path5" />
</svg>
