<?xml version="1.0" encoding="UTF-8"?>
<svg version="1.1" viewBox="0 0 48 48" xmlns="http://www.w3.org/2000/svg">
<rect width="48" height="48" data-bg="1"/>
<path d="M23.849 1c-3.231 3.937-5.163 8.932-5.163 14.368 0 12.705 10.558 23.005 23.582 23.005.245 0 .489-.004.732-.011C38.679 43.628 32.034 47 24.582 47 11.558 47 1 36.7 1 23.995 1 11.528 11.164 1.377 23.849 1Z" clip-rule="evenodd" fill="#49e8ff" fill-rule="evenodd" stroke="#fff" stroke-width="1px"/>
<path d="M47 31.5c0 8.358-6.662 15.172-15 15.488V47H10.857C5.413 47 1 42.617 1 37.211c0-5.407 4.413-9.79 9.857-9.79 1.889 0 3.654.528 5.154 1.443C17.271 21.559 23.678 16 31.393 16 40.012 16 47 22.94 47 31.5Z" clip-rule="evenodd" fill="#cacaca" fill-rule="evenodd" stroke="#fff" stroke-width="1px"/>
</svg>
