<?xml version="1.0" encoding="UTF-8" standalone="no"?>
<svg
   fill="none"
   viewBox="0 0 49 49"
   version="1.1"
   id="svg2"
   sodipodi:docname="rain_with_sunny_light.svg"
   inkscape:version="1.4.3 (1:1.4.3+202512261035+0d15f75042)"
   xmlns:inkscape="http://www.inkscape.org/namespaces/inkscape"
   xmlns:sodipodi="http://sodipodi.sourceforge.net/DTD/sodipodi-0.dtd"
   xmlns="http://www.w3.org/2000/svg"
   xmlns:svg="http://www.w3.org/2000/svg">
  <defs
     id="defs2" />
  <sodipodi:namedview
     id="namedview2"
     pagecolor="#ffffff"
     bordercolor="#666666"
     borderopacity="1.0"
     inkscape:showpageshadow="2"
     inkscape:pageopacity="0.0"
     inkscape:pagecheckerboard="0"
     inkscape:deskcolor="#d1d1d1"
     inkscape:zoom="11.515739"
     inkscape:cx="24.444805"
     inkscape:cy="24.444805"
     inkscape:window-width="1920"
     inkscape:window-height="1011"
     inkscape:window-x="0"
     inkscape:window-y="32"
     inkscape:window-maximized="1"
     inkscape:current-layer="svg2" />
  <rect
     x="0.0"
     y="0.0"
     width="49.0"
     height="49.0"
     fill="#ff0000"
     stroke="none"
     data-bg="1"
     id="rect1"
     style="fill:#000000;fill-opacity:1" />
  <path
     d="M16.606 2.598a.2.2 0 0 0-.278 0l-9.536 9.218c-5.344 5.164-5.343 13.538 0 18.703 5.344 5.165 14.008 5.165 19.352 0 5.344-5.165 5.344-13.538 0-18.703a13.117 13.117 0 0 0-.085-.082l-9.453-9.136Z"
     fill="#ff0000"
     stroke="white"
     stroke-width="1px"
     id="path1"
     style="fill:#c5f8ff;fill-opacity:1;stroke:none" />
  <path
     fill-rule="evenodd"
     d="M23.4 36.477c-.32.137-.45.53-.22.793a4.64 4.64 0 0 1 1.133 2.736 4.64 4.64 0 0 0 4.315 4.316 4.64 4.64 0 0 1 2.737 1.133 4.64 4.64 0 0 0 6.103 0 4.64 4.64 0 0 1 2.736-1.133 4.64 4.64 0 0 0 4.316-4.316 4.641 4.641 0 0 1 1.133-2.736 4.64 4.64 0 0 0 0-6.103 4.64 4.64 0 0 1-1.133-2.737 4.64 4.64 0 0 0-4.316-4.315 4.64 4.64 0 0 1-2.736-1.134 4.63 4.63 0 0 0-3.03-1.144c-.47-.002-.815.402-.859.87-.356 3.773-2.024 7.45-5.003 10.329a17.167 17.167 0 0 1-5.177 3.44Z"
     clip-rule="evenodd"
     fill="#ff0000"
     stroke="white"
     stroke-width="1px"
     id="path2"
     style="fill:#ffda00;fill-opacity:1;stroke:none" />
</svg>
