<?xml version="1.0" encoding="UTF-8"?>
<svg version="1.1" viewBox="0 0 49 49" xmlns="http://www.w3.org/2000/svg">
<rect width="49" height="49" data-bg="1"/>
<path d="m16.606 2.598a0.2 0.2 0 0 0-0.278 0l-9.536 9.218c-5.344 5.164-5.343 13.538 0 18.703 5.344 5.165 14.008 5.165 19.352 0s5.344-13.538 0-18.703a13.117 13.117 0 0 0-0.085-0.082l-9.453-9.136z" fill="#80e7ff" stroke="#fff" stroke-width="1px"/>
<path d="M23.4 36.477c-.32.137-.45.53-.22.793a4.64 4.64 0 0 1 1.133 2.736 4.64 4.64 0 0 0 4.315 4.316 4.64 4.64 0 0 1 2.737 1.133 4.64 4.64 0 0 0 6.103 0 4.64 4.64 0 0 1 2.736-1.133 4.64 4.64 0 0 0 4.316-4.316 4.641 4.641 0 0 1 1.133-2.736 4.64 4.64 0 0 0 0-6.103 4.64 4.64 0 0 1-1.133-2.737 4.64 4.64 0 0 0-4.316-4.315 4.64 4.64 0 0 1-2.736-1.134 4.63 4.63 0 0 0-3.03-1.144c-.47-.002-.815.402-.859.87-.356 3.773-2.024 7.45-5.003 10.329a17.167 17.167 0 0 1-5.177 3.44Z" clip-rule="evenodd" fill="#ffdc00" fill-rule="evenodd" stroke="#fff" stroke-width="1px"/>
</svg>
