<?xml version="1.0" encoding="UTF-8"?>
<svg version="1.1" viewBox="0 0 48 48" xmlns="http://www.w3.org/2000/svg">
<rect width="48" height="48" data-bg="1"/>
<path d="m19.761 3.944a4.617 4.617 0 0 1 4.295 4.295 4.62 4.62 0 0 0 1.13 2.724 4.62 4.62 0 0 1 0 6.074 4.622 4.622 0 0 0-1.13 2.724 4.616 4.616 0 0 1-4.295 4.295 4.622 4.622 0 0 0-2.724 1.129 4.618 4.618 0 0 1-6.074 0 4.622 4.622 0 0 0-2.724-1.129 4.617 4.617 0 0 1-4.295-4.295 4.622 4.622 0 0 0-1.129-2.724 4.62 4.62 0 0 1 0-6.074 4.62 4.62 0 0 0 1.13-2.724 4.618 4.618 0 0 1 4.294-4.295 4.622 4.622 0 0 0 2.724-1.129 4.62 4.62 0 0 1 6.074 0 4.622 4.622 0 0 0 2.724 1.129z" fill="#ffec00" stroke="#fff" stroke-width="1px"/>
<path d="M47 16.499c0 8.358-6.662 15.17-15 15.487V32H11v-.004l-.143.001C5.413 31.997 1 27.615 1 22.209c0-5.406 4.413-9.789 9.857-9.789 1.889 0 3.654.528 5.154 1.443C17.271 6.559 23.678 1 31.393 1 40.013 1 47 7.939 47 16.499Z" clip-rule="evenodd" fill="#c0c0c0" fill-rule="evenodd" stroke="#fff" stroke-width="1px"/>
<path d="M23.254 29.193V34h1.492v-4.807l4.508 2.403.746-1.192L25.491 28 30 25.596l-.746-1.192-4.508 2.404V22h-1.492v4.807l-4.508-2.403L18 25.596 22.509 28 18 30.404l.746 1.192 4.508-2.403Z" clip-rule="evenodd" fill="#fff" fill-rule="evenodd" stroke="#fff" stroke-width="1px"/>
<path d="M34.379 39.993V44h1.242v-4.007l3.758 2.003.621-.993L36.243 39 40 36.996l-.621-.993-3.758 2.003V34h-1.242v4.006l-3.758-2.003-.621.993L33.757 39 30 41.003l.621.993 3.758-2.003Z" clip-rule="evenodd" fill="#fff" fill-rule="evenodd" stroke="#fff" stroke-width="1px"/>
<path d="M39.254 25.193V30h1.491v-4.807l4.509 2.403.746-1.192L41.491 24 46 21.596l-.746-1.192-4.509 2.404V18h-1.491v4.807l-4.508-2.403L34 21.596 38.509 24 34 26.404l.746 1.192 4.508-2.403Z" clip-rule="evenodd" fill="#fff" fill-rule="evenodd" stroke="#fff" stroke-width="1px"/>
</svg>
