<?xml version="1.0" encoding="UTF-8" standalone="no"?>
<svg
   fill="none"
   viewBox="0 0 48 48"
   version="1.1"
   id="svg8"
   sodipodi:docname="scattered_snow_showers_night.svg"
   inkscape:version="1.4.2 (1:1.4.2+202505120737+ebf0e940d0)"
   xmlns:inkscape="http://www.inkscape.org/namespaces/inkscape"
   xmlns:sodipodi="http://sodipodi.sourceforge.net/DTD/sodipodi-0.dtd"
   xmlns="http://www.w3.org/2000/svg"
   xmlns:svg="http://www.w3.org/2000/svg">
  <defs
     id="defs8" />
  <sodipodi:namedview
     id="namedview8"
     pagecolor="#ffffff"
     bordercolor="#666666"
     borderopacity="1.0"
     inkscape:showpageshadow="2"
     inkscape:pageopacity="0.0"
     inkscape:pagecheckerboard="0"
     inkscape:deskcolor="#d1d1d1"
     inkscape:zoom="16.625"
     inkscape:cx="24.030075"
     inkscape:cy="24"
     inkscape:window-width="1920"
     inkscape:window-height="1011"
     inkscape:window-x="0"
     inkscape:window-y="32"
     inkscape:window-maximized="1"
     inkscape:current-layer="svg8" />
  <rect
     x="0.0"
     y="0.0"
     width="48.0"
     height="48.0"
     fill="#ff0000"
     stroke="none"
     data-bg="1"
     id="rect1" />
  <path
     fill-rule="evenodd"
     d="M13.969 1a11.74 11.74 0 0 0-2.705 7.496c0 6.629 5.531 12.003 12.353 12.003.128 0 .256-.002.383-.006C21.736 23.24 18.256 25 14.352 25 7.53 25 2 19.626 2 12.997 2 6.493 7.324 1.197 13.969 1Z"
     clip-rule="evenodd"
     fill="#ff0000"
     stroke="white"
     stroke-width="1px"
     id="path1"
     style="fill:#ffffff;fill-opacity:1;stroke:none" />
  <path
     fill-rule="evenodd"
     d="M47 16.499c0 8.358-6.662 15.171-15 15.487V32H11v-.003l-.143.001C5.413 31.998 1 27.615 1 22.209s4.413-9.789 9.857-9.789c1.889 0 3.655.528 5.154 1.444C17.271 6.559 23.678 1 31.393 1 40.013 1 47 7.939 47 16.499Z"
     clip-rule="evenodd"
     fill="#ff0000"
     stroke="white"
     stroke-width="1px"
     id="path2" />
  <path
     fill-rule="evenodd"
     d="M23.254 29.193V34h1.492v-4.807l4.508 2.403.746-1.192L25.491 28 30 25.596l-.746-1.192-4.508 2.404V22h-1.492v4.807l-4.508-2.403L18 25.596 22.509 28 18 30.404l.746 1.192 4.508-2.403Z"
     clip-rule="evenodd"
     fill="#ff0000"
     stroke="white"
     stroke-width="1px"
     id="path3"
     style="fill:#ffffff;fill-opacity:1;stroke:none" />
  <path
     fill-rule="evenodd"
     d="M34.379 39.993V44h1.242v-4.007l3.758 2.003.621-.993L36.243 39 40 36.996l-.621-.993-3.758 2.003V34h-1.242v4.006l-3.758-2.003-.621.993L33.757 39 30 41.003l.621.993 3.758-2.003Z"
     clip-rule="evenodd"
     fill="#ff0000"
     stroke="white"
     stroke-width="1px"
     id="path5"
     style="stroke:none;fill:#ffffff;fill-opacity:1" />
  <path
     fill-rule="evenodd"
     d="M39.254 25.193V30h1.491v-4.807l4.509 2.403.746-1.192L41.491 24 46 21.596l-.746-1.192-4.509 2.404V18h-1.491v4.807l-4.508-2.403L34 21.596 38.509 24 34 26.404l.746 1.192 4.508-2.403Z"
     clip-rule="evenodd"
     fill="#ff0000"
     stroke="white"
     stroke-width="1px"
     id="path7"
     style="fill:#ffffff;fill-opacity:1;stroke:none" />
</svg>
