<?xml version="1.0" encoding="UTF-8" standalone="no"?>
<svg
   fill="none"
   viewBox="0 0 48 48"
   version="1.1"
   id="svg3"
   sodipodi:docname="scattered_showers_day.svg"
   inkscape:version="1.4.3 (1:1.4.3+202512261035+0d15f75042)"
   xmlns:inkscape="http://www.inkscape.org/namespaces/inkscape"
   xmlns:sodipodi="http://sodipodi.sourceforge.net/DTD/sodipodi-0.dtd"
   xmlns="http://www.w3.org/2000/svg"
   xmlns:svg="http://www.w3.org/2000/svg">
  <defs
     id="defs3" />
  <sodipodi:namedview
     id="namedview3"
     pagecolor="#ffffff"
     bordercolor="#666666"
     borderopacity="1.0"
     inkscape:showpageshadow="2"
     inkscape:pageopacity="0.0"
     inkscape:pagecheckerboard="0"
     inkscape:deskcolor="#d1d1d1"
     inkscape:zoom="16.625"
     inkscape:cx="24.030075"
     inkscape:cy="24.030075"
     inkscape:window-width="1920"
     inkscape:window-height="1011"
     inkscape:window-x="0"
     inkscape:window-y="32"
     inkscape:window-maximized="1"
     inkscape:current-layer="svg3" />
  <rect
     x="0.0"
     y="0.0"
     width="48.0"
     height="48.0"
     fill="#ff0000"
     stroke="none"
     data-bg="1"
     id="rect1"
     style="fill:#000000;fill-opacity:1" />
  <path
     d="M20.83 5.623a4.674 4.674 0 0 1 4.346 4.346 4.672 4.672 0 0 0 1.142 2.757 4.675 4.675 0 0 1 0 6.146 4.672 4.672 0 0 0-1.142 2.757 4.674 4.674 0 0 1-4.346 4.346 4.672 4.672 0 0 0-2.757 1.142 4.675 4.675 0 0 1-6.146 0 4.672 4.672 0 0 0-2.757-1.142 4.674 4.674 0 0 1-4.346-4.346 4.672 4.672 0 0 0-1.142-2.757 4.675 4.675 0 0 1 0-6.146 4.672 4.672 0 0 0 1.142-2.757A4.674 4.674 0 0 1 9.17 5.623a4.672 4.672 0 0 0 2.757-1.142 4.675 4.675 0 0 1 6.146 0 4.672 4.672 0 0 0 2.757 1.142Z"
     fill="#ff0000"
     stroke="white"
     stroke-width="1px"
     id="path1"
     style="stroke:none;fill:#ffe900;fill-opacity:1" />
  <path
     fill-rule="evenodd"
     d="M47 16.5c0 8.358-6.662 15.171-15 15.488V32H11v-.002l-.143.001C5.413 31.999 1 27.616 1 22.21c0-5.407 4.413-9.79 9.857-9.79 1.889 0 3.654.528 5.154 1.444C17.271 6.559 23.678 1 31.393 1 40.013 1 47 7.939 47 16.5Z"
     clip-rule="evenodd"
     fill="#ff0000"
     stroke="white"
     stroke-width="1px"
     id="path2"
     style="fill:#b3b3b3;fill-opacity:1" />
  <path
     d="m23 20-4.243 4.101a5.663 5.663 0 0 0 0 8.201c2.343 2.264 6.142 2.264 8.486 0a5.663 5.663 0 0 0 0-8.201l-.038-.036L23 20ZM31 33l-4.243 4.101a5.663 5.663 0 0 0 0 8.201c2.343 2.264 6.142 2.264 8.486 0a5.663 5.663 0 0 0 0-8.201l-.038-.036L31 33ZM41 20l-4.243 4.101a5.662 5.662 0 0 0 0 8.2c2.344 2.265 6.143 2.265 8.486 0a5.662 5.662 0 0 0 0-8.2l-.038-.036L41 20Z"
     fill="white"
     stroke="none"
     id="path3"
     style="fill:#64dbff;fill-opacity:1" />
</svg>
