<?xml version="1.0" encoding="UTF-8" standalone="no"?>
<svg
   fill="none"
   viewBox="0 0 48 48"
   version="1.1"
   id="svg2"
   sodipodi:docname="showers_rain.svg"
   inkscape:version="1.4.3 (1:1.4.3+202512261035+0d15f75042)"
   xmlns:inkscape="http://www.inkscape.org/namespaces/inkscape"
   xmlns:sodipodi="http://sodipodi.sourceforge.net/DTD/sodipodi-0.dtd"
   xmlns="http://www.w3.org/2000/svg"
   xmlns:svg="http://www.w3.org/2000/svg">
  <defs
     id="defs2" />
  <sodipodi:namedview
     id="namedview2"
     pagecolor="#ffffff"
     bordercolor="#666666"
     borderopacity="1.0"
     inkscape:showpageshadow="2"
     inkscape:pageopacity="0.0"
     inkscape:pagecheckerboard="0"
     inkscape:deskcolor="#d1d1d1"
     inkscape:zoom="18.9375"
     inkscape:cx="24"
     inkscape:cy="24"
     inkscape:current-layer="svg2" />
  <rect
     x="0.0"
     y="0.0"
     width="48.0"
     height="48.0"
     fill="#ff0000"
     stroke="none"
     data-bg="1"
     id="rect1"
     style="fill:#000000;fill-opacity:1" />
  <path
     fill-rule="evenodd"
     d="M47 16.5c0 8.358-6.662 15.171-15 15.488V32H11v-.002l-.143.001C5.413 31.999 1 27.616 1 22.21c0-5.407 4.413-9.79 9.857-9.79 1.889 0 3.654.528 5.154 1.444C17.271 6.559 23.678 1 31.393 1 40.013 1 47 7.939 47 16.5Z"
     clip-rule="evenodd"
     fill="#ff0000"
     stroke="white"
     stroke-width="1px"
     id="path1"
     style="fill:#cdcdcd;fill-opacity:1" />
  <path
     d="m23 20-4.243 4.101a5.663 5.663 0 0 0 0 8.201c2.343 2.264 6.142 2.264 8.486 0a5.663 5.663 0 0 0 0-8.201l-.038-.036L23 20ZM31 33l-4.243 4.101a5.663 5.663 0 0 0 0 8.201c2.343 2.264 6.142 2.264 8.486 0a5.663 5.663 0 0 0 0-8.201l-.038-.036L31 33ZM41 20l-4.243 4.101a5.662 5.662 0 0 0 0 8.2c2.344 2.265 6.143 2.265 8.486 0a5.662 5.662 0 0 0 0-8.2l-.038-.036L41 20Z"
     fill="white"
     stroke="none"
     id="path2"
     style="fill:#2cc0f1;fill-opacity:1" />
</svg>
