<?xml version="1.0" encoding="UTF-8"?>
<svg version="1.1" viewBox="0 0 48 48" xmlns="http://www.w3.org/2000/svg">
<rect width="48" height="48" data-bg="1"/>
<path d="M47 16.5c0 8.358-6.662 15.171-15 15.488V32H11v-.002l-.143.001C5.413 31.999 1 27.616 1 22.21c0-5.407 4.413-9.79 9.857-9.79 1.889 0 3.654.528 5.154 1.444C17.271 6.559 23.678 1 31.393 1 40.013 1 47 7.939 47 16.5Z" clip-rule="evenodd" fill="#c0c0c0" fill-rule="evenodd" stroke="#fff" stroke-width="1px"/>
<path d="M23.254 37.193V42h1.492v-4.807l4.508 2.403.746-1.192L25.491 36 30 33.596l-.746-1.192-4.508 2.404V30h-1.492v4.807l-4.508-2.403L18 33.596 22.509 36 18 38.404l.746 1.192 4.508-2.403Z" clip-rule="evenodd" fill="#fff" fill-rule="evenodd" stroke="#fff" stroke-width="1px"/>
<path d="M36.379 42.993V47h1.242v-4.007l3.758 2.003.621-.993L38.243 42 42 39.996l-.621-.993-3.758 2.003V37h-1.242v4.006l-3.758-2.003-.621.993L35.757 42 32 44.003l.621.993 3.758-2.003Z" clip-rule="evenodd" fill="#fff" fill-rule="evenodd" stroke="#fff" stroke-width="1px"/>
<path d="M39.254 29.193V34h1.491v-4.807l4.509 2.403.746-1.192L41.491 28 46 25.596l-.746-1.192-4.509 2.404V22h-1.491v4.807l-4.508-2.403L34 25.596 38.509 28 34 30.404l.746 1.192 4.508-2.403Z" clip-rule="evenodd" fill="#fff" fill-rule="evenodd" stroke="#fff" stroke-width="1px"/>
</svg>
