<?xml version="1.0" encoding="UTF-8" standalone="no"?>
<svg
   fill="none"
   viewBox="0 0 48 48"
   version="1.1"
   id="svg7"
   sodipodi:docname="showers_snow.svg"
   inkscape:version="1.4.3 (1:1.4.3+202512261035+0d15f75042)"
   xmlns:inkscape="http://www.inkscape.org/namespaces/inkscape"
   xmlns:sodipodi="http://sodipodi.sourceforge.net/DTD/sodipodi-0.dtd"
   xmlns="http://www.w3.org/2000/svg"
   xmlns:svg="http://www.w3.org/2000/svg">
  <defs
     id="defs7" />
  <sodipodi:namedview
     id="namedview7"
     pagecolor="#ffffff"
     bordercolor="#666666"
     borderopacity="1.0"
     inkscape:showpageshadow="2"
     inkscape:pageopacity="0.0"
     inkscape:pagecheckerboard="0"
     inkscape:deskcolor="#d1d1d1"
     inkscape:zoom="16.625"
     inkscape:cx="24.030075"
     inkscape:cy="24.030075"
     inkscape:window-width="1920"
     inkscape:window-height="1011"
     inkscape:window-x="0"
     inkscape:window-y="32"
     inkscape:window-maximized="1"
     inkscape:current-layer="svg7" />
  <rect
     x="0.0"
     y="0.0"
     width="48.0"
     height="48.0"
     fill="#ff0000"
     stroke="none"
     data-bg="1"
     id="rect1"
     style="fill:#000000;fill-opacity:1" />
  <path
     fill-rule="evenodd"
     d="M47 16.5c0 8.358-6.662 15.171-15 15.488V32H11v-.002l-.143.001C5.413 31.999 1 27.616 1 22.21c0-5.407 4.413-9.79 9.857-9.79 1.889 0 3.654.528 5.154 1.444C17.271 6.559 23.678 1 31.393 1 40.013 1 47 7.939 47 16.5Z"
     clip-rule="evenodd"
     fill="#ff0000"
     stroke="white"
     stroke-width="1px"
     id="path1"
     style="fill:#c0c0c0;fill-opacity:1" />
  <path
     fill-rule="evenodd"
     d="M23.254 37.193V42h1.492v-4.807l4.508 2.403.746-1.192L25.491 36 30 33.596l-.746-1.192-4.508 2.404V30h-1.492v4.807l-4.508-2.403L18 33.596 22.509 36 18 38.404l.746 1.192 4.508-2.403Z"
     clip-rule="evenodd"
     fill="#ff0000"
     stroke="white"
     stroke-width="1px"
     id="path2"
     style="fill:#ffffff;fill-opacity:1;stroke:none" />
  <path
     fill-rule="evenodd"
     d="M36.379 42.993V47h1.242v-4.007l3.758 2.003.621-.993L38.243 42 42 39.996l-.621-.993-3.758 2.003V37h-1.242v4.006l-3.758-2.003-.621.993L35.757 42 32 44.003l.621.993 3.758-2.003Z"
     clip-rule="evenodd"
     fill="#ff0000"
     stroke="white"
     stroke-width="1px"
     id="path4"
     style="stroke:none;fill:#ffffff;fill-opacity:1" />
  <path
     fill-rule="evenodd"
     d="M39.254 29.193V34h1.491v-4.807l4.509 2.403.746-1.192L41.491 28 46 25.596l-.746-1.192-4.509 2.404V22h-1.491v4.807l-4.508-2.403L34 25.596 38.509 28 34 30.404l.746 1.192 4.508-2.403Z"
     clip-rule="evenodd"
     fill="#ff0000"
     stroke="white"
     stroke-width="1px"
     id="path6"
     style="fill:#ffffff;fill-opacity:1;stroke:none" />
</svg>
