<?xml version="1.0" encoding="UTF-8"?>
<svg version="1.1" viewBox="0 0 48 48" xmlns="http://www.w3.org/2000/svg">
<rect width="48" height="48" data-bg="1"/>
<path d="M47 16.5c0 8.358-6.662 15.171-15 15.488V32H11v-.002l-.143.001C5.413 31.999 1 27.616 1 22.21c0-5.407 4.413-9.79 9.857-9.79 1.889 0 3.654.528 5.154 1.444C17.271 6.559 23.679 1 31.393 1 40.013 1 47 7.939 47 16.5Z" clip-rule="evenodd" fill="#f00" fill-rule="evenodd" stroke="#fff" stroke-width="1px"/>
<path d="M47 16.5c0 8.358-6.662 15.171-15 15.488V32H11v-.002l-.143.001C5.413 31.999 1 27.616 1 22.21c0-5.407 4.413-9.79 9.857-9.79 1.889 0 3.654.528 5.154 1.444C17.271 6.559 23.679 1 31.393 1 40.013 1 47 7.939 47 16.5Z" clip-rule="evenodd" fill="#c6c6c6" fill-rule="evenodd" stroke="#fff" stroke-width="1px"/>
<path d="m9.44 21.719 5.44 5.439-5.44 5.439L4 27.158l5.44-5.439ZM23.04 35.316l5.44 5.439-5.44 5.439-5.44-5.439 5.44-5.439Z" fill="#6ee8ff"/>
<path d="m28.48 19 2.72 2.72-16.32 16.318-2.72-2.72L28.48 19ZM35.28 25.799l2.72 2.72-8.16 8.159-2.72-2.72 8.16-8.159Z" fill="#fff"/>
</svg>
