<?xml version="1.0" encoding="UTF-8"?>
<svg version="1.1" viewBox="0 0 49 49" xmlns="http://www.w3.org/2000/svg">
<rect width="49" height="49" data-bg="1"/>
<path d="m23.233 37.106a0.026 0.026 0 0 0-0.013 0.042 4.64 4.64 0 0 1 1.134 2.737 4.64 4.64 0 0 0 4.315 4.315 4.64 4.64 0 0 1 2.737 1.134 4.64 4.64 0 0 0 6.102 0 4.64 4.64 0 0 1 2.737-1.134 4.64 4.64 0 0 0 4.315-4.315 4.64 4.64 0 0 1 1.134-2.737 4.64 4.64 0 0 0 0-6.103 4.64 4.64 0 0 1-1.134-2.736 4.64 4.64 0 0 0-4.315-4.316 4.64 4.64 0 0 1-2.737-1.133c-0.103-0.09-0.262-0.035-0.297 0.098a20.038 20.038 0 0 1-13.978 14.148z" clip-rule="evenodd" fill="#ffc800" fill-rule="evenodd" stroke="#fff" stroke-width="1px"/>
<path d="m24.7 23.677a0.5 0.5 0 0 1 0.233 0.304l1.312 4.897a0.5 0.5 0 0 0 0.613 0.353l2.222-0.595a0.5 0.5 0 0 0 0.353-0.613l-0.986-3.68a0.5 0.5 0 0 1 0.354-0.612l3.68-0.987a0.5 0.5 0 0 0 0.355-0.612l-0.596-2.222a0.5 0.5 0 0 0-0.612-0.353l-4.898 1.312a0.5 0.5 0 0 1-0.38-0.05l-2.127-1.228a0.528 0.528 0 0 1-0.245-0.561 6.273 6.273 0 0 0 2e-3 -2.398 0.528 0.528 0 0 1 0.245-0.56l2.126-1.227a0.5 0.5 0 0 1 0.379-0.05l4.898 1.312a0.5 0.5 0 0 0 0.612-0.354l0.595-2.221a0.5 0.5 0 0 0-0.353-0.612l-3.682-0.987a0.5 0.5 0 0 1-0.353-0.612l0.986-3.68a0.5 0.5 0 0 0-0.354-0.613l-2.221-0.595a0.5 0.5 0 0 0-0.613 0.353l-1.312 4.897a0.5 0.5 0 0 1-0.233 0.304l-2.114 1.22a0.528 0.528 0 0 1-0.611-0.07 6.239 6.239 0 0 0-2.088-1.216 0.528 0.528 0 0 1-0.363-0.493v-2.428a0.5 0.5 0 0 1 0.147-0.353l3.586-3.585a0.5 0.5 0 0 0 0-0.707l-1.627-1.627a0.5 0.5 0 0 0-0.708 0l-2.695 2.695a0.5 0.5 0 0 1-0.707 0l-2.696-2.695a0.5 0.5 0 0 0-0.707 0l-1.626 1.627a0.5 0.5 0 0 0 0 0.707l3.586 3.585a0.5 0.5 0 0 1 0.146 0.353v2.411a0.528 0.528 0 0 1-0.367 0.494 6.238 6.238 0 0 0-2.115 1.216 0.528 0.528 0 0 1-0.61 0.069l-2.085-1.204a0.5 0.5 0 0 1-0.233-0.303l-1.311-4.897a0.5 0.5 0 0 0-0.612-0.353l-2.222 0.595a0.5 0.5 0 0 0-0.353 0.612l0.986 3.681a0.5 0.5 0 0 1-0.354 0.613l-3.68 0.986a0.5 0.5 0 0 0-0.354 0.612l0.595 2.222a0.5 0.5 0 0 0 0.613 0.353l4.898-1.312a0.5 0.5 0 0 1 0.38 0.05l2.08 1.2a0.528 0.528 0 0 1 0.244 0.563 6.276 6.276 0 0 0 3e-3 2.446 0.528 0.528 0 0 1-0.245 0.563l-2.083 1.203a0.5 0.5 0 0 1-0.38 0.05l-4.897-1.313a0.5 0.5 0 0 0-0.613 0.354l-0.595 2.221a0.5 0.5 0 0 0 0.354 0.612l3.681 0.987a0.5 0.5 0 0 1 0.354 0.612l-0.987 3.68a0.5 0.5 0 0 0 0.354 0.613l2.222 0.595a0.5 0.5 0 0 0 0.612-0.353l1.313-4.897a0.5 0.5 0 0 1 0.233-0.304l2.094-1.209a0.527 0.527 0 0 1 0.609 0.068c0.61 0.53 1.323 0.944 2.105 1.207a0.528 0.528 0 0 1 0.367 0.495v2.426a0.5 0.5 0 0 1-0.146 0.353l-3.586 3.585a0.5 0.5 0 0 0 0 0.707l1.626 1.627a0.5 0.5 0 0 0 0.707 0l2.696-2.695a0.5 0.5 0 0 1 0.707 0l2.695 2.695a0.5 0.5 0 0 0 0.708 0l1.626-1.626a0.5 0.5 0 0 0 0-0.707l-3.586-3.586a0.5 0.5 0 0 1-0.147-0.353v-2.444c0-0.225 0.15-0.42 0.363-0.493a6.238 6.238 0 0 0 2.078-1.208 0.528 0.528 0 0 1 0.61-0.07l2.125 1.227zm-6.85-8.796a2.944 2.944 0 1 0-2e-3 5.888 2.944 2.944 0 0 0 1e-3 -5.888z" clip-rule="evenodd" fill="#47f5ff" fill-rule="evenodd" stroke="#fff" stroke-width="1px"/>
</svg>
