<?xml version="1.0" encoding="UTF-8"?>
<svg version="1.1" viewBox="0 0 49 49" xmlns="http://www.w3.org/2000/svg">
<rect width="49" height="49" data-bg="1"/>
<path d="m23.233 37.106a0.026 0.026 0 0 0-0.013 0.042 4.64 4.64 0 0 1 1.133 2.737 4.64 4.64 0 0 0 4.317 4.315 4.64 4.64 0 0 1 2.736 1.134 4.64 4.64 0 0 0 6.103 0 4.64 4.64 0 0 1 2.737-1.134 4.64 4.64 0 0 0 4.315-4.315 4.64 4.64 0 0 1 1.134-2.737 4.64 4.64 0 0 0 0-6.103 4.64 4.64 0 0 1-1.134-2.736 4.64 4.64 0 0 0-4.315-4.316 4.64 4.64 0 0 1-2.737-1.133c-0.103-0.09-0.262-0.035-0.297 0.098a20.038 20.038 0 0 1-13.978 14.148z" clip-rule="evenodd" fill="#ffb800" fill-rule="evenodd" stroke="#fff" stroke-width="1px"/>
<path d="m24.88 23.78 1.495 5.58 3.188-0.854-1.245-4.646 4.647-1.245-0.854-3.188-5.581 1.496-2.637-1.522a6.255 6.255 0 0 0 3e-3 -3.14l2.634-1.52 5.58 1.495 0.855-3.187-4.648-1.245 1.245-4.647-3.188-0.854-1.495 5.58-2.625 1.516a6.239 6.239 0 0 0-2.73-1.591v-3.015l4.086-4.085-2.333-2.334-3.403 3.403-3.403-3.403-2.333 2.334 4.086 4.085v3.001a6.237 6.237 0 0 0-2.761 1.586l-2.595-1.497-1.495-5.58-3.188 0.854 1.245 4.647-4.647 1.245 0.855 3.188 5.581-1.496 2.59 1.495a6.255 6.255 0 0 0 3e-3 3.19l-2.594 1.497-5.58-1.495-0.854 3.187 4.646 1.245-1.245 4.647 3.188 0.854 1.495-5.58 2.604-1.503a6.237 6.237 0 0 0 2.751 1.576v3.017l-4.086 4.085 2.333 2.334 3.403-3.402 3.403 3.402 2.333-2.334-4.086-4.085v-3.03a6.238 6.238 0 0 0 2.72-1.581l2.636 1.52zm-7.03-8.9a2.9445 2.9445 0 1 0-2e-3 5.889 2.944 2.944 0 0 0 1e-3 -5.888z" clip-rule="evenodd" fill="#37fdff" fill-rule="evenodd" stroke="#fff" stroke-width="1px"/>
</svg>
