<?xml version="1.0" encoding="UTF-8" standalone="no"?>
<svg
   fill="none"
   viewBox="0 0 49 49"
   version="1.1"
   id="svg3"
   sodipodi:docname="snow_with_rain_light.svg"
   inkscape:version="1.4.3 (1:1.4.3+202512261035+0d15f75042)"
   xmlns:inkscape="http://www.inkscape.org/namespaces/inkscape"
   xmlns:sodipodi="http://sodipodi.sourceforge.net/DTD/sodipodi-0.dtd"
   xmlns="http://www.w3.org/2000/svg"
   xmlns:svg="http://www.w3.org/2000/svg">
  <sodipodi:namedview
     id="namedview3"
     pagecolor="#ffffff"
     bordercolor="#666666"
     borderopacity="1.0"
     inkscape:showpageshadow="2"
     inkscape:pageopacity="0.0"
     inkscape:pagecheckerboard="0"
     inkscape:deskcolor="#d1d1d1"
     inkscape:zoom="16.285714"
     inkscape:cx="24.469299"
     inkscape:cy="24.469299"
     inkscape:window-width="1920"
     inkscape:window-height="1011"
     inkscape:window-x="0"
     inkscape:window-y="32"
     inkscape:window-maximized="1"
     inkscape:current-layer="svg3" />
  <rect
     x="0.0"
     y="0.0"
     width="49.0"
     height="49.0"
     fill="#ff0000"
     stroke="none"
     data-bg="1"
     id="rect1"
     style="fill:#000000;fill-opacity:1" />
  <path
     d="m 28.243,35.15 c -0.85,3.047 -0.039,6.437 2.436,8.83 3.682,3.558 9.653,3.558 13.336,0 3.682,-3.56 3.682,-9.33 0,-12.89 l -0.06,-0.056 -6.47,-6.254 a 0.2,0.2 0 0 0 -0.278,0 l -0.792,0.765 a 20.074,20.074 0 0 1 -8.172,9.605 z"
     fill="#ff0000"
     stroke="#ffffff"
     stroke-width="1px"
     id="path1"
     style="clip-rule:evenodd;fill:#25ecff;fill-opacity:1;fill-rule:evenodd;stroke:none" />
  <path
     d="m 24.693,23.894 a 0.5,0.5 0 0 1 0.233,0.304 l 1.312,4.896 a 0.5,0.5 0 0 0 0.613,0.354 l 2.222,-0.596 A 0.5,0.5 0 0 0 29.426,28.24 L 28.44,24.56 a 0.5,0.5 0 0 1 0.354,-0.613 l 3.68,-0.986 a 0.5,0.5 0 0 0 0.355,-0.612 l -0.596,-2.222 a 0.5,0.5 0 0 0 -0.612,-0.353 l -4.898,1.312 a 0.5,0.5 0 0 1 -0.38,-0.05 l -2.127,-1.228 a 0.528,0.528 0 0 1 -0.245,-0.561 6.275,6.275 0 0 0 0.002,-2.399 0.528,0.528 0 0 1 0.245,-0.56 l 2.125,-1.227 a 0.5,0.5 0 0 1 0.38,-0.05 l 4.898,1.312 a 0.5,0.5 0 0 0 0.612,-0.353 l 0.595,-2.222 A 0.5,0.5 0 0 0 32.475,13.136 L 28.793,12.15 A 0.5,0.5 0 0 1 28.44,11.537 l 0.986,-3.68 A 0.5,0.5 0 0 0 29.073,7.244 L 26.85,6.65 A 0.5,0.5 0 0 0 26.237,7.004 L 24.926,11.9 a 0.5,0.5 0 0 1 -0.233,0.303 l -2.115,1.22 a 0.528,0.528 0 0 1 -0.61,-0.07 6.238,6.238 0 0 0 -2.088,-1.216 0.528,0.528 0 0 1 -0.363,-0.492 V 9.217 A 0.5,0.5 0 0 1 19.664,8.863 L 23.25,5.278 a 0.5,0.5 0 0 0 0,-0.707 L 21.624,2.945 a 0.5,0.5 0 0 0 -0.708,0 L 18.221,5.64 a 0.5,0.5 0 0 1 -0.707,0 L 14.818,2.945 a 0.5,0.5 0 0 0 -0.707,0 L 12.485,4.57 a 0.5,0.5 0 0 0 0,0.707 l 3.586,3.585 a 0.5,0.5 0 0 1 0.146,0.354 v 2.41 a 0.528,0.528 0 0 1 -0.367,0.495 6.239,6.239 0 0 0 -2.115,1.216 0.528,0.528 0 0 1 -0.61,0.069 L 11.04,12.202 A 0.5,0.5 0 0 1 10.807,11.898 L 9.495,7.003 A 0.5,0.5 0 0 0 8.883,6.649 L 6.661,7.245 A 0.5,0.5 0 0 0 6.308,7.857 l 0.986,3.68 A 0.5,0.5 0 0 1 6.94,12.15 l -3.68,0.986 a 0.5,0.5 0 0 0 -0.354,0.613 l 0.595,2.222 a 0.5,0.5 0 0 0 0.613,0.353 l 4.898,-1.313 a 0.5,0.5 0 0 1 0.38,0.05 l 2.08,1.2 a 0.528,0.528 0 0 1 0.244,0.563 6.276,6.276 0 0 0 0.003,2.446 0.528,0.528 0 0 1 -0.245,0.564 L 9.39,21.036 a 0.5,0.5 0 0 1 -0.38,0.05 L 4.113,19.774 A 0.5,0.5 0 0 0 3.5,20.127 l -0.595,2.222 a 0.5,0.5 0 0 0 0.354,0.612 l 3.681,0.986 a 0.5,0.5 0 0 1 0.354,0.613 l -0.987,3.68 a 0.5,0.5 0 0 0 0.354,0.613 l 2.222,0.595 a 0.5,0.5 0 0 0 0.612,-0.354 l 1.313,-4.897 a 0.5,0.5 0 0 1 0.232,-0.303 l 2.095,-1.21 a 0.528,0.528 0 0 1 0.609,0.069 c 0.61,0.53 1.323,0.944 2.105,1.207 a 0.528,0.528 0 0 1 0.367,0.494 v 2.426 a 0.5,0.5 0 0 1 -0.146,0.354 l -3.586,3.585 a 0.5,0.5 0 0 0 0,0.707 l 1.626,1.626 a 0.5,0.5 0 0 0 0.707,0 l 2.696,-2.695 a 0.5,0.5 0 0 1 0.707,0 l 2.695,2.695 a 0.5,0.5 0 0 0 0.708,0 l 1.626,-1.626 a 0.5,0.5 0 0 0 0,-0.707 L 19.662,27.233 A 0.5,0.5 0 0 1 19.516,26.88 v -2.442 c 0,-0.225 0.15,-0.42 0.363,-0.493 a 6.24,6.24 0 0 0 2.078,-1.208 0.528,0.528 0 0 1 0.61,-0.07 l 2.125,1.227 z m -6.85,-8.796 a 2.9440002,2.9440002 0 1 0 -0.002,5.888 2.9445,2.9445 0 0 0 10e-4,-5.889 z"
     fill="#ff0000"
     stroke="#ffffff"
     stroke-width="1px"
     id="path2"
     style="clip-rule:evenodd;fill:#ccf9ff;fill-opacity:1;fill-rule:evenodd;stroke:none" />
  <defs
     id="defs3" />
</svg>
