<?xml version="1.0" encoding="UTF-8"?>
<svg version="1.1" viewBox="0 0 49 49" xmlns="http://www.w3.org/2000/svg">
<rect width="49" height="49" data-bg="1"/>
<path d="m28.243 35.15c-0.85 3.047-0.039 6.437 2.436 8.83 3.682 3.558 9.653 3.558 13.336 0 3.682-3.56 3.682-9.33 0-12.89l-0.06-0.056-6.47-6.254a0.2 0.2 0 0 0-0.278 0l-0.792 0.765a20.074 20.074 0 0 1-8.172 9.605z" clip-rule="evenodd" fill="#25ecff" fill-rule="evenodd" stroke="#fff" stroke-width="1px"/>
<path d="m24.693 23.894a0.5 0.5 0 0 1 0.233 0.304l1.312 4.896a0.5 0.5 0 0 0 0.613 0.354l2.222-0.596a0.5 0.5 0 0 0 0.353-0.612l-0.986-3.68a0.5 0.5 0 0 1 0.354-0.613l3.68-0.986a0.5 0.5 0 0 0 0.355-0.612l-0.596-2.222a0.5 0.5 0 0 0-0.612-0.353l-4.898 1.312a0.5 0.5 0 0 1-0.38-0.05l-2.127-1.228a0.528 0.528 0 0 1-0.245-0.561 6.275 6.275 0 0 0 2e-3 -2.399 0.528 0.528 0 0 1 0.245-0.56l2.125-1.227a0.5 0.5 0 0 1 0.38-0.05l4.898 1.312a0.5 0.5 0 0 0 0.612-0.353l0.595-2.222a0.5 0.5 0 0 0-0.353-0.612l-3.682-0.986a0.5 0.5 0 0 1-0.353-0.613l0.986-3.68a0.5 0.5 0 0 0-0.353-0.613l-2.223-0.594a0.5 0.5 0 0 0-0.613 0.354l-1.311 4.896a0.5 0.5 0 0 1-0.233 0.303l-2.115 1.22a0.528 0.528 0 0 1-0.61-0.07 6.238 6.238 0 0 0-2.088-1.216 0.528 0.528 0 0 1-0.363-0.492v-2.428a0.5 0.5 0 0 1 0.147-0.354l3.586-3.585a0.5 0.5 0 0 0 0-0.707l-1.626-1.626a0.5 0.5 0 0 0-0.708 0l-2.695 2.695a0.5 0.5 0 0 1-0.707 0l-2.696-2.695a0.5 0.5 0 0 0-0.707 0l-1.626 1.625a0.5 0.5 0 0 0 0 0.707l3.586 3.585a0.5 0.5 0 0 1 0.146 0.354v2.41a0.528 0.528 0 0 1-0.367 0.495 6.239 6.239 0 0 0-2.115 1.216 0.528 0.528 0 0 1-0.61 0.069l-2.085-1.204a0.5 0.5 0 0 1-0.233-0.304l-1.312-4.895a0.5 0.5 0 0 0-0.612-0.354l-2.222 0.596a0.5 0.5 0 0 0-0.353 0.612l0.986 3.68a0.5 0.5 0 0 1-0.354 0.613l-3.68 0.986a0.5 0.5 0 0 0-0.354 0.613l0.595 2.222a0.5 0.5 0 0 0 0.613 0.353l4.898-1.313a0.5 0.5 0 0 1 0.38 0.05l2.08 1.2a0.528 0.528 0 0 1 0.244 0.563 6.276 6.276 0 0 0 3e-3 2.446 0.528 0.528 0 0 1-0.245 0.564l-2.084 1.202a0.5 0.5 0 0 1-0.38 0.05l-4.897-1.312a0.5 0.5 0 0 0-0.613 0.353l-0.595 2.222a0.5 0.5 0 0 0 0.354 0.612l3.681 0.986a0.5 0.5 0 0 1 0.354 0.613l-0.987 3.68a0.5 0.5 0 0 0 0.354 0.613l2.222 0.595a0.5 0.5 0 0 0 0.612-0.354l1.313-4.897a0.5 0.5 0 0 1 0.232-0.303l2.095-1.21a0.528 0.528 0 0 1 0.609 0.069c0.61 0.53 1.323 0.944 2.105 1.207a0.528 0.528 0 0 1 0.367 0.494v2.426a0.5 0.5 0 0 1-0.146 0.354l-3.586 3.585a0.5 0.5 0 0 0 0 0.707l1.626 1.626a0.5 0.5 0 0 0 0.707 0l2.696-2.695a0.5 0.5 0 0 1 0.707 0l2.695 2.695a0.5 0.5 0 0 0 0.708 0l1.626-1.626a0.5 0.5 0 0 0 0-0.707l-3.587-3.586a0.5 0.5 0 0 1-0.146-0.353v-2.442c0-0.225 0.15-0.42 0.363-0.493a6.24 6.24 0 0 0 2.078-1.208 0.528 0.528 0 0 1 0.61-0.07l2.125 1.227zm-6.85-8.796a2.944 2.944 0 1 0-2e-3 5.888 2.9445 2.9445 0 0 0 1e-3 -5.889z" clip-rule="evenodd" fill="#ccf9ff" fill-rule="evenodd" stroke="#fff" stroke-width="1px"/>
</svg>
