<?xml version="1.0" encoding="UTF-8" standalone="no"?>
<svg
   fill="none"
   viewBox="0 0 49 49"
   version="1.1"
   id="svg3"
   sodipodi:docname="snow_with_rain_dark.svg"
   inkscape:version="1.4.3 (1:1.4.3+202512261035+0d15f75042)"
   xmlns:inkscape="http://www.inkscape.org/namespaces/inkscape"
   xmlns:sodipodi="http://sodipodi.sourceforge.net/DTD/sodipodi-0.dtd"
   xmlns="http://www.w3.org/2000/svg"
   xmlns:svg="http://www.w3.org/2000/svg">
  <sodipodi:namedview
     id="namedview3"
     pagecolor="#ffffff"
     bordercolor="#666666"
     borderopacity="1.0"
     inkscape:showpageshadow="2"
     inkscape:pageopacity="0.0"
     inkscape:pagecheckerboard="0"
     inkscape:deskcolor="#d1d1d1"
     inkscape:zoom="16.285714"
     inkscape:cx="24.469299"
     inkscape:cy="24.469299"
     inkscape:window-width="1920"
     inkscape:window-height="1011"
     inkscape:window-x="0"
     inkscape:window-y="32"
     inkscape:window-maximized="1"
     inkscape:current-layer="svg3" />
  <rect
     x="0.0"
     y="0.0"
     width="49.0"
     height="49.0"
     fill="#ff0000"
     stroke="none"
     data-bg="1"
     id="rect1"
     style="fill:#000000;fill-opacity:1" />
  <path
     d="m 28.243,35.15 c -0.85,3.047 -0.039,6.437 2.436,8.83 3.682,3.558 9.653,3.558 13.336,0 3.682,-3.56 3.682,-9.33 0,-12.89 a 7.739,7.739 0 0 0 -0.06,-0.056 l -6.47,-6.254 a 0.2,0.2 0 0 0 -0.278,0 l -0.792,0.765 a 20.074,20.074 0 0 1 -8.172,9.605 z"
     fill="#ff0000"
     stroke="#ffffff"
     stroke-width="1px"
     id="path1"
     style="clip-rule:evenodd;fill-rule:evenodd;stroke:none;fill:#4bdfff;fill-opacity:1" />
  <path
     d="m 24.873,23.998 1.495,5.58 3.188,-0.855 -1.245,-4.646 4.647,-1.246 -0.854,-3.187 -5.581,1.496 -2.637,-1.522 a 6.257,6.257 0 0 0 0.003,-3.14 l 2.634,-1.52 5.58,1.495 0.855,-3.188 L 28.31,12.02 29.555,7.374 26.367,6.52 24.872,12.1 22.247,13.615 a 6.239,6.239 0 0 0 -2.73,-1.59 V 9.01 L 23.603,4.925 21.27,2.59 17.867,5.992 14.464,2.59 12.131,4.924 16.217,9.009 v 3.001 a 6.238,6.238 0 0 0 -2.761,1.586 L 10.86,12.1 9.366,6.52 6.178,7.375 l 1.245,4.647 -4.646,1.245 0.854,3.187 5.581,-1.495 2.59,1.495 a 6.254,6.254 0 0 0 0.003,3.19 L 9.212,21.14 3.63,19.644 l -0.854,3.188 4.647,1.245 -1.245,4.646 3.188,0.854 1.495,-5.58 2.604,-1.503 a 6.237,6.237 0 0 0 2.751,1.577 v 3.016 l -4.086,4.085 2.333,2.334 3.403,-3.402 3.403,3.402 2.333,-2.334 -4.086,-4.085 v -3.03 a 6.238,6.238 0 0 0 2.72,-1.58 l 2.636,1.52 z m -7.03,-8.9 a 2.9440002,2.9440002 0 1 0 -0.002,5.888 2.9445,2.9445 0 0 0 10e-4,-5.889 z"
     fill="#ff0000"
     stroke="#ffffff"
     stroke-width="1px"
     id="path2"
     style="clip-rule:evenodd;fill-rule:evenodd;stroke:none;fill:#cbfcff;fill-opacity:1" />
  <defs
     id="defs3" />
</svg>
