<?xml version="1.0" encoding="UTF-8"?>
<svg version="1.1" viewBox="0 0 49 49" xmlns="http://www.w3.org/2000/svg">
<rect width="49" height="49" data-bg="1"/>
<path d="m28.243 35.15c-0.85 3.047-0.039 6.437 2.436 8.83 3.682 3.558 9.653 3.558 13.336 0 3.682-3.56 3.682-9.33 0-12.89a7.739 7.739 0 0 0-0.06-0.056l-6.47-6.254a0.2 0.2 0 0 0-0.278 0l-0.792 0.765a20.074 20.074 0 0 1-8.172 9.605z" clip-rule="evenodd" fill="#4bdfff" fill-rule="evenodd" stroke="#fff" stroke-width="1px"/>
<path d="m24.873 23.998 1.495 5.58 3.188-0.855-1.245-4.646 4.647-1.246-0.854-3.187-5.581 1.496-2.637-1.522a6.257 6.257 0 0 0 3e-3 -3.14l2.634-1.52 5.58 1.495 0.855-3.188-4.648-1.245 1.245-4.646-3.188-0.854-1.495 5.58-2.625 1.515a6.239 6.239 0 0 0-2.73-1.59v-3.015l4.086-4.085-2.333-2.335-3.403 3.402-3.403-3.402-2.333 2.334 4.086 4.085v3.001a6.238 6.238 0 0 0-2.761 1.586l-2.596-1.496-1.494-5.58-3.188 0.855 1.245 4.647-4.646 1.245 0.854 3.187 5.581-1.495 2.59 1.495a6.254 6.254 0 0 0 3e-3 3.19l-2.593 1.496-5.582-1.496-0.854 3.188 4.647 1.245-1.245 4.646 3.188 0.854 1.495-5.58 2.604-1.503a6.237 6.237 0 0 0 2.751 1.577v3.016l-4.086 4.085 2.333 2.334 3.403-3.402 3.403 3.402 2.333-2.334-4.086-4.085v-3.03a6.238 6.238 0 0 0 2.72-1.58l2.636 1.52zm-7.03-8.9a2.944 2.944 0 1 0-2e-3 5.888 2.9445 2.9445 0 0 0 1e-3 -5.889z" clip-rule="evenodd" fill="#cbfcff" fill-rule="evenodd" stroke="#fff" stroke-width="1px"/>
</svg>
