<?xml version="1.0" encoding="UTF-8" standalone="no"?>
<svg
   fill="none"
   viewBox="0 0 49 49"
   version="1.1"
   id="svg3"
   sodipodi:docname="snow_with_sunny_light.svg"
   inkscape:version="1.4.3 (1:1.4.3+202512261035+0d15f75042)"
   xmlns:inkscape="http://www.inkscape.org/namespaces/inkscape"
   xmlns:sodipodi="http://sodipodi.sourceforge.net/DTD/sodipodi-0.dtd"
   xmlns="http://www.w3.org/2000/svg"
   xmlns:svg="http://www.w3.org/2000/svg">
  <sodipodi:namedview
     id="namedview3"
     pagecolor="#ffffff"
     bordercolor="#666666"
     borderopacity="1.0"
     inkscape:showpageshadow="2"
     inkscape:pageopacity="0.0"
     inkscape:pagecheckerboard="0"
     inkscape:deskcolor="#d1d1d1"
     inkscape:zoom="16.285714"
     inkscape:cx="24.469299"
     inkscape:cy="24.469299"
     inkscape:window-width="1920"
     inkscape:window-height="1011"
     inkscape:window-x="0"
     inkscape:window-y="32"
     inkscape:window-maximized="1"
     inkscape:current-layer="svg3" />
  <rect
     x="0.0"
     y="0.0"
     width="49.0"
     height="49.0"
     fill="#ff0000"
     stroke="none"
     data-bg="1"
     id="rect1"
     style="fill:#000000;fill-opacity:1" />
  <path
     d="m 23.233,37.106 a 0.026,0.026 0 0 0 -0.013,0.042 4.64,4.64 0 0 1 1.134,2.737 4.64,4.64 0 0 0 4.315,4.315 4.64,4.64 0 0 1 2.737,1.134 4.64,4.64 0 0 0 6.102,0 4.64,4.64 0 0 1 2.737,-1.134 4.64,4.64 0 0 0 4.315,-4.315 4.64,4.64 0 0 1 1.134,-2.737 4.64,4.64 0 0 0 0,-6.103 4.64,4.64 0 0 1 -1.134,-2.736 4.64,4.64 0 0 0 -4.315,-4.316 4.64,4.64 0 0 1 -2.737,-1.133 c -0.103,-0.09 -0.262,-0.035 -0.297,0.098 A 20.038,20.038 0 0 1 23.233,37.106 Z"
     fill="#ff0000"
     stroke="#ffffff"
     stroke-width="1px"
     id="path1"
     style="clip-rule:evenodd;fill:#ffc800;fill-opacity:1;fill-rule:evenodd;stroke:none" />
  <path
     d="m 24.7,23.677 a 0.5,0.5 0 0 1 0.233,0.304 l 1.312,4.897 a 0.5,0.5 0 0 0 0.613,0.353 l 2.222,-0.595 a 0.5,0.5 0 0 0 0.353,-0.613 l -0.986,-3.68 a 0.5,0.5 0 0 1 0.354,-0.612 l 3.68,-0.987 a 0.5,0.5 0 0 0 0.355,-0.612 L 32.24,19.91 a 0.5,0.5 0 0 0 -0.612,-0.353 l -4.898,1.312 a 0.5,0.5 0 0 1 -0.38,-0.05 l -2.127,-1.228 a 0.528,0.528 0 0 1 -0.245,-0.561 6.273,6.273 0 0 0 0.002,-2.398 0.528,0.528 0 0 1 0.245,-0.56 l 2.126,-1.227 a 0.5,0.5 0 0 1 0.379,-0.05 l 4.898,1.312 a 0.5,0.5 0 0 0 0.612,-0.354 l 0.595,-2.221 A 0.5,0.5 0 0 0 32.482,12.92 L 28.8,11.933 a 0.5,0.5 0 0 1 -0.353,-0.612 l 0.986,-3.68 A 0.5,0.5 0 0 0 29.079,7.028 L 26.858,6.433 a 0.5,0.5 0 0 0 -0.613,0.353 l -1.312,4.897 A 0.5,0.5 0 0 1 24.7,11.987 l -2.114,1.22 a 0.528,0.528 0 0 1 -0.611,-0.07 6.239,6.239 0 0 0 -2.088,-1.216 0.528,0.528 0 0 1 -0.363,-0.493 V 9 a 0.5,0.5 0 0 1 0.147,-0.353 l 3.586,-3.585 a 0.5,0.5 0 0 0 0,-0.707 L 21.63,2.728 a 0.5,0.5 0 0 0 -0.708,0 l -2.695,2.695 a 0.5,0.5 0 0 1 -0.707,0 L 14.824,2.728 a 0.5,0.5 0 0 0 -0.707,0 l -1.626,1.627 a 0.5,0.5 0 0 0 0,0.707 l 3.586,3.585 A 0.5,0.5 0 0 1 16.223,9 v 2.411 a 0.528,0.528 0 0 1 -0.367,0.494 6.238,6.238 0 0 0 -2.115,1.216 0.528,0.528 0 0 1 -0.61,0.069 L 11.046,11.986 A 0.5,0.5 0 0 1 10.813,11.683 L 9.502,6.786 A 0.5,0.5 0 0 0 8.89,6.433 L 6.668,7.028 A 0.5,0.5 0 0 0 6.315,7.64 l 0.986,3.681 a 0.5,0.5 0 0 1 -0.354,0.613 l -3.68,0.986 a 0.5,0.5 0 0 0 -0.354,0.612 l 0.595,2.222 a 0.5,0.5 0 0 0 0.613,0.353 l 4.898,-1.312 a 0.5,0.5 0 0 1 0.38,0.05 l 2.08,1.2 a 0.528,0.528 0 0 1 0.244,0.563 6.276,6.276 0 0 0 0.003,2.446 0.528,0.528 0 0 1 -0.245,0.563 L 9.398,20.82 a 0.5,0.5 0 0 1 -0.38,0.05 L 4.121,19.557 a 0.5,0.5 0 0 0 -0.613,0.354 l -0.595,2.221 a 0.5,0.5 0 0 0 0.354,0.612 l 3.681,0.987 a 0.5,0.5 0 0 1 0.354,0.612 l -0.987,3.68 a 0.5,0.5 0 0 0 0.354,0.613 l 2.222,0.595 a 0.5,0.5 0 0 0 0.612,-0.353 l 1.313,-4.897 a 0.5,0.5 0 0 1 0.233,-0.304 l 2.094,-1.209 a 0.527,0.527 0 0 1 0.609,0.068 c 0.61,0.53 1.323,0.944 2.105,1.207 a 0.528,0.528 0 0 1 0.367,0.495 v 2.426 a 0.5,0.5 0 0 1 -0.146,0.353 l -3.586,3.585 a 0.5,0.5 0 0 0 0,0.707 l 1.626,1.627 a 0.5,0.5 0 0 0 0.707,0 l 2.696,-2.695 a 0.5,0.5 0 0 1 0.707,0 l 2.695,2.695 a 0.5,0.5 0 0 0 0.708,0 l 1.626,-1.626 a 0.5,0.5 0 0 0 0,-0.707 L 19.671,27.017 A 0.5,0.5 0 0 1 19.524,26.664 V 24.22 c 0,-0.225 0.15,-0.42 0.363,-0.493 a 6.238,6.238 0 0 0 2.078,-1.208 0.528,0.528 0 0 1 0.61,-0.07 l 2.125,1.227 z m -6.85,-8.796 a 2.9440002,2.9440002 0 1 0 -0.002,5.888 2.944,2.944 0 0 0 0.001,-5.888 z"
     fill="#ff0000"
     stroke="#ffffff"
     stroke-width="1px"
     id="path2"
     style="clip-rule:evenodd;fill:#47f5ff;fill-opacity:1;fill-rule:evenodd;stroke:none" />
  <defs
     id="defs3" />
</svg>
