<?xml version="1.0" encoding="UTF-8"?>
<svg version="1.1" viewBox="0 0 49 49" xmlns="http://www.w3.org/2000/svg">
<rect width="49" height="49" data-bg="1"/>
<path d="m27.059 5.16a6.21 6.21 0 0 1 5.774 5.774 6.21 6.21 0 0 0 1.517 3.662 6.21 6.21 0 0 1 0 8.166 6.21 6.21 0 0 0-1.517 3.662 6.21 6.21 0 0 1-5.774 5.774 6.21 6.21 0 0 0-3.662 1.517 6.21 6.21 0 0 1-8.166 0 6.21 6.21 0 0 0-3.662-1.517 6.21 6.21 0 0 1-5.775-5.774 6.21 6.21 0 0 0-1.517-3.662 6.21 6.21 0 0 1 0-8.166 6.21 6.21 0 0 0 1.517-3.662 6.21 6.21 0 0 1 5.775-5.775 6.21 6.21 0 0 0 3.662-1.517 6.21 6.21 0 0 1 8.166 0 6.21 6.21 0 0 0 3.662 1.517z" fill="#ffa200" stroke="#fff" stroke-width="1px"/>
<path d="m31.927 34.147c-0.13 0.085-0.18 0.25-0.201 0.404a4.586 4.586 0 0 0 0 1.298 0.538 0.538 0 0 1-0.252 0.547l-1.102 0.636a0.5 0.5 0 0 1-0.379 0.05l-3.121-0.836a0.5 0.5 0 0 0-0.613 0.354l-0.44 1.642a0.5 0.5 0 0 0 0.354 0.612l2.075 0.556a0.5 0.5 0 0 1 0.353 0.612l-0.556 2.075a0.5 0.5 0 0 0 0.354 0.612l1.642 0.44a0.5 0.5 0 0 0 0.612-0.353l0.837-3.122a0.5 0.5 0 0 1 0.233-0.303l1.111-0.642c0.19-0.11 0.426-0.08 0.598 0.053 0.337 0.263 0.712 0.48 1.114 0.64a0.538 0.538 0 0 1 0.35 0.493v1.288a0.5 0.5 0 0 1-0.147 0.353l-2.285 2.285a0.5 0.5 0 0 0 0 0.707l1.202 1.202a0.5 0.5 0 0 0 0.707 0l1.519-1.518a0.5 0.5 0 0 1 0.707 0l1.519 1.518a0.5 0.5 0 0 0 0.707 0l1.202-1.202a0.5 0.5 0 0 0 0-0.707l-2.285-2.285a0.5 0.5 0 0 1-0.147-0.353v-1.303c0-0.219 0.143-0.41 0.345-0.491a4.545 4.545 0 0 0 1.097-0.638 0.538 0.538 0 0 1 0.6-0.055l1.131 0.654a0.5 0.5 0 0 1 0.233 0.303l0.837 3.122a0.5 0.5 0 0 0 0.612 0.353l1.642-0.44a0.5 0.5 0 0 0 0.354-0.612l-0.556-2.075a0.5 0.5 0 0 1 0.353-0.612l2.075-0.556a0.5 0.5 0 0 0 0.353-0.612l-0.44-1.642a0.5 0.5 0 0 0-0.612-0.354l-3.121 0.837a0.5 0.5 0 0 1-0.38-0.05l-1.134-0.655a0.538 0.538 0 0 1-0.253-0.546 4.585 4.585 0 0 0 2e-3 -1.265 0.538 0.538 0 0 1 0.252-0.544l1.133-0.654a0.5 0.5 0 0 1 0.38-0.05l3.121 0.836a0.5 0.5 0 0 0 0.612-0.353l0.44-1.642a0.5 0.5 0 0 0-0.353-0.613l-2.075-0.556a0.5 0.5 0 0 1-0.353-0.612l0.556-2.075a0.5 0.5 0 0 0-0.354-0.612l-1.642-0.44a0.5 0.5 0 0 0-0.612 0.354l-0.838 3.121a0.5 0.5 0 0 1-0.233 0.304l-1.124 0.65a0.538 0.538 0 0 1-0.6-0.056 4.545 4.545 0 0 0-1.104-0.643 0.538 0.538 0 0 1-0.345-0.491v-1.291a0.5 0.5 0 0 1 0.147-0.354l2.285-2.285a0.5 0.5 0 0 0 0-0.707l-1.202-1.202a0.5 0.5 0 0 0-0.707 0l-1.52 1.519c-0.113 0.113-0.247 0.228-0.264 0.388a2.934 2.934 0 0 0-9e-3 0.103 9.705 9.705 0 0 1-4.399 7.486zm2.453 1.048a1.848 1.848 0 1 1 3.696 0 1.848 1.848 0 0 1-3.696 0z" clip-rule="evenodd" fill="#6fe5ff" fill-rule="evenodd" stroke="#fff" stroke-width="1px"/>
</svg>
