<?xml version="1.0" encoding="UTF-8" standalone="no"?>
<svg
   fill="none"
   viewBox="0 0 49 49"
   version="1.1"
   id="svg3"
   sodipodi:docname="sunny_with_cloudy_dark.svg"
   inkscape:version="1.4.3 (1:1.4.3+202512261035+0d15f75042)"
   xmlns:inkscape="http://www.inkscape.org/namespaces/inkscape"
   xmlns:sodipodi="http://sodipodi.sourceforge.net/DTD/sodipodi-0.dtd"
   xmlns="http://www.w3.org/2000/svg"
   xmlns:svg="http://www.w3.org/2000/svg">
  <sodipodi:namedview
     id="namedview3"
     pagecolor="#ffffff"
     bordercolor="#666666"
     borderopacity="1.0"
     inkscape:showpageshadow="2"
     inkscape:pageopacity="0.0"
     inkscape:pagecheckerboard="0"
     inkscape:deskcolor="#d1d1d1"
     inkscape:zoom="16.285714"
     inkscape:cx="24.469299"
     inkscape:cy="24.469299"
     inkscape:window-width="1920"
     inkscape:window-height="1011"
     inkscape:window-x="0"
     inkscape:window-y="32"
     inkscape:window-maximized="1"
     inkscape:current-layer="svg3" />
  <rect
     x="0.0"
     y="0.0"
     width="49.0"
     height="49.0"
     fill="#ff0000"
     stroke="none"
     data-bg="1"
     id="rect1"
     style="fill:#000000;fill-opacity:1" />
  <path
     d="m 27.047,5.915 a 6.21,6.21 0 0 1 5.774,5.774 6.21,6.21 0 0 0 1.517,3.662 6.21,6.21 0 0 1 0,8.166 6.21,6.21 0 0 0 -1.517,3.662 6.21,6.21 0 0 1 -5.774,5.775 6.21,6.21 0 0 0 -3.663,1.517 6.21,6.21 0 0 1 -8.166,0 6.21,6.21 0 0 0 -3.662,-1.517 6.21,6.21 0 0 1 -5.774,-5.775 6.21,6.21 0 0 0 -1.517,-3.662 6.21,6.21 0 0 1 0,-8.166 6.21,6.21 0 0 0 1.517,-3.662 6.21,6.21 0 0 1 5.774,-5.774 6.21,6.21 0 0 0 3.662,-1.517 6.21,6.21 0 0 1 8.166,0 6.21,6.21 0 0 0 3.663,1.517 z"
     fill="#ff0000"
     stroke="#ffffff"
     stroke-width="1px"
     id="path1"
     style="fill:#ffa300;fill-opacity:1;stroke:none" />
  <path
     fill-rule="evenodd"
     d="m 19.12,39.5 a 5.863,5.863 0 0 0 -0.191,1.49 c 0,3.273 2.672,5.927 5.967,5.927 h 12.8 V 46.91 c 5.048,-0.191 9.08,-4.316 9.08,-9.376 0,-5.182 -4.23,-9.383 -9.448,-9.383 -0.373,0 -0.74,0.021 -1.102,0.063 a 9.71,9.71 0 0 1 -8.942,8.232 2.71,2.71 0 0 0 -1.598,0.662 9.69,9.69 0 0 1 -6.567,2.392 z"
     clip-rule="evenodd"
     fill="#ff0000"
     stroke="#ffffff"
     stroke-width="1px"
     id="path2"
     style="fill:#898989;fill-opacity:1" />
  <defs
     id="defs3" />
</svg>
