<?xml version="1.0" encoding="UTF-8"?>
<svg version="1.1" viewBox="0 0 49 49" xmlns="http://www.w3.org/2000/svg">
<rect width="49" height="49" data-bg="1"/>
<path d="m27.04 5.521a6.21 6.21 0 0 1 5.775 5.775 6.21 6.21 0 0 0 1.517 3.662 6.21 6.21 0 0 1 0 8.166 6.21 6.21 0 0 0-1.517 3.662 6.21 6.21 0 0 1-5.775 5.774 6.21 6.21 0 0 0-3.662 1.517 6.21 6.21 0 0 1-8.166 0 6.21 6.21 0 0 0-3.662-1.517 6.21 6.21 0 0 1-5.774-5.774 6.21 6.21 0 0 0-1.517-3.662 6.21 6.21 0 0 1 0-8.166 6.21 6.21 0 0 0 1.517-3.662 6.21 6.21 0 0 1 5.774-5.776 6.21 6.21 0 0 0 3.662-1.517 6.21 6.21 0 0 1 8.166 0 6.21 6.21 0 0 0 3.662 1.517z" fill="#ffad00" stroke="#fff" stroke-width="1px"/>
<path d="m28.035 35.971c-0.46 2.787 0.421 5.74 2.644 7.889 3.682 3.56 9.653 3.56 13.336 0 3.682-3.56 3.682-9.33 0-12.89l-0.06-0.056-6.419-6.204a9.803 9.803 0 0 1-0.567 0.715 2.71 2.71 0 0 0-0.662 1.598 9.71 9.71 0 0 1-8.272 8.948z" clip-rule="evenodd" fill="#65e1ff" fill-rule="evenodd" stroke="#fff" stroke-width="1px"/>
</svg>
