<?xml version="1.0" encoding="UTF-8"?>
<svg version="1.1" viewBox="0 0 49 49" xmlns="http://www.w3.org/2000/svg">
<rect width="49" height="49" data-bg="1"/>
<path d="m27.047 5.915a6.21 6.21 0 0 1 5.774 5.774 6.21 6.21 0 0 0 1.517 3.662 6.21 6.21 0 0 1 0 8.166 6.21 6.21 0 0 0-1.517 3.662 6.21 6.21 0 0 1-5.774 5.775 6.21 6.21 0 0 0-3.663 1.517 6.21 6.21 0 0 1-8.166 0 6.21 6.21 0 0 0-3.662-1.517 6.21 6.21 0 0 1-5.774-5.775 6.21 6.21 0 0 0-1.517-3.662 6.21 6.21 0 0 1 0-8.166 6.21 6.21 0 0 0 1.517-3.662 6.21 6.21 0 0 1 5.774-5.774 6.21 6.21 0 0 0 3.662-1.517 6.21 6.21 0 0 1 8.166 0 6.21 6.21 0 0 0 3.663 1.517z" fill="#ffa300" stroke="#fff" stroke-width="1px"/>
<path d="m19.12 39.5a5.863 5.863 0 0 0-0.191 1.49c0 3.273 2.672 5.927 5.967 5.927h12.8v-7e-3c5.048-0.191 9.08-4.316 9.08-9.376 0-5.182-4.23-9.383-9.448-9.383-0.373 0-0.74 0.021-1.102 0.063a9.71 9.71 0 0 1-8.942 8.232 2.71 2.71 0 0 0-1.598 0.662 9.69 9.69 0 0 1-6.567 2.392z" clip-rule="evenodd" fill="#898989" fill-rule="evenodd" stroke="#fff" stroke-width="1px"/>
</svg>
