<?xml version="1.0" encoding="UTF-8" standalone="no"?>
<svg
   fill="none"
   viewBox="0 0 49 49"
   version="1.1"
   id="svg3"
   sodipodi:docname="sunny_with_rain_light.svg"
   inkscape:version="1.4.3 (1:1.4.3+202512261035+0d15f75042)"
   xmlns:inkscape="http://www.inkscape.org/namespaces/inkscape"
   xmlns:sodipodi="http://sodipodi.sourceforge.net/DTD/sodipodi-0.dtd"
   xmlns="http://www.w3.org/2000/svg"
   xmlns:svg="http://www.w3.org/2000/svg">
  <sodipodi:namedview
     id="namedview3"
     pagecolor="#ffffff"
     bordercolor="#666666"
     borderopacity="1.0"
     inkscape:showpageshadow="2"
     inkscape:pageopacity="0.0"
     inkscape:pagecheckerboard="0"
     inkscape:deskcolor="#d1d1d1"
     inkscape:zoom="16.285714"
     inkscape:cx="24.469299"
     inkscape:cy="24.469299"
     inkscape:window-width="1920"
     inkscape:window-height="1011"
     inkscape:window-x="0"
     inkscape:window-y="32"
     inkscape:window-maximized="1"
     inkscape:current-layer="svg3" />
  <rect
     x="0.0"
     y="0.0"
     width="49.0"
     height="49.0"
     fill="#ff0000"
     stroke="none"
     data-bg="1"
     id="rect1"
     style="fill:#000000;fill-opacity:1" />
  <path
     d="m 27.04,5.521 a 6.21,6.21 0 0 1 5.775,5.775 6.21,6.21 0 0 0 1.517,3.662 6.21,6.21 0 0 1 0,8.166 6.21,6.21 0 0 0 -1.517,3.662 6.21,6.21 0 0 1 -5.775,5.774 6.21,6.21 0 0 0 -3.662,1.517 6.21,6.21 0 0 1 -8.166,0 6.21,6.21 0 0 0 -3.662,-1.517 6.21,6.21 0 0 1 -5.774,-5.774 6.21,6.21 0 0 0 -1.517,-3.662 6.21,6.21 0 0 1 0,-8.166 6.21,6.21 0 0 0 1.517,-3.662 6.21,6.21 0 0 1 5.774,-5.776 6.21,6.21 0 0 0 3.662,-1.517 6.21,6.21 0 0 1 8.166,0 6.21,6.21 0 0 0 3.662,1.517 z"
     fill="#ff0000"
     stroke="#ffffff"
     stroke-width="1px"
     id="path1"
     style="fill:#ffa200;fill-opacity:1;stroke:none" />
  <path
     fill-rule="evenodd"
     d="m 28.035,35.971 c -0.46,2.787 0.421,5.74 2.644,7.889 3.682,3.56 9.653,3.56 13.336,0 3.682,-3.56 3.682,-9.33 0,-12.89 a 7.825,7.825 0 0 0 -0.06,-0.056 L 37.536,24.71 a 9.805,9.805 0 0 1 -0.567,0.715 2.71,2.71 0 0 0 -0.662,1.598 9.71,9.71 0 0 1 -8.272,8.948 z"
     clip-rule="evenodd"
     fill="#ff0000"
     stroke="#ffffff"
     stroke-width="1px"
     id="path2"
     style="fill:#62eaff;fill-opacity:1;stroke:none" />
  <defs
     id="defs3" />
</svg>
