<?xml version="1.0" encoding="UTF-8"?>
<svg version="1.1" viewBox="0 0 49 49" xmlns="http://www.w3.org/2000/svg">
<rect width="49" height="49" data-bg="1"/>
<path d="m27.046 5.915a6.21 6.21 0 0 1 5.775 5.774 6.21 6.21 0 0 0 1.517 3.662 6.21 6.21 0 0 1 0 8.166 6.21 6.21 0 0 0-1.517 3.662 6.21 6.21 0 0 1-5.775 5.775 6.21 6.21 0 0 0-3.662 1.517 6.21 6.21 0 0 1-8.166 0 6.21 6.21 0 0 0-3.662-1.517 6.21 6.21 0 0 1-5.774-5.775 6.21 6.21 0 0 0-1.517-3.662 6.21 6.21 0 0 1 0-8.166 6.21 6.21 0 0 0 1.517-3.662 6.21 6.21 0 0 1 5.774-5.774 6.21 6.21 0 0 0 3.662-1.517 6.21 6.21 0 0 1 8.166 0 6.21 6.21 0 0 0 3.662 1.517z" fill="#fa0" stroke="#fff" stroke-width="1px"/>
<path d="m24.942 46.417h-0.046c-3.023 0-5.467-2.433-5.467-5.426 0-0.223 0.013-0.442 0.04-0.657 0.019-0.157 0.18-0.334 0.468-0.352a10.183 10.183 0 0 0 6.077-2.498l-0.328-0.376 0.328 0.376a2.21 2.21 0 0 1 1.304-0.54 10.212 10.212 0 0 0 9.25-7.865c0.063-0.268 0.258-0.416 0.438-0.423 0.107-3e-3 0.215-5e-3 0.322-5e-3 4.946 0 8.949 3.98 8.949 8.883 0 4.787-3.817 8.695-8.6 8.877l-0.184 6e-3z" fill="#f00" stroke="#fff" stroke-width="1px"/>
<path d="m24.942 46.417h-0.046c-3.023 0-5.467-2.433-5.467-5.426 0-0.223 0.013-0.442 0.04-0.657 0.019-0.157 0.18-0.334 0.468-0.352a10.183 10.183 0 0 0 6.077-2.498l-0.328-0.376 0.328 0.376a2.21 2.21 0 0 1 1.304-0.54 10.212 10.212 0 0 0 9.25-7.865c0.063-0.268 0.258-0.416 0.438-0.423 0.107-3e-3 0.215-5e-3 0.322-5e-3 4.946 0 8.949 3.98 8.949 8.883 0 4.787-3.817 8.695-8.6 8.877l-0.184 6e-3z" fill="#f00" stroke="#fff" stroke-width="1px"/>
<path d="m24.942 46.417h-0.046c-3.023 0-5.467-2.433-5.467-5.426 0-0.223 0.013-0.442 0.04-0.657 0.019-0.157 0.18-0.334 0.468-0.352a10.183 10.183 0 0 0 6.077-2.498l-0.328-0.376 0.328 0.376a2.21 2.21 0 0 1 1.304-0.54 10.212 10.212 0 0 0 9.25-7.865c0.063-0.268 0.258-0.416 0.438-0.423 0.107-3e-3 0.215-5e-3 0.322-5e-3 4.946 0 8.949 3.98 8.949 8.883 0 4.787-3.817 8.695-8.6 8.877l-0.184 6e-3z" fill="#8e8e8e" stroke="#fff" stroke-width="1px"/>
</svg>
