<?xml version="1.0" encoding="UTF-8"?>
<svg fill="none" version="1.1" viewBox="0 0 48 48" xmlns="http://www.w3.org/2000/svg" xmlns:xlink="http://www.w3.org/1999/xlink">
<rect width="48" height="48" fill="#000" data-bg="1"/>
<mask id="b" x="7" y="3" width="37" height="36" style="mask-type:luminance" maskUnits="userSpaceOnUse">
<use fill="#ff0000" stroke="white" stroke-width="1px" xlink:href="#a"/>
</mask>
<g fill="#f00" mask="url(#b)" stroke="#fff" stroke-width="1px">
<path d="M7 3h37l-4 4H7V3Zm14 28h13l4-4H21v4Zm.01 8h5.49c0-1.47.43-2.84 1.16-4H19c0 1.64.79 3.09 2.01 4ZM8.67 11c.62 1.43 1.41 2.77 2.33 4h30.8c-.3-1.48-.93-2.84-1.8-4H8.67ZM40 23H18.9l-4-4h26.9c-.3 1.48-.93 2.84-1.8 4Z" clip-rule="evenodd" fill="#f00" fill-rule="evenodd" stroke="#fff" stroke-width="1px"/>
</g>
<mask id="c" x="7" y="3" width="37" height="36" style="mask-type:luminance" maskUnits="userSpaceOnUse">
<use fill="#ff0000" stroke="white" stroke-width="1px" xlink:href="#a"/>
</mask>
<g fill="#f00" mask="url(#c)" stroke="#fff" stroke-width="1px">
<path d="M21 27.25h16.51L38 27H21v.25Z" clip-rule="evenodd" fill="#f00" fill-rule="evenodd" stroke="#fff" stroke-width="1px"/>
</g>
<path d="M41.68 19.25H15.4l-.5-.25h26.9l-.12.25ZM19 35l.03.25h8.34l.29-.25H19ZM8.67 11H40c.87 1.16 1.5 2.52 1.8 4l-.12-.25c-.33-1.29-.9-2.47-1.68-3.5H8.9L8.67 11ZM7 3v.25h36.5L44 3H7Z" clip-rule="evenodd" fill="#8d8d8d" fill-rule="evenodd" stroke="#888" stroke-width="1px"/>
<mask id="d" x="7" y="3" width="37" height="36" style="mask-type:luminance" maskUnits="userSpaceOnUse">
<use fill="#ff0000" stroke="white" stroke-width="1px" xlink:href="#a"/>
</mask>
<g fill="#f00" mask="url(#d)" stroke="#fff" stroke-width="1px">
<path d="m44 3-.5.25-3.5 3.5H7V7h33l4-4ZM26.5 38.75h-5.49a4.993 4.993 0 0 1-1.98-3.5L19 35c0 1.64.79 3.09 2.01 4h5.49c0-1.47.43-2.84 1.16-4l-.28.25a7.385 7.385 0 0 0-.88 3.5Zm-5.5-8h13l3.49-3.49L38 27l-4 4H21v-.25Zm20.68-11.5c-.33 1.28-.91 2.47-1.68 3.5H18.9l-3.5-3.5-.5-.25 4 4H40c.87-1.16 1.5-2.52 1.8-4l-.12.25ZM11 15c-.92-1.23-1.71-2.57-2.33-4l.23.25c.58 1.24 1.28 2.41 2.1 3.5h30.68l.12.25H11Z" clip-rule="evenodd" fill="#f00" fill-rule="evenodd" stroke="#fff" stroke-width="1px"/>
</g>
<path d="m38 45a9 9 0 0 0 9-9 9 9 0 0 0-9-9 9 9 0 0 0-9 9 9 9 0 0 0 9 9zm-28 0a9 9 0 0 1-9-9 9 9 0 0 1 9-9 9 9 0 0 1 9 9 9 9 0 0 1-9 9z" fill="#c3c3c3" stroke="#6f6f6f" stroke-width="1px"/>
<path d="M39 45a7.5 7.5 0 0 0-15 0M9 45a7.5 7.5 0 0 1 15 0" clip-rule="evenodd" fill="#cecece" fill-rule="evenodd" stroke="#636363" stroke-width="1px"/>
</svg>
