<?xml version="1.0" encoding="UTF-8" standalone="no"?>
<svg
   fill="none"
   viewBox="0 0 48 48"
   version="1.1"
   id="svg4"
   sodipodi:docname="tropical_storm_hurricane.svg"
   inkscape:version="1.4.3 (1:1.4.3+202512261035+0d15f75042)"
   xmlns:inkscape="http://www.inkscape.org/namespaces/inkscape"
   xmlns:sodipodi="http://sodipodi.sourceforge.net/DTD/sodipodi-0.dtd"
   xmlns="http://www.w3.org/2000/svg"
   xmlns:svg="http://www.w3.org/2000/svg">
  <defs
     id="defs4" />
  <sodipodi:namedview
     id="namedview4"
     pagecolor="#ffffff"
     bordercolor="#666666"
     borderopacity="1.0"
     inkscape:showpageshadow="2"
     inkscape:pageopacity="0.0"
     inkscape:pagecheckerboard="0"
     inkscape:deskcolor="#d1d1d1"
     inkscape:zoom="16.625"
     inkscape:cx="24.030075"
     inkscape:cy="24.030075"
     inkscape:window-width="1920"
     inkscape:window-height="1011"
     inkscape:window-x="0"
     inkscape:window-y="32"
     inkscape:window-maximized="1"
     inkscape:current-layer="svg4" />
  <rect
     x="0.0"
     y="0.0"
     width="48.0"
     height="48.0"
     fill="#ff0000"
     stroke="none"
     data-bg="1"
     id="rect1"
     style="fill:#000000;fill-opacity:1" />
  <path
     fill-rule="evenodd"
     d="M24 39c-9.539 0-15.962-7.191-18.993-11.578a5.822 5.822 0 0 1-.024-6.636C8.004 16.337 14.436 9 24 9s15.996 7.337 19.017 11.786a5.822 5.822 0 0 1-.024 6.636C39.963 31.809 33.54 39 24 39Z"
     clip-rule="evenodd"
     fill="#ff0000"
     stroke="white"
     stroke-width="1px"
     id="path1" />
  <path
     d="M20.5 1.55a1 1 0 0 0 0 2c11.123 0 20.14 9.018 20.14 20.14a1 1 0 1 0 2 0c0-12.227-9.912-22.14-22.14-22.14ZM5.5 24.45a1 1 0 0 1 2 0c0 11.123 9.018 20.141 20.14 20.141a1 1 0 1 1 0 2c-12.227 0-22.14-9.913-22.14-22.141Z"
     fill="#ff0000"
     stroke="white"
     stroke-width="1px"
     id="path2"
     style="fill:#ffffff;fill-opacity:1;stroke:none" />
  <path
     d="M24 36c6.627 0 12-5.373 12-12s-5.373-12-12-12-12 5.373-12 12 5.373 12 12 12Z"
     fill="#ff0000"
     stroke="white"
     stroke-width="1px"
     id="path3"
     style="fill:#ffffff;fill-opacity:1;stroke:none" />
  <path
     d="M18.25 24a5.75 5.75 0 1 1 11.5 0 5.75 5.75 0 1 1-11.5 0ZM24 16.25a7.75 7.75 0 1 0 0 15.5 7.75 7.75 0 0 0 0-15.5Z"
     fill="#ff0000"
     stroke="white"
     stroke-width="1px"
     id="path4" />
</svg>
