<?xml version="1.0" encoding="UTF-8"?>
<svg fill="none" version="1.1" viewBox="0 0 48 48" xmlns="http://www.w3.org/2000/svg">
<rect width="48" height="48" fill="#000" data-bg="1"/>
<g fill="#00ffed" mask="url(#b)" stroke="#fff" stroke-width="1px">
<path d="m37 3a6.91 6.91 0 0 0-6.918 6.909v18.429c0 0.158 0 0.304 0.013 0.462-1.904 1.823-3.095 4.373-3.095 7.213 0 5.509 4.471 9.987 10 9.987s10-4.465 10-9.987c0-2.84-1.19-5.403-3.095-7.213 0.013-0.158 0.013-0.304 0.013-0.462v-18.429c0.013-3.818-3.095-6.909-6.918-6.909z" clip-rule="evenodd" fill="#00ffed" fill-rule="evenodd" stroke="none" stroke-width="1px"/>
</g>
<path d="m37 5.51a3.746 3.746 0 0 0-3.743 3.739v20.978a6.905 6.905 0 0 0-3.175 5.812 6.91 6.91 0 0 0 6.918 6.909 6.91 6.91 0 0 0 6.918-6.909c0-2.43-1.27-4.584-3.175-5.812v-20.978c0.014-2.061-1.666-3.739-3.743-3.739z" clip-rule="evenodd" fill="#000" fill-rule="evenodd" stroke="#fff" stroke-width="1px"/>
<path d="m37 32.948a3.746 3.746 0 0 1 3.743 3.739 3.745 3.745 0 0 1-3.743 3.738 3.746 3.746 0 0 1-3.743-3.738 3.746 3.746 0 0 1 3.743-3.739z" fill="#f00" stroke-width="1px"/>
<path d="m37 22.961a1.33 1.33 0 0 1 1.336 1.334v9.314c0 0.74-0.595 1.334-1.336 1.334a1.332 1.332 0 0 1-1.336-1.334v-9.314c0.013-0.726 0.608-1.334 1.336-1.334z" fill="#f00" stroke-width="1px"/>
<path d="m22.603 38.646v-7.341c3.1605-0.73595 5.3969-3.5529 5.397-6.798 0.0055-3.247-2.2334-6.067-5.397-6.798v-7.341l4.634-4.665 0.46-0.464-0.46-0.463-1.29-1.299-0.461-0.477-4.437 4.466-3.988-3.989-0.461-0.464-0.461 0.464 0.448 0.464-0.461-0.464-1.29 1.299-0.461 0.463 0.461 0.464 4.634 4.665v7.327c-0.75001 0.17299-1.4663 0.46863-2.12 0.875l-5.147-5.181v-7.248h-3.133v6.334h-6.28v3.153h7.201l5.148 5.182c-0.4078 0.65227-0.70166 1.3692-0.869 2.12h-5.964l-5.0731-5.078-1.7719 1.712-0.461 0.464 0.461 0.464 3.975 4.001-3.975 4.002 0.461 0.477-0.461-0.464-0.461 0.464 0.461 0.464 1.29 1.299 0.461 0.463 0.46-0.463 4.634-4.665h5.964c0.16963 0.75659 0.46796 1.4784 0.882 2.134l-5.147 5.181h-7.215v3.154h6.293v6.334h3.133v-7.249l5.134-5.181c0.65265 0.4113 1.3691 0.71138 2.12 0.888v7.315l-5.095 5.128 0.461 0.464 1.29 1.298 0.461 0.464 0.46-0.464 3.976-4.002 3.976 4.002 0.46 0.464 0.461-0.464 1.29-1.298 0.461-0.464-0.461-0.464zm-1.461-10.283h-0.211c-2.054-0.053-3.712-1.749-3.726-3.83v-0.04c0.014-2.12 1.725-3.843 3.831-3.843 2.12 0 3.831 1.723 3.831 3.857 0.0022 2.0799-1.6463 3.7864-3.725 3.856z" fill="#64dcff" stroke="#fff" stroke-width="1px"/>
<defs>
<mask id="b" x="0" y="0" width="48" height="48" style="mask-type:luminance" maskUnits="userSpaceOnUse">
<path d="M0 0h48v48H0V0Z" fill="#f00" stroke="#fff" stroke-width="1px"/>
</mask>
</defs>
</svg>
