<?xml version="1.0" encoding="UTF-8"?>
<svg version="1.1" viewBox="0 0 48 48" xmlns="http://www.w3.org/2000/svg">
<rect width="48" height="48" data-bg="1"/>
<path d="m35.577 4a6.5 6.5 0 0 0-6.5 6.5v19.359a9.973 9.973 0 0 0-3.077 7.217c0 5.522 4.477 10 10 10s10-4.478 10-10a9.969 9.969 0 0 0-3.077-7.216l1e-3 -0.052v-19.308a6.5 6.5 0 0 0-6.5-6.5z" clip-rule="evenodd" fill="#0f6001" fill-rule="evenodd" stroke="#fff" stroke-width="1px"/>
<path d="m36.001 6.513a3.75 3.75 0 0 0-3.75 3.75v21.007a6.923 6.923 0 1 0 7.5-1e-3v-21.006a3.75 3.75 0 0 0-3.75-3.75z" clip-rule="evenodd" fill-rule="evenodd" stroke="#fff" stroke-width="1px"/>
<path d="m36.001 34.003a3.75 3.75 0 1 1 0 7.5 3.75 3.75 0 0 1 0-7.5z" fill="#f00" stroke-width="1px"/>
<path d="m36 12a1.333 1.333 0 0 1 1.333 1.333v21.334a1.333 1.333 0 1 1-2.666 0v-21.334a1.333 1.333 0 0 1 1.333-1.333z" fill="#f00" stroke="#fff" stroke-width="1px"/>
<path d="m24.903 44.17a7.922 7.922 0 0 1-8.983-0.995 7.923 7.923 0 0 0-4.67-1.935 7.917 7.917 0 0 1-7.363-7.363 7.923 7.923 0 0 0-1.935-4.67 7.919 7.919 0 0 1 0-10.413 7.923 7.923 0 0 0 1.935-4.67 7.917 7.917 0 0 1 7.363-7.363 7.922 7.922 0 0 0 4.67-1.934 7.917 7.917 0 0 1 10.413 0c0.212 0.184 0.432 0.357 0.66 0.517a9.19 9.19 0 0 0-0.779 3.718v18.558c-2.214 3.414-3.088 5.894-3.088 10.032 0 2.394 0.6 4.627 1.777 6.518z" clip-rule="evenodd" fill="#ffa100" fill-rule="evenodd" stroke="#fff" stroke-width="1px"/>
</svg>
